M48
; DRILL file {KiCad 8.0.7-8.0.7-0~ubuntu22.04.1} date 2024-12-28T00:36:34+0000
; FORMAT={-:-/ absolute / inch / decimal}
; #@! TF.CreationDate,2024-12-28T00:36:34+00:00
; #@! TF.GenerationSoftware,Kicad,Pcbnew,8.0.7-8.0.7-0~ubuntu22.04.1
; #@! TF.FileFunction,Plated,1,2,PTH
FMAT,2
INCH
; #@! TA.AperFunction,Plated,PTH,ComponentDrill
T1C0.0079
; #@! TA.AperFunction,Plated,PTH,ViaDrill
T2C0.0157
; #@! TA.AperFunction,Plated,PTH,ComponentDrill
T3C0.0236
; #@! TA.AperFunction,Plated,PTH,ComponentDrill
T4C0.0394
; #@! TA.AperFunction,Plated,PTH,ComponentDrill
T5C0.0591
%
G90
G05
T1
X1.9883Y0.7364
X1.9883Y0.6813
X2.0158Y0.7639
X2.0158Y0.7088
X2.0158Y0.6537
X2.0434Y0.7364
X2.0434Y0.6813
X2.0709Y0.7639
X2.0709Y0.7088
X2.0709Y0.6537
X2.0985Y0.7364
X2.0985Y0.6813
T2
X0.0469Y-0.1843
X0.0469Y-0.4343
X0.0469Y-0.6843
X0.0469Y-0.9343
X0.0469Y-1.1843
X0.0469Y-1.4343
X0.0469Y-1.6843
X0.0469Y-1.9343
X0.0469Y-2.1843
X0.0469Y-2.4343
X0.0469Y-2.6843
X0.0469Y-2.9343
X0.0469Y-3.1843
X0.0469Y-3.4343
X0.0568Y0.3203
X0.0792Y0.6234
X0.1158Y1.0585
X0.1158Y1.0191
X0.1158Y0.9798
X0.1177Y0.6233
X0.1437Y0.8479
X0.1692Y0.699
X0.1777Y0.6633
X0.1777Y0.6219
X0.1777Y0.5779
X0.1777Y0.5339
X0.1819Y-0.0043
X0.1867Y0.8489
X0.1946Y0.3302
X0.2438Y1.088
X0.2536Y0.9601
X0.2635Y0.5073
X0.3324Y0.9601
X0.3422Y1.088
X0.3717Y0.9994
X0.3825Y0.1223
X0.4209Y1.0191
X0.4406Y1.088
X0.4465Y-2.1541
X0.4483Y0.5473
X0.4623Y-0.658
X0.4623Y-1.4061
X0.4736Y0.1012
X0.48Y1.0191
X0.4849Y0.2091
X0.4957Y0.5459
X0.5095Y-0.0104
X0.5297Y0.6019
X0.5391Y1.088
X0.5391Y0.5467
X0.5533Y0.1239
X0.5697Y0.6019
X0.5804Y0.5467
X0.5862Y0.0291
X0.6057Y0.6019
X0.6069Y0.6919
X0.608Y1.0191
X0.6276Y0.7166
X0.6276Y0.1136
X0.6375Y1.088
X0.6634Y0.7122
X0.6749Y0.2869
X0.6827Y0.0588
X0.7097Y0.1004
X0.7359Y1.088
X0.7597Y0.0999
X0.7598Y-0.1151
X0.7615Y-0.1541
X0.7615Y-2.4139
X0.7719Y-3.2593
X0.7772Y-1.6659
X0.7851Y-2.75
X0.793Y-0.3194
X0.793Y-0.9179
X0.7936Y-1.2413
X0.7997Y0.2919
X0.8009Y-1.3273
X0.8009Y-2.8362
X0.8034Y-0.1185
X0.8146Y0.1038
X0.8324Y0.2235
X0.8353Y1.085
X0.8417Y0.2949
X0.8481Y0.6687
X0.8578Y-0.0968
X0.8639Y0.1038
X0.8875Y0.6648
X0.8934Y-0.1096
X0.9032Y-0.4139
X0.9131Y0.1038
X0.9157Y0.2939
X0.9318Y1.085
X0.9328Y-0.1128
X0.9347Y0.5624
X0.9577Y0.2899
X0.9623Y0.1038
X0.9721Y-0.1128
X1.0115Y0.1038
X1.0322Y1.085
X1.0737Y0.6519
X1.1001Y0.5565
X1.1198Y1.085
X1.1355Y0.3789
X1.1479Y-0.0143
X1.1709Y0.1136
X1.1788Y0.5231
X1.1971Y0.6507
X1.2103Y0.7957
X1.2261Y0.4758
X1.2339Y0.0705
X1.2417Y0.6507
X1.2428Y0.5683
X1.2477Y0.61
X1.2753Y1.029
X1.2817Y0.6519
X1.2871Y0.5693
X1.2955Y0.2774
X1.2969Y0.6117
X1.2969Y0.4359
X1.3096Y0.2415
X1.3104Y0.3122
X1.3235Y1.0122
X1.3284Y0.4758
X1.3448Y0.1937
X1.3471Y0.153
X1.3709Y0.3735
X1.3747Y0.7759
X1.3747Y0.6304
X1.4081Y0.7759
X1.4111Y0.6353
X1.4252Y0.4774
X1.4544Y0.6451
X1.4938Y0.6451
X1.5135Y0.2809
X1.5287Y0.3997
X1.5331Y-1.3307
X1.5331Y-2.4218
X1.5331Y-2.7019
X1.5331Y-2.7558
X1.5338Y-1.2571
X1.5356Y0.3625
X1.5379Y0.3241
X1.541Y-1.6895
X1.545Y0.7759
X1.549Y0.4327
X1.5568Y-0.2565
X1.5568Y-2.0161
X1.5568Y-2.0701
X1.5627Y0.6451
X1.5692Y0.3453
X1.5804Y0.1351
X1.5843Y0.4522
X1.6073Y0.1621
X1.6312Y0.576
X1.6344Y0.1892
X1.6347Y0.9681
X1.6355Y-0.5557
X1.6414Y-3.5576
X1.6607Y0.5189
X1.6798Y0.0295
X1.6888Y0.215
X1.6896Y0.0996
X1.6896Y0.6136
X1.7143Y-1.4218
X1.7265Y0.2134
X1.7383Y0.1272
X1.7629Y0.2239
X1.8104Y0.6502
X1.8166Y0.8661
X1.8245Y0.9752
X1.8257Y1.0139
X1.8342Y0.0899
X1.8373Y0.6227
X1.8511Y0.8506
X1.8629Y0.1186
X1.8702Y0.7185
X1.8737Y0.9397
X1.8737Y0.9019
X1.8867Y0.4297
X1.8869Y0.6723
X1.888Y0.8426
X1.8979Y0.7684
X1.8979Y0.8061
X1.9026Y0.8775
X1.9036Y-0.0202
X1.9068Y0.4618
X1.9168Y0.4069
X1.9252Y0.6722
X1.9319Y0.49
X1.9347Y0.9798
X1.9387Y0.7185
X1.9446Y0.3813
X1.9662Y0.0585
X1.9961Y0.0225
X2.0056Y0.3659
X2.0371Y-0.0874
X2.0528Y0.5388
X2.0646Y0.2357
X2.1119Y0.2357
X2.1237Y0.9798
X2.1316Y0.0506
X2.1709Y0.6367
X2.2182Y0.6727
X2.2182Y0.1965
X2.2182Y0.0743
X2.2576Y-1.6423
X2.2615Y0.6367
X2.2719Y-1.0343
X2.2812Y-2.4297
X2.2891Y0.9798
X2.2891Y0.8065
X2.3219Y-0.3843
X2.3219Y-3.2593
X2.3363Y0.4207
X2.3737Y1.0139
X2.3914Y0.0585
X2.3993Y-2.8313
X2.3993Y-3.5557
X2.4072Y-2.0675
X2.4229Y0.3144
X2.4544Y0.1451
X2.5065Y0.2938
X2.5197Y1.0139
X2.5371Y0.6367
X2.5627Y-1.3824
X2.5804Y-2.1541
X2.5961Y0.0743
X2.6434Y-0.0202
X2.6513Y0.1372
X2.7103Y-0.658
X2.73Y0.7357
X2.73Y0.7357
X2.73Y0.7357
X2.73Y0.7357
X2.73Y0.7357
X2.73Y0.7357
X2.73Y0.7357
X2.73Y0.7357
X2.73Y0.7357
X2.73Y0.7357
X2.73Y0.7357
X2.73Y0.7357
X2.73Y0.7357
X2.73Y0.7357
X2.73Y0.7357
X2.73Y0.7357
X2.73Y0.5231
X2.7379Y0.1372
X2.7379Y0.0191
X2.7694Y0.775
X2.7694Y0.775
X2.7694Y0.775
X2.7694Y0.775
X2.7694Y0.775
X2.7694Y0.775
X2.7694Y0.775
X2.7694Y0.775
X2.7694Y0.775
X2.7694Y0.775
X2.7694Y0.775
X2.7694Y0.775
X2.7694Y0.775
X2.7694Y0.775
X2.7694Y0.775
X2.7694Y0.775
X2.7694Y0.7042
X2.7694Y0.7042
X2.7694Y0.7042
X2.7694Y0.7042
X2.7694Y0.7042
X2.7694Y0.7042
X2.7694Y0.7042
X2.7694Y0.7042
X2.7694Y0.7042
X2.7694Y0.7042
X2.7694Y0.7042
X2.7694Y0.7042
X2.7694Y0.7042
X2.7694Y0.7042
X2.7694Y0.7042
X2.7694Y0.7042
X2.8009Y0.7357
X2.8009Y0.7357
X2.8009Y0.7357
X2.8009Y0.7357
X2.8009Y0.7357
X2.8009Y0.7357
X2.8009Y0.7357
X2.8009Y0.7357
X2.8009Y0.7357
X2.8009Y0.7357
X2.8009Y0.7357
X2.8009Y0.7357
X2.8009Y0.7357
X2.8009Y0.7357
X2.8009Y0.7357
X2.8009Y0.7357
X2.8324Y0.775
X2.8324Y0.775
X2.8324Y0.775
X2.8324Y0.775
X2.8324Y0.775
X2.8324Y0.775
X2.8324Y0.775
X2.8324Y0.775
X2.8324Y0.775
X2.8324Y0.775
X2.8324Y0.775
X2.8324Y0.775
X2.8324Y0.775
X2.8324Y0.775
X2.8324Y0.775
X2.8324Y0.775
X2.8324Y0.7042
X2.8324Y0.7042
X2.8324Y0.7042
X2.8324Y0.7042
X2.8324Y0.7042
X2.8324Y0.7042
X2.8324Y0.7042
X2.8324Y0.7042
X2.8324Y0.7042
X2.8324Y0.7042
X2.8324Y0.7042
X2.8324Y0.7042
X2.8324Y0.7042
X2.8324Y0.7042
X2.8324Y0.7042
X2.8324Y0.7042
X2.8481Y0.1451
X2.8717Y0.7357
X2.8717Y0.7357
X2.8717Y0.7357
X2.8717Y0.7357
X2.8717Y0.7357
X2.8717Y0.7357
X2.8717Y0.7357
X2.8717Y0.7357
X2.8717Y0.7357
X2.8717Y0.7357
X2.8717Y0.7357
X2.8717Y0.7357
X2.8717Y0.7357
X2.8717Y0.7357
X2.8717Y0.7357
X2.8717Y0.7357
X2.8875Y0.1057
X2.9426Y0.5546
X2.9583Y0.4522
X2.9898Y0.3577
X3.0213Y0.0428
X3.0219Y-0.1843
X3.0219Y-0.4343
X3.0219Y-0.6843
X3.0219Y-0.9343
X3.0219Y-1.1843
X3.0219Y-1.4343
X3.0219Y-1.6843
X3.0219Y-1.9343
X3.0219Y-2.1843
X3.0219Y-2.4343
X3.0219Y-2.6843
X3.0219Y-2.9343
X3.0219Y-3.1843
X3.0219Y-3.4343
T4
X0.4409Y0.8957
X0.4409Y0.7957
X0.5409Y0.8957
X0.5409Y0.7957
X0.6409Y0.8957
X0.6409Y0.7957
X0.7409Y0.8957
X0.7409Y0.7957
X0.8409Y0.8957
X0.8409Y0.7957
X0.9409Y0.8957
X0.9409Y0.7957
X1.0409Y0.8957
X1.0409Y0.7957
X1.1409Y0.8957
X1.1409Y0.7957
X2.6688Y1.0013
X2.6688Y0.4304
X2.7672Y0.4304
X2.8657Y1.0013
X2.8657Y0.4304
T3
G00X0.1081Y0.9057
M15
G01X0.0766Y0.9057
M16
G05
G00X0.1081Y0.5655
M15
G01X0.0766Y0.5655
M16
G05
G00X0.2786Y0.9057
M15
G01X0.2353Y0.9057
M16
G05
G00X0.2786Y0.5655
M15
G01X0.2353Y0.5655
M16
G05
T5
G00X2.5468Y0.7001
M15
G01X2.5468Y0.7513
M16
G05
G00X2.9877Y0.7001
M15
G01X2.9877Y0.7513
M16
G05
M30
