%TF.GenerationSoftware,KiCad,Pcbnew,8.0.7-8.0.7-0~ubuntu22.04.1*%
%TF.CreationDate,2024-12-28T00:36:34+00:00*%
%TF.ProjectId,numcalcium,6e756d63-616c-4636-9975-6d2e6b696361,rev?*%
%TF.SameCoordinates,Original*%
%TF.FileFunction,Drillmap*%
%TF.FilePolarity,Positive*%
%FSLAX45Y45*%
G04 Gerber Fmt 4.5, Leading zero omitted, Abs format (unit mm)*
G04 Created by KiCad (PCBNEW 8.0.7-8.0.7-0~ubuntu22.04.1) date 2024-12-28 00:36:34*
%MOMM*%
%LPD*%
G01*
G04 APERTURE LIST*
%ADD10C,0.100000*%
%ADD11C,0.200000*%
G04 APERTURE END LIST*
D10*
X-5849Y-8835733D02*
X-7821Y2960812D01*
X7360151Y-9221988D02*
X380407Y-9221988D01*
X7358179Y3347067D02*
X378434Y3347067D01*
X390020Y3098975D02*
G75*
G02*
X161189Y3098975I-114416J0D01*
G01*
X161189Y3098975D02*
G75*
G02*
X390020Y3098975I114416J0D01*
G01*
X7600410Y600190D02*
G75*
G02*
X7370735Y600190I-114837J0D01*
G01*
X7370735Y600190D02*
G75*
G02*
X7600410Y600190I114837J0D01*
G01*
X7746407Y-8835733D02*
G75*
G02*
X7360151Y-9221987I-386267J13D01*
G01*
X-7821Y2960812D02*
G75*
G02*
X378434Y3347067I386255J0D01*
G01*
X7358179Y3347067D02*
G75*
G02*
X7744437Y2960812I-9J-386267D01*
G01*
X7598171Y3095949D02*
G75*
G02*
X7373519Y3095949I-112326J0D01*
G01*
X7373519Y3095949D02*
G75*
G02*
X7598171Y3095949I112326J0D01*
G01*
X7744434Y2960812D02*
X7746407Y-8835733D01*
X387216Y600536D02*
G75*
G02*
X154334Y600536I-116441J0D01*
G01*
X154334Y600536D02*
G75*
G02*
X387216Y600536I116441J0D01*
G01*
X380407Y-9221988D02*
G75*
G02*
X-5849Y-8835733I0J386256D01*
G01*
X592179Y-8286388D02*
G75*
G02*
X422179Y-8286388I-85000J0D01*
G01*
X422179Y-8286388D02*
G75*
G02*
X592179Y-8286388I85000J0D01*
G01*
X887179Y-8831388D02*
G75*
G02*
X577179Y-8831388I-155000J0D01*
G01*
X577179Y-8831388D02*
G75*
G02*
X887179Y-8831388I155000J0D01*
G01*
X1207179Y-8286388D02*
G75*
G02*
X807179Y-8286388I-200000J0D01*
G01*
X807179Y-8286388D02*
G75*
G02*
X1207179Y-8286388I200000J0D01*
G01*
X1537179Y-8566388D02*
G75*
G02*
X1227179Y-8566388I-155000J0D01*
G01*
X1227179Y-8566388D02*
G75*
G02*
X1537179Y-8566388I155000J0D01*
G01*
X1592179Y-8286388D02*
G75*
G02*
X1422179Y-8286388I-85000J0D01*
G01*
X1422179Y-8286388D02*
G75*
G02*
X1592179Y-8286388I85000J0D01*
G01*
X6312579Y-8286388D02*
G75*
G02*
X6142579Y-8286388I-85000J0D01*
G01*
X6142579Y-8286388D02*
G75*
G02*
X6312579Y-8286388I85000J0D01*
G01*
X6607579Y-8831388D02*
G75*
G02*
X6297579Y-8831388I-155000J0D01*
G01*
X6297579Y-8831388D02*
G75*
G02*
X6607579Y-8831388I155000J0D01*
G01*
X6927579Y-8286388D02*
G75*
G02*
X6527579Y-8286388I-200000J0D01*
G01*
X6527579Y-8286388D02*
G75*
G02*
X6927579Y-8286388I200000J0D01*
G01*
X7257579Y-8566388D02*
G75*
G02*
X6947579Y-8566388I-155000J0D01*
G01*
X6947579Y-8566388D02*
G75*
G02*
X7257579Y-8566388I155000J0D01*
G01*
X7312579Y-8286388D02*
G75*
G02*
X7142579Y-8286388I-85000J0D01*
G01*
X7142579Y-8286388D02*
G75*
G02*
X7312579Y-8286388I85000J0D01*
G01*
X600879Y-2571388D02*
G75*
G02*
X430879Y-2571388I-85000J0D01*
G01*
X430879Y-2571388D02*
G75*
G02*
X600879Y-2571388I85000J0D01*
G01*
X895879Y-3116388D02*
G75*
G02*
X585879Y-3116388I-155000J0D01*
G01*
X585879Y-3116388D02*
G75*
G02*
X895879Y-3116388I155000J0D01*
G01*
X1215879Y-2571388D02*
G75*
G02*
X815879Y-2571388I-200000J0D01*
G01*
X815879Y-2571388D02*
G75*
G02*
X1215879Y-2571388I200000J0D01*
G01*
X1545879Y-2851388D02*
G75*
G02*
X1235879Y-2851388I-155000J0D01*
G01*
X1235879Y-2851388D02*
G75*
G02*
X1545879Y-2851388I155000J0D01*
G01*
X1600879Y-2571388D02*
G75*
G02*
X1430879Y-2571388I-85000J0D01*
G01*
X1430879Y-2571388D02*
G75*
G02*
X1600879Y-2571388I85000J0D01*
G01*
X6307179Y-679088D02*
G75*
G02*
X6137179Y-679088I-85000J0D01*
G01*
X6137179Y-679088D02*
G75*
G02*
X6307179Y-679088I85000J0D01*
G01*
X6602179Y-1224088D02*
G75*
G02*
X6292179Y-1224088I-155000J0D01*
G01*
X6292179Y-1224088D02*
G75*
G02*
X6602179Y-1224088I155000J0D01*
G01*
X6922179Y-679088D02*
G75*
G02*
X6522179Y-679088I-200000J0D01*
G01*
X6522179Y-679088D02*
G75*
G02*
X6922179Y-679088I200000J0D01*
G01*
X7252179Y-959088D02*
G75*
G02*
X6942179Y-959088I-155000J0D01*
G01*
X6942179Y-959088D02*
G75*
G02*
X7252179Y-959088I155000J0D01*
G01*
X7307179Y-679088D02*
G75*
G02*
X7137179Y-679088I-85000J0D01*
G01*
X7137179Y-679088D02*
G75*
G02*
X7307179Y-679088I85000J0D01*
G01*
X4402179Y-8286388D02*
G75*
G02*
X4232179Y-8286388I-85000J0D01*
G01*
X4232179Y-8286388D02*
G75*
G02*
X4402179Y-8286388I85000J0D01*
G01*
X4697179Y-8831388D02*
G75*
G02*
X4387179Y-8831388I-155000J0D01*
G01*
X4387179Y-8831388D02*
G75*
G02*
X4697179Y-8831388I155000J0D01*
G01*
X5017179Y-8286388D02*
G75*
G02*
X4617179Y-8286388I-200000J0D01*
G01*
X4617179Y-8286388D02*
G75*
G02*
X5017179Y-8286388I200000J0D01*
G01*
X5347179Y-8566388D02*
G75*
G02*
X5037179Y-8566388I-155000J0D01*
G01*
X5037179Y-8566388D02*
G75*
G02*
X5347179Y-8566388I155000J0D01*
G01*
X5402179Y-8286388D02*
G75*
G02*
X5232179Y-8286388I-85000J0D01*
G01*
X5232179Y-8286388D02*
G75*
G02*
X5402179Y-8286388I85000J0D01*
G01*
X4398179Y-679088D02*
G75*
G02*
X4228179Y-679088I-85000J0D01*
G01*
X4228179Y-679088D02*
G75*
G02*
X4398179Y-679088I85000J0D01*
G01*
X4693179Y-1224088D02*
G75*
G02*
X4383179Y-1224088I-155000J0D01*
G01*
X4383179Y-1224088D02*
G75*
G02*
X4693179Y-1224088I155000J0D01*
G01*
X5013179Y-679088D02*
G75*
G02*
X4613179Y-679088I-200000J0D01*
G01*
X4613179Y-679088D02*
G75*
G02*
X5013179Y-679088I200000J0D01*
G01*
X5343179Y-959088D02*
G75*
G02*
X5033179Y-959088I-155000J0D01*
G01*
X5033179Y-959088D02*
G75*
G02*
X5343179Y-959088I155000J0D01*
G01*
X5398179Y-679088D02*
G75*
G02*
X5228179Y-679088I-85000J0D01*
G01*
X5228179Y-679088D02*
G75*
G02*
X5398179Y-679088I85000J0D01*
G01*
X6311379Y-6381288D02*
G75*
G02*
X6141379Y-6381288I-85000J0D01*
G01*
X6141379Y-6381288D02*
G75*
G02*
X6311379Y-6381288I85000J0D01*
G01*
X6606379Y-6926288D02*
G75*
G02*
X6296379Y-6926288I-155000J0D01*
G01*
X6296379Y-6926288D02*
G75*
G02*
X6606379Y-6926288I155000J0D01*
G01*
X6926379Y-6381288D02*
G75*
G02*
X6526379Y-6381288I-200000J0D01*
G01*
X6526379Y-6381288D02*
G75*
G02*
X6926379Y-6381288I200000J0D01*
G01*
X7256379Y-6661288D02*
G75*
G02*
X6946379Y-6661288I-155000J0D01*
G01*
X6946379Y-6661288D02*
G75*
G02*
X7256379Y-6661288I155000J0D01*
G01*
X7311379Y-6381288D02*
G75*
G02*
X7141379Y-6381288I-85000J0D01*
G01*
X7141379Y-6381288D02*
G75*
G02*
X7311379Y-6381288I85000J0D01*
G01*
X4398179Y-2571388D02*
G75*
G02*
X4228179Y-2571388I-85000J0D01*
G01*
X4228179Y-2571388D02*
G75*
G02*
X4398179Y-2571388I85000J0D01*
G01*
X4693179Y-3116388D02*
G75*
G02*
X4383179Y-3116388I-155000J0D01*
G01*
X4383179Y-3116388D02*
G75*
G02*
X4693179Y-3116388I155000J0D01*
G01*
X5013179Y-2571388D02*
G75*
G02*
X4613179Y-2571388I-200000J0D01*
G01*
X4613179Y-2571388D02*
G75*
G02*
X5013179Y-2571388I200000J0D01*
G01*
X5343179Y-2851388D02*
G75*
G02*
X5033179Y-2851388I-155000J0D01*
G01*
X5033179Y-2851388D02*
G75*
G02*
X5343179Y-2851388I155000J0D01*
G01*
X5398179Y-2571388D02*
G75*
G02*
X5228179Y-2571388I-85000J0D01*
G01*
X5228179Y-2571388D02*
G75*
G02*
X5398179Y-2571388I85000J0D01*
G01*
X2493179Y-4476288D02*
G75*
G02*
X2323179Y-4476288I-85000J0D01*
G01*
X2323179Y-4476288D02*
G75*
G02*
X2493179Y-4476288I85000J0D01*
G01*
X2788179Y-5021288D02*
G75*
G02*
X2478179Y-5021288I-155000J0D01*
G01*
X2478179Y-5021288D02*
G75*
G02*
X2788179Y-5021288I155000J0D01*
G01*
X3108179Y-4476288D02*
G75*
G02*
X2708179Y-4476288I-200000J0D01*
G01*
X2708179Y-4476288D02*
G75*
G02*
X3108179Y-4476288I200000J0D01*
G01*
X3438179Y-4756288D02*
G75*
G02*
X3128179Y-4756288I-155000J0D01*
G01*
X3128179Y-4756288D02*
G75*
G02*
X3438179Y-4756288I155000J0D01*
G01*
X3493179Y-4476288D02*
G75*
G02*
X3323179Y-4476288I-85000J0D01*
G01*
X3323179Y-4476288D02*
G75*
G02*
X3493179Y-4476288I85000J0D01*
G01*
X2493179Y-2571388D02*
G75*
G02*
X2323179Y-2571388I-85000J0D01*
G01*
X2323179Y-2571388D02*
G75*
G02*
X2493179Y-2571388I85000J0D01*
G01*
X2788179Y-3116388D02*
G75*
G02*
X2478179Y-3116388I-155000J0D01*
G01*
X2478179Y-3116388D02*
G75*
G02*
X2788179Y-3116388I155000J0D01*
G01*
X3108179Y-2571388D02*
G75*
G02*
X2708179Y-2571388I-200000J0D01*
G01*
X2708179Y-2571388D02*
G75*
G02*
X3108179Y-2571388I200000J0D01*
G01*
X3438179Y-2851388D02*
G75*
G02*
X3128179Y-2851388I-155000J0D01*
G01*
X3128179Y-2851388D02*
G75*
G02*
X3438179Y-2851388I155000J0D01*
G01*
X3493179Y-2571388D02*
G75*
G02*
X3323179Y-2571388I-85000J0D01*
G01*
X3323179Y-2571388D02*
G75*
G02*
X3493179Y-2571388I85000J0D01*
G01*
X4406379Y-4476288D02*
G75*
G02*
X4236379Y-4476288I-85000J0D01*
G01*
X4236379Y-4476288D02*
G75*
G02*
X4406379Y-4476288I85000J0D01*
G01*
X4701379Y-5021288D02*
G75*
G02*
X4391379Y-5021288I-155000J0D01*
G01*
X4391379Y-5021288D02*
G75*
G02*
X4701379Y-5021288I155000J0D01*
G01*
X5021379Y-4476288D02*
G75*
G02*
X4621379Y-4476288I-200000J0D01*
G01*
X4621379Y-4476288D02*
G75*
G02*
X5021379Y-4476288I200000J0D01*
G01*
X5351379Y-4756288D02*
G75*
G02*
X5041379Y-4756288I-155000J0D01*
G01*
X5041379Y-4756288D02*
G75*
G02*
X5351379Y-4756288I155000J0D01*
G01*
X5406379Y-4476288D02*
G75*
G02*
X5236379Y-4476288I-85000J0D01*
G01*
X5236379Y-4476288D02*
G75*
G02*
X5406379Y-4476288I85000J0D01*
G01*
X2489879Y-8286388D02*
G75*
G02*
X2319879Y-8286388I-85000J0D01*
G01*
X2319879Y-8286388D02*
G75*
G02*
X2489879Y-8286388I85000J0D01*
G01*
X2784879Y-8831388D02*
G75*
G02*
X2474879Y-8831388I-155000J0D01*
G01*
X2474879Y-8831388D02*
G75*
G02*
X2784879Y-8831388I155000J0D01*
G01*
X3104879Y-8286388D02*
G75*
G02*
X2704879Y-8286388I-200000J0D01*
G01*
X2704879Y-8286388D02*
G75*
G02*
X3104879Y-8286388I200000J0D01*
G01*
X3434879Y-8566388D02*
G75*
G02*
X3124879Y-8566388I-155000J0D01*
G01*
X3124879Y-8566388D02*
G75*
G02*
X3434879Y-8566388I155000J0D01*
G01*
X3489879Y-8286388D02*
G75*
G02*
X3319879Y-8286388I-85000J0D01*
G01*
X3319879Y-8286388D02*
G75*
G02*
X3489879Y-8286388I85000J0D01*
G01*
X6315879Y-2571388D02*
G75*
G02*
X6145879Y-2571388I-85000J0D01*
G01*
X6145879Y-2571388D02*
G75*
G02*
X6315879Y-2571388I85000J0D01*
G01*
X6610879Y-3116388D02*
G75*
G02*
X6300879Y-3116388I-155000J0D01*
G01*
X6300879Y-3116388D02*
G75*
G02*
X6610879Y-3116388I155000J0D01*
G01*
X6930879Y-2571388D02*
G75*
G02*
X6530879Y-2571388I-200000J0D01*
G01*
X6530879Y-2571388D02*
G75*
G02*
X6930879Y-2571388I200000J0D01*
G01*
X7260879Y-2851388D02*
G75*
G02*
X6950879Y-2851388I-155000J0D01*
G01*
X6950879Y-2851388D02*
G75*
G02*
X7260879Y-2851388I155000J0D01*
G01*
X7315879Y-2571388D02*
G75*
G02*
X7145879Y-2571388I-85000J0D01*
G01*
X7145879Y-2571388D02*
G75*
G02*
X7315879Y-2571388I85000J0D01*
G01*
X600879Y-679088D02*
G75*
G02*
X430879Y-679088I-85000J0D01*
G01*
X430879Y-679088D02*
G75*
G02*
X600879Y-679088I85000J0D01*
G01*
X895879Y-1224088D02*
G75*
G02*
X585879Y-1224088I-155000J0D01*
G01*
X585879Y-1224088D02*
G75*
G02*
X895879Y-1224088I155000J0D01*
G01*
X1215879Y-679088D02*
G75*
G02*
X815879Y-679088I-200000J0D01*
G01*
X815879Y-679088D02*
G75*
G02*
X1215879Y-679088I200000J0D01*
G01*
X1545879Y-959088D02*
G75*
G02*
X1235879Y-959088I-155000J0D01*
G01*
X1235879Y-959088D02*
G75*
G02*
X1545879Y-959088I155000J0D01*
G01*
X1600879Y-679088D02*
G75*
G02*
X1430879Y-679088I-85000J0D01*
G01*
X1430879Y-679088D02*
G75*
G02*
X1600879Y-679088I85000J0D01*
G01*
X2493179Y-679088D02*
G75*
G02*
X2323179Y-679088I-85000J0D01*
G01*
X2323179Y-679088D02*
G75*
G02*
X2493179Y-679088I85000J0D01*
G01*
X2788179Y-1224088D02*
G75*
G02*
X2478179Y-1224088I-155000J0D01*
G01*
X2478179Y-1224088D02*
G75*
G02*
X2788179Y-1224088I155000J0D01*
G01*
X3108179Y-679088D02*
G75*
G02*
X2708179Y-679088I-200000J0D01*
G01*
X2708179Y-679088D02*
G75*
G02*
X3108179Y-679088I200000J0D01*
G01*
X3438179Y-959088D02*
G75*
G02*
X3128179Y-959088I-155000J0D01*
G01*
X3128179Y-959088D02*
G75*
G02*
X3438179Y-959088I155000J0D01*
G01*
X3493179Y-679088D02*
G75*
G02*
X3323179Y-679088I-85000J0D01*
G01*
X3323179Y-679088D02*
G75*
G02*
X3493179Y-679088I85000J0D01*
G01*
X594879Y-4472888D02*
G75*
G02*
X424879Y-4472888I-85000J0D01*
G01*
X424879Y-4472888D02*
G75*
G02*
X594879Y-4472888I85000J0D01*
G01*
X889879Y-5017888D02*
G75*
G02*
X579879Y-5017888I-155000J0D01*
G01*
X579879Y-5017888D02*
G75*
G02*
X889879Y-5017888I155000J0D01*
G01*
X1209879Y-4472888D02*
G75*
G02*
X809879Y-4472888I-200000J0D01*
G01*
X809879Y-4472888D02*
G75*
G02*
X1209879Y-4472888I200000J0D01*
G01*
X1539879Y-4752888D02*
G75*
G02*
X1229879Y-4752888I-155000J0D01*
G01*
X1229879Y-4752888D02*
G75*
G02*
X1539879Y-4752888I155000J0D01*
G01*
X1594879Y-4472888D02*
G75*
G02*
X1424879Y-4472888I-85000J0D01*
G01*
X1424879Y-4472888D02*
G75*
G02*
X1594879Y-4472888I85000J0D01*
G01*
X6315879Y-4476388D02*
G75*
G02*
X6145879Y-4476388I-85000J0D01*
G01*
X6145879Y-4476388D02*
G75*
G02*
X6315879Y-4476388I85000J0D01*
G01*
X6610879Y-5021388D02*
G75*
G02*
X6300879Y-5021388I-155000J0D01*
G01*
X6300879Y-5021388D02*
G75*
G02*
X6610879Y-5021388I155000J0D01*
G01*
X6930879Y-4476388D02*
G75*
G02*
X6530879Y-4476388I-200000J0D01*
G01*
X6530879Y-4476388D02*
G75*
G02*
X6930879Y-4476388I200000J0D01*
G01*
X7260879Y-4756388D02*
G75*
G02*
X6950879Y-4756388I-155000J0D01*
G01*
X6950879Y-4756388D02*
G75*
G02*
X7260879Y-4756388I155000J0D01*
G01*
X7315879Y-4476388D02*
G75*
G02*
X7145879Y-4476388I-85000J0D01*
G01*
X7145879Y-4476388D02*
G75*
G02*
X7315879Y-4476388I85000J0D01*
G01*
X592179Y-6381388D02*
G75*
G02*
X422179Y-6381388I-85000J0D01*
G01*
X422179Y-6381388D02*
G75*
G02*
X592179Y-6381388I85000J0D01*
G01*
X887179Y-6926388D02*
G75*
G02*
X577179Y-6926388I-155000J0D01*
G01*
X577179Y-6926388D02*
G75*
G02*
X887179Y-6926388I155000J0D01*
G01*
X1207179Y-6381388D02*
G75*
G02*
X807179Y-6381388I-200000J0D01*
G01*
X807179Y-6381388D02*
G75*
G02*
X1207179Y-6381388I200000J0D01*
G01*
X1537179Y-6661388D02*
G75*
G02*
X1227179Y-6661388I-155000J0D01*
G01*
X1227179Y-6661388D02*
G75*
G02*
X1537179Y-6661388I155000J0D01*
G01*
X1592179Y-6381388D02*
G75*
G02*
X1422179Y-6381388I-85000J0D01*
G01*
X1422179Y-6381388D02*
G75*
G02*
X1592179Y-6381388I85000J0D01*
G01*
X4406379Y-6381288D02*
G75*
G02*
X4236379Y-6381288I-85000J0D01*
G01*
X4236379Y-6381288D02*
G75*
G02*
X4406379Y-6381288I85000J0D01*
G01*
X4701379Y-6926288D02*
G75*
G02*
X4391379Y-6926288I-155000J0D01*
G01*
X4391379Y-6926288D02*
G75*
G02*
X4701379Y-6926288I155000J0D01*
G01*
X5021379Y-6381288D02*
G75*
G02*
X4621379Y-6381288I-200000J0D01*
G01*
X4621379Y-6381288D02*
G75*
G02*
X5021379Y-6381288I200000J0D01*
G01*
X5351379Y-6661288D02*
G75*
G02*
X5041379Y-6661288I-155000J0D01*
G01*
X5041379Y-6661288D02*
G75*
G02*
X5351379Y-6661288I155000J0D01*
G01*
X5406379Y-6381288D02*
G75*
G02*
X5236379Y-6381288I-85000J0D01*
G01*
X5236379Y-6381288D02*
G75*
G02*
X5406379Y-6381288I85000J0D01*
G01*
X2488679Y-6381288D02*
G75*
G02*
X2318679Y-6381288I-85000J0D01*
G01*
X2318679Y-6381288D02*
G75*
G02*
X2488679Y-6381288I85000J0D01*
G01*
X2783679Y-6926288D02*
G75*
G02*
X2473679Y-6926288I-155000J0D01*
G01*
X2473679Y-6926288D02*
G75*
G02*
X2783679Y-6926288I155000J0D01*
G01*
X3103679Y-6381288D02*
G75*
G02*
X2703679Y-6381288I-200000J0D01*
G01*
X2703679Y-6381288D02*
G75*
G02*
X3103679Y-6381288I200000J0D01*
G01*
X3433679Y-6661288D02*
G75*
G02*
X3123679Y-6661288I-155000J0D01*
G01*
X3123679Y-6661288D02*
G75*
G02*
X3433679Y-6661288I155000J0D01*
G01*
X3488679Y-6381288D02*
G75*
G02*
X3318679Y-6381288I-85000J0D01*
G01*
X3318679Y-6381288D02*
G75*
G02*
X3488679Y-6381288I85000J0D01*
G01*
D11*
D10*
X570079Y2189912D02*
X635079Y2124912D01*
X635079Y2189912D02*
X570079Y2124912D01*
X570079Y1611912D02*
X635079Y1546912D01*
X635079Y1611912D02*
X570079Y1546912D01*
D11*
X247956Y-9538472D02*
X247956Y-9338472D01*
X247956Y-9338472D02*
X295575Y-9338472D01*
X295575Y-9338472D02*
X324146Y-9347996D01*
X324146Y-9347996D02*
X343194Y-9367043D01*
X343194Y-9367043D02*
X352718Y-9386091D01*
X352718Y-9386091D02*
X362241Y-9424186D01*
X362241Y-9424186D02*
X362241Y-9452758D01*
X362241Y-9452758D02*
X352718Y-9490853D01*
X352718Y-9490853D02*
X343194Y-9509900D01*
X343194Y-9509900D02*
X324146Y-9528948D01*
X324146Y-9528948D02*
X295575Y-9538472D01*
X295575Y-9538472D02*
X247956Y-9538472D01*
X447956Y-9538472D02*
X447956Y-9405138D01*
X447956Y-9443234D02*
X457479Y-9424186D01*
X457479Y-9424186D02*
X467003Y-9414662D01*
X467003Y-9414662D02*
X486051Y-9405138D01*
X486051Y-9405138D02*
X505099Y-9405138D01*
X571765Y-9538472D02*
X571765Y-9405138D01*
X571765Y-9338472D02*
X562241Y-9347996D01*
X562241Y-9347996D02*
X571765Y-9357519D01*
X571765Y-9357519D02*
X581289Y-9347996D01*
X581289Y-9347996D02*
X571765Y-9338472D01*
X571765Y-9338472D02*
X571765Y-9357519D01*
X695575Y-9538472D02*
X676527Y-9528948D01*
X676527Y-9528948D02*
X667003Y-9509900D01*
X667003Y-9509900D02*
X667003Y-9338472D01*
X800337Y-9538472D02*
X781289Y-9528948D01*
X781289Y-9528948D02*
X771765Y-9509900D01*
X771765Y-9509900D02*
X771765Y-9338472D01*
X1028908Y-9538472D02*
X1028908Y-9338472D01*
X1028908Y-9338472D02*
X1095575Y-9481329D01*
X1095575Y-9481329D02*
X1162241Y-9338472D01*
X1162241Y-9338472D02*
X1162241Y-9538472D01*
X1343194Y-9538472D02*
X1343194Y-9433710D01*
X1343194Y-9433710D02*
X1333670Y-9414662D01*
X1333670Y-9414662D02*
X1314622Y-9405138D01*
X1314622Y-9405138D02*
X1276527Y-9405138D01*
X1276527Y-9405138D02*
X1257480Y-9414662D01*
X1343194Y-9528948D02*
X1324146Y-9538472D01*
X1324146Y-9538472D02*
X1276527Y-9538472D01*
X1276527Y-9538472D02*
X1257480Y-9528948D01*
X1257480Y-9528948D02*
X1247956Y-9509900D01*
X1247956Y-9509900D02*
X1247956Y-9490853D01*
X1247956Y-9490853D02*
X1257480Y-9471805D01*
X1257480Y-9471805D02*
X1276527Y-9462281D01*
X1276527Y-9462281D02*
X1324146Y-9462281D01*
X1324146Y-9462281D02*
X1343194Y-9452758D01*
X1438432Y-9405138D02*
X1438432Y-9605138D01*
X1438432Y-9414662D02*
X1457479Y-9405138D01*
X1457479Y-9405138D02*
X1495575Y-9405138D01*
X1495575Y-9405138D02*
X1514622Y-9414662D01*
X1514622Y-9414662D02*
X1524146Y-9424186D01*
X1524146Y-9424186D02*
X1533670Y-9443234D01*
X1533670Y-9443234D02*
X1533670Y-9500377D01*
X1533670Y-9500377D02*
X1524146Y-9519424D01*
X1524146Y-9519424D02*
X1514622Y-9528948D01*
X1514622Y-9528948D02*
X1495575Y-9538472D01*
X1495575Y-9538472D02*
X1457479Y-9538472D01*
X1457479Y-9538472D02*
X1438432Y-9528948D01*
X1619384Y-9519424D02*
X1628908Y-9528948D01*
X1628908Y-9528948D02*
X1619384Y-9538472D01*
X1619384Y-9538472D02*
X1609860Y-9528948D01*
X1609860Y-9528948D02*
X1619384Y-9519424D01*
X1619384Y-9519424D02*
X1619384Y-9538472D01*
X1619384Y-9414662D02*
X1628908Y-9424186D01*
X1628908Y-9424186D02*
X1619384Y-9433710D01*
X1619384Y-9433710D02*
X1609860Y-9424186D01*
X1609860Y-9424186D02*
X1619384Y-9414662D01*
X1619384Y-9414662D02*
X1619384Y-9433710D01*
D10*
X-77821Y-9834488D02*
X-12821Y-9899488D01*
X-12821Y-9834488D02*
X-77821Y-9899488D01*
D11*
X286051Y-9758472D02*
X305099Y-9758472D01*
X305099Y-9758472D02*
X324146Y-9767996D01*
X324146Y-9767996D02*
X333670Y-9777519D01*
X333670Y-9777519D02*
X343194Y-9796567D01*
X343194Y-9796567D02*
X352718Y-9834662D01*
X352718Y-9834662D02*
X352718Y-9882281D01*
X352718Y-9882281D02*
X343194Y-9920377D01*
X343194Y-9920377D02*
X333670Y-9939424D01*
X333670Y-9939424D02*
X324146Y-9948948D01*
X324146Y-9948948D02*
X305099Y-9958472D01*
X305099Y-9958472D02*
X286051Y-9958472D01*
X286051Y-9958472D02*
X267003Y-9948948D01*
X267003Y-9948948D02*
X257479Y-9939424D01*
X257479Y-9939424D02*
X247956Y-9920377D01*
X247956Y-9920377D02*
X238432Y-9882281D01*
X238432Y-9882281D02*
X238432Y-9834662D01*
X238432Y-9834662D02*
X247956Y-9796567D01*
X247956Y-9796567D02*
X257479Y-9777519D01*
X257479Y-9777519D02*
X267003Y-9767996D01*
X267003Y-9767996D02*
X286051Y-9758472D01*
X438432Y-9939424D02*
X447956Y-9948948D01*
X447956Y-9948948D02*
X438432Y-9958472D01*
X438432Y-9958472D02*
X428908Y-9948948D01*
X428908Y-9948948D02*
X438432Y-9939424D01*
X438432Y-9939424D02*
X438432Y-9958472D01*
X619384Y-9758472D02*
X581289Y-9758472D01*
X581289Y-9758472D02*
X562241Y-9767996D01*
X562241Y-9767996D02*
X552718Y-9777519D01*
X552718Y-9777519D02*
X533670Y-9806091D01*
X533670Y-9806091D02*
X524146Y-9844186D01*
X524146Y-9844186D02*
X524146Y-9920377D01*
X524146Y-9920377D02*
X533670Y-9939424D01*
X533670Y-9939424D02*
X543194Y-9948948D01*
X543194Y-9948948D02*
X562241Y-9958472D01*
X562241Y-9958472D02*
X600337Y-9958472D01*
X600337Y-9958472D02*
X619384Y-9948948D01*
X619384Y-9948948D02*
X628908Y-9939424D01*
X628908Y-9939424D02*
X638432Y-9920377D01*
X638432Y-9920377D02*
X638432Y-9872758D01*
X638432Y-9872758D02*
X628908Y-9853710D01*
X628908Y-9853710D02*
X619384Y-9844186D01*
X619384Y-9844186D02*
X600337Y-9834662D01*
X600337Y-9834662D02*
X562241Y-9834662D01*
X562241Y-9834662D02*
X543194Y-9844186D01*
X543194Y-9844186D02*
X533670Y-9853710D01*
X533670Y-9853710D02*
X524146Y-9872758D01*
X819384Y-9758472D02*
X724146Y-9758472D01*
X724146Y-9758472D02*
X714622Y-9853710D01*
X714622Y-9853710D02*
X724146Y-9844186D01*
X724146Y-9844186D02*
X743194Y-9834662D01*
X743194Y-9834662D02*
X790813Y-9834662D01*
X790813Y-9834662D02*
X809860Y-9844186D01*
X809860Y-9844186D02*
X819384Y-9853710D01*
X819384Y-9853710D02*
X828908Y-9872758D01*
X828908Y-9872758D02*
X828908Y-9920377D01*
X828908Y-9920377D02*
X819384Y-9939424D01*
X819384Y-9939424D02*
X809860Y-9948948D01*
X809860Y-9948948D02*
X790813Y-9958472D01*
X790813Y-9958472D02*
X743194Y-9958472D01*
X743194Y-9958472D02*
X724146Y-9948948D01*
X724146Y-9948948D02*
X714622Y-9939424D01*
X952718Y-9758472D02*
X971765Y-9758472D01*
X971765Y-9758472D02*
X990813Y-9767996D01*
X990813Y-9767996D02*
X1000337Y-9777519D01*
X1000337Y-9777519D02*
X1009860Y-9796567D01*
X1009860Y-9796567D02*
X1019384Y-9834662D01*
X1019384Y-9834662D02*
X1019384Y-9882281D01*
X1019384Y-9882281D02*
X1009860Y-9920377D01*
X1009860Y-9920377D02*
X1000337Y-9939424D01*
X1000337Y-9939424D02*
X990813Y-9948948D01*
X990813Y-9948948D02*
X971765Y-9958472D01*
X971765Y-9958472D02*
X952718Y-9958472D01*
X952718Y-9958472D02*
X933670Y-9948948D01*
X933670Y-9948948D02*
X924146Y-9939424D01*
X924146Y-9939424D02*
X914622Y-9920377D01*
X914622Y-9920377D02*
X905099Y-9882281D01*
X905099Y-9882281D02*
X905099Y-9834662D01*
X905099Y-9834662D02*
X914622Y-9796567D01*
X914622Y-9796567D02*
X924146Y-9777519D01*
X924146Y-9777519D02*
X933670Y-9767996D01*
X933670Y-9767996D02*
X952718Y-9758472D01*
X1105099Y-9958472D02*
X1105099Y-9825138D01*
X1105099Y-9844186D02*
X1114622Y-9834662D01*
X1114622Y-9834662D02*
X1133670Y-9825138D01*
X1133670Y-9825138D02*
X1162242Y-9825138D01*
X1162242Y-9825138D02*
X1181289Y-9834662D01*
X1181289Y-9834662D02*
X1190813Y-9853710D01*
X1190813Y-9853710D02*
X1190813Y-9958472D01*
X1190813Y-9853710D02*
X1200337Y-9834662D01*
X1200337Y-9834662D02*
X1219384Y-9825138D01*
X1219384Y-9825138D02*
X1247956Y-9825138D01*
X1247956Y-9825138D02*
X1267003Y-9834662D01*
X1267003Y-9834662D02*
X1276527Y-9853710D01*
X1276527Y-9853710D02*
X1276527Y-9958472D01*
X1371765Y-9958472D02*
X1371765Y-9825138D01*
X1371765Y-9844186D02*
X1381289Y-9834662D01*
X1381289Y-9834662D02*
X1400337Y-9825138D01*
X1400337Y-9825138D02*
X1428908Y-9825138D01*
X1428908Y-9825138D02*
X1447956Y-9834662D01*
X1447956Y-9834662D02*
X1457480Y-9853710D01*
X1457480Y-9853710D02*
X1457480Y-9958472D01*
X1457480Y-9853710D02*
X1467003Y-9834662D01*
X1467003Y-9834662D02*
X1486051Y-9825138D01*
X1486051Y-9825138D02*
X1514622Y-9825138D01*
X1514622Y-9825138D02*
X1533670Y-9834662D01*
X1533670Y-9834662D02*
X1543194Y-9853710D01*
X1543194Y-9853710D02*
X1543194Y-9958472D01*
X1933670Y-9748948D02*
X1762242Y-10006091D01*
X2190813Y-9758472D02*
X2209861Y-9758472D01*
X2209861Y-9758472D02*
X2228908Y-9767996D01*
X2228908Y-9767996D02*
X2238432Y-9777519D01*
X2238432Y-9777519D02*
X2247956Y-9796567D01*
X2247956Y-9796567D02*
X2257480Y-9834662D01*
X2257480Y-9834662D02*
X2257480Y-9882281D01*
X2257480Y-9882281D02*
X2247956Y-9920377D01*
X2247956Y-9920377D02*
X2238432Y-9939424D01*
X2238432Y-9939424D02*
X2228908Y-9948948D01*
X2228908Y-9948948D02*
X2209861Y-9958472D01*
X2209861Y-9958472D02*
X2190813Y-9958472D01*
X2190813Y-9958472D02*
X2171765Y-9948948D01*
X2171765Y-9948948D02*
X2162242Y-9939424D01*
X2162242Y-9939424D02*
X2152718Y-9920377D01*
X2152718Y-9920377D02*
X2143194Y-9882281D01*
X2143194Y-9882281D02*
X2143194Y-9834662D01*
X2143194Y-9834662D02*
X2152718Y-9796567D01*
X2152718Y-9796567D02*
X2162242Y-9777519D01*
X2162242Y-9777519D02*
X2171765Y-9767996D01*
X2171765Y-9767996D02*
X2190813Y-9758472D01*
X2343194Y-9939424D02*
X2352718Y-9948948D01*
X2352718Y-9948948D02*
X2343194Y-9958472D01*
X2343194Y-9958472D02*
X2333670Y-9948948D01*
X2333670Y-9948948D02*
X2343194Y-9939424D01*
X2343194Y-9939424D02*
X2343194Y-9958472D01*
X2476527Y-9758472D02*
X2495575Y-9758472D01*
X2495575Y-9758472D02*
X2514623Y-9767996D01*
X2514623Y-9767996D02*
X2524146Y-9777519D01*
X2524146Y-9777519D02*
X2533670Y-9796567D01*
X2533670Y-9796567D02*
X2543194Y-9834662D01*
X2543194Y-9834662D02*
X2543194Y-9882281D01*
X2543194Y-9882281D02*
X2533670Y-9920377D01*
X2533670Y-9920377D02*
X2524146Y-9939424D01*
X2524146Y-9939424D02*
X2514623Y-9948948D01*
X2514623Y-9948948D02*
X2495575Y-9958472D01*
X2495575Y-9958472D02*
X2476527Y-9958472D01*
X2476527Y-9958472D02*
X2457480Y-9948948D01*
X2457480Y-9948948D02*
X2447956Y-9939424D01*
X2447956Y-9939424D02*
X2438432Y-9920377D01*
X2438432Y-9920377D02*
X2428908Y-9882281D01*
X2428908Y-9882281D02*
X2428908Y-9834662D01*
X2428908Y-9834662D02*
X2438432Y-9796567D01*
X2438432Y-9796567D02*
X2447956Y-9777519D01*
X2447956Y-9777519D02*
X2457480Y-9767996D01*
X2457480Y-9767996D02*
X2476527Y-9758472D01*
X2619385Y-9777519D02*
X2628908Y-9767996D01*
X2628908Y-9767996D02*
X2647956Y-9758472D01*
X2647956Y-9758472D02*
X2695575Y-9758472D01*
X2695575Y-9758472D02*
X2714623Y-9767996D01*
X2714623Y-9767996D02*
X2724146Y-9777519D01*
X2724146Y-9777519D02*
X2733670Y-9796567D01*
X2733670Y-9796567D02*
X2733670Y-9815615D01*
X2733670Y-9815615D02*
X2724146Y-9844186D01*
X2724146Y-9844186D02*
X2609861Y-9958472D01*
X2609861Y-9958472D02*
X2733670Y-9958472D01*
X2914623Y-9758472D02*
X2819384Y-9758472D01*
X2819384Y-9758472D02*
X2809861Y-9853710D01*
X2809861Y-9853710D02*
X2819384Y-9844186D01*
X2819384Y-9844186D02*
X2838432Y-9834662D01*
X2838432Y-9834662D02*
X2886051Y-9834662D01*
X2886051Y-9834662D02*
X2905099Y-9844186D01*
X2905099Y-9844186D02*
X2914623Y-9853710D01*
X2914623Y-9853710D02*
X2924146Y-9872758D01*
X2924146Y-9872758D02*
X2924146Y-9920377D01*
X2924146Y-9920377D02*
X2914623Y-9939424D01*
X2914623Y-9939424D02*
X2905099Y-9948948D01*
X2905099Y-9948948D02*
X2886051Y-9958472D01*
X2886051Y-9958472D02*
X2838432Y-9958472D01*
X2838432Y-9958472D02*
X2819384Y-9948948D01*
X2819384Y-9948948D02*
X2809861Y-9939424D01*
X3095575Y-9758472D02*
X3057480Y-9758472D01*
X3057480Y-9758472D02*
X3038432Y-9767996D01*
X3038432Y-9767996D02*
X3028908Y-9777519D01*
X3028908Y-9777519D02*
X3009861Y-9806091D01*
X3009861Y-9806091D02*
X3000337Y-9844186D01*
X3000337Y-9844186D02*
X3000337Y-9920377D01*
X3000337Y-9920377D02*
X3009861Y-9939424D01*
X3009861Y-9939424D02*
X3019384Y-9948948D01*
X3019384Y-9948948D02*
X3038432Y-9958472D01*
X3038432Y-9958472D02*
X3076527Y-9958472D01*
X3076527Y-9958472D02*
X3095575Y-9948948D01*
X3095575Y-9948948D02*
X3105099Y-9939424D01*
X3105099Y-9939424D02*
X3114623Y-9920377D01*
X3114623Y-9920377D02*
X3114623Y-9872758D01*
X3114623Y-9872758D02*
X3105099Y-9853710D01*
X3105099Y-9853710D02*
X3095575Y-9844186D01*
X3095575Y-9844186D02*
X3076527Y-9834662D01*
X3076527Y-9834662D02*
X3038432Y-9834662D01*
X3038432Y-9834662D02*
X3019384Y-9844186D01*
X3019384Y-9844186D02*
X3009861Y-9853710D01*
X3009861Y-9853710D02*
X3000337Y-9872758D01*
X3190813Y-9758472D02*
X3190813Y-9796567D01*
X3267004Y-9758472D02*
X3267004Y-9796567D01*
X3562242Y-10034662D02*
X3552718Y-10025138D01*
X3552718Y-10025138D02*
X3533670Y-9996567D01*
X3533670Y-9996567D02*
X3524146Y-9977519D01*
X3524146Y-9977519D02*
X3514623Y-9948948D01*
X3514623Y-9948948D02*
X3505099Y-9901329D01*
X3505099Y-9901329D02*
X3505099Y-9863234D01*
X3505099Y-9863234D02*
X3514623Y-9815615D01*
X3514623Y-9815615D02*
X3524146Y-9787043D01*
X3524146Y-9787043D02*
X3533670Y-9767996D01*
X3533670Y-9767996D02*
X3552718Y-9739424D01*
X3552718Y-9739424D02*
X3562242Y-9729900D01*
X3628908Y-9777519D02*
X3638432Y-9767996D01*
X3638432Y-9767996D02*
X3657480Y-9758472D01*
X3657480Y-9758472D02*
X3705099Y-9758472D01*
X3705099Y-9758472D02*
X3724146Y-9767996D01*
X3724146Y-9767996D02*
X3733670Y-9777519D01*
X3733670Y-9777519D02*
X3743194Y-9796567D01*
X3743194Y-9796567D02*
X3743194Y-9815615D01*
X3743194Y-9815615D02*
X3733670Y-9844186D01*
X3733670Y-9844186D02*
X3619385Y-9958472D01*
X3619385Y-9958472D02*
X3743194Y-9958472D01*
X3981289Y-9958472D02*
X3981289Y-9758472D01*
X4067004Y-9958472D02*
X4067004Y-9853710D01*
X4067004Y-9853710D02*
X4057480Y-9834662D01*
X4057480Y-9834662D02*
X4038432Y-9825138D01*
X4038432Y-9825138D02*
X4009861Y-9825138D01*
X4009861Y-9825138D02*
X3990813Y-9834662D01*
X3990813Y-9834662D02*
X3981289Y-9844186D01*
X4190813Y-9958472D02*
X4171766Y-9948948D01*
X4171766Y-9948948D02*
X4162242Y-9939424D01*
X4162242Y-9939424D02*
X4152718Y-9920377D01*
X4152718Y-9920377D02*
X4152718Y-9863234D01*
X4152718Y-9863234D02*
X4162242Y-9844186D01*
X4162242Y-9844186D02*
X4171766Y-9834662D01*
X4171766Y-9834662D02*
X4190813Y-9825138D01*
X4190813Y-9825138D02*
X4219385Y-9825138D01*
X4219385Y-9825138D02*
X4238432Y-9834662D01*
X4238432Y-9834662D02*
X4247956Y-9844186D01*
X4247956Y-9844186D02*
X4257480Y-9863234D01*
X4257480Y-9863234D02*
X4257480Y-9920377D01*
X4257480Y-9920377D02*
X4247956Y-9939424D01*
X4247956Y-9939424D02*
X4238432Y-9948948D01*
X4238432Y-9948948D02*
X4219385Y-9958472D01*
X4219385Y-9958472D02*
X4190813Y-9958472D01*
X4371766Y-9958472D02*
X4352718Y-9948948D01*
X4352718Y-9948948D02*
X4343194Y-9929900D01*
X4343194Y-9929900D02*
X4343194Y-9758472D01*
X4524147Y-9948948D02*
X4505099Y-9958472D01*
X4505099Y-9958472D02*
X4467004Y-9958472D01*
X4467004Y-9958472D02*
X4447956Y-9948948D01*
X4447956Y-9948948D02*
X4438432Y-9929900D01*
X4438432Y-9929900D02*
X4438432Y-9853710D01*
X4438432Y-9853710D02*
X4447956Y-9834662D01*
X4447956Y-9834662D02*
X4467004Y-9825138D01*
X4467004Y-9825138D02*
X4505099Y-9825138D01*
X4505099Y-9825138D02*
X4524147Y-9834662D01*
X4524147Y-9834662D02*
X4533670Y-9853710D01*
X4533670Y-9853710D02*
X4533670Y-9872758D01*
X4533670Y-9872758D02*
X4438432Y-9891805D01*
X4609861Y-9948948D02*
X4628909Y-9958472D01*
X4628909Y-9958472D02*
X4667004Y-9958472D01*
X4667004Y-9958472D02*
X4686051Y-9948948D01*
X4686051Y-9948948D02*
X4695575Y-9929900D01*
X4695575Y-9929900D02*
X4695575Y-9920377D01*
X4695575Y-9920377D02*
X4686051Y-9901329D01*
X4686051Y-9901329D02*
X4667004Y-9891805D01*
X4667004Y-9891805D02*
X4638432Y-9891805D01*
X4638432Y-9891805D02*
X4619385Y-9882281D01*
X4619385Y-9882281D02*
X4609861Y-9863234D01*
X4609861Y-9863234D02*
X4609861Y-9853710D01*
X4609861Y-9853710D02*
X4619385Y-9834662D01*
X4619385Y-9834662D02*
X4638432Y-9825138D01*
X4638432Y-9825138D02*
X4667004Y-9825138D01*
X4667004Y-9825138D02*
X4686051Y-9834662D01*
X4762242Y-10034662D02*
X4771766Y-10025138D01*
X4771766Y-10025138D02*
X4790813Y-9996567D01*
X4790813Y-9996567D02*
X4800337Y-9977519D01*
X4800337Y-9977519D02*
X4809861Y-9948948D01*
X4809861Y-9948948D02*
X4819385Y-9901329D01*
X4819385Y-9901329D02*
X4819385Y-9863234D01*
X4819385Y-9863234D02*
X4809861Y-9815615D01*
X4809861Y-9815615D02*
X4800337Y-9787043D01*
X4800337Y-9787043D02*
X4790813Y-9767996D01*
X4790813Y-9767996D02*
X4771766Y-9739424D01*
X4771766Y-9739424D02*
X4762242Y-9729900D01*
X5124147Y-10034662D02*
X5114623Y-10025138D01*
X5114623Y-10025138D02*
X5095575Y-9996567D01*
X5095575Y-9996567D02*
X5086051Y-9977519D01*
X5086051Y-9977519D02*
X5076528Y-9948948D01*
X5076528Y-9948948D02*
X5067004Y-9901329D01*
X5067004Y-9901329D02*
X5067004Y-9863234D01*
X5067004Y-9863234D02*
X5076528Y-9815615D01*
X5076528Y-9815615D02*
X5086051Y-9787043D01*
X5086051Y-9787043D02*
X5095575Y-9767996D01*
X5095575Y-9767996D02*
X5114623Y-9739424D01*
X5114623Y-9739424D02*
X5124147Y-9729900D01*
X5200337Y-9825138D02*
X5200337Y-9958472D01*
X5200337Y-9844186D02*
X5209861Y-9834662D01*
X5209861Y-9834662D02*
X5228909Y-9825138D01*
X5228909Y-9825138D02*
X5257480Y-9825138D01*
X5257480Y-9825138D02*
X5276528Y-9834662D01*
X5276528Y-9834662D02*
X5286051Y-9853710D01*
X5286051Y-9853710D02*
X5286051Y-9958472D01*
X5409861Y-9958472D02*
X5390813Y-9948948D01*
X5390813Y-9948948D02*
X5381290Y-9939424D01*
X5381290Y-9939424D02*
X5371766Y-9920377D01*
X5371766Y-9920377D02*
X5371766Y-9863234D01*
X5371766Y-9863234D02*
X5381290Y-9844186D01*
X5381290Y-9844186D02*
X5390813Y-9834662D01*
X5390813Y-9834662D02*
X5409861Y-9825138D01*
X5409861Y-9825138D02*
X5438432Y-9825138D01*
X5438432Y-9825138D02*
X5457480Y-9834662D01*
X5457480Y-9834662D02*
X5467004Y-9844186D01*
X5467004Y-9844186D02*
X5476528Y-9863234D01*
X5476528Y-9863234D02*
X5476528Y-9920377D01*
X5476528Y-9920377D02*
X5467004Y-9939424D01*
X5467004Y-9939424D02*
X5457480Y-9948948D01*
X5457480Y-9948948D02*
X5438432Y-9958472D01*
X5438432Y-9958472D02*
X5409861Y-9958472D01*
X5533671Y-9825138D02*
X5609861Y-9825138D01*
X5562242Y-9758472D02*
X5562242Y-9929900D01*
X5562242Y-9929900D02*
X5571766Y-9948948D01*
X5571766Y-9948948D02*
X5590813Y-9958472D01*
X5590813Y-9958472D02*
X5609861Y-9958472D01*
X5828909Y-9825138D02*
X5828909Y-10025138D01*
X5828909Y-9834662D02*
X5847956Y-9825138D01*
X5847956Y-9825138D02*
X5886051Y-9825138D01*
X5886051Y-9825138D02*
X5905099Y-9834662D01*
X5905099Y-9834662D02*
X5914623Y-9844186D01*
X5914623Y-9844186D02*
X5924147Y-9863234D01*
X5924147Y-9863234D02*
X5924147Y-9920377D01*
X5924147Y-9920377D02*
X5914623Y-9939424D01*
X5914623Y-9939424D02*
X5905099Y-9948948D01*
X5905099Y-9948948D02*
X5886051Y-9958472D01*
X5886051Y-9958472D02*
X5847956Y-9958472D01*
X5847956Y-9958472D02*
X5828909Y-9948948D01*
X6038432Y-9958472D02*
X6019385Y-9948948D01*
X6019385Y-9948948D02*
X6009861Y-9929900D01*
X6009861Y-9929900D02*
X6009861Y-9758472D01*
X6200337Y-9958472D02*
X6200337Y-9853710D01*
X6200337Y-9853710D02*
X6190813Y-9834662D01*
X6190813Y-9834662D02*
X6171766Y-9825138D01*
X6171766Y-9825138D02*
X6133670Y-9825138D01*
X6133670Y-9825138D02*
X6114623Y-9834662D01*
X6200337Y-9948948D02*
X6181290Y-9958472D01*
X6181290Y-9958472D02*
X6133670Y-9958472D01*
X6133670Y-9958472D02*
X6114623Y-9948948D01*
X6114623Y-9948948D02*
X6105099Y-9929900D01*
X6105099Y-9929900D02*
X6105099Y-9910853D01*
X6105099Y-9910853D02*
X6114623Y-9891805D01*
X6114623Y-9891805D02*
X6133670Y-9882281D01*
X6133670Y-9882281D02*
X6181290Y-9882281D01*
X6181290Y-9882281D02*
X6200337Y-9872758D01*
X6267004Y-9825138D02*
X6343194Y-9825138D01*
X6295575Y-9758472D02*
X6295575Y-9929900D01*
X6295575Y-9929900D02*
X6305099Y-9948948D01*
X6305099Y-9948948D02*
X6324147Y-9958472D01*
X6324147Y-9958472D02*
X6343194Y-9958472D01*
X6486051Y-9948948D02*
X6467004Y-9958472D01*
X6467004Y-9958472D02*
X6428909Y-9958472D01*
X6428909Y-9958472D02*
X6409861Y-9948948D01*
X6409861Y-9948948D02*
X6400337Y-9929900D01*
X6400337Y-9929900D02*
X6400337Y-9853710D01*
X6400337Y-9853710D02*
X6409861Y-9834662D01*
X6409861Y-9834662D02*
X6428909Y-9825138D01*
X6428909Y-9825138D02*
X6467004Y-9825138D01*
X6467004Y-9825138D02*
X6486051Y-9834662D01*
X6486051Y-9834662D02*
X6495575Y-9853710D01*
X6495575Y-9853710D02*
X6495575Y-9872758D01*
X6495575Y-9872758D02*
X6400337Y-9891805D01*
X6667004Y-9958472D02*
X6667004Y-9758472D01*
X6667004Y-9948948D02*
X6647956Y-9958472D01*
X6647956Y-9958472D02*
X6609861Y-9958472D01*
X6609861Y-9958472D02*
X6590813Y-9948948D01*
X6590813Y-9948948D02*
X6581290Y-9939424D01*
X6581290Y-9939424D02*
X6571766Y-9920377D01*
X6571766Y-9920377D02*
X6571766Y-9863234D01*
X6571766Y-9863234D02*
X6581290Y-9844186D01*
X6581290Y-9844186D02*
X6590813Y-9834662D01*
X6590813Y-9834662D02*
X6609861Y-9825138D01*
X6609861Y-9825138D02*
X6647956Y-9825138D01*
X6647956Y-9825138D02*
X6667004Y-9834662D01*
X6743194Y-10034662D02*
X6752718Y-10025138D01*
X6752718Y-10025138D02*
X6771766Y-9996567D01*
X6771766Y-9996567D02*
X6781290Y-9977519D01*
X6781290Y-9977519D02*
X6790813Y-9948948D01*
X6790813Y-9948948D02*
X6800337Y-9901329D01*
X6800337Y-9901329D02*
X6800337Y-9863234D01*
X6800337Y-9863234D02*
X6790813Y-9815615D01*
X6790813Y-9815615D02*
X6781290Y-9787043D01*
X6781290Y-9787043D02*
X6771766Y-9767996D01*
X6771766Y-9767996D02*
X6752718Y-9739424D01*
X6752718Y-9739424D02*
X6743194Y-9729900D01*
M02*
