%TF.GenerationSoftware,KiCad,Pcbnew,8.0.7-8.0.7-0~ubuntu22.04.1*%
%TF.CreationDate,2024-12-28T00:36:41+00:00*%
%TF.ProjectId,numcalcium,6e756d63-616c-4636-9975-6d2e6b696361,rev?*%
%TF.SameCoordinates,Original*%
%TF.FileFunction,Legend,Top*%
%TF.FilePolarity,Positive*%
%FSLAX46Y46*%
G04 Gerber Fmt 4.6, Leading zero omitted, Abs format (unit mm)*
G04 Created by KiCad (PCBNEW 8.0.7-8.0.7-0~ubuntu22.04.1) date 2024-12-28 00:36:41*
%MOMM*%
%LPD*%
G01*
G04 APERTURE LIST*
%ADD10C,0.125000*%
%ADD11C,0.100000*%
%ADD12C,0.120000*%
G04 APERTURE END LIST*
D10*
X8361047Y7361190D02*
X8361047Y6956428D01*
X8361047Y6956428D02*
X8384857Y6908809D01*
X8384857Y6908809D02*
X8408666Y6885000D01*
X8408666Y6885000D02*
X8456285Y6861190D01*
X8456285Y6861190D02*
X8551523Y6861190D01*
X8551523Y6861190D02*
X8599142Y6885000D01*
X8599142Y6885000D02*
X8622952Y6908809D01*
X8622952Y6908809D02*
X8646761Y6956428D01*
X8646761Y6956428D02*
X8646761Y7361190D01*
X9146762Y6861190D02*
X8861048Y6861190D01*
X9003905Y6861190D02*
X9003905Y7361190D01*
X9003905Y7361190D02*
X8956286Y7289761D01*
X8956286Y7289761D02*
X8908667Y7242142D01*
X8908667Y7242142D02*
X8861048Y7218333D01*
D11*
X4065334Y-76417300D02*
X4136762Y-76441109D01*
X4136762Y-76441109D02*
X4255810Y-76441109D01*
X4255810Y-76441109D02*
X4303429Y-76417300D01*
X4303429Y-76417300D02*
X4327238Y-76393490D01*
X4327238Y-76393490D02*
X4351048Y-76345871D01*
X4351048Y-76345871D02*
X4351048Y-76298252D01*
X4351048Y-76298252D02*
X4327238Y-76250633D01*
X4327238Y-76250633D02*
X4303429Y-76226823D01*
X4303429Y-76226823D02*
X4255810Y-76203014D01*
X4255810Y-76203014D02*
X4160572Y-76179204D01*
X4160572Y-76179204D02*
X4112953Y-76155395D01*
X4112953Y-76155395D02*
X4089143Y-76131585D01*
X4089143Y-76131585D02*
X4065334Y-76083966D01*
X4065334Y-76083966D02*
X4065334Y-76036347D01*
X4065334Y-76036347D02*
X4089143Y-75988728D01*
X4089143Y-75988728D02*
X4112953Y-75964919D01*
X4112953Y-75964919D02*
X4160572Y-75941109D01*
X4160572Y-75941109D02*
X4279619Y-75941109D01*
X4279619Y-75941109D02*
X4351048Y-75964919D01*
X4517714Y-75941109D02*
X4636762Y-76441109D01*
X4636762Y-76441109D02*
X4732000Y-76083966D01*
X4732000Y-76083966D02*
X4827238Y-76441109D01*
X4827238Y-76441109D02*
X4946286Y-75941109D01*
X5398667Y-76441109D02*
X5112953Y-76441109D01*
X5255810Y-76441109D02*
X5255810Y-75941109D01*
X5255810Y-75941109D02*
X5208191Y-76012538D01*
X5208191Y-76012538D02*
X5160572Y-76060157D01*
X5160572Y-76060157D02*
X5112953Y-76083966D01*
D10*
X66499857Y-3138809D02*
X66499857Y-2638809D01*
X66499857Y-2638809D02*
X66618905Y-2638809D01*
X66618905Y-2638809D02*
X66690333Y-2662619D01*
X66690333Y-2662619D02*
X66737952Y-2710238D01*
X66737952Y-2710238D02*
X66761762Y-2757857D01*
X66761762Y-2757857D02*
X66785571Y-2853095D01*
X66785571Y-2853095D02*
X66785571Y-2924523D01*
X66785571Y-2924523D02*
X66761762Y-3019761D01*
X66761762Y-3019761D02*
X66737952Y-3067380D01*
X66737952Y-3067380D02*
X66690333Y-3115000D01*
X66690333Y-3115000D02*
X66618905Y-3138809D01*
X66618905Y-3138809D02*
X66499857Y-3138809D01*
X67214143Y-2805476D02*
X67214143Y-3138809D01*
X67095095Y-2615000D02*
X66976048Y-2972142D01*
X66976048Y-2972142D02*
X67285571Y-2972142D01*
X67690333Y-2638809D02*
X67595095Y-2638809D01*
X67595095Y-2638809D02*
X67547476Y-2662619D01*
X67547476Y-2662619D02*
X67523666Y-2686428D01*
X67523666Y-2686428D02*
X67476047Y-2757857D01*
X67476047Y-2757857D02*
X67452238Y-2853095D01*
X67452238Y-2853095D02*
X67452238Y-3043571D01*
X67452238Y-3043571D02*
X67476047Y-3091190D01*
X67476047Y-3091190D02*
X67499857Y-3115000D01*
X67499857Y-3115000D02*
X67547476Y-3138809D01*
X67547476Y-3138809D02*
X67642714Y-3138809D01*
X67642714Y-3138809D02*
X67690333Y-3115000D01*
X67690333Y-3115000D02*
X67714142Y-3091190D01*
X67714142Y-3091190D02*
X67737952Y-3043571D01*
X67737952Y-3043571D02*
X67737952Y-2924523D01*
X67737952Y-2924523D02*
X67714142Y-2876904D01*
X67714142Y-2876904D02*
X67690333Y-2853095D01*
X67690333Y-2853095D02*
X67642714Y-2829285D01*
X67642714Y-2829285D02*
X67547476Y-2829285D01*
X67547476Y-2829285D02*
X67499857Y-2853095D01*
X67499857Y-2853095D02*
X67476047Y-2876904D01*
X67476047Y-2876904D02*
X67452238Y-2924523D01*
X31820571Y6461190D02*
X31653905Y6699285D01*
X31534857Y6461190D02*
X31534857Y6961190D01*
X31534857Y6961190D02*
X31725333Y6961190D01*
X31725333Y6961190D02*
X31772952Y6937380D01*
X31772952Y6937380D02*
X31796762Y6913571D01*
X31796762Y6913571D02*
X31820571Y6865952D01*
X31820571Y6865952D02*
X31820571Y6794523D01*
X31820571Y6794523D02*
X31796762Y6746904D01*
X31796762Y6746904D02*
X31772952Y6723095D01*
X31772952Y6723095D02*
X31725333Y6699285D01*
X31725333Y6699285D02*
X31534857Y6699285D01*
X32296762Y6461190D02*
X32011048Y6461190D01*
X32153905Y6461190D02*
X32153905Y6961190D01*
X32153905Y6961190D02*
X32106286Y6889761D01*
X32106286Y6889761D02*
X32058667Y6842142D01*
X32058667Y6842142D02*
X32011048Y6818333D01*
X32606285Y6961190D02*
X32653904Y6961190D01*
X32653904Y6961190D02*
X32701523Y6937380D01*
X32701523Y6937380D02*
X32725333Y6913571D01*
X32725333Y6913571D02*
X32749142Y6865952D01*
X32749142Y6865952D02*
X32772952Y6770714D01*
X32772952Y6770714D02*
X32772952Y6651666D01*
X32772952Y6651666D02*
X32749142Y6556428D01*
X32749142Y6556428D02*
X32725333Y6508809D01*
X32725333Y6508809D02*
X32701523Y6485000D01*
X32701523Y6485000D02*
X32653904Y6461190D01*
X32653904Y6461190D02*
X32606285Y6461190D01*
X32606285Y6461190D02*
X32558666Y6485000D01*
X32558666Y6485000D02*
X32534857Y6508809D01*
X32534857Y6508809D02*
X32511047Y6556428D01*
X32511047Y6556428D02*
X32487238Y6651666D01*
X32487238Y6651666D02*
X32487238Y6770714D01*
X32487238Y6770714D02*
X32511047Y6865952D01*
X32511047Y6865952D02*
X32534857Y6913571D01*
X32534857Y6913571D02*
X32558666Y6937380D01*
X32558666Y6937380D02*
X32606285Y6961190D01*
X66749857Y-22138809D02*
X66749857Y-21638809D01*
X66749857Y-21638809D02*
X66868905Y-21638809D01*
X66868905Y-21638809D02*
X66940333Y-21662619D01*
X66940333Y-21662619D02*
X66987952Y-21710238D01*
X66987952Y-21710238D02*
X67011762Y-21757857D01*
X67011762Y-21757857D02*
X67035571Y-21853095D01*
X67035571Y-21853095D02*
X67035571Y-21924523D01*
X67035571Y-21924523D02*
X67011762Y-22019761D01*
X67011762Y-22019761D02*
X66987952Y-22067380D01*
X66987952Y-22067380D02*
X66940333Y-22115000D01*
X66940333Y-22115000D02*
X66868905Y-22138809D01*
X66868905Y-22138809D02*
X66749857Y-22138809D01*
X67464143Y-21805476D02*
X67464143Y-22138809D01*
X67345095Y-21615000D02*
X67226048Y-21972142D01*
X67226048Y-21972142D02*
X67535571Y-21972142D01*
X67702238Y-21686428D02*
X67726047Y-21662619D01*
X67726047Y-21662619D02*
X67773666Y-21638809D01*
X67773666Y-21638809D02*
X67892714Y-21638809D01*
X67892714Y-21638809D02*
X67940333Y-21662619D01*
X67940333Y-21662619D02*
X67964142Y-21686428D01*
X67964142Y-21686428D02*
X67987952Y-21734047D01*
X67987952Y-21734047D02*
X67987952Y-21781666D01*
X67987952Y-21781666D02*
X67964142Y-21853095D01*
X67964142Y-21853095D02*
X67678428Y-22138809D01*
X67678428Y-22138809D02*
X67987952Y-22138809D01*
X47499857Y-22138809D02*
X47499857Y-21638809D01*
X47499857Y-21638809D02*
X47618905Y-21638809D01*
X47618905Y-21638809D02*
X47690333Y-21662619D01*
X47690333Y-21662619D02*
X47737952Y-21710238D01*
X47737952Y-21710238D02*
X47761762Y-21757857D01*
X47761762Y-21757857D02*
X47785571Y-21853095D01*
X47785571Y-21853095D02*
X47785571Y-21924523D01*
X47785571Y-21924523D02*
X47761762Y-22019761D01*
X47761762Y-22019761D02*
X47737952Y-22067380D01*
X47737952Y-22067380D02*
X47690333Y-22115000D01*
X47690333Y-22115000D02*
X47618905Y-22138809D01*
X47618905Y-22138809D02*
X47499857Y-22138809D01*
X48214143Y-21805476D02*
X48214143Y-22138809D01*
X48095095Y-21615000D02*
X47976048Y-21972142D01*
X47976048Y-21972142D02*
X48285571Y-21972142D01*
X48737952Y-22138809D02*
X48452238Y-22138809D01*
X48595095Y-22138809D02*
X48595095Y-21638809D01*
X48595095Y-21638809D02*
X48547476Y-21710238D01*
X48547476Y-21710238D02*
X48499857Y-21757857D01*
X48499857Y-21757857D02*
X48452238Y-21781666D01*
X22161047Y2361190D02*
X22161047Y1956428D01*
X22161047Y1956428D02*
X22184857Y1908809D01*
X22184857Y1908809D02*
X22208666Y1885000D01*
X22208666Y1885000D02*
X22256285Y1861190D01*
X22256285Y1861190D02*
X22351523Y1861190D01*
X22351523Y1861190D02*
X22399142Y1885000D01*
X22399142Y1885000D02*
X22422952Y1908809D01*
X22422952Y1908809D02*
X22446761Y1956428D01*
X22446761Y1956428D02*
X22446761Y2361190D01*
X22637238Y2361190D02*
X22946762Y2361190D01*
X22946762Y2361190D02*
X22780095Y2170714D01*
X22780095Y2170714D02*
X22851524Y2170714D01*
X22851524Y2170714D02*
X22899143Y2146904D01*
X22899143Y2146904D02*
X22922952Y2123095D01*
X22922952Y2123095D02*
X22946762Y2075476D01*
X22946762Y2075476D02*
X22946762Y1956428D01*
X22946762Y1956428D02*
X22922952Y1908809D01*
X22922952Y1908809D02*
X22899143Y1885000D01*
X22899143Y1885000D02*
X22851524Y1861190D01*
X22851524Y1861190D02*
X22708667Y1861190D01*
X22708667Y1861190D02*
X22661048Y1885000D01*
X22661048Y1885000D02*
X22637238Y1908809D01*
X66749857Y-60038809D02*
X66749857Y-59538809D01*
X66749857Y-59538809D02*
X66868905Y-59538809D01*
X66868905Y-59538809D02*
X66940333Y-59562619D01*
X66940333Y-59562619D02*
X66987952Y-59610238D01*
X66987952Y-59610238D02*
X67011762Y-59657857D01*
X67011762Y-59657857D02*
X67035571Y-59753095D01*
X67035571Y-59753095D02*
X67035571Y-59824523D01*
X67035571Y-59824523D02*
X67011762Y-59919761D01*
X67011762Y-59919761D02*
X66987952Y-59967380D01*
X66987952Y-59967380D02*
X66940333Y-60015000D01*
X66940333Y-60015000D02*
X66868905Y-60038809D01*
X66868905Y-60038809D02*
X66749857Y-60038809D01*
X67202238Y-59538809D02*
X67511762Y-59538809D01*
X67511762Y-59538809D02*
X67345095Y-59729285D01*
X67345095Y-59729285D02*
X67416524Y-59729285D01*
X67416524Y-59729285D02*
X67464143Y-59753095D01*
X67464143Y-59753095D02*
X67487952Y-59776904D01*
X67487952Y-59776904D02*
X67511762Y-59824523D01*
X67511762Y-59824523D02*
X67511762Y-59943571D01*
X67511762Y-59943571D02*
X67487952Y-59991190D01*
X67487952Y-59991190D02*
X67464143Y-60015000D01*
X67464143Y-60015000D02*
X67416524Y-60038809D01*
X67416524Y-60038809D02*
X67273667Y-60038809D01*
X67273667Y-60038809D02*
X67226048Y-60015000D01*
X67226048Y-60015000D02*
X67202238Y-59991190D01*
X67940333Y-59705476D02*
X67940333Y-60038809D01*
X67821285Y-59515000D02*
X67702238Y-59872142D01*
X67702238Y-59872142D02*
X68011761Y-59872142D01*
X34748266Y17151609D02*
X34724457Y17127800D01*
X34724457Y17127800D02*
X34653028Y17103990D01*
X34653028Y17103990D02*
X34605409Y17103990D01*
X34605409Y17103990D02*
X34533981Y17127800D01*
X34533981Y17127800D02*
X34486362Y17175419D01*
X34486362Y17175419D02*
X34462552Y17223038D01*
X34462552Y17223038D02*
X34438743Y17318276D01*
X34438743Y17318276D02*
X34438743Y17389704D01*
X34438743Y17389704D02*
X34462552Y17484942D01*
X34462552Y17484942D02*
X34486362Y17532561D01*
X34486362Y17532561D02*
X34533981Y17580180D01*
X34533981Y17580180D02*
X34605409Y17603990D01*
X34605409Y17603990D02*
X34653028Y17603990D01*
X34653028Y17603990D02*
X34724457Y17580180D01*
X34724457Y17580180D02*
X34748266Y17556371D01*
X35176838Y17603990D02*
X35081600Y17603990D01*
X35081600Y17603990D02*
X35033981Y17580180D01*
X35033981Y17580180D02*
X35010171Y17556371D01*
X35010171Y17556371D02*
X34962552Y17484942D01*
X34962552Y17484942D02*
X34938743Y17389704D01*
X34938743Y17389704D02*
X34938743Y17199228D01*
X34938743Y17199228D02*
X34962552Y17151609D01*
X34962552Y17151609D02*
X34986362Y17127800D01*
X34986362Y17127800D02*
X35033981Y17103990D01*
X35033981Y17103990D02*
X35129219Y17103990D01*
X35129219Y17103990D02*
X35176838Y17127800D01*
X35176838Y17127800D02*
X35200647Y17151609D01*
X35200647Y17151609D02*
X35224457Y17199228D01*
X35224457Y17199228D02*
X35224457Y17318276D01*
X35224457Y17318276D02*
X35200647Y17365895D01*
X35200647Y17365895D02*
X35176838Y17389704D01*
X35176838Y17389704D02*
X35129219Y17413514D01*
X35129219Y17413514D02*
X35033981Y17413514D01*
X35033981Y17413514D02*
X34986362Y17389704D01*
X34986362Y17389704D02*
X34962552Y17365895D01*
X34962552Y17365895D02*
X34938743Y17318276D01*
X38958666Y16561190D02*
X38792000Y16799285D01*
X38672952Y16561190D02*
X38672952Y17061190D01*
X38672952Y17061190D02*
X38863428Y17061190D01*
X38863428Y17061190D02*
X38911047Y17037380D01*
X38911047Y17037380D02*
X38934857Y17013571D01*
X38934857Y17013571D02*
X38958666Y16965952D01*
X38958666Y16965952D02*
X38958666Y16894523D01*
X38958666Y16894523D02*
X38934857Y16846904D01*
X38934857Y16846904D02*
X38911047Y16823095D01*
X38911047Y16823095D02*
X38863428Y16799285D01*
X38863428Y16799285D02*
X38672952Y16799285D01*
X39411047Y17061190D02*
X39172952Y17061190D01*
X39172952Y17061190D02*
X39149143Y16823095D01*
X39149143Y16823095D02*
X39172952Y16846904D01*
X39172952Y16846904D02*
X39220571Y16870714D01*
X39220571Y16870714D02*
X39339619Y16870714D01*
X39339619Y16870714D02*
X39387238Y16846904D01*
X39387238Y16846904D02*
X39411047Y16823095D01*
X39411047Y16823095D02*
X39434857Y16775476D01*
X39434857Y16775476D02*
X39434857Y16656428D01*
X39434857Y16656428D02*
X39411047Y16608809D01*
X39411047Y16608809D02*
X39387238Y16585000D01*
X39387238Y16585000D02*
X39339619Y16561190D01*
X39339619Y16561190D02*
X39220571Y16561190D01*
X39220571Y16561190D02*
X39172952Y16585000D01*
X39172952Y16585000D02*
X39149143Y16608809D01*
X38919190Y-61835428D02*
X38943000Y-61859237D01*
X38943000Y-61859237D02*
X38966809Y-61930666D01*
X38966809Y-61930666D02*
X38966809Y-61978285D01*
X38966809Y-61978285D02*
X38943000Y-62049713D01*
X38943000Y-62049713D02*
X38895380Y-62097332D01*
X38895380Y-62097332D02*
X38847761Y-62121142D01*
X38847761Y-62121142D02*
X38752523Y-62144951D01*
X38752523Y-62144951D02*
X38681095Y-62144951D01*
X38681095Y-62144951D02*
X38585857Y-62121142D01*
X38585857Y-62121142D02*
X38538238Y-62097332D01*
X38538238Y-62097332D02*
X38490619Y-62049713D01*
X38490619Y-62049713D02*
X38466809Y-61978285D01*
X38466809Y-61978285D02*
X38466809Y-61930666D01*
X38466809Y-61930666D02*
X38490619Y-61859237D01*
X38490619Y-61859237D02*
X38514428Y-61835428D01*
X38966809Y-61359237D02*
X38966809Y-61644951D01*
X38966809Y-61502094D02*
X38466809Y-61502094D01*
X38466809Y-61502094D02*
X38538238Y-61549713D01*
X38538238Y-61549713D02*
X38585857Y-61597332D01*
X38585857Y-61597332D02*
X38609666Y-61644951D01*
X38681095Y-61073523D02*
X38657285Y-61121142D01*
X38657285Y-61121142D02*
X38633476Y-61144952D01*
X38633476Y-61144952D02*
X38585857Y-61168761D01*
X38585857Y-61168761D02*
X38562047Y-61168761D01*
X38562047Y-61168761D02*
X38514428Y-61144952D01*
X38514428Y-61144952D02*
X38490619Y-61121142D01*
X38490619Y-61121142D02*
X38466809Y-61073523D01*
X38466809Y-61073523D02*
X38466809Y-60978285D01*
X38466809Y-60978285D02*
X38490619Y-60930666D01*
X38490619Y-60930666D02*
X38514428Y-60906857D01*
X38514428Y-60906857D02*
X38562047Y-60883047D01*
X38562047Y-60883047D02*
X38585857Y-60883047D01*
X38585857Y-60883047D02*
X38633476Y-60906857D01*
X38633476Y-60906857D02*
X38657285Y-60930666D01*
X38657285Y-60930666D02*
X38681095Y-60978285D01*
X38681095Y-60978285D02*
X38681095Y-61073523D01*
X38681095Y-61073523D02*
X38704904Y-61121142D01*
X38704904Y-61121142D02*
X38728714Y-61144952D01*
X38728714Y-61144952D02*
X38776333Y-61168761D01*
X38776333Y-61168761D02*
X38871571Y-61168761D01*
X38871571Y-61168761D02*
X38919190Y-61144952D01*
X38919190Y-61144952D02*
X38943000Y-61121142D01*
X38943000Y-61121142D02*
X38966809Y-61073523D01*
X38966809Y-61073523D02*
X38966809Y-60978285D01*
X38966809Y-60978285D02*
X38943000Y-60930666D01*
X38943000Y-60930666D02*
X38919190Y-60906857D01*
X38919190Y-60906857D02*
X38871571Y-60883047D01*
X38871571Y-60883047D02*
X38776333Y-60883047D01*
X38776333Y-60883047D02*
X38728714Y-60906857D01*
X38728714Y-60906857D02*
X38704904Y-60930666D01*
X38704904Y-60930666D02*
X38681095Y-60978285D01*
X40339586Y26708809D02*
X40315777Y26685000D01*
X40315777Y26685000D02*
X40244348Y26661190D01*
X40244348Y26661190D02*
X40196729Y26661190D01*
X40196729Y26661190D02*
X40125301Y26685000D01*
X40125301Y26685000D02*
X40077682Y26732619D01*
X40077682Y26732619D02*
X40053872Y26780238D01*
X40053872Y26780238D02*
X40030063Y26875476D01*
X40030063Y26875476D02*
X40030063Y26946904D01*
X40030063Y26946904D02*
X40053872Y27042142D01*
X40053872Y27042142D02*
X40077682Y27089761D01*
X40077682Y27089761D02*
X40125301Y27137380D01*
X40125301Y27137380D02*
X40196729Y27161190D01*
X40196729Y27161190D02*
X40244348Y27161190D01*
X40244348Y27161190D02*
X40315777Y27137380D01*
X40315777Y27137380D02*
X40339586Y27113571D01*
X40625301Y26946904D02*
X40577682Y26970714D01*
X40577682Y26970714D02*
X40553872Y26994523D01*
X40553872Y26994523D02*
X40530063Y27042142D01*
X40530063Y27042142D02*
X40530063Y27065952D01*
X40530063Y27065952D02*
X40553872Y27113571D01*
X40553872Y27113571D02*
X40577682Y27137380D01*
X40577682Y27137380D02*
X40625301Y27161190D01*
X40625301Y27161190D02*
X40720539Y27161190D01*
X40720539Y27161190D02*
X40768158Y27137380D01*
X40768158Y27137380D02*
X40791967Y27113571D01*
X40791967Y27113571D02*
X40815777Y27065952D01*
X40815777Y27065952D02*
X40815777Y27042142D01*
X40815777Y27042142D02*
X40791967Y26994523D01*
X40791967Y26994523D02*
X40768158Y26970714D01*
X40768158Y26970714D02*
X40720539Y26946904D01*
X40720539Y26946904D02*
X40625301Y26946904D01*
X40625301Y26946904D02*
X40577682Y26923095D01*
X40577682Y26923095D02*
X40553872Y26899285D01*
X40553872Y26899285D02*
X40530063Y26851666D01*
X40530063Y26851666D02*
X40530063Y26756428D01*
X40530063Y26756428D02*
X40553872Y26708809D01*
X40553872Y26708809D02*
X40577682Y26685000D01*
X40577682Y26685000D02*
X40625301Y26661190D01*
X40625301Y26661190D02*
X40720539Y26661190D01*
X40720539Y26661190D02*
X40768158Y26685000D01*
X40768158Y26685000D02*
X40791967Y26708809D01*
X40791967Y26708809D02*
X40815777Y26756428D01*
X40815777Y26756428D02*
X40815777Y26851666D01*
X40815777Y26851666D02*
X40791967Y26899285D01*
X40791967Y26899285D02*
X40768158Y26923095D01*
X40768158Y26923095D02*
X40720539Y26946904D01*
X2059598Y18519453D02*
X2416741Y18519453D01*
X2416741Y18519453D02*
X2488169Y18495644D01*
X2488169Y18495644D02*
X2535789Y18448025D01*
X2535789Y18448025D02*
X2559598Y18376596D01*
X2559598Y18376596D02*
X2559598Y18328977D01*
X2107217Y18733739D02*
X2083408Y18757548D01*
X2083408Y18757548D02*
X2059598Y18805167D01*
X2059598Y18805167D02*
X2059598Y18924215D01*
X2059598Y18924215D02*
X2083408Y18971834D01*
X2083408Y18971834D02*
X2107217Y18995643D01*
X2107217Y18995643D02*
X2154836Y19019453D01*
X2154836Y19019453D02*
X2202455Y19019453D01*
X2202455Y19019453D02*
X2273884Y18995643D01*
X2273884Y18995643D02*
X2559598Y18709929D01*
X2559598Y18709929D02*
X2559598Y19019453D01*
X5794380Y9213571D02*
X5746761Y9237380D01*
X5746761Y9237380D02*
X5699142Y9285000D01*
X5699142Y9285000D02*
X5627714Y9356428D01*
X5627714Y9356428D02*
X5580095Y9380238D01*
X5580095Y9380238D02*
X5532476Y9380238D01*
X5556285Y9261190D02*
X5508666Y9285000D01*
X5508666Y9285000D02*
X5461047Y9332619D01*
X5461047Y9332619D02*
X5437238Y9427857D01*
X5437238Y9427857D02*
X5437238Y9594523D01*
X5437238Y9594523D02*
X5461047Y9689761D01*
X5461047Y9689761D02*
X5508666Y9737380D01*
X5508666Y9737380D02*
X5556285Y9761190D01*
X5556285Y9761190D02*
X5651523Y9761190D01*
X5651523Y9761190D02*
X5699142Y9737380D01*
X5699142Y9737380D02*
X5746761Y9689761D01*
X5746761Y9689761D02*
X5770571Y9594523D01*
X5770571Y9594523D02*
X5770571Y9427857D01*
X5770571Y9427857D02*
X5746761Y9332619D01*
X5746761Y9332619D02*
X5699142Y9285000D01*
X5699142Y9285000D02*
X5651523Y9261190D01*
X5651523Y9261190D02*
X5556285Y9261190D01*
X6246762Y9261190D02*
X5961048Y9261190D01*
X6103905Y9261190D02*
X6103905Y9761190D01*
X6103905Y9761190D02*
X6056286Y9689761D01*
X6056286Y9689761D02*
X6008667Y9642142D01*
X6008667Y9642142D02*
X5961048Y9618333D01*
D11*
X61269334Y-76417300D02*
X61340762Y-76441109D01*
X61340762Y-76441109D02*
X61459810Y-76441109D01*
X61459810Y-76441109D02*
X61507429Y-76417300D01*
X61507429Y-76417300D02*
X61531238Y-76393490D01*
X61531238Y-76393490D02*
X61555048Y-76345871D01*
X61555048Y-76345871D02*
X61555048Y-76298252D01*
X61555048Y-76298252D02*
X61531238Y-76250633D01*
X61531238Y-76250633D02*
X61507429Y-76226823D01*
X61507429Y-76226823D02*
X61459810Y-76203014D01*
X61459810Y-76203014D02*
X61364572Y-76179204D01*
X61364572Y-76179204D02*
X61316953Y-76155395D01*
X61316953Y-76155395D02*
X61293143Y-76131585D01*
X61293143Y-76131585D02*
X61269334Y-76083966D01*
X61269334Y-76083966D02*
X61269334Y-76036347D01*
X61269334Y-76036347D02*
X61293143Y-75988728D01*
X61293143Y-75988728D02*
X61316953Y-75964919D01*
X61316953Y-75964919D02*
X61364572Y-75941109D01*
X61364572Y-75941109D02*
X61483619Y-75941109D01*
X61483619Y-75941109D02*
X61555048Y-75964919D01*
X61721714Y-75941109D02*
X61840762Y-76441109D01*
X61840762Y-76441109D02*
X61936000Y-76083966D01*
X61936000Y-76083966D02*
X62031238Y-76441109D01*
X62031238Y-76441109D02*
X62150286Y-75941109D01*
X62555048Y-76107776D02*
X62555048Y-76441109D01*
X62436000Y-75917300D02*
X62316953Y-76274442D01*
X62316953Y-76274442D02*
X62626476Y-76274442D01*
D10*
X22261047Y15961190D02*
X22261047Y15556428D01*
X22261047Y15556428D02*
X22284857Y15508809D01*
X22284857Y15508809D02*
X22308666Y15485000D01*
X22308666Y15485000D02*
X22356285Y15461190D01*
X22356285Y15461190D02*
X22451523Y15461190D01*
X22451523Y15461190D02*
X22499142Y15485000D01*
X22499142Y15485000D02*
X22522952Y15508809D01*
X22522952Y15508809D02*
X22546761Y15556428D01*
X22546761Y15556428D02*
X22546761Y15961190D01*
X22999143Y15961190D02*
X22903905Y15961190D01*
X22903905Y15961190D02*
X22856286Y15937380D01*
X22856286Y15937380D02*
X22832476Y15913571D01*
X22832476Y15913571D02*
X22784857Y15842142D01*
X22784857Y15842142D02*
X22761048Y15746904D01*
X22761048Y15746904D02*
X22761048Y15556428D01*
X22761048Y15556428D02*
X22784857Y15508809D01*
X22784857Y15508809D02*
X22808667Y15485000D01*
X22808667Y15485000D02*
X22856286Y15461190D01*
X22856286Y15461190D02*
X22951524Y15461190D01*
X22951524Y15461190D02*
X22999143Y15485000D01*
X22999143Y15485000D02*
X23022952Y15508809D01*
X23022952Y15508809D02*
X23046762Y15556428D01*
X23046762Y15556428D02*
X23046762Y15675476D01*
X23046762Y15675476D02*
X23022952Y15723095D01*
X23022952Y15723095D02*
X22999143Y15746904D01*
X22999143Y15746904D02*
X22951524Y15770714D01*
X22951524Y15770714D02*
X22856286Y15770714D01*
X22856286Y15770714D02*
X22808667Y15746904D01*
X22808667Y15746904D02*
X22784857Y15723095D01*
X22784857Y15723095D02*
X22761048Y15675476D01*
X69966809Y3278857D02*
X69466809Y3278857D01*
X69466809Y3278857D02*
X69466809Y3397905D01*
X69466809Y3397905D02*
X69490619Y3469333D01*
X69490619Y3469333D02*
X69538238Y3516952D01*
X69538238Y3516952D02*
X69585857Y3540762D01*
X69585857Y3540762D02*
X69681095Y3564571D01*
X69681095Y3564571D02*
X69752523Y3564571D01*
X69752523Y3564571D02*
X69847761Y3540762D01*
X69847761Y3540762D02*
X69895380Y3516952D01*
X69895380Y3516952D02*
X69943000Y3469333D01*
X69943000Y3469333D02*
X69966809Y3397905D01*
X69966809Y3397905D02*
X69966809Y3278857D01*
X69514428Y3755048D02*
X69490619Y3778857D01*
X69490619Y3778857D02*
X69466809Y3826476D01*
X69466809Y3826476D02*
X69466809Y3945524D01*
X69466809Y3945524D02*
X69490619Y3993143D01*
X69490619Y3993143D02*
X69514428Y4016952D01*
X69514428Y4016952D02*
X69562047Y4040762D01*
X69562047Y4040762D02*
X69609666Y4040762D01*
X69609666Y4040762D02*
X69681095Y4016952D01*
X69681095Y4016952D02*
X69966809Y3731238D01*
X69966809Y3731238D02*
X69966809Y4040762D01*
X69466809Y4207428D02*
X69466809Y4516952D01*
X69466809Y4516952D02*
X69657285Y4350285D01*
X69657285Y4350285D02*
X69657285Y4421714D01*
X69657285Y4421714D02*
X69681095Y4469333D01*
X69681095Y4469333D02*
X69704904Y4493142D01*
X69704904Y4493142D02*
X69752523Y4516952D01*
X69752523Y4516952D02*
X69871571Y4516952D01*
X69871571Y4516952D02*
X69919190Y4493142D01*
X69919190Y4493142D02*
X69943000Y4469333D01*
X69943000Y4469333D02*
X69966809Y4421714D01*
X69966809Y4421714D02*
X69966809Y4278857D01*
X69966809Y4278857D02*
X69943000Y4231238D01*
X69943000Y4231238D02*
X69919190Y4207428D01*
X6134857Y2261190D02*
X6134857Y2761190D01*
X6134857Y2761190D02*
X6253905Y2761190D01*
X6253905Y2761190D02*
X6325333Y2737380D01*
X6325333Y2737380D02*
X6372952Y2689761D01*
X6372952Y2689761D02*
X6396762Y2642142D01*
X6396762Y2642142D02*
X6420571Y2546904D01*
X6420571Y2546904D02*
X6420571Y2475476D01*
X6420571Y2475476D02*
X6396762Y2380238D01*
X6396762Y2380238D02*
X6372952Y2332619D01*
X6372952Y2332619D02*
X6325333Y2285000D01*
X6325333Y2285000D02*
X6253905Y2261190D01*
X6253905Y2261190D02*
X6134857Y2261190D01*
X6611048Y2713571D02*
X6634857Y2737380D01*
X6634857Y2737380D02*
X6682476Y2761190D01*
X6682476Y2761190D02*
X6801524Y2761190D01*
X6801524Y2761190D02*
X6849143Y2737380D01*
X6849143Y2737380D02*
X6872952Y2713571D01*
X6872952Y2713571D02*
X6896762Y2665952D01*
X6896762Y2665952D02*
X6896762Y2618333D01*
X6896762Y2618333D02*
X6872952Y2546904D01*
X6872952Y2546904D02*
X6587238Y2261190D01*
X6587238Y2261190D02*
X6896762Y2261190D01*
X7182476Y2546904D02*
X7134857Y2570714D01*
X7134857Y2570714D02*
X7111047Y2594523D01*
X7111047Y2594523D02*
X7087238Y2642142D01*
X7087238Y2642142D02*
X7087238Y2665952D01*
X7087238Y2665952D02*
X7111047Y2713571D01*
X7111047Y2713571D02*
X7134857Y2737380D01*
X7134857Y2737380D02*
X7182476Y2761190D01*
X7182476Y2761190D02*
X7277714Y2761190D01*
X7277714Y2761190D02*
X7325333Y2737380D01*
X7325333Y2737380D02*
X7349142Y2713571D01*
X7349142Y2713571D02*
X7372952Y2665952D01*
X7372952Y2665952D02*
X7372952Y2642142D01*
X7372952Y2642142D02*
X7349142Y2594523D01*
X7349142Y2594523D02*
X7325333Y2570714D01*
X7325333Y2570714D02*
X7277714Y2546904D01*
X7277714Y2546904D02*
X7182476Y2546904D01*
X7182476Y2546904D02*
X7134857Y2523095D01*
X7134857Y2523095D02*
X7111047Y2499285D01*
X7111047Y2499285D02*
X7087238Y2451666D01*
X7087238Y2451666D02*
X7087238Y2356428D01*
X7087238Y2356428D02*
X7111047Y2308809D01*
X7111047Y2308809D02*
X7134857Y2285000D01*
X7134857Y2285000D02*
X7182476Y2261190D01*
X7182476Y2261190D02*
X7277714Y2261190D01*
X7277714Y2261190D02*
X7325333Y2285000D01*
X7325333Y2285000D02*
X7349142Y2308809D01*
X7349142Y2308809D02*
X7372952Y2356428D01*
X7372952Y2356428D02*
X7372952Y2451666D01*
X7372952Y2451666D02*
X7349142Y2499285D01*
X7349142Y2499285D02*
X7325333Y2523095D01*
X7325333Y2523095D02*
X7277714Y2546904D01*
D11*
X3914239Y-19267300D02*
X3985667Y-19291109D01*
X3985667Y-19291109D02*
X4104715Y-19291109D01*
X4104715Y-19291109D02*
X4152334Y-19267300D01*
X4152334Y-19267300D02*
X4176143Y-19243490D01*
X4176143Y-19243490D02*
X4199953Y-19195871D01*
X4199953Y-19195871D02*
X4199953Y-19148252D01*
X4199953Y-19148252D02*
X4176143Y-19100633D01*
X4176143Y-19100633D02*
X4152334Y-19076823D01*
X4152334Y-19076823D02*
X4104715Y-19053014D01*
X4104715Y-19053014D02*
X4009477Y-19029204D01*
X4009477Y-19029204D02*
X3961858Y-19005395D01*
X3961858Y-19005395D02*
X3938048Y-18981585D01*
X3938048Y-18981585D02*
X3914239Y-18933966D01*
X3914239Y-18933966D02*
X3914239Y-18886347D01*
X3914239Y-18886347D02*
X3938048Y-18838728D01*
X3938048Y-18838728D02*
X3961858Y-18814919D01*
X3961858Y-18814919D02*
X4009477Y-18791109D01*
X4009477Y-18791109D02*
X4128524Y-18791109D01*
X4128524Y-18791109D02*
X4199953Y-18814919D01*
X4366619Y-18791109D02*
X4485667Y-19291109D01*
X4485667Y-19291109D02*
X4580905Y-18933966D01*
X4580905Y-18933966D02*
X4676143Y-19291109D01*
X4676143Y-19291109D02*
X4795191Y-18791109D01*
X5247572Y-19291109D02*
X4961858Y-19291109D01*
X5104715Y-19291109D02*
X5104715Y-18791109D01*
X5104715Y-18791109D02*
X5057096Y-18862538D01*
X5057096Y-18862538D02*
X5009477Y-18910157D01*
X5009477Y-18910157D02*
X4961858Y-18933966D01*
X5414238Y-18791109D02*
X5723762Y-18791109D01*
X5723762Y-18791109D02*
X5557095Y-18981585D01*
X5557095Y-18981585D02*
X5628524Y-18981585D01*
X5628524Y-18981585D02*
X5676143Y-19005395D01*
X5676143Y-19005395D02*
X5699952Y-19029204D01*
X5699952Y-19029204D02*
X5723762Y-19076823D01*
X5723762Y-19076823D02*
X5723762Y-19195871D01*
X5723762Y-19195871D02*
X5699952Y-19243490D01*
X5699952Y-19243490D02*
X5676143Y-19267300D01*
X5676143Y-19267300D02*
X5628524Y-19291109D01*
X5628524Y-19291109D02*
X5485667Y-19291109D01*
X5485667Y-19291109D02*
X5438048Y-19267300D01*
X5438048Y-19267300D02*
X5414238Y-19243490D01*
X60837239Y-316300D02*
X60908667Y-340109D01*
X60908667Y-340109D02*
X61027715Y-340109D01*
X61027715Y-340109D02*
X61075334Y-316300D01*
X61075334Y-316300D02*
X61099143Y-292490D01*
X61099143Y-292490D02*
X61122953Y-244871D01*
X61122953Y-244871D02*
X61122953Y-197252D01*
X61122953Y-197252D02*
X61099143Y-149633D01*
X61099143Y-149633D02*
X61075334Y-125823D01*
X61075334Y-125823D02*
X61027715Y-102014D01*
X61027715Y-102014D02*
X60932477Y-78204D01*
X60932477Y-78204D02*
X60884858Y-54395D01*
X60884858Y-54395D02*
X60861048Y-30585D01*
X60861048Y-30585D02*
X60837239Y17033D01*
X60837239Y17033D02*
X60837239Y64652D01*
X60837239Y64652D02*
X60861048Y112271D01*
X60861048Y112271D02*
X60884858Y136080D01*
X60884858Y136080D02*
X60932477Y159890D01*
X60932477Y159890D02*
X61051524Y159890D01*
X61051524Y159890D02*
X61122953Y136080D01*
X61289619Y159890D02*
X61408667Y-340109D01*
X61408667Y-340109D02*
X61503905Y17033D01*
X61503905Y17033D02*
X61599143Y-340109D01*
X61599143Y-340109D02*
X61718191Y159890D01*
X61884858Y112271D02*
X61908667Y136080D01*
X61908667Y136080D02*
X61956286Y159890D01*
X61956286Y159890D02*
X62075334Y159890D01*
X62075334Y159890D02*
X62122953Y136080D01*
X62122953Y136080D02*
X62146762Y112271D01*
X62146762Y112271D02*
X62170572Y64652D01*
X62170572Y64652D02*
X62170572Y17033D01*
X62170572Y17033D02*
X62146762Y-54395D01*
X62146762Y-54395D02*
X61861048Y-340109D01*
X61861048Y-340109D02*
X62170572Y-340109D01*
X62480095Y159890D02*
X62527714Y159890D01*
X62527714Y159890D02*
X62575333Y136080D01*
X62575333Y136080D02*
X62599143Y112271D01*
X62599143Y112271D02*
X62622952Y64652D01*
X62622952Y64652D02*
X62646762Y-30585D01*
X62646762Y-30585D02*
X62646762Y-149633D01*
X62646762Y-149633D02*
X62622952Y-244871D01*
X62622952Y-244871D02*
X62599143Y-292490D01*
X62599143Y-292490D02*
X62575333Y-316300D01*
X62575333Y-316300D02*
X62527714Y-340109D01*
X62527714Y-340109D02*
X62480095Y-340109D01*
X62480095Y-340109D02*
X62432476Y-316300D01*
X62432476Y-316300D02*
X62408667Y-292490D01*
X62408667Y-292490D02*
X62384857Y-244871D01*
X62384857Y-244871D02*
X62361048Y-149633D01*
X62361048Y-149633D02*
X62361048Y-30585D01*
X62361048Y-30585D02*
X62384857Y64652D01*
X62384857Y64652D02*
X62408667Y112271D01*
X62408667Y112271D02*
X62432476Y136080D01*
X62432476Y136080D02*
X62480095Y159890D01*
X42165334Y-76417300D02*
X42236762Y-76441109D01*
X42236762Y-76441109D02*
X42355810Y-76441109D01*
X42355810Y-76441109D02*
X42403429Y-76417300D01*
X42403429Y-76417300D02*
X42427238Y-76393490D01*
X42427238Y-76393490D02*
X42451048Y-76345871D01*
X42451048Y-76345871D02*
X42451048Y-76298252D01*
X42451048Y-76298252D02*
X42427238Y-76250633D01*
X42427238Y-76250633D02*
X42403429Y-76226823D01*
X42403429Y-76226823D02*
X42355810Y-76203014D01*
X42355810Y-76203014D02*
X42260572Y-76179204D01*
X42260572Y-76179204D02*
X42212953Y-76155395D01*
X42212953Y-76155395D02*
X42189143Y-76131585D01*
X42189143Y-76131585D02*
X42165334Y-76083966D01*
X42165334Y-76083966D02*
X42165334Y-76036347D01*
X42165334Y-76036347D02*
X42189143Y-75988728D01*
X42189143Y-75988728D02*
X42212953Y-75964919D01*
X42212953Y-75964919D02*
X42260572Y-75941109D01*
X42260572Y-75941109D02*
X42379619Y-75941109D01*
X42379619Y-75941109D02*
X42451048Y-75964919D01*
X42617714Y-75941109D02*
X42736762Y-76441109D01*
X42736762Y-76441109D02*
X42832000Y-76083966D01*
X42832000Y-76083966D02*
X42927238Y-76441109D01*
X42927238Y-76441109D02*
X43046286Y-75941109D01*
X43189143Y-75941109D02*
X43498667Y-75941109D01*
X43498667Y-75941109D02*
X43332000Y-76131585D01*
X43332000Y-76131585D02*
X43403429Y-76131585D01*
X43403429Y-76131585D02*
X43451048Y-76155395D01*
X43451048Y-76155395D02*
X43474857Y-76179204D01*
X43474857Y-76179204D02*
X43498667Y-76226823D01*
X43498667Y-76226823D02*
X43498667Y-76345871D01*
X43498667Y-76345871D02*
X43474857Y-76393490D01*
X43474857Y-76393490D02*
X43451048Y-76417300D01*
X43451048Y-76417300D02*
X43403429Y-76441109D01*
X43403429Y-76441109D02*
X43260572Y-76441109D01*
X43260572Y-76441109D02*
X43212953Y-76417300D01*
X43212953Y-76417300D02*
X43189143Y-76393490D01*
D10*
X37058666Y26708809D02*
X37034857Y26685000D01*
X37034857Y26685000D02*
X36963428Y26661190D01*
X36963428Y26661190D02*
X36915809Y26661190D01*
X36915809Y26661190D02*
X36844381Y26685000D01*
X36844381Y26685000D02*
X36796762Y26732619D01*
X36796762Y26732619D02*
X36772952Y26780238D01*
X36772952Y26780238D02*
X36749143Y26875476D01*
X36749143Y26875476D02*
X36749143Y26946904D01*
X36749143Y26946904D02*
X36772952Y27042142D01*
X36772952Y27042142D02*
X36796762Y27089761D01*
X36796762Y27089761D02*
X36844381Y27137380D01*
X36844381Y27137380D02*
X36915809Y27161190D01*
X36915809Y27161190D02*
X36963428Y27161190D01*
X36963428Y27161190D02*
X37034857Y27137380D01*
X37034857Y27137380D02*
X37058666Y27113571D01*
X37225333Y27161190D02*
X37558666Y27161190D01*
X37558666Y27161190D02*
X37344381Y26661190D01*
D11*
X41837239Y-316300D02*
X41908667Y-340109D01*
X41908667Y-340109D02*
X42027715Y-340109D01*
X42027715Y-340109D02*
X42075334Y-316300D01*
X42075334Y-316300D02*
X42099143Y-292490D01*
X42099143Y-292490D02*
X42122953Y-244871D01*
X42122953Y-244871D02*
X42122953Y-197252D01*
X42122953Y-197252D02*
X42099143Y-149633D01*
X42099143Y-149633D02*
X42075334Y-125823D01*
X42075334Y-125823D02*
X42027715Y-102014D01*
X42027715Y-102014D02*
X41932477Y-78204D01*
X41932477Y-78204D02*
X41884858Y-54395D01*
X41884858Y-54395D02*
X41861048Y-30585D01*
X41861048Y-30585D02*
X41837239Y17033D01*
X41837239Y17033D02*
X41837239Y64652D01*
X41837239Y64652D02*
X41861048Y112271D01*
X41861048Y112271D02*
X41884858Y136080D01*
X41884858Y136080D02*
X41932477Y159890D01*
X41932477Y159890D02*
X42051524Y159890D01*
X42051524Y159890D02*
X42122953Y136080D01*
X42289619Y159890D02*
X42408667Y-340109D01*
X42408667Y-340109D02*
X42503905Y17033D01*
X42503905Y17033D02*
X42599143Y-340109D01*
X42599143Y-340109D02*
X42718191Y159890D01*
X43170572Y-340109D02*
X42884858Y-340109D01*
X43027715Y-340109D02*
X43027715Y159890D01*
X43027715Y159890D02*
X42980096Y88461D01*
X42980096Y88461D02*
X42932477Y40842D01*
X42932477Y40842D02*
X42884858Y17033D01*
X43408667Y-340109D02*
X43503905Y-340109D01*
X43503905Y-340109D02*
X43551524Y-316300D01*
X43551524Y-316300D02*
X43575333Y-292490D01*
X43575333Y-292490D02*
X43622952Y-221061D01*
X43622952Y-221061D02*
X43646762Y-125823D01*
X43646762Y-125823D02*
X43646762Y64652D01*
X43646762Y64652D02*
X43622952Y112271D01*
X43622952Y112271D02*
X43599143Y136080D01*
X43599143Y136080D02*
X43551524Y159890D01*
X43551524Y159890D02*
X43456286Y159890D01*
X43456286Y159890D02*
X43408667Y136080D01*
X43408667Y136080D02*
X43384857Y112271D01*
X43384857Y112271D02*
X43361048Y64652D01*
X43361048Y64652D02*
X43361048Y-54395D01*
X43361048Y-54395D02*
X43384857Y-102014D01*
X43384857Y-102014D02*
X43408667Y-125823D01*
X43408667Y-125823D02*
X43456286Y-149633D01*
X43456286Y-149633D02*
X43551524Y-149633D01*
X43551524Y-149633D02*
X43599143Y-125823D01*
X43599143Y-125823D02*
X43622952Y-102014D01*
X43622952Y-102014D02*
X43646762Y-54395D01*
D10*
X17858666Y17461190D02*
X17620571Y17461190D01*
X17620571Y17461190D02*
X17620571Y17961190D01*
X18287238Y17461190D02*
X18001524Y17461190D01*
X18144381Y17461190D02*
X18144381Y17961190D01*
X18144381Y17961190D02*
X18096762Y17889761D01*
X18096762Y17889761D02*
X18049143Y17842142D01*
X18049143Y17842142D02*
X18001524Y17818333D01*
X44361047Y6561190D02*
X44361047Y6156428D01*
X44361047Y6156428D02*
X44384857Y6108809D01*
X44384857Y6108809D02*
X44408666Y6085000D01*
X44408666Y6085000D02*
X44456285Y6061190D01*
X44456285Y6061190D02*
X44551523Y6061190D01*
X44551523Y6061190D02*
X44599142Y6085000D01*
X44599142Y6085000D02*
X44622952Y6108809D01*
X44622952Y6108809D02*
X44646761Y6156428D01*
X44646761Y6156428D02*
X44646761Y6561190D01*
X45099143Y6394523D02*
X45099143Y6061190D01*
X44980095Y6585000D02*
X44861048Y6227857D01*
X44861048Y6227857D02*
X45170571Y6227857D01*
D11*
X61257334Y-57366300D02*
X61328762Y-57390109D01*
X61328762Y-57390109D02*
X61447810Y-57390109D01*
X61447810Y-57390109D02*
X61495429Y-57366300D01*
X61495429Y-57366300D02*
X61519238Y-57342490D01*
X61519238Y-57342490D02*
X61543048Y-57294871D01*
X61543048Y-57294871D02*
X61543048Y-57247252D01*
X61543048Y-57247252D02*
X61519238Y-57199633D01*
X61519238Y-57199633D02*
X61495429Y-57175823D01*
X61495429Y-57175823D02*
X61447810Y-57152014D01*
X61447810Y-57152014D02*
X61352572Y-57128204D01*
X61352572Y-57128204D02*
X61304953Y-57104395D01*
X61304953Y-57104395D02*
X61281143Y-57080585D01*
X61281143Y-57080585D02*
X61257334Y-57032966D01*
X61257334Y-57032966D02*
X61257334Y-56985347D01*
X61257334Y-56985347D02*
X61281143Y-56937728D01*
X61281143Y-56937728D02*
X61304953Y-56913919D01*
X61304953Y-56913919D02*
X61352572Y-56890109D01*
X61352572Y-56890109D02*
X61471619Y-56890109D01*
X61471619Y-56890109D02*
X61543048Y-56913919D01*
X61709714Y-56890109D02*
X61828762Y-57390109D01*
X61828762Y-57390109D02*
X61924000Y-57032966D01*
X61924000Y-57032966D02*
X62019238Y-57390109D01*
X62019238Y-57390109D02*
X62138286Y-56890109D01*
X62400191Y-57104395D02*
X62352572Y-57080585D01*
X62352572Y-57080585D02*
X62328762Y-57056776D01*
X62328762Y-57056776D02*
X62304953Y-57009157D01*
X62304953Y-57009157D02*
X62304953Y-56985347D01*
X62304953Y-56985347D02*
X62328762Y-56937728D01*
X62328762Y-56937728D02*
X62352572Y-56913919D01*
X62352572Y-56913919D02*
X62400191Y-56890109D01*
X62400191Y-56890109D02*
X62495429Y-56890109D01*
X62495429Y-56890109D02*
X62543048Y-56913919D01*
X62543048Y-56913919D02*
X62566857Y-56937728D01*
X62566857Y-56937728D02*
X62590667Y-56985347D01*
X62590667Y-56985347D02*
X62590667Y-57009157D01*
X62590667Y-57009157D02*
X62566857Y-57056776D01*
X62566857Y-57056776D02*
X62543048Y-57080585D01*
X62543048Y-57080585D02*
X62495429Y-57104395D01*
X62495429Y-57104395D02*
X62400191Y-57104395D01*
X62400191Y-57104395D02*
X62352572Y-57128204D01*
X62352572Y-57128204D02*
X62328762Y-57152014D01*
X62328762Y-57152014D02*
X62304953Y-57199633D01*
X62304953Y-57199633D02*
X62304953Y-57294871D01*
X62304953Y-57294871D02*
X62328762Y-57342490D01*
X62328762Y-57342490D02*
X62352572Y-57366300D01*
X62352572Y-57366300D02*
X62400191Y-57390109D01*
X62400191Y-57390109D02*
X62495429Y-57390109D01*
X62495429Y-57390109D02*
X62543048Y-57366300D01*
X62543048Y-57366300D02*
X62566857Y-57342490D01*
X62566857Y-57342490D02*
X62590667Y-57294871D01*
X62590667Y-57294871D02*
X62590667Y-57199633D01*
X62590667Y-57199633D02*
X62566857Y-57152014D01*
X62566857Y-57152014D02*
X62543048Y-57128204D01*
X62543048Y-57128204D02*
X62495429Y-57104395D01*
D10*
X28499857Y-22038809D02*
X28499857Y-21538809D01*
X28499857Y-21538809D02*
X28618905Y-21538809D01*
X28618905Y-21538809D02*
X28690333Y-21562619D01*
X28690333Y-21562619D02*
X28737952Y-21610238D01*
X28737952Y-21610238D02*
X28761762Y-21657857D01*
X28761762Y-21657857D02*
X28785571Y-21753095D01*
X28785571Y-21753095D02*
X28785571Y-21824523D01*
X28785571Y-21824523D02*
X28761762Y-21919761D01*
X28761762Y-21919761D02*
X28737952Y-21967380D01*
X28737952Y-21967380D02*
X28690333Y-22015000D01*
X28690333Y-22015000D02*
X28618905Y-22038809D01*
X28618905Y-22038809D02*
X28499857Y-22038809D01*
X29214143Y-21705476D02*
X29214143Y-22038809D01*
X29095095Y-21515000D02*
X28976048Y-21872142D01*
X28976048Y-21872142D02*
X29285571Y-21872142D01*
X29571285Y-21538809D02*
X29618904Y-21538809D01*
X29618904Y-21538809D02*
X29666523Y-21562619D01*
X29666523Y-21562619D02*
X29690333Y-21586428D01*
X29690333Y-21586428D02*
X29714142Y-21634047D01*
X29714142Y-21634047D02*
X29737952Y-21729285D01*
X29737952Y-21729285D02*
X29737952Y-21848333D01*
X29737952Y-21848333D02*
X29714142Y-21943571D01*
X29714142Y-21943571D02*
X29690333Y-21991190D01*
X29690333Y-21991190D02*
X29666523Y-22015000D01*
X29666523Y-22015000D02*
X29618904Y-22038809D01*
X29618904Y-22038809D02*
X29571285Y-22038809D01*
X29571285Y-22038809D02*
X29523666Y-22015000D01*
X29523666Y-22015000D02*
X29499857Y-21991190D01*
X29499857Y-21991190D02*
X29476047Y-21943571D01*
X29476047Y-21943571D02*
X29452238Y-21848333D01*
X29452238Y-21848333D02*
X29452238Y-21729285D01*
X29452238Y-21729285D02*
X29476047Y-21634047D01*
X29476047Y-21634047D02*
X29499857Y-21586428D01*
X29499857Y-21586428D02*
X29523666Y-21562619D01*
X29523666Y-21562619D02*
X29571285Y-21538809D01*
X14258666Y2661190D02*
X14092000Y2899285D01*
X13972952Y2661190D02*
X13972952Y3161190D01*
X13972952Y3161190D02*
X14163428Y3161190D01*
X14163428Y3161190D02*
X14211047Y3137380D01*
X14211047Y3137380D02*
X14234857Y3113571D01*
X14234857Y3113571D02*
X14258666Y3065952D01*
X14258666Y3065952D02*
X14258666Y2994523D01*
X14258666Y2994523D02*
X14234857Y2946904D01*
X14234857Y2946904D02*
X14211047Y2923095D01*
X14211047Y2923095D02*
X14163428Y2899285D01*
X14163428Y2899285D02*
X13972952Y2899285D01*
X14544381Y2946904D02*
X14496762Y2970714D01*
X14496762Y2970714D02*
X14472952Y2994523D01*
X14472952Y2994523D02*
X14449143Y3042142D01*
X14449143Y3042142D02*
X14449143Y3065952D01*
X14449143Y3065952D02*
X14472952Y3113571D01*
X14472952Y3113571D02*
X14496762Y3137380D01*
X14496762Y3137380D02*
X14544381Y3161190D01*
X14544381Y3161190D02*
X14639619Y3161190D01*
X14639619Y3161190D02*
X14687238Y3137380D01*
X14687238Y3137380D02*
X14711047Y3113571D01*
X14711047Y3113571D02*
X14734857Y3065952D01*
X14734857Y3065952D02*
X14734857Y3042142D01*
X14734857Y3042142D02*
X14711047Y2994523D01*
X14711047Y2994523D02*
X14687238Y2970714D01*
X14687238Y2970714D02*
X14639619Y2946904D01*
X14639619Y2946904D02*
X14544381Y2946904D01*
X14544381Y2946904D02*
X14496762Y2923095D01*
X14496762Y2923095D02*
X14472952Y2899285D01*
X14472952Y2899285D02*
X14449143Y2851666D01*
X14449143Y2851666D02*
X14449143Y2756428D01*
X14449143Y2756428D02*
X14472952Y2708809D01*
X14472952Y2708809D02*
X14496762Y2685000D01*
X14496762Y2685000D02*
X14544381Y2661190D01*
X14544381Y2661190D02*
X14639619Y2661190D01*
X14639619Y2661190D02*
X14687238Y2685000D01*
X14687238Y2685000D02*
X14711047Y2708809D01*
X14711047Y2708809D02*
X14734857Y2756428D01*
X14734857Y2756428D02*
X14734857Y2851666D01*
X14734857Y2851666D02*
X14711047Y2899285D01*
X14711047Y2899285D02*
X14687238Y2923095D01*
X14687238Y2923095D02*
X14639619Y2946904D01*
D11*
X41887239Y-19267300D02*
X41958667Y-19291109D01*
X41958667Y-19291109D02*
X42077715Y-19291109D01*
X42077715Y-19291109D02*
X42125334Y-19267300D01*
X42125334Y-19267300D02*
X42149143Y-19243490D01*
X42149143Y-19243490D02*
X42172953Y-19195871D01*
X42172953Y-19195871D02*
X42172953Y-19148252D01*
X42172953Y-19148252D02*
X42149143Y-19100633D01*
X42149143Y-19100633D02*
X42125334Y-19076823D01*
X42125334Y-19076823D02*
X42077715Y-19053014D01*
X42077715Y-19053014D02*
X41982477Y-19029204D01*
X41982477Y-19029204D02*
X41934858Y-19005395D01*
X41934858Y-19005395D02*
X41911048Y-18981585D01*
X41911048Y-18981585D02*
X41887239Y-18933966D01*
X41887239Y-18933966D02*
X41887239Y-18886347D01*
X41887239Y-18886347D02*
X41911048Y-18838728D01*
X41911048Y-18838728D02*
X41934858Y-18814919D01*
X41934858Y-18814919D02*
X41982477Y-18791109D01*
X41982477Y-18791109D02*
X42101524Y-18791109D01*
X42101524Y-18791109D02*
X42172953Y-18814919D01*
X42339619Y-18791109D02*
X42458667Y-19291109D01*
X42458667Y-19291109D02*
X42553905Y-18933966D01*
X42553905Y-18933966D02*
X42649143Y-19291109D01*
X42649143Y-19291109D02*
X42768191Y-18791109D01*
X43220572Y-19291109D02*
X42934858Y-19291109D01*
X43077715Y-19291109D02*
X43077715Y-18791109D01*
X43077715Y-18791109D02*
X43030096Y-18862538D01*
X43030096Y-18862538D02*
X42982477Y-18910157D01*
X42982477Y-18910157D02*
X42934858Y-18933966D01*
X43672952Y-18791109D02*
X43434857Y-18791109D01*
X43434857Y-18791109D02*
X43411048Y-19029204D01*
X43411048Y-19029204D02*
X43434857Y-19005395D01*
X43434857Y-19005395D02*
X43482476Y-18981585D01*
X43482476Y-18981585D02*
X43601524Y-18981585D01*
X43601524Y-18981585D02*
X43649143Y-19005395D01*
X43649143Y-19005395D02*
X43672952Y-19029204D01*
X43672952Y-19029204D02*
X43696762Y-19076823D01*
X43696762Y-19076823D02*
X43696762Y-19195871D01*
X43696762Y-19195871D02*
X43672952Y-19243490D01*
X43672952Y-19243490D02*
X43649143Y-19267300D01*
X43649143Y-19267300D02*
X43601524Y-19291109D01*
X43601524Y-19291109D02*
X43482476Y-19291109D01*
X43482476Y-19291109D02*
X43434857Y-19267300D01*
X43434857Y-19267300D02*
X43411048Y-19243490D01*
D10*
X2881266Y27708809D02*
X2857457Y27685000D01*
X2857457Y27685000D02*
X2786028Y27661190D01*
X2786028Y27661190D02*
X2738409Y27661190D01*
X2738409Y27661190D02*
X2666981Y27685000D01*
X2666981Y27685000D02*
X2619362Y27732619D01*
X2619362Y27732619D02*
X2595552Y27780238D01*
X2595552Y27780238D02*
X2571743Y27875476D01*
X2571743Y27875476D02*
X2571743Y27946904D01*
X2571743Y27946904D02*
X2595552Y28042142D01*
X2595552Y28042142D02*
X2619362Y28089761D01*
X2619362Y28089761D02*
X2666981Y28137380D01*
X2666981Y28137380D02*
X2738409Y28161190D01*
X2738409Y28161190D02*
X2786028Y28161190D01*
X2786028Y28161190D02*
X2857457Y28137380D01*
X2857457Y28137380D02*
X2881266Y28113571D01*
X3357457Y27661190D02*
X3071743Y27661190D01*
X3214600Y27661190D02*
X3214600Y28161190D01*
X3214600Y28161190D02*
X3166981Y28089761D01*
X3166981Y28089761D02*
X3119362Y28042142D01*
X3119362Y28042142D02*
X3071743Y28018333D01*
X27994380Y14513571D02*
X27946761Y14537380D01*
X27946761Y14537380D02*
X27899142Y14585000D01*
X27899142Y14585000D02*
X27827714Y14656428D01*
X27827714Y14656428D02*
X27780095Y14680238D01*
X27780095Y14680238D02*
X27732476Y14680238D01*
X27756285Y14561190D02*
X27708666Y14585000D01*
X27708666Y14585000D02*
X27661047Y14632619D01*
X27661047Y14632619D02*
X27637238Y14727857D01*
X27637238Y14727857D02*
X27637238Y14894523D01*
X27637238Y14894523D02*
X27661047Y14989761D01*
X27661047Y14989761D02*
X27708666Y15037380D01*
X27708666Y15037380D02*
X27756285Y15061190D01*
X27756285Y15061190D02*
X27851523Y15061190D01*
X27851523Y15061190D02*
X27899142Y15037380D01*
X27899142Y15037380D02*
X27946761Y14989761D01*
X27946761Y14989761D02*
X27970571Y14894523D01*
X27970571Y14894523D02*
X27970571Y14727857D01*
X27970571Y14727857D02*
X27946761Y14632619D01*
X27946761Y14632619D02*
X27899142Y14585000D01*
X27899142Y14585000D02*
X27851523Y14561190D01*
X27851523Y14561190D02*
X27756285Y14561190D01*
X28399143Y14894523D02*
X28399143Y14561190D01*
X28280095Y15085000D02*
X28161048Y14727857D01*
X28161048Y14727857D02*
X28470571Y14727857D01*
X31194380Y10213571D02*
X31146761Y10237380D01*
X31146761Y10237380D02*
X31099142Y10285000D01*
X31099142Y10285000D02*
X31027714Y10356428D01*
X31027714Y10356428D02*
X30980095Y10380238D01*
X30980095Y10380238D02*
X30932476Y10380238D01*
X30956285Y10261190D02*
X30908666Y10285000D01*
X30908666Y10285000D02*
X30861047Y10332619D01*
X30861047Y10332619D02*
X30837238Y10427857D01*
X30837238Y10427857D02*
X30837238Y10594523D01*
X30837238Y10594523D02*
X30861047Y10689761D01*
X30861047Y10689761D02*
X30908666Y10737380D01*
X30908666Y10737380D02*
X30956285Y10761190D01*
X30956285Y10761190D02*
X31051523Y10761190D01*
X31051523Y10761190D02*
X31099142Y10737380D01*
X31099142Y10737380D02*
X31146761Y10689761D01*
X31146761Y10689761D02*
X31170571Y10594523D01*
X31170571Y10594523D02*
X31170571Y10427857D01*
X31170571Y10427857D02*
X31146761Y10332619D01*
X31146761Y10332619D02*
X31099142Y10285000D01*
X31099142Y10285000D02*
X31051523Y10261190D01*
X31051523Y10261190D02*
X30956285Y10261190D01*
X31599143Y10761190D02*
X31503905Y10761190D01*
X31503905Y10761190D02*
X31456286Y10737380D01*
X31456286Y10737380D02*
X31432476Y10713571D01*
X31432476Y10713571D02*
X31384857Y10642142D01*
X31384857Y10642142D02*
X31361048Y10546904D01*
X31361048Y10546904D02*
X31361048Y10356428D01*
X31361048Y10356428D02*
X31384857Y10308809D01*
X31384857Y10308809D02*
X31408667Y10285000D01*
X31408667Y10285000D02*
X31456286Y10261190D01*
X31456286Y10261190D02*
X31551524Y10261190D01*
X31551524Y10261190D02*
X31599143Y10285000D01*
X31599143Y10285000D02*
X31622952Y10308809D01*
X31622952Y10308809D02*
X31646762Y10356428D01*
X31646762Y10356428D02*
X31646762Y10475476D01*
X31646762Y10475476D02*
X31622952Y10523095D01*
X31622952Y10523095D02*
X31599143Y10546904D01*
X31599143Y10546904D02*
X31551524Y10570714D01*
X31551524Y10570714D02*
X31456286Y10570714D01*
X31456286Y10570714D02*
X31408667Y10546904D01*
X31408667Y10546904D02*
X31384857Y10523095D01*
X31384857Y10523095D02*
X31361048Y10475476D01*
X30258666Y17308809D02*
X30234857Y17285000D01*
X30234857Y17285000D02*
X30163428Y17261190D01*
X30163428Y17261190D02*
X30115809Y17261190D01*
X30115809Y17261190D02*
X30044381Y17285000D01*
X30044381Y17285000D02*
X29996762Y17332619D01*
X29996762Y17332619D02*
X29972952Y17380238D01*
X29972952Y17380238D02*
X29949143Y17475476D01*
X29949143Y17475476D02*
X29949143Y17546904D01*
X29949143Y17546904D02*
X29972952Y17642142D01*
X29972952Y17642142D02*
X29996762Y17689761D01*
X29996762Y17689761D02*
X30044381Y17737380D01*
X30044381Y17737380D02*
X30115809Y17761190D01*
X30115809Y17761190D02*
X30163428Y17761190D01*
X30163428Y17761190D02*
X30234857Y17737380D01*
X30234857Y17737380D02*
X30258666Y17713571D01*
X30425333Y17761190D02*
X30734857Y17761190D01*
X30734857Y17761190D02*
X30568190Y17570714D01*
X30568190Y17570714D02*
X30639619Y17570714D01*
X30639619Y17570714D02*
X30687238Y17546904D01*
X30687238Y17546904D02*
X30711047Y17523095D01*
X30711047Y17523095D02*
X30734857Y17475476D01*
X30734857Y17475476D02*
X30734857Y17356428D01*
X30734857Y17356428D02*
X30711047Y17308809D01*
X30711047Y17308809D02*
X30687238Y17285000D01*
X30687238Y17285000D02*
X30639619Y17261190D01*
X30639619Y17261190D02*
X30496762Y17261190D01*
X30496762Y17261190D02*
X30449143Y17285000D01*
X30449143Y17285000D02*
X30425333Y17308809D01*
X65366809Y3764571D02*
X65128714Y3597905D01*
X65366809Y3478857D02*
X64866809Y3478857D01*
X64866809Y3478857D02*
X64866809Y3669333D01*
X64866809Y3669333D02*
X64890619Y3716952D01*
X64890619Y3716952D02*
X64914428Y3740762D01*
X64914428Y3740762D02*
X64962047Y3764571D01*
X64962047Y3764571D02*
X65033476Y3764571D01*
X65033476Y3764571D02*
X65081095Y3740762D01*
X65081095Y3740762D02*
X65104904Y3716952D01*
X65104904Y3716952D02*
X65128714Y3669333D01*
X65128714Y3669333D02*
X65128714Y3478857D01*
X65366809Y4240762D02*
X65366809Y3955048D01*
X65366809Y4097905D02*
X64866809Y4097905D01*
X64866809Y4097905D02*
X64938238Y4050286D01*
X64938238Y4050286D02*
X64985857Y4002667D01*
X64985857Y4002667D02*
X65009666Y3955048D01*
X64914428Y4431238D02*
X64890619Y4455047D01*
X64890619Y4455047D02*
X64866809Y4502666D01*
X64866809Y4502666D02*
X64866809Y4621714D01*
X64866809Y4621714D02*
X64890619Y4669333D01*
X64890619Y4669333D02*
X64914428Y4693142D01*
X64914428Y4693142D02*
X64962047Y4716952D01*
X64962047Y4716952D02*
X65009666Y4716952D01*
X65009666Y4716952D02*
X65081095Y4693142D01*
X65081095Y4693142D02*
X65366809Y4407428D01*
X65366809Y4407428D02*
X65366809Y4716952D01*
X8058666Y9461190D02*
X7892000Y9699285D01*
X7772952Y9461190D02*
X7772952Y9961190D01*
X7772952Y9961190D02*
X7963428Y9961190D01*
X7963428Y9961190D02*
X8011047Y9937380D01*
X8011047Y9937380D02*
X8034857Y9913571D01*
X8034857Y9913571D02*
X8058666Y9865952D01*
X8058666Y9865952D02*
X8058666Y9794523D01*
X8058666Y9794523D02*
X8034857Y9746904D01*
X8034857Y9746904D02*
X8011047Y9723095D01*
X8011047Y9723095D02*
X7963428Y9699285D01*
X7963428Y9699285D02*
X7772952Y9699285D01*
X8225333Y9961190D02*
X8534857Y9961190D01*
X8534857Y9961190D02*
X8368190Y9770714D01*
X8368190Y9770714D02*
X8439619Y9770714D01*
X8439619Y9770714D02*
X8487238Y9746904D01*
X8487238Y9746904D02*
X8511047Y9723095D01*
X8511047Y9723095D02*
X8534857Y9675476D01*
X8534857Y9675476D02*
X8534857Y9556428D01*
X8534857Y9556428D02*
X8511047Y9508809D01*
X8511047Y9508809D02*
X8487238Y9485000D01*
X8487238Y9485000D02*
X8439619Y9461190D01*
X8439619Y9461190D02*
X8296762Y9461190D01*
X8296762Y9461190D02*
X8249143Y9485000D01*
X8249143Y9485000D02*
X8225333Y9508809D01*
X34266809Y8919333D02*
X34623952Y8919333D01*
X34623952Y8919333D02*
X34695380Y8895524D01*
X34695380Y8895524D02*
X34743000Y8847905D01*
X34743000Y8847905D02*
X34766809Y8776476D01*
X34766809Y8776476D02*
X34766809Y8728857D01*
X34266809Y9109809D02*
X34266809Y9419333D01*
X34266809Y9419333D02*
X34457285Y9252666D01*
X34457285Y9252666D02*
X34457285Y9324095D01*
X34457285Y9324095D02*
X34481095Y9371714D01*
X34481095Y9371714D02*
X34504904Y9395523D01*
X34504904Y9395523D02*
X34552523Y9419333D01*
X34552523Y9419333D02*
X34671571Y9419333D01*
X34671571Y9419333D02*
X34719190Y9395523D01*
X34719190Y9395523D02*
X34743000Y9371714D01*
X34743000Y9371714D02*
X34766809Y9324095D01*
X34766809Y9324095D02*
X34766809Y9181238D01*
X34766809Y9181238D02*
X34743000Y9133619D01*
X34743000Y9133619D02*
X34719190Y9109809D01*
X9499857Y-60038809D02*
X9499857Y-59538809D01*
X9499857Y-59538809D02*
X9618905Y-59538809D01*
X9618905Y-59538809D02*
X9690333Y-59562619D01*
X9690333Y-59562619D02*
X9737952Y-59610238D01*
X9737952Y-59610238D02*
X9761762Y-59657857D01*
X9761762Y-59657857D02*
X9785571Y-59753095D01*
X9785571Y-59753095D02*
X9785571Y-59824523D01*
X9785571Y-59824523D02*
X9761762Y-59919761D01*
X9761762Y-59919761D02*
X9737952Y-59967380D01*
X9737952Y-59967380D02*
X9690333Y-60015000D01*
X9690333Y-60015000D02*
X9618905Y-60038809D01*
X9618905Y-60038809D02*
X9499857Y-60038809D01*
X9952238Y-59538809D02*
X10261762Y-59538809D01*
X10261762Y-59538809D02*
X10095095Y-59729285D01*
X10095095Y-59729285D02*
X10166524Y-59729285D01*
X10166524Y-59729285D02*
X10214143Y-59753095D01*
X10214143Y-59753095D02*
X10237952Y-59776904D01*
X10237952Y-59776904D02*
X10261762Y-59824523D01*
X10261762Y-59824523D02*
X10261762Y-59943571D01*
X10261762Y-59943571D02*
X10237952Y-59991190D01*
X10237952Y-59991190D02*
X10214143Y-60015000D01*
X10214143Y-60015000D02*
X10166524Y-60038809D01*
X10166524Y-60038809D02*
X10023667Y-60038809D01*
X10023667Y-60038809D02*
X9976048Y-60015000D01*
X9976048Y-60015000D02*
X9952238Y-59991190D01*
X10737952Y-60038809D02*
X10452238Y-60038809D01*
X10595095Y-60038809D02*
X10595095Y-59538809D01*
X10595095Y-59538809D02*
X10547476Y-59610238D01*
X10547476Y-59610238D02*
X10499857Y-59657857D01*
X10499857Y-59657857D02*
X10452238Y-59681666D01*
X47749857Y-3138809D02*
X47749857Y-2638809D01*
X47749857Y-2638809D02*
X47868905Y-2638809D01*
X47868905Y-2638809D02*
X47940333Y-2662619D01*
X47940333Y-2662619D02*
X47987952Y-2710238D01*
X47987952Y-2710238D02*
X48011762Y-2757857D01*
X48011762Y-2757857D02*
X48035571Y-2853095D01*
X48035571Y-2853095D02*
X48035571Y-2924523D01*
X48035571Y-2924523D02*
X48011762Y-3019761D01*
X48011762Y-3019761D02*
X47987952Y-3067380D01*
X47987952Y-3067380D02*
X47940333Y-3115000D01*
X47940333Y-3115000D02*
X47868905Y-3138809D01*
X47868905Y-3138809D02*
X47749857Y-3138809D01*
X48464143Y-2805476D02*
X48464143Y-3138809D01*
X48345095Y-2615000D02*
X48226048Y-2972142D01*
X48226048Y-2972142D02*
X48535571Y-2972142D01*
X48964142Y-2638809D02*
X48726047Y-2638809D01*
X48726047Y-2638809D02*
X48702238Y-2876904D01*
X48702238Y-2876904D02*
X48726047Y-2853095D01*
X48726047Y-2853095D02*
X48773666Y-2829285D01*
X48773666Y-2829285D02*
X48892714Y-2829285D01*
X48892714Y-2829285D02*
X48940333Y-2853095D01*
X48940333Y-2853095D02*
X48964142Y-2876904D01*
X48964142Y-2876904D02*
X48987952Y-2924523D01*
X48987952Y-2924523D02*
X48987952Y-3043571D01*
X48987952Y-3043571D02*
X48964142Y-3091190D01*
X48964142Y-3091190D02*
X48940333Y-3115000D01*
X48940333Y-3115000D02*
X48892714Y-3138809D01*
X48892714Y-3138809D02*
X48773666Y-3138809D01*
X48773666Y-3138809D02*
X48726047Y-3115000D01*
X48726047Y-3115000D02*
X48702238Y-3091190D01*
X9749857Y-22138809D02*
X9749857Y-21638809D01*
X9749857Y-21638809D02*
X9868905Y-21638809D01*
X9868905Y-21638809D02*
X9940333Y-21662619D01*
X9940333Y-21662619D02*
X9987952Y-21710238D01*
X9987952Y-21710238D02*
X10011762Y-21757857D01*
X10011762Y-21757857D02*
X10035571Y-21853095D01*
X10035571Y-21853095D02*
X10035571Y-21924523D01*
X10035571Y-21924523D02*
X10011762Y-22019761D01*
X10011762Y-22019761D02*
X9987952Y-22067380D01*
X9987952Y-22067380D02*
X9940333Y-22115000D01*
X9940333Y-22115000D02*
X9868905Y-22138809D01*
X9868905Y-22138809D02*
X9749857Y-22138809D01*
X10202238Y-21638809D02*
X10511762Y-21638809D01*
X10511762Y-21638809D02*
X10345095Y-21829285D01*
X10345095Y-21829285D02*
X10416524Y-21829285D01*
X10416524Y-21829285D02*
X10464143Y-21853095D01*
X10464143Y-21853095D02*
X10487952Y-21876904D01*
X10487952Y-21876904D02*
X10511762Y-21924523D01*
X10511762Y-21924523D02*
X10511762Y-22043571D01*
X10511762Y-22043571D02*
X10487952Y-22091190D01*
X10487952Y-22091190D02*
X10464143Y-22115000D01*
X10464143Y-22115000D02*
X10416524Y-22138809D01*
X10416524Y-22138809D02*
X10273667Y-22138809D01*
X10273667Y-22138809D02*
X10226048Y-22115000D01*
X10226048Y-22115000D02*
X10202238Y-22091190D01*
X10749857Y-22138809D02*
X10845095Y-22138809D01*
X10845095Y-22138809D02*
X10892714Y-22115000D01*
X10892714Y-22115000D02*
X10916523Y-22091190D01*
X10916523Y-22091190D02*
X10964142Y-22019761D01*
X10964142Y-22019761D02*
X10987952Y-21924523D01*
X10987952Y-21924523D02*
X10987952Y-21734047D01*
X10987952Y-21734047D02*
X10964142Y-21686428D01*
X10964142Y-21686428D02*
X10940333Y-21662619D01*
X10940333Y-21662619D02*
X10892714Y-21638809D01*
X10892714Y-21638809D02*
X10797476Y-21638809D01*
X10797476Y-21638809D02*
X10749857Y-21662619D01*
X10749857Y-21662619D02*
X10726047Y-21686428D01*
X10726047Y-21686428D02*
X10702238Y-21734047D01*
X10702238Y-21734047D02*
X10702238Y-21853095D01*
X10702238Y-21853095D02*
X10726047Y-21900714D01*
X10726047Y-21900714D02*
X10749857Y-21924523D01*
X10749857Y-21924523D02*
X10797476Y-21948333D01*
X10797476Y-21948333D02*
X10892714Y-21948333D01*
X10892714Y-21948333D02*
X10940333Y-21924523D01*
X10940333Y-21924523D02*
X10964142Y-21900714D01*
X10964142Y-21900714D02*
X10987952Y-21853095D01*
D11*
X22837239Y-38316300D02*
X22908667Y-38340109D01*
X22908667Y-38340109D02*
X23027715Y-38340109D01*
X23027715Y-38340109D02*
X23075334Y-38316300D01*
X23075334Y-38316300D02*
X23099143Y-38292490D01*
X23099143Y-38292490D02*
X23122953Y-38244871D01*
X23122953Y-38244871D02*
X23122953Y-38197252D01*
X23122953Y-38197252D02*
X23099143Y-38149633D01*
X23099143Y-38149633D02*
X23075334Y-38125823D01*
X23075334Y-38125823D02*
X23027715Y-38102014D01*
X23027715Y-38102014D02*
X22932477Y-38078204D01*
X22932477Y-38078204D02*
X22884858Y-38054395D01*
X22884858Y-38054395D02*
X22861048Y-38030585D01*
X22861048Y-38030585D02*
X22837239Y-37982966D01*
X22837239Y-37982966D02*
X22837239Y-37935347D01*
X22837239Y-37935347D02*
X22861048Y-37887728D01*
X22861048Y-37887728D02*
X22884858Y-37863919D01*
X22884858Y-37863919D02*
X22932477Y-37840109D01*
X22932477Y-37840109D02*
X23051524Y-37840109D01*
X23051524Y-37840109D02*
X23122953Y-37863919D01*
X23289619Y-37840109D02*
X23408667Y-38340109D01*
X23408667Y-38340109D02*
X23503905Y-37982966D01*
X23503905Y-37982966D02*
X23599143Y-38340109D01*
X23599143Y-38340109D02*
X23718191Y-37840109D01*
X24170572Y-38340109D02*
X23884858Y-38340109D01*
X24027715Y-38340109D02*
X24027715Y-37840109D01*
X24027715Y-37840109D02*
X23980096Y-37911538D01*
X23980096Y-37911538D02*
X23932477Y-37959157D01*
X23932477Y-37959157D02*
X23884858Y-37982966D01*
X24480095Y-37840109D02*
X24527714Y-37840109D01*
X24527714Y-37840109D02*
X24575333Y-37863919D01*
X24575333Y-37863919D02*
X24599143Y-37887728D01*
X24599143Y-37887728D02*
X24622952Y-37935347D01*
X24622952Y-37935347D02*
X24646762Y-38030585D01*
X24646762Y-38030585D02*
X24646762Y-38149633D01*
X24646762Y-38149633D02*
X24622952Y-38244871D01*
X24622952Y-38244871D02*
X24599143Y-38292490D01*
X24599143Y-38292490D02*
X24575333Y-38316300D01*
X24575333Y-38316300D02*
X24527714Y-38340109D01*
X24527714Y-38340109D02*
X24480095Y-38340109D01*
X24480095Y-38340109D02*
X24432476Y-38316300D01*
X24432476Y-38316300D02*
X24408667Y-38292490D01*
X24408667Y-38292490D02*
X24384857Y-38244871D01*
X24384857Y-38244871D02*
X24361048Y-38149633D01*
X24361048Y-38149633D02*
X24361048Y-38030585D01*
X24361048Y-38030585D02*
X24384857Y-37935347D01*
X24384857Y-37935347D02*
X24408667Y-37887728D01*
X24408667Y-37887728D02*
X24432476Y-37863919D01*
X24432476Y-37863919D02*
X24480095Y-37840109D01*
X22837239Y-19267300D02*
X22908667Y-19291109D01*
X22908667Y-19291109D02*
X23027715Y-19291109D01*
X23027715Y-19291109D02*
X23075334Y-19267300D01*
X23075334Y-19267300D02*
X23099143Y-19243490D01*
X23099143Y-19243490D02*
X23122953Y-19195871D01*
X23122953Y-19195871D02*
X23122953Y-19148252D01*
X23122953Y-19148252D02*
X23099143Y-19100633D01*
X23099143Y-19100633D02*
X23075334Y-19076823D01*
X23075334Y-19076823D02*
X23027715Y-19053014D01*
X23027715Y-19053014D02*
X22932477Y-19029204D01*
X22932477Y-19029204D02*
X22884858Y-19005395D01*
X22884858Y-19005395D02*
X22861048Y-18981585D01*
X22861048Y-18981585D02*
X22837239Y-18933966D01*
X22837239Y-18933966D02*
X22837239Y-18886347D01*
X22837239Y-18886347D02*
X22861048Y-18838728D01*
X22861048Y-18838728D02*
X22884858Y-18814919D01*
X22884858Y-18814919D02*
X22932477Y-18791109D01*
X22932477Y-18791109D02*
X23051524Y-18791109D01*
X23051524Y-18791109D02*
X23122953Y-18814919D01*
X23289619Y-18791109D02*
X23408667Y-19291109D01*
X23408667Y-19291109D02*
X23503905Y-18933966D01*
X23503905Y-18933966D02*
X23599143Y-19291109D01*
X23599143Y-19291109D02*
X23718191Y-18791109D01*
X24170572Y-19291109D02*
X23884858Y-19291109D01*
X24027715Y-19291109D02*
X24027715Y-18791109D01*
X24027715Y-18791109D02*
X23980096Y-18862538D01*
X23980096Y-18862538D02*
X23932477Y-18910157D01*
X23932477Y-18910157D02*
X23884858Y-18933966D01*
X24599143Y-18957776D02*
X24599143Y-19291109D01*
X24480095Y-18767300D02*
X24361048Y-19124442D01*
X24361048Y-19124442D02*
X24670571Y-19124442D01*
D10*
X19975333Y25961190D02*
X19975333Y25604047D01*
X19975333Y25604047D02*
X19951524Y25532619D01*
X19951524Y25532619D02*
X19903905Y25485000D01*
X19903905Y25485000D02*
X19832476Y25461190D01*
X19832476Y25461190D02*
X19784857Y25461190D01*
X20475333Y25461190D02*
X20189619Y25461190D01*
X20332476Y25461190D02*
X20332476Y25961190D01*
X20332476Y25961190D02*
X20284857Y25889761D01*
X20284857Y25889761D02*
X20237238Y25842142D01*
X20237238Y25842142D02*
X20189619Y25818333D01*
X11858666Y18708809D02*
X11834857Y18685000D01*
X11834857Y18685000D02*
X11763428Y18661190D01*
X11763428Y18661190D02*
X11715809Y18661190D01*
X11715809Y18661190D02*
X11644381Y18685000D01*
X11644381Y18685000D02*
X11596762Y18732619D01*
X11596762Y18732619D02*
X11572952Y18780238D01*
X11572952Y18780238D02*
X11549143Y18875476D01*
X11549143Y18875476D02*
X11549143Y18946904D01*
X11549143Y18946904D02*
X11572952Y19042142D01*
X11572952Y19042142D02*
X11596762Y19089761D01*
X11596762Y19089761D02*
X11644381Y19137380D01*
X11644381Y19137380D02*
X11715809Y19161190D01*
X11715809Y19161190D02*
X11763428Y19161190D01*
X11763428Y19161190D02*
X11834857Y19137380D01*
X11834857Y19137380D02*
X11858666Y19113571D01*
X12049143Y19113571D02*
X12072952Y19137380D01*
X12072952Y19137380D02*
X12120571Y19161190D01*
X12120571Y19161190D02*
X12239619Y19161190D01*
X12239619Y19161190D02*
X12287238Y19137380D01*
X12287238Y19137380D02*
X12311047Y19113571D01*
X12311047Y19113571D02*
X12334857Y19065952D01*
X12334857Y19065952D02*
X12334857Y19018333D01*
X12334857Y19018333D02*
X12311047Y18946904D01*
X12311047Y18946904D02*
X12025333Y18661190D01*
X12025333Y18661190D02*
X12334857Y18661190D01*
X67766809Y3278857D02*
X67266809Y3278857D01*
X67266809Y3278857D02*
X67266809Y3397905D01*
X67266809Y3397905D02*
X67290619Y3469333D01*
X67290619Y3469333D02*
X67338238Y3516952D01*
X67338238Y3516952D02*
X67385857Y3540762D01*
X67385857Y3540762D02*
X67481095Y3564571D01*
X67481095Y3564571D02*
X67552523Y3564571D01*
X67552523Y3564571D02*
X67647761Y3540762D01*
X67647761Y3540762D02*
X67695380Y3516952D01*
X67695380Y3516952D02*
X67743000Y3469333D01*
X67743000Y3469333D02*
X67766809Y3397905D01*
X67766809Y3397905D02*
X67766809Y3278857D01*
X67314428Y3755048D02*
X67290619Y3778857D01*
X67290619Y3778857D02*
X67266809Y3826476D01*
X67266809Y3826476D02*
X67266809Y3945524D01*
X67266809Y3945524D02*
X67290619Y3993143D01*
X67290619Y3993143D02*
X67314428Y4016952D01*
X67314428Y4016952D02*
X67362047Y4040762D01*
X67362047Y4040762D02*
X67409666Y4040762D01*
X67409666Y4040762D02*
X67481095Y4016952D01*
X67481095Y4016952D02*
X67766809Y3731238D01*
X67766809Y3731238D02*
X67766809Y4040762D01*
X67314428Y4231238D02*
X67290619Y4255047D01*
X67290619Y4255047D02*
X67266809Y4302666D01*
X67266809Y4302666D02*
X67266809Y4421714D01*
X67266809Y4421714D02*
X67290619Y4469333D01*
X67290619Y4469333D02*
X67314428Y4493142D01*
X67314428Y4493142D02*
X67362047Y4516952D01*
X67362047Y4516952D02*
X67409666Y4516952D01*
X67409666Y4516952D02*
X67481095Y4493142D01*
X67481095Y4493142D02*
X67766809Y4207428D01*
X67766809Y4207428D02*
X67766809Y4516952D01*
X28499857Y-60138809D02*
X28499857Y-59638809D01*
X28499857Y-59638809D02*
X28618905Y-59638809D01*
X28618905Y-59638809D02*
X28690333Y-59662619D01*
X28690333Y-59662619D02*
X28737952Y-59710238D01*
X28737952Y-59710238D02*
X28761762Y-59757857D01*
X28761762Y-59757857D02*
X28785571Y-59853095D01*
X28785571Y-59853095D02*
X28785571Y-59924523D01*
X28785571Y-59924523D02*
X28761762Y-60019761D01*
X28761762Y-60019761D02*
X28737952Y-60067380D01*
X28737952Y-60067380D02*
X28690333Y-60115000D01*
X28690333Y-60115000D02*
X28618905Y-60138809D01*
X28618905Y-60138809D02*
X28499857Y-60138809D01*
X28952238Y-59638809D02*
X29261762Y-59638809D01*
X29261762Y-59638809D02*
X29095095Y-59829285D01*
X29095095Y-59829285D02*
X29166524Y-59829285D01*
X29166524Y-59829285D02*
X29214143Y-59853095D01*
X29214143Y-59853095D02*
X29237952Y-59876904D01*
X29237952Y-59876904D02*
X29261762Y-59924523D01*
X29261762Y-59924523D02*
X29261762Y-60043571D01*
X29261762Y-60043571D02*
X29237952Y-60091190D01*
X29237952Y-60091190D02*
X29214143Y-60115000D01*
X29214143Y-60115000D02*
X29166524Y-60138809D01*
X29166524Y-60138809D02*
X29023667Y-60138809D01*
X29023667Y-60138809D02*
X28976048Y-60115000D01*
X28976048Y-60115000D02*
X28952238Y-60091190D01*
X29452238Y-59686428D02*
X29476047Y-59662619D01*
X29476047Y-59662619D02*
X29523666Y-59638809D01*
X29523666Y-59638809D02*
X29642714Y-59638809D01*
X29642714Y-59638809D02*
X29690333Y-59662619D01*
X29690333Y-59662619D02*
X29714142Y-59686428D01*
X29714142Y-59686428D02*
X29737952Y-59734047D01*
X29737952Y-59734047D02*
X29737952Y-59781666D01*
X29737952Y-59781666D02*
X29714142Y-59853095D01*
X29714142Y-59853095D02*
X29428428Y-60138809D01*
X29428428Y-60138809D02*
X29737952Y-60138809D01*
X66749857Y-79038809D02*
X66749857Y-78538809D01*
X66749857Y-78538809D02*
X66868905Y-78538809D01*
X66868905Y-78538809D02*
X66940333Y-78562619D01*
X66940333Y-78562619D02*
X66987952Y-78610238D01*
X66987952Y-78610238D02*
X67011762Y-78657857D01*
X67011762Y-78657857D02*
X67035571Y-78753095D01*
X67035571Y-78753095D02*
X67035571Y-78824523D01*
X67035571Y-78824523D02*
X67011762Y-78919761D01*
X67011762Y-78919761D02*
X66987952Y-78967380D01*
X66987952Y-78967380D02*
X66940333Y-79015000D01*
X66940333Y-79015000D02*
X66868905Y-79038809D01*
X66868905Y-79038809D02*
X66749857Y-79038809D01*
X67202238Y-78538809D02*
X67511762Y-78538809D01*
X67511762Y-78538809D02*
X67345095Y-78729285D01*
X67345095Y-78729285D02*
X67416524Y-78729285D01*
X67416524Y-78729285D02*
X67464143Y-78753095D01*
X67464143Y-78753095D02*
X67487952Y-78776904D01*
X67487952Y-78776904D02*
X67511762Y-78824523D01*
X67511762Y-78824523D02*
X67511762Y-78943571D01*
X67511762Y-78943571D02*
X67487952Y-78991190D01*
X67487952Y-78991190D02*
X67464143Y-79015000D01*
X67464143Y-79015000D02*
X67416524Y-79038809D01*
X67416524Y-79038809D02*
X67273667Y-79038809D01*
X67273667Y-79038809D02*
X67226048Y-79015000D01*
X67226048Y-79015000D02*
X67202238Y-78991190D01*
X67821285Y-78538809D02*
X67868904Y-78538809D01*
X67868904Y-78538809D02*
X67916523Y-78562619D01*
X67916523Y-78562619D02*
X67940333Y-78586428D01*
X67940333Y-78586428D02*
X67964142Y-78634047D01*
X67964142Y-78634047D02*
X67987952Y-78729285D01*
X67987952Y-78729285D02*
X67987952Y-78848333D01*
X67987952Y-78848333D02*
X67964142Y-78943571D01*
X67964142Y-78943571D02*
X67940333Y-78991190D01*
X67940333Y-78991190D02*
X67916523Y-79015000D01*
X67916523Y-79015000D02*
X67868904Y-79038809D01*
X67868904Y-79038809D02*
X67821285Y-79038809D01*
X67821285Y-79038809D02*
X67773666Y-79015000D01*
X67773666Y-79015000D02*
X67749857Y-78991190D01*
X67749857Y-78991190D02*
X67726047Y-78943571D01*
X67726047Y-78943571D02*
X67702238Y-78848333D01*
X67702238Y-78848333D02*
X67702238Y-78729285D01*
X67702238Y-78729285D02*
X67726047Y-78634047D01*
X67726047Y-78634047D02*
X67749857Y-78586428D01*
X67749857Y-78586428D02*
X67773666Y-78562619D01*
X67773666Y-78562619D02*
X67821285Y-78538809D01*
D11*
X41969239Y-38316300D02*
X42040667Y-38340109D01*
X42040667Y-38340109D02*
X42159715Y-38340109D01*
X42159715Y-38340109D02*
X42207334Y-38316300D01*
X42207334Y-38316300D02*
X42231143Y-38292490D01*
X42231143Y-38292490D02*
X42254953Y-38244871D01*
X42254953Y-38244871D02*
X42254953Y-38197252D01*
X42254953Y-38197252D02*
X42231143Y-38149633D01*
X42231143Y-38149633D02*
X42207334Y-38125823D01*
X42207334Y-38125823D02*
X42159715Y-38102014D01*
X42159715Y-38102014D02*
X42064477Y-38078204D01*
X42064477Y-38078204D02*
X42016858Y-38054395D01*
X42016858Y-38054395D02*
X41993048Y-38030585D01*
X41993048Y-38030585D02*
X41969239Y-37982966D01*
X41969239Y-37982966D02*
X41969239Y-37935347D01*
X41969239Y-37935347D02*
X41993048Y-37887728D01*
X41993048Y-37887728D02*
X42016858Y-37863919D01*
X42016858Y-37863919D02*
X42064477Y-37840109D01*
X42064477Y-37840109D02*
X42183524Y-37840109D01*
X42183524Y-37840109D02*
X42254953Y-37863919D01*
X42421619Y-37840109D02*
X42540667Y-38340109D01*
X42540667Y-38340109D02*
X42635905Y-37982966D01*
X42635905Y-37982966D02*
X42731143Y-38340109D01*
X42731143Y-38340109D02*
X42850191Y-37840109D01*
X43302572Y-38340109D02*
X43016858Y-38340109D01*
X43159715Y-38340109D02*
X43159715Y-37840109D01*
X43159715Y-37840109D02*
X43112096Y-37911538D01*
X43112096Y-37911538D02*
X43064477Y-37959157D01*
X43064477Y-37959157D02*
X43016858Y-37982966D01*
X43778762Y-38340109D02*
X43493048Y-38340109D01*
X43635905Y-38340109D02*
X43635905Y-37840109D01*
X43635905Y-37840109D02*
X43588286Y-37911538D01*
X43588286Y-37911538D02*
X43540667Y-37959157D01*
X43540667Y-37959157D02*
X43493048Y-37982966D01*
D10*
X32858666Y3708809D02*
X32834857Y3685000D01*
X32834857Y3685000D02*
X32763428Y3661190D01*
X32763428Y3661190D02*
X32715809Y3661190D01*
X32715809Y3661190D02*
X32644381Y3685000D01*
X32644381Y3685000D02*
X32596762Y3732619D01*
X32596762Y3732619D02*
X32572952Y3780238D01*
X32572952Y3780238D02*
X32549143Y3875476D01*
X32549143Y3875476D02*
X32549143Y3946904D01*
X32549143Y3946904D02*
X32572952Y4042142D01*
X32572952Y4042142D02*
X32596762Y4089761D01*
X32596762Y4089761D02*
X32644381Y4137380D01*
X32644381Y4137380D02*
X32715809Y4161190D01*
X32715809Y4161190D02*
X32763428Y4161190D01*
X32763428Y4161190D02*
X32834857Y4137380D01*
X32834857Y4137380D02*
X32858666Y4113571D01*
X33311047Y4161190D02*
X33072952Y4161190D01*
X33072952Y4161190D02*
X33049143Y3923095D01*
X33049143Y3923095D02*
X33072952Y3946904D01*
X33072952Y3946904D02*
X33120571Y3970714D01*
X33120571Y3970714D02*
X33239619Y3970714D01*
X33239619Y3970714D02*
X33287238Y3946904D01*
X33287238Y3946904D02*
X33311047Y3923095D01*
X33311047Y3923095D02*
X33334857Y3875476D01*
X33334857Y3875476D02*
X33334857Y3756428D01*
X33334857Y3756428D02*
X33311047Y3708809D01*
X33311047Y3708809D02*
X33287238Y3685000D01*
X33287238Y3685000D02*
X33239619Y3661190D01*
X33239619Y3661190D02*
X33120571Y3661190D01*
X33120571Y3661190D02*
X33072952Y3685000D01*
X33072952Y3685000D02*
X33049143Y3708809D01*
X47749857Y-60038809D02*
X47749857Y-59538809D01*
X47749857Y-59538809D02*
X47868905Y-59538809D01*
X47868905Y-59538809D02*
X47940333Y-59562619D01*
X47940333Y-59562619D02*
X47987952Y-59610238D01*
X47987952Y-59610238D02*
X48011762Y-59657857D01*
X48011762Y-59657857D02*
X48035571Y-59753095D01*
X48035571Y-59753095D02*
X48035571Y-59824523D01*
X48035571Y-59824523D02*
X48011762Y-59919761D01*
X48011762Y-59919761D02*
X47987952Y-59967380D01*
X47987952Y-59967380D02*
X47940333Y-60015000D01*
X47940333Y-60015000D02*
X47868905Y-60038809D01*
X47868905Y-60038809D02*
X47749857Y-60038809D01*
X48202238Y-59538809D02*
X48511762Y-59538809D01*
X48511762Y-59538809D02*
X48345095Y-59729285D01*
X48345095Y-59729285D02*
X48416524Y-59729285D01*
X48416524Y-59729285D02*
X48464143Y-59753095D01*
X48464143Y-59753095D02*
X48487952Y-59776904D01*
X48487952Y-59776904D02*
X48511762Y-59824523D01*
X48511762Y-59824523D02*
X48511762Y-59943571D01*
X48511762Y-59943571D02*
X48487952Y-59991190D01*
X48487952Y-59991190D02*
X48464143Y-60015000D01*
X48464143Y-60015000D02*
X48416524Y-60038809D01*
X48416524Y-60038809D02*
X48273667Y-60038809D01*
X48273667Y-60038809D02*
X48226048Y-60015000D01*
X48226048Y-60015000D02*
X48202238Y-59991190D01*
X48678428Y-59538809D02*
X48987952Y-59538809D01*
X48987952Y-59538809D02*
X48821285Y-59729285D01*
X48821285Y-59729285D02*
X48892714Y-59729285D01*
X48892714Y-59729285D02*
X48940333Y-59753095D01*
X48940333Y-59753095D02*
X48964142Y-59776904D01*
X48964142Y-59776904D02*
X48987952Y-59824523D01*
X48987952Y-59824523D02*
X48987952Y-59943571D01*
X48987952Y-59943571D02*
X48964142Y-59991190D01*
X48964142Y-59991190D02*
X48940333Y-60015000D01*
X48940333Y-60015000D02*
X48892714Y-60038809D01*
X48892714Y-60038809D02*
X48749857Y-60038809D01*
X48749857Y-60038809D02*
X48702238Y-60015000D01*
X48702238Y-60015000D02*
X48678428Y-59991190D01*
X28584857Y-79038809D02*
X28584857Y-78538809D01*
X28584857Y-78538809D02*
X28703905Y-78538809D01*
X28703905Y-78538809D02*
X28775333Y-78562619D01*
X28775333Y-78562619D02*
X28822952Y-78610238D01*
X28822952Y-78610238D02*
X28846762Y-78657857D01*
X28846762Y-78657857D02*
X28870571Y-78753095D01*
X28870571Y-78753095D02*
X28870571Y-78824523D01*
X28870571Y-78824523D02*
X28846762Y-78919761D01*
X28846762Y-78919761D02*
X28822952Y-78967380D01*
X28822952Y-78967380D02*
X28775333Y-79015000D01*
X28775333Y-79015000D02*
X28703905Y-79038809D01*
X28703905Y-79038809D02*
X28584857Y-79038809D01*
X29061048Y-78586428D02*
X29084857Y-78562619D01*
X29084857Y-78562619D02*
X29132476Y-78538809D01*
X29132476Y-78538809D02*
X29251524Y-78538809D01*
X29251524Y-78538809D02*
X29299143Y-78562619D01*
X29299143Y-78562619D02*
X29322952Y-78586428D01*
X29322952Y-78586428D02*
X29346762Y-78634047D01*
X29346762Y-78634047D02*
X29346762Y-78681666D01*
X29346762Y-78681666D02*
X29322952Y-78753095D01*
X29322952Y-78753095D02*
X29037238Y-79038809D01*
X29037238Y-79038809D02*
X29346762Y-79038809D01*
X29775333Y-78705476D02*
X29775333Y-79038809D01*
X29656285Y-78515000D02*
X29537238Y-78872142D01*
X29537238Y-78872142D02*
X29846761Y-78872142D01*
X9499857Y-3038809D02*
X9499857Y-2538809D01*
X9499857Y-2538809D02*
X9618905Y-2538809D01*
X9618905Y-2538809D02*
X9690333Y-2562619D01*
X9690333Y-2562619D02*
X9737952Y-2610238D01*
X9737952Y-2610238D02*
X9761762Y-2657857D01*
X9761762Y-2657857D02*
X9785571Y-2753095D01*
X9785571Y-2753095D02*
X9785571Y-2824523D01*
X9785571Y-2824523D02*
X9761762Y-2919761D01*
X9761762Y-2919761D02*
X9737952Y-2967380D01*
X9737952Y-2967380D02*
X9690333Y-3015000D01*
X9690333Y-3015000D02*
X9618905Y-3038809D01*
X9618905Y-3038809D02*
X9499857Y-3038809D01*
X10214143Y-2705476D02*
X10214143Y-3038809D01*
X10095095Y-2515000D02*
X9976048Y-2872142D01*
X9976048Y-2872142D02*
X10285571Y-2872142D01*
X10428428Y-2538809D02*
X10737952Y-2538809D01*
X10737952Y-2538809D02*
X10571285Y-2729285D01*
X10571285Y-2729285D02*
X10642714Y-2729285D01*
X10642714Y-2729285D02*
X10690333Y-2753095D01*
X10690333Y-2753095D02*
X10714142Y-2776904D01*
X10714142Y-2776904D02*
X10737952Y-2824523D01*
X10737952Y-2824523D02*
X10737952Y-2943571D01*
X10737952Y-2943571D02*
X10714142Y-2991190D01*
X10714142Y-2991190D02*
X10690333Y-3015000D01*
X10690333Y-3015000D02*
X10642714Y-3038809D01*
X10642714Y-3038809D02*
X10499857Y-3038809D01*
X10499857Y-3038809D02*
X10452238Y-3015000D01*
X10452238Y-3015000D02*
X10428428Y-2991190D01*
D11*
X23042334Y-76417300D02*
X23113762Y-76441109D01*
X23113762Y-76441109D02*
X23232810Y-76441109D01*
X23232810Y-76441109D02*
X23280429Y-76417300D01*
X23280429Y-76417300D02*
X23304238Y-76393490D01*
X23304238Y-76393490D02*
X23328048Y-76345871D01*
X23328048Y-76345871D02*
X23328048Y-76298252D01*
X23328048Y-76298252D02*
X23304238Y-76250633D01*
X23304238Y-76250633D02*
X23280429Y-76226823D01*
X23280429Y-76226823D02*
X23232810Y-76203014D01*
X23232810Y-76203014D02*
X23137572Y-76179204D01*
X23137572Y-76179204D02*
X23089953Y-76155395D01*
X23089953Y-76155395D02*
X23066143Y-76131585D01*
X23066143Y-76131585D02*
X23042334Y-76083966D01*
X23042334Y-76083966D02*
X23042334Y-76036347D01*
X23042334Y-76036347D02*
X23066143Y-75988728D01*
X23066143Y-75988728D02*
X23089953Y-75964919D01*
X23089953Y-75964919D02*
X23137572Y-75941109D01*
X23137572Y-75941109D02*
X23256619Y-75941109D01*
X23256619Y-75941109D02*
X23328048Y-75964919D01*
X23494714Y-75941109D02*
X23613762Y-76441109D01*
X23613762Y-76441109D02*
X23709000Y-76083966D01*
X23709000Y-76083966D02*
X23804238Y-76441109D01*
X23804238Y-76441109D02*
X23923286Y-75941109D01*
X24089953Y-75988728D02*
X24113762Y-75964919D01*
X24113762Y-75964919D02*
X24161381Y-75941109D01*
X24161381Y-75941109D02*
X24280429Y-75941109D01*
X24280429Y-75941109D02*
X24328048Y-75964919D01*
X24328048Y-75964919D02*
X24351857Y-75988728D01*
X24351857Y-75988728D02*
X24375667Y-76036347D01*
X24375667Y-76036347D02*
X24375667Y-76083966D01*
X24375667Y-76083966D02*
X24351857Y-76155395D01*
X24351857Y-76155395D02*
X24066143Y-76441109D01*
X24066143Y-76441109D02*
X24375667Y-76441109D01*
X61064239Y-19267300D02*
X61135667Y-19291109D01*
X61135667Y-19291109D02*
X61254715Y-19291109D01*
X61254715Y-19291109D02*
X61302334Y-19267300D01*
X61302334Y-19267300D02*
X61326143Y-19243490D01*
X61326143Y-19243490D02*
X61349953Y-19195871D01*
X61349953Y-19195871D02*
X61349953Y-19148252D01*
X61349953Y-19148252D02*
X61326143Y-19100633D01*
X61326143Y-19100633D02*
X61302334Y-19076823D01*
X61302334Y-19076823D02*
X61254715Y-19053014D01*
X61254715Y-19053014D02*
X61159477Y-19029204D01*
X61159477Y-19029204D02*
X61111858Y-19005395D01*
X61111858Y-19005395D02*
X61088048Y-18981585D01*
X61088048Y-18981585D02*
X61064239Y-18933966D01*
X61064239Y-18933966D02*
X61064239Y-18886347D01*
X61064239Y-18886347D02*
X61088048Y-18838728D01*
X61088048Y-18838728D02*
X61111858Y-18814919D01*
X61111858Y-18814919D02*
X61159477Y-18791109D01*
X61159477Y-18791109D02*
X61278524Y-18791109D01*
X61278524Y-18791109D02*
X61349953Y-18814919D01*
X61516619Y-18791109D02*
X61635667Y-19291109D01*
X61635667Y-19291109D02*
X61730905Y-18933966D01*
X61730905Y-18933966D02*
X61826143Y-19291109D01*
X61826143Y-19291109D02*
X61945191Y-18791109D01*
X62397572Y-19291109D02*
X62111858Y-19291109D01*
X62254715Y-19291109D02*
X62254715Y-18791109D01*
X62254715Y-18791109D02*
X62207096Y-18862538D01*
X62207096Y-18862538D02*
X62159477Y-18910157D01*
X62159477Y-18910157D02*
X62111858Y-18933966D01*
X62826143Y-18791109D02*
X62730905Y-18791109D01*
X62730905Y-18791109D02*
X62683286Y-18814919D01*
X62683286Y-18814919D02*
X62659476Y-18838728D01*
X62659476Y-18838728D02*
X62611857Y-18910157D01*
X62611857Y-18910157D02*
X62588048Y-19005395D01*
X62588048Y-19005395D02*
X62588048Y-19195871D01*
X62588048Y-19195871D02*
X62611857Y-19243490D01*
X62611857Y-19243490D02*
X62635667Y-19267300D01*
X62635667Y-19267300D02*
X62683286Y-19291109D01*
X62683286Y-19291109D02*
X62778524Y-19291109D01*
X62778524Y-19291109D02*
X62826143Y-19267300D01*
X62826143Y-19267300D02*
X62849952Y-19243490D01*
X62849952Y-19243490D02*
X62873762Y-19195871D01*
X62873762Y-19195871D02*
X62873762Y-19076823D01*
X62873762Y-19076823D02*
X62849952Y-19029204D01*
X62849952Y-19029204D02*
X62826143Y-19005395D01*
X62826143Y-19005395D02*
X62778524Y-18981585D01*
X62778524Y-18981585D02*
X62683286Y-18981585D01*
X62683286Y-18981585D02*
X62635667Y-19005395D01*
X62635667Y-19005395D02*
X62611857Y-19029204D01*
X62611857Y-19029204D02*
X62588048Y-19076823D01*
D10*
X10658666Y2861190D02*
X10492000Y3099285D01*
X10372952Y2861190D02*
X10372952Y3361190D01*
X10372952Y3361190D02*
X10563428Y3361190D01*
X10563428Y3361190D02*
X10611047Y3337380D01*
X10611047Y3337380D02*
X10634857Y3313571D01*
X10634857Y3313571D02*
X10658666Y3265952D01*
X10658666Y3265952D02*
X10658666Y3194523D01*
X10658666Y3194523D02*
X10634857Y3146904D01*
X10634857Y3146904D02*
X10611047Y3123095D01*
X10611047Y3123095D02*
X10563428Y3099285D01*
X10563428Y3099285D02*
X10372952Y3099285D01*
X11087238Y3194523D02*
X11087238Y2861190D01*
X10968190Y3385000D02*
X10849143Y3027857D01*
X10849143Y3027857D02*
X11158666Y3027857D01*
X12761047Y9342490D02*
X12761047Y8937728D01*
X12761047Y8937728D02*
X12784857Y8890109D01*
X12784857Y8890109D02*
X12808666Y8866300D01*
X12808666Y8866300D02*
X12856285Y8842490D01*
X12856285Y8842490D02*
X12951523Y8842490D01*
X12951523Y8842490D02*
X12999142Y8866300D01*
X12999142Y8866300D02*
X13022952Y8890109D01*
X13022952Y8890109D02*
X13046761Y8937728D01*
X13046761Y8937728D02*
X13046761Y9342490D01*
X13261048Y9294871D02*
X13284857Y9318680D01*
X13284857Y9318680D02*
X13332476Y9342490D01*
X13332476Y9342490D02*
X13451524Y9342490D01*
X13451524Y9342490D02*
X13499143Y9318680D01*
X13499143Y9318680D02*
X13522952Y9294871D01*
X13522952Y9294871D02*
X13546762Y9247252D01*
X13546762Y9247252D02*
X13546762Y9199633D01*
X13546762Y9199633D02*
X13522952Y9128204D01*
X13522952Y9128204D02*
X13237238Y8842490D01*
X13237238Y8842490D02*
X13546762Y8842490D01*
X66749857Y-41138809D02*
X66749857Y-40638809D01*
X66749857Y-40638809D02*
X66868905Y-40638809D01*
X66868905Y-40638809D02*
X66940333Y-40662619D01*
X66940333Y-40662619D02*
X66987952Y-40710238D01*
X66987952Y-40710238D02*
X67011762Y-40757857D01*
X67011762Y-40757857D02*
X67035571Y-40853095D01*
X67035571Y-40853095D02*
X67035571Y-40924523D01*
X67035571Y-40924523D02*
X67011762Y-41019761D01*
X67011762Y-41019761D02*
X66987952Y-41067380D01*
X66987952Y-41067380D02*
X66940333Y-41115000D01*
X66940333Y-41115000D02*
X66868905Y-41138809D01*
X66868905Y-41138809D02*
X66749857Y-41138809D01*
X67202238Y-40638809D02*
X67511762Y-40638809D01*
X67511762Y-40638809D02*
X67345095Y-40829285D01*
X67345095Y-40829285D02*
X67416524Y-40829285D01*
X67416524Y-40829285D02*
X67464143Y-40853095D01*
X67464143Y-40853095D02*
X67487952Y-40876904D01*
X67487952Y-40876904D02*
X67511762Y-40924523D01*
X67511762Y-40924523D02*
X67511762Y-41043571D01*
X67511762Y-41043571D02*
X67487952Y-41091190D01*
X67487952Y-41091190D02*
X67464143Y-41115000D01*
X67464143Y-41115000D02*
X67416524Y-41138809D01*
X67416524Y-41138809D02*
X67273667Y-41138809D01*
X67273667Y-41138809D02*
X67226048Y-41115000D01*
X67226048Y-41115000D02*
X67202238Y-41091190D01*
X67797476Y-40853095D02*
X67749857Y-40829285D01*
X67749857Y-40829285D02*
X67726047Y-40805476D01*
X67726047Y-40805476D02*
X67702238Y-40757857D01*
X67702238Y-40757857D02*
X67702238Y-40734047D01*
X67702238Y-40734047D02*
X67726047Y-40686428D01*
X67726047Y-40686428D02*
X67749857Y-40662619D01*
X67749857Y-40662619D02*
X67797476Y-40638809D01*
X67797476Y-40638809D02*
X67892714Y-40638809D01*
X67892714Y-40638809D02*
X67940333Y-40662619D01*
X67940333Y-40662619D02*
X67964142Y-40686428D01*
X67964142Y-40686428D02*
X67987952Y-40734047D01*
X67987952Y-40734047D02*
X67987952Y-40757857D01*
X67987952Y-40757857D02*
X67964142Y-40805476D01*
X67964142Y-40805476D02*
X67940333Y-40829285D01*
X67940333Y-40829285D02*
X67892714Y-40853095D01*
X67892714Y-40853095D02*
X67797476Y-40853095D01*
X67797476Y-40853095D02*
X67749857Y-40876904D01*
X67749857Y-40876904D02*
X67726047Y-40900714D01*
X67726047Y-40900714D02*
X67702238Y-40948333D01*
X67702238Y-40948333D02*
X67702238Y-41043571D01*
X67702238Y-41043571D02*
X67726047Y-41091190D01*
X67726047Y-41091190D02*
X67749857Y-41115000D01*
X67749857Y-41115000D02*
X67797476Y-41138809D01*
X67797476Y-41138809D02*
X67892714Y-41138809D01*
X67892714Y-41138809D02*
X67940333Y-41115000D01*
X67940333Y-41115000D02*
X67964142Y-41091190D01*
X67964142Y-41091190D02*
X67987952Y-41043571D01*
X67987952Y-41043571D02*
X67987952Y-40948333D01*
X67987952Y-40948333D02*
X67964142Y-40900714D01*
X67964142Y-40900714D02*
X67940333Y-40876904D01*
X67940333Y-40876904D02*
X67892714Y-40853095D01*
X38919190Y-5235428D02*
X38943000Y-5259237D01*
X38943000Y-5259237D02*
X38966809Y-5330666D01*
X38966809Y-5330666D02*
X38966809Y-5378285D01*
X38966809Y-5378285D02*
X38943000Y-5449713D01*
X38943000Y-5449713D02*
X38895380Y-5497332D01*
X38895380Y-5497332D02*
X38847761Y-5521142D01*
X38847761Y-5521142D02*
X38752523Y-5544951D01*
X38752523Y-5544951D02*
X38681095Y-5544951D01*
X38681095Y-5544951D02*
X38585857Y-5521142D01*
X38585857Y-5521142D02*
X38538238Y-5497332D01*
X38538238Y-5497332D02*
X38490619Y-5449713D01*
X38490619Y-5449713D02*
X38466809Y-5378285D01*
X38466809Y-5378285D02*
X38466809Y-5330666D01*
X38466809Y-5330666D02*
X38490619Y-5259237D01*
X38490619Y-5259237D02*
X38514428Y-5235428D01*
X38966809Y-4759237D02*
X38966809Y-5044951D01*
X38966809Y-4902094D02*
X38466809Y-4902094D01*
X38466809Y-4902094D02*
X38538238Y-4949713D01*
X38538238Y-4949713D02*
X38585857Y-4997332D01*
X38585857Y-4997332D02*
X38609666Y-5044951D01*
X38633476Y-4330666D02*
X38966809Y-4330666D01*
X38443000Y-4449714D02*
X38800142Y-4568761D01*
X38800142Y-4568761D02*
X38800142Y-4259238D01*
D11*
X3837239Y-516300D02*
X3908667Y-540109D01*
X3908667Y-540109D02*
X4027715Y-540109D01*
X4027715Y-540109D02*
X4075334Y-516300D01*
X4075334Y-516300D02*
X4099143Y-492490D01*
X4099143Y-492490D02*
X4122953Y-444871D01*
X4122953Y-444871D02*
X4122953Y-397252D01*
X4122953Y-397252D02*
X4099143Y-349633D01*
X4099143Y-349633D02*
X4075334Y-325823D01*
X4075334Y-325823D02*
X4027715Y-302014D01*
X4027715Y-302014D02*
X3932477Y-278204D01*
X3932477Y-278204D02*
X3884858Y-254395D01*
X3884858Y-254395D02*
X3861048Y-230585D01*
X3861048Y-230585D02*
X3837239Y-182966D01*
X3837239Y-182966D02*
X3837239Y-135347D01*
X3837239Y-135347D02*
X3861048Y-87728D01*
X3861048Y-87728D02*
X3884858Y-63919D01*
X3884858Y-63919D02*
X3932477Y-40109D01*
X3932477Y-40109D02*
X4051524Y-40109D01*
X4051524Y-40109D02*
X4122953Y-63919D01*
X4289619Y-40109D02*
X4408667Y-540109D01*
X4408667Y-540109D02*
X4503905Y-182966D01*
X4503905Y-182966D02*
X4599143Y-540109D01*
X4599143Y-540109D02*
X4718191Y-40109D01*
X5170572Y-540109D02*
X4884858Y-540109D01*
X5027715Y-540109D02*
X5027715Y-40109D01*
X5027715Y-40109D02*
X4980096Y-111538D01*
X4980096Y-111538D02*
X4932477Y-159157D01*
X4932477Y-159157D02*
X4884858Y-182966D01*
X5337238Y-40109D02*
X5670571Y-40109D01*
X5670571Y-40109D02*
X5456286Y-540109D01*
X22837239Y-316300D02*
X22908667Y-340109D01*
X22908667Y-340109D02*
X23027715Y-340109D01*
X23027715Y-340109D02*
X23075334Y-316300D01*
X23075334Y-316300D02*
X23099143Y-292490D01*
X23099143Y-292490D02*
X23122953Y-244871D01*
X23122953Y-244871D02*
X23122953Y-197252D01*
X23122953Y-197252D02*
X23099143Y-149633D01*
X23099143Y-149633D02*
X23075334Y-125823D01*
X23075334Y-125823D02*
X23027715Y-102014D01*
X23027715Y-102014D02*
X22932477Y-78204D01*
X22932477Y-78204D02*
X22884858Y-54395D01*
X22884858Y-54395D02*
X22861048Y-30585D01*
X22861048Y-30585D02*
X22837239Y17033D01*
X22837239Y17033D02*
X22837239Y64652D01*
X22837239Y64652D02*
X22861048Y112271D01*
X22861048Y112271D02*
X22884858Y136080D01*
X22884858Y136080D02*
X22932477Y159890D01*
X22932477Y159890D02*
X23051524Y159890D01*
X23051524Y159890D02*
X23122953Y136080D01*
X23289619Y159890D02*
X23408667Y-340109D01*
X23408667Y-340109D02*
X23503905Y17033D01*
X23503905Y17033D02*
X23599143Y-340109D01*
X23599143Y-340109D02*
X23718191Y159890D01*
X24170572Y-340109D02*
X23884858Y-340109D01*
X24027715Y-340109D02*
X24027715Y159890D01*
X24027715Y159890D02*
X23980096Y88461D01*
X23980096Y88461D02*
X23932477Y40842D01*
X23932477Y40842D02*
X23884858Y17033D01*
X24456286Y-54395D02*
X24408667Y-30585D01*
X24408667Y-30585D02*
X24384857Y-6776D01*
X24384857Y-6776D02*
X24361048Y40842D01*
X24361048Y40842D02*
X24361048Y64652D01*
X24361048Y64652D02*
X24384857Y112271D01*
X24384857Y112271D02*
X24408667Y136080D01*
X24408667Y136080D02*
X24456286Y159890D01*
X24456286Y159890D02*
X24551524Y159890D01*
X24551524Y159890D02*
X24599143Y136080D01*
X24599143Y136080D02*
X24622952Y112271D01*
X24622952Y112271D02*
X24646762Y64652D01*
X24646762Y64652D02*
X24646762Y40842D01*
X24646762Y40842D02*
X24622952Y-6776D01*
X24622952Y-6776D02*
X24599143Y-30585D01*
X24599143Y-30585D02*
X24551524Y-54395D01*
X24551524Y-54395D02*
X24456286Y-54395D01*
X24456286Y-54395D02*
X24408667Y-78204D01*
X24408667Y-78204D02*
X24384857Y-102014D01*
X24384857Y-102014D02*
X24361048Y-149633D01*
X24361048Y-149633D02*
X24361048Y-244871D01*
X24361048Y-244871D02*
X24384857Y-292490D01*
X24384857Y-292490D02*
X24408667Y-316300D01*
X24408667Y-316300D02*
X24456286Y-340109D01*
X24456286Y-340109D02*
X24551524Y-340109D01*
X24551524Y-340109D02*
X24599143Y-316300D01*
X24599143Y-316300D02*
X24622952Y-292490D01*
X24622952Y-292490D02*
X24646762Y-244871D01*
X24646762Y-244871D02*
X24646762Y-149633D01*
X24646762Y-149633D02*
X24622952Y-102014D01*
X24622952Y-102014D02*
X24599143Y-78204D01*
X24599143Y-78204D02*
X24551524Y-54395D01*
D10*
X16966809Y6202666D02*
X16728714Y6036000D01*
X16966809Y5916952D02*
X16466809Y5916952D01*
X16466809Y5916952D02*
X16466809Y6107428D01*
X16466809Y6107428D02*
X16490619Y6155047D01*
X16490619Y6155047D02*
X16514428Y6178857D01*
X16514428Y6178857D02*
X16562047Y6202666D01*
X16562047Y6202666D02*
X16633476Y6202666D01*
X16633476Y6202666D02*
X16681095Y6178857D01*
X16681095Y6178857D02*
X16704904Y6155047D01*
X16704904Y6155047D02*
X16728714Y6107428D01*
X16728714Y6107428D02*
X16728714Y5916952D01*
X16966809Y6440762D02*
X16966809Y6536000D01*
X16966809Y6536000D02*
X16943000Y6583619D01*
X16943000Y6583619D02*
X16919190Y6607428D01*
X16919190Y6607428D02*
X16847761Y6655047D01*
X16847761Y6655047D02*
X16752523Y6678857D01*
X16752523Y6678857D02*
X16562047Y6678857D01*
X16562047Y6678857D02*
X16514428Y6655047D01*
X16514428Y6655047D02*
X16490619Y6631238D01*
X16490619Y6631238D02*
X16466809Y6583619D01*
X16466809Y6583619D02*
X16466809Y6488381D01*
X16466809Y6488381D02*
X16490619Y6440762D01*
X16490619Y6440762D02*
X16514428Y6416952D01*
X16514428Y6416952D02*
X16562047Y6393143D01*
X16562047Y6393143D02*
X16681095Y6393143D01*
X16681095Y6393143D02*
X16728714Y6416952D01*
X16728714Y6416952D02*
X16752523Y6440762D01*
X16752523Y6440762D02*
X16776333Y6488381D01*
X16776333Y6488381D02*
X16776333Y6583619D01*
X16776333Y6583619D02*
X16752523Y6631238D01*
X16752523Y6631238D02*
X16728714Y6655047D01*
X16728714Y6655047D02*
X16681095Y6678857D01*
X22594380Y11413571D02*
X22546761Y11437380D01*
X22546761Y11437380D02*
X22499142Y11485000D01*
X22499142Y11485000D02*
X22427714Y11556428D01*
X22427714Y11556428D02*
X22380095Y11580238D01*
X22380095Y11580238D02*
X22332476Y11580238D01*
X22356285Y11461190D02*
X22308666Y11485000D01*
X22308666Y11485000D02*
X22261047Y11532619D01*
X22261047Y11532619D02*
X22237238Y11627857D01*
X22237238Y11627857D02*
X22237238Y11794523D01*
X22237238Y11794523D02*
X22261047Y11889761D01*
X22261047Y11889761D02*
X22308666Y11937380D01*
X22308666Y11937380D02*
X22356285Y11961190D01*
X22356285Y11961190D02*
X22451523Y11961190D01*
X22451523Y11961190D02*
X22499142Y11937380D01*
X22499142Y11937380D02*
X22546761Y11889761D01*
X22546761Y11889761D02*
X22570571Y11794523D01*
X22570571Y11794523D02*
X22570571Y11627857D01*
X22570571Y11627857D02*
X22546761Y11532619D01*
X22546761Y11532619D02*
X22499142Y11485000D01*
X22499142Y11485000D02*
X22451523Y11461190D01*
X22451523Y11461190D02*
X22356285Y11461190D01*
X22761048Y11913571D02*
X22784857Y11937380D01*
X22784857Y11937380D02*
X22832476Y11961190D01*
X22832476Y11961190D02*
X22951524Y11961190D01*
X22951524Y11961190D02*
X22999143Y11937380D01*
X22999143Y11937380D02*
X23022952Y11913571D01*
X23022952Y11913571D02*
X23046762Y11865952D01*
X23046762Y11865952D02*
X23046762Y11818333D01*
X23046762Y11818333D02*
X23022952Y11746904D01*
X23022952Y11746904D02*
X22737238Y11461190D01*
X22737238Y11461190D02*
X23046762Y11461190D01*
X38919190Y-80635428D02*
X38943000Y-80659237D01*
X38943000Y-80659237D02*
X38966809Y-80730666D01*
X38966809Y-80730666D02*
X38966809Y-80778285D01*
X38966809Y-80778285D02*
X38943000Y-80849713D01*
X38943000Y-80849713D02*
X38895380Y-80897332D01*
X38895380Y-80897332D02*
X38847761Y-80921142D01*
X38847761Y-80921142D02*
X38752523Y-80944951D01*
X38752523Y-80944951D02*
X38681095Y-80944951D01*
X38681095Y-80944951D02*
X38585857Y-80921142D01*
X38585857Y-80921142D02*
X38538238Y-80897332D01*
X38538238Y-80897332D02*
X38490619Y-80849713D01*
X38490619Y-80849713D02*
X38466809Y-80778285D01*
X38466809Y-80778285D02*
X38466809Y-80730666D01*
X38466809Y-80730666D02*
X38490619Y-80659237D01*
X38490619Y-80659237D02*
X38514428Y-80635428D01*
X38966809Y-80159237D02*
X38966809Y-80444951D01*
X38966809Y-80302094D02*
X38466809Y-80302094D01*
X38466809Y-80302094D02*
X38538238Y-80349713D01*
X38538238Y-80349713D02*
X38585857Y-80397332D01*
X38585857Y-80397332D02*
X38609666Y-80444951D01*
X38966809Y-79921142D02*
X38966809Y-79825904D01*
X38966809Y-79825904D02*
X38943000Y-79778285D01*
X38943000Y-79778285D02*
X38919190Y-79754476D01*
X38919190Y-79754476D02*
X38847761Y-79706857D01*
X38847761Y-79706857D02*
X38752523Y-79683047D01*
X38752523Y-79683047D02*
X38562047Y-79683047D01*
X38562047Y-79683047D02*
X38514428Y-79706857D01*
X38514428Y-79706857D02*
X38490619Y-79730666D01*
X38490619Y-79730666D02*
X38466809Y-79778285D01*
X38466809Y-79778285D02*
X38466809Y-79873523D01*
X38466809Y-79873523D02*
X38490619Y-79921142D01*
X38490619Y-79921142D02*
X38514428Y-79944952D01*
X38514428Y-79944952D02*
X38562047Y-79968761D01*
X38562047Y-79968761D02*
X38681095Y-79968761D01*
X38681095Y-79968761D02*
X38728714Y-79944952D01*
X38728714Y-79944952D02*
X38752523Y-79921142D01*
X38752523Y-79921142D02*
X38776333Y-79873523D01*
X38776333Y-79873523D02*
X38776333Y-79778285D01*
X38776333Y-79778285D02*
X38752523Y-79730666D01*
X38752523Y-79730666D02*
X38728714Y-79706857D01*
X38728714Y-79706857D02*
X38681095Y-79683047D01*
D11*
X4092334Y-38282300D02*
X4163762Y-38306109D01*
X4163762Y-38306109D02*
X4282810Y-38306109D01*
X4282810Y-38306109D02*
X4330429Y-38282300D01*
X4330429Y-38282300D02*
X4354238Y-38258490D01*
X4354238Y-38258490D02*
X4378048Y-38210871D01*
X4378048Y-38210871D02*
X4378048Y-38163252D01*
X4378048Y-38163252D02*
X4354238Y-38115633D01*
X4354238Y-38115633D02*
X4330429Y-38091823D01*
X4330429Y-38091823D02*
X4282810Y-38068014D01*
X4282810Y-38068014D02*
X4187572Y-38044204D01*
X4187572Y-38044204D02*
X4139953Y-38020395D01*
X4139953Y-38020395D02*
X4116143Y-37996585D01*
X4116143Y-37996585D02*
X4092334Y-37948966D01*
X4092334Y-37948966D02*
X4092334Y-37901347D01*
X4092334Y-37901347D02*
X4116143Y-37853728D01*
X4116143Y-37853728D02*
X4139953Y-37829919D01*
X4139953Y-37829919D02*
X4187572Y-37806109D01*
X4187572Y-37806109D02*
X4306619Y-37806109D01*
X4306619Y-37806109D02*
X4378048Y-37829919D01*
X4544714Y-37806109D02*
X4663762Y-38306109D01*
X4663762Y-38306109D02*
X4759000Y-37948966D01*
X4759000Y-37948966D02*
X4854238Y-38306109D01*
X4854238Y-38306109D02*
X4973286Y-37806109D01*
X5187572Y-38306109D02*
X5282810Y-38306109D01*
X5282810Y-38306109D02*
X5330429Y-38282300D01*
X5330429Y-38282300D02*
X5354238Y-38258490D01*
X5354238Y-38258490D02*
X5401857Y-38187061D01*
X5401857Y-38187061D02*
X5425667Y-38091823D01*
X5425667Y-38091823D02*
X5425667Y-37901347D01*
X5425667Y-37901347D02*
X5401857Y-37853728D01*
X5401857Y-37853728D02*
X5378048Y-37829919D01*
X5378048Y-37829919D02*
X5330429Y-37806109D01*
X5330429Y-37806109D02*
X5235191Y-37806109D01*
X5235191Y-37806109D02*
X5187572Y-37829919D01*
X5187572Y-37829919D02*
X5163762Y-37853728D01*
X5163762Y-37853728D02*
X5139953Y-37901347D01*
X5139953Y-37901347D02*
X5139953Y-38020395D01*
X5139953Y-38020395D02*
X5163762Y-38068014D01*
X5163762Y-38068014D02*
X5187572Y-38091823D01*
X5187572Y-38091823D02*
X5235191Y-38115633D01*
X5235191Y-38115633D02*
X5330429Y-38115633D01*
X5330429Y-38115633D02*
X5378048Y-38091823D01*
X5378048Y-38091823D02*
X5401857Y-38068014D01*
X5401857Y-38068014D02*
X5425667Y-38020395D01*
X61064239Y-38317300D02*
X61135667Y-38341109D01*
X61135667Y-38341109D02*
X61254715Y-38341109D01*
X61254715Y-38341109D02*
X61302334Y-38317300D01*
X61302334Y-38317300D02*
X61326143Y-38293490D01*
X61326143Y-38293490D02*
X61349953Y-38245871D01*
X61349953Y-38245871D02*
X61349953Y-38198252D01*
X61349953Y-38198252D02*
X61326143Y-38150633D01*
X61326143Y-38150633D02*
X61302334Y-38126823D01*
X61302334Y-38126823D02*
X61254715Y-38103014D01*
X61254715Y-38103014D02*
X61159477Y-38079204D01*
X61159477Y-38079204D02*
X61111858Y-38055395D01*
X61111858Y-38055395D02*
X61088048Y-38031585D01*
X61088048Y-38031585D02*
X61064239Y-37983966D01*
X61064239Y-37983966D02*
X61064239Y-37936347D01*
X61064239Y-37936347D02*
X61088048Y-37888728D01*
X61088048Y-37888728D02*
X61111858Y-37864919D01*
X61111858Y-37864919D02*
X61159477Y-37841109D01*
X61159477Y-37841109D02*
X61278524Y-37841109D01*
X61278524Y-37841109D02*
X61349953Y-37864919D01*
X61516619Y-37841109D02*
X61635667Y-38341109D01*
X61635667Y-38341109D02*
X61730905Y-37983966D01*
X61730905Y-37983966D02*
X61826143Y-38341109D01*
X61826143Y-38341109D02*
X61945191Y-37841109D01*
X62397572Y-38341109D02*
X62111858Y-38341109D01*
X62254715Y-38341109D02*
X62254715Y-37841109D01*
X62254715Y-37841109D02*
X62207096Y-37912538D01*
X62207096Y-37912538D02*
X62159477Y-37960157D01*
X62159477Y-37960157D02*
X62111858Y-37983966D01*
X62588048Y-37888728D02*
X62611857Y-37864919D01*
X62611857Y-37864919D02*
X62659476Y-37841109D01*
X62659476Y-37841109D02*
X62778524Y-37841109D01*
X62778524Y-37841109D02*
X62826143Y-37864919D01*
X62826143Y-37864919D02*
X62849952Y-37888728D01*
X62849952Y-37888728D02*
X62873762Y-37936347D01*
X62873762Y-37936347D02*
X62873762Y-37983966D01*
X62873762Y-37983966D02*
X62849952Y-38055395D01*
X62849952Y-38055395D02*
X62564238Y-38341109D01*
X62564238Y-38341109D02*
X62873762Y-38341109D01*
D10*
X39058666Y19708809D02*
X39034857Y19685000D01*
X39034857Y19685000D02*
X38963428Y19661190D01*
X38963428Y19661190D02*
X38915809Y19661190D01*
X38915809Y19661190D02*
X38844381Y19685000D01*
X38844381Y19685000D02*
X38796762Y19732619D01*
X38796762Y19732619D02*
X38772952Y19780238D01*
X38772952Y19780238D02*
X38749143Y19875476D01*
X38749143Y19875476D02*
X38749143Y19946904D01*
X38749143Y19946904D02*
X38772952Y20042142D01*
X38772952Y20042142D02*
X38796762Y20089761D01*
X38796762Y20089761D02*
X38844381Y20137380D01*
X38844381Y20137380D02*
X38915809Y20161190D01*
X38915809Y20161190D02*
X38963428Y20161190D01*
X38963428Y20161190D02*
X39034857Y20137380D01*
X39034857Y20137380D02*
X39058666Y20113571D01*
X39487238Y19994523D02*
X39487238Y19661190D01*
X39368190Y20185000D02*
X39249143Y19827857D01*
X39249143Y19827857D02*
X39558666Y19827857D01*
X47669857Y-79038809D02*
X47669857Y-78538809D01*
X47669857Y-78538809D02*
X47788905Y-78538809D01*
X47788905Y-78538809D02*
X47860333Y-78562619D01*
X47860333Y-78562619D02*
X47907952Y-78610238D01*
X47907952Y-78610238D02*
X47931762Y-78657857D01*
X47931762Y-78657857D02*
X47955571Y-78753095D01*
X47955571Y-78753095D02*
X47955571Y-78824523D01*
X47955571Y-78824523D02*
X47931762Y-78919761D01*
X47931762Y-78919761D02*
X47907952Y-78967380D01*
X47907952Y-78967380D02*
X47860333Y-79015000D01*
X47860333Y-79015000D02*
X47788905Y-79038809D01*
X47788905Y-79038809D02*
X47669857Y-79038809D01*
X48146048Y-78586428D02*
X48169857Y-78562619D01*
X48169857Y-78562619D02*
X48217476Y-78538809D01*
X48217476Y-78538809D02*
X48336524Y-78538809D01*
X48336524Y-78538809D02*
X48384143Y-78562619D01*
X48384143Y-78562619D02*
X48407952Y-78586428D01*
X48407952Y-78586428D02*
X48431762Y-78634047D01*
X48431762Y-78634047D02*
X48431762Y-78681666D01*
X48431762Y-78681666D02*
X48407952Y-78753095D01*
X48407952Y-78753095D02*
X48122238Y-79038809D01*
X48122238Y-79038809D02*
X48431762Y-79038809D01*
X48669857Y-79038809D02*
X48765095Y-79038809D01*
X48765095Y-79038809D02*
X48812714Y-79015000D01*
X48812714Y-79015000D02*
X48836523Y-78991190D01*
X48836523Y-78991190D02*
X48884142Y-78919761D01*
X48884142Y-78919761D02*
X48907952Y-78824523D01*
X48907952Y-78824523D02*
X48907952Y-78634047D01*
X48907952Y-78634047D02*
X48884142Y-78586428D01*
X48884142Y-78586428D02*
X48860333Y-78562619D01*
X48860333Y-78562619D02*
X48812714Y-78538809D01*
X48812714Y-78538809D02*
X48717476Y-78538809D01*
X48717476Y-78538809D02*
X48669857Y-78562619D01*
X48669857Y-78562619D02*
X48646047Y-78586428D01*
X48646047Y-78586428D02*
X48622238Y-78634047D01*
X48622238Y-78634047D02*
X48622238Y-78753095D01*
X48622238Y-78753095D02*
X48646047Y-78800714D01*
X48646047Y-78800714D02*
X48669857Y-78824523D01*
X48669857Y-78824523D02*
X48717476Y-78848333D01*
X48717476Y-78848333D02*
X48812714Y-78848333D01*
X48812714Y-78848333D02*
X48860333Y-78824523D01*
X48860333Y-78824523D02*
X48884142Y-78800714D01*
X48884142Y-78800714D02*
X48907952Y-78753095D01*
D11*
X4065334Y-57367300D02*
X4136762Y-57391109D01*
X4136762Y-57391109D02*
X4255810Y-57391109D01*
X4255810Y-57391109D02*
X4303429Y-57367300D01*
X4303429Y-57367300D02*
X4327238Y-57343490D01*
X4327238Y-57343490D02*
X4351048Y-57295871D01*
X4351048Y-57295871D02*
X4351048Y-57248252D01*
X4351048Y-57248252D02*
X4327238Y-57200633D01*
X4327238Y-57200633D02*
X4303429Y-57176823D01*
X4303429Y-57176823D02*
X4255810Y-57153014D01*
X4255810Y-57153014D02*
X4160572Y-57129204D01*
X4160572Y-57129204D02*
X4112953Y-57105395D01*
X4112953Y-57105395D02*
X4089143Y-57081585D01*
X4089143Y-57081585D02*
X4065334Y-57033966D01*
X4065334Y-57033966D02*
X4065334Y-56986347D01*
X4065334Y-56986347D02*
X4089143Y-56938728D01*
X4089143Y-56938728D02*
X4112953Y-56914919D01*
X4112953Y-56914919D02*
X4160572Y-56891109D01*
X4160572Y-56891109D02*
X4279619Y-56891109D01*
X4279619Y-56891109D02*
X4351048Y-56914919D01*
X4517714Y-56891109D02*
X4636762Y-57391109D01*
X4636762Y-57391109D02*
X4732000Y-57033966D01*
X4732000Y-57033966D02*
X4827238Y-57391109D01*
X4827238Y-57391109D02*
X4946286Y-56891109D01*
X5374857Y-56891109D02*
X5136762Y-56891109D01*
X5136762Y-56891109D02*
X5112953Y-57129204D01*
X5112953Y-57129204D02*
X5136762Y-57105395D01*
X5136762Y-57105395D02*
X5184381Y-57081585D01*
X5184381Y-57081585D02*
X5303429Y-57081585D01*
X5303429Y-57081585D02*
X5351048Y-57105395D01*
X5351048Y-57105395D02*
X5374857Y-57129204D01*
X5374857Y-57129204D02*
X5398667Y-57176823D01*
X5398667Y-57176823D02*
X5398667Y-57295871D01*
X5398667Y-57295871D02*
X5374857Y-57343490D01*
X5374857Y-57343490D02*
X5351048Y-57367300D01*
X5351048Y-57367300D02*
X5303429Y-57391109D01*
X5303429Y-57391109D02*
X5184381Y-57391109D01*
X5184381Y-57391109D02*
X5136762Y-57367300D01*
X5136762Y-57367300D02*
X5112953Y-57343490D01*
D10*
X9499857Y-41038809D02*
X9499857Y-40538809D01*
X9499857Y-40538809D02*
X9618905Y-40538809D01*
X9618905Y-40538809D02*
X9690333Y-40562619D01*
X9690333Y-40562619D02*
X9737952Y-40610238D01*
X9737952Y-40610238D02*
X9761762Y-40657857D01*
X9761762Y-40657857D02*
X9785571Y-40753095D01*
X9785571Y-40753095D02*
X9785571Y-40824523D01*
X9785571Y-40824523D02*
X9761762Y-40919761D01*
X9761762Y-40919761D02*
X9737952Y-40967380D01*
X9737952Y-40967380D02*
X9690333Y-41015000D01*
X9690333Y-41015000D02*
X9618905Y-41038809D01*
X9618905Y-41038809D02*
X9499857Y-41038809D01*
X9952238Y-40538809D02*
X10261762Y-40538809D01*
X10261762Y-40538809D02*
X10095095Y-40729285D01*
X10095095Y-40729285D02*
X10166524Y-40729285D01*
X10166524Y-40729285D02*
X10214143Y-40753095D01*
X10214143Y-40753095D02*
X10237952Y-40776904D01*
X10237952Y-40776904D02*
X10261762Y-40824523D01*
X10261762Y-40824523D02*
X10261762Y-40943571D01*
X10261762Y-40943571D02*
X10237952Y-40991190D01*
X10237952Y-40991190D02*
X10214143Y-41015000D01*
X10214143Y-41015000D02*
X10166524Y-41038809D01*
X10166524Y-41038809D02*
X10023667Y-41038809D01*
X10023667Y-41038809D02*
X9976048Y-41015000D01*
X9976048Y-41015000D02*
X9952238Y-40991190D01*
X10714142Y-40538809D02*
X10476047Y-40538809D01*
X10476047Y-40538809D02*
X10452238Y-40776904D01*
X10452238Y-40776904D02*
X10476047Y-40753095D01*
X10476047Y-40753095D02*
X10523666Y-40729285D01*
X10523666Y-40729285D02*
X10642714Y-40729285D01*
X10642714Y-40729285D02*
X10690333Y-40753095D01*
X10690333Y-40753095D02*
X10714142Y-40776904D01*
X10714142Y-40776904D02*
X10737952Y-40824523D01*
X10737952Y-40824523D02*
X10737952Y-40943571D01*
X10737952Y-40943571D02*
X10714142Y-40991190D01*
X10714142Y-40991190D02*
X10690333Y-41015000D01*
X10690333Y-41015000D02*
X10642714Y-41038809D01*
X10642714Y-41038809D02*
X10523666Y-41038809D01*
X10523666Y-41038809D02*
X10476047Y-41015000D01*
X10476047Y-41015000D02*
X10452238Y-40991190D01*
X25258666Y10661190D02*
X25092000Y10899285D01*
X24972952Y10661190D02*
X24972952Y11161190D01*
X24972952Y11161190D02*
X25163428Y11161190D01*
X25163428Y11161190D02*
X25211047Y11137380D01*
X25211047Y11137380D02*
X25234857Y11113571D01*
X25234857Y11113571D02*
X25258666Y11065952D01*
X25258666Y11065952D02*
X25258666Y10994523D01*
X25258666Y10994523D02*
X25234857Y10946904D01*
X25234857Y10946904D02*
X25211047Y10923095D01*
X25211047Y10923095D02*
X25163428Y10899285D01*
X25163428Y10899285D02*
X24972952Y10899285D01*
X25425333Y11161190D02*
X25758666Y11161190D01*
X25758666Y11161190D02*
X25544381Y10661190D01*
X38919190Y-23635428D02*
X38943000Y-23659237D01*
X38943000Y-23659237D02*
X38966809Y-23730666D01*
X38966809Y-23730666D02*
X38966809Y-23778285D01*
X38966809Y-23778285D02*
X38943000Y-23849713D01*
X38943000Y-23849713D02*
X38895380Y-23897332D01*
X38895380Y-23897332D02*
X38847761Y-23921142D01*
X38847761Y-23921142D02*
X38752523Y-23944951D01*
X38752523Y-23944951D02*
X38681095Y-23944951D01*
X38681095Y-23944951D02*
X38585857Y-23921142D01*
X38585857Y-23921142D02*
X38538238Y-23897332D01*
X38538238Y-23897332D02*
X38490619Y-23849713D01*
X38490619Y-23849713D02*
X38466809Y-23778285D01*
X38466809Y-23778285D02*
X38466809Y-23730666D01*
X38466809Y-23730666D02*
X38490619Y-23659237D01*
X38490619Y-23659237D02*
X38514428Y-23635428D01*
X38966809Y-23159237D02*
X38966809Y-23444951D01*
X38966809Y-23302094D02*
X38466809Y-23302094D01*
X38466809Y-23302094D02*
X38538238Y-23349713D01*
X38538238Y-23349713D02*
X38585857Y-23397332D01*
X38585857Y-23397332D02*
X38609666Y-23444951D01*
X38466809Y-22730666D02*
X38466809Y-22825904D01*
X38466809Y-22825904D02*
X38490619Y-22873523D01*
X38490619Y-22873523D02*
X38514428Y-22897333D01*
X38514428Y-22897333D02*
X38585857Y-22944952D01*
X38585857Y-22944952D02*
X38681095Y-22968761D01*
X38681095Y-22968761D02*
X38871571Y-22968761D01*
X38871571Y-22968761D02*
X38919190Y-22944952D01*
X38919190Y-22944952D02*
X38943000Y-22921142D01*
X38943000Y-22921142D02*
X38966809Y-22873523D01*
X38966809Y-22873523D02*
X38966809Y-22778285D01*
X38966809Y-22778285D02*
X38943000Y-22730666D01*
X38943000Y-22730666D02*
X38919190Y-22706857D01*
X38919190Y-22706857D02*
X38871571Y-22683047D01*
X38871571Y-22683047D02*
X38752523Y-22683047D01*
X38752523Y-22683047D02*
X38704904Y-22706857D01*
X38704904Y-22706857D02*
X38681095Y-22730666D01*
X38681095Y-22730666D02*
X38657285Y-22778285D01*
X38657285Y-22778285D02*
X38657285Y-22873523D01*
X38657285Y-22873523D02*
X38681095Y-22921142D01*
X38681095Y-22921142D02*
X38704904Y-22944952D01*
X38704904Y-22944952D02*
X38752523Y-22968761D01*
X28499857Y-3138809D02*
X28499857Y-2638809D01*
X28499857Y-2638809D02*
X28618905Y-2638809D01*
X28618905Y-2638809D02*
X28690333Y-2662619D01*
X28690333Y-2662619D02*
X28737952Y-2710238D01*
X28737952Y-2710238D02*
X28761762Y-2757857D01*
X28761762Y-2757857D02*
X28785571Y-2853095D01*
X28785571Y-2853095D02*
X28785571Y-2924523D01*
X28785571Y-2924523D02*
X28761762Y-3019761D01*
X28761762Y-3019761D02*
X28737952Y-3067380D01*
X28737952Y-3067380D02*
X28690333Y-3115000D01*
X28690333Y-3115000D02*
X28618905Y-3138809D01*
X28618905Y-3138809D02*
X28499857Y-3138809D01*
X29214143Y-2805476D02*
X29214143Y-3138809D01*
X29095095Y-2615000D02*
X28976048Y-2972142D01*
X28976048Y-2972142D02*
X29285571Y-2972142D01*
X29690333Y-2805476D02*
X29690333Y-3138809D01*
X29571285Y-2615000D02*
X29452238Y-2972142D01*
X29452238Y-2972142D02*
X29761761Y-2972142D01*
D11*
X42207334Y-57366300D02*
X42278762Y-57390109D01*
X42278762Y-57390109D02*
X42397810Y-57390109D01*
X42397810Y-57390109D02*
X42445429Y-57366300D01*
X42445429Y-57366300D02*
X42469238Y-57342490D01*
X42469238Y-57342490D02*
X42493048Y-57294871D01*
X42493048Y-57294871D02*
X42493048Y-57247252D01*
X42493048Y-57247252D02*
X42469238Y-57199633D01*
X42469238Y-57199633D02*
X42445429Y-57175823D01*
X42445429Y-57175823D02*
X42397810Y-57152014D01*
X42397810Y-57152014D02*
X42302572Y-57128204D01*
X42302572Y-57128204D02*
X42254953Y-57104395D01*
X42254953Y-57104395D02*
X42231143Y-57080585D01*
X42231143Y-57080585D02*
X42207334Y-57032966D01*
X42207334Y-57032966D02*
X42207334Y-56985347D01*
X42207334Y-56985347D02*
X42231143Y-56937728D01*
X42231143Y-56937728D02*
X42254953Y-56913919D01*
X42254953Y-56913919D02*
X42302572Y-56890109D01*
X42302572Y-56890109D02*
X42421619Y-56890109D01*
X42421619Y-56890109D02*
X42493048Y-56913919D01*
X42659714Y-56890109D02*
X42778762Y-57390109D01*
X42778762Y-57390109D02*
X42874000Y-57032966D01*
X42874000Y-57032966D02*
X42969238Y-57390109D01*
X42969238Y-57390109D02*
X43088286Y-56890109D01*
X43231143Y-56890109D02*
X43564476Y-56890109D01*
X43564476Y-56890109D02*
X43350191Y-57390109D01*
X23030334Y-57366300D02*
X23101762Y-57390109D01*
X23101762Y-57390109D02*
X23220810Y-57390109D01*
X23220810Y-57390109D02*
X23268429Y-57366300D01*
X23268429Y-57366300D02*
X23292238Y-57342490D01*
X23292238Y-57342490D02*
X23316048Y-57294871D01*
X23316048Y-57294871D02*
X23316048Y-57247252D01*
X23316048Y-57247252D02*
X23292238Y-57199633D01*
X23292238Y-57199633D02*
X23268429Y-57175823D01*
X23268429Y-57175823D02*
X23220810Y-57152014D01*
X23220810Y-57152014D02*
X23125572Y-57128204D01*
X23125572Y-57128204D02*
X23077953Y-57104395D01*
X23077953Y-57104395D02*
X23054143Y-57080585D01*
X23054143Y-57080585D02*
X23030334Y-57032966D01*
X23030334Y-57032966D02*
X23030334Y-56985347D01*
X23030334Y-56985347D02*
X23054143Y-56937728D01*
X23054143Y-56937728D02*
X23077953Y-56913919D01*
X23077953Y-56913919D02*
X23125572Y-56890109D01*
X23125572Y-56890109D02*
X23244619Y-56890109D01*
X23244619Y-56890109D02*
X23316048Y-56913919D01*
X23482714Y-56890109D02*
X23601762Y-57390109D01*
X23601762Y-57390109D02*
X23697000Y-57032966D01*
X23697000Y-57032966D02*
X23792238Y-57390109D01*
X23792238Y-57390109D02*
X23911286Y-56890109D01*
X24316048Y-56890109D02*
X24220810Y-56890109D01*
X24220810Y-56890109D02*
X24173191Y-56913919D01*
X24173191Y-56913919D02*
X24149381Y-56937728D01*
X24149381Y-56937728D02*
X24101762Y-57009157D01*
X24101762Y-57009157D02*
X24077953Y-57104395D01*
X24077953Y-57104395D02*
X24077953Y-57294871D01*
X24077953Y-57294871D02*
X24101762Y-57342490D01*
X24101762Y-57342490D02*
X24125572Y-57366300D01*
X24125572Y-57366300D02*
X24173191Y-57390109D01*
X24173191Y-57390109D02*
X24268429Y-57390109D01*
X24268429Y-57390109D02*
X24316048Y-57366300D01*
X24316048Y-57366300D02*
X24339857Y-57342490D01*
X24339857Y-57342490D02*
X24363667Y-57294871D01*
X24363667Y-57294871D02*
X24363667Y-57175823D01*
X24363667Y-57175823D02*
X24339857Y-57128204D01*
X24339857Y-57128204D02*
X24316048Y-57104395D01*
X24316048Y-57104395D02*
X24268429Y-57080585D01*
X24268429Y-57080585D02*
X24173191Y-57080585D01*
X24173191Y-57080585D02*
X24125572Y-57104395D01*
X24125572Y-57104395D02*
X24101762Y-57128204D01*
X24101762Y-57128204D02*
X24077953Y-57175823D01*
D10*
X28499857Y-41038809D02*
X28499857Y-40538809D01*
X28499857Y-40538809D02*
X28618905Y-40538809D01*
X28618905Y-40538809D02*
X28690333Y-40562619D01*
X28690333Y-40562619D02*
X28737952Y-40610238D01*
X28737952Y-40610238D02*
X28761762Y-40657857D01*
X28761762Y-40657857D02*
X28785571Y-40753095D01*
X28785571Y-40753095D02*
X28785571Y-40824523D01*
X28785571Y-40824523D02*
X28761762Y-40919761D01*
X28761762Y-40919761D02*
X28737952Y-40967380D01*
X28737952Y-40967380D02*
X28690333Y-41015000D01*
X28690333Y-41015000D02*
X28618905Y-41038809D01*
X28618905Y-41038809D02*
X28499857Y-41038809D01*
X28952238Y-40538809D02*
X29261762Y-40538809D01*
X29261762Y-40538809D02*
X29095095Y-40729285D01*
X29095095Y-40729285D02*
X29166524Y-40729285D01*
X29166524Y-40729285D02*
X29214143Y-40753095D01*
X29214143Y-40753095D02*
X29237952Y-40776904D01*
X29237952Y-40776904D02*
X29261762Y-40824523D01*
X29261762Y-40824523D02*
X29261762Y-40943571D01*
X29261762Y-40943571D02*
X29237952Y-40991190D01*
X29237952Y-40991190D02*
X29214143Y-41015000D01*
X29214143Y-41015000D02*
X29166524Y-41038809D01*
X29166524Y-41038809D02*
X29023667Y-41038809D01*
X29023667Y-41038809D02*
X28976048Y-41015000D01*
X28976048Y-41015000D02*
X28952238Y-40991190D01*
X29690333Y-40538809D02*
X29595095Y-40538809D01*
X29595095Y-40538809D02*
X29547476Y-40562619D01*
X29547476Y-40562619D02*
X29523666Y-40586428D01*
X29523666Y-40586428D02*
X29476047Y-40657857D01*
X29476047Y-40657857D02*
X29452238Y-40753095D01*
X29452238Y-40753095D02*
X29452238Y-40943571D01*
X29452238Y-40943571D02*
X29476047Y-40991190D01*
X29476047Y-40991190D02*
X29499857Y-41015000D01*
X29499857Y-41015000D02*
X29547476Y-41038809D01*
X29547476Y-41038809D02*
X29642714Y-41038809D01*
X29642714Y-41038809D02*
X29690333Y-41015000D01*
X29690333Y-41015000D02*
X29714142Y-40991190D01*
X29714142Y-40991190D02*
X29737952Y-40943571D01*
X29737952Y-40943571D02*
X29737952Y-40824523D01*
X29737952Y-40824523D02*
X29714142Y-40776904D01*
X29714142Y-40776904D02*
X29690333Y-40753095D01*
X29690333Y-40753095D02*
X29642714Y-40729285D01*
X29642714Y-40729285D02*
X29547476Y-40729285D01*
X29547476Y-40729285D02*
X29499857Y-40753095D01*
X29499857Y-40753095D02*
X29476047Y-40776904D01*
X29476047Y-40776904D02*
X29452238Y-40824523D01*
X38958666Y17561190D02*
X38792000Y17799285D01*
X38672952Y17561190D02*
X38672952Y18061190D01*
X38672952Y18061190D02*
X38863428Y18061190D01*
X38863428Y18061190D02*
X38911047Y18037380D01*
X38911047Y18037380D02*
X38934857Y18013571D01*
X38934857Y18013571D02*
X38958666Y17965952D01*
X38958666Y17965952D02*
X38958666Y17894523D01*
X38958666Y17894523D02*
X38934857Y17846904D01*
X38934857Y17846904D02*
X38911047Y17823095D01*
X38911047Y17823095D02*
X38863428Y17799285D01*
X38863428Y17799285D02*
X38672952Y17799285D01*
X39387238Y18061190D02*
X39292000Y18061190D01*
X39292000Y18061190D02*
X39244381Y18037380D01*
X39244381Y18037380D02*
X39220571Y18013571D01*
X39220571Y18013571D02*
X39172952Y17942142D01*
X39172952Y17942142D02*
X39149143Y17846904D01*
X39149143Y17846904D02*
X39149143Y17656428D01*
X39149143Y17656428D02*
X39172952Y17608809D01*
X39172952Y17608809D02*
X39196762Y17585000D01*
X39196762Y17585000D02*
X39244381Y17561190D01*
X39244381Y17561190D02*
X39339619Y17561190D01*
X39339619Y17561190D02*
X39387238Y17585000D01*
X39387238Y17585000D02*
X39411047Y17608809D01*
X39411047Y17608809D02*
X39434857Y17656428D01*
X39434857Y17656428D02*
X39434857Y17775476D01*
X39434857Y17775476D02*
X39411047Y17823095D01*
X39411047Y17823095D02*
X39387238Y17846904D01*
X39387238Y17846904D02*
X39339619Y17870714D01*
X39339619Y17870714D02*
X39244381Y17870714D01*
X39244381Y17870714D02*
X39196762Y17846904D01*
X39196762Y17846904D02*
X39172952Y17823095D01*
X39172952Y17823095D02*
X39149143Y17775476D01*
X9419857Y-79038809D02*
X9419857Y-78538809D01*
X9419857Y-78538809D02*
X9538905Y-78538809D01*
X9538905Y-78538809D02*
X9610333Y-78562619D01*
X9610333Y-78562619D02*
X9657952Y-78610238D01*
X9657952Y-78610238D02*
X9681762Y-78657857D01*
X9681762Y-78657857D02*
X9705571Y-78753095D01*
X9705571Y-78753095D02*
X9705571Y-78824523D01*
X9705571Y-78824523D02*
X9681762Y-78919761D01*
X9681762Y-78919761D02*
X9657952Y-78967380D01*
X9657952Y-78967380D02*
X9610333Y-79015000D01*
X9610333Y-79015000D02*
X9538905Y-79038809D01*
X9538905Y-79038809D02*
X9419857Y-79038809D01*
X9896048Y-78586428D02*
X9919857Y-78562619D01*
X9919857Y-78562619D02*
X9967476Y-78538809D01*
X9967476Y-78538809D02*
X10086524Y-78538809D01*
X10086524Y-78538809D02*
X10134143Y-78562619D01*
X10134143Y-78562619D02*
X10157952Y-78586428D01*
X10157952Y-78586428D02*
X10181762Y-78634047D01*
X10181762Y-78634047D02*
X10181762Y-78681666D01*
X10181762Y-78681666D02*
X10157952Y-78753095D01*
X10157952Y-78753095D02*
X9872238Y-79038809D01*
X9872238Y-79038809D02*
X10181762Y-79038809D01*
X10657952Y-79038809D02*
X10372238Y-79038809D01*
X10515095Y-79038809D02*
X10515095Y-78538809D01*
X10515095Y-78538809D02*
X10467476Y-78610238D01*
X10467476Y-78610238D02*
X10419857Y-78657857D01*
X10419857Y-78657857D02*
X10372238Y-78681666D01*
X47749857Y-41138809D02*
X47749857Y-40638809D01*
X47749857Y-40638809D02*
X47868905Y-40638809D01*
X47868905Y-40638809D02*
X47940333Y-40662619D01*
X47940333Y-40662619D02*
X47987952Y-40710238D01*
X47987952Y-40710238D02*
X48011762Y-40757857D01*
X48011762Y-40757857D02*
X48035571Y-40853095D01*
X48035571Y-40853095D02*
X48035571Y-40924523D01*
X48035571Y-40924523D02*
X48011762Y-41019761D01*
X48011762Y-41019761D02*
X47987952Y-41067380D01*
X47987952Y-41067380D02*
X47940333Y-41115000D01*
X47940333Y-41115000D02*
X47868905Y-41138809D01*
X47868905Y-41138809D02*
X47749857Y-41138809D01*
X48202238Y-40638809D02*
X48511762Y-40638809D01*
X48511762Y-40638809D02*
X48345095Y-40829285D01*
X48345095Y-40829285D02*
X48416524Y-40829285D01*
X48416524Y-40829285D02*
X48464143Y-40853095D01*
X48464143Y-40853095D02*
X48487952Y-40876904D01*
X48487952Y-40876904D02*
X48511762Y-40924523D01*
X48511762Y-40924523D02*
X48511762Y-41043571D01*
X48511762Y-41043571D02*
X48487952Y-41091190D01*
X48487952Y-41091190D02*
X48464143Y-41115000D01*
X48464143Y-41115000D02*
X48416524Y-41138809D01*
X48416524Y-41138809D02*
X48273667Y-41138809D01*
X48273667Y-41138809D02*
X48226048Y-41115000D01*
X48226048Y-41115000D02*
X48202238Y-41091190D01*
X48678428Y-40638809D02*
X49011761Y-40638809D01*
X49011761Y-40638809D02*
X48797476Y-41138809D01*
X42020571Y26661190D02*
X41853905Y26899285D01*
X41734857Y26661190D02*
X41734857Y27161190D01*
X41734857Y27161190D02*
X41925333Y27161190D01*
X41925333Y27161190D02*
X41972952Y27137380D01*
X41972952Y27137380D02*
X41996762Y27113571D01*
X41996762Y27113571D02*
X42020571Y27065952D01*
X42020571Y27065952D02*
X42020571Y26994523D01*
X42020571Y26994523D02*
X41996762Y26946904D01*
X41996762Y26946904D02*
X41972952Y26923095D01*
X41972952Y26923095D02*
X41925333Y26899285D01*
X41925333Y26899285D02*
X41734857Y26899285D01*
X42496762Y26661190D02*
X42211048Y26661190D01*
X42353905Y26661190D02*
X42353905Y27161190D01*
X42353905Y27161190D02*
X42306286Y27089761D01*
X42306286Y27089761D02*
X42258667Y27042142D01*
X42258667Y27042142D02*
X42211048Y27018333D01*
X42925333Y26994523D02*
X42925333Y26661190D01*
X42806285Y27185000D02*
X42687238Y26827857D01*
X42687238Y26827857D02*
X42996761Y26827857D01*
X38919190Y-42835428D02*
X38943000Y-42859237D01*
X38943000Y-42859237D02*
X38966809Y-42930666D01*
X38966809Y-42930666D02*
X38966809Y-42978285D01*
X38966809Y-42978285D02*
X38943000Y-43049713D01*
X38943000Y-43049713D02*
X38895380Y-43097332D01*
X38895380Y-43097332D02*
X38847761Y-43121142D01*
X38847761Y-43121142D02*
X38752523Y-43144951D01*
X38752523Y-43144951D02*
X38681095Y-43144951D01*
X38681095Y-43144951D02*
X38585857Y-43121142D01*
X38585857Y-43121142D02*
X38538238Y-43097332D01*
X38538238Y-43097332D02*
X38490619Y-43049713D01*
X38490619Y-43049713D02*
X38466809Y-42978285D01*
X38466809Y-42978285D02*
X38466809Y-42930666D01*
X38466809Y-42930666D02*
X38490619Y-42859237D01*
X38490619Y-42859237D02*
X38514428Y-42835428D01*
X38966809Y-42359237D02*
X38966809Y-42644951D01*
X38966809Y-42502094D02*
X38466809Y-42502094D01*
X38466809Y-42502094D02*
X38538238Y-42549713D01*
X38538238Y-42549713D02*
X38585857Y-42597332D01*
X38585857Y-42597332D02*
X38609666Y-42644951D01*
X38466809Y-42192571D02*
X38466809Y-41859238D01*
X38466809Y-41859238D02*
X38966809Y-42073523D01*
D12*
%TO.C,SW21*%
X64388000Y24532120D02*
X66788000Y24532120D01*
X64388000Y20432120D02*
X64388000Y24532120D01*
X64388000Y16432120D02*
X64388000Y12332120D01*
X64388000Y12332120D02*
X76188000Y12332120D01*
X66188000Y11232120D02*
X66488000Y10932120D01*
X66188000Y10632120D02*
X66188000Y11232120D01*
X66488000Y10932120D02*
X66188000Y10632120D01*
X68988000Y24532120D02*
X71588000Y24532120D01*
X69788000Y18432120D02*
X70788000Y18432120D01*
X70288000Y17932120D02*
X70288000Y18932120D01*
X73788000Y24532120D02*
X76188000Y24532120D01*
X76188000Y24532120D02*
X76188000Y20432120D01*
X76188000Y16432120D02*
X76188000Y12332120D01*
X73288000Y18432120D02*
G75*
G02*
X67288000Y18432120I-3000000J0D01*
G01*
X67288000Y18432120D02*
G75*
G02*
X73288000Y18432120I3000000J0D01*
G01*
%TO.C,U1*%
X10466400Y8655200D02*
X9666400Y8655200D01*
X10466400Y8655200D02*
X11266400Y8655200D01*
X10466400Y5535200D02*
X9666400Y5535200D01*
X10466400Y5535200D02*
X11266400Y5535200D01*
X12006400Y5255200D02*
X11526400Y5255200D01*
X11766400Y5585200D01*
X12006400Y5255200D01*
G36*
X12006400Y5255200D02*
G01*
X11526400Y5255200D01*
X11766400Y5585200D01*
X12006400Y5255200D01*
G37*
%TO.C,SW1*%
D11*
X17621789Y-75413880D02*
X2621789Y-75413880D01*
X2621789Y-90413880D01*
X17621789Y-90413880D01*
X17621789Y-75413880D01*
D12*
%TO.C,D46*%
X65507000Y-2064000D02*
X65507000Y236000D01*
X68407000Y-2064000D02*
X65507000Y-2064000D01*
X68407000Y-2064000D02*
X68707000Y-1764000D01*
X68707000Y236000D02*
X65507000Y236000D01*
X68707000Y236000D02*
X68707000Y-1764000D01*
%TO.C,R10*%
X29382136Y7540600D02*
X29836264Y7540600D01*
X29382136Y6070600D02*
X29836264Y6070600D01*
%TO.C,D42*%
X65757000Y-21064000D02*
X65757000Y-18764000D01*
X68657000Y-21064000D02*
X65757000Y-21064000D01*
X68657000Y-21064000D02*
X68957000Y-20764000D01*
X68957000Y-18764000D02*
X65757000Y-18764000D01*
X68957000Y-18764000D02*
X68957000Y-20764000D01*
%TO.C,D41*%
X46507000Y-21064000D02*
X46507000Y-18764000D01*
X49407000Y-21064000D02*
X46507000Y-21064000D01*
X49407000Y-21064000D02*
X49707000Y-20764000D01*
X49707000Y-18764000D02*
X46507000Y-18764000D01*
X49707000Y-18764000D02*
X49707000Y-20764000D01*
%TO.C,U3*%
X17411800Y6500800D02*
X17411800Y8450800D01*
X17411800Y6500800D02*
X17411800Y4550800D01*
X27531800Y6500800D02*
X27531800Y8450800D01*
X27531800Y6500800D02*
X27531800Y4550800D01*
X17466800Y3800800D02*
X17136800Y3560800D01*
X17136800Y4040800D01*
X17466800Y3800800D01*
G36*
X17466800Y3800800D02*
G01*
X17136800Y3560800D01*
X17136800Y4040800D01*
X17466800Y3800800D01*
G37*
%TO.C,D34*%
X65757000Y-58964000D02*
X65757000Y-56664000D01*
X68657000Y-58964000D02*
X65757000Y-58964000D01*
X68657000Y-58964000D02*
X68957000Y-58664000D01*
X68957000Y-56664000D02*
X65757000Y-56664000D01*
X68957000Y-56664000D02*
X68957000Y-58664000D01*
%TO.C,C6*%
X36247348Y23588800D02*
X33415852Y23588800D01*
X36247348Y18368800D02*
X33415852Y18368800D01*
%TO.C,R17*%
X2217064Y10639400D02*
X1762936Y10639400D01*
X2217064Y9169400D02*
X1762936Y9169400D01*
%TO.C,R5*%
X41336136Y18107000D02*
X41790264Y18107000D01*
X41336136Y16637000D02*
X41790264Y16637000D01*
%TO.C,C18*%
X37957000Y-58162752D02*
X37957000Y-57640248D01*
X39427000Y-58162752D02*
X39427000Y-57640248D01*
%TO.C,C8*%
X39694600Y24948452D02*
X39694600Y24425948D01*
X41164600Y24948452D02*
X41164600Y24425948D01*
%TO.C,J2*%
X3520789Y23354120D02*
X5220789Y23354120D01*
X3520789Y14014120D02*
X5220789Y14014120D01*
%TO.C,Q1*%
X4290000Y10994300D02*
X4290000Y11644300D01*
X4290000Y10994300D02*
X4290000Y10344300D01*
X7410000Y10994300D02*
X7410000Y11644300D01*
X7410000Y10994300D02*
X7410000Y10344300D01*
X4340000Y9831800D02*
X4010000Y9591800D01*
X4010000Y10071800D01*
X4340000Y9831800D01*
G36*
X4340000Y9831800D02*
G01*
X4010000Y9591800D01*
X4010000Y10071800D01*
X4340000Y9831800D01*
G37*
%TO.C,SW4*%
D11*
X74825789Y-75413880D02*
X59825789Y-75413880D01*
X59825789Y-90413880D01*
X74825789Y-90413880D01*
X74825789Y-75413880D01*
D12*
%TO.C,U6*%
X21075500Y17168800D02*
X21075500Y17968800D01*
X21075500Y17168800D02*
X21075500Y16368800D01*
X24195500Y17168800D02*
X24195500Y17968800D01*
X24195500Y17168800D02*
X24195500Y16368800D01*
X21125500Y15868800D02*
X20795500Y15628800D01*
X20795500Y16108800D01*
X21125500Y15868800D01*
G36*
X21125500Y15868800D02*
G01*
X20795500Y15628800D01*
X20795500Y16108800D01*
X21125500Y15868800D01*
G37*
%TO.C,D23*%
X68657000Y8685000D02*
X68657000Y4800000D01*
X68657000Y4800000D02*
X70927000Y4800000D01*
X70927000Y4800000D02*
X70927000Y8685000D01*
%TO.C,D28*%
X5607000Y6859200D02*
X5607000Y2974200D01*
X5607000Y2974200D02*
X7877000Y2974200D01*
X7877000Y2974200D02*
X7877000Y6859200D01*
%TO.C,SW13*%
D11*
X17708789Y-18263880D02*
X2708789Y-18263880D01*
X2708789Y-33263880D01*
X17708789Y-33263880D01*
X17708789Y-18263880D01*
%TO.C,SW20*%
X74771789Y659120D02*
X59771789Y659120D01*
X59771789Y-14340880D01*
X74771789Y-14340880D01*
X74771789Y659120D01*
%TO.C,SW3*%
X55721789Y-75413880D02*
X40721789Y-75413880D01*
X40721789Y-90413880D01*
X55721789Y-90413880D01*
X55721789Y-75413880D01*
D12*
%TO.C,C7*%
X37838852Y26156000D02*
X36416348Y26156000D01*
X37838852Y24336000D02*
X36416348Y24336000D01*
%TO.C,SW19*%
D11*
X55681789Y659120D02*
X40681789Y659120D01*
X40681789Y-14340880D01*
X55681789Y-14340880D01*
X55681789Y659120D01*
D12*
%TO.C,L1*%
X14949200Y17096400D02*
X16399200Y17096400D01*
X14949200Y10876400D02*
X14949200Y17096400D01*
X14949200Y10876400D02*
X16399200Y10876400D01*
X20869200Y17096400D02*
X19419200Y17096400D01*
X20869200Y10876400D02*
X19419200Y10876400D01*
X20869200Y10876400D02*
X20869200Y17096400D01*
%TO.C,U4*%
X44201789Y33364120D02*
X44201789Y27164120D01*
X44201789Y33364120D02*
X62601789Y33364120D01*
X44201789Y8514120D02*
X44201789Y7514120D01*
X44201789Y7514120D02*
X45701789Y7514120D01*
X62601789Y33364120D02*
X62601789Y27164120D01*
X62601789Y7514120D02*
X61101789Y7514120D01*
X62601789Y7514120D02*
X62601789Y8514120D01*
X44201789Y26489120D02*
X43701789Y26489120D01*
X44201789Y26989120D01*
X44201789Y26489120D01*
G36*
X44201789Y26489120D02*
G01*
X43701789Y26489120D01*
X44201789Y26989120D01*
X44201789Y26489120D01*
G37*
%TO.C,R16*%
X2217064Y12613920D02*
X1762936Y12613920D01*
X2217064Y11143920D02*
X1762936Y11143920D01*
%TO.C,SW8*%
D11*
X74813789Y-56362880D02*
X59813789Y-56362880D01*
X59813789Y-71362880D01*
X74813789Y-71362880D01*
X74813789Y-56362880D01*
D12*
%TO.C,D40*%
X27507000Y-20964000D02*
X27507000Y-18664000D01*
X30407000Y-20964000D02*
X27507000Y-20964000D01*
X30407000Y-20964000D02*
X30707000Y-20664000D01*
X30707000Y-18664000D02*
X27507000Y-18664000D01*
X30707000Y-18664000D02*
X30707000Y-20664000D01*
%TO.C,R8*%
X14666364Y5102200D02*
X14212236Y5102200D01*
X14666364Y3632200D02*
X14212236Y3632200D01*
%TO.C,SW15*%
D11*
X55681789Y-18263880D02*
X40681789Y-18263880D01*
X40681789Y-33263880D01*
X55681789Y-33263880D01*
X55681789Y-18263880D01*
D12*
%TO.C,C1*%
X3752052Y27215600D02*
X2329548Y27215600D01*
X3752052Y24495600D02*
X2329548Y24495600D01*
%TO.C,Q4*%
X26525200Y13155600D02*
X26525200Y13805600D01*
X26525200Y13155600D02*
X26525200Y12505600D01*
X29645200Y13155600D02*
X29645200Y13805600D01*
X29645200Y13155600D02*
X29645200Y12505600D01*
X29925200Y14078100D02*
X29595200Y14318100D01*
X29925200Y14558100D01*
X29925200Y14078100D01*
G36*
X29925200Y14078100D02*
G01*
X29595200Y14318100D01*
X29925200Y14558100D01*
X29925200Y14078100D01*
G37*
%TO.C,Q6*%
X29632300Y11093600D02*
X28982300Y11093600D01*
X29632300Y11093600D02*
X30282300Y11093600D01*
X29632300Y7973600D02*
X28982300Y7973600D01*
X29632300Y7973600D02*
X30282300Y7973600D01*
X28469800Y11043600D02*
X28229800Y11373600D01*
X28709800Y11373600D01*
X28469800Y11043600D01*
G36*
X28469800Y11043600D02*
G01*
X28229800Y11373600D01*
X28709800Y11373600D01*
X28469800Y11043600D01*
G37*
%TO.C,C3*%
X26662748Y18859000D02*
X28085252Y18859000D01*
X26662748Y16139000D02*
X28085252Y16139000D01*
%TO.C,R12*%
X64383400Y6857936D02*
X64383400Y7312064D01*
X65853400Y6857936D02*
X65853400Y7312064D01*
%TO.C,R3*%
X10208436Y10487000D02*
X10662564Y10487000D01*
X10208436Y9017000D02*
X10662564Y9017000D01*
%TO.C,J3*%
X35381000Y14140000D02*
X35381000Y3840000D01*
X35381000Y3840000D02*
X37121000Y3840000D01*
X37121000Y14140000D02*
X35381000Y14140000D01*
X41181000Y14140000D02*
X39841000Y14140000D01*
X41181000Y12650000D02*
X41181000Y14140000D01*
X41181000Y12650000D02*
X42381000Y12650000D01*
X41181000Y5330000D02*
X41181000Y3840000D01*
X41181000Y3840000D02*
X39841000Y3840000D01*
%TO.C,D31*%
X8507000Y-58964000D02*
X8507000Y-56664000D01*
X11407000Y-58964000D02*
X8507000Y-58964000D01*
X11407000Y-58964000D02*
X11707000Y-58664000D01*
X11707000Y-56664000D02*
X8507000Y-56664000D01*
X11707000Y-56664000D02*
X11707000Y-58664000D01*
%TO.C,D45*%
X46757000Y-2064000D02*
X46757000Y236000D01*
X49657000Y-2064000D02*
X46757000Y-2064000D01*
X49657000Y-2064000D02*
X49957000Y-1764000D01*
X49957000Y236000D02*
X46757000Y236000D01*
X49957000Y236000D02*
X49957000Y-1764000D01*
%TO.C,D39*%
X8757000Y-21064000D02*
X8757000Y-18764000D01*
X11657000Y-21064000D02*
X8757000Y-21064000D01*
X11657000Y-21064000D02*
X11957000Y-20764000D01*
X11957000Y-18764000D02*
X8757000Y-18764000D01*
X11957000Y-18764000D02*
X11957000Y-20764000D01*
%TO.C,SW10*%
D11*
X36631789Y-37312880D02*
X21631789Y-37312880D01*
X21631789Y-52312880D01*
X36631789Y-52312880D01*
X36631789Y-37312880D01*
%TO.C,SW14*%
X36631789Y-18263880D02*
X21631789Y-18263880D01*
X21631789Y-33263880D01*
X36631789Y-33263880D01*
X36631789Y-18263880D01*
D12*
%TO.C,J1*%
X5989389Y33600120D02*
X34189389Y33600120D01*
X5989389Y24480120D02*
X5989389Y33600120D01*
X18039389Y24480120D02*
X18039389Y33600120D01*
X22139389Y24480120D02*
X22139389Y33600120D01*
X34189389Y33600120D02*
X34189389Y24480120D01*
X34189389Y24480120D02*
X5989389Y24480120D01*
%TO.C,C2*%
X9406400Y16095348D02*
X9406400Y13263852D01*
X14626400Y16095348D02*
X14626400Y13263852D01*
%TO.C,D22*%
X66350789Y8687720D02*
X66350789Y4802720D01*
X66350789Y4802720D02*
X68620789Y4802720D01*
X68620789Y4802720D02*
X68620789Y8687720D01*
%TO.C,D32*%
X27507000Y-59064000D02*
X27507000Y-56764000D01*
X30407000Y-59064000D02*
X27507000Y-59064000D01*
X30407000Y-59064000D02*
X30707000Y-58764000D01*
X30707000Y-56764000D02*
X27507000Y-56764000D01*
X30707000Y-56764000D02*
X30707000Y-58764000D01*
%TO.C,D30*%
X65757000Y-77964000D02*
X65757000Y-75664000D01*
X68657000Y-77964000D02*
X65757000Y-77964000D01*
X68657000Y-77964000D02*
X68957000Y-77664000D01*
X68957000Y-75664000D02*
X65757000Y-75664000D01*
X68957000Y-75664000D02*
X68957000Y-77664000D01*
%TO.C,SW11*%
D11*
X55763789Y-37312880D02*
X40763789Y-37312880D01*
X40763789Y-52312880D01*
X55763789Y-52312880D01*
X55763789Y-37312880D01*
D12*
%TO.C,C5*%
X30815737Y5241000D02*
X29368263Y5241000D01*
X30815737Y2531000D02*
X29368263Y2531000D01*
%TO.C,D33*%
X46757000Y-58964000D02*
X46757000Y-56664000D01*
X49657000Y-58964000D02*
X46757000Y-58964000D01*
X49657000Y-58964000D02*
X49957000Y-58664000D01*
X49957000Y-56664000D02*
X46757000Y-56664000D01*
X49957000Y-56664000D02*
X49957000Y-58664000D01*
%TO.C,D24*%
X27592000Y-77964000D02*
X27592000Y-75664000D01*
X30492000Y-77964000D02*
X27592000Y-77964000D01*
X30492000Y-77964000D02*
X30792000Y-77664000D01*
X30792000Y-75664000D02*
X27592000Y-75664000D01*
X30792000Y-75664000D02*
X30792000Y-77664000D01*
%TO.C,D43*%
X8507000Y-1964000D02*
X8507000Y336000D01*
X11407000Y-1964000D02*
X8507000Y-1964000D01*
X11407000Y-1964000D02*
X11707000Y-1664000D01*
X11707000Y336000D02*
X8507000Y336000D01*
X11707000Y336000D02*
X11707000Y-1664000D01*
%TO.C,SW2*%
D11*
X36598789Y-75413880D02*
X21598789Y-75413880D01*
X21598789Y-90413880D01*
X36598789Y-90413880D01*
X36598789Y-75413880D01*
%TO.C,SW16*%
X74858789Y-18263880D02*
X59858789Y-18263880D01*
X59858789Y-33263880D01*
X74858789Y-33263880D01*
X74858789Y-18263880D01*
D12*
%TO.C,R4*%
X10106836Y5102200D02*
X10560964Y5102200D01*
X10106836Y3632200D02*
X10560964Y3632200D01*
%TO.C,U2*%
X14648000Y10586700D02*
X13848000Y10586700D01*
X14648000Y10586700D02*
X15448000Y10586700D01*
X14648000Y7466700D02*
X13848000Y7466700D01*
X14648000Y7466700D02*
X15448000Y7466700D01*
X16188000Y7186700D02*
X15708000Y7186700D01*
X15948000Y7516700D01*
X16188000Y7186700D01*
G36*
X16188000Y7186700D02*
G01*
X15708000Y7186700D01*
X15948000Y7516700D01*
X16188000Y7186700D01*
G37*
%TO.C,D38*%
X65757000Y-40064000D02*
X65757000Y-37764000D01*
X68657000Y-40064000D02*
X65757000Y-40064000D01*
X68657000Y-40064000D02*
X68957000Y-39764000D01*
X68957000Y-37764000D02*
X65757000Y-37764000D01*
X68957000Y-37764000D02*
X68957000Y-39764000D01*
%TO.C,C14*%
X37957000Y-1662752D02*
X37957000Y-1140248D01*
X39427000Y-1662752D02*
X39427000Y-1140248D01*
%TO.C,SW17*%
D11*
X17708789Y659120D02*
X2708789Y659120D01*
X2708789Y-14340880D01*
X17708789Y-14340880D01*
X17708789Y659120D01*
%TO.C,SW18*%
X36631789Y659120D02*
X21631789Y659120D01*
X21631789Y-14340880D01*
X36631789Y-14340880D01*
X36631789Y659120D01*
D12*
%TO.C,R9*%
X14615564Y7084400D02*
X14161436Y7084400D01*
X14615564Y5614400D02*
X14161436Y5614400D01*
%TO.C,Q2*%
X21058700Y13183300D02*
X21058700Y13833300D01*
X21058700Y13183300D02*
X21058700Y12533300D01*
X24178700Y13183300D02*
X24178700Y13833300D01*
X24178700Y13183300D02*
X24178700Y12533300D01*
X21108700Y12020800D02*
X20778700Y11780800D01*
X20778700Y12260800D01*
X21108700Y12020800D01*
G36*
X21108700Y12020800D02*
G01*
X20778700Y11780800D01*
X20778700Y12260800D01*
X21108700Y12020800D01*
G37*
%TO.C,C19*%
X37957000Y-77162752D02*
X37957000Y-76640248D01*
X39427000Y-77162752D02*
X39427000Y-76640248D01*
%TO.C,SW9*%
D11*
X17648789Y-37278880D02*
X2648789Y-37278880D01*
X2648789Y-52278880D01*
X17648789Y-52278880D01*
X17648789Y-37278880D01*
%TO.C,SW12*%
X74858789Y-37313880D02*
X59858789Y-37313880D01*
X59858789Y-52313880D01*
X74858789Y-52313880D01*
X74858789Y-37313880D01*
D12*
%TO.C,C4*%
X41750452Y22396800D02*
X40327948Y22396800D01*
X41750452Y20576800D02*
X40327948Y20576800D01*
%TO.C,D29*%
X46677000Y-77964000D02*
X46677000Y-75664000D01*
X49577000Y-77964000D02*
X46677000Y-77964000D01*
X49577000Y-77964000D02*
X49877000Y-77664000D01*
X49877000Y-75664000D02*
X46677000Y-75664000D01*
X49877000Y-75664000D02*
X49877000Y-77664000D01*
%TO.C,SW5*%
D11*
X17621789Y-56363880D02*
X2621789Y-56363880D01*
X2621789Y-71363880D01*
X17621789Y-71363880D01*
X17621789Y-56363880D01*
D12*
%TO.C,D35*%
X8507000Y-39964000D02*
X8507000Y-37664000D01*
X11407000Y-39964000D02*
X8507000Y-39964000D01*
X11407000Y-39964000D02*
X11707000Y-39664000D01*
X11707000Y-37664000D02*
X8507000Y-37664000D01*
X11707000Y-37664000D02*
X11707000Y-39664000D01*
%TO.C,R7*%
X24607000Y13382664D02*
X24607000Y12928536D01*
X26077000Y13382664D02*
X26077000Y12928536D01*
%TO.C,C16*%
X37957000Y-20162752D02*
X37957000Y-19640248D01*
X39427000Y-20162752D02*
X39427000Y-19640248D01*
%TO.C,D44*%
X27507000Y-2064000D02*
X27507000Y236000D01*
X30407000Y-2064000D02*
X27507000Y-2064000D01*
X30407000Y-2064000D02*
X30707000Y-1764000D01*
X30707000Y236000D02*
X27507000Y236000D01*
X30707000Y236000D02*
X30707000Y-1764000D01*
%TO.C,SW7*%
D11*
X55763789Y-56362880D02*
X40763789Y-56362880D01*
X40763789Y-71362880D01*
X55763789Y-71362880D01*
X55763789Y-56362880D01*
%TO.C,SW6*%
X36586789Y-56362880D02*
X21586789Y-56362880D01*
X21586789Y-71362880D01*
X36586789Y-71362880D01*
X36586789Y-56362880D01*
D12*
%TO.C,D36*%
X27507000Y-39964000D02*
X27507000Y-37664000D01*
X30407000Y-39964000D02*
X27507000Y-39964000D01*
X30407000Y-39964000D02*
X30707000Y-39664000D01*
X30707000Y-37664000D02*
X27507000Y-37664000D01*
X30707000Y-37664000D02*
X30707000Y-39664000D01*
%TO.C,R6*%
X41739464Y20037400D02*
X41285336Y20037400D01*
X41739464Y18567400D02*
X41285336Y18567400D01*
%TO.C,D21*%
X8427000Y-77964000D02*
X8427000Y-75664000D01*
X11327000Y-77964000D02*
X8427000Y-77964000D01*
X11327000Y-77964000D02*
X11627000Y-77664000D01*
X11627000Y-75664000D02*
X8427000Y-75664000D01*
X11627000Y-75664000D02*
X11627000Y-77664000D01*
%TO.C,D37*%
X46757000Y-40064000D02*
X46757000Y-37764000D01*
X49657000Y-40064000D02*
X46757000Y-40064000D01*
X49657000Y-40064000D02*
X49957000Y-39764000D01*
X49957000Y-37764000D02*
X46757000Y-37764000D01*
X49957000Y-37764000D02*
X49957000Y-39764000D01*
%TO.C,R14*%
X41675800Y24847464D02*
X41675800Y24393336D01*
X43145800Y24847464D02*
X43145800Y24393336D01*
%TO.C,C17*%
X37957000Y-39125252D02*
X37957000Y-38602748D01*
X39427000Y-39125252D02*
X39427000Y-38602748D01*
%TD*%
M02*
