M48
; DRILL file {KiCad 8.0.7-8.0.7-0~ubuntu22.04.1} date 2024-12-28T00:37:08+0000
; FORMAT={-:-/ absolute / inch / decimal}
; #@! TF.CreationDate,2024-12-28T00:37:08+00:00
; #@! TF.GenerationSoftware,Kicad,Pcbnew,8.0.7-8.0.7-0~ubuntu22.04.1
; #@! TF.FileFunction,Plated,1,2,PTH
FMAT,2
INCH
; #@! TA.AperFunction,Plated,PTH,ViaDrill
T1C0.0157
%
G90
G05
T1
X0.3431Y0.7654
X0.4967Y0.5685
X0.5045Y0.8048
X0.5182Y0.8868
X0.5512Y0.8356
X0.5597Y0.8896
X0.5636Y0.7181
X0.5675Y0.4819
X0.5867Y0.8227
X0.6108Y0.7181
X0.6148Y0.9676
X0.6148Y0.4347
X0.6151Y0.8524
X0.6227Y1.1276
X0.6305Y0.9307
X0.6305Y0.3796
X0.8271Y0.8898
X0.8274Y0.852
X0.8274Y0.8142
X0.8353Y0.9701
X0.8386Y0.7376
X0.84Y0.7754
X0.9101Y1.0095
X0.977Y0.7103
X0.977Y0.4859
X0.977Y0.4426
X0.977Y0.3993
X1.04Y0.7418
X1.2998Y1.1827
X1.5203Y0.6552
X1.574Y0.6908
X1.6148Y0.6552
X1.6541Y0.5292
X1.729Y0.6709
X1.7723Y0.6552
X2.0479Y0.2457
X2.1266Y0.4111
X2.7723Y1.104
X2.7884Y1.1807
X2.8121Y1.104
M30
