%TF.GenerationSoftware,KiCad,Pcbnew,8.0.8-8.0.8-0~ubuntu22.04.1*%
%TF.CreationDate,2025-02-03T23:54:13+00:00*%
%TF.ProjectId,numcalcium,6e756d63-616c-4636-9975-6d2e6b696361,rev?*%
%TF.SameCoordinates,Original*%
%TF.FileFunction,Legend,Bot*%
%TF.FilePolarity,Positive*%
%FSLAX46Y46*%
G04 Gerber Fmt 4.6, Leading zero omitted, Abs format (unit mm)*
G04 Created by KiCad (PCBNEW 8.0.8-8.0.8-0~ubuntu22.04.1) date 2025-02-03 23:54:13*
%MOMM*%
%LPD*%
G01*
G04 APERTURE LIST*
%ADD10C,0.125000*%
%ADD11C,0.250000*%
%ADD12C,0.375000*%
%ADD13C,0.150000*%
%ADD14C,0.120000*%
%ADD15C,0.100000*%
G04 APERTURE END LIST*
D10*
X18427713Y41511190D02*
X18713427Y41511190D01*
X18570570Y41511190D02*
X18570570Y42011190D01*
X18570570Y42011190D02*
X18618189Y41939761D01*
X18618189Y41939761D02*
X18665808Y41892142D01*
X18665808Y41892142D02*
X18713427Y41868333D01*
X18118190Y42011190D02*
X18070571Y42011190D01*
X18070571Y42011190D02*
X18022952Y41987380D01*
X18022952Y41987380D02*
X17999142Y41963571D01*
X17999142Y41963571D02*
X17975333Y41915952D01*
X17975333Y41915952D02*
X17951523Y41820714D01*
X17951523Y41820714D02*
X17951523Y41701666D01*
X17951523Y41701666D02*
X17975333Y41606428D01*
X17975333Y41606428D02*
X17999142Y41558809D01*
X17999142Y41558809D02*
X18022952Y41535000D01*
X18022952Y41535000D02*
X18070571Y41511190D01*
X18070571Y41511190D02*
X18118190Y41511190D01*
X18118190Y41511190D02*
X18165809Y41535000D01*
X18165809Y41535000D02*
X18189618Y41558809D01*
X18189618Y41558809D02*
X18213428Y41606428D01*
X18213428Y41606428D02*
X18237237Y41701666D01*
X18237237Y41701666D02*
X18237237Y41820714D01*
X18237237Y41820714D02*
X18213428Y41915952D01*
X18213428Y41915952D02*
X18189618Y41963571D01*
X18189618Y41963571D02*
X18165809Y41987380D01*
X18165809Y41987380D02*
X18118190Y42011190D01*
X17642000Y42011190D02*
X17594381Y42011190D01*
X17594381Y42011190D02*
X17546762Y41987380D01*
X17546762Y41987380D02*
X17522952Y41963571D01*
X17522952Y41963571D02*
X17499143Y41915952D01*
X17499143Y41915952D02*
X17475333Y41820714D01*
X17475333Y41820714D02*
X17475333Y41701666D01*
X17475333Y41701666D02*
X17499143Y41606428D01*
X17499143Y41606428D02*
X17522952Y41558809D01*
X17522952Y41558809D02*
X17546762Y41535000D01*
X17546762Y41535000D02*
X17594381Y41511190D01*
X17594381Y41511190D02*
X17642000Y41511190D01*
X17642000Y41511190D02*
X17689619Y41535000D01*
X17689619Y41535000D02*
X17713428Y41558809D01*
X17713428Y41558809D02*
X17737238Y41606428D01*
X17737238Y41606428D02*
X17761047Y41701666D01*
X17761047Y41701666D02*
X17761047Y41820714D01*
X17761047Y41820714D02*
X17737238Y41915952D01*
X17737238Y41915952D02*
X17713428Y41963571D01*
X17713428Y41963571D02*
X17689619Y41987380D01*
X17689619Y41987380D02*
X17642000Y42011190D01*
X17261048Y41511190D02*
X17261048Y42011190D01*
X17213429Y41701666D02*
X17070572Y41511190D01*
X17070572Y41844523D02*
X17261048Y41654047D01*
X18289618Y39511190D02*
X18575332Y39511190D01*
X18432475Y39511190D02*
X18432475Y40011190D01*
X18432475Y40011190D02*
X18480094Y39939761D01*
X18480094Y39939761D02*
X18527713Y39892142D01*
X18527713Y39892142D02*
X18575332Y39868333D01*
X17861047Y39844523D02*
X17861047Y39511190D01*
X18075333Y39844523D02*
X18075333Y39582619D01*
X18075333Y39582619D02*
X18051523Y39535000D01*
X18051523Y39535000D02*
X18003904Y39511190D01*
X18003904Y39511190D02*
X17932476Y39511190D01*
X17932476Y39511190D02*
X17884857Y39535000D01*
X17884857Y39535000D02*
X17861047Y39558809D01*
X17456285Y39773095D02*
X17622952Y39773095D01*
X17622952Y39511190D02*
X17622952Y40011190D01*
X17622952Y40011190D02*
X17384857Y40011190D01*
X18365808Y37511190D02*
X18651522Y37511190D01*
X18508665Y37511190D02*
X18508665Y38011190D01*
X18508665Y38011190D02*
X18556284Y37939761D01*
X18556284Y37939761D02*
X18603903Y37892142D01*
X18603903Y37892142D02*
X18651522Y37868333D01*
X18056285Y38011190D02*
X18008666Y38011190D01*
X18008666Y38011190D02*
X17961047Y37987380D01*
X17961047Y37987380D02*
X17937237Y37963571D01*
X17937237Y37963571D02*
X17913428Y37915952D01*
X17913428Y37915952D02*
X17889618Y37820714D01*
X17889618Y37820714D02*
X17889618Y37701666D01*
X17889618Y37701666D02*
X17913428Y37606428D01*
X17913428Y37606428D02*
X17937237Y37558809D01*
X17937237Y37558809D02*
X17961047Y37535000D01*
X17961047Y37535000D02*
X18008666Y37511190D01*
X18008666Y37511190D02*
X18056285Y37511190D01*
X18056285Y37511190D02*
X18103904Y37535000D01*
X18103904Y37535000D02*
X18127713Y37558809D01*
X18127713Y37558809D02*
X18151523Y37606428D01*
X18151523Y37606428D02*
X18175332Y37701666D01*
X18175332Y37701666D02*
X18175332Y37820714D01*
X18175332Y37820714D02*
X18151523Y37915952D01*
X18151523Y37915952D02*
X18127713Y37963571D01*
X18127713Y37963571D02*
X18103904Y37987380D01*
X18103904Y37987380D02*
X18056285Y38011190D01*
X17580095Y38011190D02*
X17532476Y38011190D01*
X17532476Y38011190D02*
X17484857Y37987380D01*
X17484857Y37987380D02*
X17461047Y37963571D01*
X17461047Y37963571D02*
X17437238Y37915952D01*
X17437238Y37915952D02*
X17413428Y37820714D01*
X17413428Y37820714D02*
X17413428Y37701666D01*
X17413428Y37701666D02*
X17437238Y37606428D01*
X17437238Y37606428D02*
X17461047Y37558809D01*
X17461047Y37558809D02*
X17484857Y37535000D01*
X17484857Y37535000D02*
X17532476Y37511190D01*
X17532476Y37511190D02*
X17580095Y37511190D01*
X17580095Y37511190D02*
X17627714Y37535000D01*
X17627714Y37535000D02*
X17651523Y37558809D01*
X17651523Y37558809D02*
X17675333Y37606428D01*
X17675333Y37606428D02*
X17699142Y37701666D01*
X17699142Y37701666D02*
X17699142Y37820714D01*
X17699142Y37820714D02*
X17675333Y37915952D01*
X17675333Y37915952D02*
X17651523Y37963571D01*
X17651523Y37963571D02*
X17627714Y37987380D01*
X17627714Y37987380D02*
X17580095Y38011190D01*
X17199143Y37844523D02*
X17199143Y37511190D01*
X17199143Y37796904D02*
X17175333Y37820714D01*
X17175333Y37820714D02*
X17127714Y37844523D01*
X17127714Y37844523D02*
X17056286Y37844523D01*
X17056286Y37844523D02*
X17008667Y37820714D01*
X17008667Y37820714D02*
X16984857Y37773095D01*
X16984857Y37773095D02*
X16984857Y37511190D01*
X16580095Y37773095D02*
X16746762Y37773095D01*
X16746762Y37511190D02*
X16746762Y38011190D01*
X16746762Y38011190D02*
X16508667Y38011190D01*
X18189618Y35511190D02*
X18475332Y35511190D01*
X18332475Y35511190D02*
X18332475Y36011190D01*
X18332475Y36011190D02*
X18380094Y35939761D01*
X18380094Y35939761D02*
X18427713Y35892142D01*
X18427713Y35892142D02*
X18475332Y35868333D01*
X17761047Y35844523D02*
X17761047Y35511190D01*
X17975333Y35844523D02*
X17975333Y35582619D01*
X17975333Y35582619D02*
X17951523Y35535000D01*
X17951523Y35535000D02*
X17903904Y35511190D01*
X17903904Y35511190D02*
X17832476Y35511190D01*
X17832476Y35511190D02*
X17784857Y35535000D01*
X17784857Y35535000D02*
X17761047Y35558809D01*
X17356285Y35773095D02*
X17522952Y35773095D01*
X17522952Y35511190D02*
X17522952Y36011190D01*
X17522952Y36011190D02*
X17284857Y36011190D01*
X18275332Y33511190D02*
X18561046Y33511190D01*
X18418189Y33511190D02*
X18418189Y34011190D01*
X18418189Y34011190D02*
X18465808Y33939761D01*
X18465808Y33939761D02*
X18513427Y33892142D01*
X18513427Y33892142D02*
X18561046Y33868333D01*
X17965809Y34011190D02*
X17918190Y34011190D01*
X17918190Y34011190D02*
X17870571Y33987380D01*
X17870571Y33987380D02*
X17846761Y33963571D01*
X17846761Y33963571D02*
X17822952Y33915952D01*
X17822952Y33915952D02*
X17799142Y33820714D01*
X17799142Y33820714D02*
X17799142Y33701666D01*
X17799142Y33701666D02*
X17822952Y33606428D01*
X17822952Y33606428D02*
X17846761Y33558809D01*
X17846761Y33558809D02*
X17870571Y33535000D01*
X17870571Y33535000D02*
X17918190Y33511190D01*
X17918190Y33511190D02*
X17965809Y33511190D01*
X17965809Y33511190D02*
X18013428Y33535000D01*
X18013428Y33535000D02*
X18037237Y33558809D01*
X18037237Y33558809D02*
X18061047Y33606428D01*
X18061047Y33606428D02*
X18084856Y33701666D01*
X18084856Y33701666D02*
X18084856Y33820714D01*
X18084856Y33820714D02*
X18061047Y33915952D01*
X18061047Y33915952D02*
X18037237Y33963571D01*
X18037237Y33963571D02*
X18013428Y33987380D01*
X18013428Y33987380D02*
X17965809Y34011190D01*
X17489619Y34011190D02*
X17442000Y34011190D01*
X17442000Y34011190D02*
X17394381Y33987380D01*
X17394381Y33987380D02*
X17370571Y33963571D01*
X17370571Y33963571D02*
X17346762Y33915952D01*
X17346762Y33915952D02*
X17322952Y33820714D01*
X17322952Y33820714D02*
X17322952Y33701666D01*
X17322952Y33701666D02*
X17346762Y33606428D01*
X17346762Y33606428D02*
X17370571Y33558809D01*
X17370571Y33558809D02*
X17394381Y33535000D01*
X17394381Y33535000D02*
X17442000Y33511190D01*
X17442000Y33511190D02*
X17489619Y33511190D01*
X17489619Y33511190D02*
X17537238Y33535000D01*
X17537238Y33535000D02*
X17561047Y33558809D01*
X17561047Y33558809D02*
X17584857Y33606428D01*
X17584857Y33606428D02*
X17608666Y33701666D01*
X17608666Y33701666D02*
X17608666Y33820714D01*
X17608666Y33820714D02*
X17584857Y33915952D01*
X17584857Y33915952D02*
X17561047Y33963571D01*
X17561047Y33963571D02*
X17537238Y33987380D01*
X17537238Y33987380D02*
X17489619Y34011190D01*
X16822953Y33511190D02*
X16989619Y33749285D01*
X17108667Y33511190D02*
X17108667Y34011190D01*
X17108667Y34011190D02*
X16918191Y34011190D01*
X16918191Y34011190D02*
X16870572Y33987380D01*
X16870572Y33987380D02*
X16846762Y33963571D01*
X16846762Y33963571D02*
X16822953Y33915952D01*
X16822953Y33915952D02*
X16822953Y33844523D01*
X16822953Y33844523D02*
X16846762Y33796904D01*
X16846762Y33796904D02*
X16870572Y33773095D01*
X16870572Y33773095D02*
X16918191Y33749285D01*
X16918191Y33749285D02*
X17108667Y33749285D01*
X19067190Y30893142D02*
X19567190Y30893142D01*
X19567190Y30893142D02*
X19067190Y31178856D01*
X19067190Y31178856D02*
X19567190Y31178856D01*
X18327713Y28011190D02*
X18613427Y28011190D01*
X18470570Y28011190D02*
X18470570Y28511190D01*
X18470570Y28511190D02*
X18518189Y28439761D01*
X18518189Y28439761D02*
X18565808Y28392142D01*
X18565808Y28392142D02*
X18613427Y28368333D01*
X18018190Y28511190D02*
X17970571Y28511190D01*
X17970571Y28511190D02*
X17922952Y28487380D01*
X17922952Y28487380D02*
X17899142Y28463571D01*
X17899142Y28463571D02*
X17875333Y28415952D01*
X17875333Y28415952D02*
X17851523Y28320714D01*
X17851523Y28320714D02*
X17851523Y28201666D01*
X17851523Y28201666D02*
X17875333Y28106428D01*
X17875333Y28106428D02*
X17899142Y28058809D01*
X17899142Y28058809D02*
X17922952Y28035000D01*
X17922952Y28035000D02*
X17970571Y28011190D01*
X17970571Y28011190D02*
X18018190Y28011190D01*
X18018190Y28011190D02*
X18065809Y28035000D01*
X18065809Y28035000D02*
X18089618Y28058809D01*
X18089618Y28058809D02*
X18113428Y28106428D01*
X18113428Y28106428D02*
X18137237Y28201666D01*
X18137237Y28201666D02*
X18137237Y28320714D01*
X18137237Y28320714D02*
X18113428Y28415952D01*
X18113428Y28415952D02*
X18089618Y28463571D01*
X18089618Y28463571D02*
X18065809Y28487380D01*
X18065809Y28487380D02*
X18018190Y28511190D01*
X17542000Y28511190D02*
X17494381Y28511190D01*
X17494381Y28511190D02*
X17446762Y28487380D01*
X17446762Y28487380D02*
X17422952Y28463571D01*
X17422952Y28463571D02*
X17399143Y28415952D01*
X17399143Y28415952D02*
X17375333Y28320714D01*
X17375333Y28320714D02*
X17375333Y28201666D01*
X17375333Y28201666D02*
X17399143Y28106428D01*
X17399143Y28106428D02*
X17422952Y28058809D01*
X17422952Y28058809D02*
X17446762Y28035000D01*
X17446762Y28035000D02*
X17494381Y28011190D01*
X17494381Y28011190D02*
X17542000Y28011190D01*
X17542000Y28011190D02*
X17589619Y28035000D01*
X17589619Y28035000D02*
X17613428Y28058809D01*
X17613428Y28058809D02*
X17637238Y28106428D01*
X17637238Y28106428D02*
X17661047Y28201666D01*
X17661047Y28201666D02*
X17661047Y28320714D01*
X17661047Y28320714D02*
X17637238Y28415952D01*
X17637238Y28415952D02*
X17613428Y28463571D01*
X17613428Y28463571D02*
X17589619Y28487380D01*
X17589619Y28487380D02*
X17542000Y28511190D01*
X17161048Y28011190D02*
X17161048Y28511190D01*
X17113429Y28201666D02*
X16970572Y28011190D01*
X16970572Y28344523D02*
X17161048Y28154047D01*
X18451523Y26211190D02*
X18737237Y26211190D01*
X18594380Y26211190D02*
X18594380Y26711190D01*
X18594380Y26711190D02*
X18641999Y26639761D01*
X18641999Y26639761D02*
X18689618Y26592142D01*
X18689618Y26592142D02*
X18737237Y26568333D01*
X18237238Y26211190D02*
X18237238Y26711190D01*
X18189619Y26401666D02*
X18046762Y26211190D01*
X18046762Y26544523D02*
X18237238Y26354047D01*
X18775332Y24163571D02*
X18751523Y24187380D01*
X18751523Y24187380D02*
X18703904Y24211190D01*
X18703904Y24211190D02*
X18584856Y24211190D01*
X18584856Y24211190D02*
X18537237Y24187380D01*
X18537237Y24187380D02*
X18513428Y24163571D01*
X18513428Y24163571D02*
X18489618Y24115952D01*
X18489618Y24115952D02*
X18489618Y24068333D01*
X18489618Y24068333D02*
X18513428Y23996904D01*
X18513428Y23996904D02*
X18799142Y23711190D01*
X18799142Y23711190D02*
X18489618Y23711190D01*
X18275333Y23711190D02*
X18275333Y24211190D01*
X18227714Y23901666D02*
X18084857Y23711190D01*
X18084857Y24044523D02*
X18275333Y23854047D01*
X17894380Y24163571D02*
X17870571Y24187380D01*
X17870571Y24187380D02*
X17822952Y24211190D01*
X17822952Y24211190D02*
X17703904Y24211190D01*
X17703904Y24211190D02*
X17656285Y24187380D01*
X17656285Y24187380D02*
X17632476Y24163571D01*
X17632476Y24163571D02*
X17608666Y24115952D01*
X17608666Y24115952D02*
X17608666Y24068333D01*
X17608666Y24068333D02*
X17632476Y23996904D01*
X17632476Y23996904D02*
X17918190Y23711190D01*
X17918190Y23711190D02*
X17608666Y23711190D01*
X18775332Y22263571D02*
X18751523Y22287380D01*
X18751523Y22287380D02*
X18703904Y22311190D01*
X18703904Y22311190D02*
X18584856Y22311190D01*
X18584856Y22311190D02*
X18537237Y22287380D01*
X18537237Y22287380D02*
X18513428Y22263571D01*
X18513428Y22263571D02*
X18489618Y22215952D01*
X18489618Y22215952D02*
X18489618Y22168333D01*
X18489618Y22168333D02*
X18513428Y22096904D01*
X18513428Y22096904D02*
X18799142Y21811190D01*
X18799142Y21811190D02*
X18489618Y21811190D01*
X18275333Y21811190D02*
X18275333Y22311190D01*
X18227714Y22001666D02*
X18084857Y21811190D01*
X18084857Y22144523D02*
X18275333Y21954047D01*
X17894380Y22263571D02*
X17870571Y22287380D01*
X17870571Y22287380D02*
X17822952Y22311190D01*
X17822952Y22311190D02*
X17703904Y22311190D01*
X17703904Y22311190D02*
X17656285Y22287380D01*
X17656285Y22287380D02*
X17632476Y22263571D01*
X17632476Y22263571D02*
X17608666Y22215952D01*
X17608666Y22215952D02*
X17608666Y22168333D01*
X17608666Y22168333D02*
X17632476Y22096904D01*
X17632476Y22096904D02*
X17918190Y21811190D01*
X17918190Y21811190D02*
X17608666Y21811190D01*
X18113427Y19663571D02*
X18089618Y19687380D01*
X18089618Y19687380D02*
X18041999Y19711190D01*
X18041999Y19711190D02*
X17922951Y19711190D01*
X17922951Y19711190D02*
X17875332Y19687380D01*
X17875332Y19687380D02*
X17851523Y19663571D01*
X17851523Y19663571D02*
X17827713Y19615952D01*
X17827713Y19615952D02*
X17827713Y19568333D01*
X17827713Y19568333D02*
X17851523Y19496904D01*
X17851523Y19496904D02*
X18137237Y19211190D01*
X18137237Y19211190D02*
X17827713Y19211190D01*
X17637237Y19663571D02*
X17613428Y19687380D01*
X17613428Y19687380D02*
X17565809Y19711190D01*
X17565809Y19711190D02*
X17446761Y19711190D01*
X17446761Y19711190D02*
X17399142Y19687380D01*
X17399142Y19687380D02*
X17375333Y19663571D01*
X17375333Y19663571D02*
X17351523Y19615952D01*
X17351523Y19615952D02*
X17351523Y19568333D01*
X17351523Y19568333D02*
X17375333Y19496904D01*
X17375333Y19496904D02*
X17661047Y19211190D01*
X17661047Y19211190D02*
X17351523Y19211190D01*
X16922952Y19544523D02*
X16922952Y19211190D01*
X17137238Y19544523D02*
X17137238Y19282619D01*
X17137238Y19282619D02*
X17113428Y19235000D01*
X17113428Y19235000D02*
X17065809Y19211190D01*
X17065809Y19211190D02*
X16994381Y19211190D01*
X16994381Y19211190D02*
X16946762Y19235000D01*
X16946762Y19235000D02*
X16922952Y19258809D01*
X16518190Y19473095D02*
X16684857Y19473095D01*
X16684857Y19211190D02*
X16684857Y19711190D01*
X16684857Y19711190D02*
X16446762Y19711190D01*
X18213427Y16363571D02*
X18189618Y16387380D01*
X18189618Y16387380D02*
X18141999Y16411190D01*
X18141999Y16411190D02*
X18022951Y16411190D01*
X18022951Y16411190D02*
X17975332Y16387380D01*
X17975332Y16387380D02*
X17951523Y16363571D01*
X17951523Y16363571D02*
X17927713Y16315952D01*
X17927713Y16315952D02*
X17927713Y16268333D01*
X17927713Y16268333D02*
X17951523Y16196904D01*
X17951523Y16196904D02*
X18237237Y15911190D01*
X18237237Y15911190D02*
X17927713Y15911190D01*
X17737237Y16363571D02*
X17713428Y16387380D01*
X17713428Y16387380D02*
X17665809Y16411190D01*
X17665809Y16411190D02*
X17546761Y16411190D01*
X17546761Y16411190D02*
X17499142Y16387380D01*
X17499142Y16387380D02*
X17475333Y16363571D01*
X17475333Y16363571D02*
X17451523Y16315952D01*
X17451523Y16315952D02*
X17451523Y16268333D01*
X17451523Y16268333D02*
X17475333Y16196904D01*
X17475333Y16196904D02*
X17761047Y15911190D01*
X17761047Y15911190D02*
X17451523Y15911190D01*
X17022952Y16244523D02*
X17022952Y15911190D01*
X17237238Y16244523D02*
X17237238Y15982619D01*
X17237238Y15982619D02*
X17213428Y15935000D01*
X17213428Y15935000D02*
X17165809Y15911190D01*
X17165809Y15911190D02*
X17094381Y15911190D01*
X17094381Y15911190D02*
X17046762Y15935000D01*
X17046762Y15935000D02*
X17022952Y15958809D01*
X16618190Y16173095D02*
X16784857Y16173095D01*
X16784857Y15911190D02*
X16784857Y16411190D01*
X16784857Y16411190D02*
X16546762Y16411190D01*
X52367190Y30000286D02*
X52367190Y29714572D01*
X52367190Y29857429D02*
X52867190Y29857429D01*
X52867190Y29857429D02*
X52795761Y29809810D01*
X52795761Y29809810D02*
X52748142Y29762191D01*
X52748142Y29762191D02*
X52724333Y29714572D01*
X52867190Y30309809D02*
X52867190Y30357428D01*
X52867190Y30357428D02*
X52843380Y30405047D01*
X52843380Y30405047D02*
X52819571Y30428857D01*
X52819571Y30428857D02*
X52771952Y30452666D01*
X52771952Y30452666D02*
X52676714Y30476476D01*
X52676714Y30476476D02*
X52557666Y30476476D01*
X52557666Y30476476D02*
X52462428Y30452666D01*
X52462428Y30452666D02*
X52414809Y30428857D01*
X52414809Y30428857D02*
X52391000Y30405047D01*
X52391000Y30405047D02*
X52367190Y30357428D01*
X52367190Y30357428D02*
X52367190Y30309809D01*
X52367190Y30309809D02*
X52391000Y30262190D01*
X52391000Y30262190D02*
X52414809Y30238381D01*
X52414809Y30238381D02*
X52462428Y30214571D01*
X52462428Y30214571D02*
X52557666Y30190762D01*
X52557666Y30190762D02*
X52676714Y30190762D01*
X52676714Y30190762D02*
X52771952Y30214571D01*
X52771952Y30214571D02*
X52819571Y30238381D01*
X52819571Y30238381D02*
X52843380Y30262190D01*
X52843380Y30262190D02*
X52867190Y30309809D01*
X52700523Y30905047D02*
X52367190Y30905047D01*
X52700523Y30690761D02*
X52438619Y30690761D01*
X52438619Y30690761D02*
X52391000Y30714571D01*
X52391000Y30714571D02*
X52367190Y30762190D01*
X52367190Y30762190D02*
X52367190Y30833618D01*
X52367190Y30833618D02*
X52391000Y30881237D01*
X52391000Y30881237D02*
X52414809Y30905047D01*
X52629095Y31309809D02*
X52629095Y31143142D01*
X52367190Y31143142D02*
X52867190Y31143142D01*
X52867190Y31143142D02*
X52867190Y31381237D01*
X52700523Y26390762D02*
X52367190Y26390762D01*
X52891000Y26271714D02*
X52533857Y26152667D01*
X52533857Y26152667D02*
X52533857Y26462190D01*
X52867190Y26605047D02*
X52867190Y26938380D01*
X52867190Y26938380D02*
X52367190Y26724095D01*
X52367190Y27128856D02*
X52867190Y27128856D01*
X52557666Y27176475D02*
X52367190Y27319332D01*
X52700523Y27319332D02*
X52510047Y27128856D01*
X52700523Y28190762D02*
X52367190Y28190762D01*
X52891000Y28071714D02*
X52533857Y27952667D01*
X52533857Y27952667D02*
X52533857Y28262190D01*
X52867190Y28405047D02*
X52867190Y28738380D01*
X52867190Y28738380D02*
X52367190Y28524095D01*
X52367190Y28928856D02*
X52867190Y28928856D01*
X52557666Y28976475D02*
X52367190Y29119332D01*
X52700523Y29119332D02*
X52510047Y28928856D01*
X52800523Y32090762D02*
X52467190Y32090762D01*
X52991000Y31971714D02*
X52633857Y31852667D01*
X52633857Y31852667D02*
X52633857Y32162190D01*
X52967190Y32305047D02*
X52967190Y32638380D01*
X52967190Y32638380D02*
X52467190Y32424095D01*
X52467190Y32828856D02*
X52967190Y32828856D01*
X52657666Y32876475D02*
X52467190Y33019332D01*
X52800523Y33019332D02*
X52610047Y32828856D01*
X52800523Y34090762D02*
X52467190Y34090762D01*
X52991000Y33971714D02*
X52633857Y33852667D01*
X52633857Y33852667D02*
X52633857Y34162190D01*
X52967190Y34305047D02*
X52967190Y34638380D01*
X52967190Y34638380D02*
X52467190Y34424095D01*
X52467190Y34828856D02*
X52967190Y34828856D01*
X52657666Y34876475D02*
X52467190Y35019332D01*
X52800523Y35019332D02*
X52610047Y34828856D01*
X58413427Y38963571D02*
X58389618Y38987380D01*
X58389618Y38987380D02*
X58341999Y39011190D01*
X58341999Y39011190D02*
X58222951Y39011190D01*
X58222951Y39011190D02*
X58175332Y38987380D01*
X58175332Y38987380D02*
X58151523Y38963571D01*
X58151523Y38963571D02*
X58127713Y38915952D01*
X58127713Y38915952D02*
X58127713Y38868333D01*
X58127713Y38868333D02*
X58151523Y38796904D01*
X58151523Y38796904D02*
X58437237Y38511190D01*
X58437237Y38511190D02*
X58127713Y38511190D01*
X57699142Y38844523D02*
X57699142Y38511190D01*
X57913428Y38844523D02*
X57913428Y38582619D01*
X57913428Y38582619D02*
X57889618Y38535000D01*
X57889618Y38535000D02*
X57841999Y38511190D01*
X57841999Y38511190D02*
X57770571Y38511190D01*
X57770571Y38511190D02*
X57722952Y38535000D01*
X57722952Y38535000D02*
X57699142Y38558809D01*
X57484856Y38963571D02*
X57461047Y38987380D01*
X57461047Y38987380D02*
X57413428Y39011190D01*
X57413428Y39011190D02*
X57294380Y39011190D01*
X57294380Y39011190D02*
X57246761Y38987380D01*
X57246761Y38987380D02*
X57222952Y38963571D01*
X57222952Y38963571D02*
X57199142Y38915952D01*
X57199142Y38915952D02*
X57199142Y38868333D01*
X57199142Y38868333D02*
X57222952Y38796904D01*
X57222952Y38796904D02*
X57508666Y38511190D01*
X57508666Y38511190D02*
X57199142Y38511190D01*
X56818190Y38773095D02*
X56984857Y38773095D01*
X56984857Y38511190D02*
X56984857Y39011190D01*
X56984857Y39011190D02*
X56746762Y39011190D01*
X57937237Y37344523D02*
X57937237Y37011190D01*
X58056285Y37535000D02*
X58175332Y37177857D01*
X58175332Y37177857D02*
X57865809Y37177857D01*
X57722952Y37511190D02*
X57389619Y37511190D01*
X57389619Y37511190D02*
X57603904Y37011190D01*
X57199143Y37011190D02*
X57199143Y37511190D01*
X57151524Y37201666D02*
X57008667Y37011190D01*
X57008667Y37344523D02*
X57199143Y37154047D01*
X52700523Y24443143D02*
X52367190Y24443143D01*
X52891000Y24324095D02*
X52533857Y24205048D01*
X52533857Y24205048D02*
X52533857Y24514571D01*
X52867190Y24657428D02*
X52867190Y24990761D01*
X52867190Y24990761D02*
X52367190Y24776476D01*
X52367190Y25466951D02*
X52605285Y25300285D01*
X52367190Y25181237D02*
X52867190Y25181237D01*
X52867190Y25181237D02*
X52867190Y25371713D01*
X52867190Y25371713D02*
X52843380Y25419332D01*
X52843380Y25419332D02*
X52819571Y25443142D01*
X52819571Y25443142D02*
X52771952Y25466951D01*
X52771952Y25466951D02*
X52700523Y25466951D01*
X52700523Y25466951D02*
X52652904Y25443142D01*
X52652904Y25443142D02*
X52629095Y25419332D01*
X52629095Y25419332D02*
X52605285Y25371713D01*
X52605285Y25371713D02*
X52605285Y25181237D01*
X52367190Y22693143D02*
X52367190Y22407429D01*
X52367190Y22550286D02*
X52867190Y22550286D01*
X52867190Y22550286D02*
X52795761Y22502667D01*
X52795761Y22502667D02*
X52748142Y22455048D01*
X52748142Y22455048D02*
X52724333Y22407429D01*
X52367190Y22907428D02*
X52867190Y22907428D01*
X52867190Y22907428D02*
X52510047Y23074095D01*
X52510047Y23074095D02*
X52867190Y23240761D01*
X52867190Y23240761D02*
X52367190Y23240761D01*
X55199142Y15011190D02*
X55199142Y15511190D01*
X55199142Y15511190D02*
X55080094Y15511190D01*
X55080094Y15511190D02*
X55008666Y15487380D01*
X55008666Y15487380D02*
X54961047Y15439761D01*
X54961047Y15439761D02*
X54937237Y15392142D01*
X54937237Y15392142D02*
X54913428Y15296904D01*
X54913428Y15296904D02*
X54913428Y15225476D01*
X54913428Y15225476D02*
X54937237Y15130238D01*
X54937237Y15130238D02*
X54961047Y15082619D01*
X54961047Y15082619D02*
X55008666Y15035000D01*
X55008666Y15035000D02*
X55080094Y15011190D01*
X55080094Y15011190D02*
X55199142Y15011190D01*
X54484856Y15344523D02*
X54484856Y15011190D01*
X54603904Y15535000D02*
X54722951Y15177857D01*
X54722951Y15177857D02*
X54413428Y15177857D01*
X54246761Y15463571D02*
X54222952Y15487380D01*
X54222952Y15487380D02*
X54175333Y15511190D01*
X54175333Y15511190D02*
X54056285Y15511190D01*
X54056285Y15511190D02*
X54008666Y15487380D01*
X54008666Y15487380D02*
X53984857Y15463571D01*
X53984857Y15463571D02*
X53961047Y15415952D01*
X53961047Y15415952D02*
X53961047Y15368333D01*
X53961047Y15368333D02*
X53984857Y15296904D01*
X53984857Y15296904D02*
X54270571Y15011190D01*
X54270571Y15011190D02*
X53961047Y15011190D01*
X53367190Y19893142D02*
X53867190Y19893142D01*
X53867190Y19893142D02*
X53367190Y20178856D01*
X53367190Y20178856D02*
X53867190Y20178856D01*
X71567190Y-20390190D02*
X71805285Y-20556856D01*
X71567190Y-20675904D02*
X72067190Y-20675904D01*
X72067190Y-20675904D02*
X72067190Y-20485428D01*
X72067190Y-20485428D02*
X72043380Y-20437809D01*
X72043380Y-20437809D02*
X72019571Y-20413999D01*
X72019571Y-20413999D02*
X71971952Y-20390190D01*
X71971952Y-20390190D02*
X71900523Y-20390190D01*
X71900523Y-20390190D02*
X71852904Y-20413999D01*
X71852904Y-20413999D02*
X71829095Y-20437809D01*
X71829095Y-20437809D02*
X71805285Y-20485428D01*
X71805285Y-20485428D02*
X71805285Y-20675904D01*
X71829095Y-20175904D02*
X71829095Y-20009237D01*
X71567190Y-19937809D02*
X71567190Y-20175904D01*
X71567190Y-20175904D02*
X72067190Y-20175904D01*
X72067190Y-20175904D02*
X72067190Y-19937809D01*
X71591000Y-19747332D02*
X71567190Y-19675904D01*
X71567190Y-19675904D02*
X71567190Y-19556856D01*
X71567190Y-19556856D02*
X71591000Y-19509237D01*
X71591000Y-19509237D02*
X71614809Y-19485428D01*
X71614809Y-19485428D02*
X71662428Y-19461618D01*
X71662428Y-19461618D02*
X71710047Y-19461618D01*
X71710047Y-19461618D02*
X71757666Y-19485428D01*
X71757666Y-19485428D02*
X71781476Y-19509237D01*
X71781476Y-19509237D02*
X71805285Y-19556856D01*
X71805285Y-19556856D02*
X71829095Y-19652094D01*
X71829095Y-19652094D02*
X71852904Y-19699713D01*
X71852904Y-19699713D02*
X71876714Y-19723523D01*
X71876714Y-19723523D02*
X71924333Y-19747332D01*
X71924333Y-19747332D02*
X71971952Y-19747332D01*
X71971952Y-19747332D02*
X72019571Y-19723523D01*
X72019571Y-19723523D02*
X72043380Y-19699713D01*
X72043380Y-19699713D02*
X72067190Y-19652094D01*
X72067190Y-19652094D02*
X72067190Y-19533047D01*
X72067190Y-19533047D02*
X72043380Y-19461618D01*
X71829095Y-19247333D02*
X71829095Y-19080666D01*
X71567190Y-19009238D02*
X71567190Y-19247333D01*
X71567190Y-19247333D02*
X72067190Y-19247333D01*
X72067190Y-19247333D02*
X72067190Y-19009238D01*
X72067190Y-18866380D02*
X72067190Y-18580666D01*
X71567190Y-18723523D02*
X72067190Y-18723523D01*
D11*
G36*
X46994536Y4599487D02*
G01*
X49498709Y7141957D01*
X49372875Y7110694D01*
X49364278Y4705000D01*
X49801180Y4705000D01*
X49801180Y8042334D01*
X49780859Y8042334D01*
X47303259Y5493611D01*
X47404083Y5515495D01*
X47413461Y7943855D01*
X46981249Y7943855D01*
X46981249Y4599487D01*
X46994536Y4599487D01*
G37*
G36*
X45566595Y4633094D02*
G01*
X45731405Y4651381D01*
X45886341Y4713040D01*
X45985520Y4787847D01*
X46086380Y4916770D01*
X46143936Y5071413D01*
X46158249Y5188796D01*
X46158249Y6559682D01*
X45739323Y6559682D01*
X45739323Y5336514D01*
X45703663Y5177602D01*
X45651005Y5091099D01*
X45515939Y5007995D01*
X45400900Y4991838D01*
X45245079Y5017646D01*
X45121877Y5083283D01*
X45004178Y5200023D01*
X44924138Y5334169D01*
X44870844Y5492919D01*
X44850541Y5657820D01*
X44849889Y5695258D01*
X44849889Y6559682D01*
X44430963Y6559682D01*
X44430963Y4705000D01*
X44809247Y4705000D01*
X44845199Y5159877D01*
X44824878Y5079375D01*
X44904755Y4943335D01*
X44989791Y4848810D01*
X45116249Y4753428D01*
X45246148Y4690150D01*
X45400119Y4647358D01*
X45555824Y4633150D01*
X45566595Y4633094D01*
G37*
G36*
X43336755Y6559682D02*
G01*
X43300803Y6143101D01*
X43321124Y6179054D01*
X43239760Y6314403D01*
X43127194Y6437410D01*
X43026469Y6512787D01*
X42875161Y6586610D01*
X42722944Y6624349D01*
X42588786Y6633932D01*
X42425571Y6617858D01*
X42313671Y6583129D01*
X42178421Y6504117D01*
X42112806Y6440882D01*
X42032743Y6303358D01*
X42010419Y6217351D01*
X42035429Y6200938D01*
X41942153Y6341292D01*
X41826455Y6456367D01*
X41736867Y6519040D01*
X41591237Y6589052D01*
X41439233Y6626751D01*
X41334355Y6633932D01*
X41175688Y6618819D01*
X41026192Y6567286D01*
X40902924Y6479180D01*
X40804739Y6350256D01*
X40750517Y6195614D01*
X40738793Y6078230D01*
X40738793Y4705000D01*
X41155374Y4705000D01*
X41155374Y5925823D01*
X41184377Y6086290D01*
X41224934Y6164986D01*
X41359570Y6256500D01*
X41450810Y6270498D01*
X41614001Y6242926D01*
X41740775Y6172801D01*
X41853713Y6061231D01*
X41939295Y5920352D01*
X41991376Y5769215D01*
X42014263Y5607431D01*
X42015108Y5585055D01*
X42015108Y4705000D01*
X42434034Y4705000D01*
X42434034Y5925823D01*
X42465236Y6086290D01*
X42508284Y6164986D01*
X42638963Y6254152D01*
X42738849Y6270498D01*
X42901820Y6242926D01*
X43028032Y6172801D01*
X43139602Y6060645D01*
X43224208Y5918007D01*
X43274698Y5765359D01*
X43294275Y5603438D01*
X43294550Y5581147D01*
X43294550Y4705000D01*
X43713475Y4705000D01*
X43713475Y6559682D01*
X43336755Y6559682D01*
G37*
G36*
X37533545Y4947288D02*
G01*
X37670565Y4866856D01*
X37752387Y4826144D01*
X37903817Y4764204D01*
X38055233Y4718662D01*
X38078304Y4712815D01*
X38234869Y4683346D01*
X38403560Y4669871D01*
X38485506Y4669047D01*
X38646731Y4677083D01*
X38822195Y4700921D01*
X38988280Y4740390D01*
X39144986Y4795491D01*
X39163915Y4803478D01*
X39308800Y4874309D01*
X39442547Y4957058D01*
X39579700Y5064398D01*
X39676630Y5158314D01*
X39787604Y5290247D01*
X39883122Y5432813D01*
X39963184Y5586012D01*
X40000984Y5675718D01*
X40050565Y5824364D01*
X40085981Y5977993D01*
X40107230Y6136605D01*
X40114313Y6300198D01*
X40106986Y6478007D01*
X40085004Y6648782D01*
X40048367Y6812522D01*
X39997076Y6969228D01*
X39931961Y7117728D01*
X39854634Y7256067D01*
X39765094Y7384246D01*
X39663343Y7502264D01*
X39535505Y7621722D01*
X39395549Y7725105D01*
X39243476Y7812414D01*
X39153755Y7853974D01*
X39003350Y7909026D01*
X38846009Y7948349D01*
X38681731Y7971943D01*
X38510517Y7979808D01*
X38350860Y7973563D01*
X38183614Y7951978D01*
X38027055Y7914976D01*
X37982170Y7900868D01*
X37826763Y7843995D01*
X37675345Y7774789D01*
X37574187Y7717979D01*
X37748479Y7309996D01*
X37887045Y7393539D01*
X38038994Y7466244D01*
X38074397Y7481161D01*
X38223617Y7529741D01*
X38384048Y7555900D01*
X38497230Y7560882D01*
X38655752Y7549707D01*
X38808917Y7516183D01*
X38943510Y7466311D01*
X39083217Y7392965D01*
X39211103Y7301887D01*
X39317104Y7203702D01*
X39419668Y7080988D01*
X39505977Y6944975D01*
X39570335Y6809787D01*
X39622398Y6650601D01*
X39652850Y6482550D01*
X39661780Y6322083D01*
X39653689Y6161875D01*
X39626100Y5993580D01*
X39578933Y5833597D01*
X39513386Y5685234D01*
X39430662Y5550724D01*
X39340551Y5440464D01*
X39214632Y5325938D01*
X39083951Y5239108D01*
X38966176Y5180980D01*
X38809980Y5128027D01*
X38641223Y5097055D01*
X38476909Y5087972D01*
X38312778Y5096838D01*
X38149105Y5126734D01*
X38036881Y5163004D01*
X37892133Y5227449D01*
X37752045Y5310465D01*
X37719561Y5334169D01*
X37533545Y4947288D01*
G37*
G36*
X36275383Y6623664D02*
G01*
X36439723Y6583322D01*
X36594090Y6514351D01*
X36733217Y6419226D01*
X36851842Y6299350D01*
X36941891Y6168893D01*
X36972300Y6111277D01*
X37030582Y5955480D01*
X37061370Y5800906D01*
X37071633Y5632732D01*
X37070541Y5574672D01*
X37054158Y5410715D01*
X37012896Y5246523D01*
X36947362Y5101259D01*
X36861068Y4975764D01*
X36746222Y4861522D01*
X36610503Y4772215D01*
X36458084Y4708583D01*
X36294214Y4671364D01*
X36135304Y4660450D01*
X36000408Y4669426D01*
X35844557Y4707344D01*
X35751171Y4745922D01*
X35615555Y4825362D01*
X35574303Y4856709D01*
X35456895Y4966828D01*
X35423287Y5014008D01*
X35423287Y4705000D01*
X35004362Y4705000D01*
X35004362Y5845321D01*
X35423287Y5845321D01*
X35423287Y5480324D01*
X35457202Y5368152D01*
X35537397Y5227875D01*
X35611547Y5149379D01*
X35744515Y5062962D01*
X35867717Y5021448D01*
X36023538Y5005125D01*
X36185325Y5026618D01*
X36334606Y5091099D01*
X36463175Y5192704D01*
X36562826Y5324009D01*
X36573143Y5342510D01*
X36629299Y5489834D01*
X36648018Y5652271D01*
X36647695Y5675923D01*
X36624637Y5841439D01*
X36565171Y5986004D01*
X36468060Y6113988D01*
X36342422Y6210317D01*
X36196071Y6270694D01*
X36036825Y6290819D01*
X35919027Y6281403D01*
X35761710Y6233764D01*
X35665661Y6180313D01*
X35547558Y6076667D01*
X35484065Y5990601D01*
X35423287Y5845321D01*
X35004362Y5845321D01*
X35004362Y6559682D01*
X35389679Y6559682D01*
X35421361Y6265741D01*
X35441159Y6296791D01*
X35544650Y6415264D01*
X35676518Y6518258D01*
X35783748Y6574930D01*
X35947110Y6621642D01*
X36117327Y6635495D01*
X36275383Y6623664D01*
G37*
G36*
X34287655Y8174420D02*
G01*
X33868730Y8174420D01*
X33868730Y4705000D01*
X34287655Y4705000D01*
X34287655Y8174420D01*
G37*
G36*
X31642017Y4877728D02*
G01*
X31779184Y4787456D01*
X31929782Y4721991D01*
X31940579Y4718286D01*
X32093149Y4678750D01*
X32258276Y4660958D01*
X32291508Y4660450D01*
X32455897Y4669970D01*
X32625066Y4702882D01*
X32780038Y4759302D01*
X32823762Y4780812D01*
X32957118Y4865992D01*
X33081242Y4981553D01*
X33181724Y5120017D01*
X33249730Y5264273D01*
X33292549Y5423489D01*
X33309551Y5579574D01*
X33310684Y5634295D01*
X33299865Y5794735D01*
X33262465Y5958500D01*
X33198351Y6106999D01*
X33173908Y6148572D01*
X33079951Y6275655D01*
X32957027Y6393054D01*
X32813601Y6486995D01*
X32670353Y6550056D01*
X32505727Y6592446D01*
X32349656Y6606460D01*
X32333713Y6606577D01*
X32172769Y6597784D01*
X32013545Y6568414D01*
X31934327Y6544050D01*
X31789579Y6480663D01*
X31654746Y6393492D01*
X31630293Y6373667D01*
X31838974Y6100896D01*
X31971918Y6184317D01*
X32035150Y6213443D01*
X32192687Y6257102D01*
X32297760Y6264246D01*
X32454662Y6243534D01*
X32597104Y6181399D01*
X32725107Y6076609D01*
X32812038Y5956304D01*
X32871829Y5804678D01*
X32891681Y5645493D01*
X32891759Y5634295D01*
X32871438Y5469187D01*
X32810475Y5317756D01*
X32713168Y5188210D01*
X32585381Y5088754D01*
X32431605Y5026032D01*
X32269340Y5005207D01*
X32257900Y5005125D01*
X32096008Y5023698D01*
X32037495Y5041078D01*
X31892304Y5113473D01*
X31856951Y5139556D01*
X31642017Y4877728D01*
G37*
G36*
X31108200Y6559682D02*
G01*
X30689274Y6559682D01*
X30689274Y4705000D01*
X31108200Y4705000D01*
X31108200Y6559682D01*
G37*
G36*
X31137118Y7213080D02*
G01*
X31076082Y7362594D01*
X31057397Y7379556D01*
X30914522Y7444369D01*
X30886232Y7445990D01*
X30736462Y7395127D01*
X30717411Y7379556D01*
X30643552Y7237566D01*
X30642380Y7213080D01*
X30699826Y7061857D01*
X30717411Y7045041D01*
X30863078Y6981184D01*
X30886232Y6980170D01*
X31037284Y7030436D01*
X31057397Y7045823D01*
X31135172Y7182413D01*
X31137118Y7213080D01*
G37*
G36*
X29378570Y4633094D02*
G01*
X29543380Y4651381D01*
X29698316Y4713040D01*
X29797495Y4787847D01*
X29898355Y4916770D01*
X29955911Y5071413D01*
X29970224Y5188796D01*
X29970224Y6559682D01*
X29551298Y6559682D01*
X29551298Y5336514D01*
X29515638Y5177602D01*
X29462980Y5091099D01*
X29327914Y5007995D01*
X29212875Y4991838D01*
X29057054Y5017646D01*
X28933852Y5083283D01*
X28816152Y5200023D01*
X28736113Y5334169D01*
X28682819Y5492919D01*
X28662516Y5657820D01*
X28661863Y5695258D01*
X28661863Y6559682D01*
X28242938Y6559682D01*
X28242938Y4705000D01*
X28621221Y4705000D01*
X28657174Y5159877D01*
X28636853Y5079375D01*
X28716730Y4943335D01*
X28801766Y4848810D01*
X28928224Y4753428D01*
X29058123Y4690150D01*
X29212094Y4647358D01*
X29367799Y4633150D01*
X29378570Y4633094D01*
G37*
G36*
X27148730Y6559682D02*
G01*
X27112778Y6143101D01*
X27133099Y6179054D01*
X27051734Y6314403D01*
X26939169Y6437410D01*
X26838444Y6512787D01*
X26687136Y6586610D01*
X26534919Y6624349D01*
X26400761Y6633932D01*
X26237546Y6617858D01*
X26125646Y6583129D01*
X25990396Y6504117D01*
X25924780Y6440882D01*
X25844718Y6303358D01*
X25822394Y6217351D01*
X25847404Y6200938D01*
X25754128Y6341292D01*
X25638430Y6456367D01*
X25548842Y6519040D01*
X25403212Y6589052D01*
X25251207Y6626751D01*
X25146330Y6633932D01*
X24987663Y6618819D01*
X24838167Y6567286D01*
X24714899Y6479180D01*
X24616713Y6350256D01*
X24562491Y6195614D01*
X24550768Y6078230D01*
X24550768Y4705000D01*
X24967348Y4705000D01*
X24967348Y5925823D01*
X24996352Y6086290D01*
X25036909Y6164986D01*
X25171545Y6256500D01*
X25262785Y6270498D01*
X25425976Y6242926D01*
X25552750Y6172801D01*
X25665688Y6061231D01*
X25751270Y5920352D01*
X25803351Y5769215D01*
X25826238Y5607431D01*
X25827083Y5585055D01*
X25827083Y4705000D01*
X26246009Y4705000D01*
X26246009Y5925823D01*
X26277211Y6086290D01*
X26320258Y6164986D01*
X26450938Y6254152D01*
X26550824Y6270498D01*
X26713795Y6242926D01*
X26840007Y6172801D01*
X26951577Y6060645D01*
X27036183Y5918007D01*
X27086673Y5765359D01*
X27106250Y5603438D01*
X27106525Y5581147D01*
X27106525Y4705000D01*
X27525450Y4705000D01*
X27525450Y6559682D01*
X27148730Y6559682D01*
G37*
D12*
G36*
X71459561Y5441715D02*
G01*
X71459561Y7050420D01*
X71457729Y7050420D01*
X70598605Y5832259D01*
X70729031Y5861568D01*
X69872105Y7050420D01*
X69868075Y7050420D01*
X69868075Y5441715D01*
X70172523Y5441715D01*
X70172523Y6363487D01*
X70153472Y6205950D01*
X70676274Y5462597D01*
X70680671Y5462597D01*
X71218127Y6205950D01*
X71165737Y6351031D01*
X71165737Y5441715D01*
X71459561Y5441715D01*
G37*
G36*
X68175815Y7000320D02*
G01*
X68253782Y6988504D01*
X68329139Y6968812D01*
X68401885Y6941243D01*
X68471151Y6906782D01*
X68536066Y6866414D01*
X68596630Y6820137D01*
X68652844Y6767953D01*
X68703929Y6710777D01*
X68749107Y6649526D01*
X68788376Y6584199D01*
X68821738Y6514795D01*
X68848345Y6442324D01*
X68867351Y6367792D01*
X68878754Y6291199D01*
X68882555Y6212545D01*
X68878754Y6131968D01*
X68867351Y6054001D01*
X68848345Y5978644D01*
X68821738Y5905898D01*
X68788376Y5836632D01*
X68749107Y5771717D01*
X68703929Y5711153D01*
X68652844Y5654939D01*
X68596630Y5603831D01*
X68536066Y5558585D01*
X68471151Y5519201D01*
X68401885Y5485678D01*
X68329139Y5459071D01*
X68253782Y5440066D01*
X68175815Y5428663D01*
X68095238Y5424862D01*
X68015622Y5428663D01*
X67938342Y5440066D01*
X67863398Y5459071D01*
X67790789Y5485678D01*
X67721386Y5519201D01*
X67656059Y5558585D01*
X67594807Y5603831D01*
X67537631Y5654939D01*
X67485516Y5711153D01*
X67439446Y5771717D01*
X67399421Y5836632D01*
X67365440Y5905898D01*
X67338352Y5978644D01*
X67319004Y6054001D01*
X67307394Y6131968D01*
X67303525Y6212545D01*
X67618598Y6212545D01*
X67620316Y6168154D01*
X67631255Y6095073D01*
X67654502Y6020204D01*
X67668794Y5987540D01*
X67706389Y5921718D01*
X67753054Y5862667D01*
X67777457Y5838182D01*
X67835633Y5792466D01*
X67901065Y5756788D01*
X67933415Y5743964D01*
X68006777Y5725280D01*
X68084613Y5719052D01*
X68128899Y5720858D01*
X68201311Y5732355D01*
X68274756Y5756788D01*
X68306720Y5772008D01*
X68370938Y5812319D01*
X68428263Y5862667D01*
X68451975Y5889080D01*
X68496370Y5951256D01*
X68531211Y6020204D01*
X68545487Y6059962D01*
X68562696Y6137240D01*
X68567848Y6212545D01*
X68566147Y6257685D01*
X68555319Y6331805D01*
X68532310Y6407451D01*
X68517816Y6440600D01*
X68479342Y6507031D01*
X68431194Y6566086D01*
X68406005Y6590696D01*
X68346392Y6636593D01*
X68279885Y6672332D01*
X68241517Y6687036D01*
X68166542Y6704761D01*
X68093040Y6710068D01*
X68055774Y6708741D01*
X67978565Y6696764D01*
X67906194Y6672332D01*
X67874681Y6657099D01*
X67811705Y6616672D01*
X67755985Y6566086D01*
X67732908Y6539747D01*
X67689536Y6477287D01*
X67655234Y6407451D01*
X67639206Y6361472D01*
X67623750Y6289069D01*
X67618598Y6212545D01*
X67303525Y6212545D01*
X67307394Y6291199D01*
X67319004Y6367792D01*
X67338352Y6442324D01*
X67365440Y6514795D01*
X67399421Y6584199D01*
X67439446Y6649526D01*
X67485516Y6710777D01*
X67537631Y6767953D01*
X67594807Y6820137D01*
X67656059Y6866414D01*
X67721386Y6906782D01*
X67790789Y6941243D01*
X67863398Y6968812D01*
X67938342Y6988504D01*
X68015622Y7000320D01*
X68095238Y7004258D01*
X68175815Y7000320D01*
G37*
G36*
X66422419Y6987405D02*
G01*
X65380845Y6987405D01*
X65380845Y6693215D01*
X65756735Y6693215D01*
X65756735Y5441715D01*
X66061183Y5441715D01*
X66061183Y6693215D01*
X66422419Y6693215D01*
X66422419Y6987405D01*
G37*
G36*
X64406316Y6987405D02*
G01*
X64101867Y6987405D01*
X64101867Y5441715D01*
X64406316Y5441715D01*
X64406316Y6987405D01*
G37*
G36*
X62788451Y6987405D02*
G01*
X62337091Y5874391D01*
X62513312Y5909928D01*
X62104083Y6987405D01*
X61742848Y6987405D01*
X62448465Y5370273D01*
X63154083Y6987405D01*
X62788451Y6987405D01*
G37*
G36*
X60963591Y5593023D02*
G01*
X60945130Y5665924D01*
X60916330Y5701833D01*
X60853533Y5739929D01*
X60812283Y5746163D01*
X60739621Y5723262D01*
X60712631Y5701833D01*
X60672017Y5638721D01*
X60665370Y5593023D01*
X60682032Y5520742D01*
X60712631Y5482747D01*
X60776870Y5446563D01*
X60812283Y5441715D01*
X60885862Y5461109D01*
X60916330Y5482747D01*
X60956945Y5545058D01*
X60963591Y5593023D01*
G37*
G36*
X59753490Y5441715D02*
G01*
X59449041Y5441715D01*
X59449041Y5931177D01*
X59230688Y5931177D01*
X59202736Y5931593D01*
X59123904Y5937823D01*
X59045150Y5953515D01*
X58975698Y5978438D01*
X58926308Y6003969D01*
X58862097Y6049393D01*
X58809735Y6103368D01*
X58784260Y6138190D01*
X58745507Y6207324D01*
X58719610Y6276292D01*
X58709898Y6312112D01*
X58695750Y6389455D01*
X58691549Y6458009D01*
X58995482Y6458009D01*
X59007206Y6388766D01*
X59010280Y6378834D01*
X59044941Y6312196D01*
X59057428Y6296764D01*
X59117481Y6251380D01*
X59158797Y6235724D01*
X59232886Y6227199D01*
X59449041Y6227199D01*
X59449041Y6693215D01*
X59230688Y6693215D01*
X59175373Y6689351D01*
X59103560Y6665738D01*
X59084040Y6653263D01*
X59033218Y6598693D01*
X59029028Y6591215D01*
X59002809Y6519925D01*
X58995482Y6458009D01*
X58691549Y6458009D01*
X58691033Y6466435D01*
X58693468Y6524816D01*
X58704287Y6597929D01*
X58726804Y6673721D01*
X58760276Y6742674D01*
X58783462Y6777802D01*
X58832995Y6834587D01*
X58892556Y6883083D01*
X58962143Y6923292D01*
X58978904Y6931055D01*
X59050528Y6957102D01*
X59129480Y6975134D01*
X59204573Y6984337D01*
X59285276Y6987405D01*
X59753490Y6987405D01*
X59753490Y5441715D01*
G37*
G36*
X57869645Y6976781D02*
G01*
X57512440Y6976781D01*
X57182712Y6006648D01*
X57231072Y6027531D01*
X56943476Y6743773D01*
X56802792Y6325751D01*
X57247925Y5370273D01*
X57869645Y6976781D01*
G37*
G36*
X57094418Y6976781D02*
G01*
X56792167Y6976781D01*
X56412248Y6038156D01*
X56466836Y6046582D01*
X56183270Y6976781D01*
X55855740Y6976781D01*
X56451815Y5374670D01*
X57094418Y6976781D01*
G37*
G36*
X14867331Y5466000D02*
G01*
X14562882Y5466000D01*
X14562882Y5955462D01*
X14344529Y5955462D01*
X14316577Y5955878D01*
X14237745Y5962108D01*
X14158991Y5977800D01*
X14089540Y6002723D01*
X14040149Y6028254D01*
X13975938Y6073678D01*
X13923577Y6127653D01*
X13898101Y6162475D01*
X13859348Y6231609D01*
X13833451Y6300577D01*
X13823739Y6336397D01*
X13809591Y6413740D01*
X13805391Y6482294D01*
X14109323Y6482294D01*
X14121047Y6413051D01*
X14124121Y6403119D01*
X14158782Y6336481D01*
X14171270Y6321049D01*
X14231323Y6275665D01*
X14272638Y6260009D01*
X14346727Y6251484D01*
X14562882Y6251484D01*
X14562882Y6717500D01*
X14344529Y6717500D01*
X14289214Y6713636D01*
X14217401Y6690023D01*
X14197881Y6677548D01*
X14147059Y6622978D01*
X14142870Y6615500D01*
X14116651Y6544210D01*
X14109323Y6482294D01*
X13805391Y6482294D01*
X13804875Y6490720D01*
X13807309Y6549101D01*
X13818128Y6622214D01*
X13840646Y6698006D01*
X13874117Y6766959D01*
X13897303Y6802087D01*
X13946836Y6858872D01*
X14006397Y6907368D01*
X14075984Y6947577D01*
X14092745Y6955340D01*
X14164370Y6981387D01*
X14243321Y6999419D01*
X14318414Y7008622D01*
X14399117Y7011690D01*
X14867331Y7011690D01*
X14867331Y5466000D01*
G37*
G36*
X12450060Y5947036D02*
G01*
X13019023Y7011690D01*
X12643133Y7011690D01*
X12244163Y6209353D01*
X12334288Y6203124D01*
X11941546Y7011690D01*
X11565656Y7011690D01*
X12145611Y5947036D01*
X12145611Y5466000D01*
X12450060Y5466000D01*
X12450060Y5947036D01*
G37*
G36*
X9956951Y7043198D02*
G01*
X9984909Y6967174D01*
X10012867Y6891188D01*
X10040825Y6815241D01*
X10068783Y6739333D01*
X10096742Y6663463D01*
X10124700Y6587632D01*
X10152658Y6511840D01*
X10180616Y6436086D01*
X10208574Y6360371D01*
X10236532Y6284695D01*
X10255171Y6234265D01*
X10283129Y6158683D01*
X10311088Y6083063D01*
X10339046Y6007404D01*
X10367004Y5931706D01*
X10394962Y5855969D01*
X10422920Y5780194D01*
X10450878Y5704380D01*
X10478837Y5628528D01*
X10506795Y5552637D01*
X10534753Y5476707D01*
X10553392Y5426066D01*
X10818273Y5426066D01*
X10790315Y5502021D01*
X10762357Y5577938D01*
X10734399Y5653816D01*
X10706440Y5729656D01*
X10678482Y5805457D01*
X10650524Y5881219D01*
X10622566Y5956943D01*
X10594608Y6032628D01*
X10566649Y6108274D01*
X10538691Y6183882D01*
X10520053Y6234265D01*
X10492094Y6309916D01*
X10464136Y6385605D01*
X10436178Y6461333D01*
X10408220Y6537100D01*
X10380262Y6612905D01*
X10352303Y6688749D01*
X10324345Y6764631D01*
X10296387Y6840552D01*
X10268429Y6916512D01*
X10240471Y6992511D01*
X10221832Y7043198D01*
X9956951Y7043198D01*
G37*
G36*
X9263423Y5466000D02*
G01*
X8566232Y7072507D01*
X8549379Y7072507D01*
X7852188Y5466000D01*
X8204997Y5466000D01*
X8650129Y6595867D01*
X8429944Y6747175D01*
X8963371Y5466000D01*
X9263423Y5466000D01*
G37*
G36*
X8786783Y6024705D02*
G01*
X8322600Y6024705D01*
X8215621Y5768250D01*
X8881305Y5768250D01*
X8786783Y6024705D01*
G37*
G36*
X7041057Y6858184D02*
G01*
X6623402Y6858184D01*
X6623402Y5466000D01*
X6930049Y5466000D01*
X6930049Y6564360D01*
X7041057Y6564360D01*
X7041057Y6858184D01*
G37*
D13*
X13525333Y40981180D02*
X13525333Y40266895D01*
X13525333Y40266895D02*
X13572952Y40124038D01*
X13572952Y40124038D02*
X13668190Y40028800D01*
X13668190Y40028800D02*
X13811047Y39981180D01*
X13811047Y39981180D02*
X13906285Y39981180D01*
X13096761Y40885942D02*
X13049142Y40933561D01*
X13049142Y40933561D02*
X12953904Y40981180D01*
X12953904Y40981180D02*
X12715809Y40981180D01*
X12715809Y40981180D02*
X12620571Y40933561D01*
X12620571Y40933561D02*
X12572952Y40885942D01*
X12572952Y40885942D02*
X12525333Y40790704D01*
X12525333Y40790704D02*
X12525333Y40695466D01*
X12525333Y40695466D02*
X12572952Y40552609D01*
X12572952Y40552609D02*
X13144380Y39981180D01*
X13144380Y39981180D02*
X12525333Y39981180D01*
X48672951Y16362133D02*
X47911047Y16362133D01*
X48291999Y15981180D02*
X48291999Y16743085D01*
D14*
%TO.C,R15*%
X20264936Y42471000D02*
X20719064Y42471000D01*
X20264936Y41001000D02*
X20719064Y41001000D01*
%TO.C,R19*%
X20264136Y34471000D02*
X20718264Y34471000D01*
X20264136Y33001000D02*
X20718264Y33001000D01*
%TO.C,C12*%
X21228252Y20796000D02*
X19805748Y20796000D01*
X21228252Y18076000D02*
X19805748Y18076000D01*
%TO.C,J2*%
X7042000Y37792599D02*
X8242000Y37792599D01*
X8242000Y39282599D02*
X8242000Y37792599D01*
X8242000Y28982599D02*
X8242000Y30472599D01*
X9582000Y39282599D02*
X8242000Y39282599D01*
X9582000Y28982599D02*
X8242000Y28982599D01*
X12302000Y28982599D02*
X14042000Y28982599D01*
X14042000Y39282599D02*
X12302000Y39282599D01*
X14042000Y28982599D02*
X14042000Y39282599D01*
%TO.C,J3*%
X24250757Y36292599D02*
X25450757Y36292599D01*
X25450757Y37782599D02*
X25450757Y36292599D01*
X25450757Y19482599D02*
X25450757Y20972599D01*
X26790757Y37782599D02*
X25450757Y37782599D01*
X26790757Y19482599D02*
X25450757Y19482599D01*
X29510757Y19482599D02*
X31250757Y19482599D01*
X31250757Y37782599D02*
X29510757Y37782599D01*
X31250757Y19482599D02*
X31250757Y37782599D01*
%TO.C,Q9*%
X19940100Y32596000D02*
X20590100Y32596000D01*
X19940100Y29476000D02*
X20590100Y29476000D01*
X21240100Y32596000D02*
X20590100Y32596000D01*
X21240100Y29476000D02*
X20590100Y29476000D01*
X19667600Y29196000D02*
X19187600Y29196000D01*
X19427600Y29526000D01*
X19667600Y29196000D01*
G36*
X19667600Y29196000D02*
G01*
X19187600Y29196000D01*
X19427600Y29526000D01*
X19667600Y29196000D01*
G37*
%TO.C,R21*%
X54591841Y27586215D02*
X55045969Y27586215D01*
X54591841Y26116215D02*
X55045969Y26116215D01*
%TO.C,R27*%
X55008469Y23536215D02*
X54554341Y23536215D01*
X55008469Y22066215D02*
X54554341Y22066215D01*
%TO.C,C10*%
X20199548Y40471000D02*
X20722052Y40471000D01*
X20199548Y39001000D02*
X20722052Y39001000D01*
%TO.C,R22*%
X54591841Y29536215D02*
X55045969Y29536215D01*
X54591841Y28066215D02*
X55045969Y28066215D01*
%TO.C,R20*%
X20803064Y27171000D02*
X20348936Y27171000D01*
X20803064Y25701000D02*
X20348936Y25701000D01*
%TO.C,R18*%
X20364936Y29071000D02*
X20819064Y29071000D01*
X20364936Y27601000D02*
X20819064Y27601000D01*
%TO.C,BZ1*%
X42742000Y21736000D02*
X42742000Y17736000D01*
X45092000Y15386000D02*
X49092000Y15386000D01*
X49092000Y24086000D02*
X45092000Y24086000D01*
X51442000Y17736000D02*
X51442000Y21736000D01*
X52142000Y15686000D02*
X52142000Y14686000D01*
X52142000Y14686000D02*
X51142000Y14686000D01*
%TO.C,J4*%
D15*
X36834757Y26982599D02*
X51584757Y26982599D01*
X51584757Y41482599D01*
X36834757Y41482599D01*
X36834757Y26982599D01*
D14*
%TO.C,J5*%
X-308000Y24586000D02*
X-308000Y19586000D01*
X-308000Y24586000D02*
X1692000Y24586000D01*
X-308000Y19586000D02*
X1692000Y19586000D01*
X1692000Y25186000D02*
X1692000Y24586000D01*
X1692000Y25186000D02*
X12217000Y25186000D01*
X1692000Y19586000D02*
X1692000Y18986000D01*
X4067000Y18986000D02*
X1692000Y18986000D01*
X7067000Y18986000D02*
X5717000Y18986000D01*
X11117000Y18986000D02*
X8717000Y18986000D01*
X11117000Y17586000D02*
X11117000Y18986000D01*
X12667000Y17586000D02*
X12667000Y18986000D01*
X13792000Y18986000D02*
X12667000Y18986000D01*
X13792000Y18986000D02*
X13792000Y25186000D01*
%TO.C,C11*%
X20250348Y38471000D02*
X20772852Y38471000D01*
X20250348Y37001000D02*
X20772852Y37001000D01*
%TO.C,R29*%
X20364936Y24771000D02*
X20819064Y24771000D01*
X20364936Y23301000D02*
X20819064Y23301000D01*
%TO.C,R23*%
X54641841Y37236215D02*
X55095969Y37236215D01*
X54641841Y35766215D02*
X55095969Y35766215D01*
%TO.C,R25*%
X54641841Y33436215D02*
X55095969Y33436215D01*
X54641841Y31966215D02*
X55095969Y31966215D01*
%TO.C,C13*%
X21228252Y17496000D02*
X19805748Y17496000D01*
X21228252Y14776000D02*
X19805748Y14776000D01*
%TO.C,D42*%
X52562257Y18071000D02*
X52562257Y15801000D01*
X52562257Y15801000D02*
X56447257Y15801000D01*
X56447257Y18071000D02*
X52562257Y18071000D01*
%TO.C,Q8*%
X54131405Y21611215D02*
X54781405Y21611215D01*
X54131405Y18491215D02*
X54781405Y18491215D01*
X55431405Y21611215D02*
X54781405Y21611215D01*
X55431405Y18491215D02*
X54781405Y18491215D01*
X53858905Y18211215D02*
X53378905Y18211215D01*
X53618905Y18541215D01*
X53858905Y18211215D01*
G36*
X53858905Y18211215D02*
G01*
X53378905Y18211215D01*
X53618905Y18541215D01*
X53858905Y18211215D01*
G37*
%TO.C,R2*%
X55008469Y25536215D02*
X54554341Y25536215D01*
X55008469Y24066215D02*
X54554341Y24066215D01*
%TO.C,R28*%
X20364936Y22771000D02*
X20819064Y22771000D01*
X20364936Y21301000D02*
X20819064Y21301000D01*
%TO.C,C23*%
X54580748Y39324401D02*
X55103252Y39324401D01*
X54580748Y37854401D02*
X55103252Y37854401D01*
%TO.C,R24*%
X54641841Y35336215D02*
X55095969Y35336215D01*
X54641841Y33866215D02*
X55095969Y33866215D01*
%TO.C,C9*%
X20737252Y36471000D02*
X20214748Y36471000D01*
X20737252Y35001000D02*
X20214748Y35001000D01*
%TO.C,C15*%
X54607653Y31486215D02*
X55130157Y31486215D01*
X54607653Y30016215D02*
X55130157Y30016215D01*
%TD*%
M02*
