%TF.GenerationSoftware,KiCad,Pcbnew,8.0.8-8.0.8-0~ubuntu22.04.1*%
%TF.CreationDate,2025-02-03T23:54:13+00:00*%
%TF.ProjectId,numcalcium,6e756d63-616c-4636-9975-6d2e6b696361,rev?*%
%TF.SameCoordinates,Original*%
%TF.FileFunction,Legend,Top*%
%TF.FilePolarity,Positive*%
%FSLAX46Y46*%
G04 Gerber Fmt 4.6, Leading zero omitted, Abs format (unit mm)*
G04 Created by KiCad (PCBNEW 8.0.8-8.0.8-0~ubuntu22.04.1) date 2025-02-03 23:54:13*
%MOMM*%
%LPD*%
G01*
G04 APERTURE LIST*
%ADD10C,0.125000*%
%ADD11C,0.211666*%
%ADD12C,0.150000*%
%ADD13C,0.350000*%
%ADD14C,0.375000*%
%ADD15C,0.250000*%
%ADD16C,0.120000*%
G04 APERTURE END LIST*
D10*
X27867190Y-15921142D02*
X28367190Y-15921142D01*
X28367190Y-15921142D02*
X27867190Y-16206856D01*
X27867190Y-16206856D02*
X28367190Y-16206856D01*
X21916809Y-8494952D02*
X21416809Y-8494952D01*
X21416809Y-8494952D02*
X21416809Y-8304476D01*
X21416809Y-8304476D02*
X21440619Y-8256857D01*
X21440619Y-8256857D02*
X21464428Y-8233047D01*
X21464428Y-8233047D02*
X21512047Y-8209238D01*
X21512047Y-8209238D02*
X21583476Y-8209238D01*
X21583476Y-8209238D02*
X21631095Y-8233047D01*
X21631095Y-8233047D02*
X21654904Y-8256857D01*
X21654904Y-8256857D02*
X21678714Y-8304476D01*
X21678714Y-8304476D02*
X21678714Y-8494952D01*
X32316809Y-12306857D02*
X31816809Y-12306857D01*
X31816809Y-12306857D02*
X32316809Y-12021143D01*
X32316809Y-12021143D02*
X31816809Y-12021143D01*
X28516809Y-12394952D02*
X28016809Y-12394952D01*
X28016809Y-12394952D02*
X28016809Y-12204476D01*
X28016809Y-12204476D02*
X28040619Y-12156857D01*
X28040619Y-12156857D02*
X28064428Y-12133047D01*
X28064428Y-12133047D02*
X28112047Y-12109238D01*
X28112047Y-12109238D02*
X28183476Y-12109238D01*
X28183476Y-12109238D02*
X28231095Y-12133047D01*
X28231095Y-12133047D02*
X28254904Y-12156857D01*
X28254904Y-12156857D02*
X28278714Y-12204476D01*
X28278714Y-12204476D02*
X28278714Y-12394952D01*
X22716809Y-13633046D02*
X23216809Y-13299713D01*
X22716809Y-13299713D02*
X23216809Y-13633046D01*
X23169190Y-12823523D02*
X23193000Y-12847332D01*
X23193000Y-12847332D02*
X23216809Y-12918761D01*
X23216809Y-12918761D02*
X23216809Y-12966380D01*
X23216809Y-12966380D02*
X23193000Y-13037808D01*
X23193000Y-13037808D02*
X23145380Y-13085427D01*
X23145380Y-13085427D02*
X23097761Y-13109237D01*
X23097761Y-13109237D02*
X23002523Y-13133046D01*
X23002523Y-13133046D02*
X22931095Y-13133046D01*
X22931095Y-13133046D02*
X22835857Y-13109237D01*
X22835857Y-13109237D02*
X22788238Y-13085427D01*
X22788238Y-13085427D02*
X22740619Y-13037808D01*
X22740619Y-13037808D02*
X22716809Y-12966380D01*
X22716809Y-12966380D02*
X22716809Y-12918761D01*
X22716809Y-12918761D02*
X22740619Y-12847332D01*
X22740619Y-12847332D02*
X22764428Y-12823523D01*
X22716809Y-12394951D02*
X22716809Y-12490189D01*
X22716809Y-12490189D02*
X22740619Y-12537808D01*
X22740619Y-12537808D02*
X22764428Y-12561618D01*
X22764428Y-12561618D02*
X22835857Y-12609237D01*
X22835857Y-12609237D02*
X22931095Y-12633046D01*
X22931095Y-12633046D02*
X23121571Y-12633046D01*
X23121571Y-12633046D02*
X23169190Y-12609237D01*
X23169190Y-12609237D02*
X23193000Y-12585427D01*
X23193000Y-12585427D02*
X23216809Y-12537808D01*
X23216809Y-12537808D02*
X23216809Y-12442570D01*
X23216809Y-12442570D02*
X23193000Y-12394951D01*
X23193000Y-12394951D02*
X23169190Y-12371142D01*
X23169190Y-12371142D02*
X23121571Y-12347332D01*
X23121571Y-12347332D02*
X23002523Y-12347332D01*
X23002523Y-12347332D02*
X22954904Y-12371142D01*
X22954904Y-12371142D02*
X22931095Y-12394951D01*
X22931095Y-12394951D02*
X22907285Y-12442570D01*
X22907285Y-12442570D02*
X22907285Y-12537808D01*
X22907285Y-12537808D02*
X22931095Y-12585427D01*
X22931095Y-12585427D02*
X22954904Y-12609237D01*
X22954904Y-12609237D02*
X23002523Y-12633046D01*
X22764428Y-12156856D02*
X22740619Y-12133047D01*
X22740619Y-12133047D02*
X22716809Y-12085428D01*
X22716809Y-12085428D02*
X22716809Y-11966380D01*
X22716809Y-11966380D02*
X22740619Y-11918761D01*
X22740619Y-11918761D02*
X22764428Y-11894952D01*
X22764428Y-11894952D02*
X22812047Y-11871142D01*
X22812047Y-11871142D02*
X22859666Y-11871142D01*
X22859666Y-11871142D02*
X22931095Y-11894952D01*
X22931095Y-11894952D02*
X23216809Y-12180666D01*
X23216809Y-12180666D02*
X23216809Y-11871142D01*
X22716809Y-11561619D02*
X22716809Y-11514000D01*
X22716809Y-11514000D02*
X22740619Y-11466381D01*
X22740619Y-11466381D02*
X22764428Y-11442571D01*
X22764428Y-11442571D02*
X22812047Y-11418762D01*
X22812047Y-11418762D02*
X22907285Y-11394952D01*
X22907285Y-11394952D02*
X23026333Y-11394952D01*
X23026333Y-11394952D02*
X23121571Y-11418762D01*
X23121571Y-11418762D02*
X23169190Y-11442571D01*
X23169190Y-11442571D02*
X23193000Y-11466381D01*
X23193000Y-11466381D02*
X23216809Y-11514000D01*
X23216809Y-11514000D02*
X23216809Y-11561619D01*
X23216809Y-11561619D02*
X23193000Y-11609238D01*
X23193000Y-11609238D02*
X23169190Y-11633047D01*
X23169190Y-11633047D02*
X23121571Y-11656857D01*
X23121571Y-11656857D02*
X23026333Y-11680666D01*
X23026333Y-11680666D02*
X22907285Y-11680666D01*
X22907285Y-11680666D02*
X22812047Y-11656857D01*
X22812047Y-11656857D02*
X22764428Y-11633047D01*
X22764428Y-11633047D02*
X22740619Y-11609238D01*
X22740619Y-11609238D02*
X22716809Y-11561619D01*
X22716809Y-10966381D02*
X22716809Y-11061619D01*
X22716809Y-11061619D02*
X22740619Y-11109238D01*
X22740619Y-11109238D02*
X22764428Y-11133048D01*
X22764428Y-11133048D02*
X22835857Y-11180667D01*
X22835857Y-11180667D02*
X22931095Y-11204476D01*
X22931095Y-11204476D02*
X23121571Y-11204476D01*
X23121571Y-11204476D02*
X23169190Y-11180667D01*
X23169190Y-11180667D02*
X23193000Y-11156857D01*
X23193000Y-11156857D02*
X23216809Y-11109238D01*
X23216809Y-11109238D02*
X23216809Y-11014000D01*
X23216809Y-11014000D02*
X23193000Y-10966381D01*
X23193000Y-10966381D02*
X23169190Y-10942572D01*
X23169190Y-10942572D02*
X23121571Y-10918762D01*
X23121571Y-10918762D02*
X23002523Y-10918762D01*
X23002523Y-10918762D02*
X22954904Y-10942572D01*
X22954904Y-10942572D02*
X22931095Y-10966381D01*
X22931095Y-10966381D02*
X22907285Y-11014000D01*
X22907285Y-11014000D02*
X22907285Y-11109238D01*
X22907285Y-11109238D02*
X22931095Y-11156857D01*
X22931095Y-11156857D02*
X22954904Y-11180667D01*
X22954904Y-11180667D02*
X23002523Y-11204476D01*
X70484857Y-21488809D02*
X70484857Y-20988809D01*
X70484857Y-20988809D02*
X70603905Y-20988809D01*
X70603905Y-20988809D02*
X70675333Y-21012619D01*
X70675333Y-21012619D02*
X70722952Y-21060238D01*
X70722952Y-21060238D02*
X70746762Y-21107857D01*
X70746762Y-21107857D02*
X70770571Y-21203095D01*
X70770571Y-21203095D02*
X70770571Y-21274523D01*
X70770571Y-21274523D02*
X70746762Y-21369761D01*
X70746762Y-21369761D02*
X70722952Y-21417380D01*
X70722952Y-21417380D02*
X70675333Y-21465000D01*
X70675333Y-21465000D02*
X70603905Y-21488809D01*
X70603905Y-21488809D02*
X70484857Y-21488809D01*
X71199143Y-21155476D02*
X71199143Y-21488809D01*
X71080095Y-20965000D02*
X70961048Y-21322142D01*
X70961048Y-21322142D02*
X71270571Y-21322142D01*
X71675333Y-20988809D02*
X71580095Y-20988809D01*
X71580095Y-20988809D02*
X71532476Y-21012619D01*
X71532476Y-21012619D02*
X71508666Y-21036428D01*
X71508666Y-21036428D02*
X71461047Y-21107857D01*
X71461047Y-21107857D02*
X71437238Y-21203095D01*
X71437238Y-21203095D02*
X71437238Y-21393571D01*
X71437238Y-21393571D02*
X71461047Y-21441190D01*
X71461047Y-21441190D02*
X71484857Y-21465000D01*
X71484857Y-21465000D02*
X71532476Y-21488809D01*
X71532476Y-21488809D02*
X71627714Y-21488809D01*
X71627714Y-21488809D02*
X71675333Y-21465000D01*
X71675333Y-21465000D02*
X71699142Y-21441190D01*
X71699142Y-21441190D02*
X71722952Y-21393571D01*
X71722952Y-21393571D02*
X71722952Y-21274523D01*
X71722952Y-21274523D02*
X71699142Y-21226904D01*
X71699142Y-21226904D02*
X71675333Y-21203095D01*
X71675333Y-21203095D02*
X71627714Y-21179285D01*
X71627714Y-21179285D02*
X71532476Y-21179285D01*
X71532476Y-21179285D02*
X71484857Y-21203095D01*
X71484857Y-21203095D02*
X71461047Y-21226904D01*
X71461047Y-21226904D02*
X71437238Y-21274523D01*
X68284857Y-21488809D02*
X68284857Y-20988809D01*
X68284857Y-20988809D02*
X68403905Y-20988809D01*
X68403905Y-20988809D02*
X68475333Y-21012619D01*
X68475333Y-21012619D02*
X68522952Y-21060238D01*
X68522952Y-21060238D02*
X68546762Y-21107857D01*
X68546762Y-21107857D02*
X68570571Y-21203095D01*
X68570571Y-21203095D02*
X68570571Y-21274523D01*
X68570571Y-21274523D02*
X68546762Y-21369761D01*
X68546762Y-21369761D02*
X68522952Y-21417380D01*
X68522952Y-21417380D02*
X68475333Y-21465000D01*
X68475333Y-21465000D02*
X68403905Y-21488809D01*
X68403905Y-21488809D02*
X68284857Y-21488809D01*
X68999143Y-21155476D02*
X68999143Y-21488809D01*
X68880095Y-20965000D02*
X68761048Y-21322142D01*
X68761048Y-21322142D02*
X69070571Y-21322142D01*
X69499142Y-20988809D02*
X69261047Y-20988809D01*
X69261047Y-20988809D02*
X69237238Y-21226904D01*
X69237238Y-21226904D02*
X69261047Y-21203095D01*
X69261047Y-21203095D02*
X69308666Y-21179285D01*
X69308666Y-21179285D02*
X69427714Y-21179285D01*
X69427714Y-21179285D02*
X69475333Y-21203095D01*
X69475333Y-21203095D02*
X69499142Y-21226904D01*
X69499142Y-21226904D02*
X69522952Y-21274523D01*
X69522952Y-21274523D02*
X69522952Y-21393571D01*
X69522952Y-21393571D02*
X69499142Y-21441190D01*
X69499142Y-21441190D02*
X69475333Y-21465000D01*
X69475333Y-21465000D02*
X69427714Y-21488809D01*
X69427714Y-21488809D02*
X69308666Y-21488809D01*
X69308666Y-21488809D02*
X69261047Y-21465000D01*
X69261047Y-21465000D02*
X69237238Y-21441190D01*
X65808667Y-20255476D02*
X65808667Y-20588809D01*
X65689619Y-20065000D02*
X65570572Y-20422142D01*
X65570572Y-20422142D02*
X65880095Y-20422142D01*
X66022952Y-20088809D02*
X66356285Y-20088809D01*
X66356285Y-20088809D02*
X66142000Y-20588809D01*
X66641999Y-20088809D02*
X66689618Y-20088809D01*
X66689618Y-20088809D02*
X66737237Y-20112619D01*
X66737237Y-20112619D02*
X66761047Y-20136428D01*
X66761047Y-20136428D02*
X66784856Y-20184047D01*
X66784856Y-20184047D02*
X66808666Y-20279285D01*
X66808666Y-20279285D02*
X66808666Y-20398333D01*
X66808666Y-20398333D02*
X66784856Y-20493571D01*
X66784856Y-20493571D02*
X66761047Y-20541190D01*
X66761047Y-20541190D02*
X66737237Y-20565000D01*
X66737237Y-20565000D02*
X66689618Y-20588809D01*
X66689618Y-20588809D02*
X66641999Y-20588809D01*
X66641999Y-20588809D02*
X66594380Y-20565000D01*
X66594380Y-20565000D02*
X66570571Y-20541190D01*
X66570571Y-20541190D02*
X66546761Y-20493571D01*
X66546761Y-20493571D02*
X66522952Y-20398333D01*
X66522952Y-20398333D02*
X66522952Y-20279285D01*
X66522952Y-20279285D02*
X66546761Y-20184047D01*
X66546761Y-20184047D02*
X66570571Y-20136428D01*
X66570571Y-20136428D02*
X66594380Y-20112619D01*
X66594380Y-20112619D02*
X66641999Y-20088809D01*
X67022951Y-20588809D02*
X67022951Y-20088809D01*
X67070570Y-20398333D02*
X67213427Y-20588809D01*
X67213427Y-20255476D02*
X67022951Y-20445952D01*
X59722953Y-23555476D02*
X59722953Y-23888809D01*
X59603905Y-23365000D02*
X59484858Y-23722142D01*
X59484858Y-23722142D02*
X59794381Y-23722142D01*
X59937238Y-23388809D02*
X60270571Y-23388809D01*
X60270571Y-23388809D02*
X60056286Y-23888809D01*
X60556285Y-23388809D02*
X60603904Y-23388809D01*
X60603904Y-23388809D02*
X60651523Y-23412619D01*
X60651523Y-23412619D02*
X60675333Y-23436428D01*
X60675333Y-23436428D02*
X60699142Y-23484047D01*
X60699142Y-23484047D02*
X60722952Y-23579285D01*
X60722952Y-23579285D02*
X60722952Y-23698333D01*
X60722952Y-23698333D02*
X60699142Y-23793571D01*
X60699142Y-23793571D02*
X60675333Y-23841190D01*
X60675333Y-23841190D02*
X60651523Y-23865000D01*
X60651523Y-23865000D02*
X60603904Y-23888809D01*
X60603904Y-23888809D02*
X60556285Y-23888809D01*
X60556285Y-23888809D02*
X60508666Y-23865000D01*
X60508666Y-23865000D02*
X60484857Y-23841190D01*
X60484857Y-23841190D02*
X60461047Y-23793571D01*
X60461047Y-23793571D02*
X60437238Y-23698333D01*
X60437238Y-23698333D02*
X60437238Y-23579285D01*
X60437238Y-23579285D02*
X60461047Y-23484047D01*
X60461047Y-23484047D02*
X60484857Y-23436428D01*
X60484857Y-23436428D02*
X60508666Y-23412619D01*
X60508666Y-23412619D02*
X60556285Y-23388809D01*
X61151523Y-23555476D02*
X61151523Y-23888809D01*
X60937237Y-23555476D02*
X60937237Y-23817380D01*
X60937237Y-23817380D02*
X60961047Y-23865000D01*
X60961047Y-23865000D02*
X61008666Y-23888809D01*
X61008666Y-23888809D02*
X61080094Y-23888809D01*
X61080094Y-23888809D02*
X61127713Y-23865000D01*
X61127713Y-23865000D02*
X61151523Y-23841190D01*
X61389618Y-23888809D02*
X61389618Y-23388809D01*
X61389618Y-23626904D02*
X61675332Y-23626904D01*
X61675332Y-23888809D02*
X61675332Y-23388809D01*
X56622953Y-23555476D02*
X56622953Y-23888809D01*
X56503905Y-23365000D02*
X56384858Y-23722142D01*
X56384858Y-23722142D02*
X56694381Y-23722142D01*
X56837238Y-23388809D02*
X57170571Y-23388809D01*
X57170571Y-23388809D02*
X56956286Y-23888809D01*
X57456285Y-23388809D02*
X57503904Y-23388809D01*
X57503904Y-23388809D02*
X57551523Y-23412619D01*
X57551523Y-23412619D02*
X57575333Y-23436428D01*
X57575333Y-23436428D02*
X57599142Y-23484047D01*
X57599142Y-23484047D02*
X57622952Y-23579285D01*
X57622952Y-23579285D02*
X57622952Y-23698333D01*
X57622952Y-23698333D02*
X57599142Y-23793571D01*
X57599142Y-23793571D02*
X57575333Y-23841190D01*
X57575333Y-23841190D02*
X57551523Y-23865000D01*
X57551523Y-23865000D02*
X57503904Y-23888809D01*
X57503904Y-23888809D02*
X57456285Y-23888809D01*
X57456285Y-23888809D02*
X57408666Y-23865000D01*
X57408666Y-23865000D02*
X57384857Y-23841190D01*
X57384857Y-23841190D02*
X57361047Y-23793571D01*
X57361047Y-23793571D02*
X57337238Y-23698333D01*
X57337238Y-23698333D02*
X57337238Y-23579285D01*
X57337238Y-23579285D02*
X57361047Y-23484047D01*
X57361047Y-23484047D02*
X57384857Y-23436428D01*
X57384857Y-23436428D02*
X57408666Y-23412619D01*
X57408666Y-23412619D02*
X57456285Y-23388809D01*
X58051523Y-23555476D02*
X58051523Y-23888809D01*
X57837237Y-23555476D02*
X57837237Y-23817380D01*
X57837237Y-23817380D02*
X57861047Y-23865000D01*
X57861047Y-23865000D02*
X57908666Y-23888809D01*
X57908666Y-23888809D02*
X57980094Y-23888809D01*
X57980094Y-23888809D02*
X58027713Y-23865000D01*
X58027713Y-23865000D02*
X58051523Y-23841190D01*
X58289618Y-23888809D02*
X58289618Y-23388809D01*
X58289618Y-23626904D02*
X58575332Y-23626904D01*
X58575332Y-23888809D02*
X58575332Y-23388809D01*
X62532477Y-23436428D02*
X62556286Y-23412619D01*
X62556286Y-23412619D02*
X62603905Y-23388809D01*
X62603905Y-23388809D02*
X62722953Y-23388809D01*
X62722953Y-23388809D02*
X62770572Y-23412619D01*
X62770572Y-23412619D02*
X62794381Y-23436428D01*
X62794381Y-23436428D02*
X62818191Y-23484047D01*
X62818191Y-23484047D02*
X62818191Y-23531666D01*
X62818191Y-23531666D02*
X62794381Y-23603095D01*
X62794381Y-23603095D02*
X62508667Y-23888809D01*
X62508667Y-23888809D02*
X62818191Y-23888809D01*
X63008667Y-23436428D02*
X63032476Y-23412619D01*
X63032476Y-23412619D02*
X63080095Y-23388809D01*
X63080095Y-23388809D02*
X63199143Y-23388809D01*
X63199143Y-23388809D02*
X63246762Y-23412619D01*
X63246762Y-23412619D02*
X63270571Y-23436428D01*
X63270571Y-23436428D02*
X63294381Y-23484047D01*
X63294381Y-23484047D02*
X63294381Y-23531666D01*
X63294381Y-23531666D02*
X63270571Y-23603095D01*
X63270571Y-23603095D02*
X62984857Y-23888809D01*
X62984857Y-23888809D02*
X63294381Y-23888809D01*
X63603904Y-23388809D02*
X63651523Y-23388809D01*
X63651523Y-23388809D02*
X63699142Y-23412619D01*
X63699142Y-23412619D02*
X63722952Y-23436428D01*
X63722952Y-23436428D02*
X63746761Y-23484047D01*
X63746761Y-23484047D02*
X63770571Y-23579285D01*
X63770571Y-23579285D02*
X63770571Y-23698333D01*
X63770571Y-23698333D02*
X63746761Y-23793571D01*
X63746761Y-23793571D02*
X63722952Y-23841190D01*
X63722952Y-23841190D02*
X63699142Y-23865000D01*
X63699142Y-23865000D02*
X63651523Y-23888809D01*
X63651523Y-23888809D02*
X63603904Y-23888809D01*
X63603904Y-23888809D02*
X63556285Y-23865000D01*
X63556285Y-23865000D02*
X63532476Y-23841190D01*
X63532476Y-23841190D02*
X63508666Y-23793571D01*
X63508666Y-23793571D02*
X63484857Y-23698333D01*
X63484857Y-23698333D02*
X63484857Y-23579285D01*
X63484857Y-23579285D02*
X63508666Y-23484047D01*
X63508666Y-23484047D02*
X63532476Y-23436428D01*
X63532476Y-23436428D02*
X63556285Y-23412619D01*
X63556285Y-23412619D02*
X63603904Y-23388809D01*
X63984856Y-23555476D02*
X63984856Y-23888809D01*
X63984856Y-23603095D02*
X64008666Y-23579285D01*
X64008666Y-23579285D02*
X64056285Y-23555476D01*
X64056285Y-23555476D02*
X64127713Y-23555476D01*
X64127713Y-23555476D02*
X64175332Y-23579285D01*
X64175332Y-23579285D02*
X64199142Y-23626904D01*
X64199142Y-23626904D02*
X64199142Y-23888809D01*
X64603904Y-23626904D02*
X64437237Y-23626904D01*
X64437237Y-23888809D02*
X64437237Y-23388809D01*
X64437237Y-23388809D02*
X64675332Y-23388809D01*
X53332477Y-23436428D02*
X53356286Y-23412619D01*
X53356286Y-23412619D02*
X53403905Y-23388809D01*
X53403905Y-23388809D02*
X53522953Y-23388809D01*
X53522953Y-23388809D02*
X53570572Y-23412619D01*
X53570572Y-23412619D02*
X53594381Y-23436428D01*
X53594381Y-23436428D02*
X53618191Y-23484047D01*
X53618191Y-23484047D02*
X53618191Y-23531666D01*
X53618191Y-23531666D02*
X53594381Y-23603095D01*
X53594381Y-23603095D02*
X53308667Y-23888809D01*
X53308667Y-23888809D02*
X53618191Y-23888809D01*
X53808667Y-23436428D02*
X53832476Y-23412619D01*
X53832476Y-23412619D02*
X53880095Y-23388809D01*
X53880095Y-23388809D02*
X53999143Y-23388809D01*
X53999143Y-23388809D02*
X54046762Y-23412619D01*
X54046762Y-23412619D02*
X54070571Y-23436428D01*
X54070571Y-23436428D02*
X54094381Y-23484047D01*
X54094381Y-23484047D02*
X54094381Y-23531666D01*
X54094381Y-23531666D02*
X54070571Y-23603095D01*
X54070571Y-23603095D02*
X53784857Y-23888809D01*
X53784857Y-23888809D02*
X54094381Y-23888809D01*
X54403904Y-23388809D02*
X54451523Y-23388809D01*
X54451523Y-23388809D02*
X54499142Y-23412619D01*
X54499142Y-23412619D02*
X54522952Y-23436428D01*
X54522952Y-23436428D02*
X54546761Y-23484047D01*
X54546761Y-23484047D02*
X54570571Y-23579285D01*
X54570571Y-23579285D02*
X54570571Y-23698333D01*
X54570571Y-23698333D02*
X54546761Y-23793571D01*
X54546761Y-23793571D02*
X54522952Y-23841190D01*
X54522952Y-23841190D02*
X54499142Y-23865000D01*
X54499142Y-23865000D02*
X54451523Y-23888809D01*
X54451523Y-23888809D02*
X54403904Y-23888809D01*
X54403904Y-23888809D02*
X54356285Y-23865000D01*
X54356285Y-23865000D02*
X54332476Y-23841190D01*
X54332476Y-23841190D02*
X54308666Y-23793571D01*
X54308666Y-23793571D02*
X54284857Y-23698333D01*
X54284857Y-23698333D02*
X54284857Y-23579285D01*
X54284857Y-23579285D02*
X54308666Y-23484047D01*
X54308666Y-23484047D02*
X54332476Y-23436428D01*
X54332476Y-23436428D02*
X54356285Y-23412619D01*
X54356285Y-23412619D02*
X54403904Y-23388809D01*
X54784856Y-23555476D02*
X54784856Y-23888809D01*
X54784856Y-23603095D02*
X54808666Y-23579285D01*
X54808666Y-23579285D02*
X54856285Y-23555476D01*
X54856285Y-23555476D02*
X54927713Y-23555476D01*
X54927713Y-23555476D02*
X54975332Y-23579285D01*
X54975332Y-23579285D02*
X54999142Y-23626904D01*
X54999142Y-23626904D02*
X54999142Y-23888809D01*
X55403904Y-23626904D02*
X55237237Y-23626904D01*
X55237237Y-23888809D02*
X55237237Y-23388809D01*
X55237237Y-23388809D02*
X55475332Y-23388809D01*
X31964428Y-22185427D02*
X31940619Y-22161618D01*
X31940619Y-22161618D02*
X31916809Y-22113999D01*
X31916809Y-22113999D02*
X31916809Y-21994951D01*
X31916809Y-21994951D02*
X31940619Y-21947332D01*
X31940619Y-21947332D02*
X31964428Y-21923523D01*
X31964428Y-21923523D02*
X32012047Y-21899713D01*
X32012047Y-21899713D02*
X32059666Y-21899713D01*
X32059666Y-21899713D02*
X32131095Y-21923523D01*
X32131095Y-21923523D02*
X32416809Y-22209237D01*
X32416809Y-22209237D02*
X32416809Y-21899713D01*
X31964428Y-21709237D02*
X31940619Y-21685428D01*
X31940619Y-21685428D02*
X31916809Y-21637809D01*
X31916809Y-21637809D02*
X31916809Y-21518761D01*
X31916809Y-21518761D02*
X31940619Y-21471142D01*
X31940619Y-21471142D02*
X31964428Y-21447333D01*
X31964428Y-21447333D02*
X32012047Y-21423523D01*
X32012047Y-21423523D02*
X32059666Y-21423523D01*
X32059666Y-21423523D02*
X32131095Y-21447333D01*
X32131095Y-21447333D02*
X32416809Y-21733047D01*
X32416809Y-21733047D02*
X32416809Y-21423523D01*
X32083476Y-20994952D02*
X32416809Y-20994952D01*
X32083476Y-21209238D02*
X32345380Y-21209238D01*
X32345380Y-21209238D02*
X32393000Y-21185428D01*
X32393000Y-21185428D02*
X32416809Y-21137809D01*
X32416809Y-21137809D02*
X32416809Y-21066381D01*
X32416809Y-21066381D02*
X32393000Y-21018762D01*
X32393000Y-21018762D02*
X32369190Y-20994952D01*
X32154904Y-20590190D02*
X32154904Y-20756857D01*
X32416809Y-20756857D02*
X31916809Y-20756857D01*
X31916809Y-20756857D02*
X31916809Y-20518762D01*
X31516809Y-18906856D02*
X31516809Y-19192570D01*
X31516809Y-19049713D02*
X31016809Y-19049713D01*
X31016809Y-19049713D02*
X31088238Y-19097332D01*
X31088238Y-19097332D02*
X31135857Y-19144951D01*
X31135857Y-19144951D02*
X31159666Y-19192570D01*
X31516809Y-18692571D02*
X31016809Y-18692571D01*
X31016809Y-18692571D02*
X31373952Y-18525904D01*
X31373952Y-18525904D02*
X31016809Y-18359238D01*
X31016809Y-18359238D02*
X31516809Y-18359238D01*
X28916809Y-9706856D02*
X28916809Y-9992570D01*
X28916809Y-9849713D02*
X28416809Y-9849713D01*
X28416809Y-9849713D02*
X28488238Y-9897332D01*
X28488238Y-9897332D02*
X28535857Y-9944951D01*
X28535857Y-9944951D02*
X28559666Y-9992570D01*
X28916809Y-9492571D02*
X28416809Y-9492571D01*
X28416809Y-9492571D02*
X28773952Y-9325904D01*
X28773952Y-9325904D02*
X28416809Y-9159238D01*
X28416809Y-9159238D02*
X28916809Y-9159238D01*
X38816809Y-7671142D02*
X38816809Y-7361618D01*
X38816809Y-7361618D02*
X39007285Y-7528285D01*
X39007285Y-7528285D02*
X39007285Y-7456856D01*
X39007285Y-7456856D02*
X39031095Y-7409237D01*
X39031095Y-7409237D02*
X39054904Y-7385428D01*
X39054904Y-7385428D02*
X39102523Y-7361618D01*
X39102523Y-7361618D02*
X39221571Y-7361618D01*
X39221571Y-7361618D02*
X39269190Y-7385428D01*
X39269190Y-7385428D02*
X39293000Y-7409237D01*
X39293000Y-7409237D02*
X39316809Y-7456856D01*
X39316809Y-7456856D02*
X39316809Y-7599713D01*
X39316809Y-7599713D02*
X39293000Y-7647332D01*
X39293000Y-7647332D02*
X39269190Y-7671142D01*
X38816809Y-7194952D02*
X38816809Y-6885428D01*
X38816809Y-6885428D02*
X39007285Y-7052095D01*
X39007285Y-7052095D02*
X39007285Y-6980666D01*
X39007285Y-6980666D02*
X39031095Y-6933047D01*
X39031095Y-6933047D02*
X39054904Y-6909238D01*
X39054904Y-6909238D02*
X39102523Y-6885428D01*
X39102523Y-6885428D02*
X39221571Y-6885428D01*
X39221571Y-6885428D02*
X39269190Y-6909238D01*
X39269190Y-6909238D02*
X39293000Y-6933047D01*
X39293000Y-6933047D02*
X39316809Y-6980666D01*
X39316809Y-6980666D02*
X39316809Y-7123523D01*
X39316809Y-7123523D02*
X39293000Y-7171142D01*
X39293000Y-7171142D02*
X39269190Y-7194952D01*
X39316809Y-6671143D02*
X38816809Y-6671143D01*
X39126333Y-6623524D02*
X39316809Y-6480667D01*
X38983476Y-6480667D02*
X39173952Y-6671143D01*
X38816809Y-5671142D02*
X38816809Y-5361618D01*
X38816809Y-5361618D02*
X39007285Y-5528285D01*
X39007285Y-5528285D02*
X39007285Y-5456856D01*
X39007285Y-5456856D02*
X39031095Y-5409237D01*
X39031095Y-5409237D02*
X39054904Y-5385428D01*
X39054904Y-5385428D02*
X39102523Y-5361618D01*
X39102523Y-5361618D02*
X39221571Y-5361618D01*
X39221571Y-5361618D02*
X39269190Y-5385428D01*
X39269190Y-5385428D02*
X39293000Y-5409237D01*
X39293000Y-5409237D02*
X39316809Y-5456856D01*
X39316809Y-5456856D02*
X39316809Y-5599713D01*
X39316809Y-5599713D02*
X39293000Y-5647332D01*
X39293000Y-5647332D02*
X39269190Y-5671142D01*
X38816809Y-5194952D02*
X38816809Y-4885428D01*
X38816809Y-4885428D02*
X39007285Y-5052095D01*
X39007285Y-5052095D02*
X39007285Y-4980666D01*
X39007285Y-4980666D02*
X39031095Y-4933047D01*
X39031095Y-4933047D02*
X39054904Y-4909238D01*
X39054904Y-4909238D02*
X39102523Y-4885428D01*
X39102523Y-4885428D02*
X39221571Y-4885428D01*
X39221571Y-4885428D02*
X39269190Y-4909238D01*
X39269190Y-4909238D02*
X39293000Y-4933047D01*
X39293000Y-4933047D02*
X39316809Y-4980666D01*
X39316809Y-4980666D02*
X39316809Y-5123523D01*
X39316809Y-5123523D02*
X39293000Y-5171142D01*
X39293000Y-5171142D02*
X39269190Y-5194952D01*
X39316809Y-4671143D02*
X38816809Y-4671143D01*
X39126333Y-4623524D02*
X39316809Y-4480667D01*
X38983476Y-4480667D02*
X39173952Y-4671143D01*
X39416809Y-3361618D02*
X39416809Y-3647332D01*
X39416809Y-3504475D02*
X38916809Y-3504475D01*
X38916809Y-3504475D02*
X38988238Y-3552094D01*
X38988238Y-3552094D02*
X39035857Y-3599713D01*
X39035857Y-3599713D02*
X39059666Y-3647332D01*
X39083476Y-2933047D02*
X39416809Y-2933047D01*
X39083476Y-3147333D02*
X39345380Y-3147333D01*
X39345380Y-3147333D02*
X39393000Y-3123523D01*
X39393000Y-3123523D02*
X39416809Y-3075904D01*
X39416809Y-3075904D02*
X39416809Y-3004476D01*
X39416809Y-3004476D02*
X39393000Y-2956857D01*
X39393000Y-2956857D02*
X39369190Y-2933047D01*
X39154904Y-2528285D02*
X39154904Y-2694952D01*
X39416809Y-2694952D02*
X38916809Y-2694952D01*
X38916809Y-2694952D02*
X38916809Y-2456857D01*
X41894381Y1811190D02*
X41608667Y1811190D01*
X41751524Y1811190D02*
X41751524Y2311190D01*
X41751524Y2311190D02*
X41703905Y2239761D01*
X41703905Y2239761D02*
X41656286Y2192142D01*
X41656286Y2192142D02*
X41608667Y2168333D01*
X42203904Y2311190D02*
X42251523Y2311190D01*
X42251523Y2311190D02*
X42299142Y2287380D01*
X42299142Y2287380D02*
X42322952Y2263571D01*
X42322952Y2263571D02*
X42346761Y2215952D01*
X42346761Y2215952D02*
X42370571Y2120714D01*
X42370571Y2120714D02*
X42370571Y2001666D01*
X42370571Y2001666D02*
X42346761Y1906428D01*
X42346761Y1906428D02*
X42322952Y1858809D01*
X42322952Y1858809D02*
X42299142Y1835000D01*
X42299142Y1835000D02*
X42251523Y1811190D01*
X42251523Y1811190D02*
X42203904Y1811190D01*
X42203904Y1811190D02*
X42156285Y1835000D01*
X42156285Y1835000D02*
X42132476Y1858809D01*
X42132476Y1858809D02*
X42108666Y1906428D01*
X42108666Y1906428D02*
X42084857Y2001666D01*
X42084857Y2001666D02*
X42084857Y2120714D01*
X42084857Y2120714D02*
X42108666Y2215952D01*
X42108666Y2215952D02*
X42132476Y2263571D01*
X42132476Y2263571D02*
X42156285Y2287380D01*
X42156285Y2287380D02*
X42203904Y2311190D01*
X42584856Y1811190D02*
X42584856Y2311190D01*
X42632475Y2001666D02*
X42775332Y1811190D01*
X42775332Y2144523D02*
X42584856Y1954047D01*
X39118191Y1811190D02*
X38832477Y1811190D01*
X38975334Y1811190D02*
X38975334Y2311190D01*
X38975334Y2311190D02*
X38927715Y2239761D01*
X38927715Y2239761D02*
X38880096Y2192142D01*
X38880096Y2192142D02*
X38832477Y2168333D01*
X39427714Y2311190D02*
X39475333Y2311190D01*
X39475333Y2311190D02*
X39522952Y2287380D01*
X39522952Y2287380D02*
X39546762Y2263571D01*
X39546762Y2263571D02*
X39570571Y2215952D01*
X39570571Y2215952D02*
X39594381Y2120714D01*
X39594381Y2120714D02*
X39594381Y2001666D01*
X39594381Y2001666D02*
X39570571Y1906428D01*
X39570571Y1906428D02*
X39546762Y1858809D01*
X39546762Y1858809D02*
X39522952Y1835000D01*
X39522952Y1835000D02*
X39475333Y1811190D01*
X39475333Y1811190D02*
X39427714Y1811190D01*
X39427714Y1811190D02*
X39380095Y1835000D01*
X39380095Y1835000D02*
X39356286Y1858809D01*
X39356286Y1858809D02*
X39332476Y1906428D01*
X39332476Y1906428D02*
X39308667Y2001666D01*
X39308667Y2001666D02*
X39308667Y2120714D01*
X39308667Y2120714D02*
X39332476Y2215952D01*
X39332476Y2215952D02*
X39356286Y2263571D01*
X39356286Y2263571D02*
X39380095Y2287380D01*
X39380095Y2287380D02*
X39427714Y2311190D01*
X39903904Y2311190D02*
X39951523Y2311190D01*
X39951523Y2311190D02*
X39999142Y2287380D01*
X39999142Y2287380D02*
X40022952Y2263571D01*
X40022952Y2263571D02*
X40046761Y2215952D01*
X40046761Y2215952D02*
X40070571Y2120714D01*
X40070571Y2120714D02*
X40070571Y2001666D01*
X40070571Y2001666D02*
X40046761Y1906428D01*
X40046761Y1906428D02*
X40022952Y1858809D01*
X40022952Y1858809D02*
X39999142Y1835000D01*
X39999142Y1835000D02*
X39951523Y1811190D01*
X39951523Y1811190D02*
X39903904Y1811190D01*
X39903904Y1811190D02*
X39856285Y1835000D01*
X39856285Y1835000D02*
X39832476Y1858809D01*
X39832476Y1858809D02*
X39808666Y1906428D01*
X39808666Y1906428D02*
X39784857Y2001666D01*
X39784857Y2001666D02*
X39784857Y2120714D01*
X39784857Y2120714D02*
X39808666Y2215952D01*
X39808666Y2215952D02*
X39832476Y2263571D01*
X39832476Y2263571D02*
X39856285Y2287380D01*
X39856285Y2287380D02*
X39903904Y2311190D01*
X40284856Y2144523D02*
X40284856Y1811190D01*
X40284856Y2096904D02*
X40308666Y2120714D01*
X40308666Y2120714D02*
X40356285Y2144523D01*
X40356285Y2144523D02*
X40427713Y2144523D01*
X40427713Y2144523D02*
X40475332Y2120714D01*
X40475332Y2120714D02*
X40499142Y2073095D01*
X40499142Y2073095D02*
X40499142Y1811190D01*
X40903904Y2073095D02*
X40737237Y2073095D01*
X40737237Y1811190D02*
X40737237Y2311190D01*
X40737237Y2311190D02*
X40975332Y2311190D01*
X36094381Y1711190D02*
X35808667Y1711190D01*
X35951524Y1711190D02*
X35951524Y2211190D01*
X35951524Y2211190D02*
X35903905Y2139761D01*
X35903905Y2139761D02*
X35856286Y2092142D01*
X35856286Y2092142D02*
X35808667Y2068333D01*
X36522952Y2044523D02*
X36522952Y1711190D01*
X36308666Y2044523D02*
X36308666Y1782619D01*
X36308666Y1782619D02*
X36332476Y1735000D01*
X36332476Y1735000D02*
X36380095Y1711190D01*
X36380095Y1711190D02*
X36451523Y1711190D01*
X36451523Y1711190D02*
X36499142Y1735000D01*
X36499142Y1735000D02*
X36522952Y1758809D01*
X36927714Y1973095D02*
X36761047Y1973095D01*
X36761047Y1711190D02*
X36761047Y2211190D01*
X36761047Y2211190D02*
X36999142Y2211190D01*
X33432477Y-6736428D02*
X33456286Y-6712619D01*
X33456286Y-6712619D02*
X33503905Y-6688809D01*
X33503905Y-6688809D02*
X33622953Y-6688809D01*
X33622953Y-6688809D02*
X33670572Y-6712619D01*
X33670572Y-6712619D02*
X33694381Y-6736428D01*
X33694381Y-6736428D02*
X33718191Y-6784047D01*
X33718191Y-6784047D02*
X33718191Y-6831666D01*
X33718191Y-6831666D02*
X33694381Y-6903095D01*
X33694381Y-6903095D02*
X33408667Y-7188809D01*
X33408667Y-7188809D02*
X33718191Y-7188809D01*
X33908667Y-6736428D02*
X33932476Y-6712619D01*
X33932476Y-6712619D02*
X33980095Y-6688809D01*
X33980095Y-6688809D02*
X34099143Y-6688809D01*
X34099143Y-6688809D02*
X34146762Y-6712619D01*
X34146762Y-6712619D02*
X34170571Y-6736428D01*
X34170571Y-6736428D02*
X34194381Y-6784047D01*
X34194381Y-6784047D02*
X34194381Y-6831666D01*
X34194381Y-6831666D02*
X34170571Y-6903095D01*
X34170571Y-6903095D02*
X33884857Y-7188809D01*
X33884857Y-7188809D02*
X34194381Y-7188809D01*
X34503904Y-6688809D02*
X34551523Y-6688809D01*
X34551523Y-6688809D02*
X34599142Y-6712619D01*
X34599142Y-6712619D02*
X34622952Y-6736428D01*
X34622952Y-6736428D02*
X34646761Y-6784047D01*
X34646761Y-6784047D02*
X34670571Y-6879285D01*
X34670571Y-6879285D02*
X34670571Y-6998333D01*
X34670571Y-6998333D02*
X34646761Y-7093571D01*
X34646761Y-7093571D02*
X34622952Y-7141190D01*
X34622952Y-7141190D02*
X34599142Y-7165000D01*
X34599142Y-7165000D02*
X34551523Y-7188809D01*
X34551523Y-7188809D02*
X34503904Y-7188809D01*
X34503904Y-7188809D02*
X34456285Y-7165000D01*
X34456285Y-7165000D02*
X34432476Y-7141190D01*
X34432476Y-7141190D02*
X34408666Y-7093571D01*
X34408666Y-7093571D02*
X34384857Y-6998333D01*
X34384857Y-6998333D02*
X34384857Y-6879285D01*
X34384857Y-6879285D02*
X34408666Y-6784047D01*
X34408666Y-6784047D02*
X34432476Y-6736428D01*
X34432476Y-6736428D02*
X34456285Y-6712619D01*
X34456285Y-6712619D02*
X34503904Y-6688809D01*
X35099142Y-6855476D02*
X35099142Y-7188809D01*
X34884856Y-6855476D02*
X34884856Y-7117380D01*
X34884856Y-7117380D02*
X34908666Y-7165000D01*
X34908666Y-7165000D02*
X34956285Y-7188809D01*
X34956285Y-7188809D02*
X35027713Y-7188809D01*
X35027713Y-7188809D02*
X35075332Y-7165000D01*
X35075332Y-7165000D02*
X35099142Y-7141190D01*
X35503904Y-6926904D02*
X35337237Y-6926904D01*
X35337237Y-7188809D02*
X35337237Y-6688809D01*
X35337237Y-6688809D02*
X35575332Y-6688809D01*
X29883476Y-7747332D02*
X30216809Y-7747332D01*
X29693000Y-7866380D02*
X30050142Y-7985427D01*
X30050142Y-7985427D02*
X30050142Y-7675904D01*
X29716809Y-7533047D02*
X29716809Y-7199714D01*
X29716809Y-7199714D02*
X30216809Y-7413999D01*
X29883476Y-6794952D02*
X30216809Y-6794952D01*
X29883476Y-7009238D02*
X30145380Y-7009238D01*
X30145380Y-7009238D02*
X30193000Y-6985428D01*
X30193000Y-6985428D02*
X30216809Y-6937809D01*
X30216809Y-6937809D02*
X30216809Y-6866381D01*
X30216809Y-6866381D02*
X30193000Y-6818762D01*
X30193000Y-6818762D02*
X30169190Y-6794952D01*
X29954904Y-6390190D02*
X29954904Y-6556857D01*
X30216809Y-6556857D02*
X29716809Y-6556857D01*
X29716809Y-6556857D02*
X29716809Y-6318762D01*
X17022953Y-6336428D02*
X17046762Y-6312619D01*
X17046762Y-6312619D02*
X17094381Y-6288809D01*
X17094381Y-6288809D02*
X17213429Y-6288809D01*
X17213429Y-6288809D02*
X17261048Y-6312619D01*
X17261048Y-6312619D02*
X17284857Y-6336428D01*
X17284857Y-6336428D02*
X17308667Y-6384047D01*
X17308667Y-6384047D02*
X17308667Y-6431666D01*
X17308667Y-6431666D02*
X17284857Y-6503095D01*
X17284857Y-6503095D02*
X16999143Y-6788809D01*
X16999143Y-6788809D02*
X17308667Y-6788809D01*
X17737238Y-6455476D02*
X17737238Y-6788809D01*
X17522952Y-6455476D02*
X17522952Y-6717380D01*
X17522952Y-6717380D02*
X17546762Y-6765000D01*
X17546762Y-6765000D02*
X17594381Y-6788809D01*
X17594381Y-6788809D02*
X17665809Y-6788809D01*
X17665809Y-6788809D02*
X17713428Y-6765000D01*
X17713428Y-6765000D02*
X17737238Y-6741190D01*
X17951524Y-6336428D02*
X17975333Y-6312619D01*
X17975333Y-6312619D02*
X18022952Y-6288809D01*
X18022952Y-6288809D02*
X18142000Y-6288809D01*
X18142000Y-6288809D02*
X18189619Y-6312619D01*
X18189619Y-6312619D02*
X18213428Y-6336428D01*
X18213428Y-6336428D02*
X18237238Y-6384047D01*
X18237238Y-6384047D02*
X18237238Y-6431666D01*
X18237238Y-6431666D02*
X18213428Y-6503095D01*
X18213428Y-6503095D02*
X17927714Y-6788809D01*
X17927714Y-6788809D02*
X18237238Y-6788809D01*
X18451523Y-6788809D02*
X18451523Y-6288809D01*
X18451523Y-6526904D02*
X18737237Y-6526904D01*
X18737237Y-6788809D02*
X18737237Y-6288809D01*
X13311047Y-5512619D02*
X13263428Y-5488809D01*
X13263428Y-5488809D02*
X13191999Y-5488809D01*
X13191999Y-5488809D02*
X13120571Y-5512619D01*
X13120571Y-5512619D02*
X13072952Y-5560238D01*
X13072952Y-5560238D02*
X13049142Y-5607857D01*
X13049142Y-5607857D02*
X13025333Y-5703095D01*
X13025333Y-5703095D02*
X13025333Y-5774523D01*
X13025333Y-5774523D02*
X13049142Y-5869761D01*
X13049142Y-5869761D02*
X13072952Y-5917380D01*
X13072952Y-5917380D02*
X13120571Y-5965000D01*
X13120571Y-5965000D02*
X13191999Y-5988809D01*
X13191999Y-5988809D02*
X13239618Y-5988809D01*
X13239618Y-5988809D02*
X13311047Y-5965000D01*
X13311047Y-5965000D02*
X13334856Y-5941190D01*
X13334856Y-5941190D02*
X13334856Y-5774523D01*
X13334856Y-5774523D02*
X13239618Y-5774523D01*
X13549142Y-5988809D02*
X13549142Y-5488809D01*
X13549142Y-5488809D02*
X13834856Y-5988809D01*
X13834856Y-5988809D02*
X13834856Y-5488809D01*
X14072952Y-5988809D02*
X14072952Y-5488809D01*
X14072952Y-5488809D02*
X14192000Y-5488809D01*
X14192000Y-5488809D02*
X14263428Y-5512619D01*
X14263428Y-5512619D02*
X14311047Y-5560238D01*
X14311047Y-5560238D02*
X14334857Y-5607857D01*
X14334857Y-5607857D02*
X14358666Y-5703095D01*
X14358666Y-5703095D02*
X14358666Y-5774523D01*
X14358666Y-5774523D02*
X14334857Y-5869761D01*
X14334857Y-5869761D02*
X14311047Y-5917380D01*
X14311047Y-5917380D02*
X14263428Y-5965000D01*
X14263428Y-5965000D02*
X14192000Y-5988809D01*
X14192000Y-5988809D02*
X14072952Y-5988809D01*
X10525334Y-5488809D02*
X10692000Y-5988809D01*
X10692000Y-5988809D02*
X10858667Y-5488809D01*
X11025333Y-5988809D02*
X11025333Y-5488809D01*
X11025333Y-5488809D02*
X11144381Y-5488809D01*
X11144381Y-5488809D02*
X11215809Y-5512619D01*
X11215809Y-5512619D02*
X11263428Y-5560238D01*
X11263428Y-5560238D02*
X11287238Y-5607857D01*
X11287238Y-5607857D02*
X11311047Y-5703095D01*
X11311047Y-5703095D02*
X11311047Y-5774523D01*
X11311047Y-5774523D02*
X11287238Y-5869761D01*
X11287238Y-5869761D02*
X11263428Y-5917380D01*
X11263428Y-5917380D02*
X11215809Y-5965000D01*
X11215809Y-5965000D02*
X11144381Y-5988809D01*
X11144381Y-5988809D02*
X11025333Y-5988809D01*
X11525333Y-5988809D02*
X11525333Y-5488809D01*
X11525333Y-5488809D02*
X11644381Y-5488809D01*
X11644381Y-5488809D02*
X11715809Y-5512619D01*
X11715809Y-5512619D02*
X11763428Y-5560238D01*
X11763428Y-5560238D02*
X11787238Y-5607857D01*
X11787238Y-5607857D02*
X11811047Y-5703095D01*
X11811047Y-5703095D02*
X11811047Y-5774523D01*
X11811047Y-5774523D02*
X11787238Y-5869761D01*
X11787238Y-5869761D02*
X11763428Y-5917380D01*
X11763428Y-5917380D02*
X11715809Y-5965000D01*
X11715809Y-5965000D02*
X11644381Y-5988809D01*
X11644381Y-5988809D02*
X11525333Y-5988809D01*
X8464428Y-8423522D02*
X8440619Y-8399713D01*
X8440619Y-8399713D02*
X8416809Y-8352094D01*
X8416809Y-8352094D02*
X8416809Y-8233046D01*
X8416809Y-8233046D02*
X8440619Y-8185427D01*
X8440619Y-8185427D02*
X8464428Y-8161618D01*
X8464428Y-8161618D02*
X8512047Y-8137808D01*
X8512047Y-8137808D02*
X8559666Y-8137808D01*
X8559666Y-8137808D02*
X8631095Y-8161618D01*
X8631095Y-8161618D02*
X8916809Y-8447332D01*
X8916809Y-8447332D02*
X8916809Y-8137808D01*
X8464428Y-7947332D02*
X8440619Y-7923523D01*
X8440619Y-7923523D02*
X8416809Y-7875904D01*
X8416809Y-7875904D02*
X8416809Y-7756856D01*
X8416809Y-7756856D02*
X8440619Y-7709237D01*
X8440619Y-7709237D02*
X8464428Y-7685428D01*
X8464428Y-7685428D02*
X8512047Y-7661618D01*
X8512047Y-7661618D02*
X8559666Y-7661618D01*
X8559666Y-7661618D02*
X8631095Y-7685428D01*
X8631095Y-7685428D02*
X8916809Y-7971142D01*
X8916809Y-7971142D02*
X8916809Y-7661618D01*
X8416809Y-7352095D02*
X8416809Y-7304476D01*
X8416809Y-7304476D02*
X8440619Y-7256857D01*
X8440619Y-7256857D02*
X8464428Y-7233047D01*
X8464428Y-7233047D02*
X8512047Y-7209238D01*
X8512047Y-7209238D02*
X8607285Y-7185428D01*
X8607285Y-7185428D02*
X8726333Y-7185428D01*
X8726333Y-7185428D02*
X8821571Y-7209238D01*
X8821571Y-7209238D02*
X8869190Y-7233047D01*
X8869190Y-7233047D02*
X8893000Y-7256857D01*
X8893000Y-7256857D02*
X8916809Y-7304476D01*
X8916809Y-7304476D02*
X8916809Y-7352095D01*
X8916809Y-7352095D02*
X8893000Y-7399714D01*
X8893000Y-7399714D02*
X8869190Y-7423523D01*
X8869190Y-7423523D02*
X8821571Y-7447333D01*
X8821571Y-7447333D02*
X8726333Y-7471142D01*
X8726333Y-7471142D02*
X8607285Y-7471142D01*
X8607285Y-7471142D02*
X8512047Y-7447333D01*
X8512047Y-7447333D02*
X8464428Y-7423523D01*
X8464428Y-7423523D02*
X8440619Y-7399714D01*
X8440619Y-7399714D02*
X8416809Y-7352095D01*
X8583476Y-6756857D02*
X8916809Y-6756857D01*
X8583476Y-6971143D02*
X8845380Y-6971143D01*
X8845380Y-6971143D02*
X8893000Y-6947333D01*
X8893000Y-6947333D02*
X8916809Y-6899714D01*
X8916809Y-6899714D02*
X8916809Y-6828286D01*
X8916809Y-6828286D02*
X8893000Y-6780667D01*
X8893000Y-6780667D02*
X8869190Y-6756857D01*
X8654904Y-6352095D02*
X8654904Y-6518762D01*
X8916809Y-6518762D02*
X8416809Y-6518762D01*
X8416809Y-6518762D02*
X8416809Y-6280667D01*
X12816809Y-14806856D02*
X12816809Y-15092570D01*
X12816809Y-14949713D02*
X12316809Y-14949713D01*
X12316809Y-14949713D02*
X12388238Y-14997332D01*
X12388238Y-14997332D02*
X12435857Y-15044951D01*
X12435857Y-15044951D02*
X12459666Y-15092570D01*
X12816809Y-14592571D02*
X12316809Y-14592571D01*
X12316809Y-14592571D02*
X12673952Y-14425904D01*
X12673952Y-14425904D02*
X12316809Y-14259238D01*
X12316809Y-14259238D02*
X12816809Y-14259238D01*
X16516809Y-20323523D02*
X16516809Y-20609237D01*
X16516809Y-20466380D02*
X16016809Y-20466380D01*
X16016809Y-20466380D02*
X16088238Y-20513999D01*
X16088238Y-20513999D02*
X16135857Y-20561618D01*
X16135857Y-20561618D02*
X16159666Y-20609237D01*
X16516809Y-20109238D02*
X16016809Y-20109238D01*
X16326333Y-20061619D02*
X16516809Y-19918762D01*
X16183476Y-19918762D02*
X16373952Y-20109238D01*
X20283476Y-18409237D02*
X20616809Y-18409237D01*
X20093000Y-18528285D02*
X20450142Y-18647332D01*
X20450142Y-18647332D02*
X20450142Y-18337809D01*
X20116809Y-18194952D02*
X20116809Y-17861619D01*
X20116809Y-17861619D02*
X20616809Y-18075904D01*
X20616809Y-17671143D02*
X20116809Y-17671143D01*
X20426333Y-17623524D02*
X20616809Y-17480667D01*
X20283476Y-17480667D02*
X20473952Y-17671143D01*
X20164428Y-21085427D02*
X20140619Y-21061618D01*
X20140619Y-21061618D02*
X20116809Y-21013999D01*
X20116809Y-21013999D02*
X20116809Y-20894951D01*
X20116809Y-20894951D02*
X20140619Y-20847332D01*
X20140619Y-20847332D02*
X20164428Y-20823523D01*
X20164428Y-20823523D02*
X20212047Y-20799713D01*
X20212047Y-20799713D02*
X20259666Y-20799713D01*
X20259666Y-20799713D02*
X20331095Y-20823523D01*
X20331095Y-20823523D02*
X20616809Y-21109237D01*
X20616809Y-21109237D02*
X20616809Y-20799713D01*
X20164428Y-20609237D02*
X20140619Y-20585428D01*
X20140619Y-20585428D02*
X20116809Y-20537809D01*
X20116809Y-20537809D02*
X20116809Y-20418761D01*
X20116809Y-20418761D02*
X20140619Y-20371142D01*
X20140619Y-20371142D02*
X20164428Y-20347333D01*
X20164428Y-20347333D02*
X20212047Y-20323523D01*
X20212047Y-20323523D02*
X20259666Y-20323523D01*
X20259666Y-20323523D02*
X20331095Y-20347333D01*
X20331095Y-20347333D02*
X20616809Y-20633047D01*
X20616809Y-20633047D02*
X20616809Y-20323523D01*
X20116809Y-20014000D02*
X20116809Y-19966381D01*
X20116809Y-19966381D02*
X20140619Y-19918762D01*
X20140619Y-19918762D02*
X20164428Y-19894952D01*
X20164428Y-19894952D02*
X20212047Y-19871143D01*
X20212047Y-19871143D02*
X20307285Y-19847333D01*
X20307285Y-19847333D02*
X20426333Y-19847333D01*
X20426333Y-19847333D02*
X20521571Y-19871143D01*
X20521571Y-19871143D02*
X20569190Y-19894952D01*
X20569190Y-19894952D02*
X20593000Y-19918762D01*
X20593000Y-19918762D02*
X20616809Y-19966381D01*
X20616809Y-19966381D02*
X20616809Y-20014000D01*
X20616809Y-20014000D02*
X20593000Y-20061619D01*
X20593000Y-20061619D02*
X20569190Y-20085428D01*
X20569190Y-20085428D02*
X20521571Y-20109238D01*
X20521571Y-20109238D02*
X20426333Y-20133047D01*
X20426333Y-20133047D02*
X20307285Y-20133047D01*
X20307285Y-20133047D02*
X20212047Y-20109238D01*
X20212047Y-20109238D02*
X20164428Y-20085428D01*
X20164428Y-20085428D02*
X20140619Y-20061619D01*
X20140619Y-20061619D02*
X20116809Y-20014000D01*
X20616809Y-19633048D02*
X20116809Y-19633048D01*
X20426333Y-19585429D02*
X20616809Y-19442572D01*
X20283476Y-19442572D02*
X20473952Y-19633048D01*
X18684857Y-23688809D02*
X18994381Y-23688809D01*
X18994381Y-23688809D02*
X18827714Y-23879285D01*
X18827714Y-23879285D02*
X18899143Y-23879285D01*
X18899143Y-23879285D02*
X18946762Y-23903095D01*
X18946762Y-23903095D02*
X18970571Y-23926904D01*
X18970571Y-23926904D02*
X18994381Y-23974523D01*
X18994381Y-23974523D02*
X18994381Y-24093571D01*
X18994381Y-24093571D02*
X18970571Y-24141190D01*
X18970571Y-24141190D02*
X18946762Y-24165000D01*
X18946762Y-24165000D02*
X18899143Y-24188809D01*
X18899143Y-24188809D02*
X18756286Y-24188809D01*
X18756286Y-24188809D02*
X18708667Y-24165000D01*
X18708667Y-24165000D02*
X18684857Y-24141190D01*
X19161047Y-23688809D02*
X19470571Y-23688809D01*
X19470571Y-23688809D02*
X19303904Y-23879285D01*
X19303904Y-23879285D02*
X19375333Y-23879285D01*
X19375333Y-23879285D02*
X19422952Y-23903095D01*
X19422952Y-23903095D02*
X19446761Y-23926904D01*
X19446761Y-23926904D02*
X19470571Y-23974523D01*
X19470571Y-23974523D02*
X19470571Y-24093571D01*
X19470571Y-24093571D02*
X19446761Y-24141190D01*
X19446761Y-24141190D02*
X19422952Y-24165000D01*
X19422952Y-24165000D02*
X19375333Y-24188809D01*
X19375333Y-24188809D02*
X19232476Y-24188809D01*
X19232476Y-24188809D02*
X19184857Y-24165000D01*
X19184857Y-24165000D02*
X19161047Y-24141190D01*
X19684856Y-24188809D02*
X19684856Y-23688809D01*
X19732475Y-23998333D02*
X19875332Y-24188809D01*
X19875332Y-23855476D02*
X19684856Y-24045952D01*
X17816809Y-23671142D02*
X17316809Y-23671142D01*
X17316809Y-23671142D02*
X17316809Y-23552094D01*
X17316809Y-23552094D02*
X17340619Y-23480666D01*
X17340619Y-23480666D02*
X17388238Y-23433047D01*
X17388238Y-23433047D02*
X17435857Y-23409237D01*
X17435857Y-23409237D02*
X17531095Y-23385428D01*
X17531095Y-23385428D02*
X17602523Y-23385428D01*
X17602523Y-23385428D02*
X17697761Y-23409237D01*
X17697761Y-23409237D02*
X17745380Y-23433047D01*
X17745380Y-23433047D02*
X17793000Y-23480666D01*
X17793000Y-23480666D02*
X17816809Y-23552094D01*
X17816809Y-23552094D02*
X17816809Y-23671142D01*
X17483476Y-22956856D02*
X17816809Y-22956856D01*
X17293000Y-23075904D02*
X17650142Y-23194951D01*
X17650142Y-23194951D02*
X17650142Y-22885428D01*
X17316809Y-22456857D02*
X17316809Y-22694952D01*
X17316809Y-22694952D02*
X17554904Y-22718761D01*
X17554904Y-22718761D02*
X17531095Y-22694952D01*
X17531095Y-22694952D02*
X17507285Y-22647333D01*
X17507285Y-22647333D02*
X17507285Y-22528285D01*
X17507285Y-22528285D02*
X17531095Y-22480666D01*
X17531095Y-22480666D02*
X17554904Y-22456857D01*
X17554904Y-22456857D02*
X17602523Y-22433047D01*
X17602523Y-22433047D02*
X17721571Y-22433047D01*
X17721571Y-22433047D02*
X17769190Y-22456857D01*
X17769190Y-22456857D02*
X17793000Y-22480666D01*
X17793000Y-22480666D02*
X17816809Y-22528285D01*
X17816809Y-22528285D02*
X17816809Y-22647333D01*
X17816809Y-22647333D02*
X17793000Y-22694952D01*
X17793000Y-22694952D02*
X17769190Y-22718761D01*
X6318191Y-23786323D02*
X6318191Y-23286323D01*
X6318191Y-23286323D02*
X6437239Y-23286323D01*
X6437239Y-23286323D02*
X6508667Y-23310133D01*
X6508667Y-23310133D02*
X6556286Y-23357752D01*
X6556286Y-23357752D02*
X6580096Y-23405371D01*
X6580096Y-23405371D02*
X6603905Y-23500609D01*
X6603905Y-23500609D02*
X6603905Y-23572037D01*
X6603905Y-23572037D02*
X6580096Y-23667275D01*
X6580096Y-23667275D02*
X6556286Y-23714894D01*
X6556286Y-23714894D02*
X6508667Y-23762514D01*
X6508667Y-23762514D02*
X6437239Y-23786323D01*
X6437239Y-23786323D02*
X6318191Y-23786323D01*
X7032477Y-23452990D02*
X7032477Y-23786323D01*
X6913429Y-23262514D02*
X6794382Y-23619656D01*
X6794382Y-23619656D02*
X7103905Y-23619656D01*
X7532476Y-23286323D02*
X7294381Y-23286323D01*
X7294381Y-23286323D02*
X7270572Y-23524418D01*
X7270572Y-23524418D02*
X7294381Y-23500609D01*
X7294381Y-23500609D02*
X7342000Y-23476799D01*
X7342000Y-23476799D02*
X7461048Y-23476799D01*
X7461048Y-23476799D02*
X7508667Y-23500609D01*
X7508667Y-23500609D02*
X7532476Y-23524418D01*
X7532476Y-23524418D02*
X7556286Y-23572037D01*
X7556286Y-23572037D02*
X7556286Y-23691085D01*
X7556286Y-23691085D02*
X7532476Y-23738704D01*
X7532476Y-23738704D02*
X7508667Y-23762514D01*
X7508667Y-23762514D02*
X7461048Y-23786323D01*
X7461048Y-23786323D02*
X7342000Y-23786323D01*
X7342000Y-23786323D02*
X7294381Y-23762514D01*
X7294381Y-23762514D02*
X7270572Y-23738704D01*
X7770571Y-23595847D02*
X8151524Y-23595847D01*
X8365810Y-23762514D02*
X8437238Y-23786323D01*
X8437238Y-23786323D02*
X8556286Y-23786323D01*
X8556286Y-23786323D02*
X8603905Y-23762514D01*
X8603905Y-23762514D02*
X8627714Y-23738704D01*
X8627714Y-23738704D02*
X8651524Y-23691085D01*
X8651524Y-23691085D02*
X8651524Y-23643466D01*
X8651524Y-23643466D02*
X8627714Y-23595847D01*
X8627714Y-23595847D02*
X8603905Y-23572037D01*
X8603905Y-23572037D02*
X8556286Y-23548228D01*
X8556286Y-23548228D02*
X8461048Y-23524418D01*
X8461048Y-23524418D02*
X8413429Y-23500609D01*
X8413429Y-23500609D02*
X8389619Y-23476799D01*
X8389619Y-23476799D02*
X8365810Y-23429180D01*
X8365810Y-23429180D02*
X8365810Y-23381561D01*
X8365810Y-23381561D02*
X8389619Y-23333942D01*
X8389619Y-23333942D02*
X8413429Y-23310133D01*
X8413429Y-23310133D02*
X8461048Y-23286323D01*
X8461048Y-23286323D02*
X8580095Y-23286323D01*
X8580095Y-23286323D02*
X8651524Y-23310133D01*
X9151523Y-23738704D02*
X9127714Y-23762514D01*
X9127714Y-23762514D02*
X9056285Y-23786323D01*
X9056285Y-23786323D02*
X9008666Y-23786323D01*
X9008666Y-23786323D02*
X8937238Y-23762514D01*
X8937238Y-23762514D02*
X8889619Y-23714894D01*
X8889619Y-23714894D02*
X8865809Y-23667275D01*
X8865809Y-23667275D02*
X8842000Y-23572037D01*
X8842000Y-23572037D02*
X8842000Y-23500609D01*
X8842000Y-23500609D02*
X8865809Y-23405371D01*
X8865809Y-23405371D02*
X8889619Y-23357752D01*
X8889619Y-23357752D02*
X8937238Y-23310133D01*
X8937238Y-23310133D02*
X9008666Y-23286323D01*
X9008666Y-23286323D02*
X9056285Y-23286323D01*
X9056285Y-23286323D02*
X9127714Y-23310133D01*
X9127714Y-23310133D02*
X9151523Y-23333942D01*
X9365809Y-23786323D02*
X9365809Y-23286323D01*
X9365809Y-23524418D02*
X9651523Y-23524418D01*
X9651523Y-23786323D02*
X9651523Y-23286323D01*
X9984857Y-23286323D02*
X10080095Y-23286323D01*
X10080095Y-23286323D02*
X10127714Y-23310133D01*
X10127714Y-23310133D02*
X10175333Y-23357752D01*
X10175333Y-23357752D02*
X10199143Y-23452990D01*
X10199143Y-23452990D02*
X10199143Y-23619656D01*
X10199143Y-23619656D02*
X10175333Y-23714894D01*
X10175333Y-23714894D02*
X10127714Y-23762514D01*
X10127714Y-23762514D02*
X10080095Y-23786323D01*
X10080095Y-23786323D02*
X9984857Y-23786323D01*
X9984857Y-23786323D02*
X9937238Y-23762514D01*
X9937238Y-23762514D02*
X9889619Y-23714894D01*
X9889619Y-23714894D02*
X9865810Y-23619656D01*
X9865810Y-23619656D02*
X9865810Y-23452990D01*
X9865810Y-23452990D02*
X9889619Y-23357752D01*
X9889619Y-23357752D02*
X9937238Y-23310133D01*
X9937238Y-23310133D02*
X9984857Y-23286323D01*
X10342001Y-23286323D02*
X10627715Y-23286323D01*
X10484858Y-23786323D02*
X10484858Y-23286323D01*
X10722953Y-23286323D02*
X11008667Y-23286323D01*
X10865810Y-23786323D02*
X10865810Y-23286323D01*
X11175333Y-23786323D02*
X11175333Y-23286323D01*
X11461047Y-23786323D02*
X11246762Y-23500609D01*
X11461047Y-23286323D02*
X11175333Y-23572037D01*
X11770571Y-23548228D02*
X11770571Y-23786323D01*
X11603905Y-23286323D02*
X11770571Y-23548228D01*
X11770571Y-23548228D02*
X11937238Y-23286323D01*
X818191Y-24688809D02*
X532477Y-24688809D01*
X675334Y-24688809D02*
X675334Y-24188809D01*
X675334Y-24188809D02*
X627715Y-24260238D01*
X627715Y-24260238D02*
X580096Y-24307857D01*
X580096Y-24307857D02*
X532477Y-24331666D01*
X1127714Y-24188809D02*
X1175333Y-24188809D01*
X1175333Y-24188809D02*
X1222952Y-24212619D01*
X1222952Y-24212619D02*
X1246762Y-24236428D01*
X1246762Y-24236428D02*
X1270571Y-24284047D01*
X1270571Y-24284047D02*
X1294381Y-24379285D01*
X1294381Y-24379285D02*
X1294381Y-24498333D01*
X1294381Y-24498333D02*
X1270571Y-24593571D01*
X1270571Y-24593571D02*
X1246762Y-24641190D01*
X1246762Y-24641190D02*
X1222952Y-24665000D01*
X1222952Y-24665000D02*
X1175333Y-24688809D01*
X1175333Y-24688809D02*
X1127714Y-24688809D01*
X1127714Y-24688809D02*
X1080095Y-24665000D01*
X1080095Y-24665000D02*
X1056286Y-24641190D01*
X1056286Y-24641190D02*
X1032476Y-24593571D01*
X1032476Y-24593571D02*
X1008667Y-24498333D01*
X1008667Y-24498333D02*
X1008667Y-24379285D01*
X1008667Y-24379285D02*
X1032476Y-24284047D01*
X1032476Y-24284047D02*
X1056286Y-24236428D01*
X1056286Y-24236428D02*
X1080095Y-24212619D01*
X1080095Y-24212619D02*
X1127714Y-24188809D01*
X1603904Y-24188809D02*
X1651523Y-24188809D01*
X1651523Y-24188809D02*
X1699142Y-24212619D01*
X1699142Y-24212619D02*
X1722952Y-24236428D01*
X1722952Y-24236428D02*
X1746761Y-24284047D01*
X1746761Y-24284047D02*
X1770571Y-24379285D01*
X1770571Y-24379285D02*
X1770571Y-24498333D01*
X1770571Y-24498333D02*
X1746761Y-24593571D01*
X1746761Y-24593571D02*
X1722952Y-24641190D01*
X1722952Y-24641190D02*
X1699142Y-24665000D01*
X1699142Y-24665000D02*
X1651523Y-24688809D01*
X1651523Y-24688809D02*
X1603904Y-24688809D01*
X1603904Y-24688809D02*
X1556285Y-24665000D01*
X1556285Y-24665000D02*
X1532476Y-24641190D01*
X1532476Y-24641190D02*
X1508666Y-24593571D01*
X1508666Y-24593571D02*
X1484857Y-24498333D01*
X1484857Y-24498333D02*
X1484857Y-24379285D01*
X1484857Y-24379285D02*
X1508666Y-24284047D01*
X1508666Y-24284047D02*
X1532476Y-24236428D01*
X1532476Y-24236428D02*
X1556285Y-24212619D01*
X1556285Y-24212619D02*
X1603904Y-24188809D01*
X2199142Y-24355476D02*
X2199142Y-24688809D01*
X1984856Y-24355476D02*
X1984856Y-24617380D01*
X1984856Y-24617380D02*
X2008666Y-24665000D01*
X2008666Y-24665000D02*
X2056285Y-24688809D01*
X2056285Y-24688809D02*
X2127713Y-24688809D01*
X2127713Y-24688809D02*
X2175332Y-24665000D01*
X2175332Y-24665000D02*
X2199142Y-24641190D01*
X2603904Y-24426904D02*
X2437237Y-24426904D01*
X2437237Y-24688809D02*
X2437237Y-24188809D01*
X2437237Y-24188809D02*
X2675332Y-24188809D01*
X7983476Y-13447332D02*
X8316809Y-13447332D01*
X7793000Y-13566380D02*
X8150142Y-13685427D01*
X8150142Y-13685427D02*
X8150142Y-13375904D01*
X7816809Y-13233047D02*
X7816809Y-12899714D01*
X7816809Y-12899714D02*
X8316809Y-13113999D01*
X7816809Y-12614000D02*
X7816809Y-12566381D01*
X7816809Y-12566381D02*
X7840619Y-12518762D01*
X7840619Y-12518762D02*
X7864428Y-12494952D01*
X7864428Y-12494952D02*
X7912047Y-12471143D01*
X7912047Y-12471143D02*
X8007285Y-12447333D01*
X8007285Y-12447333D02*
X8126333Y-12447333D01*
X8126333Y-12447333D02*
X8221571Y-12471143D01*
X8221571Y-12471143D02*
X8269190Y-12494952D01*
X8269190Y-12494952D02*
X8293000Y-12518762D01*
X8293000Y-12518762D02*
X8316809Y-12566381D01*
X8316809Y-12566381D02*
X8316809Y-12614000D01*
X8316809Y-12614000D02*
X8293000Y-12661619D01*
X8293000Y-12661619D02*
X8269190Y-12685428D01*
X8269190Y-12685428D02*
X8221571Y-12709238D01*
X8221571Y-12709238D02*
X8126333Y-12733047D01*
X8126333Y-12733047D02*
X8007285Y-12733047D01*
X8007285Y-12733047D02*
X7912047Y-12709238D01*
X7912047Y-12709238D02*
X7864428Y-12685428D01*
X7864428Y-12685428D02*
X7840619Y-12661619D01*
X7840619Y-12661619D02*
X7816809Y-12614000D01*
X8316809Y-12233048D02*
X7816809Y-12233048D01*
X8126333Y-12185429D02*
X8316809Y-12042572D01*
X7983476Y-12042572D02*
X8173952Y-12233048D01*
X3316809Y-15185428D02*
X3316809Y-15423523D01*
X3316809Y-15423523D02*
X3554904Y-15447332D01*
X3554904Y-15447332D02*
X3531095Y-15423523D01*
X3531095Y-15423523D02*
X3507285Y-15375904D01*
X3507285Y-15375904D02*
X3507285Y-15256856D01*
X3507285Y-15256856D02*
X3531095Y-15209237D01*
X3531095Y-15209237D02*
X3554904Y-15185428D01*
X3554904Y-15185428D02*
X3602523Y-15161618D01*
X3602523Y-15161618D02*
X3721571Y-15161618D01*
X3721571Y-15161618D02*
X3769190Y-15185428D01*
X3769190Y-15185428D02*
X3793000Y-15209237D01*
X3793000Y-15209237D02*
X3816809Y-15256856D01*
X3816809Y-15256856D02*
X3816809Y-15375904D01*
X3816809Y-15375904D02*
X3793000Y-15423523D01*
X3793000Y-15423523D02*
X3769190Y-15447332D01*
X3816809Y-14947333D02*
X3316809Y-14947333D01*
X3626333Y-14899714D02*
X3816809Y-14756857D01*
X3483476Y-14756857D02*
X3673952Y-14947333D01*
X3816809Y-14280666D02*
X3816809Y-14566380D01*
X3816809Y-14423523D02*
X3316809Y-14423523D01*
X3316809Y-14423523D02*
X3388238Y-14471142D01*
X3388238Y-14471142D02*
X3435857Y-14518761D01*
X3435857Y-14518761D02*
X3459666Y-14566380D01*
D11*
X68280573Y41535329D02*
X69355443Y41535329D01*
X69248279Y42341214D02*
X69260061Y42356207D01*
X70457912Y41198829D02*
X70484422Y41232563D01*
X69949683Y41929220D02*
X69961230Y41958507D01*
X69832824Y41746622D02*
X69853095Y41770023D01*
X69662849Y41613169D02*
X69689856Y41628698D01*
X69291005Y42404489D02*
X69299770Y42421602D01*
X69330843Y42513679D02*
X69334333Y42533223D01*
X69321063Y42475645D02*
X69326411Y42494478D01*
X69326411Y42494478D02*
X69330843Y42513679D01*
X69235805Y42326814D02*
X69248279Y42341214D01*
X70509318Y41267573D02*
X70532545Y41303803D01*
X69789072Y41702870D02*
X69811470Y41724224D01*
X69606474Y41586011D02*
X69635041Y41598926D01*
X69485416Y41548432D02*
X69516618Y41555634D01*
X69999525Y42147064D02*
X70000365Y42180251D01*
X69716023Y41645473D02*
X69741308Y41663454D01*
X69314824Y42457205D02*
X69321063Y42475645D01*
X69355443Y41535329D02*
X69388630Y41536169D01*
X70116438Y40944045D02*
X70155993Y40961928D01*
X69096512Y42227976D02*
X69114092Y42235924D01*
X68942031Y42196788D02*
X68962454Y42197304D01*
X70194496Y40981648D02*
X70231891Y41003149D01*
X69547221Y41564324D02*
X69577187Y41574464D01*
X69992021Y40901984D02*
X70034396Y40914017D01*
X70661823Y41766840D02*
X70661823Y43255121D01*
D12*
X62538667Y43616596D02*
X62538667Y40822596D01*
D11*
X69271126Y42371767D02*
X69281449Y42387869D01*
X69299770Y42421602D02*
X69307718Y42439182D01*
X69853095Y41770023D02*
X69872240Y41794386D01*
X70075887Y40928056D02*
X70116438Y40944045D01*
X69936768Y41900653D02*
X69949683Y41929220D01*
X70621677Y41501298D02*
X70633710Y41543673D01*
X69906996Y41845838D02*
X69922525Y41872845D01*
X70155993Y40961928D02*
X70194496Y40981648D01*
X70643681Y41586876D02*
X70651534Y41630850D01*
X68982609Y42198837D02*
X69002471Y42201361D01*
X70429846Y41166428D02*
X70457912Y41198829D01*
X69689856Y41628698D02*
X69716023Y41645473D01*
X70554046Y41341198D02*
X70573766Y41379701D01*
X70000365Y42180251D02*
X70000365Y43255121D01*
X69987262Y42050278D02*
X69992934Y42082037D01*
X69060049Y42214631D02*
X69078489Y42220870D01*
X70607638Y41459807D02*
X70621677Y41501298D01*
D12*
X62538667Y40822596D02*
X62538667Y40568596D01*
D11*
X69768854Y40873871D02*
X69814806Y40875033D01*
X70268121Y41026376D02*
X70303131Y41051272D01*
X69041216Y42209283D02*
X69060049Y42214631D01*
X69814806Y40875033D02*
X69860155Y40878481D01*
X69078489Y42220870D02*
X69096512Y42227976D01*
X69860155Y40878481D02*
X69904844Y40884160D01*
X69997035Y42114312D02*
X69999525Y42147064D01*
X68280573Y42196788D02*
X68942031Y42196788D01*
X70657213Y41675539D02*
X70660661Y41720888D01*
X70400278Y41135416D02*
X70429846Y41166428D01*
X70573766Y41379701D02*
X70591649Y41419256D01*
X69516618Y41555634D02*
X69547221Y41564324D01*
X69971370Y41988473D02*
X69980060Y42019076D01*
X69388630Y41536169D02*
X69421382Y41538659D01*
X70532545Y41303803D02*
X70554046Y41341198D01*
X70591649Y41419256D02*
X70607638Y41459807D01*
D12*
X63455467Y40430596D02*
X65655467Y40430596D01*
D11*
X69453657Y41542760D02*
X69485416Y41548432D01*
X69114092Y42235924D02*
X69131205Y42244689D01*
X70231891Y41003149D02*
X70268121Y41026376D01*
X69163927Y42264568D02*
X69179487Y42275633D01*
X69147825Y42254245D02*
X69163927Y42264568D01*
X69765671Y41682599D02*
X69789072Y41702870D01*
X69811470Y41724224D02*
X69832824Y41746622D01*
X69577187Y41574464D02*
X69606474Y41586011D01*
X70336865Y41077782D02*
X70369266Y41105848D01*
X69890221Y41819671D02*
X69906996Y41845838D01*
X69872240Y41794386D02*
X69890221Y41819671D01*
X68280573Y40873871D02*
X69768854Y40873871D01*
X69338906Y42593663D02*
X69338906Y43255121D01*
X69635041Y41598926D02*
X69662849Y41613169D01*
X69421382Y41538659D02*
X69453657Y41542760D01*
X70660661Y41720888D02*
X70661823Y41766840D01*
X70651534Y41630850D02*
X70657213Y41675539D01*
X68962454Y42197304D02*
X68982609Y42198837D01*
X70633710Y41543673D02*
X70643681Y41586876D01*
X69281449Y42387869D02*
X69291005Y42404489D01*
X69179487Y42275633D02*
X69194480Y42287415D01*
X70303131Y41051272D02*
X70336865Y41077782D01*
X69980060Y42019076D02*
X69987262Y42050278D01*
X69002471Y42201361D02*
X69022015Y42204851D01*
X69338390Y42573240D02*
X69338906Y42593663D01*
X69222664Y42313030D02*
X69235805Y42326814D01*
X69992934Y42082037D02*
X69997035Y42114312D01*
X69741308Y41663454D02*
X69765671Y41682599D01*
X69922525Y41872845D02*
X69936768Y41900653D01*
X69336857Y42553085D02*
X69338390Y42573240D01*
X70369266Y41105848D02*
X70400278Y41135416D01*
X70034396Y40914017D02*
X70075887Y40928056D01*
X69208880Y42299889D02*
X69222664Y42313030D01*
D12*
X7227757Y41582599D02*
X56692000Y41582599D01*
X56692000Y16782599D01*
X7227757Y16782599D01*
X7227757Y41582599D01*
D11*
X69948818Y40892013D02*
X69992021Y40901984D01*
X69338906Y43255121D02*
X69336857Y42553085D01*
X69961230Y41958507D02*
X69971370Y41988473D01*
X69260061Y42356207D02*
X69271126Y42371767D01*
X69307718Y42439182D02*
X69314824Y42457205D01*
X69904844Y40884160D02*
X69948818Y40892013D01*
X69131205Y42244689D02*
X69147825Y42254245D01*
X69194480Y42287415D02*
X69208880Y42299889D01*
X69022015Y42204851D02*
X69041216Y42209283D01*
X69334333Y42533223D02*
X69336857Y42553085D01*
X70484422Y41232563D02*
X70509318Y41267573D01*
D13*
G36*
X63030142Y17046621D02*
G01*
X63105235Y17037418D01*
X63184186Y17019386D01*
X63255811Y16993339D01*
X63272572Y16985576D01*
X63342159Y16945367D01*
X63401720Y16896871D01*
X63451253Y16840086D01*
X63474439Y16804958D01*
X63507910Y16736005D01*
X63530428Y16660213D01*
X63541247Y16587100D01*
X63543681Y16528719D01*
X63538965Y16451739D01*
X63524817Y16374396D01*
X63515105Y16338576D01*
X63489208Y16269608D01*
X63450455Y16200474D01*
X63424979Y16165652D01*
X63372618Y16111677D01*
X63308407Y16066253D01*
X63259016Y16040722D01*
X63189565Y16015799D01*
X63110811Y16000107D01*
X63031979Y15993877D01*
X63004027Y15993461D01*
X62785674Y15993461D01*
X62785674Y15503999D01*
X62481225Y15503999D01*
X62481225Y16289483D01*
X62785674Y16289483D01*
X63001829Y16289483D01*
X63075918Y16298008D01*
X63117233Y16313664D01*
X63177286Y16359048D01*
X63189774Y16374480D01*
X63224435Y16441118D01*
X63227509Y16451050D01*
X63239233Y16520293D01*
X63231905Y16582209D01*
X63205686Y16653499D01*
X63201497Y16660977D01*
X63150675Y16715547D01*
X63131155Y16728022D01*
X63059342Y16751635D01*
X63004027Y16755499D01*
X62785674Y16755499D01*
X62785674Y16289483D01*
X62481225Y16289483D01*
X62481225Y17049689D01*
X62949439Y17049689D01*
X63030142Y17046621D01*
G37*
G36*
X64898496Y15985035D02*
G01*
X64329533Y17049689D01*
X64705423Y17049689D01*
X65104393Y16247352D01*
X65014268Y16241123D01*
X65407010Y17049689D01*
X65782900Y17049689D01*
X65202945Y15985035D01*
X65202945Y15503999D01*
X64898496Y15503999D01*
X64898496Y15985035D01*
G37*
G36*
X67391605Y17081197D02*
G01*
X67363647Y17005173D01*
X67335689Y16929187D01*
X67307731Y16853240D01*
X67279773Y16777332D01*
X67251814Y16701462D01*
X67223856Y16625631D01*
X67195898Y16549839D01*
X67167940Y16474085D01*
X67139982Y16398370D01*
X67112024Y16322694D01*
X67093385Y16272264D01*
X67065427Y16196682D01*
X67037468Y16121062D01*
X67009510Y16045403D01*
X66981552Y15969705D01*
X66953594Y15893968D01*
X66925636Y15818193D01*
X66897678Y15742379D01*
X66869719Y15666527D01*
X66841761Y15590636D01*
X66813803Y15514706D01*
X66795164Y15464065D01*
X66530283Y15464065D01*
X66558241Y15540020D01*
X66586199Y15615937D01*
X66614157Y15691815D01*
X66642116Y15767655D01*
X66670074Y15843456D01*
X66698032Y15919218D01*
X66725990Y15994942D01*
X66753948Y16070627D01*
X66781907Y16146273D01*
X66809865Y16221881D01*
X66828503Y16272264D01*
X66856462Y16347915D01*
X66884420Y16423604D01*
X66912378Y16499332D01*
X66940336Y16575099D01*
X66968294Y16650904D01*
X66996253Y16726748D01*
X67024211Y16802630D01*
X67052169Y16878551D01*
X67080127Y16954511D01*
X67108085Y17030510D01*
X67126724Y17081197D01*
X67391605Y17081197D01*
G37*
G36*
X68085133Y15503999D02*
G01*
X68782324Y17110506D01*
X68799177Y17110506D01*
X69496368Y15503999D01*
X69143559Y15503999D01*
X68698427Y16633866D01*
X68918612Y16785174D01*
X68385185Y15503999D01*
X68085133Y15503999D01*
G37*
G36*
X68561773Y16062704D02*
G01*
X69025956Y16062704D01*
X69132935Y15806249D01*
X68467251Y15806249D01*
X68561773Y16062704D01*
G37*
G36*
X70307499Y16896183D02*
G01*
X70725154Y16896183D01*
X70725154Y15503999D01*
X70418507Y15503999D01*
X70418507Y16602359D01*
X70307499Y16602359D01*
X70307499Y16896183D01*
G37*
D14*
G36*
X6137000Y29435668D02*
G01*
X4528294Y29435668D01*
X4528294Y29437500D01*
X5746455Y30296624D01*
X5717146Y30166198D01*
X4528294Y31023124D01*
X4528294Y31027154D01*
X6137000Y31027154D01*
X6137000Y30722706D01*
X5215227Y30722706D01*
X5372764Y30741757D01*
X6116117Y30218955D01*
X6116117Y30214558D01*
X5372764Y29677102D01*
X5227683Y29729492D01*
X6137000Y29729492D01*
X6137000Y29435668D01*
G37*
G36*
X5446746Y33587835D02*
G01*
X5524713Y33576225D01*
X5600070Y33556877D01*
X5672816Y33529789D01*
X5742082Y33495808D01*
X5806997Y33455783D01*
X5867561Y33409713D01*
X5923775Y33357598D01*
X5974883Y33300422D01*
X6020129Y33239170D01*
X6059513Y33173843D01*
X6093036Y33104440D01*
X6119643Y33031831D01*
X6138648Y32956887D01*
X6150051Y32879607D01*
X6153852Y32799991D01*
X6150051Y32719414D01*
X6138648Y32641447D01*
X6119643Y32566090D01*
X6093036Y32493344D01*
X6059513Y32424078D01*
X6020129Y32359163D01*
X5974883Y32298599D01*
X5923775Y32242385D01*
X5867561Y32191300D01*
X5806997Y32146122D01*
X5742082Y32106853D01*
X5672816Y32073491D01*
X5600070Y32046884D01*
X5524713Y32027878D01*
X5446746Y32016475D01*
X5366169Y32012674D01*
X5287515Y32016475D01*
X5210922Y32027878D01*
X5136390Y32046884D01*
X5063919Y32073491D01*
X4994515Y32106853D01*
X4929188Y32146122D01*
X4867937Y32191300D01*
X4810761Y32242385D01*
X4758577Y32298599D01*
X4712300Y32359163D01*
X4671932Y32424078D01*
X4637471Y32493344D01*
X4609902Y32566090D01*
X4590210Y32641447D01*
X4578394Y32719414D01*
X4574456Y32799991D01*
X4574565Y32802189D01*
X4868646Y32802189D01*
X4873953Y32728687D01*
X4891678Y32653712D01*
X4906382Y32615344D01*
X4942121Y32548837D01*
X4988018Y32489224D01*
X5012628Y32464035D01*
X5071683Y32415887D01*
X5138114Y32377413D01*
X5171263Y32362919D01*
X5246909Y32339910D01*
X5321029Y32329082D01*
X5366169Y32327381D01*
X5441474Y32332533D01*
X5518752Y32349742D01*
X5558510Y32364018D01*
X5627458Y32398859D01*
X5689634Y32443254D01*
X5716047Y32466966D01*
X5766395Y32524291D01*
X5806706Y32588509D01*
X5821926Y32620473D01*
X5846359Y32693918D01*
X5857856Y32766330D01*
X5859662Y32810616D01*
X5853434Y32888452D01*
X5834750Y32961814D01*
X5821926Y32994164D01*
X5786248Y33059596D01*
X5740532Y33117772D01*
X5716047Y33142175D01*
X5656996Y33188840D01*
X5591174Y33226435D01*
X5558510Y33240727D01*
X5483641Y33263974D01*
X5410560Y33274913D01*
X5366169Y33276631D01*
X5289645Y33271479D01*
X5217242Y33256023D01*
X5171263Y33239995D01*
X5101427Y33205693D01*
X5038967Y33162321D01*
X5012628Y33139244D01*
X4962042Y33083524D01*
X4921615Y33020548D01*
X4906382Y32989035D01*
X4881950Y32916664D01*
X4869973Y32839455D01*
X4868646Y32802189D01*
X4574565Y32802189D01*
X4578394Y32879607D01*
X4590210Y32956887D01*
X4609902Y33031831D01*
X4637471Y33104440D01*
X4671932Y33173843D01*
X4712300Y33239170D01*
X4758577Y33300422D01*
X4810761Y33357598D01*
X4867937Y33409713D01*
X4929188Y33455783D01*
X4994515Y33495808D01*
X5063919Y33529789D01*
X5136390Y33556877D01*
X5210922Y33576225D01*
X5287515Y33587835D01*
X5366169Y33591704D01*
X5446746Y33587835D01*
G37*
G36*
X4591309Y34472810D02*
G01*
X4591309Y35514384D01*
X4885499Y35514384D01*
X4885499Y35138494D01*
X6137000Y35138494D01*
X6137000Y34834046D01*
X4885499Y34834046D01*
X4885499Y34472810D01*
X4591309Y34472810D01*
G37*
G36*
X4591309Y36488913D02*
G01*
X4591309Y36793362D01*
X6137000Y36793362D01*
X6137000Y36488913D01*
X4591309Y36488913D01*
G37*
G36*
X4591309Y38106778D02*
G01*
X5704323Y38558138D01*
X5668786Y38381917D01*
X4591309Y38791146D01*
X4591309Y39152381D01*
X6208441Y38446764D01*
X4591309Y37741146D01*
X4591309Y38106778D01*
G37*
D15*
G36*
X3417945Y25081289D02*
G01*
X1828901Y23516181D01*
X1848441Y23594827D01*
X3352000Y23600200D01*
X3352000Y23327137D01*
X1266167Y23327137D01*
X1266167Y23339838D01*
X2859117Y24888337D01*
X2845440Y24825323D01*
X1327716Y24819461D01*
X1327716Y25089593D01*
X3417945Y25089593D01*
X3417945Y25081289D01*
G37*
G36*
X3396940Y25973752D02*
G01*
X3385511Y25870746D01*
X3346974Y25773911D01*
X3300220Y25711924D01*
X3219643Y25648887D01*
X3122991Y25612914D01*
X3049627Y25603969D01*
X2192823Y25603969D01*
X2192823Y25865797D01*
X2957303Y25865797D01*
X3056623Y25888085D01*
X3110688Y25920996D01*
X3162627Y26005412D01*
X3172725Y26077311D01*
X3156595Y26174700D01*
X3115572Y26251701D01*
X3042610Y26325263D01*
X2958769Y26375288D01*
X2859550Y26408597D01*
X2756487Y26421286D01*
X2733088Y26421694D01*
X2192823Y26421694D01*
X2192823Y26683522D01*
X3352000Y26683522D01*
X3352000Y26447095D01*
X3067701Y26424625D01*
X3118015Y26437325D01*
X3203040Y26387403D01*
X3262118Y26334255D01*
X3321732Y26255218D01*
X3361281Y26174032D01*
X3388025Y26077800D01*
X3396905Y25980484D01*
X3396940Y25973752D01*
G37*
G36*
X2192823Y27367402D02*
G01*
X2453186Y27389872D01*
X2430715Y27377172D01*
X2346122Y27428024D01*
X2269243Y27498378D01*
X2222132Y27561331D01*
X2175993Y27655899D01*
X2152406Y27751034D01*
X2146417Y27834883D01*
X2156463Y27936893D01*
X2178168Y28006830D01*
X2227551Y28091361D01*
X2267073Y28132371D01*
X2353025Y28182410D01*
X2406780Y28196362D01*
X2417038Y28180731D01*
X2329317Y28239029D01*
X2257395Y28311340D01*
X2218224Y28367332D01*
X2174467Y28458351D01*
X2150905Y28553354D01*
X2146417Y28618903D01*
X2155862Y28718069D01*
X2188071Y28811504D01*
X2243137Y28888547D01*
X2323714Y28949913D01*
X2420366Y28983801D01*
X2493730Y28991129D01*
X3352000Y28991129D01*
X3352000Y28730766D01*
X2588985Y28730766D01*
X2488693Y28712638D01*
X2439508Y28687290D01*
X2382312Y28603143D01*
X2373563Y28546118D01*
X2390796Y28444123D01*
X2434623Y28364890D01*
X2504355Y28294304D01*
X2592404Y28240815D01*
X2686865Y28208264D01*
X2787980Y28193960D01*
X2801965Y28193431D01*
X3352000Y28193431D01*
X3352000Y27931603D01*
X2588985Y27931603D01*
X2488693Y27912102D01*
X2439508Y27885197D01*
X2383779Y27803522D01*
X2373563Y27741094D01*
X2390796Y27639237D01*
X2434623Y27560354D01*
X2504721Y27490623D01*
X2593870Y27437744D01*
X2689275Y27406188D01*
X2790476Y27393952D01*
X2804407Y27393780D01*
X3352000Y27393780D01*
X3352000Y27131952D01*
X2192823Y27131952D01*
X2192823Y27367402D01*
G37*
G36*
X3200569Y30994408D02*
G01*
X3250839Y30908771D01*
X3276284Y30857632D01*
X3314997Y30762988D01*
X3343461Y30668354D01*
X3347115Y30653934D01*
X3365533Y30556081D01*
X3373955Y30450649D01*
X3374470Y30399433D01*
X3369448Y30298667D01*
X3354549Y30189002D01*
X3329880Y30085199D01*
X3295442Y29987258D01*
X3290450Y29975427D01*
X3246181Y29884874D01*
X3194463Y29801282D01*
X3127375Y29715561D01*
X3068678Y29654981D01*
X2986220Y29585622D01*
X2897116Y29525923D01*
X2801366Y29475884D01*
X2745300Y29452259D01*
X2652396Y29421271D01*
X2556378Y29399136D01*
X2457246Y29385856D01*
X2355000Y29381429D01*
X2243870Y29386008D01*
X2137136Y29399747D01*
X2034798Y29422645D01*
X1936856Y29454702D01*
X1844044Y29495398D01*
X1757582Y29543728D01*
X1677471Y29599690D01*
X1603709Y29663285D01*
X1529048Y29743184D01*
X1464434Y29830656D01*
X1409865Y29925702D01*
X1383892Y29981778D01*
X1349484Y30075781D01*
X1324907Y30174119D01*
X1310161Y30276792D01*
X1305245Y30383801D01*
X1309148Y30483587D01*
X1322639Y30588115D01*
X1345765Y30685965D01*
X1354582Y30714018D01*
X1390128Y30811147D01*
X1433381Y30905784D01*
X1468887Y30969007D01*
X1723877Y30860075D01*
X1671663Y30773471D01*
X1626222Y30678503D01*
X1616898Y30656376D01*
X1586536Y30563114D01*
X1570187Y30462844D01*
X1567073Y30392106D01*
X1574057Y30293029D01*
X1595010Y30197301D01*
X1626180Y30113180D01*
X1672021Y30025863D01*
X1728945Y29945935D01*
X1790311Y29879684D01*
X1867007Y29815582D01*
X1952015Y29761638D01*
X2036508Y29721415D01*
X2135998Y29688876D01*
X2241030Y29669843D01*
X2341323Y29664262D01*
X2441453Y29669318D01*
X2546637Y29686561D01*
X2646626Y29716041D01*
X2739353Y29757008D01*
X2823422Y29808711D01*
X2892334Y29865030D01*
X2963913Y29943729D01*
X3018182Y30025405D01*
X3054512Y30099014D01*
X3087607Y30196637D01*
X3106965Y30302110D01*
X3112642Y30404806D01*
X3107100Y30507388D01*
X3088416Y30609683D01*
X3065747Y30679824D01*
X3025468Y30770291D01*
X2973583Y30857846D01*
X2958769Y30878149D01*
X3200569Y30994408D01*
G37*
G36*
X3352000Y32313320D02*
G01*
X3158869Y32313320D01*
X3188357Y32292315D01*
X3257181Y32218935D01*
X3276773Y32193152D01*
X3326423Y32108392D01*
X3350534Y32050026D01*
X3374233Y31952619D01*
X3379843Y31868309D01*
X3373022Y31768990D01*
X3349760Y31666571D01*
X3309990Y31571310D01*
X3254173Y31486486D01*
X3182772Y31414706D01*
X3104337Y31360773D01*
X3013548Y31319814D01*
X2910927Y31294026D01*
X2808454Y31283786D01*
X2772167Y31283103D01*
X2667058Y31289518D01*
X2570449Y31308760D01*
X2473076Y31345187D01*
X2437066Y31364192D01*
X2355531Y31420473D01*
X2280608Y31494613D01*
X2221155Y31581568D01*
X2178048Y31678047D01*
X2152834Y31780760D01*
X2145440Y31879545D01*
X2149535Y31929859D01*
X2360862Y31929859D01*
X2373441Y31830330D01*
X2411176Y31738861D01*
X2471382Y31660337D01*
X2551371Y31599642D01*
X2641725Y31562476D01*
X2745172Y31548065D01*
X2759955Y31547863D01*
X2861478Y31559562D01*
X2953555Y31594660D01*
X2965119Y31601108D01*
X3047184Y31663390D01*
X3110688Y31743745D01*
X3150988Y31837046D01*
X3164421Y31938163D01*
X3154219Y32035551D01*
X3128273Y32112552D01*
X3074262Y32195657D01*
X3025203Y32242001D01*
X2937529Y32292123D01*
X2867422Y32313320D01*
X2639299Y32313320D01*
X2548499Y32275334D01*
X2494707Y32235651D01*
X2429929Y32161836D01*
X2396521Y32101806D01*
X2366747Y32003482D01*
X2360862Y31929859D01*
X2149535Y31929859D01*
X2154098Y31985930D01*
X2183293Y32088032D01*
X2218713Y32155050D01*
X2283084Y32237468D01*
X2357130Y32302150D01*
X2376535Y32314522D01*
X2192823Y32334325D01*
X2192823Y32575148D01*
X3352000Y32575148D01*
X3352000Y32313320D01*
G37*
G36*
X1183613Y33023090D02*
G01*
X1183613Y33284918D01*
X3352000Y33284918D01*
X3352000Y33023090D01*
X1183613Y33023090D01*
G37*
G36*
X3244044Y34676614D02*
G01*
X3300464Y34590884D01*
X3341380Y34496760D01*
X3343695Y34490012D01*
X3368406Y34394656D01*
X3379525Y34291452D01*
X3379843Y34270682D01*
X3373893Y34167938D01*
X3353323Y34062208D01*
X3318060Y33965350D01*
X3304616Y33938023D01*
X3251379Y33854675D01*
X3179154Y33777098D01*
X3092614Y33714297D01*
X3002454Y33671793D01*
X2902944Y33645031D01*
X2805391Y33634405D01*
X2771190Y33633697D01*
X2670915Y33640459D01*
X2568562Y33663833D01*
X2475750Y33703905D01*
X2449766Y33719182D01*
X2370340Y33777905D01*
X2296965Y33854732D01*
X2238252Y33944374D01*
X2198839Y34033904D01*
X2172345Y34136795D01*
X2163587Y34234339D01*
X2163514Y34244304D01*
X2169009Y34344894D01*
X2187366Y34444409D01*
X2202593Y34493920D01*
X2242210Y34584387D01*
X2296692Y34668658D01*
X2309083Y34683941D01*
X2479564Y34553515D01*
X2427426Y34470425D01*
X2409222Y34430905D01*
X2381936Y34332445D01*
X2377471Y34266774D01*
X2390415Y34168711D01*
X2429250Y34079684D01*
X2494743Y33999683D01*
X2569934Y33945351D01*
X2664700Y33907981D01*
X2764191Y33895574D01*
X2771190Y33895525D01*
X2874383Y33908226D01*
X2969027Y33946327D01*
X3049993Y34007144D01*
X3112153Y34087011D01*
X3151354Y34183121D01*
X3164370Y34284537D01*
X3164421Y34291687D01*
X3152813Y34392869D01*
X3141951Y34429440D01*
X3096704Y34520184D01*
X3080401Y34542280D01*
X3244044Y34676614D01*
G37*
G36*
X2192823Y35010249D02*
G01*
X2192823Y35272078D01*
X3352000Y35272078D01*
X3352000Y35010249D01*
X2192823Y35010249D01*
G37*
G36*
X1784449Y34992175D02*
G01*
X1691003Y35030323D01*
X1680401Y35042001D01*
X1639894Y35131298D01*
X1638880Y35148979D01*
X1670670Y35242585D01*
X1680401Y35254492D01*
X1769146Y35300654D01*
X1784449Y35301387D01*
X1878963Y35265483D01*
X1889473Y35254492D01*
X1929384Y35163451D01*
X1930018Y35148979D01*
X1898602Y35054572D01*
X1888985Y35042001D01*
X1803616Y34993392D01*
X1784449Y34992175D01*
G37*
G36*
X3396940Y36091268D02*
G01*
X3385511Y35988262D01*
X3346974Y35891427D01*
X3300220Y35829440D01*
X3219643Y35766402D01*
X3122991Y35730430D01*
X3049627Y35721484D01*
X2192823Y35721484D01*
X2192823Y35983313D01*
X2957303Y35983313D01*
X3056623Y36005600D01*
X3110688Y36038512D01*
X3162627Y36122928D01*
X3172725Y36194827D01*
X3156595Y36292216D01*
X3115572Y36369217D01*
X3042610Y36442779D01*
X2958769Y36492803D01*
X2859550Y36526113D01*
X2756487Y36538802D01*
X2733088Y36539210D01*
X2192823Y36539210D01*
X2192823Y36801038D01*
X3352000Y36801038D01*
X3352000Y36564611D01*
X3067701Y36542140D01*
X3118015Y36554841D01*
X3203040Y36504918D01*
X3262118Y36451771D01*
X3321732Y36372734D01*
X3361281Y36291547D01*
X3388025Y36195316D01*
X3396905Y36098000D01*
X3396940Y36091268D01*
G37*
G36*
X2192823Y37484918D02*
G01*
X2453186Y37507388D01*
X2430715Y37494688D01*
X2346122Y37545540D01*
X2269243Y37615894D01*
X2222132Y37678847D01*
X2175993Y37773414D01*
X2152406Y37868550D01*
X2146417Y37952399D01*
X2156463Y38054408D01*
X2178168Y38124346D01*
X2227551Y38208877D01*
X2267073Y38249886D01*
X2353025Y38299925D01*
X2406780Y38313878D01*
X2417038Y38298247D01*
X2329317Y38356544D01*
X2257395Y38428855D01*
X2218224Y38484848D01*
X2174467Y38575867D01*
X2150905Y38670870D01*
X2146417Y38736418D01*
X2155862Y38835585D01*
X2188071Y38929020D01*
X2243137Y39006062D01*
X2323714Y39067428D01*
X2420366Y39101317D01*
X2493730Y39108644D01*
X3352000Y39108644D01*
X3352000Y38848281D01*
X2588985Y38848281D01*
X2488693Y38830154D01*
X2439508Y38804806D01*
X2382312Y38720659D01*
X2373563Y38663634D01*
X2390796Y38561639D01*
X2434623Y38482406D01*
X2504355Y38411819D01*
X2592404Y38358330D01*
X2686865Y38325780D01*
X2787980Y38311476D01*
X2801965Y38310947D01*
X3352000Y38310947D01*
X3352000Y38049119D01*
X2588985Y38049119D01*
X2488693Y38029618D01*
X2439508Y38002713D01*
X2383779Y37921038D01*
X2373563Y37858609D01*
X2390796Y37756753D01*
X2434623Y37677870D01*
X2504721Y37608138D01*
X2593870Y37555260D01*
X2689275Y37523704D01*
X2790476Y37511468D01*
X2804407Y37511296D01*
X3352000Y37511296D01*
X3352000Y37249468D01*
X2192823Y37249468D01*
X2192823Y37484918D01*
G37*
D16*
%TO.C,D41*%
X62970667Y40942596D02*
X62970667Y42942596D01*
X62970667Y40942596D02*
X66170667Y40942596D01*
X63270667Y43242596D02*
X62970667Y42942596D01*
X63270667Y43242596D02*
X66170667Y43242596D01*
X66170667Y43242596D02*
X66170667Y40942596D01*
%TD*%
M02*
