M48
; DRILL file {KiCad 8.0.8-8.0.8-0~ubuntu22.04.1} date 2025-02-03T23:54:15+0000
; FORMAT={-:-/ absolute / inch / decimal}
; #@! TF.CreationDate,2025-02-03T23:54:15+00:00
; #@! TF.GenerationSoftware,Kicad,Pcbnew,8.0.8-8.0.8-0~ubuntu22.04.1
; #@! TF.FileFunction,Plated,1,2,PTH
FMAT,2
INCH
; #@! TA.AperFunction,Plated,PTH,ViaDrill
T1C0.0157
%
G90
G05
T1
X0.0391Y1.5369
X0.0391Y1.1431
X0.0391Y0.9542
X0.0391Y0.7888
X0.0627Y1.3872
X0.2556Y0.6313
X0.2753Y1.6943
X0.3028Y1.1589
X0.4209Y1.0014
X0.4367Y1.2822
X0.5312Y1.6353
X0.5706Y1.1077
X0.6013Y1.2552
X0.602Y1.4266
X0.6099Y1.1786
X0.627Y1.3302
X0.6552Y1.2659
X0.666Y1.3328
X0.687Y1.5337
X0.693Y1.2659
X0.6965Y1.088
X0.7044Y0.9778
X0.7166Y1.456
X0.7215Y1.2956
X0.7264Y1.1574
X0.9249Y1.6353
X0.9449Y1.4836
X0.9548Y1.4442
X1.0355Y1.3218
X1.0551Y1.0997
X1.0596Y1.219
X1.0627Y0.6313
X1.063Y0.9304
X1.063Y0.8871
X1.063Y0.8438
X1.067Y1.2887
X1.075Y1.1844
X1.0824Y1.3991
X1.0866Y1.2454
X1.0985Y1.1548
X1.1217Y1.1038
X1.2595Y1.6353
X1.2595Y1.2416
X1.2595Y0.8282
X1.2595Y0.6313
X1.3695Y1.4363
X1.3695Y1.0623
X1.4564Y0.8282
X1.4564Y0.6313
X1.4915Y1.1017
X1.5413Y1.1334
X1.586Y1.1017
X1.6926Y1.2416
X1.7123Y1.4187
X1.7398Y1.1266
X1.7711Y1.0996
X1.8028Y0.6313
X1.8501Y0.7101
X1.8894Y0.8479
X1.9761Y1.3912
X2.0076Y0.7691
X2.0191Y1.1214
X2.1653Y0.6313
X2.4556Y1.6957
X2.4564Y1.6199
X2.457Y1.6579
X2.6257Y1.6786
M30
