%TF.GenerationSoftware,KiCad,Pcbnew,8.0.9-8.0.9-0~ubuntu22.04.1*%
%TF.CreationDate,2026-01-28T22:19:24+00:00*%
%TF.ProjectId,numcalcium,6e756d63-616c-4636-9975-6d2e6b696361,rev?*%
%TF.SameCoordinates,Original*%
%TF.FileFunction,Copper,L2,Bot*%
%TF.FilePolarity,Positive*%
%FSLAX46Y46*%
G04 Gerber Fmt 4.6, Leading zero omitted, Abs format (unit mm)*
G04 Created by KiCad (PCBNEW 8.0.9-8.0.9-0~ubuntu22.04.1) date 2026-01-28 22:19:24*
%MOMM*%
%LPD*%
G01*
G04 APERTURE LIST*
G04 Aperture macros list*
%AMRoundRect*
0 Rectangle with rounded corners*
0 $1 Rounding radius*
0 $2 $3 $4 $5 $6 $7 $8 $9 X,Y pos of 4 corners*
0 Add a 4 corners polygon primitive as box body*
4,1,4,$2,$3,$4,$5,$6,$7,$8,$9,$2,$3,0*
0 Add four circle primitives for the rounded corners*
1,1,$1+$1,$2,$3*
1,1,$1+$1,$4,$5*
1,1,$1+$1,$6,$7*
1,1,$1+$1,$8,$9*
0 Add four rect primitives between the rounded corners*
20,1,$1+$1,$2,$3,$4,$5,0*
20,1,$1+$1,$4,$5,$6,$7,0*
20,1,$1+$1,$6,$7,$8,$9,0*
20,1,$1+$1,$8,$9,$2,$3,0*%
G04 Aperture macros list end*
%TA.AperFunction,SMDPad,CuDef*%
%ADD10RoundRect,0.250000X0.350000X0.450000X-0.350000X0.450000X-0.350000X-0.450000X0.350000X-0.450000X0*%
%TD*%
%TA.AperFunction,SMDPad,CuDef*%
%ADD11RoundRect,0.250000X-0.412500X-0.650000X0.412500X-0.650000X0.412500X0.650000X-0.412500X0.650000X0*%
%TD*%
%TA.AperFunction,SMDPad,CuDef*%
%ADD12RoundRect,0.250000X-0.350000X-0.450000X0.350000X-0.450000X0.350000X0.450000X-0.350000X0.450000X0*%
%TD*%
%TA.AperFunction,SMDPad,CuDef*%
%ADD13RoundRect,0.250000X0.337500X0.475000X-0.337500X0.475000X-0.337500X-0.475000X0.337500X-0.475000X0*%
%TD*%
%TA.AperFunction,SMDPad,CuDef*%
%ADD14RoundRect,0.250000X-0.375000X-0.625000X0.375000X-0.625000X0.375000X0.625000X-0.375000X0.625000X0*%
%TD*%
%TA.AperFunction,SMDPad,CuDef*%
%ADD15R,1.200000X2.500000*%
%TD*%
%TA.AperFunction,SMDPad,CuDef*%
%ADD16R,2.500000X2.500000*%
%TD*%
%TA.AperFunction,SMDPad,CuDef*%
%ADD17R,1.300000X0.300000*%
%TD*%
%TA.AperFunction,SMDPad,CuDef*%
%ADD18R,2.200000X1.800000*%
%TD*%
%TA.AperFunction,SMDPad,CuDef*%
%ADD19RoundRect,0.250000X-0.337500X-0.475000X0.337500X-0.475000X0.337500X0.475000X-0.337500X0.475000X0*%
%TD*%
%TA.AperFunction,SMDPad,CuDef*%
%ADD20RoundRect,0.150000X-0.587500X-0.150000X0.587500X-0.150000X0.587500X0.150000X-0.587500X0.150000X0*%
%TD*%
%TA.AperFunction,SMDPad,CuDef*%
%ADD21R,0.700000X2.000000*%
%TD*%
%TA.AperFunction,SMDPad,CuDef*%
%ADD22RoundRect,0.300000X0.300000X0.800000X-0.300000X0.800000X-0.300000X-0.800000X0.300000X-0.800000X0*%
%TD*%
%TA.AperFunction,SMDPad,CuDef*%
%ADD23RoundRect,0.300000X-0.300000X-0.400000X0.300000X-0.400000X0.300000X0.400000X-0.300000X0.400000X0*%
%TD*%
%TA.AperFunction,SMDPad,CuDef*%
%ADD24RoundRect,0.350000X-0.450000X-0.350000X0.450000X-0.350000X0.450000X0.350000X-0.450000X0.350000X0*%
%TD*%
%TA.AperFunction,SMDPad,CuDef*%
%ADD25RoundRect,0.381000X-0.381000X0.762000X-0.381000X-0.762000X0.381000X-0.762000X0.381000X0.762000X0*%
%TD*%
%TA.AperFunction,ViaPad*%
%ADD26C,0.800000*%
%TD*%
%TA.AperFunction,Conductor*%
%ADD27C,0.250000*%
%TD*%
%TA.AperFunction,Conductor*%
%ADD28C,0.500000*%
%TD*%
%TA.AperFunction,Conductor*%
%ADD29C,1.000000*%
%TD*%
%TA.AperFunction,Conductor*%
%ADD30C,0.750000*%
%TD*%
G04 APERTURE END LIST*
D10*
%TO.P,R23,1*%
%TO.N,/Front/VDD*%
X55868905Y36501215D03*
%TO.P,R23,2*%
%TO.N,/Front/MOSI*%
X53868905Y36501215D03*
%TD*%
D11*
%TO.P,C12,1*%
%TO.N,Net-(C12-Pad1)*%
X18954500Y20236000D03*
%TO.P,C12,2*%
%TO.N,Net-(C12-Pad2)*%
X22079500Y20236000D03*
%TD*%
D12*
%TO.P,R2,1*%
%TO.N,Net-(BZ1-+)*%
X53781405Y24801215D03*
%TO.P,R2,2*%
%TO.N,/Front/VDD*%
X55781405Y24801215D03*
%TD*%
D10*
%TO.P,R22,1*%
%TO.N,/Front/VDD*%
X55818905Y28801215D03*
%TO.P,R22,2*%
%TO.N,/Front/MISO*%
X53818905Y28801215D03*
%TD*%
D13*
%TO.P,C11,1*%
%TO.N,Net-(J3-Pin_5)*%
X21549100Y37736000D03*
%TO.P,C11,2*%
%TO.N,/Front/GND*%
X19474100Y37736000D03*
%TD*%
%TO.P,C10,1*%
%TO.N,/Front/VDD*%
X21498300Y39736000D03*
%TO.P,C10,2*%
%TO.N,/Front/GND*%
X19423300Y39736000D03*
%TD*%
D14*
%TO.P,D42,1,K*%
%TO.N,Net-(BZ1-+)*%
X53447257Y16936000D03*
%TO.P,D42,2,A*%
%TO.N,Net-(BZ1--)*%
X56247257Y16936000D03*
%TD*%
D15*
%TO.P,J5,R1*%
%TO.N,Net-(C13-Pad1)*%
X7892000Y18836000D03*
%TO.P,J5,R2*%
%TO.N,/Front/GND*%
X4892000Y18836000D03*
%TO.P,J5,S*%
X12992000Y25336000D03*
%TO.P,J5,T*%
%TO.N,Net-(C12-Pad1)*%
X11892000Y18836000D03*
%TD*%
D10*
%TO.P,R18,1*%
%TO.N,/Front/LCD_LED*%
X21592000Y28336000D03*
%TO.P,R18,2*%
%TO.N,/Front/GND*%
X19592000Y28336000D03*
%TD*%
D16*
%TO.P,BZ1,1,+*%
%TO.N,Net-(BZ1-+)*%
X50592000Y16236000D03*
%TO.P,BZ1,2,-*%
%TO.N,Net-(BZ1--)*%
X43592000Y16236000D03*
%TO.P,BZ1,3*%
%TO.N,N/C*%
X43592000Y23236000D03*
%TO.P,BZ1,4*%
X50592000Y23236000D03*
%TD*%
D11*
%TO.P,C13,1*%
%TO.N,Net-(C13-Pad1)*%
X18954500Y17836000D03*
%TO.P,C13,2*%
%TO.N,Net-(C13-Pad2)*%
X22079500Y17836000D03*
%TD*%
D17*
%TO.P,J3,1,Pin_1*%
%TO.N,/Front/GND*%
X24900757Y35882599D03*
%TO.P,J3,2,Pin_2*%
%TO.N,/Front/VDD*%
X24900757Y35382599D03*
%TO.P,J3,3,Pin_3*%
X24900757Y34882599D03*
%TO.P,J3,4,Pin_4*%
X24900757Y34382599D03*
%TO.P,J3,5,Pin_5*%
%TO.N,Net-(J3-Pin_5)*%
X24900757Y33882599D03*
%TO.P,J3,6,Pin_6*%
%TO.N,/Front/LCD_CS*%
X24900757Y33382599D03*
%TO.P,J3,7,Pin_7*%
%TO.N,/Front/CK*%
X24900757Y32882599D03*
%TO.P,J3,8,Pin_8*%
%TO.N,/Front/LCD_DC*%
X24900757Y32382599D03*
%TO.P,J3,9,Pin_9*%
%TO.N,unconnected-(J3-Pin_9-Pad9)*%
X24900757Y31882599D03*
%TO.P,J3,10,Pin_10*%
%TO.N,/Front/MOSI*%
X24900757Y31382599D03*
%TO.P,J3,11,Pin_11*%
%TO.N,/Front/GND*%
X24900757Y30882599D03*
%TO.P,J3,12,Pin_12*%
X24900757Y30382599D03*
%TO.P,J3,13,Pin_13*%
X24900757Y29882599D03*
%TO.P,J3,14,Pin_14*%
X24900757Y29382599D03*
%TO.P,J3,15,Pin_15*%
X24900757Y28882599D03*
%TO.P,J3,16,Pin_16*%
X24900757Y28382599D03*
%TO.P,J3,17,Pin_17*%
X24900757Y27882599D03*
%TO.P,J3,18,Pin_18*%
X24900757Y27382599D03*
%TO.P,J3,19,Pin_19*%
%TO.N,/Front/MISO*%
X24900757Y26882599D03*
%TO.P,J3,20,Pin_20*%
%TO.N,Net-(J3-Pin_20)*%
X24900757Y26382599D03*
%TO.P,J3,21,Pin_21*%
%TO.N,Net-(J3-Pin_21)*%
X24900757Y25882599D03*
%TO.P,J3,22,Pin_22*%
X24900757Y25382599D03*
%TO.P,J3,23,Pin_23*%
X24900757Y24882599D03*
%TO.P,J3,24,Pin_24*%
X24900757Y24382599D03*
%TO.P,J3,25,Pin_25*%
%TO.N,/Front/GND*%
X24900757Y23882599D03*
%TO.P,J3,26,Pin_26*%
%TO.N,unconnected-(J3-Pin_26-Pad26)*%
X24900757Y23382599D03*
%TO.P,J3,27,Pin_27*%
%TO.N,unconnected-(J3-Pin_27-Pad27)*%
X24900757Y22882599D03*
%TO.P,J3,28,Pin_28*%
%TO.N,unconnected-(J3-Pin_28-Pad28)*%
X24900757Y22382599D03*
%TO.P,J3,29,Pin_29*%
%TO.N,unconnected-(J3-Pin_29-Pad29)*%
X24900757Y21882599D03*
%TO.P,J3,30,Pin_30*%
%TO.N,/Front/GND*%
X24900757Y21382599D03*
D18*
%TO.P,J3,MP*%
%TO.N,N/C*%
X28150757Y37782599D03*
X28150757Y19482599D03*
%TD*%
D10*
%TO.P,R25,1*%
%TO.N,/Front/VDD*%
X55868905Y32701215D03*
%TO.P,R25,2*%
%TO.N,Net-(J4-DAT2)*%
X53868905Y32701215D03*
%TD*%
D19*
%TO.P,C9,1*%
%TO.N,Net-(J3-Pin_21)*%
X19438500Y35736000D03*
%TO.P,C9,2*%
%TO.N,Net-(J3-Pin_20)*%
X21513500Y35736000D03*
%TD*%
D10*
%TO.P,R24,1*%
%TO.N,/Front/VDD*%
X55868905Y34601215D03*
%TO.P,R24,2*%
%TO.N,/Front/SD_CS*%
X53868905Y34601215D03*
%TD*%
%TO.P,R15,1*%
%TO.N,/Front/VDD*%
X21492000Y41736000D03*
%TO.P,R15,2*%
%TO.N,Net-(J3-Pin_5)*%
X19492000Y41736000D03*
%TD*%
%TO.P,R28,1*%
%TO.N,Net-(C12-Pad2)*%
X21592000Y22436000D03*
%TO.P,R28,2*%
%TO.N,/Front/A_T*%
X19592000Y22436000D03*
%TD*%
%TO.P,R29,1*%
%TO.N,Net-(C13-Pad2)*%
X21592000Y24436000D03*
%TO.P,R29,2*%
%TO.N,/Front/A_R1*%
X19592000Y24436000D03*
%TD*%
D20*
%TO.P,Q8,1,G*%
%TO.N,/Front/BUZZER*%
X53843905Y19101215D03*
%TO.P,Q8,2,S*%
%TO.N,/Front/GND*%
X53843905Y21001215D03*
%TO.P,Q8,3,D*%
%TO.N,Net-(BZ1--)*%
X55718905Y20051215D03*
%TD*%
D10*
%TO.P,R21,1*%
%TO.N,/Front/VDD*%
X55818905Y26851215D03*
%TO.P,R21,2*%
%TO.N,Net-(J4-DAT1)*%
X53818905Y26851215D03*
%TD*%
D20*
%TO.P,Q9,1,G*%
%TO.N,/Front/LCD_LED*%
X19652600Y30086000D03*
%TO.P,Q9,2,S*%
%TO.N,/Front/GND*%
X19652600Y31986000D03*
%TO.P,Q9,3,D*%
%TO.N,Net-(J3-Pin_21)*%
X21527600Y31036000D03*
%TD*%
D21*
%TO.P,J4,1,DAT2*%
%TO.N,Net-(J4-DAT2)*%
X46484757Y26282599D03*
%TO.P,J4,2,DAT3/CD*%
%TO.N,/Front/SD_CS*%
X45384757Y26282599D03*
%TO.P,J4,3,CMD*%
%TO.N,/Front/MOSI*%
X44284757Y26282599D03*
%TO.P,J4,4,VDD*%
%TO.N,/Front/VDD*%
X43184757Y26282599D03*
%TO.P,J4,5,CLK*%
%TO.N,/Front/CK*%
X42084757Y26282599D03*
%TO.P,J4,6,VSS*%
%TO.N,/Front/GND*%
X40984757Y26282599D03*
%TO.P,J4,7,DAT0*%
%TO.N,/Front/MISO*%
X39884757Y26282599D03*
%TO.P,J4,8,DAT1*%
%TO.N,Net-(J4-DAT1)*%
X38784757Y26282599D03*
%TO.P,J4,9,DET_B*%
%TO.N,unconnected-(J4-DET_B-Pad9)*%
X37684757Y26282599D03*
D22*
%TO.P,J4,11,SHIELD*%
%TO.N,/Front/GND*%
X36284757Y36432599D03*
D23*
X36534757Y26887399D03*
D24*
X51134757Y26887399D03*
D25*
X52034757Y36432599D03*
%TD*%
D12*
%TO.P,R27,1*%
%TO.N,/Front/BUZZER*%
X53781405Y22801215D03*
%TO.P,R27,2*%
%TO.N,/Front/GND*%
X55781405Y22801215D03*
%TD*%
D13*
%TO.P,C23,1*%
%TO.N,/Front/VDD*%
X55879500Y38589401D03*
%TO.P,C23,2*%
%TO.N,/Front/GND*%
X53804500Y38589401D03*
%TD*%
%TO.P,C15,1*%
%TO.N,/Front/VDD*%
X55906405Y30751215D03*
%TO.P,C15,2*%
%TO.N,/Front/GND*%
X53831405Y30751215D03*
%TD*%
D17*
%TO.P,J2,1,Pin_1*%
%TO.N,/Front/VDD*%
X7692000Y37382599D03*
%TO.P,J2,2,Pin_2*%
%TO.N,/Front/LED_RETURN*%
X7692000Y36882599D03*
%TO.P,J2,3,Pin_3*%
%TO.N,/Front/LCD_CS*%
X7692000Y36382599D03*
%TO.P,J2,4,Pin_4*%
%TO.N,/Front/MISO*%
X7692000Y35882599D03*
%TO.P,J2,5,Pin_5*%
%TO.N,/Front/MOSI*%
X7692000Y35382599D03*
%TO.P,J2,6,Pin_6*%
%TO.N,/Front/CK*%
X7692000Y34882599D03*
%TO.P,J2,7,Pin_7*%
%TO.N,/Front/SD_CS*%
X7692000Y34382599D03*
%TO.P,J2,8,Pin_8*%
%TO.N,/Front/LCD_DC*%
X7692000Y33882599D03*
%TO.P,J2,9,Pin_9*%
%TO.N,/Front/LCD_LED*%
X7692000Y33382599D03*
%TO.P,J2,10,Pin_10*%
%TO.N,/Front/BUZZER*%
X7692000Y32882599D03*
%TO.P,J2,11,Pin_11*%
%TO.N,/Front/LED*%
X7692000Y32382599D03*
%TO.P,J2,12,Pin_12*%
%TO.N,/Front/A_T*%
X7692000Y31882599D03*
%TO.P,J2,13,Pin_13*%
%TO.N,/Front/A_R1*%
X7692000Y31382599D03*
%TO.P,J2,14,Pin_14*%
%TO.N,/Front/GND*%
X7692000Y30882599D03*
D18*
%TO.P,J2,MP*%
%TO.N,N/C*%
X10942000Y39282599D03*
X10942000Y28982599D03*
%TD*%
D10*
%TO.P,R19,1*%
%TO.N,Net-(J3-Pin_20)*%
X21491200Y33736000D03*
%TO.P,R19,2*%
%TO.N,/Front/VDD*%
X19491200Y33736000D03*
%TD*%
D26*
%TO.N,Net-(BZ1--)*%
X54999448Y16036000D03*
X45792000Y16036000D03*
%TO.N,/Front/GND*%
X36992000Y16036000D03*
X19492000Y26336000D03*
X51284757Y28482599D03*
X6492000Y16036000D03*
X34784757Y26982599D03*
X40284757Y27982599D03*
X27000757Y23632599D03*
X7692000Y29436000D03*
X47992000Y21536000D03*
X992000Y20036000D03*
X28492000Y28036000D03*
X46992000Y18036000D03*
X31992000Y41536000D03*
%TO.N,/Front/BUZZER*%
X11092000Y32567599D03*
%TO.N,/Front/GND*%
X26800757Y27932599D03*
X24250757Y36682599D03*
X14492000Y28136000D03*
X50192000Y35336000D03*
%TO.N,/Front/SD_CS*%
X37884757Y27982599D03*
%TO.N,/Front/GND*%
X31992000Y21036000D03*
%TO.N,/Front/SD_CS*%
X15272920Y31881968D03*
%TO.N,/Front/GND*%
X992000Y29036000D03*
%TO.N,/Front/LED_RETURN*%
X62492000Y42636000D03*
%TO.N,/Front/BUZZER*%
X50992000Y19536000D03*
%TO.N,/Front/VDD*%
X24000757Y37682599D03*
%TO.N,/Front/SD_CS*%
X27900757Y29332599D03*
%TO.N,/Front/LCD_CS*%
X26300757Y33572599D03*
%TO.N,/Front/GND*%
X15292000Y36236000D03*
X6992000Y43036000D03*
X62492000Y41536000D03*
%TO.N,/Front/VDD*%
X18200757Y36982599D03*
%TO.N,/Front/GND*%
X992000Y24236000D03*
%TO.N,/Front/SD_CS*%
X44986678Y27930678D03*
%TO.N,/Front/GND*%
X17892000Y24836000D03*
X13492000Y41536000D03*
X27492000Y35536000D03*
%TO.N,/Front/MISO*%
X27303743Y30084382D03*
%TO.N,/Front/GND*%
X43492000Y36036000D03*
%TO.N,/Front/LED*%
X66664757Y41463243D03*
%TO.N,/Front/GND*%
X36992000Y21036000D03*
X23492000Y41536000D03*
X992000Y39036000D03*
%TO.N,/Front/VDD*%
X66692000Y42636000D03*
%TO.N,/Front/GND*%
X55792000Y21136000D03*
X18450757Y29398599D03*
%TO.N,/Front/LCD_CS*%
X16916388Y33852599D03*
%TO.N,/Front/GND*%
X34784757Y36482599D03*
%TO.N,/Front/LCD_DC*%
X27600757Y31632599D03*
%TO.N,/Front/GND*%
X27000757Y21432599D03*
%TO.N,/Front/LCD_DC*%
X18324878Y32909026D03*
%TO.N,/Front/GND*%
X27000757Y22532599D03*
X17450757Y38955799D03*
X31992000Y31536000D03*
X15492000Y29936000D03*
X1592000Y35236000D03*
X42992000Y31536000D03*
%TO.N,/Front/MISO*%
X15924911Y33787640D03*
%TO.N,/Front/CK*%
X27100757Y32732599D03*
X16642920Y32154414D03*
%TO.N,/Front/MOSI*%
X39148493Y28787601D03*
X26914064Y30961739D03*
X17602919Y32154414D03*
X44192000Y28615678D03*
%TD*%
D27*
%TO.N,/Front/LED*%
X66975737Y43321000D02*
X9877000Y43321000D01*
%TO.N,Net-(J3-Pin_21)*%
X26200757Y24932599D02*
X26200757Y25332599D01*
%TO.N,/Front/LED*%
X5492000Y38936000D02*
X5492000Y33236000D01*
%TO.N,Net-(BZ1--)*%
X55718905Y19162905D02*
X55718905Y20051215D01*
%TO.N,/Front/MOSI*%
X17129927Y33098073D02*
X14550197Y33098073D01*
%TO.N,Net-(BZ1--)*%
X45792000Y16036000D02*
X43981356Y16036000D01*
%TO.N,/Front/MOSI*%
X28151102Y30642600D02*
X27700757Y30642599D01*
%TO.N,Net-(BZ1--)*%
X56247257Y16936000D02*
X55392000Y17791257D01*
%TO.N,/Front/MOSI*%
X30020758Y29112598D02*
X28490756Y30642600D01*
%TO.N,Net-(BZ1--)*%
X55392000Y17791257D02*
X55392000Y18836000D01*
X43981356Y16036000D02*
X43784757Y16232599D01*
X55392000Y18836000D02*
X55718905Y19162905D01*
X55899448Y16936000D02*
X56247257Y16936000D01*
X54999448Y16036000D02*
X55899448Y16936000D01*
D28*
%TO.N,/Front/VDD*%
X43178591Y30222591D02*
X53092000Y40136000D01*
D27*
%TO.N,/Front/LED*%
X67377000Y41821000D02*
X67377000Y42919737D01*
%TO.N,/Front/CK*%
X39913495Y29522598D02*
X42084757Y27351336D01*
%TO.N,/Front/MISO*%
X27000757Y28732599D02*
X27000757Y29781396D01*
D28*
%TO.N,/Front/VDD*%
X24000757Y37682599D02*
X24650757Y37682599D01*
D27*
%TO.N,/Front/LED*%
X6345401Y32382599D02*
X7692000Y32382599D01*
D28*
%TO.N,/Front/VDD*%
X43178591Y30222591D02*
X43184757Y30216425D01*
D27*
%TO.N,Net-(BZ1-+)*%
X51488158Y16936000D02*
X50784757Y16232599D01*
%TO.N,Net-(J3-Pin_20)*%
X23450757Y32782599D02*
X23450757Y26932599D01*
%TO.N,/Front/GND*%
X7692000Y29436000D02*
X7692000Y30882599D01*
X10692000Y25436000D02*
X12892000Y25436000D01*
X26200757Y30732599D02*
X26200757Y30332599D01*
X18450757Y30784157D02*
X19652600Y31986000D01*
X31266369Y30757591D02*
X42213591Y30757591D01*
X10092000Y25436000D02*
X4892000Y20236000D01*
X17892000Y39736000D02*
X19510800Y39736000D01*
X26200757Y22532599D02*
X27000757Y22532599D01*
X17450757Y39294757D02*
X17892000Y39736000D01*
X51284757Y27037399D02*
X51134757Y26887399D01*
X19513356Y28336000D02*
X18450757Y29398599D01*
X55026785Y22801215D02*
X54792000Y23036000D01*
X27492000Y34531960D02*
X31266369Y30757591D01*
X52034757Y37478757D02*
X52034757Y36432599D01*
X26171557Y29903399D02*
X26200757Y29932599D01*
X55781405Y22801215D02*
X55026785Y22801215D01*
X26171557Y27903399D02*
X26200757Y27932599D01*
X53092000Y30589842D02*
X53092000Y30636000D01*
X26200757Y23903399D02*
X24808757Y23903399D01*
X28492000Y28036000D02*
X28778533Y27749467D01*
X26200757Y23903399D02*
X26729957Y23903399D01*
X19592000Y28336000D02*
X19513356Y28336000D01*
X24608757Y28403399D02*
X26129957Y28403399D01*
X24608757Y29403399D02*
X26129957Y29403399D01*
X24608757Y29903399D02*
X26171557Y29903399D01*
X26200757Y27932599D02*
X26200757Y27532599D01*
X26071557Y27403399D02*
X24608757Y27403399D01*
X26129957Y28403399D02*
X26200757Y28332599D01*
X53892000Y38589401D02*
X53145401Y38589401D01*
X28778533Y27749467D02*
X34017889Y27749467D01*
X12892000Y25436000D02*
X12992000Y25336000D01*
X24900757Y35882599D02*
X24900757Y36032599D01*
X51284757Y28482599D02*
X51284757Y28782599D01*
X24900757Y36032599D02*
X24250757Y36682599D01*
X26200757Y27532599D02*
X26071557Y27403399D01*
X26200757Y22532599D02*
X26200757Y23903399D01*
X34879957Y26887399D02*
X34784757Y26982599D01*
X17450757Y38955799D02*
X17450757Y39294757D01*
X24608757Y28903399D02*
X26171557Y28903399D01*
X26200757Y29332599D02*
X26200757Y28932599D01*
X55781405Y22801215D02*
X55781405Y21146595D01*
X10692000Y25436000D02*
X10092000Y25436000D01*
X18450757Y29398599D02*
X18450757Y30784157D01*
X42213591Y30757591D02*
X42992000Y31536000D01*
X26171557Y21403399D02*
X26200757Y21432599D01*
X27492000Y35536000D02*
X27492000Y34531960D01*
X24608757Y27903399D02*
X26171557Y27903399D01*
X26129957Y30403399D02*
X26200757Y30332599D01*
X26050757Y30882599D02*
X26200757Y30732599D01*
X26200757Y27932599D02*
X26800757Y27932599D01*
X24808757Y21403399D02*
X26171557Y21403399D01*
X40984757Y27282599D02*
X40284757Y27982599D01*
%TO.N,/Front/LED*%
X5492000Y33236000D02*
X6345401Y32382599D01*
%TO.N,/Front/MISO*%
X24900757Y26882599D02*
X26719494Y26882599D01*
%TO.N,/Front/GND*%
X26200757Y28332599D02*
X26200757Y27932599D01*
D29*
%TO.N,Net-(C13-Pad1)*%
X9892000Y16836000D02*
X7892000Y18836000D01*
D27*
%TO.N,/Front/GND*%
X26200757Y21432599D02*
X27000757Y21432599D01*
D29*
%TO.N,Net-(C13-Pad1)*%
X18954500Y17836000D02*
X16892000Y17836000D01*
D27*
%TO.N,/Front/GND*%
X34017889Y27749467D02*
X34784757Y26982599D01*
D29*
%TO.N,Net-(C13-Pad1)*%
X15892000Y16836000D02*
X9892000Y16836000D01*
D27*
%TO.N,/Front/GND*%
X55781405Y21146595D02*
X55792000Y21136000D01*
D29*
%TO.N,Net-(C13-Pad1)*%
X16892000Y17836000D02*
X15892000Y16836000D01*
D27*
%TO.N,/Front/GND*%
X51284757Y28482599D02*
X51284757Y27037399D01*
%TO.N,/Front/A_R1*%
X12366531Y31382599D02*
X19592000Y24157130D01*
%TO.N,/Front/GND*%
X53207215Y30751215D02*
X53918905Y30751215D01*
%TO.N,/Front/A_R1*%
X19592000Y24157130D02*
X19592000Y24036000D01*
%TO.N,/Front/GND*%
X36534757Y26887399D02*
X34879957Y26887399D01*
%TO.N,/Front/A_R1*%
X7692000Y31382599D02*
X12366531Y31382599D01*
%TO.N,/Front/GND*%
X51284757Y28782599D02*
X53092000Y30589842D01*
D29*
%TO.N,Net-(C12-Pad1)*%
X16892000Y20236000D02*
X18954500Y20236000D01*
D27*
%TO.N,/Front/GND*%
X54792000Y30536000D02*
X54576785Y30751215D01*
D29*
%TO.N,Net-(C12-Pad1)*%
X11892000Y18836000D02*
X15492000Y18836000D01*
D27*
%TO.N,/Front/GND*%
X26200757Y21432599D02*
X26200757Y22532599D01*
D29*
%TO.N,Net-(C12-Pad1)*%
X15492000Y18836000D02*
X16892000Y20236000D01*
D27*
%TO.N,/Front/GND*%
X26200757Y30332599D02*
X26200757Y29932599D01*
%TO.N,/Front/A_T*%
X19592000Y22036000D02*
X20492000Y22936000D01*
%TO.N,/Front/GND*%
X26200757Y28932599D02*
X26200757Y28332599D01*
%TO.N,/Front/A_T*%
X20492000Y22936000D02*
X20492000Y25236000D01*
%TO.N,/Front/GND*%
X50192000Y35336000D02*
X51288599Y36432599D01*
%TO.N,/Front/A_T*%
X12446359Y31882599D02*
X7692000Y31882599D01*
%TO.N,/Front/VDD*%
X21410800Y41654800D02*
X21492000Y41736000D01*
X21992000Y39736000D02*
X24000757Y37727243D01*
X23600757Y34882599D02*
X23292000Y35191356D01*
D28*
X53092000Y40136000D02*
X55792000Y40136000D01*
D27*
X24900757Y34882599D02*
X23600757Y34882599D01*
X24700757Y35382599D02*
X26079957Y35382599D01*
D28*
X18200757Y36982599D02*
X17740757Y37442599D01*
X43184757Y30216425D02*
X43184757Y27052599D01*
D27*
%TO.N,Net-(J3-Pin_21)*%
X20492000Y34770000D02*
X20492000Y32936000D01*
%TO.N,Net-(J4-DAT1)*%
X52293690Y25326000D02*
X49461828Y25326000D01*
%TO.N,Net-(J4-DAT2)*%
X46484757Y27432599D02*
X51753373Y32701215D01*
X46484757Y26282599D02*
X46484757Y27432599D01*
D30*
%TO.N,Net-(C13-Pad2)*%
X23492000Y22836000D02*
X23492000Y18848500D01*
X23492000Y18848500D02*
X22079500Y17436000D01*
X21592000Y24436000D02*
X21892000Y24436000D01*
X21892000Y24436000D02*
X23492000Y22836000D01*
D28*
%TO.N,Net-(C12-Pad2)*%
X22079500Y21548500D02*
X22079500Y20236000D01*
D27*
%TO.N,Net-(BZ1-+)*%
X50192000Y16825356D02*
X50784757Y16232599D01*
X53447257Y16936000D02*
X51488158Y16936000D01*
X50192000Y19791638D02*
X50192000Y16825356D01*
X52792000Y23811810D02*
X52792000Y22391638D01*
X53781405Y24801215D02*
X52792000Y23811810D01*
X51034757Y15982599D02*
X50784757Y16232599D01*
%TO.N,Net-(J3-Pin_20)*%
X23450757Y32782599D02*
X22497356Y33736000D01*
%TO.N,Net-(BZ1-+)*%
X52792000Y22391638D02*
X50192000Y19791638D01*
%TO.N,Net-(J3-Pin_20)*%
X23450757Y26932599D02*
X24000757Y26382599D01*
%TO.N,/Front/LCD_LED*%
X18377000Y27987468D02*
X18377000Y28019737D01*
X19652600Y30086000D02*
X20842000Y30086000D01*
X20492000Y27236000D02*
X19128468Y27236000D01*
X15660737Y30736000D02*
X14172786Y30736000D01*
X11526187Y33382599D02*
X7692000Y33382599D01*
X21592000Y28336000D02*
X20492000Y27236000D01*
X21592000Y29336000D02*
X21592000Y28336000D01*
X18377000Y28019737D02*
X15660737Y30736000D01*
X19128468Y27236000D02*
X18377000Y27987468D01*
X20842000Y30086000D02*
X21592000Y29336000D01*
%TO.N,Net-(J3-Pin_21)*%
X26200757Y25532599D02*
X25829957Y25903399D01*
%TO.N,/Front/A_T*%
X18892958Y25436000D02*
X12446359Y31882599D01*
%TO.N,/Front/MISO*%
X38264758Y28702598D02*
X39884757Y27082599D01*
D28*
%TO.N,/Front/VDD*%
X31044765Y30222591D02*
X43178591Y30222591D01*
%TO.N,Net-(C12-Pad2)*%
X21592000Y22036000D02*
X22079500Y21548500D01*
D27*
%TO.N,/Front/LCD_CS*%
X16916388Y33852599D02*
X16916388Y34016968D01*
X15165671Y34482599D02*
X13265671Y36382599D01*
X26300757Y33572599D02*
X26110757Y33382599D01*
D28*
%TO.N,/Front/VDD*%
X26229957Y34382599D02*
X26884757Y34382599D01*
D27*
X55781405Y24801215D02*
X55781405Y34513715D01*
%TO.N,Net-(J4-DAT2)*%
X51753373Y32701215D02*
X53868905Y32701215D01*
%TO.N,/Front/VDD*%
X55781405Y34513715D02*
X55868905Y34601215D01*
D28*
X24650757Y37682599D02*
X26229957Y36103399D01*
D27*
X55868905Y36501215D02*
X55868905Y38512496D01*
%TO.N,/Front/LED_RETURN*%
X6345401Y36882599D02*
X7692000Y36882599D01*
%TO.N,/Front/A_T*%
X20492000Y25236000D02*
X20292000Y25436000D01*
%TO.N,/Front/VDD*%
X23292000Y35191356D02*
X23292000Y36973842D01*
D28*
X18200757Y34626843D02*
X19091600Y33736000D01*
D27*
X26209157Y34882599D02*
X26229957Y34903399D01*
D28*
X26229957Y36103399D02*
X26229957Y35232599D01*
X26884757Y34382599D02*
X31044765Y30222591D01*
X64192000Y40136000D02*
X66692000Y42636000D01*
X18200757Y36982599D02*
X18200757Y34626843D01*
D27*
%TO.N,/Front/LED_RETURN*%
X6092000Y38736000D02*
X6092000Y37136000D01*
%TO.N,/Front/CK*%
X27469494Y32732599D02*
X28600757Y31601336D01*
D28*
%TO.N,/Front/VDD*%
X17740757Y37442599D02*
X8192000Y37442599D01*
X26229957Y35232599D02*
X26229957Y34903399D01*
D27*
X21410800Y39736000D02*
X21992000Y39736000D01*
X24000757Y37727243D02*
X24000757Y37682599D01*
%TO.N,/Front/BUZZER*%
X53781405Y22801215D02*
X50992000Y20011810D01*
%TO.N,/Front/MISO*%
X14860630Y33787640D02*
X15924911Y33787640D01*
%TO.N,/Front/VDD*%
X23292000Y36973842D02*
X24000757Y37682599D01*
%TO.N,/Front/BUZZER*%
X10777000Y32882599D02*
X7692000Y32882599D01*
%TO.N,/Front/MISO*%
X45253599Y21697599D02*
X49292000Y25736000D01*
%TO.N,/Front/VDD*%
X21410800Y39736000D02*
X21410800Y41654800D01*
%TO.N,/Front/BUZZER*%
X53843905Y19101215D02*
X51426785Y19101215D01*
X50992000Y19836000D02*
X50992000Y19536000D01*
%TO.N,/Front/LCD_LED*%
X14172786Y30736000D02*
X11526187Y33382599D01*
%TO.N,/Front/MISO*%
X51681384Y25736000D02*
X52219757Y26274373D01*
%TO.N,/Front/VDD*%
X26079957Y35382599D02*
X26229957Y35232599D01*
%TO.N,/Front/GND*%
X62492000Y41536000D02*
X61912172Y41536000D01*
%TO.N,/Front/BUZZER*%
X11092000Y32567599D02*
X10777000Y32882599D01*
%TO.N,/Front/CK*%
X16230366Y32566968D02*
X14281302Y32566968D01*
%TO.N,/Front/BUZZER*%
X50992000Y20011810D02*
X50992000Y19536000D01*
%TO.N,/Front/VDD*%
X24700757Y34382599D02*
X26229957Y34382599D01*
%TO.N,/Front/A_T*%
X20292000Y25436000D02*
X18892958Y25436000D01*
%TO.N,/Front/LED*%
X67377000Y42919737D02*
X66975737Y43321000D01*
%TO.N,/Front/BUZZER*%
X51426785Y19101215D02*
X50992000Y19536000D01*
%TO.N,/Front/SD_CS*%
X15272920Y31881968D02*
X14186474Y31881968D01*
%TO.N,/Front/LED_RETURN*%
X61892000Y42836000D02*
X10192000Y42836000D01*
%TO.N,/Front/MISO*%
X39884757Y23423071D02*
X41610229Y21697599D01*
D28*
%TO.N,/Front/VDD*%
X55792000Y40136000D02*
X64192000Y40136000D01*
D27*
%TO.N,/Front/LED_RETURN*%
X62492000Y42636000D02*
X62092000Y42636000D01*
X10192000Y42836000D02*
X6092000Y38736000D01*
D28*
%TO.N,/Front/VDD*%
X19091600Y33736000D02*
X19491200Y33736000D01*
D27*
%TO.N,/Front/MOSI*%
X39148493Y28787601D02*
X38823496Y29112598D01*
D28*
%TO.N,/Front/VDD*%
X55792000Y40136000D02*
X55792000Y38589401D01*
D27*
%TO.N,/Front/LED_RETURN*%
X62092000Y42636000D02*
X61892000Y42836000D01*
%TO.N,/Front/VDD*%
X55868905Y38512496D02*
X55792000Y38589401D01*
X24700757Y34882599D02*
X26209157Y34882599D01*
%TO.N,/Front/GND*%
X53145401Y38589401D02*
X52034757Y37478757D01*
X36284757Y39028757D02*
X36284757Y36432599D01*
%TO.N,Net-(J3-Pin_21)*%
X19526000Y35736000D02*
X20492000Y34770000D01*
%TO.N,/Front/GND*%
X26129957Y29403399D02*
X26200757Y29332599D01*
X61137172Y42311000D02*
X39567000Y42311000D01*
%TO.N,/Front/LED*%
X9877000Y43321000D02*
X5492000Y38936000D01*
%TO.N,/Front/LCD_CS*%
X13265671Y36382599D02*
X7692000Y36382599D01*
%TO.N,/Front/SD_CS*%
X53193690Y33926000D02*
X53868905Y34601215D01*
%TO.N,/Front/MOSI*%
X14550197Y33098073D02*
X12265671Y35382599D01*
%TO.N,/Front/LED_RETURN*%
X6092000Y37136000D02*
X6345401Y36882599D01*
%TO.N,Net-(J3-Pin_20)*%
X22497356Y33736000D02*
X21491200Y33736000D01*
%TO.N,Net-(J3-Pin_5)*%
X22592000Y34536000D02*
X23245401Y33882599D01*
%TO.N,/Front/GND*%
X61912172Y41536000D02*
X61137172Y42311000D01*
%TO.N,/Front/MISO*%
X27485757Y28247599D02*
X27000757Y28732599D01*
%TO.N,/Front/GND*%
X39567000Y42311000D02*
X36284757Y39028757D01*
%TO.N,/Front/SD_CS*%
X28600757Y29332599D02*
X29773889Y28159467D01*
X27900757Y29332599D02*
X28600757Y29332599D01*
%TO.N,/Front/MOSI*%
X44192000Y26836000D02*
X44192000Y28615678D01*
%TO.N,/Front/SD_CS*%
X37884757Y27982599D02*
X37707889Y28159467D01*
%TO.N,/Front/LED*%
X67019243Y41463243D02*
X67377000Y41821000D01*
%TO.N,/Front/MOSI*%
X44192000Y26836000D02*
X44284757Y26743243D01*
%TO.N,/Front/SD_CS*%
X44986678Y27930678D02*
X45384757Y27532599D01*
%TO.N,/Front/LED*%
X66664757Y41463243D02*
X67019243Y41463243D01*
%TO.N,/Front/MOSI*%
X26914064Y30961739D02*
X26493204Y31382599D01*
X27395757Y30947599D02*
X26928204Y30947599D01*
%TO.N,/Front/SD_CS*%
X14186474Y31881968D02*
X11685843Y34382599D01*
%TO.N,/Front/MOSI*%
X53868905Y36501215D02*
X53868905Y36164747D01*
%TO.N,/Front/SD_CS*%
X51778158Y33926000D02*
X53193690Y33926000D01*
%TO.N,Net-(J3-Pin_21)*%
X24808757Y24403399D02*
X26071557Y24403399D01*
%TO.N,/Front/MOSI*%
X26928204Y30947599D02*
X26914064Y30961739D01*
%TO.N,Net-(J3-Pin_20)*%
X24000757Y26382599D02*
X24900757Y26382599D01*
%TO.N,Net-(J3-Pin_5)*%
X21461600Y37736000D02*
X20492000Y38705600D01*
%TO.N,Net-(J3-Pin_20)*%
X21491200Y35670800D02*
X21426000Y35736000D01*
%TO.N,Net-(J3-Pin_5)*%
X19792000Y41736000D02*
X19492000Y41736000D01*
%TO.N,Net-(J4-DAT1)*%
X41440402Y21287598D02*
X38784757Y23943243D01*
%TO.N,Net-(J3-Pin_20)*%
X21491200Y33736000D02*
X21491200Y35670800D01*
%TO.N,Net-(J3-Pin_5)*%
X20492000Y38705600D02*
X20492000Y41036000D01*
D28*
%TO.N,/Front/VDD*%
X26229957Y34382599D02*
X26229957Y34903399D01*
D27*
%TO.N,Net-(J3-Pin_5)*%
X22592000Y36605600D02*
X22592000Y34536000D01*
X21461600Y37736000D02*
X22592000Y36605600D01*
%TO.N,/Front/VDD*%
X55868905Y34601215D02*
X55868905Y36501215D01*
%TO.N,/Front/SD_CS*%
X37707889Y28159467D02*
X29773889Y28159467D01*
X45384757Y27532599D02*
X51778158Y33926000D01*
%TO.N,Net-(J3-Pin_5)*%
X20492000Y41036000D02*
X19792000Y41736000D01*
X23245401Y33882599D02*
X24900757Y33882599D01*
%TO.N,/Front/LCD_CS*%
X26110757Y33382599D02*
X24700757Y33382599D01*
%TO.N,Net-(J3-Pin_21)*%
X24808757Y25403399D02*
X26129957Y25403399D01*
X21527600Y31036000D02*
X22692000Y29871600D01*
X26171557Y24903399D02*
X26200757Y24932599D01*
X24808757Y24903399D02*
X26171557Y24903399D01*
%TO.N,/Front/LCD_CS*%
X16450757Y34482599D02*
X15165671Y34482599D01*
%TO.N,/Front/LCD_DC*%
X26435757Y32382599D02*
X24700757Y32382599D01*
X14016646Y31471968D02*
X11606015Y33882599D01*
X18324878Y31907636D02*
X17614210Y31196968D01*
X27600757Y31632599D02*
X27185757Y31632599D01*
X27185757Y31632599D02*
X26435757Y32382599D01*
X18324878Y32909026D02*
X18324878Y31907636D01*
X14656032Y31471968D02*
X14016646Y31471968D01*
X11606015Y33882599D02*
X7692000Y33882599D01*
%TO.N,Net-(J4-DAT1)*%
X38784757Y23943243D02*
X38784757Y26282599D01*
%TO.N,/Front/LCD_DC*%
X14931032Y31196968D02*
X14656032Y31471968D01*
%TO.N,Net-(J4-DAT1)*%
X45423426Y21287598D02*
X41440402Y21287598D01*
%TO.N,/Front/LCD_DC*%
X17614210Y31196968D02*
X14931032Y31196968D01*
%TO.N,Net-(J4-DAT1)*%
X49461828Y25326000D02*
X45423426Y21287598D01*
X53818905Y26851215D02*
X52293690Y25326000D01*
%TO.N,/Front/SD_CS*%
X11685843Y34382599D02*
X7692000Y34382599D01*
X45384757Y26282599D02*
X45384757Y27532599D01*
%TO.N,/Front/MISO*%
X27283803Y30084382D02*
X27432020Y30232599D01*
X39884757Y26282599D02*
X39884757Y23423071D01*
X27432020Y30232599D02*
X28320929Y30232599D01*
X27485757Y27648862D02*
X27485757Y28247599D01*
X27303743Y30084382D02*
X27283803Y30084382D01*
X52757215Y28801215D02*
X53818905Y28801215D01*
X28320929Y30232599D02*
X29850930Y28702598D01*
X52219757Y26274373D02*
X52219757Y28263757D01*
X14780828Y33867442D02*
X14683214Y33965056D01*
X52219757Y28263757D02*
X52757215Y28801215D01*
X14683214Y33965056D02*
X14860630Y33787640D01*
X12765671Y35882599D02*
X7692000Y35882599D01*
X14683214Y33965056D02*
X12765671Y35882599D01*
X27000757Y29781396D02*
X27303743Y30084382D01*
X41610229Y21697599D02*
X45253599Y21697599D01*
X49292000Y25736000D02*
X51681384Y25736000D01*
X29850930Y28702598D02*
X38264758Y28702598D01*
X26719494Y26882599D02*
X27485757Y27648862D01*
%TO.N,/Front/CK*%
X27100757Y32732599D02*
X27469494Y32732599D01*
X24700757Y32882599D02*
X26950757Y32882599D01*
X28600757Y31132599D02*
X30210758Y29522598D01*
X11965671Y34882599D02*
X7692000Y34882599D01*
X26950757Y32882599D02*
X27100757Y32732599D01*
X14281302Y32566968D02*
X11965671Y34882599D01*
X28600757Y31601336D02*
X28600757Y31132599D01*
X16642920Y32154414D02*
X16230366Y32566968D01*
X30210758Y29522598D02*
X39913495Y29522598D01*
%TO.N,/Front/GND*%
X36284757Y36432599D02*
X34834757Y36432599D01*
X54576785Y30751215D02*
X53831405Y30751215D01*
X54792000Y23036000D02*
X54792000Y30536000D01*
X24608757Y30403399D02*
X26129957Y30403399D01*
X4892000Y20236000D02*
X4892000Y18836000D01*
X26729957Y23903399D02*
X27000757Y23632599D01*
X24900757Y30882599D02*
X26050757Y30882599D01*
X53092000Y30636000D02*
X53207215Y30751215D01*
X26171557Y28903399D02*
X26200757Y28932599D01*
X34834757Y36432599D02*
X34784757Y36482599D01*
X26200757Y29932599D02*
X26200757Y29332599D01*
X51288599Y36432599D02*
X52034757Y36432599D01*
%TO.N,/Front/MOSI*%
X17602919Y32625081D02*
X17129927Y33098073D01*
%TO.N,Net-(J3-Pin_21)*%
X22692000Y29871600D02*
X22692000Y26336000D01*
%TO.N,/Front/MOSI*%
X51638158Y34836000D02*
X45417836Y28615678D01*
%TO.N,Net-(J3-Pin_21)*%
X21527600Y31900400D02*
X21527600Y31036000D01*
%TO.N,/Front/MOSI*%
X45417836Y28615678D02*
X44192000Y28615678D01*
%TO.N,Net-(J3-Pin_21)*%
X22692000Y26336000D02*
X23145401Y25882599D01*
%TO.N,/Front/MOSI*%
X28490756Y30642600D02*
X28151102Y30642600D01*
X26493204Y31382599D02*
X24700757Y31382599D01*
%TO.N,Net-(J3-Pin_21)*%
X20492000Y32936000D02*
X21527600Y31900400D01*
%TO.N,/Front/MOSI*%
X52540158Y34836000D02*
X51638158Y34836000D01*
%TO.N,Net-(J3-Pin_21)*%
X26071557Y24403399D02*
X26200757Y24532599D01*
%TO.N,/Front/MOSI*%
X38823496Y29112598D02*
X30020758Y29112598D01*
%TO.N,Net-(J3-Pin_21)*%
X25829957Y25903399D02*
X24808757Y25903399D01*
%TO.N,/Front/MOSI*%
X27700757Y30642599D02*
X27395757Y30947599D01*
%TO.N,Net-(J3-Pin_21)*%
X26129957Y25403399D02*
X26200757Y25332599D01*
%TO.N,/Front/MOSI*%
X12265671Y35382599D02*
X7692000Y35382599D01*
%TO.N,Net-(J3-Pin_21)*%
X23145401Y25882599D02*
X24900757Y25882599D01*
%TO.N,/Front/MOSI*%
X17602919Y32154414D02*
X17602919Y32625081D01*
%TO.N,Net-(J3-Pin_21)*%
X26200757Y25332599D02*
X26200757Y25532599D01*
%TO.N,/Front/MOSI*%
X44284757Y26282599D02*
X44284757Y26743243D01*
X53868905Y36164747D02*
X52540158Y34836000D01*
%TO.N,Net-(J3-Pin_21)*%
X26200757Y24532599D02*
X26200757Y24932599D01*
%TO.N,/Front/LCD_CS*%
X16916388Y34016968D02*
X16450757Y34482599D01*
%TD*%
%TA.AperFunction,Conductor*%
%TO.N,/Front/GND*%
G36*
X31485231Y44082751D02*
G01*
X31497234Y44072471D01*
X31703268Y43865313D01*
X31730897Y43810721D01*
X31721161Y43750315D01*
X31677779Y43707168D01*
X31633074Y43696500D01*
X9926436Y43696500D01*
X9827564Y43696500D01*
X9779813Y43683705D01*
X9779812Y43683705D01*
X9732062Y43670910D01*
X9732058Y43670908D01*
X9646436Y43621474D01*
X9646437Y43621474D01*
X5261438Y39236475D01*
X5261437Y39236475D01*
X5191524Y39166561D01*
X5142091Y39080942D01*
X5142090Y39080938D01*
X5116500Y38985435D01*
X5116500Y38985433D01*
X5116500Y33186561D01*
X5124126Y33158100D01*
X5142089Y33091063D01*
X5190571Y33007090D01*
X5190570Y33007089D01*
X5191522Y33005441D01*
X6044926Y32152037D01*
X6044925Y32152036D01*
X6114839Y32082123D01*
X6200459Y32032690D01*
X6200463Y32032688D01*
X6248213Y32019893D01*
X6248214Y32019894D01*
X6295965Y32007099D01*
X6295966Y32007099D01*
X6692500Y32007099D01*
X6750691Y31988192D01*
X6786655Y31938692D01*
X6791500Y31908099D01*
X6791500Y31707919D01*
X6802641Y31651912D01*
X6802641Y31613286D01*
X6791500Y31557278D01*
X6791500Y31519210D01*
X6772593Y31461019D01*
X6751828Y31439956D01*
X6684814Y31389790D01*
X6684807Y31389783D01*
X6598647Y31274689D01*
X6598646Y31274687D01*
X6548403Y31139980D01*
X6548401Y31139969D01*
X6542000Y31080423D01*
X6542000Y31032600D01*
X6542001Y31032599D01*
X6860401Y31032599D01*
X6915402Y31015915D01*
X6944257Y30996634D01*
X6944263Y30996632D01*
X7017315Y30982100D01*
X7017325Y30982099D01*
X7017326Y30982099D01*
X7017327Y30982099D01*
X8366673Y30982099D01*
X8366674Y30982099D01*
X8366684Y30982100D01*
X8439736Y30996632D01*
X8439740Y30996633D01*
X8439742Y30996634D01*
X8446815Y30999564D01*
X8484699Y31007099D01*
X12169986Y31007099D01*
X12228177Y30988192D01*
X12239990Y30978103D01*
X18712504Y24505587D01*
X18740281Y24451070D01*
X18741500Y24435583D01*
X18741500Y23938133D01*
X18741501Y23938129D01*
X18747908Y23878519D01*
X18747909Y23878514D01*
X18798202Y23743670D01*
X18884450Y23628458D01*
X18884458Y23628450D01*
X18999670Y23542202D01*
X19035718Y23528758D01*
X19083633Y23490708D01*
X19100031Y23431761D01*
X19078649Y23374433D01*
X19035718Y23343242D01*
X18999670Y23329797D01*
X18965446Y23304177D01*
X18884454Y23243546D01*
X18884451Y23243542D01*
X18884450Y23243541D01*
X18798202Y23128329D01*
X18747910Y22993488D01*
X18747908Y22993477D01*
X18741500Y22933870D01*
X18741500Y21938133D01*
X18741500Y21938129D01*
X18741501Y21938128D01*
X18741786Y21935475D01*
X18747908Y21878519D01*
X18747909Y21878514D01*
X18798202Y21743670D01*
X18884450Y21628458D01*
X18884455Y21628453D01*
X18969548Y21564752D01*
X19004800Y21514743D01*
X19003926Y21453564D01*
X18967258Y21404583D01*
X18910219Y21386499D01*
X18494128Y21386499D01*
X18434517Y21380091D01*
X18434514Y21380090D01*
X18299670Y21329797D01*
X18271707Y21308864D01*
X18184454Y21243546D01*
X18184451Y21243542D01*
X18184450Y21243541D01*
X18098202Y21128329D01*
X18069325Y21050904D01*
X18031275Y21002989D01*
X17976567Y20986500D01*
X16818082Y20986500D01*
X16673087Y20957658D01*
X16624875Y20937688D01*
X16536507Y20901085D01*
X16536506Y20901085D01*
X16536505Y20901084D01*
X16487270Y20868186D01*
X16413584Y20818952D01*
X15798746Y20204114D01*
X15210128Y19615496D01*
X15155611Y19587719D01*
X15140124Y19586500D01*
X12841500Y19586500D01*
X12783309Y19605407D01*
X12747345Y19654907D01*
X12742500Y19685500D01*
X12742500Y20110672D01*
X12742498Y20110684D01*
X12737895Y20133824D01*
X12727966Y20183740D01*
X12672601Y20266601D01*
X12589740Y20321966D01*
X12516674Y20336500D01*
X11267326Y20336500D01*
X11267320Y20336498D01*
X11267315Y20336498D01*
X11252390Y20333529D01*
X11194260Y20321966D01*
X11194257Y20321964D01*
X11111400Y20266602D01*
X11111397Y20266599D01*
X11056035Y20183742D01*
X11056033Y20183736D01*
X11041501Y20110684D01*
X11041500Y20110672D01*
X11041500Y17685500D01*
X11022593Y17627309D01*
X10973093Y17591345D01*
X10942500Y17586500D01*
X10243875Y17586500D01*
X10185684Y17605407D01*
X10173871Y17615496D01*
X8771496Y19017871D01*
X8743719Y19072388D01*
X8742500Y19087875D01*
X8742500Y20110672D01*
X8742498Y20110684D01*
X8737895Y20133824D01*
X8727966Y20183740D01*
X8672601Y20266601D01*
X8589740Y20321966D01*
X8516674Y20336500D01*
X7267326Y20336500D01*
X7267320Y20336498D01*
X7267315Y20336498D01*
X7252390Y20333529D01*
X7194260Y20321966D01*
X7194257Y20321964D01*
X7111400Y20266602D01*
X7111397Y20266599D01*
X7056035Y20183742D01*
X7056033Y20183736D01*
X7041501Y20110684D01*
X7041500Y20110672D01*
X7041500Y17561327D01*
X7041501Y17561315D01*
X7056033Y17488263D01*
X7056035Y17488257D01*
X7111397Y17405400D01*
X7111400Y17405397D01*
X7194257Y17350035D01*
X7194263Y17350033D01*
X7267315Y17335501D01*
X7267325Y17335500D01*
X7267326Y17335500D01*
X8290124Y17335500D01*
X8348315Y17316593D01*
X8360128Y17306504D01*
X9309049Y16357584D01*
X9309048Y16357583D01*
X9413582Y16253050D01*
X9536506Y16170915D01*
X9673085Y16114342D01*
X9818081Y16085500D01*
X9818082Y16085500D01*
X15965918Y16085500D01*
X16110914Y16114342D01*
X16247492Y16170914D01*
X16310721Y16213162D01*
X16370412Y16253045D01*
X16370416Y16253048D01*
X17173871Y17056504D01*
X17228388Y17084281D01*
X17243875Y17085500D01*
X17976567Y17085500D01*
X18034758Y17066593D01*
X18069325Y17021096D01*
X18098202Y16943670D01*
X18184450Y16828458D01*
X18184458Y16828450D01*
X18299670Y16742202D01*
X18434511Y16691910D01*
X18434522Y16691908D01*
X18473488Y16687719D01*
X18494127Y16685500D01*
X18494128Y16685500D01*
X18494129Y16685500D01*
X19414866Y16685500D01*
X19414869Y16685500D01*
X19414872Y16685501D01*
X19429229Y16687044D01*
X19474480Y16691908D01*
X19474485Y16691909D01*
X19609329Y16742202D01*
X19724541Y16828450D01*
X19724542Y16828451D01*
X19724546Y16828454D01*
X19781757Y16904878D01*
X19810797Y16943670D01*
X19861089Y17078511D01*
X19861090Y17078514D01*
X19861091Y17078517D01*
X19867500Y17138127D01*
X19867499Y18533872D01*
X19861091Y18593483D01*
X19817835Y18709458D01*
X19810797Y18728329D01*
X19810796Y18728331D01*
X19724546Y18843546D01*
X19609331Y18929796D01*
X19573279Y18943242D01*
X19525366Y18981292D01*
X19508968Y19040238D01*
X19530349Y19097566D01*
X19573280Y19128758D01*
X19597533Y19137803D01*
X19609332Y19142204D01*
X19724541Y19228450D01*
X19724542Y19228451D01*
X19724546Y19228454D01*
X19810796Y19343669D01*
X19810797Y19343670D01*
X19861089Y19478511D01*
X19861090Y19478514D01*
X19861091Y19478517D01*
X19867500Y19538127D01*
X19867499Y20933872D01*
X19861091Y20993483D01*
X19826771Y21085500D01*
X19810797Y21128329D01*
X19792916Y21152215D01*
X19724546Y21243546D01*
X19639449Y21307248D01*
X19604198Y21357255D01*
X19605072Y21418434D01*
X19641739Y21467415D01*
X19698780Y21485500D01*
X19989866Y21485500D01*
X19989869Y21485500D01*
X19989872Y21485501D01*
X20004229Y21487044D01*
X20049480Y21491908D01*
X20049485Y21491909D01*
X20184329Y21542202D01*
X20299541Y21628450D01*
X20299542Y21628451D01*
X20299546Y21628454D01*
X20308174Y21639980D01*
X20385797Y21743670D01*
X20436089Y21878511D01*
X20436090Y21878514D01*
X20436091Y21878517D01*
X20442500Y21938127D01*
X20442499Y22314454D01*
X20461406Y22372645D01*
X20471495Y22384458D01*
X20572496Y22485459D01*
X20627013Y22513236D01*
X20687445Y22503665D01*
X20730710Y22460400D01*
X20741500Y22415455D01*
X20741500Y21938133D01*
X20741500Y21938129D01*
X20741501Y21938128D01*
X20741786Y21935475D01*
X20747908Y21878519D01*
X20747909Y21878514D01*
X20798202Y21743670D01*
X20884450Y21628458D01*
X20884458Y21628450D01*
X20999670Y21542202D01*
X21134511Y21491910D01*
X21134522Y21491908D01*
X21169636Y21488133D01*
X21194127Y21485500D01*
X21335218Y21485500D01*
X21393409Y21466593D01*
X21429373Y21417093D01*
X21429373Y21355907D01*
X21394547Y21307247D01*
X21309454Y21243546D01*
X21309451Y21243542D01*
X21309450Y21243541D01*
X21223202Y21128329D01*
X21172910Y20993488D01*
X21172909Y20993483D01*
X21166911Y20937689D01*
X21166500Y20933870D01*
X21166500Y19538133D01*
X21166501Y19538129D01*
X21172908Y19478519D01*
X21172909Y19478514D01*
X21223202Y19343670D01*
X21309450Y19228458D01*
X21309458Y19228450D01*
X21424670Y19142202D01*
X21460718Y19128758D01*
X21508633Y19090708D01*
X21525031Y19031761D01*
X21503649Y18974433D01*
X21460718Y18943242D01*
X21424670Y18929797D01*
X21376188Y18893503D01*
X21309454Y18843546D01*
X21309451Y18843542D01*
X21309450Y18843541D01*
X21223202Y18728329D01*
X21172910Y18593488D01*
X21172908Y18593477D01*
X21166500Y18533872D01*
X21166500Y17138133D01*
X21166501Y17138129D01*
X21172908Y17078519D01*
X21172909Y17078514D01*
X21223202Y16943670D01*
X21309450Y16828458D01*
X21309458Y16828450D01*
X21424670Y16742202D01*
X21559511Y16691910D01*
X21559522Y16691908D01*
X21598488Y16687719D01*
X21619127Y16685500D01*
X21619128Y16685500D01*
X21619129Y16685500D01*
X22539866Y16685500D01*
X22539869Y16685500D01*
X22539872Y16685501D01*
X22554229Y16687044D01*
X22599480Y16691908D01*
X22599485Y16691909D01*
X22734329Y16742202D01*
X22849541Y16828450D01*
X22849542Y16828451D01*
X22849546Y16828454D01*
X22906757Y16904878D01*
X22935797Y16943670D01*
X22986089Y17078511D01*
X22986090Y17078514D01*
X22986091Y17078517D01*
X22992500Y17138127D01*
X22992499Y17423401D01*
X23011406Y17481591D01*
X23021495Y17493405D01*
X23038762Y17510672D01*
X42091500Y17510672D01*
X42091500Y14961327D01*
X42091501Y14961315D01*
X42106033Y14888263D01*
X42106035Y14888257D01*
X42161397Y14805400D01*
X42161400Y14805397D01*
X42244257Y14750035D01*
X42244263Y14750033D01*
X42317315Y14735501D01*
X42317325Y14735500D01*
X42317326Y14735500D01*
X42317327Y14735500D01*
X44866673Y14735500D01*
X44866674Y14735500D01*
X44866684Y14735501D01*
X44939736Y14750033D01*
X44939737Y14750033D01*
X44939740Y14750034D01*
X44939742Y14750035D01*
X45022599Y14805397D01*
X45022602Y14805400D01*
X45077964Y14888257D01*
X45077966Y14888260D01*
X45092500Y14961326D01*
X45092500Y15561500D01*
X45111407Y15619691D01*
X45160907Y15655655D01*
X45191500Y15660500D01*
X45208812Y15660500D01*
X45267003Y15641593D01*
X45290288Y15617738D01*
X45301515Y15601471D01*
X45419758Y15496718D01*
X45559635Y15423303D01*
X45713012Y15385500D01*
X45713015Y15385500D01*
X45870987Y15385500D01*
X46024364Y15423303D01*
X46094302Y15460010D01*
X46164240Y15496717D01*
X46282483Y15601470D01*
X46372220Y15731477D01*
X46428237Y15879182D01*
X46441794Y15990837D01*
X46447278Y16035998D01*
X46447278Y16036001D01*
X46437766Y16114342D01*
X46428237Y16192818D01*
X46372220Y16340523D01*
X46282483Y16470530D01*
X46164240Y16575283D01*
X46024365Y16648696D01*
X45870985Y16686500D01*
X45713015Y16686500D01*
X45559635Y16648696D01*
X45419760Y16575283D01*
X45346635Y16510500D01*
X45301515Y16470528D01*
X45290288Y16454262D01*
X45241672Y16417112D01*
X45208812Y16411500D01*
X45191500Y16411500D01*
X45133309Y16430407D01*
X45097345Y16479907D01*
X45092500Y16510500D01*
X45092500Y17510672D01*
X45092498Y17510684D01*
X45082427Y17561315D01*
X45077966Y17583740D01*
X45022601Y17666601D01*
X44939740Y17721966D01*
X44866674Y17736500D01*
X42317326Y17736500D01*
X42317320Y17736498D01*
X42317315Y17736498D01*
X42299808Y17733015D01*
X42244260Y17721966D01*
X42244257Y17721964D01*
X42161400Y17666602D01*
X42161397Y17666599D01*
X42106035Y17583742D01*
X42106034Y17583739D01*
X42091501Y17510684D01*
X42091500Y17510672D01*
X23038762Y17510672D01*
X23977858Y18449767D01*
X24046313Y18552216D01*
X24046313Y18552217D01*
X24075700Y18623165D01*
X24093463Y18666049D01*
X24117501Y18786894D01*
X24117501Y18910107D01*
X24117501Y18914986D01*
X24117500Y18915007D01*
X24117500Y20407271D01*
X26800257Y20407271D01*
X26800257Y18557926D01*
X26800258Y18557914D01*
X26814790Y18484862D01*
X26814792Y18484856D01*
X26870154Y18401999D01*
X26870157Y18401996D01*
X26953014Y18346634D01*
X26953020Y18346632D01*
X27026072Y18332100D01*
X27026082Y18332099D01*
X27026083Y18332099D01*
X27026084Y18332099D01*
X29275430Y18332099D01*
X29275431Y18332099D01*
X29275441Y18332100D01*
X29348493Y18346632D01*
X29348494Y18346632D01*
X29348497Y18346633D01*
X29348499Y18346634D01*
X29431356Y18401996D01*
X29431359Y18401999D01*
X29486721Y18484856D01*
X29486723Y18484859D01*
X29500121Y18552215D01*
X29501255Y18557914D01*
X29501257Y18557926D01*
X29501257Y20407271D01*
X29501255Y20407283D01*
X29486723Y20480339D01*
X29431358Y20563200D01*
X29348497Y20618565D01*
X29275431Y20633099D01*
X27026083Y20633099D01*
X27026077Y20633097D01*
X27026072Y20633097D01*
X27008565Y20629614D01*
X26953017Y20618565D01*
X26953014Y20618563D01*
X26870157Y20563201D01*
X26870154Y20563198D01*
X26814792Y20480341D01*
X26814790Y20480335D01*
X26800258Y20407283D01*
X26800257Y20407271D01*
X24117500Y20407271D01*
X24117500Y20633599D01*
X24136407Y20691790D01*
X24185907Y20727754D01*
X24216500Y20732599D01*
X24750756Y20732599D01*
X24750757Y20732600D01*
X24750757Y21232598D01*
X25050757Y21232598D01*
X25050757Y20732600D01*
X25050758Y20732599D01*
X25598581Y20732599D01*
X25658127Y20739000D01*
X25658138Y20739002D01*
X25792845Y20789245D01*
X25792847Y20789246D01*
X25907941Y20875406D01*
X25907949Y20875414D01*
X25994109Y20990508D01*
X25994110Y20990510D01*
X26044353Y21125217D01*
X26044355Y21125228D01*
X26050757Y21184774D01*
X26050757Y21232598D01*
X26050756Y21232599D01*
X25050758Y21232599D01*
X25050757Y21232598D01*
X24750757Y21232598D01*
X24750757Y21283599D01*
X24769664Y21341790D01*
X24819164Y21377754D01*
X24849757Y21382599D01*
X24900756Y21382599D01*
X24900757Y21382600D01*
X24900757Y21383099D01*
X24919664Y21441290D01*
X24969164Y21477254D01*
X24999757Y21482099D01*
X25575430Y21482099D01*
X25575431Y21482099D01*
X25575441Y21482100D01*
X25648493Y21496632D01*
X25648494Y21496632D01*
X25648497Y21496633D01*
X25648499Y21496634D01*
X25677355Y21515915D01*
X25732356Y21532599D01*
X26050756Y21532599D01*
X26050757Y21532600D01*
X26050757Y21580423D01*
X26044355Y21639969D01*
X26044353Y21639980D01*
X25994110Y21774687D01*
X25994109Y21774689D01*
X25907949Y21889783D01*
X25907942Y21889790D01*
X25840929Y21939956D01*
X25805675Y21989965D01*
X25801257Y22019210D01*
X25801257Y22057271D01*
X25801257Y22057273D01*
X25790115Y22113286D01*
X25790115Y22151911D01*
X25801257Y22207925D01*
X25801257Y22557273D01*
X25790115Y22613286D01*
X25790115Y22651911D01*
X25801257Y22707925D01*
X25801257Y23057273D01*
X25790115Y23113286D01*
X25790115Y23151911D01*
X25801257Y23207925D01*
X25801257Y23245986D01*
X25820164Y23304177D01*
X25840927Y23325239D01*
X25907944Y23375409D01*
X25907949Y23375414D01*
X25994109Y23490508D01*
X25994110Y23490510D01*
X26044353Y23625217D01*
X26044355Y23625228D01*
X26050757Y23684774D01*
X26050757Y23732598D01*
X26050756Y23732599D01*
X25732356Y23732599D01*
X25677355Y23749283D01*
X25673715Y23751715D01*
X25648497Y23768565D01*
X25575431Y23783099D01*
X24226083Y23783099D01*
X24226077Y23783097D01*
X24226072Y23783097D01*
X24208565Y23779614D01*
X24153017Y23768565D01*
X24153014Y23768563D01*
X24124159Y23749283D01*
X24069158Y23732599D01*
X23750758Y23732599D01*
X23750757Y23732598D01*
X23750757Y23700840D01*
X23731850Y23642649D01*
X23682350Y23606685D01*
X23621164Y23606685D01*
X23581756Y23630833D01*
X22471494Y24741094D01*
X22443718Y24795611D01*
X22442499Y24811098D01*
X22442499Y24933867D01*
X22442499Y24933872D01*
X22436091Y24993483D01*
X22401585Y25085999D01*
X22385797Y25128329D01*
X22385796Y25128331D01*
X22299546Y25243546D01*
X22184331Y25329796D01*
X22184329Y25329796D01*
X22184329Y25329797D01*
X22049488Y25380089D01*
X22049483Y25380091D01*
X21989873Y25386500D01*
X21194128Y25386499D01*
X21134517Y25380091D01*
X21134514Y25380090D01*
X20999670Y25329797D01*
X20996778Y25327632D01*
X20993923Y25326659D01*
X20993456Y25326404D01*
X20993411Y25326484D01*
X20938863Y25307895D01*
X20880408Y25325969D01*
X20843741Y25374951D01*
X20841952Y25380836D01*
X20841912Y25380933D01*
X20841911Y25380937D01*
X20792475Y25466563D01*
X20522563Y25736474D01*
X20522562Y25736475D01*
X20436938Y25785910D01*
X20389186Y25798705D01*
X20341436Y25811500D01*
X19089504Y25811500D01*
X19031313Y25830407D01*
X19019500Y25840496D01*
X16866323Y27993673D01*
X14668498Y30191496D01*
X14640722Y30246013D01*
X14650293Y30306445D01*
X14693558Y30349710D01*
X14738503Y30360500D01*
X15464192Y30360500D01*
X15522383Y30341593D01*
X15534196Y30331504D01*
X18023229Y27842469D01*
X18038960Y27821967D01*
X18072913Y27763162D01*
X18072915Y27763160D01*
X18076525Y27756906D01*
X18827993Y27005438D01*
X18827992Y27005437D01*
X18897906Y26935524D01*
X18983527Y26886091D01*
X18983532Y26886088D01*
X18994452Y26883162D01*
X18994453Y26883163D01*
X19036743Y26871831D01*
X19079032Y26860500D01*
X19079033Y26860500D01*
X20541435Y26860500D01*
X20541436Y26860500D01*
X20575758Y26869696D01*
X20626008Y26883161D01*
X20626010Y26883162D01*
X20626014Y26883163D01*
X20636938Y26886090D01*
X20636940Y26886091D01*
X20722561Y26935524D01*
X20792475Y27005437D01*
X20792475Y27005438D01*
X21143541Y27356504D01*
X21198058Y27384281D01*
X21213545Y27385500D01*
X21989866Y27385500D01*
X21989869Y27385500D01*
X21989872Y27385501D01*
X22009352Y27387595D01*
X22049480Y27391908D01*
X22049485Y27391909D01*
X22182904Y27441671D01*
X22244033Y27444291D01*
X22295028Y27410480D01*
X22316409Y27353152D01*
X22316500Y27348913D01*
X22316500Y26286560D01*
X22318553Y26278900D01*
X22342089Y26191062D01*
X22342091Y26191058D01*
X22391525Y26105437D01*
X22391525Y26105436D01*
X22391526Y26105437D01*
X22914841Y25582121D01*
X22947681Y25563162D01*
X23000462Y25532689D01*
X23000466Y25532687D01*
X23048213Y25519893D01*
X23048214Y25519894D01*
X23095965Y25507099D01*
X23095966Y25507099D01*
X23901257Y25507099D01*
X23959448Y25488192D01*
X23995412Y25438692D01*
X24000257Y25408099D01*
X24000257Y25207919D01*
X24011398Y25151912D01*
X24011398Y25113286D01*
X24000257Y25057278D01*
X24000257Y24707919D01*
X24011398Y24651912D01*
X24011398Y24613286D01*
X24000257Y24557278D01*
X24000257Y24519210D01*
X23981350Y24461019D01*
X23960585Y24439956D01*
X23893571Y24389790D01*
X23893564Y24389783D01*
X23807404Y24274689D01*
X23807403Y24274687D01*
X23757160Y24139980D01*
X23757158Y24139969D01*
X23750757Y24080423D01*
X23750757Y24032600D01*
X23750758Y24032599D01*
X24069158Y24032599D01*
X24124159Y24015915D01*
X24153014Y23996634D01*
X24153020Y23996632D01*
X24226072Y23982100D01*
X24226082Y23982099D01*
X24226083Y23982099D01*
X24226084Y23982099D01*
X25575430Y23982099D01*
X25575431Y23982099D01*
X25575441Y23982100D01*
X25648493Y23996632D01*
X25648494Y23996632D01*
X25648497Y23996633D01*
X25670322Y24011216D01*
X25725322Y24027899D01*
X26120992Y24027899D01*
X26120993Y24027899D01*
X26159343Y24038175D01*
X26175007Y24042372D01*
X26175007Y24042371D01*
X26216494Y24053488D01*
X26216498Y24053490D01*
X26302118Y24102923D01*
X26372033Y24172837D01*
X26501230Y24302035D01*
X26501305Y24302164D01*
X26550665Y24387658D01*
X26550667Y24387661D01*
X26568130Y24452835D01*
X26576257Y24483163D01*
X26576257Y24582035D01*
X26576257Y24982034D01*
X26576257Y24982035D01*
X26576257Y25382034D01*
X26576257Y25382035D01*
X26576257Y25582034D01*
X26575218Y25585910D01*
X26553607Y25666563D01*
X26550667Y25677537D01*
X26501232Y25763161D01*
X26431319Y25833074D01*
X26060520Y26203873D01*
X26060519Y26203874D01*
X25974895Y26253309D01*
X25917959Y26268565D01*
X25879393Y26278899D01*
X25879392Y26278899D01*
X25879391Y26278899D01*
X25874633Y26280174D01*
X25823319Y26313498D01*
X25801393Y26370620D01*
X25801257Y26375800D01*
X25801257Y26408099D01*
X25820164Y26466290D01*
X25869664Y26502254D01*
X25900257Y26507099D01*
X26768932Y26507099D01*
X26816678Y26519893D01*
X26816679Y26519893D01*
X26864428Y26532687D01*
X26864435Y26532690D01*
X26950055Y26582123D01*
X27019969Y26652036D01*
X27019969Y26652037D01*
X27397285Y27029353D01*
X27786232Y27418300D01*
X27786234Y27418303D01*
X27786235Y27418304D01*
X27835666Y27503920D01*
X27835666Y27503922D01*
X27835668Y27503925D01*
X27861257Y27599426D01*
X27861257Y27698298D01*
X27861257Y28297034D01*
X27859567Y28303343D01*
X27835668Y28392536D01*
X27786232Y28478161D01*
X27751295Y28513097D01*
X27723520Y28567612D01*
X27733091Y28628044D01*
X27776356Y28671309D01*
X27821301Y28682099D01*
X27979744Y28682099D01*
X28133121Y28719902D01*
X28273001Y28793318D01*
X28381406Y28889357D01*
X28437500Y28913793D01*
X28497244Y28900590D01*
X28517059Y28885259D01*
X29473414Y27928905D01*
X29473413Y27928904D01*
X29543327Y27858991D01*
X29628947Y27809558D01*
X29628951Y27809556D01*
X29676701Y27796761D01*
X29676702Y27796762D01*
X29724453Y27783967D01*
X29724454Y27783967D01*
X35422826Y27783967D01*
X35481017Y27765060D01*
X35516981Y27715560D01*
X35516981Y27654374D01*
X35511204Y27642022D01*
X35511836Y27641718D01*
X35509421Y27636702D01*
X35449881Y27466548D01*
X35449880Y27466544D01*
X35434757Y27332317D01*
X35434757Y26442480D01*
X35449880Y26308253D01*
X35489326Y26195521D01*
X36287976Y26994171D01*
X36342493Y27021948D01*
X36402925Y27012377D01*
X36427983Y26994171D01*
X36641528Y26780627D01*
X36669306Y26726110D01*
X36659735Y26665678D01*
X36641529Y26640619D01*
X35810235Y25809324D01*
X35885452Y25762063D01*
X36055607Y25702523D01*
X36055611Y25702522D01*
X36189838Y25687399D01*
X36879675Y25687399D01*
X36974173Y25698046D01*
X37034115Y25685772D01*
X37075394Y25640610D01*
X37084257Y25599668D01*
X37084257Y25257926D01*
X37084258Y25257914D01*
X37098790Y25184862D01*
X37098792Y25184856D01*
X37154154Y25101999D01*
X37154157Y25101996D01*
X37237014Y25046634D01*
X37237020Y25046632D01*
X37310072Y25032100D01*
X37310082Y25032099D01*
X37310083Y25032099D01*
X37310084Y25032099D01*
X38059430Y25032099D01*
X38059431Y25032099D01*
X38059441Y25032100D01*
X38132493Y25046632D01*
X38132494Y25046632D01*
X38132497Y25046633D01*
X38132502Y25046635D01*
X38179757Y25078209D01*
X38238645Y25094817D01*
X38289757Y25078209D01*
X38337012Y25046634D01*
X38346023Y25042903D01*
X38344678Y25039657D01*
X38382976Y25018194D01*
X38408574Y24962621D01*
X38409257Y24951016D01*
X38409257Y23893808D01*
X38420242Y23852810D01*
X38434848Y23798300D01*
X38484282Y23712680D01*
X38484282Y23712679D01*
X38484283Y23712680D01*
X41139927Y21057036D01*
X41139926Y21057035D01*
X41209840Y20987122D01*
X41295460Y20937689D01*
X41295464Y20937687D01*
X41343214Y20924892D01*
X41343215Y20924893D01*
X41390966Y20912098D01*
X41390967Y20912098D01*
X45472864Y20912098D01*
X45520610Y20924892D01*
X45520611Y20924892D01*
X45568360Y20937686D01*
X45568367Y20937689D01*
X45653987Y20987122D01*
X45723901Y21057035D01*
X45723901Y21057036D01*
X48922496Y24255630D01*
X48977013Y24283407D01*
X49037445Y24273836D01*
X49080710Y24230571D01*
X49091500Y24185626D01*
X49091500Y21961327D01*
X49091501Y21961315D01*
X49106033Y21888263D01*
X49106035Y21888257D01*
X49161397Y21805400D01*
X49161400Y21805397D01*
X49244257Y21750035D01*
X49244263Y21750033D01*
X49317315Y21735501D01*
X49317325Y21735500D01*
X49317326Y21735500D01*
X51365817Y21735500D01*
X51424008Y21716593D01*
X51459972Y21667093D01*
X51459972Y21605907D01*
X51435821Y21566496D01*
X49961438Y20092113D01*
X49961437Y20092113D01*
X49891524Y20022199D01*
X49842089Y19936576D01*
X49842090Y19936576D01*
X49842090Y19936575D01*
X49824170Y19869696D01*
X49819007Y19850429D01*
X49816500Y19841073D01*
X49816500Y17835500D01*
X49797593Y17777309D01*
X49748093Y17741345D01*
X49717500Y17736500D01*
X49317326Y17736500D01*
X49317320Y17736498D01*
X49317315Y17736498D01*
X49299808Y17733015D01*
X49244260Y17721966D01*
X49244257Y17721964D01*
X49161400Y17666602D01*
X49161397Y17666599D01*
X49106035Y17583742D01*
X49106034Y17583739D01*
X49091501Y17510684D01*
X49091500Y17510672D01*
X49091500Y14961327D01*
X49091501Y14961315D01*
X49106033Y14888263D01*
X49106035Y14888257D01*
X49161397Y14805400D01*
X49161400Y14805397D01*
X49244257Y14750035D01*
X49244263Y14750033D01*
X49317315Y14735501D01*
X49317325Y14735500D01*
X49317326Y14735500D01*
X49317327Y14735500D01*
X51866673Y14735500D01*
X51866674Y14735500D01*
X51866684Y14735501D01*
X51939736Y14750033D01*
X51939737Y14750033D01*
X51939740Y14750034D01*
X51939742Y14750035D01*
X52022599Y14805397D01*
X52022602Y14805400D01*
X52077964Y14888257D01*
X52077966Y14888260D01*
X52092500Y14961326D01*
X52092500Y16461500D01*
X52111407Y16519691D01*
X52160907Y16555655D01*
X52191500Y16560500D01*
X52472758Y16560500D01*
X52530949Y16541593D01*
X52566913Y16492093D01*
X52571758Y16461500D01*
X52571758Y16263129D01*
X52578165Y16203519D01*
X52578166Y16203514D01*
X52628459Y16068670D01*
X52714707Y15953458D01*
X52714715Y15953450D01*
X52829927Y15867202D01*
X52964768Y15816910D01*
X52964779Y15816908D01*
X53005466Y15812533D01*
X53024384Y15810500D01*
X53024385Y15810500D01*
X53024386Y15810500D01*
X53870123Y15810500D01*
X53870126Y15810500D01*
X53870129Y15810501D01*
X53884486Y15812044D01*
X53929737Y15816908D01*
X53929742Y15816909D01*
X54064586Y15867202D01*
X54179798Y15953450D01*
X54179799Y15953451D01*
X54179803Y15953454D01*
X54182053Y15956459D01*
X54184610Y15958262D01*
X54184809Y15958461D01*
X54184843Y15958426D01*
X54232061Y15991711D01*
X54293241Y15990837D01*
X54342221Y15954169D01*
X54359583Y15909062D01*
X54363210Y15879183D01*
X54363211Y15879182D01*
X54419228Y15731476D01*
X54508963Y15601471D01*
X54627206Y15496718D01*
X54767083Y15423303D01*
X54920460Y15385500D01*
X54920463Y15385500D01*
X55078435Y15385500D01*
X55231812Y15423303D01*
X55301750Y15460010D01*
X55371688Y15496717D01*
X55489931Y15601470D01*
X55579668Y15731477D01*
X55596078Y15774747D01*
X55634390Y15822451D01*
X55693426Y15838525D01*
X55723239Y15832400D01*
X55745547Y15824079D01*
X55764774Y15816909D01*
X55764776Y15816908D01*
X55764779Y15816908D01*
X55805466Y15812533D01*
X55824384Y15810500D01*
X55824385Y15810500D01*
X55824386Y15810500D01*
X56670123Y15810500D01*
X56670126Y15810500D01*
X56670129Y15810501D01*
X56684486Y15812044D01*
X56729737Y15816908D01*
X56729742Y15816909D01*
X56864586Y15867202D01*
X56979798Y15953450D01*
X56979799Y15953451D01*
X56979803Y15953454D01*
X57008442Y15991711D01*
X57066054Y16068670D01*
X57116346Y16203511D01*
X57116347Y16203514D01*
X57116348Y16203517D01*
X57122757Y16263127D01*
X57122756Y17608872D01*
X57116348Y17668483D01*
X57101683Y17707803D01*
X57099063Y17768932D01*
X57132874Y17819927D01*
X57190202Y17841308D01*
X57194441Y17841399D01*
X57393000Y17841399D01*
X57451191Y17822492D01*
X57487155Y17772992D01*
X57492000Y17742399D01*
X57492000Y14228642D01*
X57473093Y14170451D01*
X57423593Y14134487D01*
X57393000Y14129642D01*
X3388977Y14129642D01*
X3387725Y14129650D01*
X3190621Y14132142D01*
X3181538Y14132675D01*
X2788839Y14173949D01*
X2778630Y14175565D01*
X2393006Y14257532D01*
X2383023Y14260207D01*
X2008071Y14382035D01*
X1998437Y14385734D01*
X1638288Y14546082D01*
X1629064Y14550781D01*
X1287645Y14747899D01*
X1278981Y14753526D01*
X960024Y14985262D01*
X952003Y14991759D01*
X659025Y15255556D01*
X651717Y15262864D01*
X387919Y15555841D01*
X381423Y15563861D01*
X149683Y15882826D01*
X144056Y15891492D01*
X-53057Y16232903D01*
X-57756Y16242124D01*
X-62621Y16253050D01*
X-154027Y16458355D01*
X-218094Y16602254D01*
X-221808Y16611927D01*
X-248218Y16693207D01*
X1162739Y16693207D01*
X1162739Y16477870D01*
X1202306Y16266202D01*
X1207401Y16253050D01*
X1280096Y16065404D01*
X1376898Y15909062D01*
X1393456Y15882320D01*
X1538532Y15723179D01*
X1710363Y15593420D01*
X1710378Y15593411D01*
X1903130Y15497432D01*
X1903132Y15497431D01*
X1903133Y15497431D01*
X2110249Y15438501D01*
X2324668Y15418632D01*
X2539087Y15438501D01*
X2746203Y15497431D01*
X2938965Y15593415D01*
X2949633Y15601471D01*
X3110803Y15723179D01*
X3118368Y15731477D01*
X3255880Y15882320D01*
X3369240Y16065404D01*
X3447029Y16266200D01*
X3486597Y16477870D01*
X3489081Y16585539D01*
X3486597Y16693208D01*
X3447029Y16904878D01*
X3369240Y17105674D01*
X3255880Y17288758D01*
X3110808Y17447894D01*
X2991256Y17538175D01*
X3791999Y17538175D01*
X3798401Y17478629D01*
X3798403Y17478618D01*
X3848646Y17343911D01*
X3848647Y17343909D01*
X3934807Y17228815D01*
X3934815Y17228807D01*
X4049909Y17142647D01*
X4049911Y17142646D01*
X4184618Y17092403D01*
X4184629Y17092401D01*
X4244176Y17086000D01*
X4641999Y17086000D01*
X4642000Y17086001D01*
X4642000Y18585999D01*
X5142000Y18585999D01*
X5142000Y17086001D01*
X5142001Y17086000D01*
X5539824Y17086000D01*
X5599370Y17092401D01*
X5599381Y17092403D01*
X5734088Y17142646D01*
X5734090Y17142647D01*
X5849184Y17228807D01*
X5849192Y17228815D01*
X5935352Y17343909D01*
X5935353Y17343911D01*
X5985596Y17478618D01*
X5985598Y17478629D01*
X5992000Y17538175D01*
X5992000Y18585999D01*
X5991999Y18586000D01*
X5142001Y18586000D01*
X5142000Y18585999D01*
X4642000Y18585999D01*
X4641999Y18586000D01*
X3792001Y18586000D01*
X3792000Y18585999D01*
X3792000Y17538175D01*
X3791999Y17538175D01*
X2991256Y17538175D01*
X2938965Y17577663D01*
X2746203Y17673647D01*
X2539087Y17732577D01*
X2324668Y17752446D01*
X2110249Y17732577D01*
X1903133Y17673647D01*
X1710371Y17577663D01*
X1710363Y17577657D01*
X1538532Y17447898D01*
X1538529Y17447894D01*
X1538528Y17447894D01*
X1393456Y17288758D01*
X1280096Y17105674D01*
X1231547Y16980354D01*
X1202306Y16904875D01*
X1162739Y16693207D01*
X-248218Y16693207D01*
X-343628Y16986850D01*
X-346310Y16996861D01*
X-372186Y17118604D01*
X-374347Y17138568D01*
X-393039Y20133824D01*
X3792000Y20133824D01*
X3792000Y19086001D01*
X3792001Y19086000D01*
X4641999Y19086000D01*
X4642000Y19086001D01*
X4642000Y20585999D01*
X5142000Y20585999D01*
X5142000Y19086001D01*
X5142001Y19086000D01*
X5991999Y19086000D01*
X5992000Y19086001D01*
X5992000Y20133824D01*
X5985598Y20193370D01*
X5985596Y20193381D01*
X5935353Y20328088D01*
X5935352Y20328090D01*
X5849192Y20443184D01*
X5849184Y20443192D01*
X5734090Y20529352D01*
X5734088Y20529353D01*
X5599381Y20579596D01*
X5599370Y20579598D01*
X5539824Y20586000D01*
X5142001Y20586000D01*
X5142000Y20585999D01*
X4642000Y20585999D01*
X4641999Y20586000D01*
X4244176Y20586000D01*
X4184629Y20579598D01*
X4184618Y20579596D01*
X4049911Y20529353D01*
X4049909Y20529352D01*
X3934815Y20443192D01*
X3934807Y20443184D01*
X3848647Y20328090D01*
X3848646Y20328088D01*
X3798403Y20193381D01*
X3798401Y20193370D01*
X3792000Y20133824D01*
X-393039Y20133824D01*
X-405836Y22184543D01*
X2291500Y22184543D01*
X2291500Y21987456D01*
X2329949Y21794165D01*
X2329949Y21794163D01*
X2405367Y21612086D01*
X2514861Y21448218D01*
X2514864Y21448214D01*
X2654214Y21308864D01*
X2654218Y21308861D01*
X2818086Y21199367D01*
X3000164Y21123949D01*
X3193456Y21085500D01*
X3193459Y21085500D01*
X3390543Y21085500D01*
X3519403Y21111132D01*
X3583835Y21123949D01*
X3583836Y21123949D01*
X3765913Y21199367D01*
X3832031Y21243546D01*
X3929782Y21308861D01*
X4069139Y21448218D01*
X4178632Y21612086D01*
X4254051Y21794165D01*
X4292500Y21987459D01*
X4292500Y22184541D01*
X4292500Y22184543D01*
X9291500Y22184543D01*
X9291500Y21987456D01*
X9329949Y21794165D01*
X9329949Y21794163D01*
X9405367Y21612086D01*
X9514861Y21448218D01*
X9514864Y21448214D01*
X9654214Y21308864D01*
X9654218Y21308861D01*
X9818086Y21199367D01*
X10000164Y21123949D01*
X10193456Y21085500D01*
X10193459Y21085500D01*
X10390543Y21085500D01*
X10519403Y21111132D01*
X10583835Y21123949D01*
X10583836Y21123949D01*
X10765913Y21199367D01*
X10832031Y21243546D01*
X10929782Y21308861D01*
X11069139Y21448218D01*
X11178632Y21612086D01*
X11254051Y21794165D01*
X11292500Y21987459D01*
X11292500Y22184541D01*
X11254051Y22377835D01*
X11178632Y22559914D01*
X11069139Y22723782D01*
X10929782Y22863139D01*
X10765914Y22972632D01*
X10583835Y23048051D01*
X10390541Y23086500D01*
X10193459Y23086500D01*
X10000165Y23048051D01*
X9818086Y22972632D01*
X9654218Y22863139D01*
X9514861Y22723782D01*
X9441699Y22614288D01*
X9405367Y22559913D01*
X9329949Y22377836D01*
X9329949Y22377834D01*
X9291500Y22184543D01*
X4292500Y22184543D01*
X4254051Y22377835D01*
X4178632Y22559914D01*
X4069139Y22723782D01*
X3929782Y22863139D01*
X3765914Y22972632D01*
X3583835Y23048051D01*
X3390541Y23086500D01*
X3193459Y23086500D01*
X3000165Y23048051D01*
X2818086Y22972632D01*
X2654218Y22863139D01*
X2514861Y22723782D01*
X2441699Y22614288D01*
X2405367Y22559913D01*
X2329949Y22377836D01*
X2329949Y22377834D01*
X2291500Y22184543D01*
X-405836Y22184543D01*
X-417403Y24038175D01*
X11891999Y24038175D01*
X11898401Y23978629D01*
X11898403Y23978618D01*
X11948646Y23843911D01*
X11948647Y23843909D01*
X12034807Y23728815D01*
X12034815Y23728807D01*
X12149909Y23642647D01*
X12149911Y23642646D01*
X12284618Y23592403D01*
X12284629Y23592401D01*
X12344176Y23586000D01*
X12741999Y23586000D01*
X12742000Y23586001D01*
X12742000Y25085999D01*
X13242000Y25085999D01*
X13242000Y23586001D01*
X13242001Y23586000D01*
X13639824Y23586000D01*
X13699370Y23592401D01*
X13699381Y23592403D01*
X13834088Y23642646D01*
X13834090Y23642647D01*
X13949184Y23728807D01*
X13949192Y23728815D01*
X14035352Y23843909D01*
X14035353Y23843911D01*
X14085596Y23978618D01*
X14085598Y23978629D01*
X14092000Y24038175D01*
X14092000Y25085999D01*
X14091999Y25086000D01*
X13242001Y25086000D01*
X13242000Y25085999D01*
X12742000Y25085999D01*
X12741999Y25086000D01*
X11892001Y25086000D01*
X11892000Y25085999D01*
X11892000Y24038175D01*
X11891999Y24038175D01*
X-417403Y24038175D01*
X-433601Y26633824D01*
X11892000Y26633824D01*
X11892000Y25586001D01*
X11892001Y25586000D01*
X12741999Y25586000D01*
X12742000Y25586001D01*
X12742000Y27085999D01*
X13242000Y27085999D01*
X13242000Y25586001D01*
X13242001Y25586000D01*
X14091999Y25586000D01*
X14092000Y25586001D01*
X14092000Y26633824D01*
X14085598Y26693370D01*
X14085596Y26693381D01*
X14035353Y26828088D01*
X14035352Y26828090D01*
X13949192Y26943184D01*
X13949184Y26943192D01*
X13834090Y27029352D01*
X13834088Y27029353D01*
X13699381Y27079596D01*
X13699370Y27079598D01*
X13639824Y27086000D01*
X13242001Y27086000D01*
X13242000Y27085999D01*
X12742000Y27085999D01*
X12741999Y27086000D01*
X12344176Y27086000D01*
X12284629Y27079598D01*
X12284618Y27079596D01*
X12149911Y27029353D01*
X12149909Y27029352D01*
X12034815Y26943192D01*
X12034807Y26943184D01*
X11948647Y26828090D01*
X11948646Y26828088D01*
X11898403Y26693381D01*
X11898401Y26693370D01*
X11892000Y26633824D01*
X-433601Y26633824D01*
X-454028Y29907271D01*
X9591500Y29907271D01*
X9591500Y28057926D01*
X9591501Y28057914D01*
X9606033Y27984862D01*
X9606035Y27984856D01*
X9661397Y27901999D01*
X9661400Y27901996D01*
X9744257Y27846634D01*
X9744263Y27846632D01*
X9817315Y27832100D01*
X9817325Y27832099D01*
X9817326Y27832099D01*
X9817327Y27832099D01*
X12066673Y27832099D01*
X12066674Y27832099D01*
X12066684Y27832100D01*
X12139736Y27846632D01*
X12139737Y27846632D01*
X12139740Y27846633D01*
X12139742Y27846634D01*
X12222599Y27901996D01*
X12222602Y27901999D01*
X12277964Y27984856D01*
X12277966Y27984859D01*
X12292500Y28057925D01*
X12292500Y29907273D01*
X12277966Y29980339D01*
X12222601Y30063200D01*
X12139740Y30118565D01*
X12066674Y30133099D01*
X9817326Y30133099D01*
X9817320Y30133097D01*
X9817315Y30133097D01*
X9810891Y30131819D01*
X9744260Y30118565D01*
X9744257Y30118563D01*
X9661400Y30063201D01*
X9661397Y30063198D01*
X9606035Y29980341D01*
X9606033Y29980335D01*
X9591501Y29907283D01*
X9591500Y29907271D01*
X-454028Y29907271D01*
X-458880Y30684774D01*
X6541999Y30684774D01*
X6548401Y30625228D01*
X6548403Y30625217D01*
X6598646Y30490510D01*
X6598647Y30490508D01*
X6684807Y30375414D01*
X6684815Y30375406D01*
X6799909Y30289246D01*
X6799911Y30289245D01*
X6934618Y30239002D01*
X6934629Y30239000D01*
X6994176Y30232599D01*
X7541999Y30232599D01*
X7542000Y30232600D01*
X7542000Y30732598D01*
X7842000Y30732598D01*
X7842000Y30232600D01*
X7842001Y30232599D01*
X8389824Y30232599D01*
X8449370Y30239000D01*
X8449381Y30239002D01*
X8584088Y30289245D01*
X8584090Y30289246D01*
X8699184Y30375406D01*
X8699192Y30375414D01*
X8785352Y30490508D01*
X8785353Y30490510D01*
X8835596Y30625217D01*
X8835598Y30625228D01*
X8842000Y30684774D01*
X8842000Y30732598D01*
X8841999Y30732599D01*
X7842001Y30732599D01*
X7842000Y30732598D01*
X7542000Y30732598D01*
X7541999Y30732599D01*
X6542001Y30732599D01*
X6542000Y30732598D01*
X6542000Y30684774D01*
X6541999Y30684774D01*
X-458880Y30684774D01*
X-474194Y33138796D01*
X-474196Y33139414D01*
X-474196Y40238477D01*
X-474187Y40239775D01*
X-471604Y40436831D01*
X-471071Y40445881D01*
X-429798Y40838578D01*
X-428177Y40848813D01*
X-346218Y41234399D01*
X-343536Y41244409D01*
X-221719Y41619322D01*
X-218005Y41628996D01*
X-200890Y41667437D01*
X1235333Y41667437D01*
X1235333Y41455846D01*
X1274212Y41247860D01*
X1277982Y41238129D01*
X1350649Y41050555D01*
X1426248Y40928458D01*
X1462039Y40870653D01*
X1604587Y40714286D01*
X1773437Y40586777D01*
X1773446Y40586772D01*
X1962844Y40492463D01*
X1962846Y40492462D01*
X1962847Y40492462D01*
X2166361Y40434557D01*
X2377050Y40415034D01*
X2587739Y40434557D01*
X2791253Y40492462D01*
X2980661Y40586776D01*
X3149515Y40714288D01*
X3292063Y40870656D01*
X3403451Y41050555D01*
X3479887Y41247858D01*
X3518767Y41455846D01*
X3521207Y41561642D01*
X3518767Y41667438D01*
X3479887Y41875426D01*
X3403451Y42072729D01*
X3292063Y42252628D01*
X3149515Y42408996D01*
X2980661Y42536508D01*
X2791253Y42630822D01*
X2587739Y42688727D01*
X2377050Y42708250D01*
X2166361Y42688727D01*
X1962847Y42630822D01*
X1773439Y42536508D01*
X1604585Y42408996D01*
X1462037Y42252628D01*
X1350649Y42072729D01*
X1274213Y41875426D01*
X1274212Y41875423D01*
X1235333Y41667437D01*
X-200890Y41667437D01*
X-57674Y41989109D01*
X-52970Y41998342D01*
X28800Y42139973D01*
X144135Y42339739D01*
X149776Y42348425D01*
X181503Y42392093D01*
X381490Y42667353D01*
X388001Y42675392D01*
X651776Y42968343D01*
X659103Y42975670D01*
X694556Y43007592D01*
X952052Y43239443D01*
X960100Y43245961D01*
X1279027Y43477675D01*
X1287718Y43483318D01*
X1629095Y43680413D01*
X1638328Y43685118D01*
X1998449Y43845454D01*
X2008123Y43849168D01*
X2383036Y43970985D01*
X2393046Y43973667D01*
X2778632Y44055626D01*
X2788867Y44057247D01*
X3181553Y44098520D01*
X3190605Y44099054D01*
X3376599Y44101488D01*
X3387748Y44101634D01*
X3389041Y44101642D01*
X31427040Y44101658D01*
X31485231Y44082751D01*
G37*
%TD.AperFunction*%
%TA.AperFunction,Conductor*%
G36*
X55990596Y22782308D02*
G01*
X56026560Y22732808D01*
X56031405Y22702215D01*
X56031405Y21601215D01*
X56181391Y21601215D01*
X56181391Y21601216D01*
X56284092Y21611707D01*
X56284104Y21611710D01*
X56450529Y21666858D01*
X56599745Y21758895D01*
X56722996Y21882146D01*
X56777513Y21909923D01*
X56837945Y21900352D01*
X56881210Y21857087D01*
X56892000Y21812142D01*
X56892000Y20322006D01*
X56873093Y20263815D01*
X56823593Y20227851D01*
X56762407Y20227851D01*
X56712907Y20263815D01*
X56695219Y20306521D01*
X56692052Y20326514D01*
X56692051Y20326514D01*
X56692051Y20326519D01*
X56634455Y20439557D01*
X56544747Y20529265D01*
X56431709Y20586861D01*
X56337924Y20601715D01*
X55167648Y20601714D01*
X55109458Y20620621D01*
X55073494Y20670121D01*
X55072581Y20728337D01*
X55078503Y20748721D01*
X55078505Y20748728D01*
X55078701Y20751215D01*
X54093906Y20751215D01*
X54093905Y20751214D01*
X54093905Y20201216D01*
X54093906Y20201215D01*
X54497042Y20201215D01*
X54533894Y20204114D01*
X54604285Y20224565D01*
X54665440Y20222643D01*
X54713786Y20185142D01*
X54730905Y20129496D01*
X54730906Y19869699D01*
X54730906Y19869695D01*
X54745757Y19775915D01*
X54745758Y19775912D01*
X54769416Y19729481D01*
X54778987Y19669048D01*
X54751209Y19614532D01*
X54696692Y19586755D01*
X54636261Y19596326D01*
X54556709Y19636861D01*
X54462924Y19651715D01*
X53224887Y19651714D01*
X53224883Y19651714D01*
X53131105Y19636862D01*
X53131103Y19636861D01*
X53131101Y19636861D01*
X53018063Y19579265D01*
X52944507Y19505709D01*
X52889993Y19477934D01*
X52874506Y19476715D01*
X51742183Y19476715D01*
X51683992Y19495622D01*
X51648028Y19545122D01*
X51643905Y19563782D01*
X51631123Y19669048D01*
X51628237Y19692818D01*
X51572220Y19840523D01*
X51529053Y19903061D01*
X51511559Y19961686D01*
X51531866Y20019403D01*
X51540526Y20029299D01*
X52437401Y20926174D01*
X52491918Y20953951D01*
X52552350Y20944380D01*
X52595615Y20901115D01*
X52606405Y20856170D01*
X52606405Y20785578D01*
X52609304Y20748725D01*
X52655124Y20591014D01*
X52655124Y20591013D01*
X52738719Y20449662D01*
X52854852Y20333529D01*
X52996204Y20249934D01*
X53153915Y20204114D01*
X53190768Y20201215D01*
X53593904Y20201215D01*
X53593905Y20201216D01*
X53593905Y20902215D01*
X53612812Y20960406D01*
X53662312Y20996370D01*
X53692905Y21001215D01*
X53843904Y21001215D01*
X53843905Y21001216D01*
X53843905Y21152215D01*
X53862812Y21210406D01*
X53912312Y21246370D01*
X53942905Y21251215D01*
X55078701Y21251215D01*
X55078505Y21253701D01*
X55078503Y21253708D01*
X55032686Y21411413D01*
X54953303Y21545642D01*
X54939955Y21605354D01*
X54964255Y21661507D01*
X55016919Y21692654D01*
X55077833Y21686896D01*
X55090486Y21680300D01*
X55112278Y21666858D01*
X55278711Y21611708D01*
X55381418Y21601215D01*
X55531404Y21601215D01*
X55531405Y21601216D01*
X55531405Y22702215D01*
X55550312Y22760406D01*
X55599812Y22796370D01*
X55630405Y22801215D01*
X55932405Y22801215D01*
X55990596Y22782308D01*
G37*
%TD.AperFunction*%
%TA.AperFunction,Conductor*%
G36*
X52977597Y32306808D02*
G01*
X53013561Y32257308D01*
X53018406Y32226715D01*
X53018406Y32203344D01*
X53024813Y32143734D01*
X53024814Y32143729D01*
X53075108Y32008883D01*
X53092024Y31986286D01*
X53111759Y31928371D01*
X53093683Y31869917D01*
X53064742Y31842700D01*
X53025565Y31818535D01*
X52901585Y31694555D01*
X52809548Y31545339D01*
X52754398Y31378908D01*
X52743905Y31276202D01*
X52743905Y31001216D01*
X52743906Y31001215D01*
X53732405Y31001215D01*
X53790596Y30982308D01*
X53826560Y30932808D01*
X53831405Y30902215D01*
X53831405Y30600215D01*
X53812498Y30542024D01*
X53762998Y30506060D01*
X53732405Y30501215D01*
X52743907Y30501215D01*
X52743906Y30501214D01*
X52743906Y30226228D01*
X52743905Y30226228D01*
X52754397Y30123527D01*
X52754400Y30123515D01*
X52809548Y29957090D01*
X52901585Y29807874D01*
X53025562Y29683897D01*
X53030540Y29680827D01*
X53070139Y29634184D01*
X53074760Y29573174D01*
X53057818Y29537240D01*
X53030111Y29500228D01*
X53025106Y29493542D01*
X52974815Y29358703D01*
X52974813Y29358692D01*
X52968405Y29299085D01*
X52968405Y29275715D01*
X52949498Y29217524D01*
X52899998Y29181560D01*
X52869405Y29176715D01*
X52806651Y29176715D01*
X52707779Y29176715D01*
X52660028Y29163920D01*
X52660027Y29163920D01*
X52612277Y29151125D01*
X52612273Y29151123D01*
X52526651Y29101689D01*
X52526652Y29101689D01*
X51989195Y28564232D01*
X51989194Y28564232D01*
X51919281Y28494318D01*
X51869848Y28408697D01*
X51869847Y28408695D01*
X51863614Y28385436D01*
X51863615Y28385436D01*
X51847841Y28326566D01*
X51846139Y28320212D01*
X51844257Y28313191D01*
X51844257Y28175390D01*
X51825350Y28117199D01*
X51775850Y28081235D01*
X51721363Y28079317D01*
X51700193Y28084582D01*
X51700180Y28084584D01*
X51658677Y28087398D01*
X50610849Y28087398D01*
X50610823Y28087397D01*
X50569331Y28084583D01*
X50389907Y28039963D01*
X50389906Y28039962D01*
X50353701Y28022006D01*
X51241529Y27134179D01*
X51269306Y27079662D01*
X51259735Y27019230D01*
X51241529Y26994171D01*
X51027984Y26780626D01*
X50973467Y26752849D01*
X50913035Y26762420D01*
X50887976Y26780626D01*
X49967182Y27701420D01*
X49964342Y27697885D01*
X49964334Y27697873D01*
X49882195Y27532253D01*
X49882192Y27532246D01*
X49837572Y27352825D01*
X49834757Y27311329D01*
X49834757Y26463491D01*
X49834758Y26463465D01*
X49837572Y26421973D01*
X49883488Y26237343D01*
X49881717Y26236902D01*
X49883746Y26183505D01*
X49849688Y26132675D01*
X49792257Y26111571D01*
X49788498Y26111500D01*
X49341436Y26111500D01*
X49242564Y26111500D01*
X49194813Y26098705D01*
X49194812Y26098705D01*
X49147062Y26085910D01*
X49147058Y26085908D01*
X49061436Y26036474D01*
X49061437Y26036474D01*
X45261504Y22236541D01*
X45206987Y22208764D01*
X45146555Y22218335D01*
X45103290Y22261600D01*
X45092500Y22306545D01*
X45092500Y24510672D01*
X45092498Y24510684D01*
X45090096Y24522760D01*
X45077966Y24583740D01*
X45022601Y24666601D01*
X44939740Y24721966D01*
X44866674Y24736500D01*
X42317326Y24736500D01*
X42317320Y24736498D01*
X42317315Y24736498D01*
X42299808Y24733015D01*
X42244260Y24721966D01*
X42244257Y24721964D01*
X42161400Y24666602D01*
X42161397Y24666599D01*
X42106035Y24583742D01*
X42106033Y24583736D01*
X42091501Y24510684D01*
X42091500Y24510672D01*
X42091500Y22172099D01*
X42072593Y22113908D01*
X42023093Y22077944D01*
X41992500Y22073099D01*
X41806774Y22073099D01*
X41748583Y22092006D01*
X41736770Y22102095D01*
X40289253Y23549612D01*
X40261476Y23604129D01*
X40260257Y23619616D01*
X40260257Y24746045D01*
X40279164Y24804236D01*
X40328664Y24840200D01*
X40389850Y24840200D01*
X40393853Y24838803D01*
X40527375Y24789002D01*
X40527386Y24789000D01*
X40586933Y24782599D01*
X41382581Y24782599D01*
X41442127Y24789000D01*
X41442138Y24789002D01*
X41576845Y24839245D01*
X41576847Y24839246D01*
X41691941Y24925406D01*
X41691949Y24925414D01*
X41742116Y24992428D01*
X41792125Y25027681D01*
X41821369Y25032099D01*
X42459430Y25032099D01*
X42459431Y25032099D01*
X42459441Y25032100D01*
X42532493Y25046632D01*
X42532494Y25046632D01*
X42532497Y25046633D01*
X42532502Y25046635D01*
X42579757Y25078209D01*
X42638645Y25094817D01*
X42689757Y25078209D01*
X42737011Y25046635D01*
X42737020Y25046632D01*
X42810072Y25032100D01*
X42810082Y25032099D01*
X42810083Y25032099D01*
X42810084Y25032099D01*
X43559430Y25032099D01*
X43559431Y25032099D01*
X43559441Y25032100D01*
X43632493Y25046632D01*
X43632494Y25046632D01*
X43632497Y25046633D01*
X43632502Y25046635D01*
X43679757Y25078209D01*
X43738645Y25094817D01*
X43789757Y25078209D01*
X43837011Y25046635D01*
X43837020Y25046632D01*
X43910072Y25032100D01*
X43910082Y25032099D01*
X43910083Y25032099D01*
X43910084Y25032099D01*
X44659430Y25032099D01*
X44659431Y25032099D01*
X44659441Y25032100D01*
X44732493Y25046632D01*
X44732494Y25046632D01*
X44732497Y25046633D01*
X44732502Y25046635D01*
X44779757Y25078209D01*
X44838645Y25094817D01*
X44889757Y25078209D01*
X44937011Y25046635D01*
X44937020Y25046632D01*
X45010072Y25032100D01*
X45010082Y25032099D01*
X45010083Y25032099D01*
X45010084Y25032099D01*
X45759430Y25032099D01*
X45759431Y25032099D01*
X45759441Y25032100D01*
X45832493Y25046632D01*
X45832494Y25046632D01*
X45832497Y25046633D01*
X45832502Y25046635D01*
X45879757Y25078209D01*
X45938645Y25094817D01*
X45989757Y25078209D01*
X46037011Y25046635D01*
X46037020Y25046632D01*
X46110072Y25032100D01*
X46110082Y25032099D01*
X46110083Y25032099D01*
X46110084Y25032099D01*
X46859430Y25032099D01*
X46859431Y25032099D01*
X46859441Y25032100D01*
X46932493Y25046632D01*
X46932494Y25046632D01*
X46932497Y25046633D01*
X46932499Y25046634D01*
X47015356Y25101996D01*
X47015359Y25101999D01*
X47070721Y25184856D01*
X47070723Y25184859D01*
X47085257Y25257925D01*
X47085257Y27307273D01*
X47070723Y27380339D01*
X47070719Y27380343D01*
X47066991Y27389349D01*
X47069200Y27390264D01*
X47056319Y27435912D01*
X47077487Y27493318D01*
X47085239Y27502044D01*
X51879914Y32296719D01*
X51934431Y32324496D01*
X51949918Y32325715D01*
X52919406Y32325715D01*
X52977597Y32306808D01*
G37*
%TD.AperFunction*%
%TA.AperFunction,Conductor*%
G36*
X55058804Y30165380D02*
G01*
X55092906Y30120224D01*
X55125108Y30033884D01*
X55211355Y29918673D01*
X55211360Y29918668D01*
X55270692Y29874252D01*
X55305944Y29824243D01*
X55305070Y29763063D01*
X55268402Y29714083D01*
X55245959Y29702241D01*
X55226574Y29695011D01*
X55111359Y29608761D01*
X55111356Y29608757D01*
X55111355Y29608756D01*
X55025107Y29493544D01*
X54974815Y29358703D01*
X54974814Y29358698D01*
X54968405Y29299088D01*
X54968406Y28303343D01*
X54968904Y28298709D01*
X54974813Y28243734D01*
X54974814Y28243729D01*
X55025107Y28108885D01*
X55111355Y27993673D01*
X55111363Y27993665D01*
X55229179Y27905468D01*
X55264432Y27855459D01*
X55263558Y27794280D01*
X55229179Y27746962D01*
X55137160Y27678076D01*
X55111359Y27658761D01*
X55111356Y27658757D01*
X55111355Y27658756D01*
X55025107Y27543544D01*
X54974815Y27408703D01*
X54974813Y27408692D01*
X54973436Y27395880D01*
X54969203Y27356504D01*
X54968405Y27349085D01*
X54968405Y26353348D01*
X54968406Y26353344D01*
X54974813Y26293734D01*
X54974814Y26293729D01*
X55025107Y26158885D01*
X55111355Y26043673D01*
X55111363Y26043665D01*
X55226574Y25957418D01*
X55310903Y25925966D01*
X55358817Y25887916D01*
X55375215Y25828969D01*
X55353833Y25771641D01*
X55310902Y25740450D01*
X55189075Y25695012D01*
X55151074Y25666564D01*
X55073859Y25608761D01*
X55073856Y25608757D01*
X55073855Y25608756D01*
X54987607Y25493544D01*
X54937315Y25358703D01*
X54937314Y25358698D01*
X54933851Y25326484D01*
X54930905Y25299085D01*
X54930905Y24303348D01*
X54930905Y24303344D01*
X54930906Y24303343D01*
X54931047Y24302035D01*
X54937313Y24243734D01*
X54937314Y24243729D01*
X54987607Y24108885D01*
X55050830Y24024430D01*
X55070566Y23966515D01*
X55052491Y23908061D01*
X55023548Y23880841D01*
X54963064Y23843534D01*
X54839085Y23719555D01*
X54747047Y23570338D01*
X54736306Y23537925D01*
X54700054Y23488636D01*
X54641754Y23470069D01*
X54583675Y23489316D01*
X54563081Y23509735D01*
X54488951Y23608761D01*
X54373736Y23695011D01*
X54337684Y23708457D01*
X54289771Y23746507D01*
X54273373Y23805453D01*
X54294754Y23862781D01*
X54337683Y23893972D01*
X54361938Y23903018D01*
X54373737Y23907419D01*
X54488946Y23993665D01*
X54488947Y23993666D01*
X54488951Y23993669D01*
X54511979Y24024430D01*
X54575202Y24108885D01*
X54625494Y24243726D01*
X54625495Y24243729D01*
X54625496Y24243732D01*
X54631905Y24303342D01*
X54631904Y25299087D01*
X54625496Y25358698D01*
X54575201Y25493546D01*
X54488951Y25608761D01*
X54373736Y25695011D01*
X54289404Y25726464D01*
X54241493Y25764512D01*
X54225094Y25823459D01*
X54246475Y25880787D01*
X54289406Y25911979D01*
X54411235Y25957418D01*
X54526446Y26043665D01*
X54526447Y26043666D01*
X54526451Y26043669D01*
X54577229Y26111500D01*
X54612702Y26158885D01*
X54662994Y26293726D01*
X54662995Y26293729D01*
X54662996Y26293732D01*
X54669405Y26353342D01*
X54669404Y27349087D01*
X54662996Y27408698D01*
X54627479Y27503925D01*
X54612702Y27543544D01*
X54607045Y27551101D01*
X54526451Y27658761D01*
X54411236Y27745011D01*
X54408630Y27746962D01*
X54373377Y27796971D01*
X54374251Y27858150D01*
X54408630Y27905468D01*
X54526446Y27993665D01*
X54526447Y27993666D01*
X54526451Y27993669D01*
X54561107Y28039963D01*
X54612702Y28108885D01*
X54662994Y28243726D01*
X54662995Y28243729D01*
X54662996Y28243732D01*
X54669405Y28303342D01*
X54669404Y29299087D01*
X54662996Y29358698D01*
X54612701Y29493546D01*
X54587888Y29526691D01*
X54568152Y29584602D01*
X54586225Y29643057D01*
X54615169Y29670278D01*
X54637244Y29683894D01*
X54761224Y29807874D01*
X54853261Y29957090D01*
X54906173Y30116767D01*
X54942424Y30166057D01*
X55000724Y30184625D01*
X55058804Y30165380D01*
G37*
%TD.AperFunction*%
%TA.AperFunction,Conductor*%
G36*
X26223763Y30988192D02*
G01*
X26259727Y30938692D01*
X26263850Y30920032D01*
X26277826Y30804922D01*
X26277827Y30804921D01*
X26333844Y30657215D01*
X26423579Y30527210D01*
X26541821Y30422458D01*
X26541822Y30422457D01*
X26541824Y30422456D01*
X26600593Y30391611D01*
X26626313Y30378112D01*
X26669051Y30334327D01*
X26677891Y30273783D01*
X26672872Y30255349D01*
X26667505Y30241198D01*
X26648465Y30084383D01*
X26648465Y30084379D01*
X26660750Y29983195D01*
X26650980Y29933297D01*
X26653329Y29932325D01*
X26650846Y29926331D01*
X26643280Y29898099D01*
X26643281Y29898099D01*
X26625691Y29832448D01*
X26625683Y29832420D01*
X26625257Y29830834D01*
X26625257Y29830831D01*
X26625257Y28683164D01*
X26627503Y28674781D01*
X26650848Y28587656D01*
X26700282Y28502036D01*
X26700282Y28502035D01*
X26700283Y28502036D01*
X27081261Y28121058D01*
X27109038Y28066541D01*
X27110257Y28051054D01*
X27110257Y27845407D01*
X27091350Y27787216D01*
X27081261Y27775403D01*
X26592953Y27287095D01*
X26538436Y27259318D01*
X26522949Y27258099D01*
X25693456Y27258099D01*
X25655572Y27265634D01*
X25648503Y27268560D01*
X25648497Y27268565D01*
X25575431Y27283099D01*
X24999757Y27283099D01*
X24941566Y27302006D01*
X24905602Y27351506D01*
X24900757Y27382099D01*
X24900757Y27382598D01*
X24900756Y27382599D01*
X24849757Y27382599D01*
X24791566Y27401506D01*
X24755602Y27451006D01*
X24750757Y27481599D01*
X24750757Y27732598D01*
X25050757Y27732598D01*
X25050757Y27532600D01*
X25050758Y27532599D01*
X26050756Y27532599D01*
X26050757Y27532600D01*
X26050757Y27580423D01*
X26046285Y27622015D01*
X26046285Y27643183D01*
X26050757Y27684774D01*
X26050757Y27732598D01*
X26050756Y27732599D01*
X25050758Y27732599D01*
X25050757Y27732598D01*
X24750757Y27732598D01*
X24750757Y28232598D01*
X25050757Y28232598D01*
X25050757Y28032600D01*
X25050758Y28032599D01*
X26050756Y28032599D01*
X26050757Y28032600D01*
X26050757Y28080423D01*
X26046285Y28122015D01*
X26046285Y28143183D01*
X26050757Y28184774D01*
X26050757Y28232598D01*
X26050756Y28232599D01*
X25050758Y28232599D01*
X25050757Y28232598D01*
X24750757Y28232598D01*
X24750757Y28732598D01*
X25050757Y28732598D01*
X25050757Y28532600D01*
X25050758Y28532599D01*
X26050756Y28532599D01*
X26050757Y28532600D01*
X26050757Y28580423D01*
X26046285Y28622015D01*
X26046285Y28643183D01*
X26050757Y28684774D01*
X26050757Y28732598D01*
X26050756Y28732599D01*
X25050758Y28732599D01*
X25050757Y28732598D01*
X24750757Y28732598D01*
X24750757Y29232598D01*
X25050757Y29232598D01*
X25050757Y29032600D01*
X25050758Y29032599D01*
X26050756Y29032599D01*
X26050757Y29032600D01*
X26050757Y29080423D01*
X26046285Y29122015D01*
X26046285Y29143183D01*
X26050757Y29184774D01*
X26050757Y29232598D01*
X26050756Y29232599D01*
X25050758Y29232599D01*
X25050757Y29232598D01*
X24750757Y29232598D01*
X24750757Y29732598D01*
X25050757Y29732598D01*
X25050757Y29532600D01*
X25050758Y29532599D01*
X26050756Y29532599D01*
X26050757Y29532600D01*
X26050757Y29580423D01*
X26046285Y29622015D01*
X26046285Y29643183D01*
X26050757Y29684774D01*
X26050757Y29732598D01*
X26050756Y29732599D01*
X25050758Y29732599D01*
X25050757Y29732598D01*
X24750757Y29732598D01*
X24750757Y30232598D01*
X25050757Y30232598D01*
X25050757Y30032600D01*
X25050758Y30032599D01*
X26050756Y30032599D01*
X26050757Y30032600D01*
X26050757Y30080423D01*
X26046285Y30122015D01*
X26046285Y30143183D01*
X26050757Y30184774D01*
X26050757Y30232598D01*
X26050756Y30232599D01*
X25050758Y30232599D01*
X25050757Y30232598D01*
X24750757Y30232598D01*
X24750757Y30732598D01*
X25050757Y30732598D01*
X25050757Y30532600D01*
X25050758Y30532599D01*
X26050756Y30532599D01*
X26050757Y30532600D01*
X26050757Y30580423D01*
X26046285Y30622015D01*
X26046285Y30643183D01*
X26050757Y30684774D01*
X26050757Y30732598D01*
X26050756Y30732599D01*
X25050758Y30732599D01*
X25050757Y30732598D01*
X24750757Y30732598D01*
X24750757Y30783599D01*
X24769664Y30841790D01*
X24819164Y30877754D01*
X24849757Y30882599D01*
X24900756Y30882599D01*
X24900757Y30882600D01*
X24900757Y30883099D01*
X24919664Y30941290D01*
X24969164Y30977254D01*
X24999757Y30982099D01*
X25575430Y30982099D01*
X25575431Y30982099D01*
X25575441Y30982100D01*
X25648493Y30996632D01*
X25648497Y30996633D01*
X25648499Y30996634D01*
X25655572Y30999564D01*
X25693456Y31007099D01*
X26165572Y31007099D01*
X26223763Y30988192D01*
G37*
%TD.AperFunction*%
%TA.AperFunction,Conductor*%
G36*
X39963282Y28941773D02*
G01*
X40953452Y27951603D01*
X40981229Y27897086D01*
X40971658Y27836654D01*
X40928393Y27793389D01*
X40883448Y27782599D01*
X40586933Y27782599D01*
X40527386Y27776197D01*
X40527375Y27776195D01*
X40392668Y27725952D01*
X40392666Y27725951D01*
X40277572Y27639791D01*
X40277564Y27639783D01*
X40227398Y27572770D01*
X40177389Y27537517D01*
X40148145Y27533099D01*
X40006302Y27533099D01*
X39948111Y27552006D01*
X39936299Y27562095D01*
X39438372Y28060020D01*
X39410594Y28114537D01*
X39420165Y28174969D01*
X39462366Y28217683D01*
X39520733Y28248317D01*
X39638977Y28353072D01*
X39689118Y28425715D01*
X39728713Y28483078D01*
X39784730Y28630783D01*
X39795551Y28719903D01*
X39803771Y28787599D01*
X39803771Y28787602D01*
X39795000Y28859836D01*
X39806755Y28919881D01*
X39851559Y28961549D01*
X39912298Y28968925D01*
X39963282Y28941773D01*
G37*
%TD.AperFunction*%
%TA.AperFunction,Conductor*%
G36*
X19861791Y31967093D02*
G01*
X19897755Y31917593D01*
X19902600Y31887000D01*
X19902600Y31186001D01*
X19902601Y31186000D01*
X20305737Y31186000D01*
X20342589Y31188899D01*
X20412980Y31209350D01*
X20474135Y31207428D01*
X20522481Y31169927D01*
X20539600Y31114281D01*
X20539600Y30854479D01*
X20539601Y30854476D01*
X20554452Y30760700D01*
X20554453Y30760697D01*
X20578111Y30714266D01*
X20587682Y30653833D01*
X20559904Y30599317D01*
X20505387Y30571540D01*
X20444956Y30581111D01*
X20365404Y30621646D01*
X20271619Y30636500D01*
X19033582Y30636499D01*
X19033578Y30636499D01*
X18939800Y30621647D01*
X18939798Y30621646D01*
X18939796Y30621646D01*
X18826758Y30564050D01*
X18737050Y30474342D01*
X18737049Y30474340D01*
X18679454Y30361304D01*
X18664600Y30267522D01*
X18664600Y29904479D01*
X18664601Y29904476D01*
X18679452Y29810700D01*
X18679454Y29810695D01*
X18737049Y29697659D01*
X18826759Y29607949D01*
X18844583Y29598867D01*
X18887846Y29555601D01*
X18897416Y29495169D01*
X18869636Y29440653D01*
X18851608Y29426398D01*
X18773657Y29378317D01*
X18649680Y29254340D01*
X18557643Y29105124D01*
X18502493Y28938693D01*
X18492000Y28835987D01*
X18492000Y28674781D01*
X18473093Y28616590D01*
X18423593Y28580626D01*
X18362407Y28580626D01*
X18322998Y28604775D01*
X16275310Y30652464D01*
X16247533Y30706981D01*
X16257104Y30767413D01*
X16300369Y30810678D01*
X16345314Y30821468D01*
X17663648Y30821468D01*
X17711394Y30834262D01*
X17711395Y30834262D01*
X17759144Y30847056D01*
X17759151Y30847059D01*
X17844771Y30896492D01*
X17914685Y30966405D01*
X17914685Y30966406D01*
X18396069Y31447790D01*
X18450586Y31475567D01*
X18511018Y31465996D01*
X18544296Y31438467D01*
X18547412Y31434449D01*
X18663547Y31318314D01*
X18804899Y31234719D01*
X18962610Y31188899D01*
X18999463Y31186000D01*
X19402599Y31186000D01*
X19402600Y31186001D01*
X19402600Y31887000D01*
X19421507Y31945191D01*
X19471007Y31981155D01*
X19501600Y31986000D01*
X19803600Y31986000D01*
X19861791Y31967093D01*
G37*
%TD.AperFunction*%
%TA.AperFunction,Conductor*%
G36*
X50718702Y36958145D02*
G01*
X50761967Y36914880D01*
X50772757Y36869935D01*
X50772757Y35593997D01*
X50772758Y35593974D01*
X50775675Y35550958D01*
X50775676Y35550954D01*
X50780432Y35531827D01*
X50780433Y35531827D01*
X51787977Y36539371D01*
X51842494Y36567148D01*
X51902926Y36557577D01*
X51927985Y36539371D01*
X52141529Y36325827D01*
X52169306Y36271310D01*
X52159735Y36210878D01*
X52141529Y36185819D01*
X51014891Y35059180D01*
X51027119Y35043969D01*
X51027127Y35043961D01*
X51100754Y34984777D01*
X51134262Y34933583D01*
X51131279Y34872470D01*
X51108732Y34837612D01*
X45291295Y29020174D01*
X45236778Y28992397D01*
X45221291Y28991178D01*
X44775188Y28991178D01*
X44716997Y29010085D01*
X44693712Y29033940D01*
X44682484Y29050206D01*
X44682483Y29050208D01*
X44564240Y29154961D01*
X44424365Y29228374D01*
X44270985Y29266178D01*
X44113015Y29266178D01*
X43959635Y29228374D01*
X43830263Y29160473D01*
X43769953Y29150173D01*
X43715105Y29177289D01*
X43686670Y29231466D01*
X43685257Y29248134D01*
X43685257Y29980435D01*
X43704164Y30038626D01*
X43714253Y30050439D01*
X50603753Y36939939D01*
X50658270Y36967716D01*
X50718702Y36958145D01*
G37*
%TD.AperFunction*%
%TA.AperFunction,Conductor*%
G36*
X33117473Y42441593D02*
G01*
X33129475Y42431313D01*
X38150757Y37382599D01*
X38445495Y37384378D01*
X38503798Y37365822D01*
X38540060Y37316540D01*
X38540430Y37255356D01*
X38537558Y37247499D01*
X38512902Y37187973D01*
X38512902Y37187972D01*
X38512901Y37187969D01*
X38479257Y37018830D01*
X38479257Y36846367D01*
X38512902Y36677225D01*
X38512902Y36677223D01*
X38578896Y36517898D01*
X38578902Y36517886D01*
X38674712Y36374500D01*
X38674715Y36374496D01*
X38796654Y36252557D01*
X38796658Y36252554D01*
X38940044Y36156744D01*
X38940056Y36156738D01*
X39099382Y36090744D01*
X39268525Y36057099D01*
X39268528Y36057099D01*
X39440988Y36057099D01*
X39553749Y36079529D01*
X39610131Y36090744D01*
X39610132Y36090744D01*
X39769457Y36156738D01*
X39769469Y36156744D01*
X39872006Y36225259D01*
X39912856Y36252554D01*
X40034802Y36374500D01*
X40087474Y36453329D01*
X40130611Y36517886D01*
X40130617Y36517898D01*
X40190471Y36662400D01*
X40196612Y36677225D01*
X40230257Y36846370D01*
X40230257Y37018828D01*
X40196612Y37187973D01*
X40167421Y37258444D01*
X40162621Y37319437D01*
X40194590Y37371607D01*
X40251118Y37395022D01*
X40258288Y37395325D01*
X46445505Y37432689D01*
X46503809Y37414134D01*
X46540071Y37364852D01*
X46540441Y37303667D01*
X46537567Y37295806D01*
X46492902Y37187974D01*
X46492902Y37187973D01*
X46484019Y37143316D01*
X46459257Y37018830D01*
X46459257Y36846367D01*
X46492902Y36677225D01*
X46492902Y36677223D01*
X46558896Y36517898D01*
X46558902Y36517886D01*
X46654712Y36374500D01*
X46654715Y36374496D01*
X46776654Y36252557D01*
X46776658Y36252554D01*
X46920044Y36156744D01*
X46920056Y36156738D01*
X47079382Y36090744D01*
X47248525Y36057099D01*
X47248528Y36057099D01*
X47420988Y36057099D01*
X47533749Y36079529D01*
X47590131Y36090744D01*
X47590132Y36090744D01*
X47749457Y36156738D01*
X47749469Y36156744D01*
X47852006Y36225259D01*
X47892856Y36252554D01*
X48014802Y36374500D01*
X48067474Y36453329D01*
X48110611Y36517886D01*
X48110617Y36517898D01*
X48170471Y36662400D01*
X48176612Y36677225D01*
X48210257Y36846370D01*
X48210257Y37018828D01*
X48176612Y37187973D01*
X48127510Y37306513D01*
X48122710Y37367508D01*
X48154679Y37419677D01*
X48211207Y37443092D01*
X48218377Y37443395D01*
X49459472Y37450890D01*
X49517776Y37432335D01*
X49554038Y37383053D01*
X49554408Y37321868D01*
X49530074Y37281888D01*
X43000273Y30752087D01*
X42945756Y30724310D01*
X42930269Y30723091D01*
X31293087Y30723091D01*
X31234896Y30741998D01*
X31223083Y30752087D01*
X30215989Y31759181D01*
X27192071Y34783099D01*
X27077946Y34848989D01*
X27077945Y34848989D01*
X27077943Y34848991D01*
X26950649Y34883099D01*
X26950647Y34883099D01*
X26829457Y34883099D01*
X26771266Y34902006D01*
X26735302Y34951506D01*
X26730457Y34982099D01*
X26730457Y35142301D01*
X35348012Y35142301D01*
X35355333Y35130650D01*
X35355335Y35130648D01*
X35482807Y35003177D01*
X35482811Y35003173D01*
X35635454Y34907262D01*
X35805607Y34847723D01*
X35805611Y34847722D01*
X35939838Y34832599D01*
X36629675Y34832599D01*
X36763902Y34847722D01*
X36763906Y34847723D01*
X36934059Y34907262D01*
X37086701Y35003173D01*
X37214180Y35130652D01*
X37221500Y35142302D01*
X36284757Y36079046D01*
X35348012Y35142301D01*
X26730457Y35142301D01*
X26730457Y35686152D01*
X35184757Y35686152D01*
X35931203Y36432598D01*
X35931202Y36432599D01*
X36638310Y36432599D01*
X37384757Y35686152D01*
X37384757Y37179046D01*
X36638310Y36432599D01*
X35931202Y36432599D01*
X35184757Y37179044D01*
X35184757Y35686152D01*
X26730457Y35686152D01*
X26730457Y36169289D01*
X26730457Y36169291D01*
X26696349Y36296585D01*
X26683703Y36318488D01*
X26630460Y36410708D01*
X26630459Y36410708D01*
X26630457Y36410713D01*
X26537271Y36503899D01*
X24958071Y38083099D01*
X24843946Y38148989D01*
X24843945Y38148989D01*
X24843943Y38148991D01*
X24716649Y38183099D01*
X24716647Y38183099D01*
X24454320Y38183099D01*
X24396129Y38202006D01*
X24388670Y38207997D01*
X24387960Y38208625D01*
X24372997Y38221882D01*
X24233122Y38295295D01*
X24079742Y38333099D01*
X24079739Y38333099D01*
X23966946Y38333099D01*
X23908755Y38352006D01*
X23896942Y38362095D01*
X23551766Y38707271D01*
X26800257Y38707271D01*
X26800257Y36857926D01*
X26800258Y36857914D01*
X26814790Y36784862D01*
X26814792Y36784856D01*
X26870154Y36701999D01*
X26870157Y36701996D01*
X26953014Y36646634D01*
X26953020Y36646632D01*
X27026072Y36632100D01*
X27026082Y36632099D01*
X27026083Y36632099D01*
X27026084Y36632099D01*
X29275430Y36632099D01*
X29275431Y36632099D01*
X29275441Y36632100D01*
X29348493Y36646632D01*
X29348494Y36646632D01*
X29348497Y36646633D01*
X29348499Y36646634D01*
X29431356Y36701996D01*
X29431359Y36701999D01*
X29486721Y36784856D01*
X29486723Y36784859D01*
X29501257Y36857925D01*
X29501257Y37722894D01*
X35348012Y37722894D01*
X36284756Y36786151D01*
X37221500Y37722895D01*
X37214180Y37734545D01*
X37086701Y37862024D01*
X37086702Y37862024D01*
X36934059Y37957935D01*
X36763906Y38017474D01*
X36763902Y38017475D01*
X36629675Y38032598D01*
X36629673Y38032599D01*
X35939841Y38032599D01*
X35939838Y38032598D01*
X35805611Y38017475D01*
X35805607Y38017474D01*
X35635454Y37957935D01*
X35482812Y37862024D01*
X35355333Y37734545D01*
X35348012Y37722894D01*
X29501257Y37722894D01*
X29501257Y38707273D01*
X29486723Y38780339D01*
X29431358Y38863200D01*
X29348497Y38918565D01*
X29275431Y38933099D01*
X27026083Y38933099D01*
X27026077Y38933097D01*
X27026072Y38933097D01*
X27008565Y38929614D01*
X26953017Y38918565D01*
X26953014Y38918563D01*
X26870157Y38863201D01*
X26870154Y38863198D01*
X26814792Y38780341D01*
X26814790Y38780335D01*
X26800258Y38707283D01*
X26800257Y38707271D01*
X23551766Y38707271D01*
X22365295Y39893741D01*
X22337518Y39948258D01*
X22336299Y39963745D01*
X22336299Y40258867D01*
X22336299Y40258872D01*
X22329891Y40318483D01*
X22279596Y40453331D01*
X22193346Y40568546D01*
X22078131Y40654796D01*
X22078130Y40654796D01*
X22078128Y40654798D01*
X22071915Y40658191D01*
X22072593Y40659434D01*
X22030789Y40692624D01*
X22014382Y40751569D01*
X22035756Y40808899D01*
X22078692Y40840100D01*
X22084330Y40842203D01*
X22199541Y40928450D01*
X22199542Y40928451D01*
X22199546Y40928454D01*
X22285796Y41043669D01*
X22285797Y41043670D01*
X22336089Y41178511D01*
X22336090Y41178514D01*
X22336091Y41178517D01*
X22342500Y41238127D01*
X22342499Y42233872D01*
X22336091Y42293483D01*
X22323626Y42326904D01*
X22321006Y42388033D01*
X22354817Y42439028D01*
X22412145Y42460409D01*
X22416384Y42460500D01*
X33059282Y42460500D01*
X33117473Y42441593D01*
G37*
%TD.AperFunction*%
%TA.AperFunction,Conductor*%
G36*
X17520881Y36923192D02*
G01*
X17556845Y36873692D01*
X17560968Y36855033D01*
X17563341Y36835487D01*
X17564520Y36825782D01*
X17564520Y36825781D01*
X17620537Y36678075D01*
X17682733Y36587969D01*
X17700257Y36531731D01*
X17700257Y34692735D01*
X17700257Y34560951D01*
X17711258Y34519894D01*
X17734366Y34433652D01*
X17800253Y34319533D01*
X18391256Y33728530D01*
X18419033Y33674013D01*
X18409462Y33613581D01*
X18366197Y33570316D01*
X18321252Y33559526D01*
X18245893Y33559526D01*
X18092513Y33521722D01*
X17952638Y33448309D01*
X17879031Y33383099D01*
X17834393Y33343554D01*
X17818644Y33320737D01*
X17745255Y33214413D01*
X17744657Y33213547D01*
X17744189Y33212312D01*
X17743669Y33211665D01*
X17741875Y33208246D01*
X17741205Y33208597D01*
X17705874Y33164608D01*
X17646837Y33148536D01*
X17589629Y33170234D01*
X17581628Y33177407D01*
X17438296Y33320739D01*
X17410521Y33375254D01*
X17420092Y33435686D01*
X17426826Y33446979D01*
X17478417Y33521722D01*
X17496608Y33548076D01*
X17552625Y33695781D01*
X17571666Y33852599D01*
X17552625Y34009417D01*
X17496608Y34157122D01*
X17406871Y34287129D01*
X17288628Y34391882D01*
X17148753Y34465295D01*
X16995373Y34503099D01*
X16995362Y34503099D01*
X16990505Y34503689D01*
X16935016Y34529469D01*
X16932506Y34531887D01*
X16681320Y34783073D01*
X16681319Y34783074D01*
X16595695Y34832509D01*
X16547943Y34845304D01*
X16500193Y34858099D01*
X15362217Y34858099D01*
X15304026Y34877006D01*
X15292213Y34887095D01*
X13496234Y36683073D01*
X13496233Y36683074D01*
X13410609Y36732509D01*
X13393628Y36737059D01*
X13354765Y36747473D01*
X13303451Y36780797D01*
X13281525Y36837918D01*
X13297361Y36897019D01*
X13344911Y36935524D01*
X13380389Y36942099D01*
X17462690Y36942099D01*
X17520881Y36923192D01*
G37*
%TD.AperFunction*%
%TA.AperFunction,Conductor*%
G36*
X24486072Y37138235D02*
G01*
X24495960Y37129581D01*
X25021761Y36603781D01*
X25049538Y36549264D01*
X25050757Y36533777D01*
X25050757Y35981599D01*
X25031850Y35923408D01*
X24982350Y35887444D01*
X24951757Y35882599D01*
X24849757Y35882599D01*
X24791566Y35901506D01*
X24755602Y35951006D01*
X24750757Y35981599D01*
X24750757Y36532598D01*
X24750756Y36532599D01*
X24202933Y36532599D01*
X24143386Y36526197D01*
X24143375Y36526195D01*
X24008668Y36475952D01*
X24008666Y36475951D01*
X23893572Y36389791D01*
X23893564Y36389783D01*
X23845753Y36325916D01*
X23795744Y36290663D01*
X23734565Y36291537D01*
X23685584Y36328205D01*
X23667500Y36385245D01*
X23667500Y36777296D01*
X23686407Y36835487D01*
X23696496Y36847300D01*
X23852299Y37003103D01*
X23906816Y37030880D01*
X23922303Y37032099D01*
X24079744Y37032099D01*
X24233121Y37069902D01*
X24378299Y37146099D01*
X24379425Y37143951D01*
X24428357Y37158548D01*
X24486072Y37138235D01*
G37*
%TD.AperFunction*%
%TA.AperFunction,Conductor*%
G36*
X18625807Y42441593D02*
G01*
X18661771Y42392093D01*
X18661771Y42330907D01*
X18660374Y42326904D01*
X18647910Y42293488D01*
X18647909Y42293483D01*
X18643517Y42252628D01*
X18641500Y42233870D01*
X18641500Y41238133D01*
X18641501Y41238129D01*
X18647908Y41178519D01*
X18647909Y41178514D01*
X18698202Y41043670D01*
X18730869Y41000034D01*
X18750606Y40942119D01*
X18732532Y40883664D01*
X18703588Y40856444D01*
X18617459Y40803319D01*
X18493480Y40679340D01*
X18401443Y40530124D01*
X18346293Y40363693D01*
X18335800Y40260987D01*
X18335800Y39986001D01*
X18335801Y39986000D01*
X19324300Y39986000D01*
X19382491Y39967093D01*
X19418455Y39917593D01*
X19423300Y39887000D01*
X19423300Y39736001D01*
X19423301Y39736000D01*
X19574300Y39736000D01*
X19632491Y39717093D01*
X19668455Y39667593D01*
X19673300Y39637000D01*
X19673300Y39066001D01*
X19695104Y39044197D01*
X19722881Y38989680D01*
X19724100Y38974193D01*
X19724100Y37835000D01*
X19705193Y37776809D01*
X19655693Y37740845D01*
X19625100Y37736000D01*
X19474101Y37736000D01*
X19474100Y37735999D01*
X19474100Y37585000D01*
X19455193Y37526809D01*
X19405693Y37490845D01*
X19375100Y37486000D01*
X18651045Y37486000D01*
X18592854Y37504907D01*
X18585402Y37510891D01*
X18572997Y37521882D01*
X18433122Y37595295D01*
X18279742Y37633099D01*
X18279741Y37633099D01*
X18277781Y37633582D01*
X18231470Y37659699D01*
X18048071Y37843099D01*
X17933946Y37908989D01*
X17933945Y37908989D01*
X17933943Y37908991D01*
X17806649Y37943099D01*
X12121670Y37943099D01*
X12063479Y37962006D01*
X12027515Y38011506D01*
X12027515Y38072692D01*
X12063479Y38122192D01*
X12102355Y38139196D01*
X12139736Y38146632D01*
X12139737Y38146632D01*
X12139740Y38146633D01*
X12139742Y38146634D01*
X12222599Y38201996D01*
X12222602Y38201999D01*
X12277964Y38284856D01*
X12277966Y38284859D01*
X12292500Y38357925D01*
X12292500Y39211013D01*
X18335800Y39211013D01*
X18346292Y39108312D01*
X18346295Y39108300D01*
X18401443Y38941875D01*
X18493481Y38792658D01*
X18493480Y38792658D01*
X18512782Y38773356D01*
X18540557Y38718838D01*
X18530983Y38658406D01*
X18527036Y38651383D01*
X18452243Y38530124D01*
X18397093Y38363693D01*
X18386600Y38260987D01*
X18386600Y37986001D01*
X18386601Y37986000D01*
X19224099Y37986000D01*
X19224100Y37986001D01*
X19224100Y38405999D01*
X19202296Y38427803D01*
X19174519Y38482320D01*
X19173300Y38497807D01*
X19173300Y39485999D01*
X19173299Y39486000D01*
X18335802Y39486000D01*
X18335801Y39485999D01*
X18335801Y39211013D01*
X18335800Y39211013D01*
X12292500Y39211013D01*
X12292500Y40207273D01*
X12277966Y40280339D01*
X12222601Y40363200D01*
X12139740Y40418565D01*
X12066674Y40433099D01*
X9817326Y40433099D01*
X9817320Y40433097D01*
X9817315Y40433097D01*
X9799808Y40429614D01*
X9744260Y40418565D01*
X9744257Y40418563D01*
X9661400Y40363201D01*
X9661397Y40363198D01*
X9606035Y40280341D01*
X9606033Y40280335D01*
X9591501Y40207283D01*
X9591500Y40207271D01*
X9591500Y38357926D01*
X9591501Y38357914D01*
X9606033Y38284862D01*
X9606035Y38284856D01*
X9661397Y38201999D01*
X9661400Y38201996D01*
X9744257Y38146634D01*
X9744263Y38146632D01*
X9781645Y38139196D01*
X9835029Y38109299D01*
X9860644Y38053734D01*
X9848706Y37993724D01*
X9803776Y37952192D01*
X9762330Y37943099D01*
X8126108Y37943099D01*
X7998814Y37908991D01*
X7998811Y37908989D01*
X7998809Y37908989D01*
X7884690Y37843102D01*
X7884689Y37843101D01*
X7884686Y37843099D01*
X7854352Y37812765D01*
X7853681Y37812094D01*
X7799164Y37784318D01*
X7783678Y37783099D01*
X7017326Y37783099D01*
X7017320Y37783097D01*
X7017315Y37783097D01*
X6999808Y37779614D01*
X6944260Y37768565D01*
X6944257Y37768563D01*
X6861400Y37713201D01*
X6861397Y37713198D01*
X6806035Y37630341D01*
X6806033Y37630335D01*
X6791501Y37557283D01*
X6791500Y37557271D01*
X6791500Y37357099D01*
X6772593Y37298908D01*
X6723093Y37262944D01*
X6692500Y37258099D01*
X6566500Y37258099D01*
X6508309Y37277006D01*
X6472345Y37326506D01*
X6467500Y37357099D01*
X6467500Y38539455D01*
X6486407Y38597646D01*
X6496496Y38609459D01*
X10318541Y42431504D01*
X10373058Y42459281D01*
X10388545Y42460500D01*
X18567616Y42460500D01*
X18625807Y42441593D01*
G37*
%TD.AperFunction*%
%TD*%
M02*
