%TF.GenerationSoftware,KiCad,Pcbnew,8.0.9-8.0.9-0~ubuntu22.04.1*%
%TF.CreationDate,2026-01-28T22:19:24+00:00*%
%TF.ProjectId,numcalcium,6e756d63-616c-4636-9975-6d2e6b696361,rev?*%
%TF.SameCoordinates,Original*%
%TF.FileFunction,Legend,Top*%
%TF.FilePolarity,Positive*%
%FSLAX46Y46*%
G04 Gerber Fmt 4.6, Leading zero omitted, Abs format (unit mm)*
G04 Created by KiCad (PCBNEW 8.0.9-8.0.9-0~ubuntu22.04.1) date 2026-01-28 22:19:24*
%MOMM*%
%LPD*%
G01*
G04 APERTURE LIST*
%ADD10C,0.250000*%
%ADD11C,0.211666*%
%ADD12C,0.150000*%
%ADD13C,0.350000*%
%ADD14C,0.375000*%
%ADD15C,0.120000*%
G04 APERTURE END LIST*
D10*
G36*
X3417945Y25081289D02*
G01*
X1828901Y23516181D01*
X1848441Y23594827D01*
X3352000Y23600200D01*
X3352000Y23327137D01*
X1266167Y23327137D01*
X1266167Y23339838D01*
X2859117Y24888337D01*
X2845440Y24825323D01*
X1327716Y24819461D01*
X1327716Y25089593D01*
X3417945Y25089593D01*
X3417945Y25081289D01*
G37*
G36*
X3396940Y25973752D02*
G01*
X3385511Y25870746D01*
X3346974Y25773911D01*
X3300220Y25711924D01*
X3219643Y25648887D01*
X3122991Y25612914D01*
X3049627Y25603969D01*
X2192823Y25603969D01*
X2192823Y25865797D01*
X2957303Y25865797D01*
X3056623Y25888085D01*
X3110688Y25920996D01*
X3162627Y26005412D01*
X3172725Y26077311D01*
X3156595Y26174700D01*
X3115572Y26251701D01*
X3042610Y26325263D01*
X2958769Y26375288D01*
X2859550Y26408597D01*
X2756487Y26421286D01*
X2733088Y26421694D01*
X2192823Y26421694D01*
X2192823Y26683522D01*
X3352000Y26683522D01*
X3352000Y26447095D01*
X3067701Y26424625D01*
X3118015Y26437325D01*
X3203040Y26387403D01*
X3262118Y26334255D01*
X3321732Y26255218D01*
X3361281Y26174032D01*
X3388025Y26077800D01*
X3396905Y25980484D01*
X3396940Y25973752D01*
G37*
G36*
X2192823Y27367402D02*
G01*
X2453186Y27389872D01*
X2430715Y27377172D01*
X2346122Y27428024D01*
X2269243Y27498378D01*
X2222132Y27561331D01*
X2175993Y27655899D01*
X2152406Y27751034D01*
X2146417Y27834883D01*
X2156463Y27936893D01*
X2178168Y28006830D01*
X2227551Y28091361D01*
X2267073Y28132371D01*
X2353025Y28182410D01*
X2406780Y28196362D01*
X2417038Y28180731D01*
X2329317Y28239029D01*
X2257395Y28311340D01*
X2218224Y28367332D01*
X2174467Y28458351D01*
X2150905Y28553354D01*
X2146417Y28618903D01*
X2155862Y28718069D01*
X2188071Y28811504D01*
X2243137Y28888547D01*
X2323714Y28949913D01*
X2420366Y28983801D01*
X2493730Y28991129D01*
X3352000Y28991129D01*
X3352000Y28730766D01*
X2588985Y28730766D01*
X2488693Y28712638D01*
X2439508Y28687290D01*
X2382312Y28603143D01*
X2373563Y28546118D01*
X2390796Y28444123D01*
X2434623Y28364890D01*
X2504355Y28294304D01*
X2592404Y28240815D01*
X2686865Y28208264D01*
X2787980Y28193960D01*
X2801965Y28193431D01*
X3352000Y28193431D01*
X3352000Y27931603D01*
X2588985Y27931603D01*
X2488693Y27912102D01*
X2439508Y27885197D01*
X2383779Y27803522D01*
X2373563Y27741094D01*
X2390796Y27639237D01*
X2434623Y27560354D01*
X2504721Y27490623D01*
X2593870Y27437744D01*
X2689275Y27406188D01*
X2790476Y27393952D01*
X2804407Y27393780D01*
X3352000Y27393780D01*
X3352000Y27131952D01*
X2192823Y27131952D01*
X2192823Y27367402D01*
G37*
G36*
X3200569Y30994408D02*
G01*
X3250839Y30908771D01*
X3276284Y30857632D01*
X3314997Y30762988D01*
X3343461Y30668354D01*
X3347115Y30653934D01*
X3365533Y30556081D01*
X3373955Y30450649D01*
X3374470Y30399433D01*
X3369448Y30298667D01*
X3354549Y30189002D01*
X3329880Y30085199D01*
X3295442Y29987258D01*
X3290450Y29975427D01*
X3246181Y29884874D01*
X3194463Y29801282D01*
X3127375Y29715561D01*
X3068678Y29654981D01*
X2986220Y29585622D01*
X2897116Y29525923D01*
X2801366Y29475884D01*
X2745300Y29452259D01*
X2652396Y29421271D01*
X2556378Y29399136D01*
X2457246Y29385856D01*
X2355000Y29381429D01*
X2243870Y29386008D01*
X2137136Y29399747D01*
X2034798Y29422645D01*
X1936856Y29454702D01*
X1844044Y29495398D01*
X1757582Y29543728D01*
X1677471Y29599690D01*
X1603709Y29663285D01*
X1529048Y29743184D01*
X1464434Y29830656D01*
X1409865Y29925702D01*
X1383892Y29981778D01*
X1349484Y30075781D01*
X1324907Y30174119D01*
X1310161Y30276792D01*
X1305245Y30383801D01*
X1309148Y30483587D01*
X1322639Y30588115D01*
X1345765Y30685965D01*
X1354582Y30714018D01*
X1390128Y30811147D01*
X1433381Y30905784D01*
X1468887Y30969007D01*
X1723877Y30860075D01*
X1671663Y30773471D01*
X1626222Y30678503D01*
X1616898Y30656376D01*
X1586536Y30563114D01*
X1570187Y30462844D01*
X1567073Y30392106D01*
X1574057Y30293029D01*
X1595010Y30197301D01*
X1626180Y30113180D01*
X1672021Y30025863D01*
X1728945Y29945935D01*
X1790311Y29879684D01*
X1867007Y29815582D01*
X1952015Y29761638D01*
X2036508Y29721415D01*
X2135998Y29688876D01*
X2241030Y29669843D01*
X2341323Y29664262D01*
X2441453Y29669318D01*
X2546637Y29686561D01*
X2646626Y29716041D01*
X2739353Y29757008D01*
X2823422Y29808711D01*
X2892334Y29865030D01*
X2963913Y29943729D01*
X3018182Y30025405D01*
X3054512Y30099014D01*
X3087607Y30196637D01*
X3106965Y30302110D01*
X3112642Y30404806D01*
X3107100Y30507388D01*
X3088416Y30609683D01*
X3065747Y30679824D01*
X3025468Y30770291D01*
X2973583Y30857846D01*
X2958769Y30878149D01*
X3200569Y30994408D01*
G37*
G36*
X3352000Y32313320D02*
G01*
X3158869Y32313320D01*
X3188357Y32292315D01*
X3257181Y32218935D01*
X3276773Y32193152D01*
X3326423Y32108392D01*
X3350534Y32050026D01*
X3374233Y31952619D01*
X3379843Y31868309D01*
X3373022Y31768990D01*
X3349760Y31666571D01*
X3309990Y31571310D01*
X3254173Y31486486D01*
X3182772Y31414706D01*
X3104337Y31360773D01*
X3013548Y31319814D01*
X2910927Y31294026D01*
X2808454Y31283786D01*
X2772167Y31283103D01*
X2667058Y31289518D01*
X2570449Y31308760D01*
X2473076Y31345187D01*
X2437066Y31364192D01*
X2355531Y31420473D01*
X2280608Y31494613D01*
X2221155Y31581568D01*
X2178048Y31678047D01*
X2152834Y31780760D01*
X2145440Y31879545D01*
X2149535Y31929859D01*
X2360862Y31929859D01*
X2373441Y31830330D01*
X2411176Y31738861D01*
X2471382Y31660337D01*
X2551371Y31599642D01*
X2641725Y31562476D01*
X2745172Y31548065D01*
X2759955Y31547863D01*
X2861478Y31559562D01*
X2953555Y31594660D01*
X2965119Y31601108D01*
X3047184Y31663390D01*
X3110688Y31743745D01*
X3150988Y31837046D01*
X3164421Y31938163D01*
X3154219Y32035551D01*
X3128273Y32112552D01*
X3074262Y32195657D01*
X3025203Y32242001D01*
X2937529Y32292123D01*
X2867422Y32313320D01*
X2639299Y32313320D01*
X2548499Y32275334D01*
X2494707Y32235651D01*
X2429929Y32161836D01*
X2396521Y32101806D01*
X2366747Y32003482D01*
X2360862Y31929859D01*
X2149535Y31929859D01*
X2154098Y31985930D01*
X2183293Y32088032D01*
X2218713Y32155050D01*
X2283084Y32237468D01*
X2357130Y32302150D01*
X2376535Y32314522D01*
X2192823Y32334325D01*
X2192823Y32575148D01*
X3352000Y32575148D01*
X3352000Y32313320D01*
G37*
G36*
X1183613Y33023090D02*
G01*
X1183613Y33284918D01*
X3352000Y33284918D01*
X3352000Y33023090D01*
X1183613Y33023090D01*
G37*
G36*
X3244044Y34676614D02*
G01*
X3300464Y34590884D01*
X3341380Y34496760D01*
X3343695Y34490012D01*
X3368406Y34394656D01*
X3379525Y34291452D01*
X3379843Y34270682D01*
X3373893Y34167938D01*
X3353323Y34062208D01*
X3318060Y33965350D01*
X3304616Y33938023D01*
X3251379Y33854675D01*
X3179154Y33777098D01*
X3092614Y33714297D01*
X3002454Y33671793D01*
X2902944Y33645031D01*
X2805391Y33634405D01*
X2771190Y33633697D01*
X2670915Y33640459D01*
X2568562Y33663833D01*
X2475750Y33703905D01*
X2449766Y33719182D01*
X2370340Y33777905D01*
X2296965Y33854732D01*
X2238252Y33944374D01*
X2198839Y34033904D01*
X2172345Y34136795D01*
X2163587Y34234339D01*
X2163514Y34244304D01*
X2169009Y34344894D01*
X2187366Y34444409D01*
X2202593Y34493920D01*
X2242210Y34584387D01*
X2296692Y34668658D01*
X2309083Y34683941D01*
X2479564Y34553515D01*
X2427426Y34470425D01*
X2409222Y34430905D01*
X2381936Y34332445D01*
X2377471Y34266774D01*
X2390415Y34168711D01*
X2429250Y34079684D01*
X2494743Y33999683D01*
X2569934Y33945351D01*
X2664700Y33907981D01*
X2764191Y33895574D01*
X2771190Y33895525D01*
X2874383Y33908226D01*
X2969027Y33946327D01*
X3049993Y34007144D01*
X3112153Y34087011D01*
X3151354Y34183121D01*
X3164370Y34284537D01*
X3164421Y34291687D01*
X3152813Y34392869D01*
X3141951Y34429440D01*
X3096704Y34520184D01*
X3080401Y34542280D01*
X3244044Y34676614D01*
G37*
G36*
X2192823Y35010249D02*
G01*
X2192823Y35272078D01*
X3352000Y35272078D01*
X3352000Y35010249D01*
X2192823Y35010249D01*
G37*
G36*
X1784449Y34992175D02*
G01*
X1691003Y35030323D01*
X1680401Y35042001D01*
X1639894Y35131298D01*
X1638880Y35148979D01*
X1670670Y35242585D01*
X1680401Y35254492D01*
X1769146Y35300654D01*
X1784449Y35301387D01*
X1878963Y35265483D01*
X1889473Y35254492D01*
X1929384Y35163451D01*
X1930018Y35148979D01*
X1898602Y35054572D01*
X1888985Y35042001D01*
X1803616Y34993392D01*
X1784449Y34992175D01*
G37*
G36*
X3396940Y36091268D02*
G01*
X3385511Y35988262D01*
X3346974Y35891427D01*
X3300220Y35829440D01*
X3219643Y35766402D01*
X3122991Y35730430D01*
X3049627Y35721484D01*
X2192823Y35721484D01*
X2192823Y35983313D01*
X2957303Y35983313D01*
X3056623Y36005600D01*
X3110688Y36038512D01*
X3162627Y36122928D01*
X3172725Y36194827D01*
X3156595Y36292216D01*
X3115572Y36369217D01*
X3042610Y36442779D01*
X2958769Y36492803D01*
X2859550Y36526113D01*
X2756487Y36538802D01*
X2733088Y36539210D01*
X2192823Y36539210D01*
X2192823Y36801038D01*
X3352000Y36801038D01*
X3352000Y36564611D01*
X3067701Y36542140D01*
X3118015Y36554841D01*
X3203040Y36504918D01*
X3262118Y36451771D01*
X3321732Y36372734D01*
X3361281Y36291547D01*
X3388025Y36195316D01*
X3396905Y36098000D01*
X3396940Y36091268D01*
G37*
G36*
X2192823Y37484918D02*
G01*
X2453186Y37507388D01*
X2430715Y37494688D01*
X2346122Y37545540D01*
X2269243Y37615894D01*
X2222132Y37678847D01*
X2175993Y37773414D01*
X2152406Y37868550D01*
X2146417Y37952399D01*
X2156463Y38054408D01*
X2178168Y38124346D01*
X2227551Y38208877D01*
X2267073Y38249886D01*
X2353025Y38299925D01*
X2406780Y38313878D01*
X2417038Y38298247D01*
X2329317Y38356544D01*
X2257395Y38428855D01*
X2218224Y38484848D01*
X2174467Y38575867D01*
X2150905Y38670870D01*
X2146417Y38736418D01*
X2155862Y38835585D01*
X2188071Y38929020D01*
X2243137Y39006062D01*
X2323714Y39067428D01*
X2420366Y39101317D01*
X2493730Y39108644D01*
X3352000Y39108644D01*
X3352000Y38848281D01*
X2588985Y38848281D01*
X2488693Y38830154D01*
X2439508Y38804806D01*
X2382312Y38720659D01*
X2373563Y38663634D01*
X2390796Y38561639D01*
X2434623Y38482406D01*
X2504355Y38411819D01*
X2592404Y38358330D01*
X2686865Y38325780D01*
X2787980Y38311476D01*
X2801965Y38310947D01*
X3352000Y38310947D01*
X3352000Y38049119D01*
X2588985Y38049119D01*
X2488693Y38029618D01*
X2439508Y38002713D01*
X2383779Y37921038D01*
X2373563Y37858609D01*
X2390796Y37756753D01*
X2434623Y37677870D01*
X2504721Y37608138D01*
X2593870Y37555260D01*
X2689275Y37523704D01*
X2790476Y37511468D01*
X2804407Y37511296D01*
X3352000Y37511296D01*
X3352000Y37249468D01*
X2192823Y37249468D01*
X2192823Y37484918D01*
G37*
D11*
X69388630Y41536169D02*
X69421382Y41538659D01*
X69971370Y41988473D02*
X69980060Y42019076D01*
X69516618Y41555634D02*
X69547221Y41564324D01*
X70573766Y41379701D02*
X70591649Y41419256D01*
X70400278Y41135416D02*
X70429846Y41166428D01*
X70657213Y41675539D02*
X70660661Y41720888D01*
X68280573Y42196788D02*
X68942031Y42196788D01*
X69997035Y42114312D02*
X69999525Y42147064D01*
X69860155Y40878481D02*
X69904844Y40884160D01*
X69078489Y42220870D02*
X69096512Y42227976D01*
X69814806Y40875033D02*
X69860155Y40878481D01*
X69041216Y42209283D02*
X69060049Y42214631D01*
X70268121Y41026376D02*
X70303131Y41051272D01*
X69768854Y40873871D02*
X69814806Y40875033D01*
X70607638Y41459807D02*
X70621677Y41501298D01*
X69060049Y42214631D02*
X69078489Y42220870D01*
X69987262Y42050278D02*
X69992934Y42082037D01*
X70000365Y42180251D02*
X70000365Y43255121D01*
X70554046Y41341198D02*
X70573766Y41379701D01*
X69689856Y41628698D02*
X69716023Y41645473D01*
X70429846Y41166428D02*
X70457912Y41198829D01*
X68982609Y42198837D02*
X69002471Y42201361D01*
X70643681Y41586876D02*
X70651534Y41630850D01*
X70155993Y40961928D02*
X70194496Y40981648D01*
X69906996Y41845838D02*
X69922525Y41872845D01*
X70621677Y41501298D02*
X70633710Y41543673D01*
X69936768Y41900653D02*
X69949683Y41929220D01*
X70075887Y40928056D02*
X70116438Y40944045D01*
X69789072Y41702870D02*
X69811470Y41724224D01*
X70509318Y41267573D02*
X70532545Y41303803D01*
X69235805Y42326814D02*
X69248279Y42341214D01*
X69326411Y42494478D02*
X69330843Y42513679D01*
X69321063Y42475645D02*
X69326411Y42494478D01*
X69330843Y42513679D02*
X69334333Y42533223D01*
X69291005Y42404489D02*
X69299770Y42421602D01*
X69662849Y41613169D02*
X69689856Y41628698D01*
X69832824Y41746622D02*
X69853095Y41770023D01*
X69949683Y41929220D02*
X69961230Y41958507D01*
X70457912Y41198829D02*
X70484422Y41232563D01*
X70591649Y41419256D02*
X70607638Y41459807D01*
X69248279Y42341214D02*
X69260061Y42356207D01*
X70532545Y41303803D02*
X70554046Y41341198D01*
X68280573Y41535329D02*
X69355443Y41535329D01*
X69853095Y41770023D02*
X69872240Y41794386D01*
X69606474Y41586011D02*
X69635041Y41598926D01*
X69485416Y41548432D02*
X69516618Y41555634D01*
X69999525Y42147064D02*
X70000365Y42180251D01*
X69716023Y41645473D02*
X69741308Y41663454D01*
X69314824Y42457205D02*
X69321063Y42475645D01*
X69355443Y41535329D02*
X69388630Y41536169D01*
X70116438Y40944045D02*
X70155993Y40961928D01*
X69096512Y42227976D02*
X69114092Y42235924D01*
X68942031Y42196788D02*
X68962454Y42197304D01*
X70194496Y40981648D02*
X70231891Y41003149D01*
X69547221Y41564324D02*
X69577187Y41574464D01*
X69992021Y40901984D02*
X70034396Y40914017D01*
X70661823Y41766840D02*
X70661823Y43255121D01*
X69271126Y42371767D02*
X69281449Y42387869D01*
X69299770Y42421602D02*
X69307718Y42439182D01*
X69453657Y41542760D02*
X69485416Y41548432D01*
X69114092Y42235924D02*
X69131205Y42244689D01*
X70231891Y41003149D02*
X70268121Y41026376D01*
X69163927Y42264568D02*
X69179487Y42275633D01*
X69147825Y42254245D02*
X69163927Y42264568D01*
X69765671Y41682599D02*
X69789072Y41702870D01*
X69811470Y41724224D02*
X69832824Y41746622D01*
X69577187Y41574464D02*
X69606474Y41586011D01*
X70336865Y41077782D02*
X70369266Y41105848D01*
X69890221Y41819671D02*
X69906996Y41845838D01*
X69872240Y41794386D02*
X69890221Y41819671D01*
X68280573Y40873871D02*
X69768854Y40873871D01*
X69338906Y42593663D02*
X69338906Y43255121D01*
X69635041Y41598926D02*
X69662849Y41613169D01*
X69421382Y41538659D02*
X69453657Y41542760D01*
X70660661Y41720888D02*
X70661823Y41766840D01*
X70651534Y41630850D02*
X70657213Y41675539D01*
X68962454Y42197304D02*
X68982609Y42198837D01*
X70633710Y41543673D02*
X70643681Y41586876D01*
X69281449Y42387869D02*
X69291005Y42404489D01*
X69179487Y42275633D02*
X69194480Y42287415D01*
X70303131Y41051272D02*
X70336865Y41077782D01*
X69980060Y42019076D02*
X69987262Y42050278D01*
X69002471Y42201361D02*
X69022015Y42204851D01*
X69338390Y42573240D02*
X69338906Y42593663D01*
X69222664Y42313030D02*
X69235805Y42326814D01*
X69992934Y42082037D02*
X69997035Y42114312D01*
X69741308Y41663454D02*
X69765671Y41682599D01*
X69922525Y41872845D02*
X69936768Y41900653D01*
X69336857Y42553085D02*
X69338390Y42573240D01*
X70369266Y41105848D02*
X70400278Y41135416D01*
X70034396Y40914017D02*
X70075887Y40928056D01*
X69208880Y42299889D02*
X69222664Y42313030D01*
X69948818Y40892013D02*
X69992021Y40901984D01*
X69338906Y43255121D02*
X69336857Y42553085D01*
X69961230Y41958507D02*
X69971370Y41988473D01*
X69260061Y42356207D02*
X69271126Y42371767D01*
X69307718Y42439182D02*
X69314824Y42457205D01*
X69904844Y40884160D02*
X69948818Y40892013D01*
X69131205Y42244689D02*
X69147825Y42254245D01*
X69194480Y42287415D02*
X69208880Y42299889D01*
X69022015Y42204851D02*
X69041216Y42209283D01*
X69334333Y42533223D02*
X69336857Y42553085D01*
X70484422Y41232563D02*
X70509318Y41267573D01*
D12*
X62538667Y43616596D02*
X62538667Y40822596D01*
X63455467Y40430596D02*
X65655467Y40430596D01*
D13*
G36*
X63030142Y17046621D02*
G01*
X63105235Y17037418D01*
X63184186Y17019386D01*
X63255811Y16993339D01*
X63272572Y16985576D01*
X63342159Y16945367D01*
X63401720Y16896871D01*
X63451253Y16840086D01*
X63474439Y16804958D01*
X63507910Y16736005D01*
X63530428Y16660213D01*
X63541247Y16587100D01*
X63543681Y16528719D01*
X63538965Y16451739D01*
X63524817Y16374396D01*
X63515105Y16338576D01*
X63489208Y16269608D01*
X63450455Y16200474D01*
X63424979Y16165652D01*
X63372618Y16111677D01*
X63308407Y16066253D01*
X63259016Y16040722D01*
X63189565Y16015799D01*
X63110811Y16000107D01*
X63031979Y15993877D01*
X63004027Y15993461D01*
X62785674Y15993461D01*
X62785674Y15503999D01*
X62481225Y15503999D01*
X62481225Y16289483D01*
X62785674Y16289483D01*
X63001829Y16289483D01*
X63075918Y16298008D01*
X63117233Y16313664D01*
X63177286Y16359048D01*
X63189774Y16374480D01*
X63224435Y16441118D01*
X63227509Y16451050D01*
X63239233Y16520293D01*
X63231905Y16582209D01*
X63205686Y16653499D01*
X63201497Y16660977D01*
X63150675Y16715547D01*
X63131155Y16728022D01*
X63059342Y16751635D01*
X63004027Y16755499D01*
X62785674Y16755499D01*
X62785674Y16289483D01*
X62481225Y16289483D01*
X62481225Y17049689D01*
X62949439Y17049689D01*
X63030142Y17046621D01*
G37*
G36*
X64898496Y15985035D02*
G01*
X64329533Y17049689D01*
X64705423Y17049689D01*
X65104393Y16247352D01*
X65014268Y16241123D01*
X65407010Y17049689D01*
X65782900Y17049689D01*
X65202945Y15985035D01*
X65202945Y15503999D01*
X64898496Y15503999D01*
X64898496Y15985035D01*
G37*
G36*
X67391605Y17081197D02*
G01*
X67363647Y17005173D01*
X67335689Y16929187D01*
X67307731Y16853240D01*
X67279773Y16777332D01*
X67251814Y16701462D01*
X67223856Y16625631D01*
X67195898Y16549839D01*
X67167940Y16474085D01*
X67139982Y16398370D01*
X67112024Y16322694D01*
X67093385Y16272264D01*
X67065427Y16196682D01*
X67037468Y16121062D01*
X67009510Y16045403D01*
X66981552Y15969705D01*
X66953594Y15893968D01*
X66925636Y15818193D01*
X66897678Y15742379D01*
X66869719Y15666527D01*
X66841761Y15590636D01*
X66813803Y15514706D01*
X66795164Y15464065D01*
X66530283Y15464065D01*
X66558241Y15540020D01*
X66586199Y15615937D01*
X66614157Y15691815D01*
X66642116Y15767655D01*
X66670074Y15843456D01*
X66698032Y15919218D01*
X66725990Y15994942D01*
X66753948Y16070627D01*
X66781907Y16146273D01*
X66809865Y16221881D01*
X66828503Y16272264D01*
X66856462Y16347915D01*
X66884420Y16423604D01*
X66912378Y16499332D01*
X66940336Y16575099D01*
X66968294Y16650904D01*
X66996253Y16726748D01*
X67024211Y16802630D01*
X67052169Y16878551D01*
X67080127Y16954511D01*
X67108085Y17030510D01*
X67126724Y17081197D01*
X67391605Y17081197D01*
G37*
G36*
X68085133Y15503999D02*
G01*
X68782324Y17110506D01*
X68799177Y17110506D01*
X69496368Y15503999D01*
X69143559Y15503999D01*
X68698427Y16633866D01*
X68918612Y16785174D01*
X68385185Y15503999D01*
X68085133Y15503999D01*
G37*
G36*
X68561773Y16062704D02*
G01*
X69025956Y16062704D01*
X69132935Y15806249D01*
X68467251Y15806249D01*
X68561773Y16062704D01*
G37*
G36*
X70307499Y16896183D02*
G01*
X70725154Y16896183D01*
X70725154Y15503999D01*
X70418507Y15503999D01*
X70418507Y16602359D01*
X70307499Y16602359D01*
X70307499Y16896183D01*
G37*
D12*
X7227757Y41582599D02*
X56692000Y41582599D01*
X56692000Y16782599D01*
X7227757Y16782599D01*
X7227757Y41582599D01*
X62538667Y40822596D02*
X62538667Y40568596D01*
D14*
G36*
X6137000Y29435668D02*
G01*
X4528294Y29435668D01*
X4528294Y29437500D01*
X5746455Y30296624D01*
X5717146Y30166198D01*
X4528294Y31023124D01*
X4528294Y31027154D01*
X6137000Y31027154D01*
X6137000Y30722706D01*
X5215227Y30722706D01*
X5372764Y30741757D01*
X6116117Y30218955D01*
X6116117Y30214558D01*
X5372764Y29677102D01*
X5227683Y29729492D01*
X6137000Y29729492D01*
X6137000Y29435668D01*
G37*
G36*
X5446746Y33587835D02*
G01*
X5524713Y33576225D01*
X5600070Y33556877D01*
X5672816Y33529789D01*
X5742082Y33495808D01*
X5806997Y33455783D01*
X5867561Y33409713D01*
X5923775Y33357598D01*
X5974883Y33300422D01*
X6020129Y33239170D01*
X6059513Y33173843D01*
X6093036Y33104440D01*
X6119643Y33031831D01*
X6138648Y32956887D01*
X6150051Y32879607D01*
X6153852Y32799991D01*
X6150051Y32719414D01*
X6138648Y32641447D01*
X6119643Y32566090D01*
X6093036Y32493344D01*
X6059513Y32424078D01*
X6020129Y32359163D01*
X5974883Y32298599D01*
X5923775Y32242385D01*
X5867561Y32191300D01*
X5806997Y32146122D01*
X5742082Y32106853D01*
X5672816Y32073491D01*
X5600070Y32046884D01*
X5524713Y32027878D01*
X5446746Y32016475D01*
X5366169Y32012674D01*
X5287515Y32016475D01*
X5210922Y32027878D01*
X5136390Y32046884D01*
X5063919Y32073491D01*
X4994515Y32106853D01*
X4929188Y32146122D01*
X4867937Y32191300D01*
X4810761Y32242385D01*
X4758577Y32298599D01*
X4712300Y32359163D01*
X4671932Y32424078D01*
X4637471Y32493344D01*
X4609902Y32566090D01*
X4590210Y32641447D01*
X4578394Y32719414D01*
X4574456Y32799991D01*
X4574565Y32802189D01*
X4868646Y32802189D01*
X4873953Y32728687D01*
X4891678Y32653712D01*
X4906382Y32615344D01*
X4942121Y32548837D01*
X4988018Y32489224D01*
X5012628Y32464035D01*
X5071683Y32415887D01*
X5138114Y32377413D01*
X5171263Y32362919D01*
X5246909Y32339910D01*
X5321029Y32329082D01*
X5366169Y32327381D01*
X5441474Y32332533D01*
X5518752Y32349742D01*
X5558510Y32364018D01*
X5627458Y32398859D01*
X5689634Y32443254D01*
X5716047Y32466966D01*
X5766395Y32524291D01*
X5806706Y32588509D01*
X5821926Y32620473D01*
X5846359Y32693918D01*
X5857856Y32766330D01*
X5859662Y32810616D01*
X5853434Y32888452D01*
X5834750Y32961814D01*
X5821926Y32994164D01*
X5786248Y33059596D01*
X5740532Y33117772D01*
X5716047Y33142175D01*
X5656996Y33188840D01*
X5591174Y33226435D01*
X5558510Y33240727D01*
X5483641Y33263974D01*
X5410560Y33274913D01*
X5366169Y33276631D01*
X5289645Y33271479D01*
X5217242Y33256023D01*
X5171263Y33239995D01*
X5101427Y33205693D01*
X5038967Y33162321D01*
X5012628Y33139244D01*
X4962042Y33083524D01*
X4921615Y33020548D01*
X4906382Y32989035D01*
X4881950Y32916664D01*
X4869973Y32839455D01*
X4868646Y32802189D01*
X4574565Y32802189D01*
X4578394Y32879607D01*
X4590210Y32956887D01*
X4609902Y33031831D01*
X4637471Y33104440D01*
X4671932Y33173843D01*
X4712300Y33239170D01*
X4758577Y33300422D01*
X4810761Y33357598D01*
X4867937Y33409713D01*
X4929188Y33455783D01*
X4994515Y33495808D01*
X5063919Y33529789D01*
X5136390Y33556877D01*
X5210922Y33576225D01*
X5287515Y33587835D01*
X5366169Y33591704D01*
X5446746Y33587835D01*
G37*
G36*
X4591309Y34472810D02*
G01*
X4591309Y35514384D01*
X4885499Y35514384D01*
X4885499Y35138494D01*
X6137000Y35138494D01*
X6137000Y34834046D01*
X4885499Y34834046D01*
X4885499Y34472810D01*
X4591309Y34472810D01*
G37*
G36*
X4591309Y36488913D02*
G01*
X4591309Y36793362D01*
X6137000Y36793362D01*
X6137000Y36488913D01*
X4591309Y36488913D01*
G37*
G36*
X4591309Y38106778D02*
G01*
X5704323Y38558138D01*
X5668786Y38381917D01*
X4591309Y38791146D01*
X4591309Y39152381D01*
X6208441Y38446764D01*
X4591309Y37741146D01*
X4591309Y38106778D01*
G37*
D15*
%TO.C,D41*%
X62970667Y40942596D02*
X62970667Y42942596D01*
X62970667Y40942596D02*
X66170667Y40942596D01*
X63270667Y43242596D02*
X62970667Y42942596D01*
X63270667Y43242596D02*
X66170667Y43242596D01*
X66170667Y43242596D02*
X66170667Y40942596D01*
%TD*%
M02*
