%TF.GenerationSoftware,KiCad,Pcbnew,8.0.9-8.0.9-0~ubuntu22.04.1*%
%TF.CreationDate,2026-01-28T22:19:24+00:00*%
%TF.ProjectId,numcalcium,6e756d63-616c-4636-9975-6d2e6b696361,rev?*%
%TF.SameCoordinates,Original*%
%TF.FileFunction,Legend,Bot*%
%TF.FilePolarity,Positive*%
%FSLAX46Y46*%
G04 Gerber Fmt 4.6, Leading zero omitted, Abs format (unit mm)*
G04 Created by KiCad (PCBNEW 8.0.9-8.0.9-0~ubuntu22.04.1) date 2026-01-28 22:19:24*
%MOMM*%
%LPD*%
G01*
G04 APERTURE LIST*
%ADD10C,0.125000*%
%ADD11C,0.150000*%
%ADD12C,0.375000*%
%ADD13C,0.120000*%
%ADD14C,0.100000*%
G04 APERTURE END LIST*
D10*
X52367190Y24252667D02*
X52367190Y23966953D01*
X52367190Y24109810D02*
X52867190Y24109810D01*
X52867190Y24109810D02*
X52795761Y24062191D01*
X52795761Y24062191D02*
X52748142Y24014572D01*
X52748142Y24014572D02*
X52724333Y23966953D01*
X52867190Y24562190D02*
X52867190Y24609809D01*
X52867190Y24609809D02*
X52843380Y24657428D01*
X52843380Y24657428D02*
X52819571Y24681238D01*
X52819571Y24681238D02*
X52771952Y24705047D01*
X52771952Y24705047D02*
X52676714Y24728857D01*
X52676714Y24728857D02*
X52557666Y24728857D01*
X52557666Y24728857D02*
X52462428Y24705047D01*
X52462428Y24705047D02*
X52414809Y24681238D01*
X52414809Y24681238D02*
X52391000Y24657428D01*
X52391000Y24657428D02*
X52367190Y24609809D01*
X52367190Y24609809D02*
X52367190Y24562190D01*
X52367190Y24562190D02*
X52391000Y24514571D01*
X52391000Y24514571D02*
X52414809Y24490762D01*
X52414809Y24490762D02*
X52462428Y24466952D01*
X52462428Y24466952D02*
X52557666Y24443143D01*
X52557666Y24443143D02*
X52676714Y24443143D01*
X52676714Y24443143D02*
X52771952Y24466952D01*
X52771952Y24466952D02*
X52819571Y24490762D01*
X52819571Y24490762D02*
X52843380Y24514571D01*
X52843380Y24514571D02*
X52867190Y24562190D01*
X52867190Y25038380D02*
X52867190Y25085999D01*
X52867190Y25085999D02*
X52843380Y25133618D01*
X52843380Y25133618D02*
X52819571Y25157428D01*
X52819571Y25157428D02*
X52771952Y25181237D01*
X52771952Y25181237D02*
X52676714Y25205047D01*
X52676714Y25205047D02*
X52557666Y25205047D01*
X52557666Y25205047D02*
X52462428Y25181237D01*
X52462428Y25181237D02*
X52414809Y25157428D01*
X52414809Y25157428D02*
X52391000Y25133618D01*
X52391000Y25133618D02*
X52367190Y25085999D01*
X52367190Y25085999D02*
X52367190Y25038380D01*
X52367190Y25038380D02*
X52391000Y24990761D01*
X52391000Y24990761D02*
X52414809Y24966952D01*
X52414809Y24966952D02*
X52462428Y24943142D01*
X52462428Y24943142D02*
X52557666Y24919333D01*
X52557666Y24919333D02*
X52676714Y24919333D01*
X52676714Y24919333D02*
X52771952Y24943142D01*
X52771952Y24943142D02*
X52819571Y24966952D01*
X52819571Y24966952D02*
X52843380Y24990761D01*
X52843380Y24990761D02*
X52867190Y25038380D01*
X52367190Y25705046D02*
X52605285Y25538380D01*
X52367190Y25419332D02*
X52867190Y25419332D01*
X52867190Y25419332D02*
X52867190Y25609808D01*
X52867190Y25609808D02*
X52843380Y25657427D01*
X52843380Y25657427D02*
X52819571Y25681237D01*
X52819571Y25681237D02*
X52771952Y25705046D01*
X52771952Y25705046D02*
X52700523Y25705046D01*
X52700523Y25705046D02*
X52652904Y25681237D01*
X52652904Y25681237D02*
X52629095Y25657427D01*
X52629095Y25657427D02*
X52605285Y25609808D01*
X52605285Y25609808D02*
X52605285Y25419332D01*
X52367190Y22693143D02*
X52367190Y22407429D01*
X52367190Y22550286D02*
X52867190Y22550286D01*
X52867190Y22550286D02*
X52795761Y22502667D01*
X52795761Y22502667D02*
X52748142Y22455048D01*
X52748142Y22455048D02*
X52724333Y22407429D01*
X52367190Y22907428D02*
X52867190Y22907428D01*
X52867190Y22907428D02*
X52510047Y23074095D01*
X52510047Y23074095D02*
X52867190Y23240761D01*
X52867190Y23240761D02*
X52367190Y23240761D01*
X52700523Y26390762D02*
X52367190Y26390762D01*
X52891000Y26271714D02*
X52533857Y26152667D01*
X52533857Y26152667D02*
X52533857Y26462190D01*
X52867190Y26605047D02*
X52867190Y26938380D01*
X52867190Y26938380D02*
X52367190Y26724095D01*
X52367190Y27128856D02*
X52867190Y27128856D01*
X52557666Y27176475D02*
X52367190Y27319332D01*
X52700523Y27319332D02*
X52510047Y27128856D01*
X52367190Y30238381D02*
X52367190Y29952667D01*
X52367190Y30095524D02*
X52867190Y30095524D01*
X52867190Y30095524D02*
X52795761Y30047905D01*
X52795761Y30047905D02*
X52748142Y30000286D01*
X52748142Y30000286D02*
X52724333Y29952667D01*
X52700523Y30666952D02*
X52367190Y30666952D01*
X52700523Y30452666D02*
X52438619Y30452666D01*
X52438619Y30452666D02*
X52391000Y30476476D01*
X52391000Y30476476D02*
X52367190Y30524095D01*
X52367190Y30524095D02*
X52367190Y30595523D01*
X52367190Y30595523D02*
X52391000Y30643142D01*
X52391000Y30643142D02*
X52414809Y30666952D01*
X52629095Y31071714D02*
X52629095Y30905047D01*
X52367190Y30905047D02*
X52867190Y30905047D01*
X52867190Y30905047D02*
X52867190Y31143142D01*
X52700523Y28190762D02*
X52367190Y28190762D01*
X52891000Y28071714D02*
X52533857Y27952667D01*
X52533857Y27952667D02*
X52533857Y28262190D01*
X52867190Y28405047D02*
X52867190Y28738380D01*
X52867190Y28738380D02*
X52367190Y28524095D01*
X52367190Y28928856D02*
X52867190Y28928856D01*
X52557666Y28976475D02*
X52367190Y29119332D01*
X52700523Y29119332D02*
X52510047Y28928856D01*
X18375332Y41844523D02*
X18375332Y41511190D01*
X18494380Y42035000D02*
X18613427Y41677857D01*
X18613427Y41677857D02*
X18303904Y41677857D01*
X18161047Y42011190D02*
X17827714Y42011190D01*
X17827714Y42011190D02*
X18041999Y41511190D01*
X17542000Y42011190D02*
X17494381Y42011190D01*
X17494381Y42011190D02*
X17446762Y41987380D01*
X17446762Y41987380D02*
X17422952Y41963571D01*
X17422952Y41963571D02*
X17399143Y41915952D01*
X17399143Y41915952D02*
X17375333Y41820714D01*
X17375333Y41820714D02*
X17375333Y41701666D01*
X17375333Y41701666D02*
X17399143Y41606428D01*
X17399143Y41606428D02*
X17422952Y41558809D01*
X17422952Y41558809D02*
X17446762Y41535000D01*
X17446762Y41535000D02*
X17494381Y41511190D01*
X17494381Y41511190D02*
X17542000Y41511190D01*
X17542000Y41511190D02*
X17589619Y41535000D01*
X17589619Y41535000D02*
X17613428Y41558809D01*
X17613428Y41558809D02*
X17637238Y41606428D01*
X17637238Y41606428D02*
X17661047Y41701666D01*
X17661047Y41701666D02*
X17661047Y41820714D01*
X17661047Y41820714D02*
X17637238Y41915952D01*
X17637238Y41915952D02*
X17613428Y41963571D01*
X17613428Y41963571D02*
X17589619Y41987380D01*
X17589619Y41987380D02*
X17542000Y42011190D01*
X17161048Y41511190D02*
X17161048Y42011190D01*
X17113429Y41701666D02*
X16970572Y41511190D01*
X16970572Y41844523D02*
X17161048Y41654047D01*
X19067190Y30893142D02*
X19567190Y30893142D01*
X19567190Y30893142D02*
X19067190Y31178856D01*
X19067190Y31178856D02*
X19567190Y31178856D01*
X52800523Y32090762D02*
X52467190Y32090762D01*
X52991000Y31971714D02*
X52633857Y31852667D01*
X52633857Y31852667D02*
X52633857Y32162190D01*
X52967190Y32305047D02*
X52967190Y32638380D01*
X52967190Y32638380D02*
X52467190Y32424095D01*
X52467190Y32828856D02*
X52967190Y32828856D01*
X52657666Y32876475D02*
X52467190Y33019332D01*
X52800523Y33019332D02*
X52610047Y32828856D01*
X57889618Y38511190D02*
X58175332Y38511190D01*
X58032475Y38511190D02*
X58032475Y39011190D01*
X58032475Y39011190D02*
X58080094Y38939761D01*
X58080094Y38939761D02*
X58127713Y38892142D01*
X58127713Y38892142D02*
X58175332Y38868333D01*
X57461047Y38844523D02*
X57461047Y38511190D01*
X57675333Y38844523D02*
X57675333Y38582619D01*
X57675333Y38582619D02*
X57651523Y38535000D01*
X57651523Y38535000D02*
X57603904Y38511190D01*
X57603904Y38511190D02*
X57532476Y38511190D01*
X57532476Y38511190D02*
X57484857Y38535000D01*
X57484857Y38535000D02*
X57461047Y38558809D01*
X57056285Y38773095D02*
X57222952Y38773095D01*
X57222952Y38511190D02*
X57222952Y39011190D01*
X57222952Y39011190D02*
X56984857Y39011190D01*
X53367190Y19893142D02*
X53867190Y19893142D01*
X53867190Y19893142D02*
X53367190Y20178856D01*
X53367190Y20178856D02*
X53867190Y20178856D01*
X18489618Y21811190D02*
X18775332Y21811190D01*
X18632475Y21811190D02*
X18632475Y22311190D01*
X18632475Y22311190D02*
X18680094Y22239761D01*
X18680094Y22239761D02*
X18727713Y22192142D01*
X18727713Y22192142D02*
X18775332Y22168333D01*
X18275333Y21811190D02*
X18275333Y22311190D01*
X18227714Y22001666D02*
X18084857Y21811190D01*
X18084857Y22144523D02*
X18275333Y21954047D01*
X17632476Y22311190D02*
X17870571Y22311190D01*
X17870571Y22311190D02*
X17894380Y22073095D01*
X17894380Y22073095D02*
X17870571Y22096904D01*
X17870571Y22096904D02*
X17822952Y22120714D01*
X17822952Y22120714D02*
X17703904Y22120714D01*
X17703904Y22120714D02*
X17656285Y22096904D01*
X17656285Y22096904D02*
X17632476Y22073095D01*
X17632476Y22073095D02*
X17608666Y22025476D01*
X17608666Y22025476D02*
X17608666Y21906428D01*
X17608666Y21906428D02*
X17632476Y21858809D01*
X17632476Y21858809D02*
X17656285Y21835000D01*
X17656285Y21835000D02*
X17703904Y21811190D01*
X17703904Y21811190D02*
X17822952Y21811190D01*
X17822952Y21811190D02*
X17870571Y21835000D01*
X17870571Y21835000D02*
X17894380Y21858809D01*
D11*
X23342000Y17836000D02*
X36442000Y17836000D01*
X36442000Y15136000D01*
X23342000Y15136000D01*
X23342000Y17836000D01*
D10*
X55763427Y14811190D02*
X56049141Y14811190D01*
X55906284Y14811190D02*
X55906284Y15311190D01*
X55906284Y15311190D02*
X55953903Y15239761D01*
X55953903Y15239761D02*
X56001522Y15192142D01*
X56001522Y15192142D02*
X56049141Y15168333D01*
X55549142Y14811190D02*
X55549142Y15311190D01*
X55549142Y15311190D02*
X55263428Y14811190D01*
X55263428Y14811190D02*
X55263428Y15311190D01*
X54811046Y15144523D02*
X54811046Y14811190D01*
X54930094Y15335000D02*
X55049141Y14977857D01*
X55049141Y14977857D02*
X54739618Y14977857D01*
X54287237Y14811190D02*
X54572951Y14811190D01*
X54430094Y14811190D02*
X54430094Y15311190D01*
X54430094Y15311190D02*
X54477713Y15239761D01*
X54477713Y15239761D02*
X54525332Y15192142D01*
X54525332Y15192142D02*
X54572951Y15168333D01*
X53858666Y15144523D02*
X53858666Y14811190D01*
X53977714Y15335000D02*
X54096761Y14977857D01*
X54096761Y14977857D02*
X53787238Y14977857D01*
X53525333Y15096904D02*
X53572952Y15120714D01*
X53572952Y15120714D02*
X53596762Y15144523D01*
X53596762Y15144523D02*
X53620571Y15192142D01*
X53620571Y15192142D02*
X53620571Y15215952D01*
X53620571Y15215952D02*
X53596762Y15263571D01*
X53596762Y15263571D02*
X53572952Y15287380D01*
X53572952Y15287380D02*
X53525333Y15311190D01*
X53525333Y15311190D02*
X53430095Y15311190D01*
X53430095Y15311190D02*
X53382476Y15287380D01*
X53382476Y15287380D02*
X53358667Y15263571D01*
X53358667Y15263571D02*
X53334857Y15215952D01*
X53334857Y15215952D02*
X53334857Y15192142D01*
X53334857Y15192142D02*
X53358667Y15144523D01*
X53358667Y15144523D02*
X53382476Y15120714D01*
X53382476Y15120714D02*
X53430095Y15096904D01*
X53430095Y15096904D02*
X53525333Y15096904D01*
X53525333Y15096904D02*
X53572952Y15073095D01*
X53572952Y15073095D02*
X53596762Y15049285D01*
X53596762Y15049285D02*
X53620571Y15001666D01*
X53620571Y15001666D02*
X53620571Y14906428D01*
X53620571Y14906428D02*
X53596762Y14858809D01*
X53596762Y14858809D02*
X53572952Y14835000D01*
X53572952Y14835000D02*
X53525333Y14811190D01*
X53525333Y14811190D02*
X53430095Y14811190D01*
X53430095Y14811190D02*
X53382476Y14835000D01*
X53382476Y14835000D02*
X53358667Y14858809D01*
X53358667Y14858809D02*
X53334857Y14906428D01*
X53334857Y14906428D02*
X53334857Y15001666D01*
X53334857Y15001666D02*
X53358667Y15049285D01*
X53358667Y15049285D02*
X53382476Y15073095D01*
X53382476Y15073095D02*
X53430095Y15096904D01*
X17813427Y18063571D02*
X17789618Y18087380D01*
X17789618Y18087380D02*
X17741999Y18111190D01*
X17741999Y18111190D02*
X17622951Y18111190D01*
X17622951Y18111190D02*
X17575332Y18087380D01*
X17575332Y18087380D02*
X17551523Y18063571D01*
X17551523Y18063571D02*
X17527713Y18015952D01*
X17527713Y18015952D02*
X17527713Y17968333D01*
X17527713Y17968333D02*
X17551523Y17896904D01*
X17551523Y17896904D02*
X17837237Y17611190D01*
X17837237Y17611190D02*
X17527713Y17611190D01*
X17337237Y18063571D02*
X17313428Y18087380D01*
X17313428Y18087380D02*
X17265809Y18111190D01*
X17265809Y18111190D02*
X17146761Y18111190D01*
X17146761Y18111190D02*
X17099142Y18087380D01*
X17099142Y18087380D02*
X17075333Y18063571D01*
X17075333Y18063571D02*
X17051523Y18015952D01*
X17051523Y18015952D02*
X17051523Y17968333D01*
X17051523Y17968333D02*
X17075333Y17896904D01*
X17075333Y17896904D02*
X17361047Y17611190D01*
X17361047Y17611190D02*
X17051523Y17611190D01*
X16622952Y17944523D02*
X16622952Y17611190D01*
X16837238Y17944523D02*
X16837238Y17682619D01*
X16837238Y17682619D02*
X16813428Y17635000D01*
X16813428Y17635000D02*
X16765809Y17611190D01*
X16765809Y17611190D02*
X16694381Y17611190D01*
X16694381Y17611190D02*
X16646762Y17635000D01*
X16646762Y17635000D02*
X16622952Y17658809D01*
X16218190Y17873095D02*
X16384857Y17873095D01*
X16384857Y17611190D02*
X16384857Y18111190D01*
X16384857Y18111190D02*
X16146762Y18111190D01*
X18375332Y28344523D02*
X18375332Y28011190D01*
X18494380Y28535000D02*
X18613427Y28177857D01*
X18613427Y28177857D02*
X18303904Y28177857D01*
X18161047Y28511190D02*
X17827714Y28511190D01*
X17827714Y28511190D02*
X18041999Y28011190D01*
X17542000Y28511190D02*
X17494381Y28511190D01*
X17494381Y28511190D02*
X17446762Y28487380D01*
X17446762Y28487380D02*
X17422952Y28463571D01*
X17422952Y28463571D02*
X17399143Y28415952D01*
X17399143Y28415952D02*
X17375333Y28320714D01*
X17375333Y28320714D02*
X17375333Y28201666D01*
X17375333Y28201666D02*
X17399143Y28106428D01*
X17399143Y28106428D02*
X17422952Y28058809D01*
X17422952Y28058809D02*
X17446762Y28035000D01*
X17446762Y28035000D02*
X17494381Y28011190D01*
X17494381Y28011190D02*
X17542000Y28011190D01*
X17542000Y28011190D02*
X17589619Y28035000D01*
X17589619Y28035000D02*
X17613428Y28058809D01*
X17613428Y28058809D02*
X17637238Y28106428D01*
X17637238Y28106428D02*
X17661047Y28201666D01*
X17661047Y28201666D02*
X17661047Y28320714D01*
X17661047Y28320714D02*
X17637238Y28415952D01*
X17637238Y28415952D02*
X17613428Y28463571D01*
X17613428Y28463571D02*
X17589619Y28487380D01*
X17589619Y28487380D02*
X17542000Y28511190D01*
X17161048Y28011190D02*
X17161048Y28511190D01*
X17113429Y28201666D02*
X16970572Y28011190D01*
X16970572Y28344523D02*
X17161048Y28154047D01*
X18289618Y39511190D02*
X18575332Y39511190D01*
X18432475Y39511190D02*
X18432475Y40011190D01*
X18432475Y40011190D02*
X18480094Y39939761D01*
X18480094Y39939761D02*
X18527713Y39892142D01*
X18527713Y39892142D02*
X18575332Y39868333D01*
X17861047Y39844523D02*
X17861047Y39511190D01*
X18075333Y39844523D02*
X18075333Y39582619D01*
X18075333Y39582619D02*
X18051523Y39535000D01*
X18051523Y39535000D02*
X18003904Y39511190D01*
X18003904Y39511190D02*
X17932476Y39511190D01*
X17932476Y39511190D02*
X17884857Y39535000D01*
X17884857Y39535000D02*
X17861047Y39558809D01*
X17456285Y39773095D02*
X17622952Y39773095D01*
X17622952Y39511190D02*
X17622952Y40011190D01*
X17622952Y40011190D02*
X17384857Y40011190D01*
X57937237Y37344523D02*
X57937237Y37011190D01*
X58056285Y37535000D02*
X58175332Y37177857D01*
X58175332Y37177857D02*
X57865809Y37177857D01*
X57722952Y37511190D02*
X57389619Y37511190D01*
X57389619Y37511190D02*
X57603904Y37011190D01*
X57199143Y37011190D02*
X57199143Y37511190D01*
X57151524Y37201666D02*
X57008667Y37011190D01*
X57008667Y37344523D02*
X57199143Y37154047D01*
X52800523Y34090762D02*
X52467190Y34090762D01*
X52991000Y33971714D02*
X52633857Y33852667D01*
X52633857Y33852667D02*
X52633857Y34162190D01*
X52967190Y34305047D02*
X52967190Y34638380D01*
X52967190Y34638380D02*
X52467190Y34424095D01*
X52467190Y34828856D02*
X52967190Y34828856D01*
X52657666Y34876475D02*
X52467190Y35019332D01*
X52800523Y35019332D02*
X52610047Y34828856D01*
X18551522Y37963571D02*
X18527713Y37987380D01*
X18527713Y37987380D02*
X18480094Y38011190D01*
X18480094Y38011190D02*
X18361046Y38011190D01*
X18361046Y38011190D02*
X18313427Y37987380D01*
X18313427Y37987380D02*
X18289618Y37963571D01*
X18289618Y37963571D02*
X18265808Y37915952D01*
X18265808Y37915952D02*
X18265808Y37868333D01*
X18265808Y37868333D02*
X18289618Y37796904D01*
X18289618Y37796904D02*
X18575332Y37511190D01*
X18575332Y37511190D02*
X18265808Y37511190D01*
X18075332Y37963571D02*
X18051523Y37987380D01*
X18051523Y37987380D02*
X18003904Y38011190D01*
X18003904Y38011190D02*
X17884856Y38011190D01*
X17884856Y38011190D02*
X17837237Y37987380D01*
X17837237Y37987380D02*
X17813428Y37963571D01*
X17813428Y37963571D02*
X17789618Y37915952D01*
X17789618Y37915952D02*
X17789618Y37868333D01*
X17789618Y37868333D02*
X17813428Y37796904D01*
X17813428Y37796904D02*
X18099142Y37511190D01*
X18099142Y37511190D02*
X17789618Y37511190D01*
X17480095Y38011190D02*
X17432476Y38011190D01*
X17432476Y38011190D02*
X17384857Y37987380D01*
X17384857Y37987380D02*
X17361047Y37963571D01*
X17361047Y37963571D02*
X17337238Y37915952D01*
X17337238Y37915952D02*
X17313428Y37820714D01*
X17313428Y37820714D02*
X17313428Y37701666D01*
X17313428Y37701666D02*
X17337238Y37606428D01*
X17337238Y37606428D02*
X17361047Y37558809D01*
X17361047Y37558809D02*
X17384857Y37535000D01*
X17384857Y37535000D02*
X17432476Y37511190D01*
X17432476Y37511190D02*
X17480095Y37511190D01*
X17480095Y37511190D02*
X17527714Y37535000D01*
X17527714Y37535000D02*
X17551523Y37558809D01*
X17551523Y37558809D02*
X17575333Y37606428D01*
X17575333Y37606428D02*
X17599142Y37701666D01*
X17599142Y37701666D02*
X17599142Y37820714D01*
X17599142Y37820714D02*
X17575333Y37915952D01*
X17575333Y37915952D02*
X17551523Y37963571D01*
X17551523Y37963571D02*
X17527714Y37987380D01*
X17527714Y37987380D02*
X17480095Y38011190D01*
X17099143Y37844523D02*
X17099143Y37511190D01*
X17099143Y37796904D02*
X17075333Y37820714D01*
X17075333Y37820714D02*
X17027714Y37844523D01*
X17027714Y37844523D02*
X16956286Y37844523D01*
X16956286Y37844523D02*
X16908667Y37820714D01*
X16908667Y37820714D02*
X16884857Y37773095D01*
X16884857Y37773095D02*
X16884857Y37511190D01*
X16480095Y37773095D02*
X16646762Y37773095D01*
X16646762Y37511190D02*
X16646762Y38011190D01*
X16646762Y38011190D02*
X16408667Y38011190D01*
X17813427Y20463571D02*
X17789618Y20487380D01*
X17789618Y20487380D02*
X17741999Y20511190D01*
X17741999Y20511190D02*
X17622951Y20511190D01*
X17622951Y20511190D02*
X17575332Y20487380D01*
X17575332Y20487380D02*
X17551523Y20463571D01*
X17551523Y20463571D02*
X17527713Y20415952D01*
X17527713Y20415952D02*
X17527713Y20368333D01*
X17527713Y20368333D02*
X17551523Y20296904D01*
X17551523Y20296904D02*
X17837237Y20011190D01*
X17837237Y20011190D02*
X17527713Y20011190D01*
X17337237Y20463571D02*
X17313428Y20487380D01*
X17313428Y20487380D02*
X17265809Y20511190D01*
X17265809Y20511190D02*
X17146761Y20511190D01*
X17146761Y20511190D02*
X17099142Y20487380D01*
X17099142Y20487380D02*
X17075333Y20463571D01*
X17075333Y20463571D02*
X17051523Y20415952D01*
X17051523Y20415952D02*
X17051523Y20368333D01*
X17051523Y20368333D02*
X17075333Y20296904D01*
X17075333Y20296904D02*
X17361047Y20011190D01*
X17361047Y20011190D02*
X17051523Y20011190D01*
X16622952Y20344523D02*
X16622952Y20011190D01*
X16837238Y20344523D02*
X16837238Y20082619D01*
X16837238Y20082619D02*
X16813428Y20035000D01*
X16813428Y20035000D02*
X16765809Y20011190D01*
X16765809Y20011190D02*
X16694381Y20011190D01*
X16694381Y20011190D02*
X16646762Y20035000D01*
X16646762Y20035000D02*
X16622952Y20058809D01*
X16218190Y20273095D02*
X16384857Y20273095D01*
X16384857Y20011190D02*
X16384857Y20511190D01*
X16384857Y20511190D02*
X16146762Y20511190D01*
X18489618Y23711190D02*
X18775332Y23711190D01*
X18632475Y23711190D02*
X18632475Y24211190D01*
X18632475Y24211190D02*
X18680094Y24139761D01*
X18680094Y24139761D02*
X18727713Y24092142D01*
X18727713Y24092142D02*
X18775332Y24068333D01*
X18275333Y23711190D02*
X18275333Y24211190D01*
X18227714Y23901666D02*
X18084857Y23711190D01*
X18084857Y24044523D02*
X18275333Y23854047D01*
X17632476Y24211190D02*
X17870571Y24211190D01*
X17870571Y24211190D02*
X17894380Y23973095D01*
X17894380Y23973095D02*
X17870571Y23996904D01*
X17870571Y23996904D02*
X17822952Y24020714D01*
X17822952Y24020714D02*
X17703904Y24020714D01*
X17703904Y24020714D02*
X17656285Y23996904D01*
X17656285Y23996904D02*
X17632476Y23973095D01*
X17632476Y23973095D02*
X17608666Y23925476D01*
X17608666Y23925476D02*
X17608666Y23806428D01*
X17608666Y23806428D02*
X17632476Y23758809D01*
X17632476Y23758809D02*
X17656285Y23735000D01*
X17656285Y23735000D02*
X17703904Y23711190D01*
X17703904Y23711190D02*
X17822952Y23711190D01*
X17822952Y23711190D02*
X17870571Y23735000D01*
X17870571Y23735000D02*
X17894380Y23758809D01*
X18189618Y35511190D02*
X18475332Y35511190D01*
X18332475Y35511190D02*
X18332475Y36011190D01*
X18332475Y36011190D02*
X18380094Y35939761D01*
X18380094Y35939761D02*
X18427713Y35892142D01*
X18427713Y35892142D02*
X18475332Y35868333D01*
X17761047Y35844523D02*
X17761047Y35511190D01*
X17975333Y35844523D02*
X17975333Y35582619D01*
X17975333Y35582619D02*
X17951523Y35535000D01*
X17951523Y35535000D02*
X17903904Y35511190D01*
X17903904Y35511190D02*
X17832476Y35511190D01*
X17832476Y35511190D02*
X17784857Y35535000D01*
X17784857Y35535000D02*
X17761047Y35558809D01*
X17356285Y35773095D02*
X17522952Y35773095D01*
X17522952Y35511190D02*
X17522952Y36011190D01*
X17522952Y36011190D02*
X17284857Y36011190D01*
X18275332Y33511190D02*
X18561046Y33511190D01*
X18418189Y33511190D02*
X18418189Y34011190D01*
X18418189Y34011190D02*
X18465808Y33939761D01*
X18465808Y33939761D02*
X18513427Y33892142D01*
X18513427Y33892142D02*
X18561046Y33868333D01*
X17965809Y34011190D02*
X17918190Y34011190D01*
X17918190Y34011190D02*
X17870571Y33987380D01*
X17870571Y33987380D02*
X17846761Y33963571D01*
X17846761Y33963571D02*
X17822952Y33915952D01*
X17822952Y33915952D02*
X17799142Y33820714D01*
X17799142Y33820714D02*
X17799142Y33701666D01*
X17799142Y33701666D02*
X17822952Y33606428D01*
X17822952Y33606428D02*
X17846761Y33558809D01*
X17846761Y33558809D02*
X17870571Y33535000D01*
X17870571Y33535000D02*
X17918190Y33511190D01*
X17918190Y33511190D02*
X17965809Y33511190D01*
X17965809Y33511190D02*
X18013428Y33535000D01*
X18013428Y33535000D02*
X18037237Y33558809D01*
X18037237Y33558809D02*
X18061047Y33606428D01*
X18061047Y33606428D02*
X18084856Y33701666D01*
X18084856Y33701666D02*
X18084856Y33820714D01*
X18084856Y33820714D02*
X18061047Y33915952D01*
X18061047Y33915952D02*
X18037237Y33963571D01*
X18037237Y33963571D02*
X18013428Y33987380D01*
X18013428Y33987380D02*
X17965809Y34011190D01*
X17489619Y34011190D02*
X17442000Y34011190D01*
X17442000Y34011190D02*
X17394381Y33987380D01*
X17394381Y33987380D02*
X17370571Y33963571D01*
X17370571Y33963571D02*
X17346762Y33915952D01*
X17346762Y33915952D02*
X17322952Y33820714D01*
X17322952Y33820714D02*
X17322952Y33701666D01*
X17322952Y33701666D02*
X17346762Y33606428D01*
X17346762Y33606428D02*
X17370571Y33558809D01*
X17370571Y33558809D02*
X17394381Y33535000D01*
X17394381Y33535000D02*
X17442000Y33511190D01*
X17442000Y33511190D02*
X17489619Y33511190D01*
X17489619Y33511190D02*
X17537238Y33535000D01*
X17537238Y33535000D02*
X17561047Y33558809D01*
X17561047Y33558809D02*
X17584857Y33606428D01*
X17584857Y33606428D02*
X17608666Y33701666D01*
X17608666Y33701666D02*
X17608666Y33820714D01*
X17608666Y33820714D02*
X17584857Y33915952D01*
X17584857Y33915952D02*
X17561047Y33963571D01*
X17561047Y33963571D02*
X17537238Y33987380D01*
X17537238Y33987380D02*
X17489619Y34011190D01*
X16822953Y33511190D02*
X16989619Y33749285D01*
X17108667Y33511190D02*
X17108667Y34011190D01*
X17108667Y34011190D02*
X16918191Y34011190D01*
X16918191Y34011190D02*
X16870572Y33987380D01*
X16870572Y33987380D02*
X16846762Y33963571D01*
X16846762Y33963571D02*
X16822953Y33915952D01*
X16822953Y33915952D02*
X16822953Y33844523D01*
X16822953Y33844523D02*
X16846762Y33796904D01*
X16846762Y33796904D02*
X16870572Y33773095D01*
X16870572Y33773095D02*
X16918191Y33749285D01*
X16918191Y33749285D02*
X17108667Y33749285D01*
D12*
G36*
X41469390Y16162162D02*
G01*
X41456982Y16085782D01*
X41425426Y16021479D01*
X41377931Y15964098D01*
X41317878Y15917666D01*
X41308922Y15912302D01*
X41237937Y15882061D01*
X41160995Y15870335D01*
X41150286Y15870170D01*
X41076994Y15877123D01*
X41005908Y15900164D01*
X40982491Y15912302D01*
X40920217Y15957275D01*
X40871466Y16013195D01*
X40865988Y16021479D01*
X40833564Y16090172D01*
X40822757Y16162162D01*
X40822757Y17136691D01*
X40522338Y17136691D01*
X40522338Y16155934D01*
X40527604Y16073342D01*
X40543404Y15995558D01*
X40569736Y15922583D01*
X40606602Y15854416D01*
X40652237Y15792363D01*
X40705245Y15737363D01*
X40765627Y15689415D01*
X40833381Y15648520D01*
X40906631Y15615982D01*
X40983865Y15592741D01*
X41065084Y15578796D01*
X41139418Y15574220D01*
X41150286Y15574148D01*
X41224165Y15577707D01*
X41305034Y15590489D01*
X41382102Y15612568D01*
X41455369Y15643944D01*
X41464260Y15648520D01*
X41531534Y15689415D01*
X41591572Y15737363D01*
X41644374Y15792363D01*
X41689941Y15854416D01*
X41726646Y15922583D01*
X41752864Y15995558D01*
X41768595Y16073342D01*
X41773838Y16155934D01*
X41773838Y17136691D01*
X41469390Y17136691D01*
X41469390Y16162162D01*
G37*
G36*
X39936888Y16508743D02*
G01*
X39913807Y16344978D01*
X39918203Y16359633D01*
X39872320Y16424204D01*
X39818267Y16474256D01*
X39781549Y16499218D01*
X39709765Y16531812D01*
X39634187Y16548476D01*
X39565394Y16552707D01*
X39488136Y16545229D01*
X39412987Y16519731D01*
X39348140Y16476137D01*
X39298238Y16418127D01*
X39268422Y16349380D01*
X39258748Y16277567D01*
X39258748Y15591000D01*
X39552572Y15591000D01*
X39552572Y16168391D01*
X39568928Y16240915D01*
X39585178Y16266210D01*
X39653871Y16300557D01*
X39687027Y16302846D01*
X39761137Y16287218D01*
X39804997Y16258516D01*
X39854276Y16199088D01*
X39882666Y16139081D01*
X39902125Y16063175D01*
X39909353Y15989055D01*
X39909777Y15964692D01*
X39909777Y15591000D01*
X40203601Y15591000D01*
X40203601Y16508743D01*
X39936888Y16508743D01*
G37*
G36*
X38956497Y16508743D02*
G01*
X38662673Y16508743D01*
X38662673Y15591000D01*
X38956497Y15591000D01*
X38956497Y16508743D01*
G37*
G36*
X38963092Y16829312D02*
G01*
X38943056Y16901669D01*
X38911801Y16936290D01*
X38844367Y16972497D01*
X38801159Y16978422D01*
X38728167Y16960277D01*
X38693081Y16936290D01*
X38650577Y16874924D01*
X38643622Y16829312D01*
X38662942Y16757241D01*
X38693081Y16723066D01*
X38758483Y16688118D01*
X38801159Y16682400D01*
X38875420Y16699913D01*
X38911801Y16723066D01*
X38955879Y16783802D01*
X38963092Y16829312D01*
G37*
G36*
X38273960Y16911744D02*
G01*
X37980136Y16911744D01*
X37980136Y16512773D01*
X37757387Y16512773D01*
X37757387Y16284162D01*
X37980136Y16284162D01*
X37980136Y15591000D01*
X38273960Y15591000D01*
X38273960Y16284162D01*
X38416842Y16284162D01*
X38416842Y16512773D01*
X38273960Y16512773D01*
X38273960Y16911744D01*
G37*
G36*
X37653339Y16340582D02*
G01*
X37634878Y16413797D01*
X37606078Y16449758D01*
X37543281Y16487855D01*
X37502031Y16494088D01*
X37429370Y16471187D01*
X37402380Y16449758D01*
X37361765Y16386503D01*
X37355119Y16340582D01*
X37371780Y16268301D01*
X37402380Y16230306D01*
X37466619Y16194445D01*
X37502031Y16189640D01*
X37575610Y16208861D01*
X37606078Y16230306D01*
X37646693Y16292617D01*
X37653339Y16340582D01*
G37*
G36*
X37653339Y15742309D02*
G01*
X37634878Y15815210D01*
X37606078Y15851119D01*
X37543281Y15889215D01*
X37502031Y15895449D01*
X37429370Y15872548D01*
X37402380Y15851119D01*
X37361765Y15788007D01*
X37355119Y15742309D01*
X37371780Y15670028D01*
X37402380Y15632033D01*
X37466619Y15595849D01*
X37502031Y15591000D01*
X37575610Y15610395D01*
X37606078Y15632033D01*
X37646693Y15694344D01*
X37653339Y15742309D01*
G37*
D11*
X48672951Y16362133D02*
X47911047Y16362133D01*
X48291999Y15981180D02*
X48291999Y16743085D01*
X13525333Y40981180D02*
X13525333Y40266895D01*
X13525333Y40266895D02*
X13572952Y40124038D01*
X13572952Y40124038D02*
X13668190Y40028800D01*
X13668190Y40028800D02*
X13811047Y39981180D01*
X13811047Y39981180D02*
X13906285Y39981180D01*
X13096761Y40885942D02*
X13049142Y40933561D01*
X13049142Y40933561D02*
X12953904Y40981180D01*
X12953904Y40981180D02*
X12715809Y40981180D01*
X12715809Y40981180D02*
X12620571Y40933561D01*
X12620571Y40933561D02*
X12572952Y40885942D01*
X12572952Y40885942D02*
X12525333Y40790704D01*
X12525333Y40790704D02*
X12525333Y40695466D01*
X12525333Y40695466D02*
X12572952Y40552609D01*
X12572952Y40552609D02*
X13144380Y39981180D01*
X13144380Y39981180D02*
X12525333Y39981180D01*
D13*
%TO.C,R23*%
X54641841Y37236215D02*
X55095969Y37236215D01*
X54641841Y35766215D02*
X55095969Y35766215D01*
%TO.C,C12*%
X21228252Y21146000D02*
X19805748Y21146000D01*
X21228252Y19326000D02*
X19805748Y19326000D01*
%TO.C,R2*%
X55008469Y25536215D02*
X54554341Y25536215D01*
X55008469Y24066215D02*
X54554341Y24066215D01*
%TO.C,R22*%
X54591841Y29536215D02*
X55045969Y29536215D01*
X54591841Y28066215D02*
X55045969Y28066215D01*
%TO.C,C11*%
X20250348Y38471000D02*
X20772852Y38471000D01*
X20250348Y37001000D02*
X20772852Y37001000D01*
%TO.C,C10*%
X20199548Y40471000D02*
X20722052Y40471000D01*
X20199548Y39001000D02*
X20722052Y39001000D01*
%TO.C,D42*%
X52562257Y18071000D02*
X52562257Y15801000D01*
X52562257Y15801000D02*
X56447257Y15801000D01*
X56447257Y18071000D02*
X52562257Y18071000D01*
%TO.C,J5*%
X-308000Y24586000D02*
X-308000Y19586000D01*
X-308000Y24586000D02*
X1692000Y24586000D01*
X-308000Y19586000D02*
X1692000Y19586000D01*
X1692000Y25186000D02*
X1692000Y24586000D01*
X1692000Y25186000D02*
X12217000Y25186000D01*
X1692000Y19586000D02*
X1692000Y18986000D01*
X4067000Y18986000D02*
X1692000Y18986000D01*
X7067000Y18986000D02*
X5717000Y18986000D01*
X11117000Y18986000D02*
X8717000Y18986000D01*
X11117000Y17586000D02*
X11117000Y18986000D01*
X12667000Y17586000D02*
X12667000Y18986000D01*
X13792000Y18986000D02*
X12667000Y18986000D01*
X13792000Y18986000D02*
X13792000Y25186000D01*
%TO.C,R18*%
X20364936Y29071000D02*
X20819064Y29071000D01*
X20364936Y27601000D02*
X20819064Y27601000D01*
%TO.C,BZ1*%
X42742000Y21736000D02*
X42742000Y17736000D01*
X45092000Y15386000D02*
X49092000Y15386000D01*
X49092000Y24086000D02*
X45092000Y24086000D01*
X51442000Y17736000D02*
X51442000Y21736000D01*
X52142000Y15686000D02*
X52142000Y14686000D01*
X52142000Y14686000D02*
X51142000Y14686000D01*
%TO.C,C13*%
X21228252Y18746000D02*
X19805748Y18746000D01*
X21228252Y16926000D02*
X19805748Y16926000D01*
%TO.C,J3*%
X24250757Y36292599D02*
X25450757Y36292599D01*
X25450757Y37782599D02*
X25450757Y36292599D01*
X25450757Y19482599D02*
X25450757Y20972599D01*
X26790757Y37782599D02*
X25450757Y37782599D01*
X26790757Y19482599D02*
X25450757Y19482599D01*
X29510757Y19482599D02*
X31250757Y19482599D01*
X31250757Y37782599D02*
X29510757Y37782599D01*
X31250757Y19482599D02*
X31250757Y37782599D01*
%TO.C,R25*%
X54641841Y33436215D02*
X55095969Y33436215D01*
X54641841Y31966215D02*
X55095969Y31966215D01*
%TO.C,C9*%
X20737252Y36471000D02*
X20214748Y36471000D01*
X20737252Y35001000D02*
X20214748Y35001000D01*
%TO.C,R24*%
X54641841Y35336215D02*
X55095969Y35336215D01*
X54641841Y33866215D02*
X55095969Y33866215D01*
%TO.C,R15*%
X20264936Y42471000D02*
X20719064Y42471000D01*
X20264936Y41001000D02*
X20719064Y41001000D01*
%TO.C,R28*%
X20364936Y23171000D02*
X20819064Y23171000D01*
X20364936Y21701000D02*
X20819064Y21701000D01*
%TO.C,R29*%
X20364936Y25171000D02*
X20819064Y25171000D01*
X20364936Y23701000D02*
X20819064Y23701000D01*
%TO.C,Q8*%
X54131405Y21611215D02*
X54781405Y21611215D01*
X54131405Y18491215D02*
X54781405Y18491215D01*
X55431405Y21611215D02*
X54781405Y21611215D01*
X55431405Y18491215D02*
X54781405Y18491215D01*
X53858905Y18211215D02*
X53378905Y18211215D01*
X53618905Y18541215D01*
X53858905Y18211215D01*
G36*
X53858905Y18211215D02*
G01*
X53378905Y18211215D01*
X53618905Y18541215D01*
X53858905Y18211215D01*
G37*
%TO.C,R21*%
X54591841Y27586215D02*
X55045969Y27586215D01*
X54591841Y26116215D02*
X55045969Y26116215D01*
%TO.C,Q9*%
X19940100Y32596000D02*
X20590100Y32596000D01*
X19940100Y29476000D02*
X20590100Y29476000D01*
X21240100Y32596000D02*
X20590100Y32596000D01*
X21240100Y29476000D02*
X20590100Y29476000D01*
X19667600Y29196000D02*
X19187600Y29196000D01*
X19427600Y29526000D01*
X19667600Y29196000D01*
G36*
X19667600Y29196000D02*
G01*
X19187600Y29196000D01*
X19427600Y29526000D01*
X19667600Y29196000D01*
G37*
%TO.C,J4*%
D14*
X36834757Y26982599D02*
X51584757Y26982599D01*
X51584757Y41482599D01*
X36834757Y41482599D01*
X36834757Y26982599D01*
D13*
%TO.C,R27*%
X55008469Y23536215D02*
X54554341Y23536215D01*
X55008469Y22066215D02*
X54554341Y22066215D01*
%TO.C,C23*%
X54580748Y39324401D02*
X55103252Y39324401D01*
X54580748Y37854401D02*
X55103252Y37854401D01*
%TO.C,C15*%
X54607653Y31486215D02*
X55130157Y31486215D01*
X54607653Y30016215D02*
X55130157Y30016215D01*
%TO.C,J2*%
X7042000Y37792599D02*
X8242000Y37792599D01*
X8242000Y39282599D02*
X8242000Y37792599D01*
X8242000Y28982599D02*
X8242000Y30472599D01*
X9582000Y39282599D02*
X8242000Y39282599D01*
X9582000Y28982599D02*
X8242000Y28982599D01*
X12302000Y28982599D02*
X14042000Y28982599D01*
X14042000Y39282599D02*
X12302000Y39282599D01*
X14042000Y28982599D02*
X14042000Y39282599D01*
%TO.C,R19*%
X20264136Y34471000D02*
X20718264Y34471000D01*
X20264136Y33001000D02*
X20718264Y33001000D01*
%TD*%
M02*
