%TF.GenerationSoftware,KiCad,Pcbnew,8.0.5-8.0.5-0~ubuntu22.04.1*%
%TF.CreationDate,2024-11-26T13:48:27+00:00*%
%TF.ProjectId,numcalcium,6e756d63-616c-4636-9975-6d2e6b696361,rev?*%
%TF.SameCoordinates,Original*%
%TF.FileFunction,Paste,Bot*%
%TF.FilePolarity,Positive*%
%FSLAX46Y46*%
G04 Gerber Fmt 4.6, Leading zero omitted, Abs format (unit mm)*
G04 Created by KiCad (PCBNEW 8.0.5-8.0.5-0~ubuntu22.04.1) date 2024-11-26 13:48:27*
%MOMM*%
%LPD*%
G01*
G04 APERTURE LIST*
G04 Aperture macros list*
%AMRoundRect*
0 Rectangle with rounded corners*
0 $1 Rounding radius*
0 $2 $3 $4 $5 $6 $7 $8 $9 X,Y pos of 4 corners*
0 Add a 4 corners polygon primitive as box body*
4,1,4,$2,$3,$4,$5,$6,$7,$8,$9,$2,$3,0*
0 Add four circle primitives for the rounded corners*
1,1,$1+$1,$2,$3*
1,1,$1+$1,$4,$5*
1,1,$1+$1,$6,$7*
1,1,$1+$1,$8,$9*
0 Add four rect primitives between the rounded corners*
20,1,$1+$1,$2,$3,$4,$5,0*
20,1,$1+$1,$4,$5,$6,$7,0*
20,1,$1+$1,$6,$7,$8,$9,0*
20,1,$1+$1,$8,$9,$2,$3,0*%
G04 Aperture macros list end*
%ADD10RoundRect,0.250000X0.450000X-0.350000X0.450000X0.350000X-0.450000X0.350000X-0.450000X-0.350000X0*%
%ADD11RoundRect,0.250000X-0.475000X0.250000X-0.475000X-0.250000X0.475000X-0.250000X0.475000X0.250000X0*%
%ADD12RoundRect,0.150000X0.587500X0.150000X-0.587500X0.150000X-0.587500X-0.150000X0.587500X-0.150000X0*%
%ADD13R,2.500000X2.500000*%
%ADD14RoundRect,0.250000X0.475000X-0.250000X0.475000X0.250000X-0.475000X0.250000X-0.475000X-0.250000X0*%
%ADD15RoundRect,0.250000X0.350000X0.450000X-0.350000X0.450000X-0.350000X-0.450000X0.350000X-0.450000X0*%
%ADD16RoundRect,0.250000X0.450000X-0.325000X0.450000X0.325000X-0.450000X0.325000X-0.450000X-0.325000X0*%
%ADD17RoundRect,0.250000X0.250000X0.475000X-0.250000X0.475000X-0.250000X-0.475000X0.250000X-0.475000X0*%
%ADD18RoundRect,0.250000X-0.250000X-0.475000X0.250000X-0.475000X0.250000X0.475000X-0.250000X0.475000X0*%
%ADD19RoundRect,0.381000X-0.381000X0.762000X-0.381000X-0.762000X0.381000X-0.762000X0.381000X0.762000X0*%
%ADD20RoundRect,0.350000X-0.450000X-0.350000X0.450000X-0.350000X0.450000X0.350000X-0.450000X0.350000X0*%
%ADD21RoundRect,0.300000X-0.300000X-0.400000X0.300000X-0.400000X0.300000X0.400000X-0.300000X0.400000X0*%
%ADD22RoundRect,0.300000X0.300000X0.800000X-0.300000X0.800000X-0.300000X-0.800000X0.300000X-0.800000X0*%
%ADD23R,0.700000X2.000000*%
%ADD24RoundRect,0.150000X-0.587500X-0.150000X0.587500X-0.150000X0.587500X0.150000X-0.587500X0.150000X0*%
%ADD25RoundRect,0.250000X-0.450000X0.350000X-0.450000X-0.350000X0.450000X-0.350000X0.450000X0.350000X0*%
%ADD26RoundRect,0.250000X-0.350000X-0.450000X0.350000X-0.450000X0.350000X0.450000X-0.350000X0.450000X0*%
%ADD27R,2.200000X1.800000*%
%ADD28R,1.300000X0.300000*%
%ADD29R,1.200000X2.500000*%
G04 APERTURE END LIST*
D10*
%TO.C,R25*%
X47752000Y13446000D03*
X47752000Y11446000D03*
%TD*%
D11*
%TO.C,C13*%
X20701000Y10927000D03*
X20701000Y12827000D03*
%TD*%
D12*
%TO.C,Q8*%
X51363400Y6873200D03*
X53238400Y5923200D03*
X53238400Y7823200D03*
%TD*%
D13*
%TO.C,BZ1*%
X70708400Y5700000D03*
X70708400Y12700000D03*
X63708400Y12700000D03*
X63708400Y5700000D03*
%TD*%
D10*
%TO.C,R24*%
X45847000Y13449983D03*
X45847000Y11449983D03*
%TD*%
%TO.C,R18*%
X16637000Y12811000D03*
X16637000Y10811000D03*
%TD*%
%TO.C,R20*%
X18669000Y12795000D03*
X18669000Y10795000D03*
%TD*%
D14*
%TO.C,C15*%
X51358800Y13497600D03*
X51358800Y11597600D03*
%TD*%
D10*
%TO.C,R21*%
X38100000Y13319000D03*
X38100000Y11319000D03*
%TD*%
D15*
%TO.C,R19*%
X16607200Y19761200D03*
X18607200Y19761200D03*
%TD*%
D16*
%TO.C,D27*%
X73406000Y11794600D03*
X73406000Y9744600D03*
%TD*%
D17*
%TO.C,C10*%
X16626800Y25857200D03*
X18526800Y25857200D03*
%TD*%
D18*
%TO.C,C9*%
X18542000Y21793200D03*
X16642000Y21793200D03*
%TD*%
D17*
%TO.C,C11*%
X16677600Y23825200D03*
X18577600Y23825200D03*
%TD*%
D19*
%TO.C,J12*%
X52034000Y25865200D03*
D20*
X51134000Y16320000D03*
D21*
X36534000Y16320000D03*
D22*
X36284000Y25865200D03*
D23*
X37684000Y15715200D03*
X38784000Y15715200D03*
X39884000Y15715200D03*
X40984000Y15715200D03*
X42084000Y15715200D03*
X43184000Y15715200D03*
X44284000Y15715200D03*
X45384000Y15715200D03*
X46484000Y15715200D03*
%TD*%
D24*
%TO.C,Q9*%
X18643600Y17068800D03*
X16768600Y18018800D03*
X16768600Y16118800D03*
%TD*%
D10*
%TO.C,R22*%
X40005000Y13319000D03*
X40005000Y11319000D03*
%TD*%
D25*
%TO.C,R27*%
X49276000Y5146800D03*
X49276000Y7146800D03*
%TD*%
D26*
%TO.C,R13*%
X49377600Y8991600D03*
X47377600Y8991600D03*
%TD*%
D27*
%TO.C,J4*%
X29210000Y9510800D03*
X29210000Y27810800D03*
D28*
X25960000Y11410800D03*
X25960000Y11910800D03*
X25960000Y12410800D03*
X25960000Y12910800D03*
X25960000Y13410800D03*
X25960000Y13910800D03*
X25960000Y14410800D03*
X25960000Y14910800D03*
X25960000Y15410800D03*
X25960000Y15910800D03*
X25960000Y16410800D03*
X25960000Y16910800D03*
X25960000Y17410800D03*
X25960000Y17910800D03*
X25960000Y18410800D03*
X25960000Y18910800D03*
X25960000Y19410800D03*
X25960000Y19910800D03*
X25960000Y20410800D03*
X25960000Y20910800D03*
X25960000Y21410800D03*
X25960000Y21910800D03*
X25960000Y22410800D03*
X25960000Y22910800D03*
X25960000Y23410800D03*
X25960000Y23910800D03*
X25960000Y24410800D03*
X25960000Y24910800D03*
X25960000Y25410800D03*
X25960000Y25910800D03*
%TD*%
D11*
%TO.C,C12*%
X22733000Y10927000D03*
X22733000Y12827000D03*
%TD*%
D10*
%TO.C,R23*%
X43942000Y13446000D03*
X43942000Y11446000D03*
%TD*%
D29*
%TO.C,J9*%
X12725200Y9220200D03*
X13825200Y15720200D03*
X5725200Y9220200D03*
X8725200Y9220200D03*
%TD*%
M02*
