%TF.GenerationSoftware,KiCad,Pcbnew,8.0.5-8.0.5-0~ubuntu22.04.1*%
%TF.CreationDate,2024-11-26T13:48:27+00:00*%
%TF.ProjectId,numcalcium,6e756d63-616c-4636-9975-6d2e6b696361,rev?*%
%TF.SameCoordinates,Original*%
%TF.FileFunction,Legend,Bot*%
%TF.FilePolarity,Positive*%
%FSLAX46Y46*%
G04 Gerber Fmt 4.6, Leading zero omitted, Abs format (unit mm)*
G04 Created by KiCad (PCBNEW 8.0.5-8.0.5-0~ubuntu22.04.1) date 2024-11-26 13:48:27*
%MOMM*%
%LPD*%
G01*
G04 APERTURE LIST*
%ADD10C,0.150000*%
%ADD11C,0.100000*%
%ADD12C,0.120000*%
G04 APERTURE END LIST*
D10*
X48176285Y12148471D02*
X48396285Y12462757D01*
X48553428Y12148471D02*
X48553428Y12808471D01*
X48553428Y12808471D02*
X48301999Y12808471D01*
X48301999Y12808471D02*
X48239142Y12777042D01*
X48239142Y12777042D02*
X48207713Y12745614D01*
X48207713Y12745614D02*
X48176285Y12682757D01*
X48176285Y12682757D02*
X48176285Y12588471D01*
X48176285Y12588471D02*
X48207713Y12525614D01*
X48207713Y12525614D02*
X48239142Y12494185D01*
X48239142Y12494185D02*
X48301999Y12462757D01*
X48301999Y12462757D02*
X48553428Y12462757D01*
X47924856Y12745614D02*
X47893428Y12777042D01*
X47893428Y12777042D02*
X47830571Y12808471D01*
X47830571Y12808471D02*
X47673428Y12808471D01*
X47673428Y12808471D02*
X47610571Y12777042D01*
X47610571Y12777042D02*
X47579142Y12745614D01*
X47579142Y12745614D02*
X47547713Y12682757D01*
X47547713Y12682757D02*
X47547713Y12619900D01*
X47547713Y12619900D02*
X47579142Y12525614D01*
X47579142Y12525614D02*
X47956285Y12148471D01*
X47956285Y12148471D02*
X47547713Y12148471D01*
X46950571Y12808471D02*
X47264857Y12808471D01*
X47264857Y12808471D02*
X47296285Y12494185D01*
X47296285Y12494185D02*
X47264857Y12525614D01*
X47264857Y12525614D02*
X47202000Y12557042D01*
X47202000Y12557042D02*
X47044857Y12557042D01*
X47044857Y12557042D02*
X46982000Y12525614D01*
X46982000Y12525614D02*
X46950571Y12494185D01*
X46950571Y12494185D02*
X46919142Y12431328D01*
X46919142Y12431328D02*
X46919142Y12274185D01*
X46919142Y12274185D02*
X46950571Y12211328D01*
X46950571Y12211328D02*
X46982000Y12179900D01*
X46982000Y12179900D02*
X47044857Y12148471D01*
X47044857Y12148471D02*
X47202000Y12148471D01*
X47202000Y12148471D02*
X47264857Y12179900D01*
X47264857Y12179900D02*
X47296285Y12211328D01*
X21125285Y11642328D02*
X21156713Y11610900D01*
X21156713Y11610900D02*
X21250999Y11579471D01*
X21250999Y11579471D02*
X21313856Y11579471D01*
X21313856Y11579471D02*
X21408142Y11610900D01*
X21408142Y11610900D02*
X21470999Y11673757D01*
X21470999Y11673757D02*
X21502428Y11736614D01*
X21502428Y11736614D02*
X21533856Y11862328D01*
X21533856Y11862328D02*
X21533856Y11956614D01*
X21533856Y11956614D02*
X21502428Y12082328D01*
X21502428Y12082328D02*
X21470999Y12145185D01*
X21470999Y12145185D02*
X21408142Y12208042D01*
X21408142Y12208042D02*
X21313856Y12239471D01*
X21313856Y12239471D02*
X21250999Y12239471D01*
X21250999Y12239471D02*
X21156713Y12208042D01*
X21156713Y12208042D02*
X21125285Y12176614D01*
X20496713Y11579471D02*
X20873856Y11579471D01*
X20685285Y11579471D02*
X20685285Y12239471D01*
X20685285Y12239471D02*
X20748142Y12145185D01*
X20748142Y12145185D02*
X20810999Y12082328D01*
X20810999Y12082328D02*
X20873856Y12050900D01*
X20276714Y12239471D02*
X19868142Y12239471D01*
X19868142Y12239471D02*
X20088142Y11988042D01*
X20088142Y11988042D02*
X19993857Y11988042D01*
X19993857Y11988042D02*
X19931000Y11956614D01*
X19931000Y11956614D02*
X19899571Y11925185D01*
X19899571Y11925185D02*
X19868142Y11862328D01*
X19868142Y11862328D02*
X19868142Y11705185D01*
X19868142Y11705185D02*
X19899571Y11642328D01*
X19899571Y11642328D02*
X19931000Y11610900D01*
X19931000Y11610900D02*
X19993857Y11579471D01*
X19993857Y11579471D02*
X20182428Y11579471D01*
X20182428Y11579471D02*
X20245285Y11610900D01*
X20245285Y11610900D02*
X20276714Y11642328D01*
X53204257Y6503414D02*
X53267114Y6534842D01*
X53267114Y6534842D02*
X53329971Y6597700D01*
X53329971Y6597700D02*
X53424257Y6691985D01*
X53424257Y6691985D02*
X53487114Y6723414D01*
X53487114Y6723414D02*
X53549971Y6723414D01*
X53518542Y6566271D02*
X53581400Y6597700D01*
X53581400Y6597700D02*
X53644257Y6660557D01*
X53644257Y6660557D02*
X53675685Y6786271D01*
X53675685Y6786271D02*
X53675685Y7006271D01*
X53675685Y7006271D02*
X53644257Y7131985D01*
X53644257Y7131985D02*
X53581400Y7194842D01*
X53581400Y7194842D02*
X53518542Y7226271D01*
X53518542Y7226271D02*
X53392828Y7226271D01*
X53392828Y7226271D02*
X53329971Y7194842D01*
X53329971Y7194842D02*
X53267114Y7131985D01*
X53267114Y7131985D02*
X53235685Y7006271D01*
X53235685Y7006271D02*
X53235685Y6786271D01*
X53235685Y6786271D02*
X53267114Y6660557D01*
X53267114Y6660557D02*
X53329971Y6597700D01*
X53329971Y6597700D02*
X53392828Y6566271D01*
X53392828Y6566271D02*
X53518542Y6566271D01*
X52858542Y6943414D02*
X52921399Y6974842D01*
X52921399Y6974842D02*
X52952828Y7006271D01*
X52952828Y7006271D02*
X52984256Y7069128D01*
X52984256Y7069128D02*
X52984256Y7100557D01*
X52984256Y7100557D02*
X52952828Y7163414D01*
X52952828Y7163414D02*
X52921399Y7194842D01*
X52921399Y7194842D02*
X52858542Y7226271D01*
X52858542Y7226271D02*
X52732828Y7226271D01*
X52732828Y7226271D02*
X52669971Y7194842D01*
X52669971Y7194842D02*
X52638542Y7163414D01*
X52638542Y7163414D02*
X52607113Y7100557D01*
X52607113Y7100557D02*
X52607113Y7069128D01*
X52607113Y7069128D02*
X52638542Y7006271D01*
X52638542Y7006271D02*
X52669971Y6974842D01*
X52669971Y6974842D02*
X52732828Y6943414D01*
X52732828Y6943414D02*
X52858542Y6943414D01*
X52858542Y6943414D02*
X52921399Y6911985D01*
X52921399Y6911985D02*
X52952828Y6880557D01*
X52952828Y6880557D02*
X52984256Y6817700D01*
X52984256Y6817700D02*
X52984256Y6691985D01*
X52984256Y6691985D02*
X52952828Y6629128D01*
X52952828Y6629128D02*
X52921399Y6597700D01*
X52921399Y6597700D02*
X52858542Y6566271D01*
X52858542Y6566271D02*
X52732828Y6566271D01*
X52732828Y6566271D02*
X52669971Y6597700D01*
X52669971Y6597700D02*
X52638542Y6629128D01*
X52638542Y6629128D02*
X52607113Y6691985D01*
X52607113Y6691985D02*
X52607113Y6817700D01*
X52607113Y6817700D02*
X52638542Y6880557D01*
X52638542Y6880557D02*
X52669971Y6911985D01*
X52669971Y6911985D02*
X52732828Y6943414D01*
X66752628Y6662585D02*
X66658342Y6631157D01*
X66658342Y6631157D02*
X66626913Y6599728D01*
X66626913Y6599728D02*
X66595485Y6536871D01*
X66595485Y6536871D02*
X66595485Y6442585D01*
X66595485Y6442585D02*
X66626913Y6379728D01*
X66626913Y6379728D02*
X66658342Y6348300D01*
X66658342Y6348300D02*
X66721199Y6316871D01*
X66721199Y6316871D02*
X66972628Y6316871D01*
X66972628Y6316871D02*
X66972628Y6976871D01*
X66972628Y6976871D02*
X66752628Y6976871D01*
X66752628Y6976871D02*
X66689771Y6945442D01*
X66689771Y6945442D02*
X66658342Y6914014D01*
X66658342Y6914014D02*
X66626913Y6851157D01*
X66626913Y6851157D02*
X66626913Y6788300D01*
X66626913Y6788300D02*
X66658342Y6725442D01*
X66658342Y6725442D02*
X66689771Y6694014D01*
X66689771Y6694014D02*
X66752628Y6662585D01*
X66752628Y6662585D02*
X66972628Y6662585D01*
X66375485Y6976871D02*
X65935485Y6976871D01*
X65935485Y6976871D02*
X66375485Y6316871D01*
X66375485Y6316871D02*
X65935485Y6316871D01*
X65338342Y6316871D02*
X65715485Y6316871D01*
X65526914Y6316871D02*
X65526914Y6976871D01*
X65526914Y6976871D02*
X65589771Y6882585D01*
X65589771Y6882585D02*
X65652628Y6819728D01*
X65652628Y6819728D02*
X65715485Y6788300D01*
X62182266Y7980951D02*
X62182266Y7219047D01*
X62563219Y7599999D02*
X61801314Y7599999D01*
X46271285Y12148471D02*
X46491285Y12462757D01*
X46648428Y12148471D02*
X46648428Y12808471D01*
X46648428Y12808471D02*
X46396999Y12808471D01*
X46396999Y12808471D02*
X46334142Y12777042D01*
X46334142Y12777042D02*
X46302713Y12745614D01*
X46302713Y12745614D02*
X46271285Y12682757D01*
X46271285Y12682757D02*
X46271285Y12588471D01*
X46271285Y12588471D02*
X46302713Y12525614D01*
X46302713Y12525614D02*
X46334142Y12494185D01*
X46334142Y12494185D02*
X46396999Y12462757D01*
X46396999Y12462757D02*
X46648428Y12462757D01*
X46019856Y12745614D02*
X45988428Y12777042D01*
X45988428Y12777042D02*
X45925571Y12808471D01*
X45925571Y12808471D02*
X45768428Y12808471D01*
X45768428Y12808471D02*
X45705571Y12777042D01*
X45705571Y12777042D02*
X45674142Y12745614D01*
X45674142Y12745614D02*
X45642713Y12682757D01*
X45642713Y12682757D02*
X45642713Y12619900D01*
X45642713Y12619900D02*
X45674142Y12525614D01*
X45674142Y12525614D02*
X46051285Y12148471D01*
X46051285Y12148471D02*
X45642713Y12148471D01*
X45077000Y12588471D02*
X45077000Y12148471D01*
X45234142Y12839900D02*
X45391285Y12368471D01*
X45391285Y12368471D02*
X44982714Y12368471D01*
X17061285Y11513471D02*
X17281285Y11827757D01*
X17438428Y11513471D02*
X17438428Y12173471D01*
X17438428Y12173471D02*
X17186999Y12173471D01*
X17186999Y12173471D02*
X17124142Y12142042D01*
X17124142Y12142042D02*
X17092713Y12110614D01*
X17092713Y12110614D02*
X17061285Y12047757D01*
X17061285Y12047757D02*
X17061285Y11953471D01*
X17061285Y11953471D02*
X17092713Y11890614D01*
X17092713Y11890614D02*
X17124142Y11859185D01*
X17124142Y11859185D02*
X17186999Y11827757D01*
X17186999Y11827757D02*
X17438428Y11827757D01*
X16432713Y11513471D02*
X16809856Y11513471D01*
X16621285Y11513471D02*
X16621285Y12173471D01*
X16621285Y12173471D02*
X16684142Y12079185D01*
X16684142Y12079185D02*
X16746999Y12016328D01*
X16746999Y12016328D02*
X16809856Y11984900D01*
X16055571Y11890614D02*
X16118428Y11922042D01*
X16118428Y11922042D02*
X16149857Y11953471D01*
X16149857Y11953471D02*
X16181285Y12016328D01*
X16181285Y12016328D02*
X16181285Y12047757D01*
X16181285Y12047757D02*
X16149857Y12110614D01*
X16149857Y12110614D02*
X16118428Y12142042D01*
X16118428Y12142042D02*
X16055571Y12173471D01*
X16055571Y12173471D02*
X15929857Y12173471D01*
X15929857Y12173471D02*
X15867000Y12142042D01*
X15867000Y12142042D02*
X15835571Y12110614D01*
X15835571Y12110614D02*
X15804142Y12047757D01*
X15804142Y12047757D02*
X15804142Y12016328D01*
X15804142Y12016328D02*
X15835571Y11953471D01*
X15835571Y11953471D02*
X15867000Y11922042D01*
X15867000Y11922042D02*
X15929857Y11890614D01*
X15929857Y11890614D02*
X16055571Y11890614D01*
X16055571Y11890614D02*
X16118428Y11859185D01*
X16118428Y11859185D02*
X16149857Y11827757D01*
X16149857Y11827757D02*
X16181285Y11764900D01*
X16181285Y11764900D02*
X16181285Y11639185D01*
X16181285Y11639185D02*
X16149857Y11576328D01*
X16149857Y11576328D02*
X16118428Y11544900D01*
X16118428Y11544900D02*
X16055571Y11513471D01*
X16055571Y11513471D02*
X15929857Y11513471D01*
X15929857Y11513471D02*
X15867000Y11544900D01*
X15867000Y11544900D02*
X15835571Y11576328D01*
X15835571Y11576328D02*
X15804142Y11639185D01*
X15804142Y11639185D02*
X15804142Y11764900D01*
X15804142Y11764900D02*
X15835571Y11827757D01*
X15835571Y11827757D02*
X15867000Y11859185D01*
X15867000Y11859185D02*
X15929857Y11890614D01*
X19093285Y11513471D02*
X19313285Y11827757D01*
X19470428Y11513471D02*
X19470428Y12173471D01*
X19470428Y12173471D02*
X19218999Y12173471D01*
X19218999Y12173471D02*
X19156142Y12142042D01*
X19156142Y12142042D02*
X19124713Y12110614D01*
X19124713Y12110614D02*
X19093285Y12047757D01*
X19093285Y12047757D02*
X19093285Y11953471D01*
X19093285Y11953471D02*
X19124713Y11890614D01*
X19124713Y11890614D02*
X19156142Y11859185D01*
X19156142Y11859185D02*
X19218999Y11827757D01*
X19218999Y11827757D02*
X19470428Y11827757D01*
X18841856Y12110614D02*
X18810428Y12142042D01*
X18810428Y12142042D02*
X18747571Y12173471D01*
X18747571Y12173471D02*
X18590428Y12173471D01*
X18590428Y12173471D02*
X18527571Y12142042D01*
X18527571Y12142042D02*
X18496142Y12110614D01*
X18496142Y12110614D02*
X18464713Y12047757D01*
X18464713Y12047757D02*
X18464713Y11984900D01*
X18464713Y11984900D02*
X18496142Y11890614D01*
X18496142Y11890614D02*
X18873285Y11513471D01*
X18873285Y11513471D02*
X18464713Y11513471D01*
X18056142Y12173471D02*
X17993285Y12173471D01*
X17993285Y12173471D02*
X17930428Y12142042D01*
X17930428Y12142042D02*
X17899000Y12110614D01*
X17899000Y12110614D02*
X17867571Y12047757D01*
X17867571Y12047757D02*
X17836142Y11922042D01*
X17836142Y11922042D02*
X17836142Y11764900D01*
X17836142Y11764900D02*
X17867571Y11639185D01*
X17867571Y11639185D02*
X17899000Y11576328D01*
X17899000Y11576328D02*
X17930428Y11544900D01*
X17930428Y11544900D02*
X17993285Y11513471D01*
X17993285Y11513471D02*
X18056142Y11513471D01*
X18056142Y11513471D02*
X18119000Y11544900D01*
X18119000Y11544900D02*
X18150428Y11576328D01*
X18150428Y11576328D02*
X18181857Y11639185D01*
X18181857Y11639185D02*
X18213285Y11764900D01*
X18213285Y11764900D02*
X18213285Y11922042D01*
X18213285Y11922042D02*
X18181857Y12047757D01*
X18181857Y12047757D02*
X18150428Y12110614D01*
X18150428Y12110614D02*
X18119000Y12142042D01*
X18119000Y12142042D02*
X18056142Y12173471D01*
X51859285Y12312928D02*
X51890713Y12281500D01*
X51890713Y12281500D02*
X51984999Y12250071D01*
X51984999Y12250071D02*
X52047856Y12250071D01*
X52047856Y12250071D02*
X52142142Y12281500D01*
X52142142Y12281500D02*
X52204999Y12344357D01*
X52204999Y12344357D02*
X52236428Y12407214D01*
X52236428Y12407214D02*
X52267856Y12532928D01*
X52267856Y12532928D02*
X52267856Y12627214D01*
X52267856Y12627214D02*
X52236428Y12752928D01*
X52236428Y12752928D02*
X52204999Y12815785D01*
X52204999Y12815785D02*
X52142142Y12878642D01*
X52142142Y12878642D02*
X52047856Y12910071D01*
X52047856Y12910071D02*
X51984999Y12910071D01*
X51984999Y12910071D02*
X51890713Y12878642D01*
X51890713Y12878642D02*
X51859285Y12847214D01*
X51230713Y12250071D02*
X51607856Y12250071D01*
X51419285Y12250071D02*
X51419285Y12910071D01*
X51419285Y12910071D02*
X51482142Y12815785D01*
X51482142Y12815785D02*
X51544999Y12752928D01*
X51544999Y12752928D02*
X51607856Y12721500D01*
X50633571Y12910071D02*
X50947857Y12910071D01*
X50947857Y12910071D02*
X50979285Y12595785D01*
X50979285Y12595785D02*
X50947857Y12627214D01*
X50947857Y12627214D02*
X50885000Y12658642D01*
X50885000Y12658642D02*
X50727857Y12658642D01*
X50727857Y12658642D02*
X50665000Y12627214D01*
X50665000Y12627214D02*
X50633571Y12595785D01*
X50633571Y12595785D02*
X50602142Y12532928D01*
X50602142Y12532928D02*
X50602142Y12375785D01*
X50602142Y12375785D02*
X50633571Y12312928D01*
X50633571Y12312928D02*
X50665000Y12281500D01*
X50665000Y12281500D02*
X50727857Y12250071D01*
X50727857Y12250071D02*
X50885000Y12250071D01*
X50885000Y12250071D02*
X50947857Y12281500D01*
X50947857Y12281500D02*
X50979285Y12312928D01*
X38524285Y12021471D02*
X38744285Y12335757D01*
X38901428Y12021471D02*
X38901428Y12681471D01*
X38901428Y12681471D02*
X38649999Y12681471D01*
X38649999Y12681471D02*
X38587142Y12650042D01*
X38587142Y12650042D02*
X38555713Y12618614D01*
X38555713Y12618614D02*
X38524285Y12555757D01*
X38524285Y12555757D02*
X38524285Y12461471D01*
X38524285Y12461471D02*
X38555713Y12398614D01*
X38555713Y12398614D02*
X38587142Y12367185D01*
X38587142Y12367185D02*
X38649999Y12335757D01*
X38649999Y12335757D02*
X38901428Y12335757D01*
X38272856Y12618614D02*
X38241428Y12650042D01*
X38241428Y12650042D02*
X38178571Y12681471D01*
X38178571Y12681471D02*
X38021428Y12681471D01*
X38021428Y12681471D02*
X37958571Y12650042D01*
X37958571Y12650042D02*
X37927142Y12618614D01*
X37927142Y12618614D02*
X37895713Y12555757D01*
X37895713Y12555757D02*
X37895713Y12492900D01*
X37895713Y12492900D02*
X37927142Y12398614D01*
X37927142Y12398614D02*
X38304285Y12021471D01*
X38304285Y12021471D02*
X37895713Y12021471D01*
X37267142Y12021471D02*
X37644285Y12021471D01*
X37455714Y12021471D02*
X37455714Y12681471D01*
X37455714Y12681471D02*
X37518571Y12587185D01*
X37518571Y12587185D02*
X37581428Y12524328D01*
X37581428Y12524328D02*
X37644285Y12492900D01*
X17950528Y20236285D02*
X17636242Y20456285D01*
X17950528Y20613428D02*
X17290528Y20613428D01*
X17290528Y20613428D02*
X17290528Y20361999D01*
X17290528Y20361999D02*
X17321957Y20299142D01*
X17321957Y20299142D02*
X17353385Y20267713D01*
X17353385Y20267713D02*
X17416242Y20236285D01*
X17416242Y20236285D02*
X17510528Y20236285D01*
X17510528Y20236285D02*
X17573385Y20267713D01*
X17573385Y20267713D02*
X17604814Y20299142D01*
X17604814Y20299142D02*
X17636242Y20361999D01*
X17636242Y20361999D02*
X17636242Y20613428D01*
X17950528Y19607713D02*
X17950528Y19984856D01*
X17950528Y19796285D02*
X17290528Y19796285D01*
X17290528Y19796285D02*
X17384814Y19859142D01*
X17384814Y19859142D02*
X17447671Y19921999D01*
X17447671Y19921999D02*
X17479100Y19984856D01*
X17950528Y19293428D02*
X17950528Y19167714D01*
X17950528Y19167714D02*
X17919100Y19104857D01*
X17919100Y19104857D02*
X17887671Y19073428D01*
X17887671Y19073428D02*
X17793385Y19010571D01*
X17793385Y19010571D02*
X17667671Y18979142D01*
X17667671Y18979142D02*
X17416242Y18979142D01*
X17416242Y18979142D02*
X17353385Y19010571D01*
X17353385Y19010571D02*
X17321957Y19042000D01*
X17321957Y19042000D02*
X17290528Y19104857D01*
X17290528Y19104857D02*
X17290528Y19230571D01*
X17290528Y19230571D02*
X17321957Y19293428D01*
X17321957Y19293428D02*
X17353385Y19324857D01*
X17353385Y19324857D02*
X17416242Y19356285D01*
X17416242Y19356285D02*
X17573385Y19356285D01*
X17573385Y19356285D02*
X17636242Y19324857D01*
X17636242Y19324857D02*
X17667671Y19293428D01*
X17667671Y19293428D02*
X17699100Y19230571D01*
X17699100Y19230571D02*
X17699100Y19104857D01*
X17699100Y19104857D02*
X17667671Y19042000D01*
X17667671Y19042000D02*
X17636242Y19010571D01*
X17636242Y19010571D02*
X17573385Y18979142D01*
X74182028Y10472071D02*
X74182028Y11132071D01*
X74182028Y11132071D02*
X74024885Y11132071D01*
X74024885Y11132071D02*
X73930599Y11100642D01*
X73930599Y11100642D02*
X73867742Y11037785D01*
X73867742Y11037785D02*
X73836313Y10974928D01*
X73836313Y10974928D02*
X73804885Y10849214D01*
X73804885Y10849214D02*
X73804885Y10754928D01*
X73804885Y10754928D02*
X73836313Y10629214D01*
X73836313Y10629214D02*
X73867742Y10566357D01*
X73867742Y10566357D02*
X73930599Y10503500D01*
X73930599Y10503500D02*
X74024885Y10472071D01*
X74024885Y10472071D02*
X74182028Y10472071D01*
X73553456Y11069214D02*
X73522028Y11100642D01*
X73522028Y11100642D02*
X73459171Y11132071D01*
X73459171Y11132071D02*
X73302028Y11132071D01*
X73302028Y11132071D02*
X73239171Y11100642D01*
X73239171Y11100642D02*
X73207742Y11069214D01*
X73207742Y11069214D02*
X73176313Y11006357D01*
X73176313Y11006357D02*
X73176313Y10943500D01*
X73176313Y10943500D02*
X73207742Y10849214D01*
X73207742Y10849214D02*
X73584885Y10472071D01*
X73584885Y10472071D02*
X73176313Y10472071D01*
X72956314Y11132071D02*
X72516314Y11132071D01*
X72516314Y11132071D02*
X72799171Y10472071D01*
X17887671Y26332285D02*
X17919100Y26363713D01*
X17919100Y26363713D02*
X17950528Y26457999D01*
X17950528Y26457999D02*
X17950528Y26520856D01*
X17950528Y26520856D02*
X17919100Y26615142D01*
X17919100Y26615142D02*
X17856242Y26677999D01*
X17856242Y26677999D02*
X17793385Y26709428D01*
X17793385Y26709428D02*
X17667671Y26740856D01*
X17667671Y26740856D02*
X17573385Y26740856D01*
X17573385Y26740856D02*
X17447671Y26709428D01*
X17447671Y26709428D02*
X17384814Y26677999D01*
X17384814Y26677999D02*
X17321957Y26615142D01*
X17321957Y26615142D02*
X17290528Y26520856D01*
X17290528Y26520856D02*
X17290528Y26457999D01*
X17290528Y26457999D02*
X17321957Y26363713D01*
X17321957Y26363713D02*
X17353385Y26332285D01*
X17950528Y25703713D02*
X17950528Y26080856D01*
X17950528Y25892285D02*
X17290528Y25892285D01*
X17290528Y25892285D02*
X17384814Y25955142D01*
X17384814Y25955142D02*
X17447671Y26017999D01*
X17447671Y26017999D02*
X17479100Y26080856D01*
X17290528Y25295142D02*
X17290528Y25232285D01*
X17290528Y25232285D02*
X17321957Y25169428D01*
X17321957Y25169428D02*
X17353385Y25138000D01*
X17353385Y25138000D02*
X17416242Y25106571D01*
X17416242Y25106571D02*
X17541957Y25075142D01*
X17541957Y25075142D02*
X17699100Y25075142D01*
X17699100Y25075142D02*
X17824814Y25106571D01*
X17824814Y25106571D02*
X17887671Y25138000D01*
X17887671Y25138000D02*
X17919100Y25169428D01*
X17919100Y25169428D02*
X17950528Y25232285D01*
X17950528Y25232285D02*
X17950528Y25295142D01*
X17950528Y25295142D02*
X17919100Y25358000D01*
X17919100Y25358000D02*
X17887671Y25389428D01*
X17887671Y25389428D02*
X17824814Y25420857D01*
X17824814Y25420857D02*
X17699100Y25452285D01*
X17699100Y25452285D02*
X17541957Y25452285D01*
X17541957Y25452285D02*
X17416242Y25420857D01*
X17416242Y25420857D02*
X17353385Y25389428D01*
X17353385Y25389428D02*
X17321957Y25358000D01*
X17321957Y25358000D02*
X17290528Y25295142D01*
X17887671Y21826999D02*
X17919100Y21858427D01*
X17919100Y21858427D02*
X17950528Y21952713D01*
X17950528Y21952713D02*
X17950528Y22015570D01*
X17950528Y22015570D02*
X17919100Y22109856D01*
X17919100Y22109856D02*
X17856242Y22172713D01*
X17856242Y22172713D02*
X17793385Y22204142D01*
X17793385Y22204142D02*
X17667671Y22235570D01*
X17667671Y22235570D02*
X17573385Y22235570D01*
X17573385Y22235570D02*
X17447671Y22204142D01*
X17447671Y22204142D02*
X17384814Y22172713D01*
X17384814Y22172713D02*
X17321957Y22109856D01*
X17321957Y22109856D02*
X17290528Y22015570D01*
X17290528Y22015570D02*
X17290528Y21952713D01*
X17290528Y21952713D02*
X17321957Y21858427D01*
X17321957Y21858427D02*
X17353385Y21826999D01*
X17950528Y21512713D02*
X17950528Y21386999D01*
X17950528Y21386999D02*
X17919100Y21324142D01*
X17919100Y21324142D02*
X17887671Y21292713D01*
X17887671Y21292713D02*
X17793385Y21229856D01*
X17793385Y21229856D02*
X17667671Y21198427D01*
X17667671Y21198427D02*
X17416242Y21198427D01*
X17416242Y21198427D02*
X17353385Y21229856D01*
X17353385Y21229856D02*
X17321957Y21261285D01*
X17321957Y21261285D02*
X17290528Y21324142D01*
X17290528Y21324142D02*
X17290528Y21449856D01*
X17290528Y21449856D02*
X17321957Y21512713D01*
X17321957Y21512713D02*
X17353385Y21544142D01*
X17353385Y21544142D02*
X17416242Y21575570D01*
X17416242Y21575570D02*
X17573385Y21575570D01*
X17573385Y21575570D02*
X17636242Y21544142D01*
X17636242Y21544142D02*
X17667671Y21512713D01*
X17667671Y21512713D02*
X17699100Y21449856D01*
X17699100Y21449856D02*
X17699100Y21324142D01*
X17699100Y21324142D02*
X17667671Y21261285D01*
X17667671Y21261285D02*
X17636242Y21229856D01*
X17636242Y21229856D02*
X17573385Y21198427D01*
X17862271Y24300285D02*
X17893700Y24331713D01*
X17893700Y24331713D02*
X17925128Y24425999D01*
X17925128Y24425999D02*
X17925128Y24488856D01*
X17925128Y24488856D02*
X17893700Y24583142D01*
X17893700Y24583142D02*
X17830842Y24645999D01*
X17830842Y24645999D02*
X17767985Y24677428D01*
X17767985Y24677428D02*
X17642271Y24708856D01*
X17642271Y24708856D02*
X17547985Y24708856D01*
X17547985Y24708856D02*
X17422271Y24677428D01*
X17422271Y24677428D02*
X17359414Y24645999D01*
X17359414Y24645999D02*
X17296557Y24583142D01*
X17296557Y24583142D02*
X17265128Y24488856D01*
X17265128Y24488856D02*
X17265128Y24425999D01*
X17265128Y24425999D02*
X17296557Y24331713D01*
X17296557Y24331713D02*
X17327985Y24300285D01*
X17925128Y23671713D02*
X17925128Y24048856D01*
X17925128Y23860285D02*
X17265128Y23860285D01*
X17265128Y23860285D02*
X17359414Y23923142D01*
X17359414Y23923142D02*
X17422271Y23985999D01*
X17422271Y23985999D02*
X17453700Y24048856D01*
X17925128Y23043142D02*
X17925128Y23420285D01*
X17925128Y23231714D02*
X17265128Y23231714D01*
X17265128Y23231714D02*
X17359414Y23294571D01*
X17359414Y23294571D02*
X17422271Y23357428D01*
X17422271Y23357428D02*
X17453700Y23420285D01*
D11*
X50953284Y30458871D02*
X50953284Y29987442D01*
X50953284Y29987442D02*
X50984713Y29893157D01*
X50984713Y29893157D02*
X51047570Y29830300D01*
X51047570Y29830300D02*
X51141856Y29798871D01*
X51141856Y29798871D02*
X51204713Y29798871D01*
X50293284Y29798871D02*
X50670427Y29798871D01*
X50481856Y29798871D02*
X50481856Y30458871D01*
X50481856Y30458871D02*
X50544713Y30364585D01*
X50544713Y30364585D02*
X50607570Y30301728D01*
X50607570Y30301728D02*
X50670427Y30270300D01*
X50041856Y30396014D02*
X50010428Y30427442D01*
X50010428Y30427442D02*
X49947571Y30458871D01*
X49947571Y30458871D02*
X49790428Y30458871D01*
X49790428Y30458871D02*
X49727571Y30427442D01*
X49727571Y30427442D02*
X49696142Y30396014D01*
X49696142Y30396014D02*
X49664713Y30333157D01*
X49664713Y30333157D02*
X49664713Y30270300D01*
X49664713Y30270300D02*
X49696142Y30176014D01*
X49696142Y30176014D02*
X50073285Y29798871D01*
X50073285Y29798871D02*
X49664713Y29798871D01*
D10*
X18731857Y17546614D02*
X18794714Y17578042D01*
X18794714Y17578042D02*
X18857571Y17640900D01*
X18857571Y17640900D02*
X18951857Y17735185D01*
X18951857Y17735185D02*
X19014714Y17766614D01*
X19014714Y17766614D02*
X19077571Y17766614D01*
X19046142Y17609471D02*
X19109000Y17640900D01*
X19109000Y17640900D02*
X19171857Y17703757D01*
X19171857Y17703757D02*
X19203285Y17829471D01*
X19203285Y17829471D02*
X19203285Y18049471D01*
X19203285Y18049471D02*
X19171857Y18175185D01*
X19171857Y18175185D02*
X19109000Y18238042D01*
X19109000Y18238042D02*
X19046142Y18269471D01*
X19046142Y18269471D02*
X18920428Y18269471D01*
X18920428Y18269471D02*
X18857571Y18238042D01*
X18857571Y18238042D02*
X18794714Y18175185D01*
X18794714Y18175185D02*
X18763285Y18049471D01*
X18763285Y18049471D02*
X18763285Y17829471D01*
X18763285Y17829471D02*
X18794714Y17703757D01*
X18794714Y17703757D02*
X18857571Y17640900D01*
X18857571Y17640900D02*
X18920428Y17609471D01*
X18920428Y17609471D02*
X19046142Y17609471D01*
X18448999Y17609471D02*
X18323285Y17609471D01*
X18323285Y17609471D02*
X18260428Y17640900D01*
X18260428Y17640900D02*
X18228999Y17672328D01*
X18228999Y17672328D02*
X18166142Y17766614D01*
X18166142Y17766614D02*
X18134713Y17892328D01*
X18134713Y17892328D02*
X18134713Y18143757D01*
X18134713Y18143757D02*
X18166142Y18206614D01*
X18166142Y18206614D02*
X18197571Y18238042D01*
X18197571Y18238042D02*
X18260428Y18269471D01*
X18260428Y18269471D02*
X18386142Y18269471D01*
X18386142Y18269471D02*
X18448999Y18238042D01*
X18448999Y18238042D02*
X18480428Y18206614D01*
X18480428Y18206614D02*
X18511856Y18143757D01*
X18511856Y18143757D02*
X18511856Y17986614D01*
X18511856Y17986614D02*
X18480428Y17923757D01*
X18480428Y17923757D02*
X18448999Y17892328D01*
X18448999Y17892328D02*
X18386142Y17860900D01*
X18386142Y17860900D02*
X18260428Y17860900D01*
X18260428Y17860900D02*
X18197571Y17892328D01*
X18197571Y17892328D02*
X18166142Y17923757D01*
X18166142Y17923757D02*
X18134713Y17986614D01*
X40556285Y12021471D02*
X40776285Y12335757D01*
X40933428Y12021471D02*
X40933428Y12681471D01*
X40933428Y12681471D02*
X40681999Y12681471D01*
X40681999Y12681471D02*
X40619142Y12650042D01*
X40619142Y12650042D02*
X40587713Y12618614D01*
X40587713Y12618614D02*
X40556285Y12555757D01*
X40556285Y12555757D02*
X40556285Y12461471D01*
X40556285Y12461471D02*
X40587713Y12398614D01*
X40587713Y12398614D02*
X40619142Y12367185D01*
X40619142Y12367185D02*
X40681999Y12335757D01*
X40681999Y12335757D02*
X40933428Y12335757D01*
X40304856Y12618614D02*
X40273428Y12650042D01*
X40273428Y12650042D02*
X40210571Y12681471D01*
X40210571Y12681471D02*
X40053428Y12681471D01*
X40053428Y12681471D02*
X39990571Y12650042D01*
X39990571Y12650042D02*
X39959142Y12618614D01*
X39959142Y12618614D02*
X39927713Y12555757D01*
X39927713Y12555757D02*
X39927713Y12492900D01*
X39927713Y12492900D02*
X39959142Y12398614D01*
X39959142Y12398614D02*
X40336285Y12021471D01*
X40336285Y12021471D02*
X39927713Y12021471D01*
X39676285Y12618614D02*
X39644857Y12650042D01*
X39644857Y12650042D02*
X39582000Y12681471D01*
X39582000Y12681471D02*
X39424857Y12681471D01*
X39424857Y12681471D02*
X39362000Y12650042D01*
X39362000Y12650042D02*
X39330571Y12618614D01*
X39330571Y12618614D02*
X39299142Y12555757D01*
X39299142Y12555757D02*
X39299142Y12492900D01*
X39299142Y12492900D02*
X39330571Y12398614D01*
X39330571Y12398614D02*
X39707714Y12021471D01*
X39707714Y12021471D02*
X39299142Y12021471D01*
X49598685Y5849271D02*
X49818685Y6163557D01*
X49975828Y5849271D02*
X49975828Y6509271D01*
X49975828Y6509271D02*
X49724399Y6509271D01*
X49724399Y6509271D02*
X49661542Y6477842D01*
X49661542Y6477842D02*
X49630113Y6446414D01*
X49630113Y6446414D02*
X49598685Y6383557D01*
X49598685Y6383557D02*
X49598685Y6289271D01*
X49598685Y6289271D02*
X49630113Y6226414D01*
X49630113Y6226414D02*
X49661542Y6194985D01*
X49661542Y6194985D02*
X49724399Y6163557D01*
X49724399Y6163557D02*
X49975828Y6163557D01*
X49347256Y6446414D02*
X49315828Y6477842D01*
X49315828Y6477842D02*
X49252971Y6509271D01*
X49252971Y6509271D02*
X49095828Y6509271D01*
X49095828Y6509271D02*
X49032971Y6477842D01*
X49032971Y6477842D02*
X49001542Y6446414D01*
X49001542Y6446414D02*
X48970113Y6383557D01*
X48970113Y6383557D02*
X48970113Y6320700D01*
X48970113Y6320700D02*
X49001542Y6226414D01*
X49001542Y6226414D02*
X49378685Y5849271D01*
X49378685Y5849271D02*
X48970113Y5849271D01*
X48750114Y6509271D02*
X48310114Y6509271D01*
X48310114Y6509271D02*
X48592971Y5849271D01*
X48665728Y9339685D02*
X48351442Y9559685D01*
X48665728Y9716828D02*
X48005728Y9716828D01*
X48005728Y9716828D02*
X48005728Y9465399D01*
X48005728Y9465399D02*
X48037157Y9402542D01*
X48037157Y9402542D02*
X48068585Y9371113D01*
X48068585Y9371113D02*
X48131442Y9339685D01*
X48131442Y9339685D02*
X48225728Y9339685D01*
X48225728Y9339685D02*
X48288585Y9371113D01*
X48288585Y9371113D02*
X48320014Y9402542D01*
X48320014Y9402542D02*
X48351442Y9465399D01*
X48351442Y9465399D02*
X48351442Y9716828D01*
X48665728Y8711113D02*
X48665728Y9088256D01*
X48665728Y8899685D02*
X48005728Y8899685D01*
X48005728Y8899685D02*
X48100014Y8962542D01*
X48100014Y8962542D02*
X48162871Y9025399D01*
X48162871Y9025399D02*
X48194300Y9088256D01*
X48005728Y8491114D02*
X48005728Y8082542D01*
X48005728Y8082542D02*
X48257157Y8302542D01*
X48257157Y8302542D02*
X48257157Y8208257D01*
X48257157Y8208257D02*
X48288585Y8145400D01*
X48288585Y8145400D02*
X48320014Y8113971D01*
X48320014Y8113971D02*
X48382871Y8082542D01*
X48382871Y8082542D02*
X48540014Y8082542D01*
X48540014Y8082542D02*
X48602871Y8113971D01*
X48602871Y8113971D02*
X48634300Y8145400D01*
X48634300Y8145400D02*
X48665728Y8208257D01*
X48665728Y8208257D02*
X48665728Y8396828D01*
X48665728Y8396828D02*
X48634300Y8459685D01*
X48634300Y8459685D02*
X48602871Y8491114D01*
X31842999Y27413471D02*
X31842999Y26942042D01*
X31842999Y26942042D02*
X31874428Y26847757D01*
X31874428Y26847757D02*
X31937285Y26784900D01*
X31937285Y26784900D02*
X32031571Y26753471D01*
X32031571Y26753471D02*
X32094428Y26753471D01*
X31245857Y27193471D02*
X31245857Y26753471D01*
X31402999Y27444900D02*
X31560142Y26973471D01*
X31560142Y26973471D02*
X31151571Y26973471D01*
X23157285Y11642328D02*
X23188713Y11610900D01*
X23188713Y11610900D02*
X23282999Y11579471D01*
X23282999Y11579471D02*
X23345856Y11579471D01*
X23345856Y11579471D02*
X23440142Y11610900D01*
X23440142Y11610900D02*
X23502999Y11673757D01*
X23502999Y11673757D02*
X23534428Y11736614D01*
X23534428Y11736614D02*
X23565856Y11862328D01*
X23565856Y11862328D02*
X23565856Y11956614D01*
X23565856Y11956614D02*
X23534428Y12082328D01*
X23534428Y12082328D02*
X23502999Y12145185D01*
X23502999Y12145185D02*
X23440142Y12208042D01*
X23440142Y12208042D02*
X23345856Y12239471D01*
X23345856Y12239471D02*
X23282999Y12239471D01*
X23282999Y12239471D02*
X23188713Y12208042D01*
X23188713Y12208042D02*
X23157285Y12176614D01*
X22528713Y11579471D02*
X22905856Y11579471D01*
X22717285Y11579471D02*
X22717285Y12239471D01*
X22717285Y12239471D02*
X22780142Y12145185D01*
X22780142Y12145185D02*
X22842999Y12082328D01*
X22842999Y12082328D02*
X22905856Y12050900D01*
X22277285Y12176614D02*
X22245857Y12208042D01*
X22245857Y12208042D02*
X22183000Y12239471D01*
X22183000Y12239471D02*
X22025857Y12239471D01*
X22025857Y12239471D02*
X21963000Y12208042D01*
X21963000Y12208042D02*
X21931571Y12176614D01*
X21931571Y12176614D02*
X21900142Y12113757D01*
X21900142Y12113757D02*
X21900142Y12050900D01*
X21900142Y12050900D02*
X21931571Y11956614D01*
X21931571Y11956614D02*
X22308714Y11579471D01*
X22308714Y11579471D02*
X21900142Y11579471D01*
X44366285Y12148471D02*
X44586285Y12462757D01*
X44743428Y12148471D02*
X44743428Y12808471D01*
X44743428Y12808471D02*
X44491999Y12808471D01*
X44491999Y12808471D02*
X44429142Y12777042D01*
X44429142Y12777042D02*
X44397713Y12745614D01*
X44397713Y12745614D02*
X44366285Y12682757D01*
X44366285Y12682757D02*
X44366285Y12588471D01*
X44366285Y12588471D02*
X44397713Y12525614D01*
X44397713Y12525614D02*
X44429142Y12494185D01*
X44429142Y12494185D02*
X44491999Y12462757D01*
X44491999Y12462757D02*
X44743428Y12462757D01*
X44114856Y12745614D02*
X44083428Y12777042D01*
X44083428Y12777042D02*
X44020571Y12808471D01*
X44020571Y12808471D02*
X43863428Y12808471D01*
X43863428Y12808471D02*
X43800571Y12777042D01*
X43800571Y12777042D02*
X43769142Y12745614D01*
X43769142Y12745614D02*
X43737713Y12682757D01*
X43737713Y12682757D02*
X43737713Y12619900D01*
X43737713Y12619900D02*
X43769142Y12525614D01*
X43769142Y12525614D02*
X44146285Y12148471D01*
X44146285Y12148471D02*
X43737713Y12148471D01*
X43517714Y12808471D02*
X43109142Y12808471D01*
X43109142Y12808471D02*
X43329142Y12557042D01*
X43329142Y12557042D02*
X43234857Y12557042D01*
X43234857Y12557042D02*
X43172000Y12525614D01*
X43172000Y12525614D02*
X43140571Y12494185D01*
X43140571Y12494185D02*
X43109142Y12431328D01*
X43109142Y12431328D02*
X43109142Y12274185D01*
X43109142Y12274185D02*
X43140571Y12211328D01*
X43140571Y12211328D02*
X43172000Y12179900D01*
X43172000Y12179900D02*
X43234857Y12148471D01*
X43234857Y12148471D02*
X43423428Y12148471D01*
X43423428Y12148471D02*
X43486285Y12179900D01*
X43486285Y12179900D02*
X43517714Y12211328D01*
X13808999Y14128071D02*
X13808999Y13656642D01*
X13808999Y13656642D02*
X13840428Y13562357D01*
X13840428Y13562357D02*
X13903285Y13499500D01*
X13903285Y13499500D02*
X13997571Y13468071D01*
X13997571Y13468071D02*
X14060428Y13468071D01*
X13463285Y13468071D02*
X13337571Y13468071D01*
X13337571Y13468071D02*
X13274714Y13499500D01*
X13274714Y13499500D02*
X13243285Y13530928D01*
X13243285Y13530928D02*
X13180428Y13625214D01*
X13180428Y13625214D02*
X13148999Y13750928D01*
X13148999Y13750928D02*
X13148999Y14002357D01*
X13148999Y14002357D02*
X13180428Y14065214D01*
X13180428Y14065214D02*
X13211857Y14096642D01*
X13211857Y14096642D02*
X13274714Y14128071D01*
X13274714Y14128071D02*
X13400428Y14128071D01*
X13400428Y14128071D02*
X13463285Y14096642D01*
X13463285Y14096642D02*
X13494714Y14065214D01*
X13494714Y14065214D02*
X13526142Y14002357D01*
X13526142Y14002357D02*
X13526142Y13845214D01*
X13526142Y13845214D02*
X13494714Y13782357D01*
X13494714Y13782357D02*
X13463285Y13750928D01*
X13463285Y13750928D02*
X13400428Y13719500D01*
X13400428Y13719500D02*
X13274714Y13719500D01*
X13274714Y13719500D02*
X13211857Y13750928D01*
X13211857Y13750928D02*
X13180428Y13782357D01*
X13180428Y13782357D02*
X13148999Y13845214D01*
D12*
%TO.C,R25*%
X48487000Y12673064D02*
X48487000Y12218936D01*
X47017000Y12673064D02*
X47017000Y12218936D01*
%TO.C,C13*%
X21436000Y11615748D02*
X21436000Y12138252D01*
X19966000Y11615748D02*
X19966000Y12138252D01*
%TO.C,IPC2*%
X46890001Y4305289D02*
X46890001Y6965289D01*
X46890001Y4305289D02*
X11160001Y4305289D01*
X46890001Y6965289D02*
X11160001Y6965289D01*
X11160001Y4305289D02*
X11160001Y6965289D01*
X9890001Y4305289D02*
X8560001Y4305289D01*
X8560001Y4305289D02*
X8560001Y5635289D01*
%TO.C,Q8*%
X53463400Y8383200D02*
X53223400Y8713200D01*
X53703400Y8713200D01*
X53463400Y8383200D01*
G36*
X53463400Y8383200D02*
G01*
X53223400Y8713200D01*
X53703400Y8713200D01*
X53463400Y8383200D01*
G37*
X52950900Y5313200D02*
X52300900Y5313200D01*
X52950900Y8433200D02*
X52300900Y8433200D01*
X51650900Y5313200D02*
X52300900Y5313200D01*
X51650900Y8433200D02*
X52300900Y8433200D01*
%TO.C,BZ1*%
X71558400Y7200000D02*
X71558400Y11200000D01*
X69208400Y13550000D02*
X65208400Y13550000D01*
X65208400Y4850000D02*
X69208400Y4850000D01*
X63158400Y4150000D02*
X62158400Y4150000D01*
X62858400Y11200000D02*
X62858400Y7200000D01*
X62158400Y4150000D02*
X62158400Y5150000D01*
%TO.C,R24*%
X46582000Y12677047D02*
X46582000Y12222919D01*
X45112000Y12677047D02*
X45112000Y12222919D01*
%TO.C,R18*%
X17372000Y12038064D02*
X17372000Y11583936D01*
X15902000Y12038064D02*
X15902000Y11583936D01*
%TO.C,R20*%
X19404000Y12022064D02*
X19404000Y11567936D01*
X17934000Y12022064D02*
X17934000Y11567936D01*
%TO.C,C15*%
X52093800Y12808852D02*
X52093800Y12286348D01*
X50623800Y12808852D02*
X50623800Y12286348D01*
%TO.C,R21*%
X38835000Y12546064D02*
X38835000Y12091936D01*
X37365000Y12546064D02*
X37365000Y12091936D01*
%TO.C,R19*%
X17380136Y19026200D02*
X17834264Y19026200D01*
X17380136Y20496200D02*
X17834264Y20496200D01*
%TO.C,D27*%
X74366000Y8909600D02*
X74366000Y11769600D01*
X72446000Y8909600D02*
X74366000Y8909600D01*
X72446000Y11769600D02*
X72446000Y8909600D01*
%TO.C,C10*%
X17315548Y25122200D02*
X17838052Y25122200D01*
X17315548Y26592200D02*
X17838052Y26592200D01*
%TO.C,C9*%
X17853252Y21058200D02*
X17330748Y21058200D01*
X17853252Y22528200D02*
X17330748Y22528200D01*
%TO.C,C11*%
X17366348Y23090200D02*
X17888852Y23090200D01*
X17366348Y24560200D02*
X17888852Y24560200D01*
%TO.C,J12*%
D11*
X36834000Y16415200D02*
X51584000Y16415200D01*
X51584000Y30915200D01*
X36834000Y30915200D01*
X36834000Y16415200D01*
D12*
%TO.C,Q9*%
X16783600Y15228800D02*
X16303600Y15228800D01*
X16543600Y15558800D01*
X16783600Y15228800D01*
G36*
X16783600Y15228800D02*
G01*
X16303600Y15228800D01*
X16543600Y15558800D01*
X16783600Y15228800D01*
G37*
X18356100Y15508800D02*
X17706100Y15508800D01*
X18356100Y18628800D02*
X17706100Y18628800D01*
X17056100Y15508800D02*
X17706100Y15508800D01*
X17056100Y18628800D02*
X17706100Y18628800D01*
%TO.C,R22*%
X40740000Y12546064D02*
X40740000Y12091936D01*
X39270000Y12546064D02*
X39270000Y12091936D01*
%TO.C,R27*%
X50011000Y5919736D02*
X50011000Y6373864D01*
X48541000Y5919736D02*
X48541000Y6373864D01*
%TO.C,R13*%
X48604664Y8256600D02*
X48150536Y8256600D01*
X48604664Y9726600D02*
X48150536Y9726600D01*
%TO.C,J4*%
X32310000Y9510800D02*
X32310000Y27810800D01*
X32310000Y27810800D02*
X30570000Y27810800D01*
X30570000Y9510800D02*
X32310000Y9510800D01*
X27850000Y9510800D02*
X26510000Y9510800D01*
X27850000Y27810800D02*
X26510000Y27810800D01*
X26510000Y9510800D02*
X26510000Y11000800D01*
X26510000Y27810800D02*
X26510000Y26320800D01*
X25310000Y26320800D02*
X26510000Y26320800D01*
%TO.C,C12*%
X23468000Y11615748D02*
X23468000Y12138252D01*
X21998000Y11615748D02*
X21998000Y12138252D01*
%TO.C,R23*%
X44677000Y12673064D02*
X44677000Y12218936D01*
X43207000Y12673064D02*
X43207000Y12218936D01*
%TO.C,J9*%
X14625200Y9370200D02*
X14625200Y15570200D01*
X14625200Y9370200D02*
X13500200Y9370200D01*
X13500200Y7970200D02*
X13500200Y9370200D01*
X11950200Y7970200D02*
X11950200Y9370200D01*
X11950200Y9370200D02*
X9550200Y9370200D01*
X7900200Y9370200D02*
X6550200Y9370200D01*
X4900200Y9370200D02*
X2525200Y9370200D01*
X2525200Y9970200D02*
X2525200Y9370200D01*
X2525200Y15570200D02*
X13050200Y15570200D01*
X2525200Y15570200D02*
X2525200Y14970200D01*
X525200Y9970200D02*
X2525200Y9970200D01*
X525200Y14970200D02*
X2525200Y14970200D01*
X525200Y14970200D02*
X525200Y9970200D01*
%TD*%
M02*
