%TF.GenerationSoftware,KiCad,Pcbnew,8.0.5-8.0.5-0~ubuntu22.04.1*%
%TF.CreationDate,2024-11-26T13:48:27+00:00*%
%TF.ProjectId,numcalcium,6e756d63-616c-4636-9975-6d2e6b696361,rev?*%
%TF.SameCoordinates,Original*%
%TF.FileFunction,Copper,L1,Top*%
%TF.FilePolarity,Positive*%
%FSLAX46Y46*%
G04 Gerber Fmt 4.6, Leading zero omitted, Abs format (unit mm)*
G04 Created by KiCad (PCBNEW 8.0.5-8.0.5-0~ubuntu22.04.1) date 2024-11-26 13:48:27*
%MOMM*%
%LPD*%
G01*
G04 APERTURE LIST*
%TA.AperFunction,SMDPad,CuDef*%
%ADD10R,0.700000X0.700000*%
%TD*%
%TA.AperFunction,ViaPad*%
%ADD11C,0.800000*%
%TD*%
%TA.AperFunction,Conductor*%
%ADD12C,0.250000*%
%TD*%
%TA.AperFunction,Conductor*%
%ADD13C,0.500000*%
%TD*%
G04 APERTURE END LIST*
D10*
%TO.P,D26,4,VDD*%
%TO.N,/Front/VDD*%
X70696000Y30285000D03*
%TO.P,D26,3,DIN*%
%TO.N,/Front/LED*%
X69596000Y30285000D03*
%TO.P,D26,2,VSS*%
%TO.N,GND*%
X69596000Y32115000D03*
%TO.P,D26,1,DOUT*%
%TO.N,unconnected-(D26-DOUT-Pad1)*%
X70696000Y32115000D03*
%TD*%
D11*
%TO.N,GND*%
X40640000Y20828000D03*
X28448000Y7620000D03*
X49784000Y26924000D03*
X69638000Y31195002D03*
X21971000Y17526000D03*
X20066000Y25019000D03*
X55372000Y10160000D03*
X15748000Y8128000D03*
X13970000Y22098000D03*
X29464000Y16764000D03*
X28702000Y23876000D03*
X1270000Y9398000D03*
X46736000Y18542000D03*
X38100000Y26924000D03*
X31496000Y16764000D03*
X25400000Y9046999D03*
X15240000Y33020000D03*
X14732000Y10668000D03*
X20320000Y22860000D03*
X5588000Y29210000D03*
X28575000Y13589000D03*
X34544000Y15494000D03*
X53340000Y16256000D03*
X45720000Y19304000D03*
X4064000Y14732000D03*
X55473600Y4978400D03*
X38100000Y24384000D03*
X51308000Y18288000D03*
X11684000Y16256000D03*
X4064000Y10160000D03*
X34544000Y21336000D03*
X49784000Y24384000D03*
X14224000Y18288000D03*
X24384000Y8128000D03*
X31496000Y14224000D03*
X14224000Y8128000D03*
X24257000Y17399000D03*
X17526000Y27178000D03*
X42164000Y19812000D03*
X28575000Y15494000D03*
X55372000Y15240000D03*
X33274000Y12192000D03*
X20320000Y19685000D03*
X55372000Y20320000D03*
X45974000Y9144000D03*
X23876000Y13970000D03*
X35306000Y8382000D03*
X18796000Y15748000D03*
X43434000Y8636000D03*
X34544000Y17272000D03*
X40640000Y9652000D03*
X34544000Y24384000D03*
X24257000Y26289000D03*
X54356000Y26924000D03*
X47752000Y17780000D03*
X23622000Y20955000D03*
X25400000Y33020000D03*
X35052000Y10414000D03*
X36576000Y21336000D03*
X24384000Y23114000D03*
X43688000Y19304000D03*
X5080000Y33020000D03*
X24373999Y14986000D03*
X34544000Y26924000D03*
X38354000Y8382000D03*
X38608000Y21336000D03*
X29210000Y21590000D03*
X36068000Y13716000D03*
X54356000Y24384000D03*
X6604000Y25400000D03*
X16764000Y9144000D03*
X11684000Y14732000D03*
X23622000Y18923000D03*
X47498000Y5588000D03*
X23622000Y19939000D03*
X48768000Y16256000D03*
X23241000Y26289000D03*
X50800000Y5588000D03*
%TO.N,/Front/VDD*%
X51511200Y10261600D03*
X61518800Y6858000D03*
X70908000Y31200000D03*
%TO.N,Net-(C12-Pad1)*%
X15524000Y14782000D03*
X21266940Y14127824D03*
%TO.N,Net-(C13-Pad1)*%
X20320000Y13970000D03*
X14605000Y13716000D03*
%TO.N,/Front/LED*%
X42595000Y10337000D03*
X68645631Y30207631D03*
X40386000Y7188200D03*
%TO.N,/Front/LCD_DC*%
X28066084Y20422494D03*
X20955000Y9046999D03*
%TO.N,/Front/MISO*%
X19050000Y7366000D03*
X39751000Y17653000D03*
X28067226Y18470998D03*
%TO.N,/Front/CK*%
X19541626Y8474137D03*
X41910000Y17780000D03*
X28064394Y21392655D03*
%TO.N,/Front/MOSI*%
X28066507Y19431000D03*
X44196000Y17653000D03*
X20066000Y7670000D03*
%TO.N,/Front/LCD_CS*%
X18517487Y8164770D03*
X28099928Y22352000D03*
%TO.N,/Front/SD_CS*%
X21881152Y7455848D03*
X45466000Y17526000D03*
%TO.N,/Front/SD_DET*%
X37719000Y17399000D03*
X18281007Y9150993D03*
%TO.N,/Front/BUZZER*%
X43326574Y9652000D03*
X42875200Y7162800D03*
%TD*%
D12*
%TO.N,GND*%
X23622000Y18923000D02*
X23622000Y19939000D01*
X69596000Y31237002D02*
X69596000Y32115000D01*
X69638000Y31195002D02*
X69596000Y31237002D01*
X23622000Y25654000D02*
X23622000Y19939000D01*
X23241000Y26289000D02*
X23241000Y26035000D01*
X23241000Y26035000D02*
X23622000Y25654000D01*
X24257000Y26289000D02*
X23622000Y25654000D01*
D13*
%TO.N,/Front/VDD*%
X56642000Y6858000D02*
X61518800Y6858000D01*
X51511200Y10261600D02*
X53238400Y10261600D01*
D12*
X70908000Y30497000D02*
X70696000Y30285000D01*
D13*
X53238400Y10261600D02*
X56540400Y6959600D01*
X56540400Y6959600D02*
X56642000Y6858000D01*
D12*
X70908000Y31200000D02*
X70908000Y30497000D01*
%TO.N,Net-(C12-Pad1)*%
X21266940Y14127824D02*
X20612764Y14782000D01*
X20612764Y14782000D02*
X15524000Y14782000D01*
%TO.N,Net-(C13-Pad1)*%
X14732000Y13716000D02*
X14605000Y13716000D01*
X14986000Y13970000D02*
X14732000Y13716000D01*
X20320000Y13970000D02*
X14986000Y13970000D01*
%TO.N,/Front/LED*%
X68645631Y30207631D02*
X69518631Y30207631D01*
X69518631Y30207631D02*
X69596000Y30285000D01*
X40386000Y8128000D02*
X40386000Y7188200D01*
X42595000Y10337000D02*
X40386000Y8128000D01*
%TO.N,/Front/LCD_DC*%
X28066084Y20422494D02*
X27915494Y20422494D01*
X25879000Y13582090D02*
X21343909Y9046999D01*
X27915494Y20422494D02*
X25879000Y18386000D01*
X25879000Y18386000D02*
X25879000Y13582090D01*
X21343909Y9046999D02*
X20955000Y9046999D01*
%TO.N,/Front/MISO*%
X26699001Y17174001D02*
X26699001Y13242435D01*
X27995998Y18470998D02*
X26699001Y17174001D01*
X28075242Y18470998D02*
X28625244Y19021000D01*
X28067226Y18470998D02*
X27995998Y18470998D01*
X38383000Y19021000D02*
X39751000Y17653000D01*
X28067226Y18470998D02*
X28075242Y18470998D01*
X26699001Y13242435D02*
X20441566Y6985000D01*
X28625244Y19021000D02*
X38383000Y19021000D01*
X20441566Y6985000D02*
X19431000Y6985000D01*
X19431000Y6985000D02*
X19050000Y7366000D01*
%TO.N,/Front/CK*%
X27381084Y20650084D02*
X25468999Y18737999D01*
X28064394Y21392655D02*
X27381084Y20709345D01*
X29616048Y19841001D02*
X39848999Y19841001D01*
X28064394Y21392655D02*
X29616048Y19841001D01*
X21449081Y9731999D02*
X20671263Y9731999D01*
X20671263Y9731999D02*
X19541626Y8602362D01*
X25468999Y18737999D02*
X25468999Y13751917D01*
X25468999Y13751917D02*
X21449081Y9731999D01*
X39848999Y19841001D02*
X41910000Y17780000D01*
X19541626Y8602362D02*
X19541626Y8474137D01*
X27381084Y20709345D02*
X27381084Y20650084D01*
%TO.N,/Front/MOSI*%
X43638000Y17095000D02*
X44196000Y17653000D01*
X41626263Y17095000D02*
X43638000Y17095000D01*
X28066507Y19431000D02*
X39290263Y19431000D01*
X20546738Y7670000D02*
X20066000Y7670000D01*
X28003500Y19431000D02*
X26289000Y17716500D01*
X26289000Y13412262D02*
X20546738Y7670000D01*
X26289000Y17716500D02*
X26289000Y13412262D01*
X39290263Y19431000D02*
X41626263Y17095000D01*
X28066507Y19431000D02*
X28003500Y19431000D01*
%TO.N,/Front/LCD_CS*%
X28099928Y22352000D02*
X28055002Y22352000D01*
X18517487Y8418735D02*
X18517487Y8164770D01*
X25058999Y13921745D02*
X21279253Y10141999D01*
X28055002Y22352000D02*
X27379394Y21676392D01*
X27379394Y21410394D02*
X25058999Y19089999D01*
X27379394Y21676392D02*
X27379394Y21410394D01*
X25058999Y19089999D02*
X25058999Y13921745D01*
X21279253Y10141999D02*
X20240751Y10141999D01*
X20240751Y10141999D02*
X18517487Y8418735D01*
%TO.N,/Front/SD_CS*%
X27178000Y16383000D02*
X29406000Y18611000D01*
X21881152Y7455848D02*
X21881152Y7844758D01*
X27178000Y13141606D02*
X27178000Y16383000D01*
X39750263Y16685000D02*
X44625000Y16685000D01*
X37824263Y18611000D02*
X39750263Y16685000D01*
X21881152Y7844758D02*
X27178000Y13141606D01*
X44625000Y16685000D02*
X45466000Y17526000D01*
X29406000Y18611000D02*
X37824263Y18611000D01*
%TO.N,/Front/SD_DET*%
X27588000Y16213172D02*
X27588000Y12971778D01*
X29535828Y18161000D02*
X27588000Y16213172D01*
X18825000Y6575000D02*
X17832487Y7567513D01*
X36957000Y18161000D02*
X29535828Y18161000D01*
X22611611Y7995389D02*
X22611611Y7217570D01*
X27588000Y12971778D02*
X22611611Y7995389D01*
X21969041Y6575000D02*
X18825000Y6575000D01*
X17832487Y7567513D02*
X17832487Y8702473D01*
X17832487Y8702473D02*
X18281007Y9150993D01*
X37719000Y17399000D02*
X36957000Y18161000D01*
X22611611Y7217570D02*
X21969041Y6575000D01*
%TO.N,/Front/BUZZER*%
X42875200Y7162800D02*
X42749000Y7289000D01*
X42749000Y7289000D02*
X42749000Y8077200D01*
X42749000Y8077200D02*
X42749000Y9074426D01*
X42749000Y9074426D02*
X43326574Y9652000D01*
%TD*%
%TA.AperFunction,Conductor*%
%TO.N,GND*%
G36*
X33487191Y34015336D02*
G01*
X33523155Y33965836D01*
X33528000Y33935243D01*
X33528000Y27432000D01*
X39224335Y27432000D01*
X39282526Y27413093D01*
X39318490Y27363593D01*
X39318490Y27302407D01*
X39282526Y27252907D01*
X39243649Y27235902D01*
X39223698Y27231933D01*
X39098626Y27207055D01*
X39098624Y27207054D01*
X38939299Y27141060D01*
X38939287Y27141054D01*
X38857034Y27086093D01*
X38795901Y27045245D01*
X38673955Y26923299D01*
X38646660Y26882449D01*
X38578145Y26779912D01*
X38578139Y26779900D01*
X38512145Y26620575D01*
X38512145Y26620573D01*
X38478500Y26451431D01*
X38478500Y26278968D01*
X38512145Y26109826D01*
X38512145Y26109824D01*
X38578139Y25950499D01*
X38578145Y25950487D01*
X38673955Y25807101D01*
X38673958Y25807097D01*
X38795897Y25685158D01*
X38795901Y25685155D01*
X38939287Y25589345D01*
X38939299Y25589339D01*
X39098625Y25523345D01*
X39267768Y25489700D01*
X39267771Y25489700D01*
X39440231Y25489700D01*
X39552992Y25512130D01*
X39609374Y25523345D01*
X39609375Y25523345D01*
X39768700Y25589339D01*
X39768712Y25589345D01*
X39871249Y25657860D01*
X39912099Y25685155D01*
X40034045Y25807101D01*
X40074893Y25868234D01*
X40129854Y25950487D01*
X40129860Y25950499D01*
X40195854Y26109824D01*
X40195855Y26109826D01*
X40229500Y26278971D01*
X40229500Y26451429D01*
X40195855Y26620574D01*
X40129858Y26779905D01*
X40129856Y26779907D01*
X40129854Y26779912D01*
X40102188Y26821315D01*
X40034045Y26923299D01*
X39912099Y27045245D01*
X39810115Y27113388D01*
X39768712Y27141054D01*
X39768707Y27141056D01*
X39768705Y27141058D01*
X39609374Y27207055D01*
X39484301Y27231933D01*
X39464351Y27235902D01*
X39410967Y27265799D01*
X39385351Y27321364D01*
X39397288Y27381374D01*
X39442218Y27422906D01*
X39483665Y27432000D01*
X47204335Y27432000D01*
X47262526Y27413093D01*
X47298490Y27363593D01*
X47298490Y27302407D01*
X47262526Y27252907D01*
X47223649Y27235902D01*
X47203698Y27231933D01*
X47078626Y27207055D01*
X47078624Y27207054D01*
X46919299Y27141060D01*
X46919287Y27141054D01*
X46837034Y27086093D01*
X46775901Y27045245D01*
X46653955Y26923299D01*
X46626660Y26882449D01*
X46558145Y26779912D01*
X46558139Y26779900D01*
X46492145Y26620575D01*
X46492145Y26620573D01*
X46458500Y26451431D01*
X46458500Y26278968D01*
X46492145Y26109826D01*
X46492145Y26109824D01*
X46558139Y25950499D01*
X46558145Y25950487D01*
X46653955Y25807101D01*
X46653958Y25807097D01*
X46775897Y25685158D01*
X46775901Y25685155D01*
X46919287Y25589345D01*
X46919299Y25589339D01*
X47078625Y25523345D01*
X47247768Y25489700D01*
X47247771Y25489700D01*
X47420231Y25489700D01*
X47532992Y25512130D01*
X47589374Y25523345D01*
X47589375Y25523345D01*
X47748700Y25589339D01*
X47748712Y25589345D01*
X47851249Y25657860D01*
X47892099Y25685155D01*
X48014045Y25807101D01*
X48054893Y25868234D01*
X48109854Y25950487D01*
X48109860Y25950499D01*
X48175854Y26109824D01*
X48175855Y26109826D01*
X48209500Y26278971D01*
X48209500Y26451429D01*
X48175855Y26620574D01*
X48109858Y26779905D01*
X48109856Y26779907D01*
X48109854Y26779912D01*
X48082188Y26821315D01*
X48014045Y26923299D01*
X47892099Y27045245D01*
X47790115Y27113388D01*
X47748712Y27141054D01*
X47748707Y27141056D01*
X47748705Y27141058D01*
X47589374Y27207055D01*
X47464301Y27231933D01*
X47444351Y27235902D01*
X47390967Y27265799D01*
X47365351Y27321364D01*
X47377288Y27381374D01*
X47422218Y27422906D01*
X47463665Y27432000D01*
X57813000Y27432000D01*
X57871191Y27413093D01*
X57907155Y27363593D01*
X57912000Y27333000D01*
X57912000Y26311800D01*
X57893093Y26253609D01*
X57843593Y26217645D01*
X57813000Y26212800D01*
X56995378Y26212800D01*
X56995378Y7874000D01*
X57813000Y7874000D01*
X57871191Y7855093D01*
X57907155Y7805593D01*
X57912000Y7775000D01*
X57912000Y7457500D01*
X57893093Y7399309D01*
X57843593Y7363345D01*
X57813000Y7358500D01*
X56890320Y7358500D01*
X56832129Y7377407D01*
X56820316Y7387496D01*
X56030377Y8177435D01*
X53545714Y10662100D01*
X53431589Y10727990D01*
X53431588Y10727990D01*
X53431586Y10727992D01*
X53304292Y10762100D01*
X53304290Y10762100D01*
X51964763Y10762100D01*
X51906572Y10781007D01*
X51899113Y10786998D01*
X51898403Y10787626D01*
X51883440Y10800883D01*
X51743565Y10874296D01*
X51590185Y10912100D01*
X51432215Y10912100D01*
X51278835Y10874296D01*
X51138960Y10800883D01*
X51116525Y10781007D01*
X51020715Y10696128D01*
X50930980Y10566123D01*
X50884087Y10442474D01*
X50874963Y10418417D01*
X50874962Y10418416D01*
X50855922Y10261601D01*
X50855922Y10261598D01*
X50874962Y10104783D01*
X50874963Y10104782D01*
X50930980Y9957076D01*
X51020715Y9827071D01*
X51138958Y9722318D01*
X51278835Y9648903D01*
X51432212Y9611100D01*
X51432215Y9611100D01*
X51590187Y9611100D01*
X51743564Y9648903D01*
X51822392Y9690276D01*
X51883440Y9722317D01*
X51899113Y9736202D01*
X51955207Y9760638D01*
X51964763Y9761100D01*
X52990078Y9761100D01*
X53048269Y9742193D01*
X53060082Y9732104D01*
X56139900Y6652286D01*
X56139899Y6652285D01*
X56334685Y6457500D01*
X56334690Y6457496D01*
X56448810Y6391609D01*
X56448808Y6391609D01*
X56516454Y6373483D01*
X56576107Y6357500D01*
X56576108Y6357500D01*
X56576109Y6357500D01*
X57813000Y6357500D01*
X57871191Y6338593D01*
X57907155Y6289093D01*
X57912000Y6258500D01*
X57912000Y4161243D01*
X57893093Y4103052D01*
X57843593Y4067088D01*
X57813000Y4062243D01*
X3388219Y4062243D01*
X3386968Y4062251D01*
X3385748Y4062266D01*
X3189865Y4064741D01*
X3180781Y4065274D01*
X2788082Y4106548D01*
X2777873Y4108164D01*
X2392244Y4190132D01*
X2382254Y4192810D01*
X2007332Y4314631D01*
X1997658Y4318344D01*
X1637531Y4478682D01*
X1628307Y4483381D01*
X1286888Y4680499D01*
X1278224Y4686126D01*
X959265Y4917862D01*
X951245Y4924358D01*
X658268Y5188156D01*
X650960Y5195464D01*
X387162Y5488441D01*
X380666Y5496461D01*
X148930Y5815420D01*
X143303Y5824084D01*
X-53814Y6165503D01*
X-58516Y6174732D01*
X-75240Y6212294D01*
X-155075Y6391609D01*
X-218851Y6534854D01*
X-222564Y6544528D01*
X-248974Y6625808D01*
X1161982Y6625808D01*
X1161982Y6410471D01*
X1201549Y6198803D01*
X1201550Y6198801D01*
X1279339Y5998005D01*
X1387017Y5824098D01*
X1392699Y5814921D01*
X1537775Y5655780D01*
X1709606Y5526021D01*
X1709621Y5526012D01*
X1902373Y5430033D01*
X1902375Y5430032D01*
X1902376Y5430032D01*
X2109492Y5371102D01*
X2323911Y5351233D01*
X2538330Y5371102D01*
X2745446Y5430032D01*
X2938208Y5526016D01*
X2938215Y5526021D01*
X3110046Y5655780D01*
X3110051Y5655785D01*
X3255123Y5814921D01*
X3368483Y5998005D01*
X3446272Y6198801D01*
X3485840Y6410471D01*
X3488324Y6518140D01*
X3485840Y6625809D01*
X3446272Y6837479D01*
X3368483Y7038275D01*
X3255123Y7221359D01*
X3110051Y7380495D01*
X2938208Y7510264D01*
X2745446Y7606248D01*
X2538330Y7665178D01*
X2323911Y7685047D01*
X2109492Y7665178D01*
X1902376Y7606248D01*
X1709614Y7510264D01*
X1709606Y7510258D01*
X1537775Y7380499D01*
X1537772Y7380495D01*
X1537771Y7380495D01*
X1392699Y7221359D01*
X1279339Y7038275D01*
X1233306Y6919450D01*
X1201549Y6837476D01*
X1181135Y6728271D01*
X1166932Y6652286D01*
X1161982Y6625808D01*
X-248974Y6625808D01*
X-344385Y6919450D01*
X-347068Y6929460D01*
X-429028Y7315056D01*
X-430649Y7325291D01*
X-471920Y7717971D01*
X-472454Y7727068D01*
X-474945Y7924163D01*
X-474953Y7925414D01*
X-474953Y8751908D01*
X17456987Y8751908D01*
X17456987Y7518078D01*
X17463781Y7492723D01*
X17482578Y7422570D01*
X17518415Y7360499D01*
X17518416Y7360500D01*
X17532012Y7336950D01*
X18524525Y6344438D01*
X18524524Y6344437D01*
X18594438Y6274524D01*
X18680058Y6225091D01*
X18680062Y6225089D01*
X18727812Y6212294D01*
X18727813Y6212295D01*
X18775564Y6199500D01*
X18775565Y6199500D01*
X22018479Y6199500D01*
X22066225Y6212294D01*
X22066226Y6212294D01*
X22113975Y6225088D01*
X22113982Y6225091D01*
X22199602Y6274524D01*
X22269516Y6344437D01*
X22269516Y6344438D01*
X22912085Y6987007D01*
X22912085Y6987006D01*
X22912086Y6987007D01*
X22961519Y7072628D01*
X22961520Y7072630D01*
X22982998Y7152786D01*
X22982999Y7152785D01*
X22982999Y7152789D01*
X22987111Y7168134D01*
X22987111Y7188201D01*
X39730722Y7188201D01*
X39730722Y7188198D01*
X39749762Y7031383D01*
X39749763Y7031382D01*
X39805780Y6883676D01*
X39895515Y6753671D01*
X40013758Y6648918D01*
X40153635Y6575503D01*
X40307012Y6537700D01*
X40307015Y6537700D01*
X40464987Y6537700D01*
X40618364Y6575503D01*
X40714212Y6625809D01*
X40758240Y6648917D01*
X40876483Y6753670D01*
X40966220Y6883677D01*
X41022237Y7031382D01*
X41041278Y7188200D01*
X41022237Y7345018D01*
X40966220Y7492723D01*
X40876483Y7622730D01*
X40794850Y7695048D01*
X40763833Y7747786D01*
X40761500Y7769150D01*
X40761500Y7931454D01*
X40780407Y7989645D01*
X40790496Y8001458D01*
X42446542Y9657504D01*
X42501059Y9685281D01*
X42516546Y9686500D01*
X42579401Y9686500D01*
X42637592Y9667593D01*
X42673556Y9618093D01*
X42677680Y9599422D01*
X42678938Y9589052D01*
X42667177Y9529008D01*
X42650663Y9507126D01*
X42518438Y9374901D01*
X42518437Y9374901D01*
X42448524Y9304987D01*
X42399091Y9219368D01*
X42396067Y9208083D01*
X42373500Y9123861D01*
X42373500Y9123859D01*
X42373500Y7611927D01*
X42355975Y7555690D01*
X42294980Y7467323D01*
X42241115Y7325291D01*
X42238963Y7319617D01*
X42238962Y7319616D01*
X42219922Y7162801D01*
X42219922Y7162798D01*
X42238962Y7005983D01*
X42238963Y7005982D01*
X42294980Y6858276D01*
X42384715Y6728271D01*
X42502958Y6623518D01*
X42642835Y6550103D01*
X42796212Y6512300D01*
X42796215Y6512300D01*
X42954187Y6512300D01*
X43107564Y6550103D01*
X43177502Y6586810D01*
X43247440Y6623517D01*
X43365683Y6728270D01*
X43455420Y6858277D01*
X43511437Y7005982D01*
X43519529Y7072628D01*
X43530478Y7162798D01*
X43530478Y7162801D01*
X43511437Y7319616D01*
X43511437Y7319618D01*
X43455420Y7467323D01*
X43365683Y7597330D01*
X43247440Y7702083D01*
X43177492Y7738794D01*
X43134754Y7782578D01*
X43124500Y7826454D01*
X43124500Y8877881D01*
X43143407Y8936072D01*
X43153496Y8947885D01*
X43178115Y8972504D01*
X43232632Y9000281D01*
X43248119Y9001500D01*
X43405561Y9001500D01*
X43558938Y9039303D01*
X43651825Y9088055D01*
X43698814Y9112717D01*
X43817057Y9217470D01*
X43818365Y9219364D01*
X43906793Y9347476D01*
X43906794Y9347477D01*
X43962811Y9495182D01*
X43981852Y9652000D01*
X43977204Y9690276D01*
X43968605Y9761100D01*
X43962811Y9808818D01*
X43906794Y9956523D01*
X43817057Y10086530D01*
X43698814Y10191283D01*
X43558939Y10264696D01*
X43405559Y10302500D01*
X43342173Y10302500D01*
X43283982Y10321407D01*
X43248018Y10370907D01*
X43243895Y10389567D01*
X43231237Y10493816D01*
X43231237Y10493818D01*
X43175220Y10641523D01*
X43085483Y10771530D01*
X42967240Y10876283D01*
X42827365Y10949696D01*
X42673985Y10987500D01*
X42516015Y10987500D01*
X42362635Y10949696D01*
X42222760Y10876283D01*
X42115215Y10781007D01*
X42104515Y10771528D01*
X42052472Y10696130D01*
X42014780Y10641523D01*
X41968207Y10518718D01*
X41958763Y10493817D01*
X41958762Y10493816D01*
X41939722Y10337001D01*
X41939722Y10336997D01*
X41947363Y10274062D01*
X41935607Y10214017D01*
X41919089Y10192126D01*
X40155438Y8428475D01*
X40155437Y8428475D01*
X40085524Y8358561D01*
X40036089Y8272938D01*
X40036090Y8272938D01*
X40036090Y8272937D01*
X40015118Y8194668D01*
X40010500Y8177435D01*
X40010500Y8177433D01*
X40010500Y7769150D01*
X39991593Y7710959D01*
X39977154Y7695052D01*
X39895517Y7622730D01*
X39895515Y7622728D01*
X39849241Y7555688D01*
X39805780Y7492723D01*
X39755484Y7360101D01*
X39749763Y7345017D01*
X39749762Y7345016D01*
X39730722Y7188201D01*
X22987111Y7188201D01*
X22987111Y7267006D01*
X22987111Y7798843D01*
X23006018Y7857034D01*
X23016107Y7868847D01*
X25449760Y10302500D01*
X27888475Y12741215D01*
X27937911Y12826841D01*
X27963500Y12922342D01*
X27963500Y13021214D01*
X27963500Y16016626D01*
X27982407Y16074817D01*
X27992496Y16086630D01*
X29662370Y17756504D01*
X29716887Y17784281D01*
X29732374Y17785500D01*
X36760456Y17785500D01*
X36818647Y17766593D01*
X36830460Y17756503D01*
X37043089Y17543872D01*
X37070866Y17489356D01*
X37071363Y17461937D01*
X37063722Y17399003D01*
X37063722Y17398998D01*
X37082762Y17242183D01*
X37082763Y17242182D01*
X37138780Y17094476D01*
X37228515Y16964471D01*
X37346758Y16859718D01*
X37486635Y16786303D01*
X37640012Y16748500D01*
X37640015Y16748500D01*
X37797987Y16748500D01*
X37951364Y16786303D01*
X38021302Y16823010D01*
X38091240Y16859717D01*
X38209483Y16964470D01*
X38299220Y17094477D01*
X38355237Y17242182D01*
X38363948Y17313925D01*
X38389730Y17369411D01*
X38443203Y17399146D01*
X38503943Y17391772D01*
X38532228Y17371995D01*
X39449787Y16454438D01*
X39519701Y16384524D01*
X39605321Y16335091D01*
X39605325Y16335089D01*
X39653075Y16322294D01*
X39653076Y16322295D01*
X39700827Y16309500D01*
X39700828Y16309500D01*
X44674438Y16309500D01*
X44722184Y16322294D01*
X44722185Y16322294D01*
X44769934Y16335088D01*
X44769941Y16335091D01*
X44855561Y16384524D01*
X44925475Y16454437D01*
X44925475Y16454438D01*
X45317541Y16846504D01*
X45372058Y16874281D01*
X45387545Y16875500D01*
X45544987Y16875500D01*
X45698364Y16913303D01*
X45795854Y16964471D01*
X45838240Y16986717D01*
X45956483Y17091470D01*
X45972418Y17114555D01*
X46024557Y17190093D01*
X46046220Y17221477D01*
X46102237Y17369182D01*
X46114687Y17471719D01*
X46121278Y17525998D01*
X46121278Y17526001D01*
X46114931Y17578272D01*
X46102237Y17682818D01*
X46046220Y17830523D01*
X45956483Y17960530D01*
X45838240Y18065283D01*
X45698365Y18138696D01*
X45544985Y18176500D01*
X45387015Y18176500D01*
X45233635Y18138696D01*
X45093760Y18065283D01*
X45054995Y18030940D01*
X44975515Y17960528D01*
X44953309Y17928356D01*
X44904692Y17891206D01*
X44843525Y17889727D01*
X44793170Y17924484D01*
X44779267Y17949487D01*
X44776220Y17957523D01*
X44686483Y18087530D01*
X44568240Y18192283D01*
X44428365Y18265696D01*
X44274985Y18303500D01*
X44117015Y18303500D01*
X43963635Y18265696D01*
X43823760Y18192283D01*
X43805944Y18176499D01*
X43705515Y18087528D01*
X43673742Y18041496D01*
X43615780Y17957523D01*
X43563814Y17820498D01*
X43559763Y17809817D01*
X43559762Y17809816D01*
X43540722Y17653001D01*
X43540722Y17652997D01*
X43548363Y17590062D01*
X43536607Y17530017D01*
X43520089Y17508126D01*
X43511459Y17499496D01*
X43456942Y17471719D01*
X43441455Y17470500D01*
X42631759Y17470500D01*
X42573568Y17489407D01*
X42537604Y17538907D01*
X42537604Y17600093D01*
X42539192Y17604605D01*
X42546235Y17623178D01*
X42546237Y17623183D01*
X42549858Y17653000D01*
X42565278Y17780000D01*
X42561657Y17809818D01*
X42551775Y17891206D01*
X42546237Y17936818D01*
X42490220Y18084523D01*
X42400483Y18214530D01*
X42282240Y18319283D01*
X42142365Y18392696D01*
X41988985Y18430500D01*
X41831544Y18430500D01*
X41773353Y18449407D01*
X41761540Y18459496D01*
X40079562Y20141475D01*
X40079563Y20141475D01*
X39993940Y20190909D01*
X39993937Y20190911D01*
X39946185Y20203706D01*
X39898435Y20216501D01*
X29812593Y20216501D01*
X29754402Y20235408D01*
X29742589Y20245497D01*
X29716834Y20271251D01*
X28740301Y21247783D01*
X28712526Y21302298D01*
X28712029Y21329713D01*
X28719672Y21392655D01*
X28700631Y21549473D01*
X28644614Y21697178D01*
X28579469Y21791557D01*
X28561974Y21850185D01*
X28582282Y21907902D01*
X28586846Y21913446D01*
X28590410Y21917469D01*
X28631410Y21976867D01*
X28680148Y22047477D01*
X28736165Y22195182D01*
X28755206Y22352000D01*
X28736165Y22508818D01*
X28680148Y22656523D01*
X28590411Y22786530D01*
X28472168Y22891283D01*
X28332293Y22964696D01*
X28178913Y23002500D01*
X28020943Y23002500D01*
X27867563Y22964696D01*
X27727688Y22891283D01*
X27727686Y22891281D01*
X27609443Y22786528D01*
X27519708Y22656523D01*
X27463691Y22508817D01*
X27463690Y22508816D01*
X27444650Y22352002D01*
X27444650Y22351996D01*
X27447427Y22329123D01*
X27435671Y22269078D01*
X27419153Y22247188D01*
X27148832Y21976867D01*
X27148831Y21976867D01*
X27078918Y21906953D01*
X27029483Y21821330D01*
X27029483Y21821329D01*
X27029484Y21821329D01*
X27006788Y21736626D01*
X27006787Y21736622D01*
X27003894Y21725826D01*
X27003894Y21606939D01*
X26984987Y21548748D01*
X26974898Y21536935D01*
X24828437Y19390474D01*
X24828436Y19390474D01*
X24758523Y19320560D01*
X24709090Y19234941D01*
X24709089Y19234937D01*
X24683499Y19139434D01*
X24683499Y19139432D01*
X24683499Y14118290D01*
X24664592Y14060099D01*
X24654503Y14048286D01*
X21152712Y10546495D01*
X21098195Y10518718D01*
X21082708Y10517499D01*
X20290187Y10517499D01*
X20191315Y10517499D01*
X20143564Y10504704D01*
X20143563Y10504704D01*
X20095813Y10491909D01*
X20095809Y10491907D01*
X20010187Y10442473D01*
X20010188Y10442473D01*
X19011382Y9443667D01*
X18956865Y9415890D01*
X18896433Y9425461D01*
X18859904Y9457431D01*
X18771490Y9585523D01*
X18653247Y9690276D01*
X18513372Y9763689D01*
X18359992Y9801493D01*
X18202022Y9801493D01*
X18048642Y9763689D01*
X17908767Y9690276D01*
X17794508Y9589052D01*
X17790522Y9585521D01*
X17728167Y9495183D01*
X17700787Y9455516D01*
X17659814Y9347477D01*
X17644770Y9307810D01*
X17644769Y9307809D01*
X17625729Y9150994D01*
X17625729Y9150990D01*
X17633370Y9088055D01*
X17621614Y9028010D01*
X17605096Y9006119D01*
X17601925Y9002948D01*
X17601924Y9002948D01*
X17532011Y8933034D01*
X17482578Y8847414D01*
X17482576Y8847409D01*
X17478695Y8832927D01*
X17478696Y8832927D01*
X17478695Y8832924D01*
X17468329Y8794235D01*
X17456987Y8751908D01*
X-474953Y8751908D01*
X-474953Y12568743D01*
X3124700Y12568743D01*
X3124700Y12371656D01*
X3163149Y12178365D01*
X3163149Y12178363D01*
X3238567Y11996286D01*
X3348061Y11832418D01*
X3348064Y11832414D01*
X3487414Y11693064D01*
X3487418Y11693061D01*
X3651286Y11583567D01*
X3833364Y11508149D01*
X4026656Y11469700D01*
X4026659Y11469700D01*
X4223743Y11469700D01*
X4352603Y11495332D01*
X4417035Y11508149D01*
X4417036Y11508149D01*
X4599113Y11583567D01*
X4653488Y11619899D01*
X4762982Y11693061D01*
X4902339Y11832418D01*
X5011832Y11996286D01*
X5087251Y12178365D01*
X5125700Y12371659D01*
X5125700Y12568741D01*
X5125700Y12568743D01*
X10124700Y12568743D01*
X10124700Y12371656D01*
X10163149Y12178365D01*
X10163149Y12178363D01*
X10238567Y11996286D01*
X10348061Y11832418D01*
X10348064Y11832414D01*
X10487414Y11693064D01*
X10487418Y11693061D01*
X10651286Y11583567D01*
X10833364Y11508149D01*
X11026656Y11469700D01*
X11026659Y11469700D01*
X11223743Y11469700D01*
X11352603Y11495332D01*
X11417035Y11508149D01*
X11417036Y11508149D01*
X11599113Y11583567D01*
X11653488Y11619899D01*
X11762982Y11693061D01*
X11902339Y11832418D01*
X12011832Y11996286D01*
X12087251Y12178365D01*
X12125700Y12371659D01*
X12125700Y12568741D01*
X12087251Y12762035D01*
X12011832Y12944114D01*
X11902339Y13107982D01*
X11762982Y13247339D01*
X11599114Y13356832D01*
X11417035Y13432251D01*
X11223741Y13470700D01*
X11026659Y13470700D01*
X10833365Y13432251D01*
X10651286Y13356832D01*
X10487418Y13247339D01*
X10348061Y13107982D01*
X10290085Y13021214D01*
X10238567Y12944113D01*
X10163149Y12762036D01*
X10163149Y12762034D01*
X10124700Y12568743D01*
X5125700Y12568743D01*
X5087251Y12762035D01*
X5011832Y12944114D01*
X4902339Y13107982D01*
X4762982Y13247339D01*
X4599114Y13356832D01*
X4417035Y13432251D01*
X4223741Y13470700D01*
X4026659Y13470700D01*
X3833365Y13432251D01*
X3651286Y13356832D01*
X3487418Y13247339D01*
X3348061Y13107982D01*
X3290085Y13021214D01*
X3238567Y12944113D01*
X3163149Y12762036D01*
X3163149Y12762034D01*
X3124700Y12568743D01*
X-474953Y12568743D01*
X-474953Y13716001D01*
X13949722Y13716001D01*
X13949722Y13715998D01*
X13968762Y13559183D01*
X13968763Y13559182D01*
X14024780Y13411476D01*
X14114515Y13281471D01*
X14232758Y13176718D01*
X14372635Y13103303D01*
X14526012Y13065500D01*
X14526015Y13065500D01*
X14683987Y13065500D01*
X14837364Y13103303D01*
X14907302Y13140010D01*
X14977240Y13176717D01*
X15095483Y13281470D01*
X15185220Y13411477D01*
X15230400Y13530607D01*
X15268713Y13578311D01*
X15322966Y13594500D01*
X19736812Y13594500D01*
X19795003Y13575593D01*
X19818288Y13551738D01*
X19829515Y13535471D01*
X19947758Y13430718D01*
X20087635Y13357303D01*
X20241012Y13319500D01*
X20241015Y13319500D01*
X20398987Y13319500D01*
X20552364Y13357303D01*
X20622302Y13394010D01*
X20692240Y13430717D01*
X20810483Y13535470D01*
X20810484Y13535471D01*
X20810485Y13535472D01*
X20814457Y13539955D01*
X20815558Y13538978D01*
X20858560Y13571841D01*
X20919727Y13573321D01*
X20937430Y13566114D01*
X21034575Y13515127D01*
X21187952Y13477324D01*
X21187955Y13477324D01*
X21345927Y13477324D01*
X21499304Y13515127D01*
X21610181Y13573321D01*
X21639180Y13588541D01*
X21757423Y13693294D01*
X21773095Y13715998D01*
X21847159Y13823300D01*
X21847160Y13823301D01*
X21903177Y13971006D01*
X21916081Y14077282D01*
X21922218Y14127822D01*
X21922218Y14127825D01*
X21903177Y14284640D01*
X21903177Y14284642D01*
X21847160Y14432347D01*
X21757423Y14562354D01*
X21639180Y14667107D01*
X21499305Y14740520D01*
X21345925Y14778324D01*
X21188483Y14778324D01*
X21130292Y14797231D01*
X21118479Y14807321D01*
X20843335Y15082467D01*
X20843328Y15082473D01*
X20843327Y15082473D01*
X20843327Y15082474D01*
X20843326Y15082475D01*
X20757702Y15131910D01*
X20709950Y15144705D01*
X20662200Y15157500D01*
X16107188Y15157500D01*
X16048997Y15176407D01*
X16025712Y15200262D01*
X16014484Y15216528D01*
X16014483Y15216530D01*
X15896240Y15321283D01*
X15756365Y15394696D01*
X15602985Y15432500D01*
X15445015Y15432500D01*
X15291635Y15394696D01*
X15151760Y15321283D01*
X15151758Y15321281D01*
X15033515Y15216528D01*
X14943780Y15086523D01*
X14887763Y14938817D01*
X14887762Y14938816D01*
X14868722Y14782001D01*
X14868722Y14781998D01*
X14887762Y14625183D01*
X14887763Y14625182D01*
X14911590Y14562354D01*
X14943783Y14477470D01*
X14946098Y14473059D01*
X14956395Y14412746D01*
X14929275Y14357900D01*
X14884058Y14331431D01*
X14880961Y14330600D01*
X14831649Y14330105D01*
X14718877Y14357900D01*
X14683985Y14366500D01*
X14526015Y14366500D01*
X14372635Y14328696D01*
X14232760Y14255283D01*
X14232758Y14255281D01*
X14114515Y14150528D01*
X14024780Y14020523D01*
X13968763Y13872817D01*
X13968762Y13872816D01*
X13949722Y13716001D01*
X-474953Y13716001D01*
X-474953Y30171071D01*
X-474945Y30172322D01*
X-472454Y30369417D01*
X-471920Y30378514D01*
X-430648Y30771193D01*
X-429027Y30781428D01*
X-347066Y31167024D01*
X-344384Y31177034D01*
X-222564Y31551956D01*
X-218850Y31561630D01*
X-201750Y31600038D01*
X1234576Y31600038D01*
X1234576Y31388447D01*
X1273455Y31180461D01*
X1273456Y31180459D01*
X1349892Y30983156D01*
X1461280Y30803257D01*
X1461282Y30803254D01*
X1603830Y30646887D01*
X1772680Y30519378D01*
X1772689Y30519373D01*
X1962087Y30425064D01*
X1962089Y30425063D01*
X1962090Y30425063D01*
X2165604Y30367158D01*
X2376293Y30347635D01*
X2586982Y30367158D01*
X2790496Y30425063D01*
X2979904Y30519377D01*
X3148758Y30646889D01*
X3291306Y30803257D01*
X3402694Y30983156D01*
X3479130Y31180459D01*
X3518010Y31388447D01*
X3520450Y31494243D01*
X3518010Y31600039D01*
X3479130Y31808027D01*
X3402694Y32005330D01*
X3291306Y32185229D01*
X3148758Y32341597D01*
X2979904Y32469109D01*
X2790496Y32563423D01*
X2586982Y32621328D01*
X2376293Y32640851D01*
X2165604Y32621328D01*
X1962090Y32563423D01*
X1772682Y32469109D01*
X1603828Y32341597D01*
X1461280Y32185229D01*
X1349892Y32005330D01*
X1317514Y31921752D01*
X1273455Y31808024D01*
X1234576Y31600038D01*
X-201750Y31600038D01*
X-58514Y31921752D01*
X-53810Y31930985D01*
X92977Y32185229D01*
X143300Y32272391D01*
X148941Y32281077D01*
X380660Y32600012D01*
X387172Y32608051D01*
X650952Y32901010D01*
X658279Y32908337D01*
X686885Y32934094D01*
X951235Y33172116D01*
X959284Y33178634D01*
X1278212Y33410348D01*
X1286903Y33415992D01*
X1628304Y33613099D01*
X1637537Y33617803D01*
X1997659Y33778140D01*
X2007333Y33781854D01*
X2382255Y33903674D01*
X2392265Y33906356D01*
X2777861Y33988317D01*
X2788096Y33989938D01*
X3180775Y34031210D01*
X3189872Y34031744D01*
X3386968Y34034235D01*
X3388219Y34034243D01*
X33429000Y34034243D01*
X33487191Y34015336D01*
G37*
%TD.AperFunction*%
%TD*%
M02*
