%TF.GenerationSoftware,KiCad,Pcbnew,8.0.5-8.0.5-0~ubuntu22.04.1*%
%TF.CreationDate,2024-11-26T13:48:24+00:00*%
%TF.ProjectId,numcalcium,6e756d63-616c-4636-9975-6d2e6b696361,rev?*%
%TF.SameCoordinates,Original*%
%TF.FileFunction,Drillmap*%
%TF.FilePolarity,Positive*%
%FSLAX45Y45*%
G04 Gerber Fmt 4.5, Leading zero omitted, Abs format (unit mm)*
G04 Created by KiCad (PCBNEW 8.0.5-8.0.5-0~ubuntu22.04.1) date 2024-11-26 13:48:24*
%MOMM*%
%LPD*%
G01*
G04 APERTURE LIST*
%ADD10C,0.100000*%
%ADD11C,0.150000*%
%ADD12C,0.200000*%
G04 APERTURE END LIST*
D10*
X352045Y3149424D02*
G75*
G02*
X123214Y3149424I-114416J0D01*
G01*
X123214Y3149424D02*
G75*
G02*
X352045Y3149424I114416J0D01*
G01*
X348832Y651814D02*
G75*
G02*
X115950Y651814I-116441J0D01*
G01*
X115950Y651814D02*
G75*
G02*
X348832Y651814I116441J0D01*
G01*
X7704760Y792480D02*
G75*
G02*
X7318505Y406224I-386270J14D01*
G01*
X7318505Y3403424D02*
X338760Y3403424D01*
X338760Y406224D02*
G75*
G02*
X-47495Y792480I-1J386255D01*
G01*
D11*
X5699538Y2621280D02*
X5839238Y2621280D01*
X5839238Y787400D01*
X5699538Y787400D01*
X5699538Y2621280D01*
D10*
X7318505Y3403424D02*
G75*
G02*
X7704754Y3017169I5J-386244D01*
G01*
X7409528Y1889760D02*
G75*
G02*
X6621172Y1889760I-394178J0D01*
G01*
X6621172Y1889760D02*
G75*
G02*
X7409528Y1889760I394178J0D01*
G01*
X7704760Y3017169D02*
X7704760Y792480D01*
X7559805Y3149424D02*
G75*
G02*
X7335153Y3149424I-112326J0D01*
G01*
X7335153Y3149424D02*
G75*
G02*
X7559805Y3149424I112326J0D01*
G01*
X7318505Y406224D02*
X338760Y406224D01*
X-47495Y3017169D02*
G75*
G02*
X338760Y3403424I386255J0D01*
G01*
X-47495Y3017169D02*
X-47495Y792480D01*
X7562970Y647524D02*
G75*
G02*
X7333295Y647524I-114837J0D01*
G01*
X7333295Y647524D02*
G75*
G02*
X7562970Y647524I114837J0D01*
G01*
D12*
D10*
X107000Y959800D02*
X147000Y919800D01*
X147000Y959800D02*
X107000Y919800D01*
X386400Y1493200D02*
X426400Y1453200D01*
X426400Y1493200D02*
X386400Y1453200D01*
X386400Y1036000D02*
X426400Y996000D01*
X426400Y1036000D02*
X386400Y996000D01*
X488000Y3322000D02*
X528000Y3282000D01*
X528000Y3322000D02*
X488000Y3282000D01*
X538800Y2941000D02*
X578800Y2901000D01*
X578800Y2941000D02*
X538800Y2901000D01*
X640400Y2560000D02*
X680400Y2520000D01*
X680400Y2560000D02*
X640400Y2520000D01*
X1148400Y1645600D02*
X1188400Y1605600D01*
X1188400Y1645600D02*
X1148400Y1605600D01*
X1148400Y1493200D02*
X1188400Y1453200D01*
X1188400Y1493200D02*
X1148400Y1453200D01*
X1377000Y2229800D02*
X1417000Y2189800D01*
X1417000Y2229800D02*
X1377000Y2189800D01*
X1402400Y1848800D02*
X1442400Y1808800D01*
X1442400Y1848800D02*
X1402400Y1808800D01*
X1402400Y832800D02*
X1442400Y792800D01*
X1442400Y832800D02*
X1402400Y792800D01*
X1440500Y1391600D02*
X1480500Y1351600D01*
X1480500Y1391600D02*
X1440500Y1351600D01*
X1453200Y1086800D02*
X1493200Y1046800D01*
X1493200Y1086800D02*
X1453200Y1046800D01*
X1504000Y3322000D02*
X1544000Y3282000D01*
X1544000Y3322000D02*
X1504000Y3282000D01*
X1532400Y1498200D02*
X1572400Y1458200D01*
X1572400Y1498200D02*
X1532400Y1458200D01*
X1554800Y832800D02*
X1594800Y792800D01*
X1594800Y832800D02*
X1554800Y792800D01*
X1656400Y934400D02*
X1696400Y894400D01*
X1696400Y934400D02*
X1656400Y894400D01*
X1732600Y2737800D02*
X1772600Y2697800D01*
X1772600Y2737800D02*
X1732600Y2697800D01*
X1808101Y935099D02*
X1848101Y895099D01*
X1848101Y935099D02*
X1808101Y895099D01*
X1831749Y836477D02*
X1871749Y796477D01*
X1871749Y836477D02*
X1831749Y796477D01*
X1859600Y1594800D02*
X1899600Y1554800D01*
X1899600Y1594800D02*
X1859600Y1554800D01*
X1885000Y756600D02*
X1925000Y716600D01*
X1925000Y756600D02*
X1885000Y716600D01*
X1934163Y867414D02*
X1974163Y827414D01*
X1974163Y867414D02*
X1934163Y827414D01*
X1986600Y2521900D02*
X2026600Y2481900D01*
X2026600Y2521900D02*
X1986600Y2481900D01*
X1986600Y787000D02*
X2026600Y747000D01*
X2026600Y787000D02*
X1986600Y747000D01*
X2012000Y2306000D02*
X2052000Y2266000D01*
X2052000Y2306000D02*
X2012000Y2266000D01*
X2012000Y1988500D02*
X2052000Y1948500D01*
X2052000Y1988500D02*
X2012000Y1948500D01*
X2012000Y1417000D02*
X2052000Y1377000D01*
X2052000Y1417000D02*
X2012000Y1377000D01*
X2075500Y924700D02*
X2115500Y884700D01*
X2115500Y924700D02*
X2075500Y884700D01*
X2106694Y1432782D02*
X2146694Y1392782D01*
X2146694Y1432782D02*
X2106694Y1392782D01*
X2168115Y765585D02*
X2208115Y725585D01*
X2208115Y765585D02*
X2168115Y725585D01*
X2177100Y1772600D02*
X2217100Y1732600D01*
X2217100Y1772600D02*
X2177100Y1732600D01*
X2304100Y2648900D02*
X2344100Y2608900D01*
X2344100Y2648900D02*
X2304100Y2608900D01*
X2342200Y2115500D02*
X2382200Y2075500D01*
X2382200Y2115500D02*
X2342200Y2075500D01*
X2342200Y2013900D02*
X2382200Y1973900D01*
X2382200Y2013900D02*
X2342200Y1973900D01*
X2342200Y1912300D02*
X2382200Y1872300D01*
X2382200Y1912300D02*
X2342200Y1872300D01*
X2367600Y1417000D02*
X2407600Y1377000D01*
X2407600Y1417000D02*
X2367600Y1377000D01*
X2405700Y2648900D02*
X2445700Y2608900D01*
X2445700Y2648900D02*
X2405700Y2608900D01*
X2405700Y1759900D02*
X2445700Y1719900D01*
X2445700Y1759900D02*
X2405700Y1719900D01*
X2417400Y1518600D02*
X2457400Y1478600D01*
X2457400Y1518600D02*
X2417400Y1478600D01*
X2418400Y2331400D02*
X2458400Y2291400D01*
X2458400Y2331400D02*
X2418400Y2291400D01*
X2418400Y832800D02*
X2458400Y792800D01*
X2458400Y832800D02*
X2418400Y792800D01*
X2520000Y3322000D02*
X2560000Y3282000D01*
X2560000Y3322000D02*
X2520000Y3282000D01*
X2520000Y924700D02*
X2560000Y884700D01*
X2560000Y924700D02*
X2520000Y884700D01*
X2786439Y2159266D02*
X2826439Y2119266D01*
X2826439Y2159266D02*
X2786439Y2119266D01*
X2786608Y2062249D02*
X2826608Y2022249D01*
X2826608Y2062249D02*
X2786608Y2022249D01*
X2786651Y1963100D02*
X2826651Y1923100D01*
X2826651Y1963100D02*
X2786651Y1923100D01*
X2786723Y1867100D02*
X2826723Y1827100D01*
X2826723Y1867100D02*
X2786723Y1827100D01*
X2789993Y2255200D02*
X2829993Y2215200D01*
X2829993Y2255200D02*
X2789993Y2215200D01*
X2824800Y782000D02*
X2864800Y742000D01*
X2864800Y782000D02*
X2824800Y742000D01*
X2837500Y1569400D02*
X2877500Y1529400D01*
X2877500Y1569400D02*
X2837500Y1529400D01*
X2837500Y1378900D02*
X2877500Y1338900D01*
X2877500Y1378900D02*
X2837500Y1338900D01*
X2850200Y2407600D02*
X2890200Y2367600D01*
X2890200Y2407600D02*
X2850200Y2367600D01*
X2901000Y2179000D02*
X2941000Y2139000D01*
X2941000Y2179000D02*
X2901000Y2139000D01*
X2926400Y1696400D02*
X2966400Y1656400D01*
X2966400Y1696400D02*
X2926400Y1656400D01*
X3129600Y1696400D02*
X3169600Y1656400D01*
X3169600Y1696400D02*
X3129600Y1656400D01*
X3129600Y1442400D02*
X3169600Y1402400D01*
X3169600Y1442400D02*
X3129600Y1402400D01*
X3307400Y1239200D02*
X3347400Y1199200D01*
X3347400Y1239200D02*
X3307400Y1199200D01*
X3434400Y2712400D02*
X3474400Y2672400D01*
X3474400Y2712400D02*
X3434400Y2672400D01*
X3434400Y2458400D02*
X3474400Y2418400D01*
X3474400Y2458400D02*
X3434400Y2418400D01*
X3434400Y2153600D02*
X3474400Y2113600D01*
X3474400Y2153600D02*
X3434400Y2113600D01*
X3434400Y1747200D02*
X3474400Y1707200D01*
X3474400Y1747200D02*
X3434400Y1707200D01*
X3434400Y1569400D02*
X3474400Y1529400D01*
X3474400Y1569400D02*
X3434400Y1529400D01*
X3485200Y1061400D02*
X3525200Y1021400D01*
X3525200Y1061400D02*
X3485200Y1021400D01*
X3510600Y858200D02*
X3550600Y818200D01*
X3550600Y858200D02*
X3510600Y818200D01*
X3586800Y1391600D02*
X3626800Y1351600D01*
X3626800Y1391600D02*
X3586800Y1351600D01*
X3637600Y2153600D02*
X3677600Y2113600D01*
X3677600Y2153600D02*
X3637600Y2113600D01*
X3751900Y1759900D02*
X3791900Y1719900D01*
X3791900Y1759900D02*
X3751900Y1719900D01*
X3790000Y2712400D02*
X3830000Y2672400D01*
X3830000Y2712400D02*
X3790000Y2672400D01*
X3790000Y2458400D02*
X3830000Y2418400D01*
X3830000Y2458400D02*
X3790000Y2418400D01*
X3815400Y858200D02*
X3855400Y818200D01*
X3855400Y858200D02*
X3815400Y818200D01*
X3840800Y2153600D02*
X3880800Y2113600D01*
X3880800Y2153600D02*
X3840800Y2113600D01*
X3955100Y1785300D02*
X3995100Y1745300D01*
X3995100Y1785300D02*
X3955100Y1745300D01*
X4018600Y738820D02*
X4058600Y698820D01*
X4058600Y738820D02*
X4018600Y698820D01*
X4044000Y2102800D02*
X4084000Y2062800D01*
X4084000Y2102800D02*
X4044000Y2062800D01*
X4044000Y985200D02*
X4084000Y945200D01*
X4084000Y985200D02*
X4044000Y945200D01*
X4171000Y1798000D02*
X4211000Y1758000D01*
X4211000Y1798000D02*
X4171000Y1758000D01*
X4196400Y2001200D02*
X4236400Y1961200D01*
X4236400Y2001200D02*
X4196400Y1961200D01*
X4239500Y1053700D02*
X4279500Y1013700D01*
X4279500Y1053700D02*
X4239500Y1013700D01*
X4267520Y736280D02*
X4307520Y696280D01*
X4307520Y736280D02*
X4267520Y696280D01*
X4312657Y985200D02*
X4352657Y945200D01*
X4352657Y985200D02*
X4312657Y945200D01*
X4323400Y883600D02*
X4363400Y843600D01*
X4363400Y883600D02*
X4323400Y843600D01*
X4348800Y1950400D02*
X4388800Y1910400D01*
X4388800Y1950400D02*
X4348800Y1910400D01*
X4399600Y1785300D02*
X4439600Y1745300D01*
X4439600Y1785300D02*
X4399600Y1745300D01*
X4526600Y1772600D02*
X4566600Y1732600D01*
X4566600Y1772600D02*
X4526600Y1732600D01*
X4552000Y1950400D02*
X4592000Y1910400D01*
X4592000Y1950400D02*
X4552000Y1910400D01*
X4577400Y934400D02*
X4617400Y894400D01*
X4617400Y934400D02*
X4577400Y894400D01*
X4653600Y1874200D02*
X4693600Y1834200D01*
X4693600Y1874200D02*
X4653600Y1834200D01*
X4729800Y578800D02*
X4769800Y538800D01*
X4769800Y578800D02*
X4729800Y538800D01*
X4755200Y1798000D02*
X4795200Y1758000D01*
X4795200Y1798000D02*
X4755200Y1758000D01*
X4856800Y1645600D02*
X4896800Y1605600D01*
X4896800Y1645600D02*
X4856800Y1605600D01*
X4958400Y2712400D02*
X4998400Y2672400D01*
X4998400Y2712400D02*
X4958400Y2672400D01*
X4958400Y2458400D02*
X4998400Y2418400D01*
X4998400Y2458400D02*
X4958400Y2418400D01*
X5060000Y578800D02*
X5100000Y538800D01*
X5100000Y578800D02*
X5060000Y538800D01*
X5110800Y1848800D02*
X5150800Y1808800D01*
X5150800Y1848800D02*
X5110800Y1808800D01*
X5131120Y1046160D02*
X5171120Y1006160D01*
X5171120Y1046160D02*
X5131120Y1006160D01*
X5314000Y1645600D02*
X5354000Y1605600D01*
X5354000Y1645600D02*
X5314000Y1605600D01*
X5415600Y2712400D02*
X5455600Y2672400D01*
X5455600Y2712400D02*
X5415600Y2672400D01*
X5415600Y2458400D02*
X5455600Y2418400D01*
X5455600Y2458400D02*
X5415600Y2418400D01*
X5517200Y2052000D02*
X5557200Y2012000D01*
X5557200Y2052000D02*
X5517200Y2012000D01*
X5517200Y1544000D02*
X5557200Y1504000D01*
X5557200Y1544000D02*
X5517200Y1504000D01*
X5517200Y1036000D02*
X5557200Y996000D01*
X5557200Y1036000D02*
X5517200Y996000D01*
X5527360Y517840D02*
X5567360Y477840D01*
X5567360Y517840D02*
X5527360Y477840D01*
X6131880Y705800D02*
X6171880Y665800D01*
X6171880Y705800D02*
X6131880Y665800D01*
X6844563Y3040763D02*
X6884563Y3000763D01*
X6884563Y3040763D02*
X6844563Y3000763D01*
X6943800Y3139500D02*
X6983800Y3099500D01*
X6983800Y3139500D02*
X6943800Y3099500D01*
X7070800Y3140000D02*
X7110800Y3100000D01*
X7110800Y3140000D02*
X7070800Y3100000D01*
D12*
X208281Y89740D02*
X208281Y289740D01*
X208281Y289740D02*
X255900Y289740D01*
X255900Y289740D02*
X284472Y280217D01*
X284472Y280217D02*
X303520Y261169D01*
X303520Y261169D02*
X313043Y242121D01*
X313043Y242121D02*
X322567Y204026D01*
X322567Y204026D02*
X322567Y175455D01*
X322567Y175455D02*
X313043Y137360D01*
X313043Y137360D02*
X303520Y118312D01*
X303520Y118312D02*
X284472Y99264D01*
X284472Y99264D02*
X255900Y89740D01*
X255900Y89740D02*
X208281Y89740D01*
X408281Y89740D02*
X408281Y223074D01*
X408281Y184978D02*
X417805Y204026D01*
X417805Y204026D02*
X427329Y213550D01*
X427329Y213550D02*
X446377Y223074D01*
X446377Y223074D02*
X465424Y223074D01*
X532091Y89740D02*
X532091Y223074D01*
X532091Y289740D02*
X522567Y280217D01*
X522567Y280217D02*
X532091Y270693D01*
X532091Y270693D02*
X541615Y280217D01*
X541615Y280217D02*
X532091Y289740D01*
X532091Y289740D02*
X532091Y270693D01*
X655901Y89740D02*
X636853Y99264D01*
X636853Y99264D02*
X627329Y118312D01*
X627329Y118312D02*
X627329Y289740D01*
X760662Y89740D02*
X741615Y99264D01*
X741615Y99264D02*
X732091Y118312D01*
X732091Y118312D02*
X732091Y289740D01*
X989234Y89740D02*
X989234Y289740D01*
X989234Y289740D02*
X1055901Y146883D01*
X1055901Y146883D02*
X1122567Y289740D01*
X1122567Y289740D02*
X1122567Y89740D01*
X1303520Y89740D02*
X1303520Y194502D01*
X1303520Y194502D02*
X1293996Y213550D01*
X1293996Y213550D02*
X1274948Y223074D01*
X1274948Y223074D02*
X1236853Y223074D01*
X1236853Y223074D02*
X1217805Y213550D01*
X1303520Y99264D02*
X1284472Y89740D01*
X1284472Y89740D02*
X1236853Y89740D01*
X1236853Y89740D02*
X1217805Y99264D01*
X1217805Y99264D02*
X1208282Y118312D01*
X1208282Y118312D02*
X1208282Y137360D01*
X1208282Y137360D02*
X1217805Y156407D01*
X1217805Y156407D02*
X1236853Y165931D01*
X1236853Y165931D02*
X1284472Y165931D01*
X1284472Y165931D02*
X1303520Y175455D01*
X1398758Y223074D02*
X1398758Y23074D01*
X1398758Y213550D02*
X1417805Y223074D01*
X1417805Y223074D02*
X1455901Y223074D01*
X1455901Y223074D02*
X1474948Y213550D01*
X1474948Y213550D02*
X1484472Y204026D01*
X1484472Y204026D02*
X1493996Y184978D01*
X1493996Y184978D02*
X1493996Y127836D01*
X1493996Y127836D02*
X1484472Y108788D01*
X1484472Y108788D02*
X1474948Y99264D01*
X1474948Y99264D02*
X1455901Y89740D01*
X1455901Y89740D02*
X1417805Y89740D01*
X1417805Y89740D02*
X1398758Y99264D01*
X1579710Y108788D02*
X1589234Y99264D01*
X1589234Y99264D02*
X1579710Y89740D01*
X1579710Y89740D02*
X1570186Y99264D01*
X1570186Y99264D02*
X1579710Y108788D01*
X1579710Y108788D02*
X1579710Y89740D01*
X1579710Y213550D02*
X1589234Y204026D01*
X1589234Y204026D02*
X1579710Y194502D01*
X1579710Y194502D02*
X1570186Y204026D01*
X1570186Y204026D02*
X1579710Y213550D01*
X1579710Y213550D02*
X1579710Y194502D01*
D10*
X-92495Y-218776D02*
X-52495Y-258776D01*
X-52495Y-218776D02*
X-92495Y-258776D01*
D12*
X246377Y-130259D02*
X265424Y-130259D01*
X265424Y-130259D02*
X284472Y-139783D01*
X284472Y-139783D02*
X293996Y-149307D01*
X293996Y-149307D02*
X303520Y-168355D01*
X303520Y-168355D02*
X313043Y-206450D01*
X313043Y-206450D02*
X313043Y-254069D01*
X313043Y-254069D02*
X303520Y-292164D01*
X303520Y-292164D02*
X293996Y-311212D01*
X293996Y-311212D02*
X284472Y-320736D01*
X284472Y-320736D02*
X265424Y-330260D01*
X265424Y-330260D02*
X246377Y-330260D01*
X246377Y-330260D02*
X227329Y-320736D01*
X227329Y-320736D02*
X217805Y-311212D01*
X217805Y-311212D02*
X208281Y-292164D01*
X208281Y-292164D02*
X198758Y-254069D01*
X198758Y-254069D02*
X198758Y-206450D01*
X198758Y-206450D02*
X208281Y-168355D01*
X208281Y-168355D02*
X217805Y-149307D01*
X217805Y-149307D02*
X227329Y-139783D01*
X227329Y-139783D02*
X246377Y-130259D01*
X398758Y-311212D02*
X408281Y-320736D01*
X408281Y-320736D02*
X398758Y-330260D01*
X398758Y-330260D02*
X389234Y-320736D01*
X389234Y-320736D02*
X398758Y-311212D01*
X398758Y-311212D02*
X398758Y-330260D01*
X579710Y-196926D02*
X579710Y-330260D01*
X532091Y-120736D02*
X484472Y-263593D01*
X484472Y-263593D02*
X608282Y-263593D01*
X722567Y-130259D02*
X741615Y-130259D01*
X741615Y-130259D02*
X760662Y-139783D01*
X760662Y-139783D02*
X770186Y-149307D01*
X770186Y-149307D02*
X779710Y-168355D01*
X779710Y-168355D02*
X789234Y-206450D01*
X789234Y-206450D02*
X789234Y-254069D01*
X789234Y-254069D02*
X779710Y-292164D01*
X779710Y-292164D02*
X770186Y-311212D01*
X770186Y-311212D02*
X760662Y-320736D01*
X760662Y-320736D02*
X741615Y-330260D01*
X741615Y-330260D02*
X722567Y-330260D01*
X722567Y-330260D02*
X703520Y-320736D01*
X703520Y-320736D02*
X693996Y-311212D01*
X693996Y-311212D02*
X684472Y-292164D01*
X684472Y-292164D02*
X674948Y-254069D01*
X674948Y-254069D02*
X674948Y-206450D01*
X674948Y-206450D02*
X684472Y-168355D01*
X684472Y-168355D02*
X693996Y-149307D01*
X693996Y-149307D02*
X703520Y-139783D01*
X703520Y-139783D02*
X722567Y-130259D01*
X913043Y-130259D02*
X932091Y-130259D01*
X932091Y-130259D02*
X951139Y-139783D01*
X951139Y-139783D02*
X960662Y-149307D01*
X960662Y-149307D02*
X970186Y-168355D01*
X970186Y-168355D02*
X979710Y-206450D01*
X979710Y-206450D02*
X979710Y-254069D01*
X979710Y-254069D02*
X970186Y-292164D01*
X970186Y-292164D02*
X960662Y-311212D01*
X960662Y-311212D02*
X951139Y-320736D01*
X951139Y-320736D02*
X932091Y-330260D01*
X932091Y-330260D02*
X913043Y-330260D01*
X913043Y-330260D02*
X893996Y-320736D01*
X893996Y-320736D02*
X884472Y-311212D01*
X884472Y-311212D02*
X874948Y-292164D01*
X874948Y-292164D02*
X865424Y-254069D01*
X865424Y-254069D02*
X865424Y-206450D01*
X865424Y-206450D02*
X874948Y-168355D01*
X874948Y-168355D02*
X884472Y-149307D01*
X884472Y-149307D02*
X893996Y-139783D01*
X893996Y-139783D02*
X913043Y-130259D01*
X1065424Y-330260D02*
X1065424Y-196926D01*
X1065424Y-215974D02*
X1074948Y-206450D01*
X1074948Y-206450D02*
X1093996Y-196926D01*
X1093996Y-196926D02*
X1122567Y-196926D01*
X1122567Y-196926D02*
X1141615Y-206450D01*
X1141615Y-206450D02*
X1151139Y-225498D01*
X1151139Y-225498D02*
X1151139Y-330260D01*
X1151139Y-225498D02*
X1160663Y-206450D01*
X1160663Y-206450D02*
X1179710Y-196926D01*
X1179710Y-196926D02*
X1208282Y-196926D01*
X1208282Y-196926D02*
X1227329Y-206450D01*
X1227329Y-206450D02*
X1236853Y-225498D01*
X1236853Y-225498D02*
X1236853Y-330260D01*
X1332091Y-330260D02*
X1332091Y-196926D01*
X1332091Y-215974D02*
X1341615Y-206450D01*
X1341615Y-206450D02*
X1360663Y-196926D01*
X1360663Y-196926D02*
X1389234Y-196926D01*
X1389234Y-196926D02*
X1408282Y-206450D01*
X1408282Y-206450D02*
X1417805Y-225498D01*
X1417805Y-225498D02*
X1417805Y-330260D01*
X1417805Y-225498D02*
X1427329Y-206450D01*
X1427329Y-206450D02*
X1446377Y-196926D01*
X1446377Y-196926D02*
X1474948Y-196926D01*
X1474948Y-196926D02*
X1493996Y-206450D01*
X1493996Y-206450D02*
X1503520Y-225498D01*
X1503520Y-225498D02*
X1503520Y-330260D01*
X1893996Y-120736D02*
X1722567Y-377878D01*
X2151139Y-130259D02*
X2170187Y-130259D01*
X2170187Y-130259D02*
X2189234Y-139783D01*
X2189234Y-139783D02*
X2198758Y-149307D01*
X2198758Y-149307D02*
X2208282Y-168355D01*
X2208282Y-168355D02*
X2217806Y-206450D01*
X2217806Y-206450D02*
X2217806Y-254069D01*
X2217806Y-254069D02*
X2208282Y-292164D01*
X2208282Y-292164D02*
X2198758Y-311212D01*
X2198758Y-311212D02*
X2189234Y-320736D01*
X2189234Y-320736D02*
X2170187Y-330260D01*
X2170187Y-330260D02*
X2151139Y-330260D01*
X2151139Y-330260D02*
X2132091Y-320736D01*
X2132091Y-320736D02*
X2122567Y-311212D01*
X2122567Y-311212D02*
X2113044Y-292164D01*
X2113044Y-292164D02*
X2103520Y-254069D01*
X2103520Y-254069D02*
X2103520Y-206450D01*
X2103520Y-206450D02*
X2113044Y-168355D01*
X2113044Y-168355D02*
X2122567Y-149307D01*
X2122567Y-149307D02*
X2132091Y-139783D01*
X2132091Y-139783D02*
X2151139Y-130259D01*
X2303520Y-311212D02*
X2313044Y-320736D01*
X2313044Y-320736D02*
X2303520Y-330260D01*
X2303520Y-330260D02*
X2293996Y-320736D01*
X2293996Y-320736D02*
X2303520Y-311212D01*
X2303520Y-311212D02*
X2303520Y-330260D01*
X2436853Y-130259D02*
X2455901Y-130259D01*
X2455901Y-130259D02*
X2474948Y-139783D01*
X2474948Y-139783D02*
X2484472Y-149307D01*
X2484472Y-149307D02*
X2493996Y-168355D01*
X2493996Y-168355D02*
X2503520Y-206450D01*
X2503520Y-206450D02*
X2503520Y-254069D01*
X2503520Y-254069D02*
X2493996Y-292164D01*
X2493996Y-292164D02*
X2484472Y-311212D01*
X2484472Y-311212D02*
X2474948Y-320736D01*
X2474948Y-320736D02*
X2455901Y-330260D01*
X2455901Y-330260D02*
X2436853Y-330260D01*
X2436853Y-330260D02*
X2417806Y-320736D01*
X2417806Y-320736D02*
X2408282Y-311212D01*
X2408282Y-311212D02*
X2398758Y-292164D01*
X2398758Y-292164D02*
X2389234Y-254069D01*
X2389234Y-254069D02*
X2389234Y-206450D01*
X2389234Y-206450D02*
X2398758Y-168355D01*
X2398758Y-168355D02*
X2408282Y-149307D01*
X2408282Y-149307D02*
X2417806Y-139783D01*
X2417806Y-139783D02*
X2436853Y-130259D01*
X2693996Y-330260D02*
X2579710Y-330260D01*
X2636853Y-330260D02*
X2636853Y-130259D01*
X2636853Y-130259D02*
X2617806Y-158831D01*
X2617806Y-158831D02*
X2598758Y-177878D01*
X2598758Y-177878D02*
X2579710Y-187402D01*
X2874948Y-130259D02*
X2779710Y-130259D01*
X2779710Y-130259D02*
X2770187Y-225498D01*
X2770187Y-225498D02*
X2779710Y-215974D01*
X2779710Y-215974D02*
X2798758Y-206450D01*
X2798758Y-206450D02*
X2846377Y-206450D01*
X2846377Y-206450D02*
X2865425Y-215974D01*
X2865425Y-215974D02*
X2874948Y-225498D01*
X2874948Y-225498D02*
X2884472Y-244545D01*
X2884472Y-244545D02*
X2884472Y-292164D01*
X2884472Y-292164D02*
X2874948Y-311212D01*
X2874948Y-311212D02*
X2865425Y-320736D01*
X2865425Y-320736D02*
X2846377Y-330260D01*
X2846377Y-330260D02*
X2798758Y-330260D01*
X2798758Y-330260D02*
X2779710Y-320736D01*
X2779710Y-320736D02*
X2770187Y-311212D01*
X2951139Y-130259D02*
X3084472Y-130259D01*
X3084472Y-130259D02*
X2998758Y-330260D01*
X3151139Y-130259D02*
X3151139Y-168355D01*
X3227329Y-130259D02*
X3227329Y-168355D01*
X3522568Y-406450D02*
X3513044Y-396926D01*
X3513044Y-396926D02*
X3493996Y-368355D01*
X3493996Y-368355D02*
X3484472Y-349307D01*
X3484472Y-349307D02*
X3474948Y-320736D01*
X3474948Y-320736D02*
X3465425Y-273117D01*
X3465425Y-273117D02*
X3465425Y-235021D01*
X3465425Y-235021D02*
X3474948Y-187402D01*
X3474948Y-187402D02*
X3484472Y-158831D01*
X3484472Y-158831D02*
X3493996Y-139783D01*
X3493996Y-139783D02*
X3513044Y-111212D01*
X3513044Y-111212D02*
X3522568Y-101688D01*
X3703520Y-330260D02*
X3589234Y-330260D01*
X3646377Y-330260D02*
X3646377Y-130259D01*
X3646377Y-130259D02*
X3627329Y-158831D01*
X3627329Y-158831D02*
X3608282Y-177878D01*
X3608282Y-177878D02*
X3589234Y-187402D01*
X3827329Y-130259D02*
X3846377Y-130259D01*
X3846377Y-130259D02*
X3865425Y-139783D01*
X3865425Y-139783D02*
X3874948Y-149307D01*
X3874948Y-149307D02*
X3884472Y-168355D01*
X3884472Y-168355D02*
X3893996Y-206450D01*
X3893996Y-206450D02*
X3893996Y-254069D01*
X3893996Y-254069D02*
X3884472Y-292164D01*
X3884472Y-292164D02*
X3874948Y-311212D01*
X3874948Y-311212D02*
X3865425Y-320736D01*
X3865425Y-320736D02*
X3846377Y-330260D01*
X3846377Y-330260D02*
X3827329Y-330260D01*
X3827329Y-330260D02*
X3808282Y-320736D01*
X3808282Y-320736D02*
X3798758Y-311212D01*
X3798758Y-311212D02*
X3789234Y-292164D01*
X3789234Y-292164D02*
X3779710Y-254069D01*
X3779710Y-254069D02*
X3779710Y-206450D01*
X3779710Y-206450D02*
X3789234Y-168355D01*
X3789234Y-168355D02*
X3798758Y-149307D01*
X3798758Y-149307D02*
X3808282Y-139783D01*
X3808282Y-139783D02*
X3827329Y-130259D01*
X3960663Y-130259D02*
X4093996Y-130259D01*
X4093996Y-130259D02*
X4008282Y-330260D01*
X4322568Y-330260D02*
X4322568Y-130259D01*
X4408282Y-330260D02*
X4408282Y-225498D01*
X4408282Y-225498D02*
X4398758Y-206450D01*
X4398758Y-206450D02*
X4379711Y-196926D01*
X4379711Y-196926D02*
X4351139Y-196926D01*
X4351139Y-196926D02*
X4332091Y-206450D01*
X4332091Y-206450D02*
X4322568Y-215974D01*
X4532091Y-330260D02*
X4513044Y-320736D01*
X4513044Y-320736D02*
X4503520Y-311212D01*
X4503520Y-311212D02*
X4493996Y-292164D01*
X4493996Y-292164D02*
X4493996Y-235021D01*
X4493996Y-235021D02*
X4503520Y-215974D01*
X4503520Y-215974D02*
X4513044Y-206450D01*
X4513044Y-206450D02*
X4532091Y-196926D01*
X4532091Y-196926D02*
X4560663Y-196926D01*
X4560663Y-196926D02*
X4579711Y-206450D01*
X4579711Y-206450D02*
X4589234Y-215974D01*
X4589234Y-215974D02*
X4598758Y-235021D01*
X4598758Y-235021D02*
X4598758Y-292164D01*
X4598758Y-292164D02*
X4589234Y-311212D01*
X4589234Y-311212D02*
X4579711Y-320736D01*
X4579711Y-320736D02*
X4560663Y-330260D01*
X4560663Y-330260D02*
X4532091Y-330260D01*
X4713044Y-330260D02*
X4693996Y-320736D01*
X4693996Y-320736D02*
X4684472Y-301688D01*
X4684472Y-301688D02*
X4684472Y-130259D01*
X4865425Y-320736D02*
X4846377Y-330260D01*
X4846377Y-330260D02*
X4808282Y-330260D01*
X4808282Y-330260D02*
X4789234Y-320736D01*
X4789234Y-320736D02*
X4779711Y-301688D01*
X4779711Y-301688D02*
X4779711Y-225498D01*
X4779711Y-225498D02*
X4789234Y-206450D01*
X4789234Y-206450D02*
X4808282Y-196926D01*
X4808282Y-196926D02*
X4846377Y-196926D01*
X4846377Y-196926D02*
X4865425Y-206450D01*
X4865425Y-206450D02*
X4874949Y-225498D01*
X4874949Y-225498D02*
X4874949Y-244545D01*
X4874949Y-244545D02*
X4779711Y-263593D01*
X4951139Y-320736D02*
X4970187Y-330260D01*
X4970187Y-330260D02*
X5008282Y-330260D01*
X5008282Y-330260D02*
X5027330Y-320736D01*
X5027330Y-320736D02*
X5036853Y-301688D01*
X5036853Y-301688D02*
X5036853Y-292164D01*
X5036853Y-292164D02*
X5027330Y-273117D01*
X5027330Y-273117D02*
X5008282Y-263593D01*
X5008282Y-263593D02*
X4979711Y-263593D01*
X4979711Y-263593D02*
X4960663Y-254069D01*
X4960663Y-254069D02*
X4951139Y-235021D01*
X4951139Y-235021D02*
X4951139Y-225498D01*
X4951139Y-225498D02*
X4960663Y-206450D01*
X4960663Y-206450D02*
X4979711Y-196926D01*
X4979711Y-196926D02*
X5008282Y-196926D01*
X5008282Y-196926D02*
X5027330Y-206450D01*
X5103520Y-406450D02*
X5113044Y-396926D01*
X5113044Y-396926D02*
X5132092Y-368355D01*
X5132092Y-368355D02*
X5141615Y-349307D01*
X5141615Y-349307D02*
X5151139Y-320736D01*
X5151139Y-320736D02*
X5160663Y-273117D01*
X5160663Y-273117D02*
X5160663Y-235021D01*
X5160663Y-235021D02*
X5151139Y-187402D01*
X5151139Y-187402D02*
X5141615Y-158831D01*
X5141615Y-158831D02*
X5132092Y-139783D01*
X5132092Y-139783D02*
X5113044Y-111212D01*
X5113044Y-111212D02*
X5103520Y-101688D01*
M02*
