M48
; DRILL file {KiCad 8.0.5-8.0.5-0~ubuntu22.04.1} date 2024-11-26T13:48:23+0000
; FORMAT={-:-/ absolute / inch / decimal}
; #@! TF.CreationDate,2024-11-26T13:48:23+00:00
; #@! TF.GenerationSoftware,Kicad,Pcbnew,8.0.5-8.0.5-0~ubuntu22.04.1
; #@! TF.FileFunction,Plated,1,2,PTH
FMAT,2
INCH
; #@! TA.AperFunction,Plated,PTH,ViaDrill
T1C0.0157
%
G90
G05
T1
X0.05Y0.37
X0.16Y0.58
X0.16Y0.4
X0.2Y1.3
X0.22Y1.15
X0.26Y1.0
X0.46Y0.64
X0.46Y0.58
X0.55Y0.87
X0.56Y0.72
X0.56Y0.32
X0.575Y0.54
X0.58Y0.42
X0.6Y1.3
X0.6112Y0.582
X0.62Y0.32
X0.66Y0.36
X0.69Y1.07
X0.7197Y0.3603
X0.729Y0.3214
X0.74Y0.62
X0.75Y0.29
X0.7694Y0.3336
X0.79Y0.985
X0.79Y0.302
X0.8Y0.9
X0.8Y0.775
X0.8Y0.55
X0.825Y0.3562
X0.8373Y0.5562
X0.8615Y0.2935
X0.865Y0.69
X0.915Y1.035
X0.93Y0.825
X0.93Y0.785
X0.93Y0.745
X0.94Y0.55
X0.955Y1.035
X0.955Y0.685
X0.9596Y0.59
X0.96Y0.91
X0.96Y0.32
X1.0Y1.3
X1.0Y0.3562
X1.1049Y0.8422
X1.105Y0.804
X1.105Y0.765
X1.105Y0.7272
X1.1063Y0.88
X1.12Y0.3
X1.125Y0.61
X1.125Y0.535
X1.13Y0.94
X1.15Y0.85
X1.16Y0.66
X1.24Y0.66
X1.24Y0.56
X1.31Y0.48
X1.36Y1.06
X1.36Y0.96
X1.36Y0.84
X1.36Y0.68
X1.36Y0.61
X1.38Y0.41
X1.39Y0.33
X1.42Y0.54
X1.44Y0.84
X1.485Y0.685
X1.5Y1.06
X1.5Y0.96
X1.51Y0.33
X1.52Y0.84
X1.565Y0.695
X1.59Y0.283
X1.6Y0.82
X1.6Y0.38
X1.65Y0.7
X1.66Y0.78
X1.677Y0.407
X1.688Y0.282
X1.7058Y0.38
X1.71Y0.34
X1.72Y0.76
X1.74Y0.695
X1.79Y0.69
X1.8Y0.76
X1.81Y0.36
X1.84Y0.73
X1.87Y0.22
X1.88Y0.7
X1.92Y0.64
X1.96Y1.06
X1.96Y0.96
X2.0Y0.22
X2.02Y0.72
X2.028Y0.404
X2.1Y0.64
X2.14Y1.06
X2.14Y0.96
X2.18Y0.8
X2.18Y0.6
X2.18Y0.4
X2.184Y0.196
X2.422Y0.27
X2.7026Y1.1893
X2.7417Y1.2281
X2.7917Y1.2283
M30
