%TF.GenerationSoftware,KiCad,Pcbnew,8.0.5-8.0.5-0~ubuntu22.04.1*%
%TF.CreationDate,2024-11-26T13:49:24+00:00*%
%TF.ProjectId,numcalcium,6e756d63-616c-4636-9975-6d2e6b696361,rev?*%
%TF.SameCoordinates,Original*%
%TF.FileFunction,Legend,Bot*%
%TF.FilePolarity,Positive*%
%FSLAX46Y46*%
G04 Gerber Fmt 4.6, Leading zero omitted, Abs format (unit mm)*
G04 Created by KiCad (PCBNEW 8.0.5-8.0.5-0~ubuntu22.04.1) date 2024-11-26 13:49:24*
%MOMM*%
%LPD*%
G01*
G04 APERTURE LIST*
%ADD10C,0.400000*%
%ADD11C,0.150000*%
%ADD12C,0.100000*%
%ADD13C,1.000000*%
%ADD14C,0.120000*%
G04 APERTURE END LIST*
D10*
G36*
X71428861Y30714783D02*
G01*
X71428861Y32591606D01*
X71426724Y32591606D01*
X70424412Y31170418D01*
X70576575Y31204612D01*
X69576828Y32591606D01*
X69572127Y32591606D01*
X69572127Y30714783D01*
X69927317Y30714783D01*
X69927317Y31790184D01*
X69905091Y31606391D01*
X70515026Y30739146D01*
X70520155Y30739146D01*
X71147188Y31606391D01*
X71086066Y31775651D01*
X71086066Y30714783D01*
X71428861Y30714783D01*
G37*
G36*
X67597824Y32533155D02*
G01*
X67688785Y32519371D01*
X67776701Y32496397D01*
X67861572Y32464233D01*
X67942382Y32424028D01*
X68018116Y32376931D01*
X68088775Y32322942D01*
X68154358Y32262061D01*
X68213957Y32195356D01*
X68266664Y32123896D01*
X68312479Y32047681D01*
X68351401Y31966710D01*
X68382443Y31882160D01*
X68404615Y31795206D01*
X68417919Y31705847D01*
X68422354Y31614085D01*
X68417919Y31520078D01*
X68404615Y31429117D01*
X68382443Y31341201D01*
X68351401Y31256330D01*
X68312479Y31175520D01*
X68266664Y31099786D01*
X68213957Y31029127D01*
X68154358Y30963544D01*
X68088775Y30903918D01*
X68018116Y30851131D01*
X67942382Y30805183D01*
X67861572Y30766073D01*
X67776701Y30735032D01*
X67688785Y30712859D01*
X67597824Y30699555D01*
X67503817Y30695121D01*
X67410932Y30699555D01*
X67320773Y30712859D01*
X67233337Y30735032D01*
X67148627Y30766073D01*
X67067657Y30805183D01*
X66991442Y30851131D01*
X66919981Y30903918D01*
X66853276Y30963544D01*
X66792475Y31029127D01*
X66738727Y31099786D01*
X66692030Y31175520D01*
X66652387Y31256330D01*
X66620784Y31341201D01*
X66598211Y31429117D01*
X66584667Y31520078D01*
X66580152Y31614085D01*
X66947737Y31614085D01*
X66949742Y31562295D01*
X66962504Y31477034D01*
X66989625Y31389687D01*
X67006300Y31351579D01*
X67050160Y31274786D01*
X67104602Y31205894D01*
X67133073Y31177328D01*
X67200945Y31123993D01*
X67277282Y31082368D01*
X67315024Y31067406D01*
X67400613Y31045609D01*
X67491422Y31038343D01*
X67543089Y31040450D01*
X67627569Y31053864D01*
X67713256Y31082368D01*
X67750547Y31100124D01*
X67825468Y31147154D01*
X67892347Y31205894D01*
X67920011Y31236708D01*
X67971805Y31309247D01*
X68012453Y31389687D01*
X68029108Y31436071D01*
X68049185Y31526229D01*
X68055195Y31614085D01*
X68053212Y31666748D01*
X68040579Y31753222D01*
X68013735Y31841475D01*
X67996825Y31880148D01*
X67951939Y31957652D01*
X67895766Y32026550D01*
X67866379Y32055261D01*
X67796830Y32108807D01*
X67719239Y32150503D01*
X67674477Y32167657D01*
X67587005Y32188337D01*
X67501253Y32194528D01*
X67457776Y32192980D01*
X67367699Y32179007D01*
X67283266Y32150503D01*
X67246501Y32132731D01*
X67173029Y32085566D01*
X67108022Y32026550D01*
X67081099Y31995820D01*
X67030499Y31922951D01*
X66990480Y31841475D01*
X66971780Y31787833D01*
X66953748Y31703363D01*
X66947737Y31614085D01*
X66580152Y31614085D01*
X66584667Y31705847D01*
X66598211Y31795206D01*
X66620784Y31882160D01*
X66652387Y31966710D01*
X66692030Y32047681D01*
X66738727Y32123896D01*
X66792475Y32195356D01*
X66853276Y32262061D01*
X66919981Y32322942D01*
X66991442Y32376931D01*
X67067657Y32424028D01*
X67148627Y32464233D01*
X67233337Y32496397D01*
X67320773Y32519371D01*
X67410932Y32533155D01*
X67503817Y32537750D01*
X67597824Y32533155D01*
G37*
G36*
X65552195Y32518089D02*
G01*
X64337026Y32518089D01*
X64337026Y32174866D01*
X64775564Y32174866D01*
X64775564Y30714783D01*
X65130754Y30714783D01*
X65130754Y32174866D01*
X65552195Y32174866D01*
X65552195Y32518089D01*
G37*
G36*
X63200075Y32518089D02*
G01*
X62844885Y32518089D01*
X62844885Y30714783D01*
X63200075Y30714783D01*
X63200075Y32518089D01*
G37*
G36*
X61312566Y32518089D02*
G01*
X60785979Y31219571D01*
X60991570Y31261032D01*
X60514137Y32518089D01*
X60092695Y32518089D01*
X60915916Y30631435D01*
X61739137Y32518089D01*
X61312566Y32518089D01*
G37*
G36*
X59183563Y30891309D02*
G01*
X59162024Y30976360D01*
X59128425Y31018254D01*
X59055161Y31062700D01*
X59007036Y31069973D01*
X58922265Y31043255D01*
X58890776Y31018254D01*
X58843392Y30944624D01*
X58835639Y30891309D01*
X58855077Y30806981D01*
X58890776Y30762654D01*
X58965722Y30720439D01*
X59007036Y30714783D01*
X59092878Y30737409D01*
X59128425Y30762654D01*
X59175809Y30835350D01*
X59183563Y30891309D01*
G37*
G36*
X57771778Y30714783D02*
G01*
X57416588Y30714783D01*
X57416588Y31285822D01*
X57161842Y31285822D01*
X57129232Y31286307D01*
X57037261Y31293576D01*
X56945382Y31311884D01*
X56864355Y31340960D01*
X56806732Y31370746D01*
X56731819Y31423740D01*
X56670731Y31486712D01*
X56641010Y31527337D01*
X56595798Y31607994D01*
X56565585Y31688457D01*
X56554254Y31730246D01*
X56537748Y31820480D01*
X56532847Y31900459D01*
X56887436Y31900459D01*
X56901113Y31819676D01*
X56904700Y31808089D01*
X56945138Y31730344D01*
X56959706Y31712340D01*
X57029768Y31659392D01*
X57077970Y31641127D01*
X57164407Y31631182D01*
X57416588Y31631182D01*
X57416588Y32174866D01*
X57161842Y32174866D01*
X57097308Y32170358D01*
X57013526Y32142809D01*
X56990753Y32128256D01*
X56931460Y32064591D01*
X56926573Y32055866D01*
X56895984Y31972694D01*
X56887436Y31900459D01*
X56532847Y31900459D01*
X56532245Y31910290D01*
X56535085Y31978401D01*
X56547708Y32063699D01*
X56573978Y32152123D01*
X56613029Y32232569D01*
X56640079Y32273552D01*
X56697868Y32339801D01*
X56767355Y32396380D01*
X56848540Y32443289D01*
X56868095Y32452347D01*
X56951656Y32482734D01*
X57043766Y32503771D01*
X57131375Y32514509D01*
X57225529Y32518089D01*
X57771778Y32518089D01*
X57771778Y30714783D01*
G37*
G36*
X55573959Y32505693D02*
G01*
X55157219Y32505693D01*
X54772537Y31373872D01*
X54828957Y31398235D01*
X54493428Y32233851D01*
X54329297Y31746159D01*
X54848618Y30631435D01*
X55573959Y32505693D01*
G37*
G36*
X54669527Y32505693D02*
G01*
X54316902Y32505693D01*
X53873662Y31410630D01*
X53937348Y31420461D01*
X53606521Y32505693D01*
X53224403Y32505693D01*
X53919824Y30636564D01*
X54669527Y32505693D01*
G37*
G36*
X17326861Y30968783D02*
G01*
X16971671Y30968783D01*
X16971671Y31539822D01*
X16716925Y31539822D01*
X16684315Y31540307D01*
X16592344Y31547576D01*
X16500465Y31565884D01*
X16419438Y31594960D01*
X16361815Y31624746D01*
X16286903Y31677740D01*
X16225814Y31740712D01*
X16196093Y31781337D01*
X16150881Y31861994D01*
X16120668Y31942457D01*
X16109337Y31984246D01*
X16092831Y32074480D01*
X16087930Y32154459D01*
X16442519Y32154459D01*
X16456196Y32073676D01*
X16459783Y32062089D01*
X16500221Y31984344D01*
X16514789Y31966340D01*
X16584851Y31913392D01*
X16633053Y31895127D01*
X16719490Y31885182D01*
X16971671Y31885182D01*
X16971671Y32428866D01*
X16716925Y32428866D01*
X16652391Y32424358D01*
X16568609Y32396809D01*
X16545836Y32382256D01*
X16486543Y32318591D01*
X16481656Y32309866D01*
X16451067Y32226694D01*
X16442519Y32154459D01*
X16087930Y32154459D01*
X16087328Y32164290D01*
X16090168Y32232401D01*
X16102791Y32317699D01*
X16129061Y32406123D01*
X16168112Y32486569D01*
X16195162Y32527552D01*
X16252951Y32593801D01*
X16322438Y32650380D01*
X16403623Y32697289D01*
X16423178Y32706347D01*
X16506739Y32736734D01*
X16598849Y32757771D01*
X16686458Y32768509D01*
X16780612Y32772089D01*
X17326861Y32772089D01*
X17326861Y30968783D01*
G37*
G36*
X14506711Y31529992D02*
G01*
X15170502Y32772089D01*
X14731964Y32772089D01*
X14266498Y31836028D01*
X14371645Y31828762D01*
X13913445Y32772089D01*
X13474907Y32772089D01*
X14151521Y31529992D01*
X14151521Y30968783D01*
X14506711Y30968783D01*
X14506711Y31529992D01*
G37*
G36*
X11598084Y32808847D02*
G01*
X11630702Y32720152D01*
X11663320Y32631502D01*
X11695937Y32542898D01*
X11728555Y32454338D01*
X11761173Y32365824D01*
X11793791Y32277354D01*
X11826409Y32188930D01*
X11859027Y32100550D01*
X11891645Y32012216D01*
X11924263Y31923927D01*
X11946008Y31865093D01*
X11978626Y31776914D01*
X12011244Y31688690D01*
X12043861Y31600421D01*
X12076479Y31512106D01*
X12109097Y31423747D01*
X12141715Y31335343D01*
X12174333Y31246893D01*
X12206951Y31158399D01*
X12239569Y31069859D01*
X12272186Y30981275D01*
X12293932Y30922193D01*
X12602960Y30922193D01*
X12570342Y31010808D01*
X12537724Y31099378D01*
X12505106Y31187902D01*
X12472489Y31276382D01*
X12439871Y31364816D01*
X12407253Y31453205D01*
X12374635Y31541550D01*
X12342017Y31629849D01*
X12309399Y31718103D01*
X12276781Y31806312D01*
X12255036Y31865093D01*
X12222418Y31953352D01*
X12189800Y32041656D01*
X12157182Y32130005D01*
X12124565Y32218400D01*
X12091947Y32306839D01*
X12059329Y32395323D01*
X12026711Y32483853D01*
X11994093Y32572428D01*
X11961475Y32661047D01*
X11928857Y32749712D01*
X11907112Y32808847D01*
X11598084Y32808847D01*
G37*
G36*
X10788968Y30968783D02*
G01*
X9975579Y32843041D01*
X9955917Y32843041D01*
X9142527Y30968783D01*
X9554138Y30968783D01*
X10073459Y32286961D01*
X9816577Y32463488D01*
X10438907Y30968783D01*
X10788968Y30968783D01*
G37*
G36*
X10232888Y31620606D02*
G01*
X9691341Y31620606D01*
X9566533Y31321408D01*
X10343164Y31321408D01*
X10232888Y31620606D01*
G37*
G36*
X7558683Y32612619D02*
G01*
X7648025Y32607861D01*
X7733109Y32595172D01*
X7821784Y32572054D01*
X7896575Y32541516D01*
X7971421Y32495390D01*
X8038489Y32436132D01*
X8055362Y32417709D01*
X8106453Y32348319D01*
X8149613Y32266657D01*
X8181676Y32182669D01*
X8187887Y32162601D01*
X8208724Y32076314D01*
X8223150Y31980411D01*
X8230513Y31888606D01*
X8232967Y31789438D01*
X8230390Y31699887D01*
X8221133Y31604003D01*
X8205145Y31515012D01*
X8179111Y31423135D01*
X8168660Y31394437D01*
X8133070Y31314022D01*
X8086070Y31234664D01*
X8031222Y31165825D01*
X7969346Y31107605D01*
X7894725Y31055327D01*
X7813236Y31015372D01*
X7726149Y30987387D01*
X7635325Y30971018D01*
X7549514Y30966218D01*
X7463871Y30970768D01*
X7373616Y30986282D01*
X7287503Y31012807D01*
X7213505Y31047060D01*
X7138278Y31096597D01*
X7069516Y31158559D01*
X7051932Y31177659D01*
X6998638Y31248652D01*
X6953525Y31330915D01*
X6919917Y31414587D01*
X6913396Y31434434D01*
X6891517Y31518596D01*
X6876370Y31610399D01*
X6868639Y31696994D01*
X6866062Y31789438D01*
X6866345Y31799269D01*
X7235784Y31799269D01*
X7238016Y31724019D01*
X7246804Y31637282D01*
X7263995Y31549226D01*
X7271681Y31521864D01*
X7305428Y31443177D01*
X7361020Y31371844D01*
X7378965Y31356617D01*
X7461368Y31317598D01*
X7552079Y31306876D01*
X7581304Y31307891D01*
X7665216Y31325212D01*
X7741001Y31371844D01*
X7757450Y31388794D01*
X7807595Y31464967D01*
X7836317Y31547089D01*
X7849333Y31611046D01*
X7860062Y31702318D01*
X7863244Y31792003D01*
X7861561Y31857639D01*
X7852726Y31949783D01*
X7836317Y32034353D01*
X7830903Y32054238D01*
X7796005Y32136705D01*
X7741001Y32206178D01*
X7722996Y32221104D01*
X7641200Y32259353D01*
X7552079Y32269864D01*
X7522259Y32268882D01*
X7437061Y32252131D01*
X7361020Y32207033D01*
X7348474Y32194952D01*
X7296450Y32123169D01*
X7263995Y32039055D01*
X7250358Y31977577D01*
X7239118Y31888349D01*
X7235784Y31799269D01*
X6866345Y31799269D01*
X6868639Y31878990D01*
X6877895Y31974874D01*
X6893884Y32063865D01*
X6919917Y32155742D01*
X6930372Y32184440D01*
X6966019Y32264855D01*
X7013161Y32344213D01*
X7068234Y32413052D01*
X7129927Y32471455D01*
X7204538Y32523743D01*
X7286221Y32563505D01*
X7373064Y32591490D01*
X7463746Y32607859D01*
X7549514Y32612659D01*
X7558683Y32612619D01*
G37*
D11*
X23345388Y-58109682D02*
X23345388Y-57449682D01*
X23345388Y-57449682D02*
X23188245Y-57449682D01*
X23188245Y-57449682D02*
X23093959Y-57481111D01*
X23093959Y-57481111D02*
X23031102Y-57543968D01*
X23031102Y-57543968D02*
X22999673Y-57606825D01*
X22999673Y-57606825D02*
X22968245Y-57732539D01*
X22968245Y-57732539D02*
X22968245Y-57826825D01*
X22968245Y-57826825D02*
X22999673Y-57952539D01*
X22999673Y-57952539D02*
X23031102Y-58015396D01*
X23031102Y-58015396D02*
X23093959Y-58078254D01*
X23093959Y-58078254D02*
X23188245Y-58109682D01*
X23188245Y-58109682D02*
X23345388Y-58109682D01*
X22402531Y-57449682D02*
X22528245Y-57449682D01*
X22528245Y-57449682D02*
X22591102Y-57481111D01*
X22591102Y-57481111D02*
X22622531Y-57512539D01*
X22622531Y-57512539D02*
X22685388Y-57606825D01*
X22685388Y-57606825D02*
X22716816Y-57732539D01*
X22716816Y-57732539D02*
X22716816Y-57983968D01*
X22716816Y-57983968D02*
X22685388Y-58046825D01*
X22685388Y-58046825D02*
X22653959Y-58078254D01*
X22653959Y-58078254D02*
X22591102Y-58109682D01*
X22591102Y-58109682D02*
X22465388Y-58109682D01*
X22465388Y-58109682D02*
X22402531Y-58078254D01*
X22402531Y-58078254D02*
X22371102Y-58046825D01*
X22371102Y-58046825D02*
X22339673Y-57983968D01*
X22339673Y-57983968D02*
X22339673Y-57826825D01*
X22339673Y-57826825D02*
X22371102Y-57763968D01*
X22371102Y-57763968D02*
X22402531Y-57732539D01*
X22402531Y-57732539D02*
X22465388Y-57701111D01*
X22465388Y-57701111D02*
X22591102Y-57701111D01*
X22591102Y-57701111D02*
X22653959Y-57732539D01*
X22653959Y-57732539D02*
X22685388Y-57763968D01*
X22685388Y-57763968D02*
X22716816Y-57826825D01*
X4355674Y-20009682D02*
X4355674Y-19349682D01*
X4355674Y-19349682D02*
X4198531Y-19349682D01*
X4198531Y-19349682D02*
X4104245Y-19381111D01*
X4104245Y-19381111D02*
X4041388Y-19443968D01*
X4041388Y-19443968D02*
X4009959Y-19506825D01*
X4009959Y-19506825D02*
X3978531Y-19632539D01*
X3978531Y-19632539D02*
X3978531Y-19726825D01*
X3978531Y-19726825D02*
X4009959Y-19852539D01*
X4009959Y-19852539D02*
X4041388Y-19915396D01*
X4041388Y-19915396D02*
X4104245Y-19978254D01*
X4104245Y-19978254D02*
X4198531Y-20009682D01*
X4198531Y-20009682D02*
X4355674Y-20009682D01*
X3349959Y-20009682D02*
X3727102Y-20009682D01*
X3538531Y-20009682D02*
X3538531Y-19349682D01*
X3538531Y-19349682D02*
X3601388Y-19443968D01*
X3601388Y-19443968D02*
X3664245Y-19506825D01*
X3664245Y-19506825D02*
X3727102Y-19538254D01*
X3129960Y-19349682D02*
X2721388Y-19349682D01*
X2721388Y-19349682D02*
X2941388Y-19601111D01*
X2941388Y-19601111D02*
X2847103Y-19601111D01*
X2847103Y-19601111D02*
X2784246Y-19632539D01*
X2784246Y-19632539D02*
X2752817Y-19663968D01*
X2752817Y-19663968D02*
X2721388Y-19726825D01*
X2721388Y-19726825D02*
X2721388Y-19883968D01*
X2721388Y-19883968D02*
X2752817Y-19946825D01*
X2752817Y-19946825D02*
X2784246Y-19978254D01*
X2784246Y-19978254D02*
X2847103Y-20009682D01*
X2847103Y-20009682D02*
X3035674Y-20009682D01*
X3035674Y-20009682D02*
X3098531Y-19978254D01*
X3098531Y-19978254D02*
X3129960Y-19946825D01*
X61505674Y-959682D02*
X61505674Y-299682D01*
X61505674Y-299682D02*
X61348531Y-299682D01*
X61348531Y-299682D02*
X61254245Y-331111D01*
X61254245Y-331111D02*
X61191388Y-393968D01*
X61191388Y-393968D02*
X61159959Y-456825D01*
X61159959Y-456825D02*
X61128531Y-582539D01*
X61128531Y-582539D02*
X61128531Y-676825D01*
X61128531Y-676825D02*
X61159959Y-802539D01*
X61159959Y-802539D02*
X61191388Y-865396D01*
X61191388Y-865396D02*
X61254245Y-928254D01*
X61254245Y-928254D02*
X61348531Y-959682D01*
X61348531Y-959682D02*
X61505674Y-959682D01*
X60877102Y-362539D02*
X60845674Y-331111D01*
X60845674Y-331111D02*
X60782817Y-299682D01*
X60782817Y-299682D02*
X60625674Y-299682D01*
X60625674Y-299682D02*
X60562817Y-331111D01*
X60562817Y-331111D02*
X60531388Y-362539D01*
X60531388Y-362539D02*
X60499959Y-425396D01*
X60499959Y-425396D02*
X60499959Y-488254D01*
X60499959Y-488254D02*
X60531388Y-582539D01*
X60531388Y-582539D02*
X60908531Y-959682D01*
X60908531Y-959682D02*
X60499959Y-959682D01*
X60091388Y-299682D02*
X60028531Y-299682D01*
X60028531Y-299682D02*
X59965674Y-331111D01*
X59965674Y-331111D02*
X59934246Y-362539D01*
X59934246Y-362539D02*
X59902817Y-425396D01*
X59902817Y-425396D02*
X59871388Y-551111D01*
X59871388Y-551111D02*
X59871388Y-708254D01*
X59871388Y-708254D02*
X59902817Y-833968D01*
X59902817Y-833968D02*
X59934246Y-896825D01*
X59934246Y-896825D02*
X59965674Y-928254D01*
X59965674Y-928254D02*
X60028531Y-959682D01*
X60028531Y-959682D02*
X60091388Y-959682D01*
X60091388Y-959682D02*
X60154246Y-928254D01*
X60154246Y-928254D02*
X60185674Y-896825D01*
X60185674Y-896825D02*
X60217103Y-833968D01*
X60217103Y-833968D02*
X60248531Y-708254D01*
X60248531Y-708254D02*
X60248531Y-551111D01*
X60248531Y-551111D02*
X60217103Y-425396D01*
X60217103Y-425396D02*
X60185674Y-362539D01*
X60185674Y-362539D02*
X60154246Y-331111D01*
X60154246Y-331111D02*
X60091388Y-299682D01*
X23532674Y-39186682D02*
X23532674Y-38526682D01*
X23532674Y-38526682D02*
X23375531Y-38526682D01*
X23375531Y-38526682D02*
X23281245Y-38558111D01*
X23281245Y-38558111D02*
X23218388Y-38620968D01*
X23218388Y-38620968D02*
X23186959Y-38683825D01*
X23186959Y-38683825D02*
X23155531Y-38809539D01*
X23155531Y-38809539D02*
X23155531Y-38903825D01*
X23155531Y-38903825D02*
X23186959Y-39029539D01*
X23186959Y-39029539D02*
X23218388Y-39092396D01*
X23218388Y-39092396D02*
X23281245Y-39155254D01*
X23281245Y-39155254D02*
X23375531Y-39186682D01*
X23375531Y-39186682D02*
X23532674Y-39186682D01*
X22526959Y-39186682D02*
X22904102Y-39186682D01*
X22715531Y-39186682D02*
X22715531Y-38526682D01*
X22715531Y-38526682D02*
X22778388Y-38620968D01*
X22778388Y-38620968D02*
X22841245Y-38683825D01*
X22841245Y-38683825D02*
X22904102Y-38715254D01*
X22118388Y-38526682D02*
X22055531Y-38526682D01*
X22055531Y-38526682D02*
X21992674Y-38558111D01*
X21992674Y-38558111D02*
X21961246Y-38589539D01*
X21961246Y-38589539D02*
X21929817Y-38652396D01*
X21929817Y-38652396D02*
X21898388Y-38778111D01*
X21898388Y-38778111D02*
X21898388Y-38935254D01*
X21898388Y-38935254D02*
X21929817Y-39060968D01*
X21929817Y-39060968D02*
X21961246Y-39123825D01*
X21961246Y-39123825D02*
X21992674Y-39155254D01*
X21992674Y-39155254D02*
X22055531Y-39186682D01*
X22055531Y-39186682D02*
X22118388Y-39186682D01*
X22118388Y-39186682D02*
X22181246Y-39155254D01*
X22181246Y-39155254D02*
X22212674Y-39123825D01*
X22212674Y-39123825D02*
X22244103Y-39060968D01*
X22244103Y-39060968D02*
X22275531Y-38935254D01*
X22275531Y-38935254D02*
X22275531Y-38778111D01*
X22275531Y-38778111D02*
X22244103Y-38652396D01*
X22244103Y-38652396D02*
X22212674Y-38589539D01*
X22212674Y-38589539D02*
X22181246Y-38558111D01*
X22181246Y-38558111D02*
X22118388Y-38526682D01*
X3267245Y-120482D02*
X3487245Y193803D01*
X3644388Y-120482D02*
X3644388Y539517D01*
X3644388Y539517D02*
X3392959Y539517D01*
X3392959Y539517D02*
X3330102Y508088D01*
X3330102Y508088D02*
X3298673Y476660D01*
X3298673Y476660D02*
X3267245Y413803D01*
X3267245Y413803D02*
X3267245Y319517D01*
X3267245Y319517D02*
X3298673Y256660D01*
X3298673Y256660D02*
X3330102Y225231D01*
X3330102Y225231D02*
X3392959Y193803D01*
X3392959Y193803D02*
X3644388Y193803D01*
X2638673Y-120482D02*
X3015816Y-120482D01*
X2827245Y-120482D02*
X2827245Y539517D01*
X2827245Y539517D02*
X2890102Y445231D01*
X2890102Y445231D02*
X2952959Y382374D01*
X2952959Y382374D02*
X3015816Y350946D01*
X42395388Y-57982682D02*
X42395388Y-57322682D01*
X42395388Y-57322682D02*
X42238245Y-57322682D01*
X42238245Y-57322682D02*
X42143959Y-57354111D01*
X42143959Y-57354111D02*
X42081102Y-57416968D01*
X42081102Y-57416968D02*
X42049673Y-57479825D01*
X42049673Y-57479825D02*
X42018245Y-57605539D01*
X42018245Y-57605539D02*
X42018245Y-57699825D01*
X42018245Y-57699825D02*
X42049673Y-57825539D01*
X42049673Y-57825539D02*
X42081102Y-57888396D01*
X42081102Y-57888396D02*
X42143959Y-57951254D01*
X42143959Y-57951254D02*
X42238245Y-57982682D01*
X42238245Y-57982682D02*
X42395388Y-57982682D01*
X41798245Y-57322682D02*
X41358245Y-57322682D01*
X41358245Y-57322682D02*
X41641102Y-57982682D01*
X4422388Y-39313682D02*
X4422388Y-38653682D01*
X4422388Y-38653682D02*
X4265245Y-38653682D01*
X4265245Y-38653682D02*
X4170959Y-38685111D01*
X4170959Y-38685111D02*
X4108102Y-38747968D01*
X4108102Y-38747968D02*
X4076673Y-38810825D01*
X4076673Y-38810825D02*
X4045245Y-38936539D01*
X4045245Y-38936539D02*
X4045245Y-39030825D01*
X4045245Y-39030825D02*
X4076673Y-39156539D01*
X4076673Y-39156539D02*
X4108102Y-39219396D01*
X4108102Y-39219396D02*
X4170959Y-39282254D01*
X4170959Y-39282254D02*
X4265245Y-39313682D01*
X4265245Y-39313682D02*
X4422388Y-39313682D01*
X3730959Y-39313682D02*
X3605245Y-39313682D01*
X3605245Y-39313682D02*
X3542388Y-39282254D01*
X3542388Y-39282254D02*
X3510959Y-39250825D01*
X3510959Y-39250825D02*
X3448102Y-39156539D01*
X3448102Y-39156539D02*
X3416673Y-39030825D01*
X3416673Y-39030825D02*
X3416673Y-38779396D01*
X3416673Y-38779396D02*
X3448102Y-38716539D01*
X3448102Y-38716539D02*
X3479531Y-38685111D01*
X3479531Y-38685111D02*
X3542388Y-38653682D01*
X3542388Y-38653682D02*
X3668102Y-38653682D01*
X3668102Y-38653682D02*
X3730959Y-38685111D01*
X3730959Y-38685111D02*
X3762388Y-38716539D01*
X3762388Y-38716539D02*
X3793816Y-38779396D01*
X3793816Y-38779396D02*
X3793816Y-38936539D01*
X3793816Y-38936539D02*
X3762388Y-38999396D01*
X3762388Y-38999396D02*
X3730959Y-39030825D01*
X3730959Y-39030825D02*
X3668102Y-39062254D01*
X3668102Y-39062254D02*
X3542388Y-39062254D01*
X3542388Y-39062254D02*
X3479531Y-39030825D01*
X3479531Y-39030825D02*
X3448102Y-38999396D01*
X3448102Y-38999396D02*
X3416673Y-38936539D01*
X4422388Y-57982682D02*
X4422388Y-57322682D01*
X4422388Y-57322682D02*
X4265245Y-57322682D01*
X4265245Y-57322682D02*
X4170959Y-57354111D01*
X4170959Y-57354111D02*
X4108102Y-57416968D01*
X4108102Y-57416968D02*
X4076673Y-57479825D01*
X4076673Y-57479825D02*
X4045245Y-57605539D01*
X4045245Y-57605539D02*
X4045245Y-57699825D01*
X4045245Y-57699825D02*
X4076673Y-57825539D01*
X4076673Y-57825539D02*
X4108102Y-57888396D01*
X4108102Y-57888396D02*
X4170959Y-57951254D01*
X4170959Y-57951254D02*
X4265245Y-57982682D01*
X4265245Y-57982682D02*
X4422388Y-57982682D01*
X3448102Y-57322682D02*
X3762388Y-57322682D01*
X3762388Y-57322682D02*
X3793816Y-57636968D01*
X3793816Y-57636968D02*
X3762388Y-57605539D01*
X3762388Y-57605539D02*
X3699531Y-57574111D01*
X3699531Y-57574111D02*
X3542388Y-57574111D01*
X3542388Y-57574111D02*
X3479531Y-57605539D01*
X3479531Y-57605539D02*
X3448102Y-57636968D01*
X3448102Y-57636968D02*
X3416673Y-57699825D01*
X3416673Y-57699825D02*
X3416673Y-57856968D01*
X3416673Y-57856968D02*
X3448102Y-57919825D01*
X3448102Y-57919825D02*
X3479531Y-57951254D01*
X3479531Y-57951254D02*
X3542388Y-57982682D01*
X3542388Y-57982682D02*
X3699531Y-57982682D01*
X3699531Y-57982682D02*
X3762388Y-57951254D01*
X3762388Y-57951254D02*
X3793816Y-57919825D01*
X23405674Y-959682D02*
X23405674Y-299682D01*
X23405674Y-299682D02*
X23248531Y-299682D01*
X23248531Y-299682D02*
X23154245Y-331111D01*
X23154245Y-331111D02*
X23091388Y-393968D01*
X23091388Y-393968D02*
X23059959Y-456825D01*
X23059959Y-456825D02*
X23028531Y-582539D01*
X23028531Y-582539D02*
X23028531Y-676825D01*
X23028531Y-676825D02*
X23059959Y-802539D01*
X23059959Y-802539D02*
X23091388Y-865396D01*
X23091388Y-865396D02*
X23154245Y-928254D01*
X23154245Y-928254D02*
X23248531Y-959682D01*
X23248531Y-959682D02*
X23405674Y-959682D01*
X22399959Y-959682D02*
X22777102Y-959682D01*
X22588531Y-959682D02*
X22588531Y-299682D01*
X22588531Y-299682D02*
X22651388Y-393968D01*
X22651388Y-393968D02*
X22714245Y-456825D01*
X22714245Y-456825D02*
X22777102Y-488254D01*
X22022817Y-582539D02*
X22085674Y-551111D01*
X22085674Y-551111D02*
X22117103Y-519682D01*
X22117103Y-519682D02*
X22148531Y-456825D01*
X22148531Y-456825D02*
X22148531Y-425396D01*
X22148531Y-425396D02*
X22117103Y-362539D01*
X22117103Y-362539D02*
X22085674Y-331111D01*
X22085674Y-331111D02*
X22022817Y-299682D01*
X22022817Y-299682D02*
X21897103Y-299682D01*
X21897103Y-299682D02*
X21834246Y-331111D01*
X21834246Y-331111D02*
X21802817Y-362539D01*
X21802817Y-362539D02*
X21771388Y-425396D01*
X21771388Y-425396D02*
X21771388Y-456825D01*
X21771388Y-456825D02*
X21802817Y-519682D01*
X21802817Y-519682D02*
X21834246Y-551111D01*
X21834246Y-551111D02*
X21897103Y-582539D01*
X21897103Y-582539D02*
X22022817Y-582539D01*
X22022817Y-582539D02*
X22085674Y-613968D01*
X22085674Y-613968D02*
X22117103Y-645396D01*
X22117103Y-645396D02*
X22148531Y-708254D01*
X22148531Y-708254D02*
X22148531Y-833968D01*
X22148531Y-833968D02*
X22117103Y-896825D01*
X22117103Y-896825D02*
X22085674Y-928254D01*
X22085674Y-928254D02*
X22022817Y-959682D01*
X22022817Y-959682D02*
X21897103Y-959682D01*
X21897103Y-959682D02*
X21834246Y-928254D01*
X21834246Y-928254D02*
X21802817Y-896825D01*
X21802817Y-896825D02*
X21771388Y-833968D01*
X21771388Y-833968D02*
X21771388Y-708254D01*
X21771388Y-708254D02*
X21802817Y-645396D01*
X21802817Y-645396D02*
X21834246Y-613968D01*
X21834246Y-613968D02*
X21897103Y-582539D01*
X42074674Y-39059682D02*
X42074674Y-38399682D01*
X42074674Y-38399682D02*
X41917531Y-38399682D01*
X41917531Y-38399682D02*
X41823245Y-38431111D01*
X41823245Y-38431111D02*
X41760388Y-38493968D01*
X41760388Y-38493968D02*
X41728959Y-38556825D01*
X41728959Y-38556825D02*
X41697531Y-38682539D01*
X41697531Y-38682539D02*
X41697531Y-38776825D01*
X41697531Y-38776825D02*
X41728959Y-38902539D01*
X41728959Y-38902539D02*
X41760388Y-38965396D01*
X41760388Y-38965396D02*
X41823245Y-39028254D01*
X41823245Y-39028254D02*
X41917531Y-39059682D01*
X41917531Y-39059682D02*
X42074674Y-39059682D01*
X41068959Y-39059682D02*
X41446102Y-39059682D01*
X41257531Y-39059682D02*
X41257531Y-38399682D01*
X41257531Y-38399682D02*
X41320388Y-38493968D01*
X41320388Y-38493968D02*
X41383245Y-38556825D01*
X41383245Y-38556825D02*
X41446102Y-38588254D01*
X40440388Y-39059682D02*
X40817531Y-39059682D01*
X40628960Y-39059682D02*
X40628960Y-38399682D01*
X40628960Y-38399682D02*
X40691817Y-38493968D01*
X40691817Y-38493968D02*
X40754674Y-38556825D01*
X40754674Y-38556825D02*
X40817531Y-38588254D01*
X42522388Y-77159682D02*
X42522388Y-76499682D01*
X42522388Y-76499682D02*
X42365245Y-76499682D01*
X42365245Y-76499682D02*
X42270959Y-76531111D01*
X42270959Y-76531111D02*
X42208102Y-76593968D01*
X42208102Y-76593968D02*
X42176673Y-76656825D01*
X42176673Y-76656825D02*
X42145245Y-76782539D01*
X42145245Y-76782539D02*
X42145245Y-76876825D01*
X42145245Y-76876825D02*
X42176673Y-77002539D01*
X42176673Y-77002539D02*
X42208102Y-77065396D01*
X42208102Y-77065396D02*
X42270959Y-77128254D01*
X42270959Y-77128254D02*
X42365245Y-77159682D01*
X42365245Y-77159682D02*
X42522388Y-77159682D01*
X41925245Y-76499682D02*
X41516673Y-76499682D01*
X41516673Y-76499682D02*
X41736673Y-76751111D01*
X41736673Y-76751111D02*
X41642388Y-76751111D01*
X41642388Y-76751111D02*
X41579531Y-76782539D01*
X41579531Y-76782539D02*
X41548102Y-76813968D01*
X41548102Y-76813968D02*
X41516673Y-76876825D01*
X41516673Y-76876825D02*
X41516673Y-77033968D01*
X41516673Y-77033968D02*
X41548102Y-77096825D01*
X41548102Y-77096825D02*
X41579531Y-77128254D01*
X41579531Y-77128254D02*
X41642388Y-77159682D01*
X41642388Y-77159682D02*
X41830959Y-77159682D01*
X41830959Y-77159682D02*
X41893816Y-77128254D01*
X41893816Y-77128254D02*
X41925245Y-77096825D01*
X61572388Y-77159682D02*
X61572388Y-76499682D01*
X61572388Y-76499682D02*
X61415245Y-76499682D01*
X61415245Y-76499682D02*
X61320959Y-76531111D01*
X61320959Y-76531111D02*
X61258102Y-76593968D01*
X61258102Y-76593968D02*
X61226673Y-76656825D01*
X61226673Y-76656825D02*
X61195245Y-76782539D01*
X61195245Y-76782539D02*
X61195245Y-76876825D01*
X61195245Y-76876825D02*
X61226673Y-77002539D01*
X61226673Y-77002539D02*
X61258102Y-77065396D01*
X61258102Y-77065396D02*
X61320959Y-77128254D01*
X61320959Y-77128254D02*
X61415245Y-77159682D01*
X61415245Y-77159682D02*
X61572388Y-77159682D01*
X60629531Y-76719682D02*
X60629531Y-77159682D01*
X60786673Y-76468254D02*
X60943816Y-76939682D01*
X60943816Y-76939682D02*
X60535245Y-76939682D01*
X61632674Y-20009682D02*
X61632674Y-19349682D01*
X61632674Y-19349682D02*
X61475531Y-19349682D01*
X61475531Y-19349682D02*
X61381245Y-19381111D01*
X61381245Y-19381111D02*
X61318388Y-19443968D01*
X61318388Y-19443968D02*
X61286959Y-19506825D01*
X61286959Y-19506825D02*
X61255531Y-19632539D01*
X61255531Y-19632539D02*
X61255531Y-19726825D01*
X61255531Y-19726825D02*
X61286959Y-19852539D01*
X61286959Y-19852539D02*
X61318388Y-19915396D01*
X61318388Y-19915396D02*
X61381245Y-19978254D01*
X61381245Y-19978254D02*
X61475531Y-20009682D01*
X61475531Y-20009682D02*
X61632674Y-20009682D01*
X60626959Y-20009682D02*
X61004102Y-20009682D01*
X60815531Y-20009682D02*
X60815531Y-19349682D01*
X60815531Y-19349682D02*
X60878388Y-19443968D01*
X60878388Y-19443968D02*
X60941245Y-19506825D01*
X60941245Y-19506825D02*
X61004102Y-19538254D01*
X60061246Y-19349682D02*
X60186960Y-19349682D01*
X60186960Y-19349682D02*
X60249817Y-19381111D01*
X60249817Y-19381111D02*
X60281246Y-19412539D01*
X60281246Y-19412539D02*
X60344103Y-19506825D01*
X60344103Y-19506825D02*
X60375531Y-19632539D01*
X60375531Y-19632539D02*
X60375531Y-19883968D01*
X60375531Y-19883968D02*
X60344103Y-19946825D01*
X60344103Y-19946825D02*
X60312674Y-19978254D01*
X60312674Y-19978254D02*
X60249817Y-20009682D01*
X60249817Y-20009682D02*
X60124103Y-20009682D01*
X60124103Y-20009682D02*
X60061246Y-19978254D01*
X60061246Y-19978254D02*
X60029817Y-19946825D01*
X60029817Y-19946825D02*
X59998388Y-19883968D01*
X59998388Y-19883968D02*
X59998388Y-19726825D01*
X59998388Y-19726825D02*
X60029817Y-19663968D01*
X60029817Y-19663968D02*
X60061246Y-19632539D01*
X60061246Y-19632539D02*
X60124103Y-19601111D01*
X60124103Y-19601111D02*
X60249817Y-19601111D01*
X60249817Y-19601111D02*
X60312674Y-19632539D01*
X60312674Y-19632539D02*
X60344103Y-19663968D01*
X60344103Y-19663968D02*
X60375531Y-19726825D01*
X23278674Y-19882682D02*
X23278674Y-19222682D01*
X23278674Y-19222682D02*
X23121531Y-19222682D01*
X23121531Y-19222682D02*
X23027245Y-19254111D01*
X23027245Y-19254111D02*
X22964388Y-19316968D01*
X22964388Y-19316968D02*
X22932959Y-19379825D01*
X22932959Y-19379825D02*
X22901531Y-19505539D01*
X22901531Y-19505539D02*
X22901531Y-19599825D01*
X22901531Y-19599825D02*
X22932959Y-19725539D01*
X22932959Y-19725539D02*
X22964388Y-19788396D01*
X22964388Y-19788396D02*
X23027245Y-19851254D01*
X23027245Y-19851254D02*
X23121531Y-19882682D01*
X23121531Y-19882682D02*
X23278674Y-19882682D01*
X22272959Y-19882682D02*
X22650102Y-19882682D01*
X22461531Y-19882682D02*
X22461531Y-19222682D01*
X22461531Y-19222682D02*
X22524388Y-19316968D01*
X22524388Y-19316968D02*
X22587245Y-19379825D01*
X22587245Y-19379825D02*
X22650102Y-19411254D01*
X21707246Y-19442682D02*
X21707246Y-19882682D01*
X21864388Y-19191254D02*
X22021531Y-19662682D01*
X22021531Y-19662682D02*
X21612960Y-19662682D01*
D12*
X75446817Y28466431D02*
X75352531Y28435003D01*
X75352531Y28435003D02*
X75321102Y28403574D01*
X75321102Y28403574D02*
X75289674Y28340717D01*
X75289674Y28340717D02*
X75289674Y28246431D01*
X75289674Y28246431D02*
X75321102Y28183574D01*
X75321102Y28183574D02*
X75352531Y28152146D01*
X75352531Y28152146D02*
X75415388Y28120717D01*
X75415388Y28120717D02*
X75666817Y28120717D01*
X75666817Y28120717D02*
X75666817Y28780717D01*
X75666817Y28780717D02*
X75446817Y28780717D01*
X75446817Y28780717D02*
X75383960Y28749288D01*
X75383960Y28749288D02*
X75352531Y28717860D01*
X75352531Y28717860D02*
X75321102Y28655003D01*
X75321102Y28655003D02*
X75321102Y28592146D01*
X75321102Y28592146D02*
X75352531Y28529288D01*
X75352531Y28529288D02*
X75383960Y28497860D01*
X75383960Y28497860D02*
X75446817Y28466431D01*
X75446817Y28466431D02*
X75666817Y28466431D01*
X75101102Y28780717D02*
X74723960Y28780717D01*
X74912531Y28120717D02*
X74912531Y28780717D01*
X74158245Y28120717D02*
X74535388Y28120717D01*
X74346817Y28120717D02*
X74346817Y28780717D01*
X74346817Y28780717D02*
X74409674Y28686431D01*
X74409674Y28686431D02*
X74472531Y28623574D01*
X74472531Y28623574D02*
X74535388Y28592146D01*
D11*
X38957388Y19071031D02*
X38863102Y19039603D01*
X38863102Y19039603D02*
X38831673Y19008174D01*
X38831673Y19008174D02*
X38800245Y18945317D01*
X38800245Y18945317D02*
X38800245Y18851031D01*
X38800245Y18851031D02*
X38831673Y18788174D01*
X38831673Y18788174D02*
X38863102Y18756746D01*
X38863102Y18756746D02*
X38925959Y18725317D01*
X38925959Y18725317D02*
X39177388Y18725317D01*
X39177388Y18725317D02*
X39177388Y19385317D01*
X39177388Y19385317D02*
X38957388Y19385317D01*
X38957388Y19385317D02*
X38894531Y19353888D01*
X38894531Y19353888D02*
X38863102Y19322460D01*
X38863102Y19322460D02*
X38831673Y19259603D01*
X38831673Y19259603D02*
X38831673Y19196746D01*
X38831673Y19196746D02*
X38863102Y19133888D01*
X38863102Y19133888D02*
X38894531Y19102460D01*
X38894531Y19102460D02*
X38957388Y19071031D01*
X38957388Y19071031D02*
X39177388Y19071031D01*
X38234531Y18725317D02*
X38234531Y19071031D01*
X38234531Y19071031D02*
X38265959Y19133888D01*
X38265959Y19133888D02*
X38328816Y19165317D01*
X38328816Y19165317D02*
X38454531Y19165317D01*
X38454531Y19165317D02*
X38517388Y19133888D01*
X38234531Y18756746D02*
X38297388Y18725317D01*
X38297388Y18725317D02*
X38454531Y18725317D01*
X38454531Y18725317D02*
X38517388Y18756746D01*
X38517388Y18756746D02*
X38548816Y18819603D01*
X38548816Y18819603D02*
X38548816Y18882460D01*
X38548816Y18882460D02*
X38517388Y18945317D01*
X38517388Y18945317D02*
X38454531Y18976746D01*
X38454531Y18976746D02*
X38297388Y18976746D01*
X38297388Y18976746D02*
X38234531Y19008174D01*
X38014530Y19165317D02*
X37763102Y19165317D01*
X37920245Y19385317D02*
X37920245Y18819603D01*
X37920245Y18819603D02*
X37888816Y18756746D01*
X37888816Y18756746D02*
X37825959Y18725317D01*
X37825959Y18725317D02*
X37763102Y18725317D01*
X37637387Y19165317D02*
X37385959Y19165317D01*
X37543102Y19385317D02*
X37543102Y18819603D01*
X37543102Y18819603D02*
X37511673Y18756746D01*
X37511673Y18756746D02*
X37448816Y18725317D01*
X37448816Y18725317D02*
X37385959Y18725317D01*
X36914530Y18756746D02*
X36977387Y18725317D01*
X36977387Y18725317D02*
X37103102Y18725317D01*
X37103102Y18725317D02*
X37165959Y18756746D01*
X37165959Y18756746D02*
X37197387Y18819603D01*
X37197387Y18819603D02*
X37197387Y19071031D01*
X37197387Y19071031D02*
X37165959Y19133888D01*
X37165959Y19133888D02*
X37103102Y19165317D01*
X37103102Y19165317D02*
X36977387Y19165317D01*
X36977387Y19165317D02*
X36914530Y19133888D01*
X36914530Y19133888D02*
X36883102Y19071031D01*
X36883102Y19071031D02*
X36883102Y19008174D01*
X36883102Y19008174D02*
X37197387Y18945317D01*
X36600245Y18725317D02*
X36600245Y19165317D01*
X36600245Y19039603D02*
X36568816Y19102460D01*
X36568816Y19102460D02*
X36537388Y19133888D01*
X36537388Y19133888D02*
X36474530Y19165317D01*
X36474530Y19165317D02*
X36411673Y19165317D01*
X36254531Y19165317D02*
X36097388Y18725317D01*
X35940245Y19165317D02*
X36097388Y18725317D01*
X36097388Y18725317D02*
X36160245Y18568174D01*
X36160245Y18568174D02*
X36191674Y18536746D01*
X36191674Y18536746D02*
X36254531Y18505317D01*
D13*
X50849780Y19220846D02*
X46278352Y19220846D01*
X28264780Y18919846D02*
X23693352Y18919846D01*
X25979066Y16634131D02*
X25979066Y21205560D01*
D11*
X42455674Y-959682D02*
X42455674Y-299682D01*
X42455674Y-299682D02*
X42298531Y-299682D01*
X42298531Y-299682D02*
X42204245Y-331111D01*
X42204245Y-331111D02*
X42141388Y-393968D01*
X42141388Y-393968D02*
X42109959Y-456825D01*
X42109959Y-456825D02*
X42078531Y-582539D01*
X42078531Y-582539D02*
X42078531Y-676825D01*
X42078531Y-676825D02*
X42109959Y-802539D01*
X42109959Y-802539D02*
X42141388Y-865396D01*
X42141388Y-865396D02*
X42204245Y-928254D01*
X42204245Y-928254D02*
X42298531Y-959682D01*
X42298531Y-959682D02*
X42455674Y-959682D01*
X41449959Y-959682D02*
X41827102Y-959682D01*
X41638531Y-959682D02*
X41638531Y-299682D01*
X41638531Y-299682D02*
X41701388Y-393968D01*
X41701388Y-393968D02*
X41764245Y-456825D01*
X41764245Y-456825D02*
X41827102Y-488254D01*
X41135674Y-959682D02*
X41009960Y-959682D01*
X41009960Y-959682D02*
X40947103Y-928254D01*
X40947103Y-928254D02*
X40915674Y-896825D01*
X40915674Y-896825D02*
X40852817Y-802539D01*
X40852817Y-802539D02*
X40821388Y-676825D01*
X40821388Y-676825D02*
X40821388Y-425396D01*
X40821388Y-425396D02*
X40852817Y-362539D01*
X40852817Y-362539D02*
X40884246Y-331111D01*
X40884246Y-331111D02*
X40947103Y-299682D01*
X40947103Y-299682D02*
X41072817Y-299682D01*
X41072817Y-299682D02*
X41135674Y-331111D01*
X41135674Y-331111D02*
X41167103Y-362539D01*
X41167103Y-362539D02*
X41198531Y-425396D01*
X41198531Y-425396D02*
X41198531Y-582539D01*
X41198531Y-582539D02*
X41167103Y-645396D01*
X41167103Y-645396D02*
X41135674Y-676825D01*
X41135674Y-676825D02*
X41072817Y-708254D01*
X41072817Y-708254D02*
X40947103Y-708254D01*
X40947103Y-708254D02*
X40884246Y-676825D01*
X40884246Y-676825D02*
X40852817Y-645396D01*
X40852817Y-645396D02*
X40821388Y-582539D01*
X4355674Y-959682D02*
X4355674Y-299682D01*
X4355674Y-299682D02*
X4198531Y-299682D01*
X4198531Y-299682D02*
X4104245Y-331111D01*
X4104245Y-331111D02*
X4041388Y-393968D01*
X4041388Y-393968D02*
X4009959Y-456825D01*
X4009959Y-456825D02*
X3978531Y-582539D01*
X3978531Y-582539D02*
X3978531Y-676825D01*
X3978531Y-676825D02*
X4009959Y-802539D01*
X4009959Y-802539D02*
X4041388Y-865396D01*
X4041388Y-865396D02*
X4104245Y-928254D01*
X4104245Y-928254D02*
X4198531Y-959682D01*
X4198531Y-959682D02*
X4355674Y-959682D01*
X3349959Y-959682D02*
X3727102Y-959682D01*
X3538531Y-959682D02*
X3538531Y-299682D01*
X3538531Y-299682D02*
X3601388Y-393968D01*
X3601388Y-393968D02*
X3664245Y-456825D01*
X3664245Y-456825D02*
X3727102Y-488254D01*
X3129960Y-299682D02*
X2689960Y-299682D01*
X2689960Y-299682D02*
X2972817Y-959682D01*
X42201674Y-19882682D02*
X42201674Y-19222682D01*
X42201674Y-19222682D02*
X42044531Y-19222682D01*
X42044531Y-19222682D02*
X41950245Y-19254111D01*
X41950245Y-19254111D02*
X41887388Y-19316968D01*
X41887388Y-19316968D02*
X41855959Y-19379825D01*
X41855959Y-19379825D02*
X41824531Y-19505539D01*
X41824531Y-19505539D02*
X41824531Y-19599825D01*
X41824531Y-19599825D02*
X41855959Y-19725539D01*
X41855959Y-19725539D02*
X41887388Y-19788396D01*
X41887388Y-19788396D02*
X41950245Y-19851254D01*
X41950245Y-19851254D02*
X42044531Y-19882682D01*
X42044531Y-19882682D02*
X42201674Y-19882682D01*
X41195959Y-19882682D02*
X41573102Y-19882682D01*
X41384531Y-19882682D02*
X41384531Y-19222682D01*
X41384531Y-19222682D02*
X41447388Y-19316968D01*
X41447388Y-19316968D02*
X41510245Y-19379825D01*
X41510245Y-19379825D02*
X41573102Y-19411254D01*
X40598817Y-19222682D02*
X40913103Y-19222682D01*
X40913103Y-19222682D02*
X40944531Y-19536968D01*
X40944531Y-19536968D02*
X40913103Y-19505539D01*
X40913103Y-19505539D02*
X40850246Y-19474111D01*
X40850246Y-19474111D02*
X40693103Y-19474111D01*
X40693103Y-19474111D02*
X40630246Y-19505539D01*
X40630246Y-19505539D02*
X40598817Y-19536968D01*
X40598817Y-19536968D02*
X40567388Y-19599825D01*
X40567388Y-19599825D02*
X40567388Y-19756968D01*
X40567388Y-19756968D02*
X40598817Y-19819825D01*
X40598817Y-19819825D02*
X40630246Y-19851254D01*
X40630246Y-19851254D02*
X40693103Y-19882682D01*
X40693103Y-19882682D02*
X40850246Y-19882682D01*
X40850246Y-19882682D02*
X40913103Y-19851254D01*
X40913103Y-19851254D02*
X40944531Y-19819825D01*
X4422388Y-77032682D02*
X4422388Y-76372682D01*
X4422388Y-76372682D02*
X4265245Y-76372682D01*
X4265245Y-76372682D02*
X4170959Y-76404111D01*
X4170959Y-76404111D02*
X4108102Y-76466968D01*
X4108102Y-76466968D02*
X4076673Y-76529825D01*
X4076673Y-76529825D02*
X4045245Y-76655539D01*
X4045245Y-76655539D02*
X4045245Y-76749825D01*
X4045245Y-76749825D02*
X4076673Y-76875539D01*
X4076673Y-76875539D02*
X4108102Y-76938396D01*
X4108102Y-76938396D02*
X4170959Y-77001254D01*
X4170959Y-77001254D02*
X4265245Y-77032682D01*
X4265245Y-77032682D02*
X4422388Y-77032682D01*
X3416673Y-77032682D02*
X3793816Y-77032682D01*
X3605245Y-77032682D02*
X3605245Y-76372682D01*
X3605245Y-76372682D02*
X3668102Y-76466968D01*
X3668102Y-76466968D02*
X3730959Y-76529825D01*
X3730959Y-76529825D02*
X3793816Y-76561254D01*
X61505674Y-38932682D02*
X61505674Y-38272682D01*
X61505674Y-38272682D02*
X61348531Y-38272682D01*
X61348531Y-38272682D02*
X61254245Y-38304111D01*
X61254245Y-38304111D02*
X61191388Y-38366968D01*
X61191388Y-38366968D02*
X61159959Y-38429825D01*
X61159959Y-38429825D02*
X61128531Y-38555539D01*
X61128531Y-38555539D02*
X61128531Y-38649825D01*
X61128531Y-38649825D02*
X61159959Y-38775539D01*
X61159959Y-38775539D02*
X61191388Y-38838396D01*
X61191388Y-38838396D02*
X61254245Y-38901254D01*
X61254245Y-38901254D02*
X61348531Y-38932682D01*
X61348531Y-38932682D02*
X61505674Y-38932682D01*
X60499959Y-38932682D02*
X60877102Y-38932682D01*
X60688531Y-38932682D02*
X60688531Y-38272682D01*
X60688531Y-38272682D02*
X60751388Y-38366968D01*
X60751388Y-38366968D02*
X60814245Y-38429825D01*
X60814245Y-38429825D02*
X60877102Y-38461254D01*
X60248531Y-38335539D02*
X60217103Y-38304111D01*
X60217103Y-38304111D02*
X60154246Y-38272682D01*
X60154246Y-38272682D02*
X59997103Y-38272682D01*
X59997103Y-38272682D02*
X59934246Y-38304111D01*
X59934246Y-38304111D02*
X59902817Y-38335539D01*
X59902817Y-38335539D02*
X59871388Y-38398396D01*
X59871388Y-38398396D02*
X59871388Y-38461254D01*
X59871388Y-38461254D02*
X59902817Y-38555539D01*
X59902817Y-38555539D02*
X60279960Y-38932682D01*
X60279960Y-38932682D02*
X59871388Y-38932682D01*
X23345388Y-77032682D02*
X23345388Y-76372682D01*
X23345388Y-76372682D02*
X23188245Y-76372682D01*
X23188245Y-76372682D02*
X23093959Y-76404111D01*
X23093959Y-76404111D02*
X23031102Y-76466968D01*
X23031102Y-76466968D02*
X22999673Y-76529825D01*
X22999673Y-76529825D02*
X22968245Y-76655539D01*
X22968245Y-76655539D02*
X22968245Y-76749825D01*
X22968245Y-76749825D02*
X22999673Y-76875539D01*
X22999673Y-76875539D02*
X23031102Y-76938396D01*
X23031102Y-76938396D02*
X23093959Y-77001254D01*
X23093959Y-77001254D02*
X23188245Y-77032682D01*
X23188245Y-77032682D02*
X23345388Y-77032682D01*
X22716816Y-76435539D02*
X22685388Y-76404111D01*
X22685388Y-76404111D02*
X22622531Y-76372682D01*
X22622531Y-76372682D02*
X22465388Y-76372682D01*
X22465388Y-76372682D02*
X22402531Y-76404111D01*
X22402531Y-76404111D02*
X22371102Y-76435539D01*
X22371102Y-76435539D02*
X22339673Y-76498396D01*
X22339673Y-76498396D02*
X22339673Y-76561254D01*
X22339673Y-76561254D02*
X22371102Y-76655539D01*
X22371102Y-76655539D02*
X22748245Y-77032682D01*
X22748245Y-77032682D02*
X22339673Y-77032682D01*
X56606245Y18877317D02*
X56606245Y18405888D01*
X56606245Y18405888D02*
X56637674Y18311603D01*
X56637674Y18311603D02*
X56700531Y18248746D01*
X56700531Y18248746D02*
X56794817Y18217317D01*
X56794817Y18217317D02*
X56857674Y18217317D01*
X56354817Y18877317D02*
X55946245Y18877317D01*
X55946245Y18877317D02*
X56166245Y18625888D01*
X56166245Y18625888D02*
X56071960Y18625888D01*
X56071960Y18625888D02*
X56009103Y18594460D01*
X56009103Y18594460D02*
X55977674Y18563031D01*
X55977674Y18563031D02*
X55946245Y18500174D01*
X55946245Y18500174D02*
X55946245Y18343031D01*
X55946245Y18343031D02*
X55977674Y18280174D01*
X55977674Y18280174D02*
X56009103Y18248746D01*
X56009103Y18248746D02*
X56071960Y18217317D01*
X56071960Y18217317D02*
X56260531Y18217317D01*
X56260531Y18217317D02*
X56323388Y18248746D01*
X56323388Y18248746D02*
X56354817Y18280174D01*
X61699388Y-58109682D02*
X61699388Y-57449682D01*
X61699388Y-57449682D02*
X61542245Y-57449682D01*
X61542245Y-57449682D02*
X61447959Y-57481111D01*
X61447959Y-57481111D02*
X61385102Y-57543968D01*
X61385102Y-57543968D02*
X61353673Y-57606825D01*
X61353673Y-57606825D02*
X61322245Y-57732539D01*
X61322245Y-57732539D02*
X61322245Y-57826825D01*
X61322245Y-57826825D02*
X61353673Y-57952539D01*
X61353673Y-57952539D02*
X61385102Y-58015396D01*
X61385102Y-58015396D02*
X61447959Y-58078254D01*
X61447959Y-58078254D02*
X61542245Y-58109682D01*
X61542245Y-58109682D02*
X61699388Y-58109682D01*
X60945102Y-57732539D02*
X61007959Y-57701111D01*
X61007959Y-57701111D02*
X61039388Y-57669682D01*
X61039388Y-57669682D02*
X61070816Y-57606825D01*
X61070816Y-57606825D02*
X61070816Y-57575396D01*
X61070816Y-57575396D02*
X61039388Y-57512539D01*
X61039388Y-57512539D02*
X61007959Y-57481111D01*
X61007959Y-57481111D02*
X60945102Y-57449682D01*
X60945102Y-57449682D02*
X60819388Y-57449682D01*
X60819388Y-57449682D02*
X60756531Y-57481111D01*
X60756531Y-57481111D02*
X60725102Y-57512539D01*
X60725102Y-57512539D02*
X60693673Y-57575396D01*
X60693673Y-57575396D02*
X60693673Y-57606825D01*
X60693673Y-57606825D02*
X60725102Y-57669682D01*
X60725102Y-57669682D02*
X60756531Y-57701111D01*
X60756531Y-57701111D02*
X60819388Y-57732539D01*
X60819388Y-57732539D02*
X60945102Y-57732539D01*
X60945102Y-57732539D02*
X61007959Y-57763968D01*
X61007959Y-57763968D02*
X61039388Y-57795396D01*
X61039388Y-57795396D02*
X61070816Y-57858254D01*
X61070816Y-57858254D02*
X61070816Y-57983968D01*
X61070816Y-57983968D02*
X61039388Y-58046825D01*
X61039388Y-58046825D02*
X61007959Y-58078254D01*
X61007959Y-58078254D02*
X60945102Y-58109682D01*
X60945102Y-58109682D02*
X60819388Y-58109682D01*
X60819388Y-58109682D02*
X60756531Y-58078254D01*
X60756531Y-58078254D02*
X60725102Y-58046825D01*
X60725102Y-58046825D02*
X60693673Y-57983968D01*
X60693673Y-57983968D02*
X60693673Y-57858254D01*
X60693673Y-57858254D02*
X60725102Y-57795396D01*
X60725102Y-57795396D02*
X60756531Y-57763968D01*
X60756531Y-57763968D02*
X60819388Y-57732539D01*
D14*
%TO.C,D6*%
X24055246Y-56852154D02*
X24055246Y-58772154D01*
X24055246Y-58772154D02*
X26915246Y-58772154D01*
X26915246Y-56852154D02*
X24055246Y-56852154D01*
%TO.C,D13*%
X5132246Y-18752154D02*
X5132246Y-20672154D01*
X5132246Y-20672154D02*
X7992246Y-20672154D01*
X7992246Y-18752154D02*
X5132246Y-18752154D01*
%TO.C,D20*%
X62282246Y424846D02*
X62282246Y-1495154D01*
X62282246Y-1495154D02*
X65142246Y-1495154D01*
X65142246Y424846D02*
X62282246Y424846D01*
%TO.C,D10*%
X24309246Y-37802154D02*
X24309246Y-39722154D01*
X24309246Y-39722154D02*
X27169246Y-39722154D01*
X27169246Y-37802154D02*
X24309246Y-37802154D01*
%TO.C,R1*%
X3384310Y2562046D02*
X2930182Y2562046D01*
X3384310Y1092046D02*
X2930182Y1092046D01*
%TO.C,D25*%
X7099310Y2562046D02*
X6645182Y2562046D01*
X7099310Y1092046D02*
X6645182Y1092046D01*
%TO.C,D7*%
X43232246Y-56725154D02*
X43232246Y-58645154D01*
X43232246Y-58645154D02*
X46092246Y-58645154D01*
X46092246Y-56725154D02*
X43232246Y-56725154D01*
%TO.C,D9*%
X5005246Y-37929154D02*
X5005246Y-39849154D01*
X5005246Y-39849154D02*
X7865246Y-39849154D01*
X7865246Y-37929154D02*
X5005246Y-37929154D01*
%TO.C,D5*%
X5132246Y-56725154D02*
X5132246Y-58645154D01*
X5132246Y-58645154D02*
X7992246Y-58645154D01*
X7992246Y-56725154D02*
X5132246Y-56725154D01*
%TO.C,D18*%
X24182246Y297846D02*
X24182246Y-1622154D01*
X24182246Y-1622154D02*
X27042246Y-1622154D01*
X27042246Y297846D02*
X24182246Y297846D01*
%TO.C,D11*%
X43232246Y-37802154D02*
X43232246Y-39722154D01*
X43232246Y-39722154D02*
X46092246Y-39722154D01*
X46092246Y-37802154D02*
X43232246Y-37802154D01*
%TO.C,D3*%
X43232246Y-75902154D02*
X43232246Y-77822154D01*
X43232246Y-77822154D02*
X46092246Y-77822154D01*
X46092246Y-75902154D02*
X43232246Y-75902154D01*
%TO.C,D4*%
X62400246Y-75775154D02*
X62400246Y-77695154D01*
X62400246Y-77695154D02*
X65260246Y-77695154D01*
X65260246Y-75775154D02*
X62400246Y-75775154D01*
%TO.C,D16*%
X62409246Y-18752154D02*
X62409246Y-20672154D01*
X62409246Y-20672154D02*
X65269246Y-20672154D01*
X65269246Y-18752154D02*
X62409246Y-18752154D01*
%TO.C,D14*%
X24182246Y-18625154D02*
X24182246Y-20545154D01*
X24182246Y-20545154D02*
X27042246Y-20545154D01*
X27042246Y-18625154D02*
X24182246Y-18625154D01*
%TO.C,BT1*%
D12*
X73433246Y22563846D02*
X3433246Y22563846D01*
X3433246Y15563846D01*
X73433246Y15563846D01*
X73433246Y22563846D01*
X76833246Y29563846D02*
X-666754Y29563846D01*
X-666754Y8463846D01*
X76833246Y8463846D01*
X76833246Y29563846D01*
D14*
%TO.C,D19*%
X43232246Y424846D02*
X43232246Y-1495154D01*
X43232246Y-1495154D02*
X46092246Y-1495154D01*
X46092246Y424846D02*
X43232246Y424846D01*
%TO.C,D17*%
X5132246Y424846D02*
X5132246Y-1495154D01*
X5132246Y-1495154D02*
X7992246Y-1495154D01*
X7992246Y424846D02*
X5132246Y424846D01*
%TO.C,D15*%
X43232246Y-18625154D02*
X43232246Y-20545154D01*
X43232246Y-20545154D02*
X46092246Y-20545154D01*
X46092246Y-18625154D02*
X43232246Y-18625154D01*
%TO.C,D1*%
X5004246Y-75850154D02*
X5004246Y-77770154D01*
X5004246Y-77770154D02*
X7864246Y-77770154D01*
X7864246Y-75850154D02*
X5004246Y-75850154D01*
%TO.C,D12*%
X62282246Y-37675154D02*
X62282246Y-39595154D01*
X62282246Y-39595154D02*
X65142246Y-39595154D01*
X65142246Y-37675154D02*
X62282246Y-37675154D01*
%TO.C,D2*%
X24182246Y-75902154D02*
X24182246Y-77822154D01*
X24182246Y-77822154D02*
X27042246Y-77822154D01*
X27042246Y-75902154D02*
X24182246Y-75902154D01*
%TO.C,J3*%
X53659246Y20285646D02*
X53659246Y16755646D01*
X53659246Y20285646D02*
X53724246Y20285646D01*
X53659246Y16755646D02*
X53724246Y16755646D01*
X58794246Y20285646D02*
X58859246Y20285646D01*
X58794246Y16755646D02*
X58794246Y15430646D01*
X58794246Y16755646D02*
X58859246Y16755646D01*
X58859246Y20285646D02*
X58859246Y16755646D01*
%TO.C,D8*%
X62282246Y-56852154D02*
X62282246Y-58772154D01*
X62282246Y-58772154D02*
X65142246Y-58772154D01*
X65142246Y-56852154D02*
X62282246Y-56852154D01*
%TD*%
M02*
