%TF.GenerationSoftware,KiCad,Pcbnew,8.0.5-8.0.5-0~ubuntu22.04.1*%
%TF.CreationDate,2024-11-26T13:48:27+00:00*%
%TF.ProjectId,numcalcium,6e756d63-616c-4636-9975-6d2e6b696361,rev?*%
%TF.SameCoordinates,Original*%
%TF.FileFunction,Copper,L2,Bot*%
%TF.FilePolarity,Positive*%
%FSLAX46Y46*%
G04 Gerber Fmt 4.6, Leading zero omitted, Abs format (unit mm)*
G04 Created by KiCad (PCBNEW 8.0.5-8.0.5-0~ubuntu22.04.1) date 2024-11-26 13:48:27*
%MOMM*%
%LPD*%
G01*
G04 APERTURE LIST*
G04 Aperture macros list*
%AMRoundRect*
0 Rectangle with rounded corners*
0 $1 Rounding radius*
0 $2 $3 $4 $5 $6 $7 $8 $9 X,Y pos of 4 corners*
0 Add a 4 corners polygon primitive as box body*
4,1,4,$2,$3,$4,$5,$6,$7,$8,$9,$2,$3,0*
0 Add four circle primitives for the rounded corners*
1,1,$1+$1,$2,$3*
1,1,$1+$1,$4,$5*
1,1,$1+$1,$6,$7*
1,1,$1+$1,$8,$9*
0 Add four rect primitives between the rounded corners*
20,1,$1+$1,$2,$3,$4,$5,0*
20,1,$1+$1,$4,$5,$6,$7,0*
20,1,$1+$1,$6,$7,$8,$9,0*
20,1,$1+$1,$8,$9,$2,$3,0*%
G04 Aperture macros list end*
%TA.AperFunction,SMDPad,CuDef*%
%ADD10RoundRect,0.250000X0.450000X-0.350000X0.450000X0.350000X-0.450000X0.350000X-0.450000X-0.350000X0*%
%TD*%
%TA.AperFunction,SMDPad,CuDef*%
%ADD11RoundRect,0.250000X-0.475000X0.250000X-0.475000X-0.250000X0.475000X-0.250000X0.475000X0.250000X0*%
%TD*%
%TA.AperFunction,ConnectorPad*%
%ADD12RoundRect,0.250000X-0.750000X0.750000X-0.750000X-0.750000X0.750000X-0.750000X0.750000X0.750000X0*%
%TD*%
%TA.AperFunction,ConnectorPad*%
%ADD13RoundRect,0.294118X-0.705882X0.705882X-0.705882X-0.705882X0.705882X-0.705882X0.705882X0.705882X0*%
%TD*%
%TA.AperFunction,ConnectorPad*%
%ADD14R,2.000000X2.000000*%
%TD*%
%TA.AperFunction,SMDPad,CuDef*%
%ADD15RoundRect,0.150000X0.587500X0.150000X-0.587500X0.150000X-0.587500X-0.150000X0.587500X-0.150000X0*%
%TD*%
%TA.AperFunction,SMDPad,CuDef*%
%ADD16R,2.500000X2.500000*%
%TD*%
%TA.AperFunction,SMDPad,CuDef*%
%ADD17RoundRect,0.250000X0.475000X-0.250000X0.475000X0.250000X-0.475000X0.250000X-0.475000X-0.250000X0*%
%TD*%
%TA.AperFunction,SMDPad,CuDef*%
%ADD18RoundRect,0.250000X0.350000X0.450000X-0.350000X0.450000X-0.350000X-0.450000X0.350000X-0.450000X0*%
%TD*%
%TA.AperFunction,SMDPad,CuDef*%
%ADD19RoundRect,0.250000X0.450000X-0.325000X0.450000X0.325000X-0.450000X0.325000X-0.450000X-0.325000X0*%
%TD*%
%TA.AperFunction,SMDPad,CuDef*%
%ADD20RoundRect,0.250000X0.250000X0.475000X-0.250000X0.475000X-0.250000X-0.475000X0.250000X-0.475000X0*%
%TD*%
%TA.AperFunction,SMDPad,CuDef*%
%ADD21RoundRect,0.250000X-0.250000X-0.475000X0.250000X-0.475000X0.250000X0.475000X-0.250000X0.475000X0*%
%TD*%
%TA.AperFunction,SMDPad,CuDef*%
%ADD22RoundRect,0.381000X-0.381000X0.762000X-0.381000X-0.762000X0.381000X-0.762000X0.381000X0.762000X0*%
%TD*%
%TA.AperFunction,SMDPad,CuDef*%
%ADD23RoundRect,0.350000X-0.450000X-0.350000X0.450000X-0.350000X0.450000X0.350000X-0.450000X0.350000X0*%
%TD*%
%TA.AperFunction,SMDPad,CuDef*%
%ADD24RoundRect,0.300000X-0.300000X-0.400000X0.300000X-0.400000X0.300000X0.400000X-0.300000X0.400000X0*%
%TD*%
%TA.AperFunction,SMDPad,CuDef*%
%ADD25RoundRect,0.300000X0.300000X0.800000X-0.300000X0.800000X-0.300000X-0.800000X0.300000X-0.800000X0*%
%TD*%
%TA.AperFunction,SMDPad,CuDef*%
%ADD26R,0.700000X2.000000*%
%TD*%
%TA.AperFunction,SMDPad,CuDef*%
%ADD27RoundRect,0.150000X-0.587500X-0.150000X0.587500X-0.150000X0.587500X0.150000X-0.587500X0.150000X0*%
%TD*%
%TA.AperFunction,SMDPad,CuDef*%
%ADD28RoundRect,0.250000X-0.450000X0.350000X-0.450000X-0.350000X0.450000X-0.350000X0.450000X0.350000X0*%
%TD*%
%TA.AperFunction,SMDPad,CuDef*%
%ADD29RoundRect,0.250000X-0.350000X-0.450000X0.350000X-0.450000X0.350000X0.450000X-0.350000X0.450000X0*%
%TD*%
%TA.AperFunction,SMDPad,CuDef*%
%ADD30R,2.200000X1.800000*%
%TD*%
%TA.AperFunction,SMDPad,CuDef*%
%ADD31R,1.300000X0.300000*%
%TD*%
%TA.AperFunction,SMDPad,CuDef*%
%ADD32R,1.200000X2.500000*%
%TD*%
%TA.AperFunction,ViaPad*%
%ADD33C,0.800000*%
%TD*%
%TA.AperFunction,Conductor*%
%ADD34C,0.250000*%
%TD*%
%TA.AperFunction,Conductor*%
%ADD35C,0.500000*%
%TD*%
%TA.AperFunction,Conductor*%
%ADD36C,1.000000*%
%TD*%
G04 APERTURE END LIST*
D10*
%TO.P,R25,2*%
%TO.N,Net-(J12-DAT2)*%
X47752000Y13446000D03*
%TO.P,R25,1*%
%TO.N,/Front/VDD*%
X47752000Y11446000D03*
%TD*%
D11*
%TO.P,C13,2*%
%TO.N,/Front/A_R1*%
X20701000Y10927000D03*
%TO.P,C13,1*%
%TO.N,Net-(C13-Pad1)*%
X20701000Y12827000D03*
%TD*%
D12*
%TO.P,IPC2,15,Pin_15*%
%TO.N,GND*%
X45450001Y5635289D03*
D13*
%TO.P,IPC2,14,Pin_14*%
%TO.N,/Front/BUZZER*%
X42910001Y5635289D03*
D12*
%TO.P,IPC2,13,Pin_13*%
%TO.N,/Front/LED*%
X40370001Y5635289D03*
D13*
%TO.P,IPC2,12,Pin_12*%
%TO.N,/Front/LCD_RST*%
X37830001Y5635289D03*
D12*
%TO.P,IPC2,11,Pin_11*%
%TO.N,/Front/A_T*%
X35290001Y5635289D03*
%TO.P,IPC2,10,Pin_10*%
%TO.N,/Front/A_R1*%
X32750001Y5635289D03*
%TO.P,IPC2,9,Pin_9*%
%TO.N,/Front/LCD_LED*%
X30210001Y5635289D03*
%TO.P,IPC2,8,Pin_8*%
%TO.N,/Front/LCD_DC*%
X27670001Y5635289D03*
%TO.P,IPC2,7,Pin_7*%
%TO.N,/Front/SD_CS*%
X25130001Y5635289D03*
%TO.P,IPC2,6,Pin_6*%
%TO.N,/Front/CK*%
X22590001Y5635289D03*
D13*
%TO.P,IPC2,5,Pin_5*%
%TO.N,/Front/MOSI*%
X20050001Y5635289D03*
%TO.P,IPC2,4,Pin_4*%
%TO.N,/Front/MISO*%
X17510001Y5635289D03*
%TO.P,IPC2,3,Pin_3*%
%TO.N,/Front/LCD_CS*%
X14970001Y5635289D03*
D12*
%TO.P,IPC2,2,Pin_2*%
%TO.N,/Front/SD_DET*%
X12430001Y5635289D03*
D14*
%TO.P,IPC2,1,Pin_1*%
%TO.N,/Front/VDD*%
X9890001Y5635289D03*
%TD*%
D15*
%TO.P,Q8,3,D*%
%TO.N,Net-(BZ1--)*%
X51363400Y6873200D03*
%TO.P,Q8,2,S*%
%TO.N,GND*%
X53238400Y5923200D03*
%TO.P,Q8,1,G*%
%TO.N,Net-(Q8-G)*%
X53238400Y7823200D03*
%TD*%
D16*
%TO.P,BZ1,4*%
%TO.N,N/C*%
X70708400Y5700000D03*
%TO.P,BZ1,3*%
X70708400Y12700000D03*
%TO.P,BZ1,2,-*%
%TO.N,Net-(BZ1--)*%
X63708400Y12700000D03*
%TO.P,BZ1,1,+*%
%TO.N,/Front/VDD*%
X63708400Y5700000D03*
%TD*%
D10*
%TO.P,R24,2*%
%TO.N,/Front/SD_CS*%
X45847000Y13449983D03*
%TO.P,R24,1*%
%TO.N,/Front/VDD*%
X45847000Y11449983D03*
%TD*%
%TO.P,R18,2*%
%TO.N,GND*%
X16637000Y12811000D03*
%TO.P,R18,1*%
%TO.N,Net-(Q9-G)*%
X16637000Y10811000D03*
%TD*%
%TO.P,R20,2*%
%TO.N,Net-(Q9-G)*%
X18669000Y12795000D03*
%TO.P,R20,1*%
%TO.N,/Front/LCD_LED*%
X18669000Y10795000D03*
%TD*%
D17*
%TO.P,C15,2*%
%TO.N,GND*%
X51358800Y13497600D03*
%TO.P,C15,1*%
%TO.N,/Front/VDD*%
X51358800Y11597600D03*
%TD*%
D10*
%TO.P,R21,2*%
%TO.N,Net-(J12-DAT1)*%
X38100000Y13319000D03*
%TO.P,R21,1*%
%TO.N,/Front/VDD*%
X38100000Y11319000D03*
%TD*%
D18*
%TO.P,R19,2*%
%TO.N,/Front/VDD*%
X16607200Y19761200D03*
%TO.P,R19,1*%
%TO.N,Net-(J4-Pin_20)*%
X18607200Y19761200D03*
%TD*%
D19*
%TO.P,D27,2,A*%
%TO.N,Net-(BZ1--)*%
X73406000Y11794600D03*
%TO.P,D27,1,K*%
%TO.N,/Front/VDD*%
X73406000Y9744600D03*
%TD*%
D20*
%TO.P,C10,2*%
%TO.N,GND*%
X16626800Y25857200D03*
%TO.P,C10,1*%
%TO.N,/Front/VDD*%
X18526800Y25857200D03*
%TD*%
D21*
%TO.P,C9,2*%
%TO.N,Net-(J4-Pin_20)*%
X18542000Y21793200D03*
%TO.P,C9,1*%
%TO.N,Net-(J4-Pin_21)*%
X16642000Y21793200D03*
%TD*%
D20*
%TO.P,C11,2*%
%TO.N,GND*%
X16677600Y23825200D03*
%TO.P,C11,1*%
%TO.N,/Front/LCD_RST*%
X18577600Y23825200D03*
%TD*%
D22*
%TO.P,J12,11,SHIELD*%
%TO.N,GND*%
X52034000Y25865200D03*
D23*
X51134000Y16320000D03*
D24*
X36534000Y16320000D03*
D25*
X36284000Y25865200D03*
D26*
%TO.P,J12,9,#DET*%
%TO.N,/Front/SD_DET*%
X37684000Y15715200D03*
%TO.P,J12,8,DAT1*%
%TO.N,Net-(J12-DAT1)*%
X38784000Y15715200D03*
%TO.P,J12,7,DAT0*%
%TO.N,/Front/MISO*%
X39884000Y15715200D03*
%TO.P,J12,6,VSS*%
%TO.N,GND*%
X40984000Y15715200D03*
%TO.P,J12,5,CLK*%
%TO.N,/Front/CK*%
X42084000Y15715200D03*
%TO.P,J12,4,VDD*%
%TO.N,/Front/VDD*%
X43184000Y15715200D03*
%TO.P,J12,3,CMD*%
%TO.N,/Front/MOSI*%
X44284000Y15715200D03*
%TO.P,J12,2,DAT3/CD*%
%TO.N,/Front/SD_CS*%
X45384000Y15715200D03*
%TO.P,J12,1,DAT2*%
%TO.N,Net-(J12-DAT2)*%
X46484000Y15715200D03*
%TD*%
D27*
%TO.P,Q9,3,D*%
%TO.N,Net-(J4-Pin_21)*%
X18643600Y17068800D03*
%TO.P,Q9,2,S*%
%TO.N,GND*%
X16768600Y18018800D03*
%TO.P,Q9,1,G*%
%TO.N,Net-(Q9-G)*%
X16768600Y16118800D03*
%TD*%
D10*
%TO.P,R22,2*%
%TO.N,/Front/MISO*%
X40005000Y13319000D03*
%TO.P,R22,1*%
%TO.N,/Front/VDD*%
X40005000Y11319000D03*
%TD*%
D28*
%TO.P,R27,2*%
%TO.N,GND*%
X49276000Y5146800D03*
%TO.P,R27,1*%
%TO.N,Net-(Q8-G)*%
X49276000Y7146800D03*
%TD*%
D29*
%TO.P,R13,2*%
%TO.N,Net-(Q8-G)*%
X49377600Y8991600D03*
%TO.P,R13,1*%
%TO.N,/Front/BUZZER*%
X47377600Y8991600D03*
%TD*%
D30*
%TO.P,J4,MP*%
%TO.N,N/C*%
X29210000Y9510800D03*
X29210000Y27810800D03*
D31*
%TO.P,J4,30,Pin_30*%
%TO.N,GND*%
X25960000Y11410800D03*
%TO.P,J4,29,Pin_29*%
%TO.N,unconnected-(J4-Pin_29-Pad29)*%
X25960000Y11910800D03*
%TO.P,J4,28,Pin_28*%
%TO.N,unconnected-(J4-Pin_28-Pad28)*%
X25960000Y12410800D03*
%TO.P,J4,27,Pin_27*%
%TO.N,unconnected-(J4-Pin_27-Pad27)*%
X25960000Y12910800D03*
%TO.P,J4,26,Pin_26*%
%TO.N,unconnected-(J4-Pin_26-Pad26)*%
X25960000Y13410800D03*
%TO.P,J4,25,Pin_25*%
%TO.N,GND*%
X25960000Y13910800D03*
%TO.P,J4,24,Pin_24*%
%TO.N,Net-(J4-Pin_21)*%
X25960000Y14410800D03*
%TO.P,J4,23,Pin_23*%
X25960000Y14910800D03*
%TO.P,J4,22,Pin_22*%
X25960000Y15410800D03*
%TO.P,J4,21,Pin_21*%
X25960000Y15910800D03*
%TO.P,J4,20,Pin_20*%
%TO.N,Net-(J4-Pin_20)*%
X25960000Y16410800D03*
%TO.P,J4,19,Pin_19*%
%TO.N,/Front/MISO*%
X25960000Y16910800D03*
%TO.P,J4,18,Pin_18*%
%TO.N,GND*%
X25960000Y17410800D03*
%TO.P,J4,17,Pin_17*%
X25960000Y17910800D03*
%TO.P,J4,16,Pin_16*%
X25960000Y18410800D03*
%TO.P,J4,15,Pin_15*%
X25960000Y18910800D03*
%TO.P,J4,14,Pin_14*%
X25960000Y19410800D03*
%TO.P,J4,13,Pin_13*%
X25960000Y19910800D03*
%TO.P,J4,12,Pin_12*%
X25960000Y20410800D03*
%TO.P,J4,11,Pin_11*%
X25960000Y20910800D03*
%TO.P,J4,10,Pin_10*%
%TO.N,/Front/MOSI*%
X25960000Y21410800D03*
%TO.P,J4,9,Pin_9*%
%TO.N,unconnected-(J4-Pin_9-Pad9)*%
X25960000Y21910800D03*
%TO.P,J4,8,Pin_8*%
%TO.N,/Front/LCD_DC*%
X25960000Y22410800D03*
%TO.P,J4,7,Pin_7*%
%TO.N,/Front/CK*%
X25960000Y22910800D03*
%TO.P,J4,6,Pin_6*%
%TO.N,/Front/LCD_CS*%
X25960000Y23410800D03*
%TO.P,J4,5,Pin_5*%
%TO.N,/Front/LCD_RST*%
X25960000Y23910800D03*
%TO.P,J4,4,Pin_4*%
%TO.N,/Front/VDD*%
X25960000Y24410800D03*
%TO.P,J4,3,Pin_3*%
X25960000Y24910800D03*
%TO.P,J4,2,Pin_2*%
X25960000Y25410800D03*
%TO.P,J4,1,Pin_1*%
%TO.N,GND*%
X25960000Y25910800D03*
%TD*%
D11*
%TO.P,C12,2*%
%TO.N,/Front/A_T*%
X22733000Y10927000D03*
%TO.P,C12,1*%
%TO.N,Net-(C12-Pad1)*%
X22733000Y12827000D03*
%TD*%
D10*
%TO.P,R23,2*%
%TO.N,/Front/MOSI*%
X43942000Y13446000D03*
%TO.P,R23,1*%
%TO.N,/Front/VDD*%
X43942000Y11446000D03*
%TD*%
D32*
%TO.P,J9,T*%
%TO.N,Net-(C12-Pad1)*%
X12725200Y9220200D03*
%TO.P,J9,S*%
%TO.N,GND*%
X13825200Y15720200D03*
%TO.P,J9,R2*%
%TO.N,unconnected-(J9-PadR2)*%
X5725200Y9220200D03*
%TO.P,J9,R1*%
%TO.N,Net-(C13-Pad1)*%
X8725200Y9220200D03*
%TD*%
D33*
%TO.N,GND*%
X40640000Y20828000D03*
X28448000Y7620000D03*
X49784000Y26924000D03*
X69638000Y31195002D03*
X21971000Y17526000D03*
X20066000Y25019000D03*
X55372000Y10160000D03*
X15748000Y8128000D03*
X13970000Y22098000D03*
X29464000Y16764000D03*
X28702000Y23876000D03*
X1270000Y9398000D03*
X46736000Y18542000D03*
X38100000Y26924000D03*
X31496000Y16764000D03*
X25400000Y9046999D03*
X15240000Y33020000D03*
X14732000Y10668000D03*
X20320000Y22860000D03*
X5588000Y29210000D03*
X28575000Y13589000D03*
X34544000Y15494000D03*
X53340000Y16256000D03*
X45720000Y19304000D03*
X4064000Y14732000D03*
X55473600Y4978400D03*
X38100000Y24384000D03*
X51308000Y18288000D03*
X11684000Y16256000D03*
X4064000Y10160000D03*
X34544000Y21336000D03*
X49784000Y24384000D03*
X14224000Y18288000D03*
X24384000Y8128000D03*
X31496000Y14224000D03*
X14224000Y8128000D03*
X24257000Y17399000D03*
X17526000Y27178000D03*
X42164000Y19812000D03*
X28575000Y15494000D03*
X55372000Y15240000D03*
X33274000Y12192000D03*
X20320000Y19685000D03*
X55372000Y20320000D03*
X45974000Y9144000D03*
X23876000Y13970000D03*
X35306000Y8382000D03*
X18796000Y15748000D03*
X43434000Y8636000D03*
X34544000Y17272000D03*
X40640000Y9652000D03*
X34544000Y24384000D03*
X24257000Y26289000D03*
X54356000Y26924000D03*
X47752000Y17780000D03*
X23622000Y20955000D03*
X25400000Y33020000D03*
X35052000Y10414000D03*
X36576000Y21336000D03*
X24384000Y23114000D03*
X43688000Y19304000D03*
X5080000Y33020000D03*
X24373999Y14986000D03*
X34544000Y26924000D03*
X38354000Y8382000D03*
X38608000Y21336000D03*
X29210000Y21590000D03*
X36068000Y13716000D03*
X54356000Y24384000D03*
X6604000Y25400000D03*
X16764000Y9144000D03*
X11684000Y14732000D03*
X23622000Y18923000D03*
X47498000Y5588000D03*
X23622000Y19939000D03*
X48768000Y16256000D03*
X23241000Y26289000D03*
X50800000Y5588000D03*
%TO.N,/Front/VDD*%
X51511200Y10261600D03*
X61518800Y6858000D03*
X70908000Y31200000D03*
%TO.N,Net-(C12-Pad1)*%
X15524000Y14782000D03*
X21266940Y14127824D03*
%TO.N,Net-(C13-Pad1)*%
X20320000Y13970000D03*
X14605000Y13716000D03*
%TO.N,/Front/LED*%
X42595000Y10337000D03*
X68645631Y30207631D03*
X40386000Y7188200D03*
%TO.N,/Front/LCD_DC*%
X28066084Y20422494D03*
X20955000Y9046999D03*
%TO.N,/Front/MISO*%
X19050000Y7366000D03*
X39751000Y17653000D03*
X28067226Y18470998D03*
%TO.N,/Front/CK*%
X19541626Y8474137D03*
X41910000Y17780000D03*
X28064394Y21392655D03*
%TO.N,/Front/MOSI*%
X28066507Y19431000D03*
X44196000Y17653000D03*
X20066000Y7670000D03*
%TO.N,/Front/LCD_CS*%
X18517487Y8164770D03*
X28099928Y22352000D03*
%TO.N,/Front/SD_CS*%
X21881152Y7455848D03*
X45466000Y17526000D03*
%TO.N,/Front/SD_DET*%
X37719000Y17399000D03*
X18281007Y9150993D03*
%TO.N,/Front/BUZZER*%
X43326574Y9652000D03*
X42875200Y7162800D03*
%TD*%
D34*
%TO.N,GND*%
X16637000Y12811000D02*
X16637000Y15369737D01*
X23634200Y18910800D02*
X25536400Y18910800D01*
X40984000Y17822737D02*
X41703263Y18542000D01*
X46736000Y18542000D02*
X48912000Y18542000D01*
X48912000Y18542000D02*
X51134000Y16320000D01*
X56123200Y7122800D02*
X55372000Y7874000D01*
X23622000Y18923000D02*
X23634200Y18910800D01*
X58875716Y7122800D02*
X56123200Y7122800D01*
X24635200Y25910800D02*
X25536400Y25910800D01*
X24666400Y11410800D02*
X24638000Y11439200D01*
X16626800Y26278800D02*
X17526000Y27178000D01*
X45450001Y5635289D02*
X47450711Y5635289D01*
X62738000Y33020000D02*
X59323600Y29605600D01*
X51410669Y16043331D02*
X51134000Y16320000D01*
X24638000Y13843000D02*
X24705800Y13910800D01*
X69638000Y31195002D02*
X69638000Y32470000D01*
X55372000Y7874000D02*
X55372000Y10160000D01*
X45974000Y9144000D02*
X45450001Y8620001D01*
X40984000Y15715200D02*
X40984000Y17388737D01*
X69638000Y32470000D02*
X69088000Y33020000D01*
X14127000Y21941000D02*
X13970000Y22098000D01*
X24257000Y26289000D02*
X24635200Y25910800D01*
X14783600Y23876800D02*
X14884400Y23977600D01*
X36534000Y17738000D02*
X36534000Y16320000D01*
X16768600Y18018800D02*
X16144200Y18018800D01*
X69088000Y33020000D02*
X62738000Y33020000D01*
X13825200Y15543600D02*
X13825200Y15603200D01*
X51358800Y16095200D02*
X51134000Y16320000D01*
X47450711Y5635289D02*
X47498000Y5588000D01*
X40984000Y17388737D02*
X40034737Y18338000D01*
X40984000Y17388737D02*
X40984000Y17822737D01*
X37134000Y18338000D02*
X36534000Y17738000D01*
X13825200Y15603200D02*
X16240800Y18018800D01*
X45450001Y8620001D02*
X45450001Y5635289D01*
X23622000Y20955000D02*
X23666200Y20910800D01*
X24705800Y13910800D02*
X25536400Y13910800D01*
X14884400Y23977600D02*
X16525200Y23977600D01*
X16626800Y25857200D02*
X16626800Y26278800D01*
X14493200Y18018800D02*
X14224000Y18288000D01*
X24257000Y26289000D02*
X23241000Y26289000D01*
X16677600Y23825200D02*
X16677600Y25806400D01*
X25960000Y17410800D02*
X25536400Y17410800D01*
X16144200Y18018800D02*
X14783600Y19379400D01*
X14783600Y21941000D02*
X14127000Y21941000D01*
X51410669Y13354983D02*
X51410669Y16043331D01*
X25536400Y25910800D02*
X36238400Y25910800D01*
X14783600Y19379400D02*
X14783600Y21941000D01*
X36238400Y25910800D02*
X36284000Y25865200D01*
X41703263Y18542000D02*
X46736000Y18542000D01*
X23666200Y20910800D02*
X25960000Y20910800D01*
X25536400Y11410800D02*
X24666400Y11410800D01*
X16768600Y18018800D02*
X14493200Y18018800D01*
X59323600Y7570684D02*
X58875716Y7122800D01*
X13901800Y15467000D02*
X13825200Y15543600D01*
X51358800Y13497600D02*
X51358800Y16095200D01*
X24638000Y11439200D02*
X24638000Y13843000D01*
X59323600Y29605600D02*
X59323600Y7570684D01*
X16525200Y23977600D02*
X16677600Y23825200D01*
X23622000Y19939000D02*
X25508200Y19939000D01*
X16539737Y15467000D02*
X13901800Y15467000D01*
X25508200Y19939000D02*
X25536400Y19910800D01*
X16677600Y25806400D02*
X16626800Y25857200D01*
X14783600Y21941000D02*
X14783600Y23876800D01*
X40034737Y18338000D02*
X37134000Y18338000D01*
X25960000Y20910800D02*
X25960000Y17410800D01*
X16240800Y18018800D02*
X16768600Y18018800D01*
X16637000Y15369737D02*
X16539737Y15467000D01*
%TO.N,Net-(BZ1--)*%
X55613716Y5892800D02*
X59385200Y5892800D01*
X60909200Y12700000D02*
X63708400Y12700000D01*
X60553600Y7061200D02*
X60553600Y12344400D01*
X54633316Y6873200D02*
X55613716Y5892800D01*
X59385200Y5892800D02*
X60553600Y7061200D01*
X60553600Y12344400D02*
X60909200Y12700000D01*
X51363400Y6873200D02*
X54633316Y6873200D01*
X73406000Y11794600D02*
X72776400Y11165000D01*
X72776400Y11165000D02*
X65243400Y11165000D01*
X65243400Y11165000D02*
X63708400Y12700000D01*
%TO.N,Net-(J4-Pin_21)*%
X16697200Y21848400D02*
X16753800Y21905000D01*
X25960000Y14410800D02*
X25536400Y14410800D01*
X17576800Y18948400D02*
X18599900Y17925300D01*
X16753800Y21905000D02*
X17576800Y21082000D01*
X19710400Y17068800D02*
X20868400Y15910800D01*
X20868400Y15910800D02*
X25960000Y15910800D01*
X18599900Y17068800D02*
X19710400Y17068800D01*
X17576800Y21082000D02*
X17576800Y18948400D01*
X25960000Y15910800D02*
X25960000Y14410800D01*
X18599900Y17925300D02*
X18599900Y17068800D01*
%TO.N,Net-(J4-Pin_20)*%
X18662400Y21067600D02*
X18597200Y21132800D01*
X18662400Y19100800D02*
X18662400Y21067600D01*
X25536400Y16410800D02*
X21352400Y16410800D01*
X21352400Y16410800D02*
X18662400Y19100800D01*
D35*
%TO.N,/Front/VDD*%
X42164000Y13589000D02*
X42164000Y11454983D01*
D34*
X17780000Y25110400D02*
X18526800Y25857200D01*
X67753000Y9744600D02*
X63708400Y5700000D01*
D36*
X42164000Y11454983D02*
X36043017Y11454983D01*
D34*
X59733600Y29435772D02*
X59733600Y7400856D01*
D35*
X43184000Y14609000D02*
X42164000Y13589000D01*
D36*
X9890001Y5635289D02*
X8537911Y5635289D01*
D34*
X15857000Y20511400D02*
X15857000Y22496732D01*
D36*
X36043017Y11454983D02*
X33020000Y14478000D01*
X7315200Y6858000D02*
X7315200Y13258800D01*
D34*
X68953000Y31750000D02*
X68952999Y31885001D01*
X54962000Y7704172D02*
X54962000Y8436400D01*
D36*
X51511200Y11354452D02*
X51410669Y11454983D01*
D34*
X70908000Y31200000D02*
X70654000Y31200000D01*
D36*
X7315200Y14224000D02*
X7315200Y13004800D01*
D35*
X62550400Y6858000D02*
X63708400Y5700000D01*
D36*
X51511200Y10261600D02*
X51511200Y11354452D01*
X51410669Y11454983D02*
X42164000Y11454983D01*
X18592800Y28397200D02*
X19939000Y27051000D01*
X30048200Y24942800D02*
X22047200Y24942800D01*
X18745200Y25857200D02*
X18526800Y25857200D01*
D35*
X61518800Y6858000D02*
X62550400Y6858000D01*
D36*
X12649200Y19558000D02*
X7315200Y14224000D01*
D34*
X68952999Y31885001D02*
X68228000Y32610000D01*
D36*
X12649200Y24993600D02*
X12649200Y19558000D01*
D34*
X16607200Y19761200D02*
X15857000Y20511400D01*
X17780000Y23439068D02*
X17780000Y25110400D01*
D36*
X8537911Y5635289D02*
X7315200Y6858000D01*
D34*
X54962000Y8436400D02*
X53136800Y10261600D01*
D36*
X19939000Y27051000D02*
X18745200Y25857200D01*
D34*
X68953000Y30868999D02*
X68953000Y31750000D01*
X17156132Y22815200D02*
X17780000Y23439068D01*
X62907829Y32610001D02*
X59733600Y29435772D01*
D35*
X43184000Y15715200D02*
X43184000Y14609000D01*
D34*
X59733600Y7400856D02*
X59045544Y6712800D01*
X25552400Y25475800D02*
X25501600Y25475800D01*
X69934000Y30480000D02*
X69330631Y30480000D01*
X59045544Y6712800D02*
X55953372Y6712800D01*
X53136800Y10261600D02*
X51511200Y10261600D01*
X68228000Y32610000D02*
X63247483Y32610001D01*
X25552400Y25146000D02*
X25552400Y25475800D01*
X70654000Y31200000D02*
X69934000Y30480000D01*
X25474800Y25349200D02*
X25536400Y25410800D01*
D36*
X22047200Y24942800D02*
X18592800Y28397200D01*
X33020000Y14478000D02*
X33020000Y21971000D01*
D34*
X73406000Y9744600D02*
X67753000Y9744600D01*
X16175468Y22815200D02*
X17156132Y22815200D01*
X63247483Y32610001D02*
X62907829Y32610001D01*
D36*
X18592800Y28397200D02*
X16052800Y28397200D01*
D34*
X68953000Y31750000D02*
X68953000Y31885000D01*
X69330631Y30491368D02*
X68953000Y30868999D01*
X69330631Y30480000D02*
X69330631Y30491368D01*
X55953372Y6712800D02*
X54962000Y7704172D01*
D36*
X33020000Y21971000D02*
X30048200Y24942800D01*
X16052800Y28397200D02*
X12649200Y24993600D01*
D34*
X15857000Y22496732D02*
X16175468Y22815200D01*
%TO.N,/Front/LCD_RST*%
X29493737Y22275000D02*
X29287000Y22275000D01*
X27651200Y23910800D02*
X18542000Y23910800D01*
X36545001Y6920289D02*
X34584829Y6920289D01*
X37830001Y5635289D02*
X36545001Y6920289D01*
X30175200Y13584628D02*
X30175200Y21593537D01*
X33684001Y7821117D02*
X33684001Y10075827D01*
X30175200Y21593537D02*
X29493737Y22275000D01*
X34584829Y6920289D02*
X33684001Y7821117D01*
X29287000Y22275000D02*
X27651200Y23910800D01*
X33684001Y10075827D02*
X30175200Y13584628D01*
%TO.N,/Front/A_T*%
X26929000Y10927000D02*
X27940000Y11938000D01*
X27940000Y11938000D02*
X31242000Y11938000D01*
X22733000Y10927000D02*
X26929000Y10927000D01*
X31242000Y11938000D02*
X33274000Y9906000D01*
X33274000Y9906000D02*
X33274000Y7651290D01*
X33274000Y7651290D02*
X35290001Y5635289D01*
%TO.N,Net-(C12-Pad1)*%
X15524000Y13492000D02*
X15524000Y14782000D01*
X21266940Y14127824D02*
X21432176Y14127824D01*
X21432176Y14127824D02*
X22733000Y12827000D01*
X12725200Y9043600D02*
X12725200Y10693200D01*
X12725200Y10693200D02*
X15524000Y13492000D01*
%TO.N,/Front/A_R1*%
X21486000Y10142000D02*
X20701000Y10927000D01*
X26834172Y10142000D02*
X21486000Y10142000D01*
X28035458Y11343286D02*
X26834172Y10142000D01*
X32750001Y5635289D02*
X32750001Y9850171D01*
X32750001Y9850171D02*
X31256886Y11343286D01*
X31256886Y11343286D02*
X28035458Y11343286D01*
%TO.N,Net-(C13-Pad1)*%
X14605000Y13716000D02*
X9932600Y9043600D01*
X9932600Y9043600D02*
X8725200Y9043600D01*
X20701000Y13589000D02*
X20320000Y13970000D01*
X20447000Y12573000D02*
X20701000Y12827000D01*
X20701000Y12827000D02*
X20701000Y13589000D01*
%TO.N,/Front/LED*%
X54552000Y7534344D02*
X54552000Y8266572D01*
X51181000Y9398000D02*
X50242000Y10337000D01*
X53420572Y9398000D02*
X51181000Y9398000D01*
X68645631Y30207631D02*
X68542999Y30310263D01*
X54552000Y8266572D02*
X53420572Y9398000D01*
X60143600Y29265944D02*
X60143600Y7231028D01*
D36*
X40386000Y7188200D02*
X40386000Y5651288D01*
D34*
X60143600Y7231028D02*
X59215372Y6302800D01*
X68542999Y31715173D02*
X68058172Y32200000D01*
X63077656Y32200000D02*
X60143600Y29265944D01*
X59215372Y6302800D02*
X55783544Y6302800D01*
X68058172Y32200000D02*
X63077656Y32200000D01*
X55783544Y6302800D02*
X54552000Y7534344D01*
X50242000Y10337000D02*
X42595000Y10337000D01*
X68542999Y30310263D02*
X68542999Y31715173D01*
X40386000Y5651288D02*
X40370001Y5635289D01*
%TO.N,/Front/LCD_DC*%
X27004927Y21691245D02*
X27004927Y22030899D01*
X23479270Y7865848D02*
X24233118Y7112000D01*
X21861151Y8140848D02*
X22164889Y8140848D01*
X28066084Y20701916D02*
X28060345Y20707655D01*
X22164889Y8140848D02*
X22439889Y7865848D01*
X27004928Y22030900D02*
X27004928Y22410800D01*
X24233118Y7112000D02*
X26193290Y7112000D01*
X27780657Y20707655D02*
X27379394Y21108918D01*
X22439889Y7865848D02*
X23479270Y7865848D01*
X20955000Y9046999D02*
X21861151Y8140848D01*
X27379394Y21108918D02*
X27379394Y21316778D01*
X27379394Y21316778D02*
X27004928Y21691246D01*
X27004927Y22030899D02*
X27004928Y22030900D01*
X26193290Y7112000D02*
X27670001Y5635289D01*
X27004928Y21691246D02*
X27004927Y21691245D01*
X27004928Y22410800D02*
X25536400Y22410800D01*
X28060345Y20707655D02*
X27780657Y20707655D01*
X28066084Y20422494D02*
X28066084Y20701916D01*
%TO.N,/Front/MISO*%
X18034000Y6350000D02*
X18034000Y6159288D01*
X39878000Y15721200D02*
X39884000Y15715200D01*
X28067226Y17653226D02*
X27324800Y16910800D01*
X39884000Y13440000D02*
X40005000Y13319000D01*
X19050000Y7366000D02*
X18034000Y6350000D01*
X39751000Y17653000D02*
X39878000Y17526000D01*
X39878000Y17526000D02*
X39878000Y15721200D01*
X27324800Y16910800D02*
X25536400Y16910800D01*
X18034000Y6159288D02*
X17510001Y5635289D01*
X39884000Y15715200D02*
X39884000Y13440000D01*
X28067226Y18470998D02*
X28067226Y17653226D01*
%TO.N,/Front/CK*%
X41910000Y17780000D02*
X41910000Y15889200D01*
X27414928Y21861072D02*
X27414928Y22750072D01*
X27254200Y22910800D02*
X25536400Y22910800D01*
X27414928Y22750072D02*
X27254200Y22910800D01*
X20751000Y7570000D02*
X22590001Y5730999D01*
X27883345Y21392655D02*
X27414928Y21861072D01*
X19541626Y8474137D02*
X20230600Y8474137D01*
X20751000Y7953737D02*
X20751000Y7570000D01*
X22590001Y5730999D02*
X22590001Y5635289D01*
X28064394Y21392655D02*
X27883345Y21392655D01*
X41910000Y15889200D02*
X42084000Y15715200D01*
X20230600Y8474137D02*
X20751000Y7953737D01*
%TO.N,/Front/MOSI*%
X26705544Y21410800D02*
X25536400Y21410800D01*
X20050001Y7654001D02*
X20050001Y5635289D01*
X44284000Y15715200D02*
X44284000Y13788000D01*
X27381084Y20116423D02*
X27381084Y20527400D01*
X44196000Y17653000D02*
X44196000Y15803200D01*
X28066507Y19431000D02*
X27381084Y20116423D01*
X44284000Y13788000D02*
X43942000Y13446000D01*
X26969393Y20939091D02*
X26969393Y21146951D01*
X20066000Y7670000D02*
X20050001Y7654001D01*
X44196000Y15803200D02*
X44284000Y15715200D01*
X27381084Y20527400D02*
X26969393Y20939091D01*
X26969393Y21146951D02*
X26705544Y21410800D01*
%TO.N,/Front/LCD_CS*%
X27516200Y23410800D02*
X25536400Y23410800D01*
X28099928Y22352000D02*
X28099928Y22827072D01*
X17499482Y8164770D02*
X14970001Y5635289D01*
X18517487Y8164770D02*
X17499482Y8164770D01*
X28099928Y22827072D02*
X27516200Y23410800D01*
%TO.N,/Front/SD_CS*%
X21881152Y7455848D02*
X23309442Y7455848D01*
X45274669Y13449983D02*
X45274669Y15605869D01*
X45466000Y17526000D02*
X45466000Y15797200D01*
X45466000Y15797200D02*
X45384000Y15715200D01*
X23309442Y7455848D02*
X25130001Y5635289D01*
X45274669Y15605869D02*
X45384000Y15715200D01*
%TO.N,/Front/SD_DET*%
X13906712Y7112000D02*
X12430001Y5635289D01*
X37684000Y17364000D02*
X37684000Y15715200D01*
X17786993Y9150993D02*
X15748000Y7112000D01*
X18281007Y9150993D02*
X17786993Y9150993D01*
X37719000Y17399000D02*
X37684000Y17364000D01*
X12430001Y6334001D02*
X12430001Y5635289D01*
X15748000Y7112000D02*
X13906712Y7112000D01*
%TO.N,Net-(Q8-G)*%
X49276000Y8890000D02*
X49377600Y8991600D01*
X49377600Y8432800D02*
X49377600Y8940800D01*
X49377600Y8940800D02*
X52120800Y8940800D01*
X49276000Y7146800D02*
X49276000Y8890000D01*
X52120800Y8940800D02*
X53238400Y7823200D01*
%TO.N,Net-(Q9-G)*%
X16685000Y10811000D02*
X16637000Y10811000D01*
X18669000Y12795000D02*
X16685000Y10811000D01*
X18669000Y12795000D02*
X18669000Y14218400D01*
X18669000Y14218400D02*
X16768600Y16118800D01*
X16643600Y15993800D02*
X16768600Y16118800D01*
%TO.N,Net-(J12-DAT1)*%
X38784000Y14603200D02*
X38100000Y13919200D01*
X38784000Y14603200D02*
X38784000Y15715200D01*
X38100000Y13919200D02*
X38100000Y13319000D01*
%TO.N,/Front/BUZZER*%
X42910001Y7127999D02*
X42875200Y7162800D01*
X47377600Y9112000D02*
X47377600Y8432800D01*
X43503574Y9829000D02*
X46660600Y9829000D01*
X43326574Y9652000D02*
X43503574Y9829000D01*
X46660600Y9829000D02*
X47377600Y9112000D01*
X42910001Y5635289D02*
X42910001Y7127999D01*
%TO.N,Net-(J12-DAT2)*%
X46484000Y15111000D02*
X48145017Y13449983D01*
X48145017Y13449983D02*
X48224669Y13449983D01*
X46484000Y15715200D02*
X46484000Y15111000D01*
%TO.N,/Front/LCD_LED*%
X20113001Y9731999D02*
X18669000Y11176000D01*
X32340001Y9680343D02*
X31233672Y10786672D01*
X31233672Y10786672D02*
X28058672Y10786672D01*
X28058672Y10786672D02*
X27003999Y9731999D01*
X27003999Y9731999D02*
X20113001Y9731999D01*
X30210001Y6334001D02*
X32340001Y8464001D01*
X30210001Y5635289D02*
X30210001Y6334001D01*
X32340001Y8464001D02*
X32340001Y9680343D01*
%TD*%
%TA.AperFunction,Conductor*%
%TO.N,GND*%
G36*
X33487191Y34015336D02*
G01*
X33523155Y33965836D01*
X33528000Y33935243D01*
X33528000Y27432000D01*
X35380422Y27432000D01*
X35438613Y27413093D01*
X35474577Y27363593D01*
X35474577Y27302407D01*
X35450426Y27262996D01*
X35354576Y27167146D01*
X35347256Y27155496D01*
X36283999Y26218753D01*
X37220742Y27155496D01*
X37213422Y27167147D01*
X37117574Y27262996D01*
X37089797Y27317513D01*
X37099368Y27377945D01*
X37142633Y27421210D01*
X37187578Y27432000D01*
X39224335Y27432000D01*
X39282526Y27413093D01*
X39318490Y27363593D01*
X39318490Y27302407D01*
X39282526Y27252907D01*
X39243649Y27235902D01*
X39223698Y27231933D01*
X39098626Y27207055D01*
X39098624Y27207054D01*
X38939299Y27141060D01*
X38939287Y27141054D01*
X38868422Y27093702D01*
X38795901Y27045245D01*
X38673955Y26923299D01*
X38657271Y26898329D01*
X38578145Y26779912D01*
X38578139Y26779900D01*
X38524882Y26651324D01*
X38512145Y26620574D01*
X38502986Y26574529D01*
X38478500Y26451431D01*
X38478500Y26278968D01*
X38512145Y26109826D01*
X38512145Y26109824D01*
X38578139Y25950499D01*
X38578145Y25950487D01*
X38673955Y25807101D01*
X38673958Y25807097D01*
X38795897Y25685158D01*
X38795901Y25685155D01*
X38939287Y25589345D01*
X38939299Y25589339D01*
X39098625Y25523345D01*
X39267768Y25489700D01*
X39267771Y25489700D01*
X39440231Y25489700D01*
X39552992Y25512130D01*
X39609374Y25523345D01*
X39609375Y25523345D01*
X39768700Y25589339D01*
X39768712Y25589345D01*
X39881124Y25664458D01*
X39912099Y25685155D01*
X40034045Y25807101D01*
X40074893Y25868234D01*
X40129854Y25950487D01*
X40129860Y25950499D01*
X40195854Y26109824D01*
X40195855Y26109826D01*
X40229500Y26278971D01*
X40229500Y26451429D01*
X40195855Y26620574D01*
X40129858Y26779905D01*
X40129856Y26779907D01*
X40129854Y26779912D01*
X40094582Y26832699D01*
X40034045Y26923299D01*
X39912099Y27045245D01*
X39810115Y27113388D01*
X39768712Y27141054D01*
X39768707Y27141056D01*
X39768705Y27141058D01*
X39609374Y27207055D01*
X39484301Y27231933D01*
X39464351Y27235902D01*
X39410967Y27265799D01*
X39385351Y27321364D01*
X39397288Y27381374D01*
X39442218Y27422906D01*
X39483665Y27432000D01*
X47204335Y27432000D01*
X47262526Y27413093D01*
X47298490Y27363593D01*
X47298490Y27302407D01*
X47262526Y27252907D01*
X47223649Y27235902D01*
X47203698Y27231933D01*
X47078626Y27207055D01*
X47078624Y27207054D01*
X46919299Y27141060D01*
X46919287Y27141054D01*
X46848422Y27093702D01*
X46775901Y27045245D01*
X46653955Y26923299D01*
X46637271Y26898329D01*
X46558145Y26779912D01*
X46558139Y26779900D01*
X46504882Y26651324D01*
X46492145Y26620574D01*
X46482986Y26574529D01*
X46458500Y26451431D01*
X46458500Y26278968D01*
X46492145Y26109826D01*
X46492145Y26109824D01*
X46558139Y25950499D01*
X46558145Y25950487D01*
X46653955Y25807101D01*
X46653958Y25807097D01*
X46775897Y25685158D01*
X46775901Y25685155D01*
X46919287Y25589345D01*
X46919299Y25589339D01*
X47078625Y25523345D01*
X47247768Y25489700D01*
X47247771Y25489700D01*
X47420231Y25489700D01*
X47532992Y25512130D01*
X47589374Y25523345D01*
X47589375Y25523345D01*
X47748700Y25589339D01*
X47748712Y25589345D01*
X47861124Y25664458D01*
X47892099Y25685155D01*
X48014045Y25807101D01*
X48054893Y25868234D01*
X48109854Y25950487D01*
X48109860Y25950499D01*
X48175854Y26109824D01*
X48175855Y26109826D01*
X48209500Y26278971D01*
X48209500Y26451429D01*
X48175855Y26620574D01*
X48141373Y26703822D01*
X50772000Y26703822D01*
X50772000Y25026598D01*
X50772001Y25026575D01*
X50774917Y24983570D01*
X50774919Y24983560D01*
X50779676Y24964430D01*
X51680445Y25865199D01*
X52387553Y25865199D01*
X53288323Y24964429D01*
X53293081Y24983559D01*
X53293081Y24983562D01*
X53295999Y25026577D01*
X53295999Y26703801D01*
X53295998Y26703826D01*
X53293081Y26746837D01*
X53288323Y26765969D01*
X52387553Y25865199D01*
X51680445Y25865199D01*
X50779675Y26765969D01*
X50774918Y26746837D01*
X50772000Y26703822D01*
X48141373Y26703822D01*
X48109858Y26779905D01*
X48109856Y26779907D01*
X48109854Y26779912D01*
X48074582Y26832699D01*
X48014045Y26923299D01*
X47892099Y27045245D01*
X47790115Y27113388D01*
X47748712Y27141054D01*
X47748707Y27141056D01*
X47748705Y27141058D01*
X47589374Y27207055D01*
X47464301Y27231933D01*
X47444351Y27235902D01*
X47390967Y27265799D01*
X47365351Y27321364D01*
X47377288Y27381374D01*
X47422218Y27422906D01*
X47463665Y27432000D01*
X50966835Y27432000D01*
X51025026Y27413093D01*
X51060990Y27363593D01*
X51060990Y27302407D01*
X51030122Y27257670D01*
X51030163Y27257630D01*
X51029943Y27257410D01*
X51028857Y27255836D01*
X51026370Y27253837D01*
X51026362Y27253829D01*
X51014134Y27238618D01*
X52033999Y26218753D01*
X53053864Y27238618D01*
X53041640Y27253826D01*
X53041633Y27253833D01*
X53039141Y27255837D01*
X53038214Y27257252D01*
X53037838Y27257629D01*
X53037916Y27257707D01*
X53005632Y27307031D01*
X53008613Y27368143D01*
X53046945Y27415833D01*
X53101165Y27432000D01*
X57813000Y27432000D01*
X57871191Y27413093D01*
X57907155Y27363593D01*
X57912000Y27333000D01*
X57912000Y26311800D01*
X57893093Y26253609D01*
X57843593Y26217645D01*
X57813000Y26212800D01*
X56995378Y26212800D01*
X56995378Y7874000D01*
X57813000Y7874000D01*
X57871191Y7855093D01*
X57907155Y7805593D01*
X57912000Y7775000D01*
X57912000Y7187300D01*
X57893093Y7129109D01*
X57843593Y7093145D01*
X57813000Y7088300D01*
X56149918Y7088300D01*
X56091727Y7107207D01*
X56079914Y7117296D01*
X55366496Y7830713D01*
X55338719Y7885230D01*
X55337500Y7900717D01*
X55337500Y8485833D01*
X55337500Y8485835D01*
X55336181Y8490758D01*
X55311911Y8581337D01*
X55262475Y8666962D01*
X53367363Y10562074D01*
X53367364Y10562074D01*
X53336024Y10580167D01*
X53281738Y10611510D01*
X53233986Y10624305D01*
X53186236Y10637100D01*
X52360700Y10637100D01*
X52302509Y10656007D01*
X52266545Y10705507D01*
X52261700Y10736100D01*
X52261700Y11051084D01*
X52276823Y11097630D01*
X52274205Y11099060D01*
X52277593Y11105265D01*
X52277596Y11105269D01*
X52322205Y11224872D01*
X52327889Y11240111D01*
X52327889Y11240112D01*
X52327891Y11240117D01*
X52334300Y11299727D01*
X52334299Y11895472D01*
X52327891Y11955083D01*
X52293455Y12047411D01*
X52277597Y12089929D01*
X52245203Y12133202D01*
X52191346Y12205146D01*
X52076131Y12291396D01*
X51989788Y12323599D01*
X51941877Y12361647D01*
X51925478Y12420594D01*
X51946859Y12477922D01*
X51993247Y12510331D01*
X52152924Y12563243D01*
X52302140Y12655280D01*
X52426119Y12779259D01*
X52518156Y12928475D01*
X52573306Y13094906D01*
X52583800Y13197612D01*
X52583800Y13247599D01*
X52583799Y13247600D01*
X50133802Y13247600D01*
X50133801Y13247599D01*
X50133801Y13197613D01*
X50133800Y13197613D01*
X50144292Y13094912D01*
X50144295Y13094900D01*
X50199443Y12928475D01*
X50291480Y12779259D01*
X50415459Y12655280D01*
X50564674Y12563243D01*
X50724353Y12510331D01*
X50773642Y12474079D01*
X50792210Y12415779D01*
X50772964Y12357700D01*
X50727811Y12323599D01*
X50641469Y12291396D01*
X50641468Y12291395D01*
X50641467Y12291395D01*
X50618084Y12273890D01*
X50567637Y12236125D01*
X50553083Y12225230D01*
X50495169Y12205493D01*
X50493754Y12205483D01*
X48523118Y12205483D01*
X48464927Y12224390D01*
X48463788Y12225231D01*
X48444333Y12239795D01*
X48444331Y12239795D01*
X48444331Y12239796D01*
X48309483Y12290091D01*
X48249873Y12296500D01*
X47254128Y12296499D01*
X47194517Y12290091D01*
X47194514Y12290090D01*
X47059669Y12239796D01*
X47059666Y12239795D01*
X47040212Y12225231D01*
X46982298Y12205493D01*
X46980882Y12205483D01*
X46623438Y12205483D01*
X46565247Y12224390D01*
X46564198Y12225163D01*
X46539331Y12243779D01*
X46404483Y12294074D01*
X46344873Y12300483D01*
X45349128Y12300482D01*
X45289517Y12294074D01*
X45289514Y12294073D01*
X45272990Y12287910D01*
X45154669Y12243779D01*
X45129889Y12225229D01*
X45071977Y12205493D01*
X45070562Y12205483D01*
X44713118Y12205483D01*
X44654927Y12224390D01*
X44653788Y12225231D01*
X44634333Y12239795D01*
X44634331Y12239795D01*
X44634331Y12239796D01*
X44499483Y12290091D01*
X44439873Y12296500D01*
X43444128Y12296499D01*
X43384517Y12290091D01*
X43384514Y12290090D01*
X43249669Y12239796D01*
X43249666Y12239795D01*
X43230212Y12225231D01*
X43172298Y12205493D01*
X43170882Y12205483D01*
X42763500Y12205483D01*
X42705309Y12224390D01*
X42669345Y12273890D01*
X42664500Y12304483D01*
X42664500Y13340678D01*
X42683407Y13398869D01*
X42693496Y13410682D01*
X42822496Y13539682D01*
X42877013Y13567459D01*
X42937445Y13557888D01*
X42980710Y13514623D01*
X42991500Y13469678D01*
X42991500Y13048133D01*
X42991501Y13048129D01*
X42997908Y12988519D01*
X42997909Y12988514D01*
X43048202Y12853670D01*
X43134450Y12738458D01*
X43134458Y12738450D01*
X43249670Y12652202D01*
X43384511Y12601910D01*
X43384522Y12601908D01*
X43425209Y12597533D01*
X43444127Y12595500D01*
X43444128Y12595500D01*
X43444129Y12595500D01*
X44439866Y12595500D01*
X44439869Y12595500D01*
X44439872Y12595501D01*
X44454229Y12597044D01*
X44499480Y12601908D01*
X44499485Y12601909D01*
X44634329Y12652202D01*
X44749541Y12738450D01*
X44749542Y12738451D01*
X44749546Y12738454D01*
X44816738Y12828211D01*
X44866745Y12863463D01*
X44927924Y12862589D01*
X44975243Y12828211D01*
X45039453Y12742438D01*
X45039458Y12742433D01*
X45154670Y12656185D01*
X45289511Y12605893D01*
X45289522Y12605891D01*
X45326572Y12601908D01*
X45349127Y12599483D01*
X45349128Y12599483D01*
X45349129Y12599483D01*
X46344866Y12599483D01*
X46344869Y12599483D01*
X46344872Y12599484D01*
X46359229Y12601027D01*
X46404480Y12605891D01*
X46404485Y12605892D01*
X46539329Y12656185D01*
X46654541Y12742433D01*
X46654542Y12742434D01*
X46654546Y12742437D01*
X46718756Y12828210D01*
X46768765Y12863463D01*
X46829944Y12862589D01*
X46877262Y12828210D01*
X46944450Y12738458D01*
X46944458Y12738450D01*
X47059670Y12652202D01*
X47194511Y12601910D01*
X47194522Y12601908D01*
X47235209Y12597533D01*
X47254127Y12595500D01*
X47254128Y12595500D01*
X47254129Y12595500D01*
X48249866Y12595500D01*
X48249869Y12595500D01*
X48249872Y12595501D01*
X48264229Y12597044D01*
X48309480Y12601908D01*
X48309485Y12601909D01*
X48444329Y12652202D01*
X48559541Y12738450D01*
X48559542Y12738451D01*
X48559546Y12738454D01*
X48577199Y12762035D01*
X48645797Y12853670D01*
X48696089Y12988511D01*
X48696090Y12988514D01*
X48696091Y12988517D01*
X48702500Y13048127D01*
X48702499Y13797587D01*
X50133800Y13797587D01*
X50133800Y13747601D01*
X50133801Y13747600D01*
X51108799Y13747600D01*
X51108800Y13747601D01*
X51108800Y14497598D01*
X51608800Y14497598D01*
X51608800Y13747601D01*
X51608801Y13747600D01*
X52583798Y13747600D01*
X52583799Y13747601D01*
X52583799Y13797586D01*
X52573307Y13900287D01*
X52573304Y13900299D01*
X52518156Y14066724D01*
X52426119Y14215940D01*
X52302140Y14339919D01*
X52152924Y14431956D01*
X51986493Y14487106D01*
X51883786Y14497599D01*
X51608801Y14497599D01*
X51608800Y14497598D01*
X51108800Y14497598D01*
X51108799Y14497599D01*
X50833813Y14497599D01*
X50731112Y14487107D01*
X50731100Y14487104D01*
X50564675Y14431956D01*
X50415459Y14339919D01*
X50291480Y14215940D01*
X50199443Y14066724D01*
X50144293Y13900293D01*
X50133800Y13797587D01*
X48702499Y13797587D01*
X48702499Y13843872D01*
X48696091Y13903483D01*
X48651942Y14021854D01*
X48645797Y14038329D01*
X48641465Y14044116D01*
X48559546Y14153546D01*
X48444331Y14239796D01*
X48444329Y14239796D01*
X48444329Y14239797D01*
X48349539Y14275151D01*
X48309483Y14290091D01*
X48249873Y14296500D01*
X47870544Y14296499D01*
X47812354Y14315406D01*
X47800547Y14325489D01*
X47113496Y15012541D01*
X47085719Y15067058D01*
X47084500Y15082545D01*
X47084500Y15185391D01*
X50352945Y15185391D01*
X50389149Y15167436D01*
X50389152Y15167435D01*
X50568573Y15122815D01*
X50610079Y15120000D01*
X51657907Y15120000D01*
X51657933Y15120001D01*
X51699425Y15122815D01*
X51878849Y15167435D01*
X51878850Y15167436D01*
X51915053Y15185391D01*
X51133999Y15966445D01*
X50352945Y15185391D01*
X47084500Y15185391D01*
X47084500Y16739872D01*
X47084498Y16739884D01*
X47083693Y16743930D01*
X49834000Y16743930D01*
X49834000Y15896092D01*
X49834001Y15896066D01*
X49836815Y15854574D01*
X49881435Y15675151D01*
X49881438Y15675145D01*
X49963577Y15509525D01*
X49963585Y15509513D01*
X49966425Y15505978D01*
X50780445Y16319999D01*
X51487553Y16319999D01*
X52301573Y15505979D01*
X52304419Y15509520D01*
X52386561Y15675145D01*
X52386564Y15675152D01*
X52431184Y15854573D01*
X52433999Y15896069D01*
X52433999Y16743907D01*
X52433998Y16743933D01*
X52431184Y16785425D01*
X52386564Y16964848D01*
X52386561Y16964853D01*
X52304419Y17130479D01*
X52301572Y17134018D01*
X51487553Y16319999D01*
X50780445Y16319999D01*
X49966425Y17134019D01*
X49963585Y17130487D01*
X49963580Y17130479D01*
X49881438Y16964854D01*
X49881435Y16964847D01*
X49836815Y16785426D01*
X49834000Y16743930D01*
X47083693Y16743930D01*
X47075439Y16785425D01*
X47069966Y16812940D01*
X47014601Y16895801D01*
X46931740Y16951166D01*
X46858674Y16965700D01*
X46109326Y16965700D01*
X46109323Y16965699D01*
X46109320Y16965699D01*
X46103142Y16964470D01*
X46071044Y16958085D01*
X46010286Y16965275D01*
X45965354Y17006806D01*
X45953416Y17066815D01*
X45970254Y17111420D01*
X46039877Y17212288D01*
X46046220Y17221477D01*
X46102237Y17369182D01*
X46111358Y17444300D01*
X46112610Y17454607D01*
X50352945Y17454607D01*
X51134000Y16673553D01*
X51915053Y17454607D01*
X51878851Y17472563D01*
X51878847Y17472564D01*
X51699426Y17517184D01*
X51657920Y17519999D01*
X50610092Y17519999D01*
X50610066Y17519998D01*
X50568574Y17517184D01*
X50389148Y17472563D01*
X50389144Y17472562D01*
X50352945Y17454607D01*
X46112610Y17454607D01*
X46121278Y17525998D01*
X46121278Y17526001D01*
X46111245Y17608626D01*
X46102237Y17682818D01*
X46046220Y17830523D01*
X45956483Y17960530D01*
X45838240Y18065283D01*
X45698365Y18138696D01*
X45544985Y18176500D01*
X45387015Y18176500D01*
X45233635Y18138696D01*
X45093760Y18065283D01*
X44991552Y17974735D01*
X44975515Y17960528D01*
X44953309Y17928356D01*
X44904692Y17891206D01*
X44843525Y17889727D01*
X44793170Y17924484D01*
X44779267Y17949487D01*
X44776220Y17957523D01*
X44686483Y18087530D01*
X44568240Y18192283D01*
X44428365Y18265696D01*
X44274985Y18303500D01*
X44117015Y18303500D01*
X43963635Y18265696D01*
X43823760Y18192283D01*
X43729328Y18108624D01*
X43705515Y18087528D01*
X43627660Y17974734D01*
X43615780Y17957523D01*
X43567616Y17830523D01*
X43559763Y17809817D01*
X43559762Y17809816D01*
X43540722Y17653001D01*
X43540722Y17652998D01*
X43559762Y17496183D01*
X43559763Y17496182D01*
X43615780Y17348476D01*
X43705515Y17218471D01*
X43787149Y17146151D01*
X43818168Y17093411D01*
X43820500Y17072048D01*
X43820500Y17010257D01*
X43801593Y16952066D01*
X43752093Y16916102D01*
X43690907Y16916102D01*
X43666499Y16927941D01*
X43659303Y16932749D01*
X43631740Y16951166D01*
X43558674Y16965700D01*
X42809326Y16965700D01*
X42809321Y16965699D01*
X42809315Y16965698D01*
X42791808Y16962215D01*
X42736260Y16951166D01*
X42736257Y16951164D01*
X42736256Y16951164D01*
X42725858Y16944216D01*
X42689000Y16919588D01*
X42630114Y16902980D01*
X42579000Y16919588D01*
X42531740Y16951166D01*
X42458674Y16965700D01*
X42458673Y16965700D01*
X42384500Y16965700D01*
X42326309Y16984607D01*
X42290345Y17034107D01*
X42285500Y17064700D01*
X42285500Y17199048D01*
X42304407Y17257239D01*
X42318851Y17273151D01*
X42400484Y17345471D01*
X42469414Y17445334D01*
X42490220Y17475477D01*
X42546237Y17623182D01*
X42555888Y17702662D01*
X42565278Y17779998D01*
X42565278Y17780001D01*
X42549322Y17911409D01*
X42546237Y17936818D01*
X42490220Y18084523D01*
X42400483Y18214530D01*
X42282240Y18319283D01*
X42142365Y18392696D01*
X41988985Y18430500D01*
X41831015Y18430500D01*
X41677635Y18392696D01*
X41537760Y18319283D01*
X41471745Y18260799D01*
X41419515Y18214528D01*
X41339588Y18098733D01*
X41329780Y18084523D01*
X41281616Y17957523D01*
X41273763Y17936817D01*
X41273762Y17936816D01*
X41254722Y17780001D01*
X41254722Y17779998D01*
X41273762Y17623183D01*
X41273763Y17623182D01*
X41329780Y17475476D01*
X41402283Y17370438D01*
X41419778Y17311807D01*
X41399470Y17254091D01*
X41349115Y17219334D01*
X41320807Y17215200D01*
X40586176Y17215200D01*
X40526629Y17208798D01*
X40526621Y17208796D01*
X40428448Y17172180D01*
X40367319Y17169560D01*
X40316324Y17203371D01*
X40294942Y17260698D01*
X40311340Y17319645D01*
X40312376Y17321176D01*
X40331217Y17348472D01*
X40331218Y17348474D01*
X40331219Y17348476D01*
X40331220Y17348477D01*
X40387237Y17496182D01*
X40399182Y17594561D01*
X40406278Y17652998D01*
X40406278Y17653001D01*
X40393189Y17760800D01*
X40387237Y17809818D01*
X40331220Y17957523D01*
X40241483Y18087530D01*
X40123240Y18192283D01*
X39983365Y18265696D01*
X39829985Y18303500D01*
X39672015Y18303500D01*
X39518635Y18265696D01*
X39378760Y18192283D01*
X39284328Y18108624D01*
X39260515Y18087528D01*
X39182660Y17974734D01*
X39170780Y17957523D01*
X39122616Y17830523D01*
X39114763Y17809817D01*
X39114762Y17809816D01*
X39095722Y17653001D01*
X39095722Y17652998D01*
X39114762Y17496183D01*
X39114763Y17496182D01*
X39170780Y17348476D01*
X39260515Y17218471D01*
X39378758Y17113717D01*
X39399707Y17102722D01*
X39442443Y17058936D01*
X39451281Y16998392D01*
X39422844Y16944216D01*
X39408699Y16932750D01*
X39389000Y16919588D01*
X39330114Y16902980D01*
X39279000Y16919588D01*
X39231740Y16951166D01*
X39158674Y16965700D01*
X38409326Y16965700D01*
X38409325Y16965699D01*
X38404482Y16965223D01*
X38404271Y16967361D01*
X38351924Y16973537D01*
X38306978Y17015053D01*
X38295019Y17075058D01*
X38300770Y17098565D01*
X38302347Y17102722D01*
X38355237Y17242182D01*
X38365583Y17327392D01*
X38374278Y17398998D01*
X38374278Y17399001D01*
X38362478Y17496183D01*
X38355237Y17555818D01*
X38299220Y17703523D01*
X38209483Y17833530D01*
X38091240Y17938283D01*
X37951365Y18011696D01*
X37797985Y18049500D01*
X37640015Y18049500D01*
X37486635Y18011696D01*
X37346760Y17938283D01*
X37293621Y17891206D01*
X37228515Y17833528D01*
X37182121Y17766313D01*
X37145305Y17712975D01*
X37138779Y17703521D01*
X37138777Y17703518D01*
X37088641Y17571320D01*
X37050328Y17523615D01*
X36991292Y17507542D01*
X36984990Y17508049D01*
X36878934Y17519999D01*
X36878916Y17520000D01*
X36189084Y17520000D01*
X36189081Y17519999D01*
X36054854Y17504876D01*
X36054850Y17504875D01*
X35884696Y17445335D01*
X35884692Y17445334D01*
X35809479Y17398073D01*
X36817549Y16390004D01*
X36845326Y16335487D01*
X36835755Y16275055D01*
X36817549Y16249996D01*
X35809479Y15241926D01*
X35884697Y15194663D01*
X36054850Y15135124D01*
X36054854Y15135123D01*
X36189081Y15120000D01*
X36878918Y15120000D01*
X36973416Y15130647D01*
X37033358Y15118373D01*
X37074637Y15073211D01*
X37083500Y15032269D01*
X37083500Y14690527D01*
X37083501Y14690515D01*
X37098033Y14617463D01*
X37098035Y14617457D01*
X37153397Y14534600D01*
X37153400Y14534597D01*
X37236257Y14479235D01*
X37236263Y14479233D01*
X37309315Y14464701D01*
X37309325Y14464700D01*
X37309326Y14464700D01*
X37309327Y14464700D01*
X37875455Y14464700D01*
X37933646Y14445793D01*
X37969610Y14396293D01*
X37969610Y14335107D01*
X37945459Y14295696D01*
X37848258Y14198495D01*
X37793741Y14170718D01*
X37778254Y14169499D01*
X37602128Y14169499D01*
X37542517Y14163091D01*
X37542514Y14163090D01*
X37407670Y14112797D01*
X37348067Y14068178D01*
X37292454Y14026546D01*
X37292453Y14026544D01*
X37292450Y14026541D01*
X37206202Y13911329D01*
X37155910Y13776488D01*
X37155908Y13776477D01*
X37149500Y13716870D01*
X37149500Y12921133D01*
X37149501Y12921129D01*
X37155908Y12861519D01*
X37155909Y12861514D01*
X37206202Y12726670D01*
X37292450Y12611458D01*
X37292458Y12611450D01*
X37407670Y12525202D01*
X37542511Y12474910D01*
X37542522Y12474908D01*
X37583209Y12470533D01*
X37602127Y12468500D01*
X37602128Y12468500D01*
X37602129Y12468500D01*
X38597866Y12468500D01*
X38597869Y12468500D01*
X38597872Y12468501D01*
X38612229Y12470044D01*
X38657480Y12474908D01*
X38657485Y12474909D01*
X38792329Y12525202D01*
X38907541Y12611450D01*
X38907542Y12611451D01*
X38907546Y12611454D01*
X38925139Y12634955D01*
X38973247Y12699218D01*
X39023256Y12734471D01*
X39084435Y12733597D01*
X39131753Y12699218D01*
X39197450Y12611458D01*
X39197458Y12611450D01*
X39312670Y12525202D01*
X39447511Y12474910D01*
X39447522Y12474908D01*
X39488209Y12470533D01*
X39507127Y12468500D01*
X39507128Y12468500D01*
X39507129Y12468500D01*
X40502866Y12468500D01*
X40502869Y12468500D01*
X40502872Y12468501D01*
X40517229Y12470044D01*
X40562480Y12474908D01*
X40562485Y12474909D01*
X40697329Y12525202D01*
X40812541Y12611450D01*
X40812542Y12611451D01*
X40812546Y12611454D01*
X40843050Y12652202D01*
X40898797Y12726670D01*
X40949089Y12861511D01*
X40949090Y12861514D01*
X40949091Y12861517D01*
X40955500Y12921127D01*
X40955499Y13716872D01*
X40949091Y13776483D01*
X40913161Y13872817D01*
X40898797Y13911329D01*
X40898796Y13911331D01*
X40812546Y14026546D01*
X40798651Y14036947D01*
X40763399Y14086955D01*
X40764273Y14148134D01*
X40800940Y14197116D01*
X40857981Y14215200D01*
X41381824Y14215200D01*
X41441370Y14221601D01*
X41441381Y14221603D01*
X41576088Y14271846D01*
X41576090Y14271847D01*
X41691184Y14358007D01*
X41691192Y14358015D01*
X41741359Y14425029D01*
X41791368Y14460282D01*
X41820612Y14464700D01*
X42092878Y14464700D01*
X42151069Y14445793D01*
X42187033Y14396293D01*
X42187033Y14335107D01*
X42162882Y14295696D01*
X41856686Y13989500D01*
X41856685Y13989500D01*
X41763500Y13896314D01*
X41763496Y13896309D01*
X41697609Y13782190D01*
X41697608Y13782186D01*
X41663500Y13654892D01*
X41663500Y13654890D01*
X41663500Y12304483D01*
X41644593Y12246292D01*
X41595093Y12210328D01*
X41564500Y12205483D01*
X36394892Y12205483D01*
X36336701Y12224390D01*
X36324888Y12234479D01*
X33799496Y14759871D01*
X33771719Y14814388D01*
X33770500Y14829875D01*
X33770500Y16764918D01*
X35434000Y16764918D01*
X35434000Y15875081D01*
X35449123Y15740854D01*
X35488568Y15628122D01*
X36180445Y16319999D01*
X35488568Y17011876D01*
X35449123Y16899143D01*
X35434000Y16764918D01*
X33770500Y16764918D01*
X33770500Y22044916D01*
X33770500Y22044918D01*
X33741658Y22189913D01*
X33685084Y22326495D01*
X33631694Y22406399D01*
X33602952Y22449416D01*
X31477466Y24574902D01*
X35347256Y24574902D01*
X35354577Y24563252D01*
X35482055Y24435774D01*
X35482054Y24435774D01*
X35634697Y24339863D01*
X35804850Y24280324D01*
X35804854Y24280323D01*
X35939081Y24265200D01*
X36628918Y24265200D01*
X36763145Y24280323D01*
X36763149Y24280324D01*
X36933302Y24339863D01*
X37085944Y24435774D01*
X37141950Y24491780D01*
X51014134Y24491780D01*
X51026365Y24476567D01*
X51026369Y24476563D01*
X51175723Y24356508D01*
X51175726Y24356506D01*
X51347392Y24271368D01*
X51347398Y24271365D01*
X51533362Y24225118D01*
X51533367Y24225117D01*
X51576386Y24222200D01*
X52491601Y24222200D01*
X52491626Y24222201D01*
X52534633Y24225117D01*
X52534637Y24225118D01*
X52720599Y24271365D01*
X52720607Y24271368D01*
X52892273Y24356506D01*
X52892276Y24356508D01*
X53041631Y24476564D01*
X53041636Y24476569D01*
X53053864Y24491780D01*
X52033999Y25511645D01*
X51014134Y24491780D01*
X37141950Y24491780D01*
X37213426Y24563256D01*
X37220742Y24574902D01*
X36283999Y25511645D01*
X35347256Y24574902D01*
X31477466Y24574902D01*
X30933614Y25118754D01*
X35184000Y25118754D01*
X35930446Y25865200D01*
X36637554Y25865200D01*
X37384000Y25118754D01*
X37384000Y26611646D01*
X36637554Y25865200D01*
X35930446Y25865200D01*
X35184000Y26611646D01*
X35184000Y25118754D01*
X30933614Y25118754D01*
X30526616Y25525752D01*
X30431445Y25589342D01*
X30403695Y25607884D01*
X30267113Y25664458D01*
X30122118Y25693300D01*
X30122117Y25693300D01*
X27209000Y25693300D01*
X27150809Y25712207D01*
X27130130Y25740668D01*
X27109999Y25760800D01*
X26791599Y25760800D01*
X26736598Y25777484D01*
X26727925Y25783279D01*
X26707740Y25796766D01*
X26634674Y25811300D01*
X26634673Y25811300D01*
X25748824Y25811300D01*
X25703429Y25823462D01*
X25703332Y25823227D01*
X25701541Y25823968D01*
X25699327Y25824562D01*
X25698753Y25824892D01*
X25697338Y25825710D01*
X25601835Y25851300D01*
X25452165Y25851300D01*
X25356662Y25825710D01*
X25356659Y25825708D01*
X25354673Y25824562D01*
X25352458Y25823968D01*
X25350668Y25823227D01*
X25350570Y25823462D01*
X25305176Y25811300D01*
X25285326Y25811300D01*
X25285320Y25811298D01*
X25285315Y25811298D01*
X25267808Y25807815D01*
X25212260Y25796766D01*
X25212257Y25796764D01*
X25183402Y25777484D01*
X25128401Y25760800D01*
X24810001Y25760800D01*
X24794838Y25745637D01*
X24791093Y25734109D01*
X24741593Y25698145D01*
X24711000Y25693300D01*
X22399075Y25693300D01*
X22340884Y25712207D01*
X22329071Y25722296D01*
X21942743Y26108624D01*
X24810000Y26108624D01*
X24810000Y26060801D01*
X24810001Y26060800D01*
X25809999Y26060800D01*
X25810000Y26060801D01*
X25810000Y26560799D01*
X26110000Y26560799D01*
X26110000Y26060801D01*
X26110001Y26060800D01*
X27109999Y26060800D01*
X27110000Y26060801D01*
X27110000Y26108624D01*
X27103598Y26168170D01*
X27103596Y26168181D01*
X27053353Y26302888D01*
X27053352Y26302890D01*
X26967192Y26417984D01*
X26967184Y26417992D01*
X26852090Y26504152D01*
X26852088Y26504153D01*
X26717381Y26554396D01*
X26717370Y26554398D01*
X26657824Y26560800D01*
X26110001Y26560800D01*
X26110000Y26560799D01*
X25810000Y26560799D01*
X25809999Y26560800D01*
X25262176Y26560800D01*
X25202629Y26554398D01*
X25202618Y26554396D01*
X25067911Y26504153D01*
X25067909Y26504152D01*
X24952815Y26417992D01*
X24952807Y26417984D01*
X24866647Y26302890D01*
X24866646Y26302888D01*
X24816403Y26168181D01*
X24816401Y26168170D01*
X24810000Y26108624D01*
X21942743Y26108624D01*
X20718367Y27333000D01*
X19315896Y28735472D01*
X27859500Y28735472D01*
X27859500Y26886127D01*
X27859501Y26886115D01*
X27874033Y26813063D01*
X27874035Y26813057D01*
X27929397Y26730200D01*
X27929400Y26730197D01*
X28012257Y26674835D01*
X28012263Y26674833D01*
X28085315Y26660301D01*
X28085325Y26660300D01*
X28085326Y26660300D01*
X28085327Y26660300D01*
X30334673Y26660300D01*
X30334674Y26660300D01*
X30334684Y26660301D01*
X30407736Y26674833D01*
X30407737Y26674833D01*
X30407740Y26674834D01*
X30407742Y26674835D01*
X30490599Y26730197D01*
X30490602Y26730200D01*
X30545964Y26813057D01*
X30545966Y26813060D01*
X30560500Y26886126D01*
X30560500Y28735474D01*
X30545966Y28808540D01*
X30490601Y28891401D01*
X30407740Y28946766D01*
X30334674Y28961300D01*
X28085326Y28961300D01*
X28085320Y28961298D01*
X28085315Y28961298D01*
X28067808Y28957815D01*
X28012260Y28946766D01*
X28012257Y28946764D01*
X27929400Y28891402D01*
X27929397Y28891399D01*
X27874035Y28808542D01*
X27874033Y28808536D01*
X27859501Y28735484D01*
X27859500Y28735472D01*
X19315896Y28735472D01*
X19071216Y28980152D01*
X18997529Y29029386D01*
X18948295Y29062284D01*
X18811713Y29118858D01*
X18666718Y29147700D01*
X16126717Y29147700D01*
X15978882Y29147700D01*
X15833887Y29118858D01*
X15697305Y29062284D01*
X15574384Y28980151D01*
X12066248Y25472016D01*
X12025396Y25410875D01*
X12025395Y25410873D01*
X12025394Y25410873D01*
X11984114Y25349092D01*
X11927542Y25212514D01*
X11898700Y25067518D01*
X11898700Y19909875D01*
X11879793Y19851684D01*
X11869704Y19839871D01*
X6732248Y14702416D01*
X6698987Y14652636D01*
X6698986Y14652634D01*
X6698985Y14652634D01*
X6650114Y14579492D01*
X6593542Y14442914D01*
X6564700Y14297918D01*
X6564700Y10795611D01*
X6545793Y10737420D01*
X6496293Y10701456D01*
X6435107Y10701456D01*
X6427817Y10704146D01*
X6422941Y10706164D01*
X6422940Y10706166D01*
X6349874Y10720700D01*
X5100526Y10720700D01*
X5100520Y10720698D01*
X5100515Y10720698D01*
X5083008Y10717215D01*
X5027460Y10706166D01*
X5027457Y10706164D01*
X4944600Y10650802D01*
X4944597Y10650799D01*
X4889235Y10567942D01*
X4889233Y10567936D01*
X4874701Y10494884D01*
X4874700Y10494872D01*
X4874700Y7945527D01*
X4874701Y7945515D01*
X4889233Y7872463D01*
X4889235Y7872457D01*
X4944597Y7789600D01*
X4944600Y7789597D01*
X5027457Y7734235D01*
X5027463Y7734233D01*
X5100515Y7719701D01*
X5100525Y7719700D01*
X5100526Y7719700D01*
X5100527Y7719700D01*
X6349873Y7719700D01*
X6349874Y7719700D01*
X6349884Y7719701D01*
X6422939Y7734233D01*
X6427823Y7736256D01*
X6488820Y7741050D01*
X6540986Y7709076D01*
X6564396Y7652546D01*
X6564700Y7644788D01*
X6564700Y6784081D01*
X6593542Y6639085D01*
X6650113Y6502509D01*
X6650116Y6502503D01*
X6665862Y6478940D01*
X6665863Y6478938D01*
X6732245Y6379587D01*
X7954960Y5156873D01*
X7954959Y5156872D01*
X8059493Y5052339D01*
X8182417Y4970204D01*
X8318996Y4913631D01*
X8463992Y4884789D01*
X8463993Y4884789D01*
X8540501Y4884789D01*
X8598692Y4865882D01*
X8634656Y4816382D01*
X8639501Y4785789D01*
X8639501Y4610616D01*
X8639502Y4610604D01*
X8654034Y4537552D01*
X8654036Y4537546D01*
X8709398Y4454689D01*
X8709401Y4454686D01*
X8792258Y4399324D01*
X8792264Y4399322D01*
X8865316Y4384790D01*
X8865326Y4384789D01*
X8865327Y4384789D01*
X8865328Y4384789D01*
X10914674Y4384789D01*
X10914675Y4384789D01*
X10914685Y4384790D01*
X10987737Y4399322D01*
X10987738Y4399322D01*
X10987741Y4399323D01*
X10987743Y4399324D01*
X11070600Y4454686D01*
X11070603Y4454689D01*
X11119415Y4527743D01*
X11125967Y4537549D01*
X11125968Y4537555D01*
X11126809Y4539584D01*
X11129190Y4542372D01*
X11131384Y4545656D01*
X11131772Y4545396D01*
X11166541Y4586114D01*
X11226035Y4600404D01*
X11282565Y4576995D01*
X11297529Y4561038D01*
X11322450Y4527748D01*
X11322459Y4527739D01*
X11437671Y4441491D01*
X11572512Y4391199D01*
X11572523Y4391197D01*
X11613210Y4386822D01*
X11632128Y4384789D01*
X11632129Y4384789D01*
X11632130Y4384789D01*
X13227867Y4384789D01*
X13227870Y4384789D01*
X13227873Y4384790D01*
X13242230Y4386333D01*
X13287481Y4391197D01*
X13287486Y4391198D01*
X13422330Y4441491D01*
X13537542Y4527739D01*
X13537543Y4527740D01*
X13537547Y4527743D01*
X13623797Y4642958D01*
X13628041Y4648627D01*
X13629266Y4647709D01*
X13667816Y4684115D01*
X13728497Y4691954D01*
X13782197Y4662629D01*
X13789103Y4654476D01*
X13875391Y4540689D01*
X13875396Y4540684D01*
X13994687Y4450222D01*
X14133960Y4395300D01*
X14221482Y4384789D01*
X14221485Y4384789D01*
X15718519Y4384789D01*
X15806041Y4395300D01*
X15923174Y4441491D01*
X15945315Y4450222D01*
X16064606Y4540684D01*
X16155068Y4659975D01*
X16155069Y4659977D01*
X16159159Y4665371D01*
X16160821Y4664109D01*
X16198711Y4699011D01*
X16259484Y4706097D01*
X16312816Y4676107D01*
X16320696Y4665260D01*
X16320843Y4665371D01*
X16324933Y4659977D01*
X16324934Y4659975D01*
X16396074Y4566164D01*
X16415396Y4540684D01*
X16534687Y4450222D01*
X16673960Y4395300D01*
X16761482Y4384789D01*
X16761485Y4384789D01*
X18258519Y4384789D01*
X18346041Y4395300D01*
X18463174Y4441491D01*
X18485315Y4450222D01*
X18604606Y4540684D01*
X18695068Y4659975D01*
X18695069Y4659977D01*
X18699159Y4665371D01*
X18700821Y4664109D01*
X18738711Y4699011D01*
X18799484Y4706097D01*
X18852816Y4676107D01*
X18860696Y4665260D01*
X18860843Y4665371D01*
X18864933Y4659977D01*
X18864934Y4659975D01*
X18936074Y4566164D01*
X18955396Y4540684D01*
X19074687Y4450222D01*
X19213960Y4395300D01*
X19301482Y4384789D01*
X19301485Y4384789D01*
X20798519Y4384789D01*
X20886041Y4395300D01*
X21003174Y4441491D01*
X21025315Y4450222D01*
X21144606Y4540684D01*
X21230898Y4654477D01*
X21281124Y4689418D01*
X21342297Y4688164D01*
X21391049Y4651193D01*
X21395845Y4643437D01*
X21482451Y4527747D01*
X21482459Y4527739D01*
X21597671Y4441491D01*
X21732512Y4391199D01*
X21732523Y4391197D01*
X21773210Y4386822D01*
X21792128Y4384789D01*
X21792129Y4384789D01*
X21792130Y4384789D01*
X23387867Y4384789D01*
X23387870Y4384789D01*
X23387873Y4384790D01*
X23402230Y4386333D01*
X23447481Y4391197D01*
X23447486Y4391198D01*
X23582330Y4441491D01*
X23697542Y4527739D01*
X23697543Y4527740D01*
X23697547Y4527743D01*
X23741244Y4586114D01*
X23780748Y4638884D01*
X23830757Y4674137D01*
X23891936Y4673263D01*
X23939254Y4638884D01*
X24022451Y4527747D01*
X24022459Y4527739D01*
X24137671Y4441491D01*
X24272512Y4391199D01*
X24272523Y4391197D01*
X24313210Y4386822D01*
X24332128Y4384789D01*
X24332129Y4384789D01*
X24332130Y4384789D01*
X25927867Y4384789D01*
X25927870Y4384789D01*
X25927873Y4384790D01*
X25942230Y4386333D01*
X25987481Y4391197D01*
X25987486Y4391198D01*
X26122330Y4441491D01*
X26237542Y4527739D01*
X26237543Y4527740D01*
X26237547Y4527743D01*
X26281244Y4586114D01*
X26320748Y4638884D01*
X26370757Y4674137D01*
X26431936Y4673263D01*
X26479254Y4638884D01*
X26562451Y4527747D01*
X26562459Y4527739D01*
X26677671Y4441491D01*
X26812512Y4391199D01*
X26812523Y4391197D01*
X26853210Y4386822D01*
X26872128Y4384789D01*
X26872129Y4384789D01*
X26872130Y4384789D01*
X28467867Y4384789D01*
X28467870Y4384789D01*
X28467873Y4384790D01*
X28482230Y4386333D01*
X28527481Y4391197D01*
X28527486Y4391198D01*
X28662330Y4441491D01*
X28777542Y4527739D01*
X28777543Y4527740D01*
X28777547Y4527743D01*
X28821244Y4586114D01*
X28860748Y4638884D01*
X28910757Y4674137D01*
X28971936Y4673263D01*
X29019254Y4638884D01*
X29102451Y4527747D01*
X29102459Y4527739D01*
X29217671Y4441491D01*
X29352512Y4391199D01*
X29352523Y4391197D01*
X29393210Y4386822D01*
X29412128Y4384789D01*
X29412129Y4384789D01*
X29412130Y4384789D01*
X31007867Y4384789D01*
X31007870Y4384789D01*
X31007873Y4384790D01*
X31022230Y4386333D01*
X31067481Y4391197D01*
X31067486Y4391198D01*
X31202330Y4441491D01*
X31317542Y4527739D01*
X31317543Y4527740D01*
X31317547Y4527743D01*
X31361244Y4586114D01*
X31400748Y4638884D01*
X31450757Y4674137D01*
X31511936Y4673263D01*
X31559254Y4638884D01*
X31642451Y4527747D01*
X31642459Y4527739D01*
X31757671Y4441491D01*
X31892512Y4391199D01*
X31892523Y4391197D01*
X31933210Y4386822D01*
X31952128Y4384789D01*
X31952129Y4384789D01*
X31952130Y4384789D01*
X33547867Y4384789D01*
X33547870Y4384789D01*
X33547873Y4384790D01*
X33562230Y4386333D01*
X33607481Y4391197D01*
X33607486Y4391198D01*
X33742330Y4441491D01*
X33857542Y4527739D01*
X33857543Y4527740D01*
X33857547Y4527743D01*
X33901244Y4586114D01*
X33940748Y4638884D01*
X33990757Y4674137D01*
X34051936Y4673263D01*
X34099254Y4638884D01*
X34182451Y4527747D01*
X34182459Y4527739D01*
X34297671Y4441491D01*
X34432512Y4391199D01*
X34432523Y4391197D01*
X34473210Y4386822D01*
X34492128Y4384789D01*
X34492129Y4384789D01*
X34492130Y4384789D01*
X36087867Y4384789D01*
X36087870Y4384789D01*
X36087873Y4384790D01*
X36102230Y4386333D01*
X36147481Y4391197D01*
X36147486Y4391198D01*
X36282330Y4441491D01*
X36397542Y4527739D01*
X36397543Y4527740D01*
X36397547Y4527743D01*
X36483797Y4642958D01*
X36488041Y4648627D01*
X36489266Y4647709D01*
X36527816Y4684115D01*
X36588497Y4691954D01*
X36642197Y4662629D01*
X36649103Y4654476D01*
X36735391Y4540689D01*
X36735396Y4540684D01*
X36854687Y4450222D01*
X36993960Y4395300D01*
X37081482Y4384789D01*
X37081485Y4384789D01*
X38578519Y4384789D01*
X38666041Y4395300D01*
X38783174Y4441491D01*
X38805315Y4450222D01*
X38924606Y4540684D01*
X39010898Y4654477D01*
X39061124Y4689418D01*
X39122297Y4688164D01*
X39171049Y4651193D01*
X39175845Y4643437D01*
X39262451Y4527747D01*
X39262459Y4527739D01*
X39377671Y4441491D01*
X39512512Y4391199D01*
X39512523Y4391197D01*
X39553210Y4386822D01*
X39572128Y4384789D01*
X39572129Y4384789D01*
X39572130Y4384789D01*
X41167867Y4384789D01*
X41167870Y4384789D01*
X41167873Y4384790D01*
X41182230Y4386333D01*
X41227481Y4391197D01*
X41227486Y4391198D01*
X41362330Y4441491D01*
X41477542Y4527739D01*
X41477543Y4527740D01*
X41477547Y4527743D01*
X41563797Y4642958D01*
X41568041Y4648627D01*
X41569266Y4647709D01*
X41607816Y4684115D01*
X41668497Y4691954D01*
X41722197Y4662629D01*
X41729103Y4654476D01*
X41815391Y4540689D01*
X41815396Y4540684D01*
X41934687Y4450222D01*
X42073960Y4395300D01*
X42161482Y4384789D01*
X42161485Y4384789D01*
X43658519Y4384789D01*
X43746041Y4395300D01*
X43863174Y4441491D01*
X43885315Y4450222D01*
X43935979Y4488642D01*
X43993770Y4508737D01*
X44052336Y4491026D01*
X44080057Y4461733D01*
X44107683Y4416946D01*
X44231658Y4292971D01*
X44308615Y4245504D01*
X44348216Y4198863D01*
X44352839Y4137852D01*
X44320718Y4085776D01*
X44264122Y4062526D01*
X44256642Y4062243D01*
X3388219Y4062243D01*
X3386968Y4062251D01*
X3385748Y4062266D01*
X3189865Y4064741D01*
X3180781Y4065274D01*
X2788082Y4106548D01*
X2777873Y4108164D01*
X2392244Y4190132D01*
X2382254Y4192810D01*
X2007332Y4314631D01*
X1997658Y4318344D01*
X1637531Y4478682D01*
X1628307Y4483381D01*
X1286888Y4680499D01*
X1278224Y4686126D01*
X959265Y4917862D01*
X951245Y4924358D01*
X658268Y5188156D01*
X650960Y5195464D01*
X387162Y5488441D01*
X380666Y5496461D01*
X148930Y5815420D01*
X143303Y5824084D01*
X-53814Y6165503D01*
X-58516Y6174732D01*
X-58941Y6175686D01*
X-124395Y6322700D01*
X-218851Y6534854D01*
X-222564Y6544528D01*
X-248974Y6625808D01*
X1161982Y6625808D01*
X1161982Y6410471D01*
X1201549Y6198803D01*
X1208386Y6181156D01*
X1279339Y5998005D01*
X1387017Y5824098D01*
X1392699Y5814921D01*
X1537775Y5655780D01*
X1709606Y5526021D01*
X1709621Y5526012D01*
X1902373Y5430033D01*
X1902375Y5430032D01*
X1902376Y5430032D01*
X2109492Y5371102D01*
X2323911Y5351233D01*
X2538330Y5371102D01*
X2745446Y5430032D01*
X2878888Y5496478D01*
X2938200Y5526012D01*
X2938208Y5526016D01*
X2938215Y5526021D01*
X3110046Y5655780D01*
X3110051Y5655785D01*
X3255123Y5814921D01*
X3368483Y5998005D01*
X3446272Y6198801D01*
X3485840Y6410471D01*
X3488324Y6518140D01*
X3485840Y6625809D01*
X3446272Y6837479D01*
X3368483Y7038275D01*
X3255123Y7221359D01*
X3110051Y7380495D01*
X2938208Y7510264D01*
X2745446Y7606248D01*
X2538330Y7665178D01*
X2323911Y7685047D01*
X2109492Y7665178D01*
X1902376Y7606248D01*
X1709614Y7510264D01*
X1709606Y7510258D01*
X1537775Y7380499D01*
X1537772Y7380495D01*
X1537771Y7380495D01*
X1392699Y7221359D01*
X1279339Y7038275D01*
X1220265Y6885788D01*
X1201549Y6837476D01*
X1183858Y6742834D01*
X1171208Y6675161D01*
X1161982Y6625808D01*
X-248974Y6625808D01*
X-344385Y6919450D01*
X-347068Y6929460D01*
X-429028Y7315056D01*
X-430649Y7325291D01*
X-471920Y7717971D01*
X-472454Y7727068D01*
X-474945Y7924163D01*
X-474953Y7925414D01*
X-474953Y12568743D01*
X3124700Y12568743D01*
X3124700Y12371656D01*
X3163149Y12178365D01*
X3163149Y12178363D01*
X3238567Y11996286D01*
X3348061Y11832418D01*
X3348064Y11832414D01*
X3487414Y11693064D01*
X3487418Y11693061D01*
X3651286Y11583567D01*
X3833364Y11508149D01*
X4026656Y11469700D01*
X4026659Y11469700D01*
X4223743Y11469700D01*
X4352603Y11495332D01*
X4417035Y11508149D01*
X4417036Y11508149D01*
X4599113Y11583567D01*
X4691802Y11645500D01*
X4762982Y11693061D01*
X4902339Y11832418D01*
X5011832Y11996286D01*
X5087251Y12178365D01*
X5125700Y12371659D01*
X5125700Y12568741D01*
X5087251Y12762035D01*
X5011832Y12944114D01*
X4902339Y13107982D01*
X4762982Y13247339D01*
X4599114Y13356832D01*
X4417035Y13432251D01*
X4223741Y13470700D01*
X4026659Y13470700D01*
X3833365Y13432251D01*
X3651286Y13356832D01*
X3487418Y13247339D01*
X3348061Y13107982D01*
X3274899Y12998488D01*
X3238567Y12944113D01*
X3190559Y12828210D01*
X3163149Y12762035D01*
X3158458Y12738450D01*
X3124700Y12568743D01*
X-474953Y12568743D01*
X-474953Y30171071D01*
X-474945Y30172322D01*
X-472454Y30369417D01*
X-471920Y30378514D01*
X-430648Y30771193D01*
X-429027Y30781428D01*
X-347066Y31167024D01*
X-344384Y31177034D01*
X-222564Y31551956D01*
X-218850Y31561630D01*
X-201750Y31600038D01*
X1234576Y31600038D01*
X1234576Y31388447D01*
X1273455Y31180461D01*
X1273456Y31180459D01*
X1349892Y30983156D01*
X1461280Y30803257D01*
X1461282Y30803254D01*
X1603830Y30646887D01*
X1772680Y30519378D01*
X1772689Y30519373D01*
X1962087Y30425064D01*
X1962089Y30425063D01*
X1962090Y30425063D01*
X2165604Y30367158D01*
X2376293Y30347635D01*
X2586982Y30367158D01*
X2790496Y30425063D01*
X2979904Y30519377D01*
X3148758Y30646889D01*
X3291306Y30803257D01*
X3402694Y30983156D01*
X3479130Y31180459D01*
X3518010Y31388447D01*
X3520450Y31494243D01*
X3518010Y31600039D01*
X3479130Y31808027D01*
X3402694Y32005330D01*
X3291306Y32185229D01*
X3148758Y32341597D01*
X2979904Y32469109D01*
X2790496Y32563423D01*
X2586982Y32621328D01*
X2376293Y32640851D01*
X2165604Y32621328D01*
X1962090Y32563423D01*
X1772682Y32469109D01*
X1603828Y32341597D01*
X1461280Y32185229D01*
X1349892Y32005330D01*
X1317514Y31921752D01*
X1273455Y31808024D01*
X1234576Y31600038D01*
X-201750Y31600038D01*
X-58514Y31921752D01*
X-53810Y31930985D01*
X92977Y32185229D01*
X143300Y32272391D01*
X148941Y32281077D01*
X380660Y32600012D01*
X387172Y32608051D01*
X650952Y32901010D01*
X658279Y32908337D01*
X686885Y32934094D01*
X951235Y33172116D01*
X959284Y33178634D01*
X1278212Y33410348D01*
X1286903Y33415992D01*
X1628304Y33613099D01*
X1637537Y33617803D01*
X1997659Y33778140D01*
X2007333Y33781854D01*
X2382255Y33903674D01*
X2392265Y33906356D01*
X2777861Y33988317D01*
X2788096Y33989938D01*
X3180775Y34031210D01*
X3189872Y34031744D01*
X3386968Y34034235D01*
X3388219Y34034243D01*
X33429000Y34034243D01*
X33487191Y34015336D01*
G37*
%TD.AperFunction*%
%TA.AperFunction,Conductor*%
G36*
X29754515Y24173393D02*
G01*
X29766328Y24163304D01*
X32240504Y21689128D01*
X32268281Y21634611D01*
X32269500Y21619124D01*
X32269500Y14404082D01*
X32277706Y14362829D01*
X32298342Y14259085D01*
X32354914Y14122508D01*
X32364274Y14108500D01*
X32437045Y13999587D01*
X35564605Y10872028D01*
X35581957Y10860435D01*
X35687524Y10789897D01*
X35731868Y10771530D01*
X35731869Y10771530D01*
X35824105Y10733323D01*
X35920987Y10714052D01*
X35940258Y10710219D01*
X35940258Y10710218D01*
X35969092Y10704483D01*
X35969099Y10704483D01*
X35969100Y10704483D01*
X36116935Y10704483D01*
X37173257Y10704483D01*
X37231448Y10685576D01*
X37252510Y10664812D01*
X37292450Y10611458D01*
X37292458Y10611450D01*
X37407670Y10525202D01*
X37542511Y10474910D01*
X37542522Y10474908D01*
X37583209Y10470533D01*
X37602127Y10468500D01*
X37602128Y10468500D01*
X37602129Y10468500D01*
X38597866Y10468500D01*
X38597869Y10468500D01*
X38597872Y10468501D01*
X38612229Y10470044D01*
X38657480Y10474908D01*
X38657485Y10474909D01*
X38792329Y10525202D01*
X38907541Y10611450D01*
X38907542Y10611451D01*
X38907546Y10611454D01*
X38947490Y10664812D01*
X38997499Y10700065D01*
X39026743Y10704483D01*
X39078257Y10704483D01*
X39136448Y10685576D01*
X39157510Y10664812D01*
X39197450Y10611458D01*
X39197458Y10611450D01*
X39312670Y10525202D01*
X39447511Y10474910D01*
X39447522Y10474908D01*
X39488209Y10470533D01*
X39507127Y10468500D01*
X39507128Y10468500D01*
X39507129Y10468500D01*
X40502866Y10468500D01*
X40502869Y10468500D01*
X40502872Y10468501D01*
X40517229Y10470044D01*
X40562480Y10474908D01*
X40562485Y10474909D01*
X40697329Y10525202D01*
X40812541Y10611450D01*
X40812542Y10611451D01*
X40812546Y10611454D01*
X40852490Y10664812D01*
X40902499Y10700065D01*
X40931743Y10704483D01*
X41895231Y10704483D01*
X41953422Y10685576D01*
X41989386Y10636076D01*
X41989386Y10574890D01*
X41987798Y10570378D01*
X41971315Y10526915D01*
X41959164Y10494874D01*
X41958764Y10493820D01*
X41958762Y10493816D01*
X41939722Y10337001D01*
X41939722Y10336998D01*
X41958762Y10180183D01*
X41958763Y10180182D01*
X42014780Y10032476D01*
X42104515Y9902471D01*
X42222758Y9797718D01*
X42362635Y9724303D01*
X42516012Y9686500D01*
X42579401Y9686500D01*
X42637592Y9667593D01*
X42673556Y9618093D01*
X42677679Y9599433D01*
X42690336Y9495183D01*
X42690337Y9495182D01*
X42746354Y9347476D01*
X42836089Y9217471D01*
X42954332Y9112718D01*
X43094209Y9039303D01*
X43247586Y9001500D01*
X43247589Y9001500D01*
X43405561Y9001500D01*
X43558938Y9039303D01*
X43649497Y9086833D01*
X43698814Y9112717D01*
X43817057Y9217470D01*
X43906794Y9347477D01*
X43922771Y9389606D01*
X43961085Y9437311D01*
X44015338Y9453500D01*
X46428100Y9453500D01*
X46486291Y9434593D01*
X46522255Y9385093D01*
X46527100Y9354500D01*
X46527100Y8493733D01*
X46527100Y8493729D01*
X46527101Y8493728D01*
X46527697Y8488186D01*
X46533508Y8434119D01*
X46533509Y8434114D01*
X46583802Y8299270D01*
X46670050Y8184058D01*
X46670058Y8184050D01*
X46785270Y8097802D01*
X46920111Y8047510D01*
X46920122Y8047508D01*
X46960809Y8043133D01*
X46979727Y8041100D01*
X46979728Y8041100D01*
X46979729Y8041100D01*
X47775466Y8041100D01*
X47775469Y8041100D01*
X47775472Y8041101D01*
X47789829Y8042644D01*
X47835080Y8047508D01*
X47835085Y8047509D01*
X47969929Y8097802D01*
X48085141Y8184050D01*
X48085142Y8184051D01*
X48085146Y8184054D01*
X48171396Y8299269D01*
X48171397Y8299270D01*
X48221689Y8434111D01*
X48221690Y8434114D01*
X48221691Y8434117D01*
X48228100Y8493727D01*
X48228099Y9489472D01*
X48221691Y9549083D01*
X48195952Y9618093D01*
X48171397Y9683929D01*
X48169472Y9686500D01*
X48085146Y9799146D01*
X48082133Y9803171D01*
X48062396Y9861086D01*
X48080470Y9919541D01*
X48129451Y9956208D01*
X48161386Y9961500D01*
X48593814Y9961500D01*
X48652005Y9942593D01*
X48687969Y9893093D01*
X48687969Y9831907D01*
X48673067Y9803171D01*
X48583802Y9683929D01*
X48533510Y9549088D01*
X48533509Y9549083D01*
X48528387Y9501437D01*
X48527100Y9489470D01*
X48527100Y8493733D01*
X48527100Y8493729D01*
X48527101Y8493728D01*
X48527697Y8488186D01*
X48533508Y8434119D01*
X48533509Y8434114D01*
X48583802Y8299270D01*
X48670050Y8184058D01*
X48670059Y8184049D01*
X48713254Y8151713D01*
X48748506Y8101704D01*
X48747631Y8040525D01*
X48710963Y7991544D01*
X48688520Y7979703D01*
X48583670Y7940597D01*
X48516586Y7890378D01*
X48468454Y7854346D01*
X48468451Y7854342D01*
X48468450Y7854341D01*
X48382202Y7739129D01*
X48331910Y7604288D01*
X48331908Y7604277D01*
X48325500Y7544670D01*
X48325500Y6748933D01*
X48325501Y6748929D01*
X48331908Y6689319D01*
X48331909Y6689314D01*
X48382202Y6554470D01*
X48468450Y6439258D01*
X48468458Y6439250D01*
X48567476Y6365125D01*
X48602729Y6315116D01*
X48601855Y6253937D01*
X48565187Y6204956D01*
X48539288Y6191897D01*
X48506874Y6181156D01*
X48357659Y6089119D01*
X48233680Y5965140D01*
X48141643Y5815924D01*
X48086493Y5649493D01*
X48076000Y5546787D01*
X48076000Y5396801D01*
X48076001Y5396800D01*
X50475998Y5396800D01*
X50475999Y5396801D01*
X50475999Y5546786D01*
X50465507Y5649487D01*
X50465504Y5649499D01*
X50457650Y5673200D01*
X52003604Y5673200D01*
X52003799Y5670713D01*
X52003801Y5670706D01*
X52049619Y5512999D01*
X52049619Y5512998D01*
X52133214Y5371647D01*
X52249347Y5255514D01*
X52390699Y5171919D01*
X52548410Y5126099D01*
X52585263Y5123200D01*
X52988399Y5123200D01*
X52988400Y5123201D01*
X52988400Y5673199D01*
X53488400Y5673199D01*
X53488400Y5123201D01*
X53488401Y5123200D01*
X53891537Y5123200D01*
X53928389Y5126099D01*
X54086100Y5171919D01*
X54086101Y5171919D01*
X54227452Y5255514D01*
X54343585Y5371647D01*
X54427180Y5512998D01*
X54427180Y5512999D01*
X54472998Y5670706D01*
X54473000Y5670713D01*
X54473196Y5673200D01*
X53488401Y5673200D01*
X53488400Y5673199D01*
X52988400Y5673199D01*
X52988399Y5673200D01*
X52003604Y5673200D01*
X50457650Y5673200D01*
X50410356Y5815924D01*
X50318319Y5965140D01*
X50194340Y6089119D01*
X50045124Y6181156D01*
X50012712Y6191897D01*
X49963422Y6228148D01*
X49944854Y6286448D01*
X49964099Y6344528D01*
X49984523Y6365125D01*
X50083541Y6439250D01*
X50083542Y6439251D01*
X50083546Y6439254D01*
X50107557Y6471329D01*
X50169797Y6554470D01*
X50197749Y6629414D01*
X50235799Y6677329D01*
X50294746Y6693727D01*
X50352074Y6672346D01*
X50385885Y6621351D01*
X50388288Y6610304D01*
X50390252Y6597900D01*
X50390254Y6597895D01*
X50447849Y6484859D01*
X50537559Y6395149D01*
X50650595Y6337554D01*
X50650594Y6337554D01*
X50744378Y6322700D01*
X51914655Y6322700D01*
X51972846Y6303793D01*
X52008810Y6254293D01*
X52009724Y6196080D01*
X52003801Y6175693D01*
X52003799Y6175686D01*
X52003604Y6173200D01*
X54473196Y6173200D01*
X54473000Y6175686D01*
X54472999Y6175690D01*
X54446754Y6266026D01*
X54448676Y6327182D01*
X54486176Y6375528D01*
X54544932Y6392598D01*
X54602500Y6371873D01*
X54611827Y6363651D01*
X55313241Y5662238D01*
X55313240Y5662237D01*
X55383154Y5592324D01*
X55468774Y5542891D01*
X55468778Y5542889D01*
X55516528Y5530094D01*
X55516529Y5530095D01*
X55564280Y5517300D01*
X55564281Y5517300D01*
X57813000Y5517300D01*
X57871191Y5498393D01*
X57907155Y5448893D01*
X57912000Y5418300D01*
X57912000Y4161243D01*
X57893093Y4103052D01*
X57843593Y4067088D01*
X57813000Y4062243D01*
X50291111Y4062243D01*
X50232920Y4081150D01*
X50196956Y4130650D01*
X50196956Y4191836D01*
X50221107Y4231247D01*
X50318319Y4328459D01*
X50410356Y4477675D01*
X50465506Y4644106D01*
X50476000Y4746812D01*
X50476000Y4896799D01*
X50475999Y4896800D01*
X48076002Y4896800D01*
X48076001Y4896799D01*
X48076001Y4746813D01*
X48076000Y4746813D01*
X48086492Y4644112D01*
X48086495Y4644100D01*
X48141643Y4477675D01*
X48233680Y4328459D01*
X48330893Y4231247D01*
X48358670Y4176730D01*
X48349099Y4116298D01*
X48305834Y4073033D01*
X48260889Y4062243D01*
X46643360Y4062243D01*
X46585169Y4081150D01*
X46549205Y4130650D01*
X46549205Y4191836D01*
X46585169Y4241336D01*
X46591387Y4245504D01*
X46668343Y4292971D01*
X46792320Y4416948D01*
X46884357Y4566164D01*
X46939507Y4732595D01*
X46950001Y4835301D01*
X46950001Y5385288D01*
X46950000Y5385289D01*
X45299001Y5385289D01*
X45240810Y5404196D01*
X45204846Y5453696D01*
X45200001Y5484289D01*
X45200001Y7135287D01*
X45700001Y7135287D01*
X45700001Y5885290D01*
X45700002Y5885289D01*
X46949999Y5885289D01*
X46950000Y5885290D01*
X46950000Y6435275D01*
X46939508Y6537976D01*
X46939505Y6537988D01*
X46884357Y6704413D01*
X46792320Y6853629D01*
X46668341Y6977608D01*
X46519125Y7069645D01*
X46352694Y7124795D01*
X46249988Y7135288D01*
X45700002Y7135288D01*
X45700001Y7135287D01*
X45200001Y7135287D01*
X45200000Y7135288D01*
X44650014Y7135288D01*
X44547313Y7124796D01*
X44547301Y7124793D01*
X44380876Y7069645D01*
X44231660Y6977608D01*
X44107680Y6853628D01*
X44080058Y6808846D01*
X44033417Y6769245D01*
X43972407Y6764622D01*
X43935980Y6781934D01*
X43885315Y6820356D01*
X43746041Y6875278D01*
X43658517Y6885789D01*
X43658515Y6885789D01*
X43608176Y6885789D01*
X43549985Y6904696D01*
X43514021Y6954196D01*
X43512365Y6999836D01*
X43510715Y7000037D01*
X43512323Y7013275D01*
X43525863Y7124793D01*
X43530478Y7162798D01*
X43530478Y7162801D01*
X43517438Y7270197D01*
X43511437Y7319618D01*
X43455420Y7467323D01*
X43365683Y7597330D01*
X43247440Y7702083D01*
X43107565Y7775496D01*
X42954185Y7813300D01*
X42796215Y7813300D01*
X42642835Y7775496D01*
X42502960Y7702083D01*
X42392566Y7604283D01*
X42384715Y7597328D01*
X42308907Y7487500D01*
X42294980Y7467323D01*
X42241115Y7325291D01*
X42238963Y7319617D01*
X42238962Y7319616D01*
X42219922Y7162801D01*
X42219922Y7162798D01*
X42224537Y7124793D01*
X42238077Y7013275D01*
X42239685Y7000037D01*
X42238219Y6999859D01*
X42234294Y6945890D01*
X42194834Y6899130D01*
X42154413Y6884939D01*
X42073961Y6875278D01*
X41934687Y6820356D01*
X41815396Y6729894D01*
X41815393Y6729890D01*
X41815392Y6729889D01*
X41729103Y6616101D01*
X41678877Y6581159D01*
X41617704Y6582413D01*
X41568952Y6619384D01*
X41564150Y6627148D01*
X41555214Y6639085D01*
X41477547Y6742835D01*
X41362332Y6829085D01*
X41362330Y6829085D01*
X41362330Y6829086D01*
X41274306Y6861916D01*
X41227484Y6879380D01*
X41224925Y6879655D01*
X41223371Y6880351D01*
X41221452Y6880805D01*
X41221538Y6881172D01*
X41169089Y6904668D01*
X41138617Y6957725D01*
X41136500Y6978088D01*
X41136500Y7262116D01*
X41136500Y7262118D01*
X41107658Y7407113D01*
X41051084Y7543695D01*
X40968951Y7666616D01*
X40864416Y7771151D01*
X40741495Y7853284D01*
X40604913Y7909858D01*
X40459918Y7938700D01*
X40312082Y7938700D01*
X40167087Y7909858D01*
X40030505Y7853284D01*
X39907584Y7771151D01*
X39803049Y7666616D01*
X39721566Y7544667D01*
X39720915Y7543693D01*
X39664342Y7407114D01*
X39635500Y7262118D01*
X39635500Y6981528D01*
X39616593Y6923337D01*
X39567093Y6887373D01*
X39547082Y6883095D01*
X39512518Y6879380D01*
X39512515Y6879379D01*
X39377671Y6829086D01*
X39270594Y6748928D01*
X39262455Y6742835D01*
X39262452Y6742831D01*
X39262451Y6742830D01*
X39171961Y6621951D01*
X39170736Y6622867D01*
X39132179Y6586459D01*
X39071497Y6578624D01*
X39017799Y6607953D01*
X39010905Y6616091D01*
X38924606Y6729894D01*
X38805315Y6820356D01*
X38666041Y6875278D01*
X38578517Y6885789D01*
X38578515Y6885789D01*
X37151546Y6885789D01*
X37093355Y6904696D01*
X37081542Y6914785D01*
X36775564Y7220763D01*
X36775565Y7220763D01*
X36703939Y7262116D01*
X36689939Y7270199D01*
X36642187Y7282994D01*
X36594437Y7295789D01*
X34781374Y7295789D01*
X34723183Y7314696D01*
X34711370Y7324785D01*
X34088497Y7947658D01*
X34060720Y8002175D01*
X34059501Y8017662D01*
X34059501Y10125258D01*
X34059501Y10125262D01*
X34058376Y10129458D01*
X34058377Y10129475D01*
X34058372Y10129474D01*
X34044785Y10180182D01*
X34044785Y10180183D01*
X34033911Y10220765D01*
X33984476Y10306389D01*
X33914563Y10376302D01*
X30579696Y13711169D01*
X30551919Y13765686D01*
X30550700Y13781173D01*
X30550700Y21642972D01*
X30546528Y21658540D01*
X30545317Y21663060D01*
X30537260Y21693130D01*
X30525110Y21738475D01*
X30475675Y21824099D01*
X30405762Y21894012D01*
X29724300Y22575474D01*
X29724301Y22575474D01*
X29638678Y22624908D01*
X29638675Y22624910D01*
X29590923Y22637705D01*
X29543173Y22650500D01*
X29483545Y22650500D01*
X29425354Y22669407D01*
X29413541Y22679496D01*
X28069741Y24023296D01*
X28041964Y24077813D01*
X28051535Y24138245D01*
X28094800Y24181510D01*
X28139745Y24192300D01*
X29696324Y24192300D01*
X29754515Y24173393D01*
G37*
%TD.AperFunction*%
%TA.AperFunction,Conductor*%
G36*
X31095318Y10392265D02*
G01*
X31107131Y10382176D01*
X31935505Y9553802D01*
X31963282Y9499285D01*
X31964501Y9483798D01*
X31964501Y8660546D01*
X31945594Y8602355D01*
X31935505Y8590542D01*
X30259747Y6914784D01*
X30205230Y6887007D01*
X30189743Y6885788D01*
X29412129Y6885788D01*
X29352518Y6879380D01*
X29352515Y6879379D01*
X29217671Y6829086D01*
X29110594Y6748928D01*
X29102455Y6742835D01*
X29102452Y6742831D01*
X29102451Y6742830D01*
X29019254Y6631693D01*
X28969245Y6596440D01*
X28908066Y6597314D01*
X28860748Y6631693D01*
X28826585Y6677329D01*
X28777547Y6742835D01*
X28662332Y6829085D01*
X28662330Y6829085D01*
X28662330Y6829086D01*
X28574306Y6861916D01*
X28527484Y6879380D01*
X28467874Y6885789D01*
X26991545Y6885788D01*
X26933355Y6904695D01*
X26921548Y6914778D01*
X26423853Y7412474D01*
X26423852Y7412475D01*
X26338228Y7461910D01*
X26278519Y7477909D01*
X26242726Y7487500D01*
X26242725Y7487500D01*
X24429663Y7487500D01*
X24371472Y7506407D01*
X24359659Y7516496D01*
X23709833Y8166322D01*
X23709834Y8166322D01*
X23642237Y8205349D01*
X23624208Y8215758D01*
X23576456Y8228553D01*
X23528706Y8241348D01*
X22636434Y8241348D01*
X22578243Y8260255D01*
X22566431Y8270344D01*
X22440275Y8396499D01*
X22395452Y8441322D01*
X22395451Y8441323D01*
X22333859Y8476883D01*
X22309831Y8490756D01*
X22309830Y8490756D01*
X22309827Y8490758D01*
X22242729Y8508737D01*
X22214325Y8516348D01*
X22057695Y8516348D01*
X21999504Y8535255D01*
X21987692Y8545344D01*
X21905745Y8627291D01*
X21630908Y8902126D01*
X21603132Y8956641D01*
X21602635Y8984057D01*
X21610278Y9046999D01*
X21591237Y9203817D01*
X21584192Y9222394D01*
X21581237Y9283508D01*
X21614768Y9334688D01*
X21671977Y9356383D01*
X21676759Y9356499D01*
X27053437Y9356499D01*
X27101183Y9369293D01*
X27101184Y9369293D01*
X27148933Y9382087D01*
X27148940Y9382090D01*
X27234560Y9431523D01*
X27304475Y9501437D01*
X27690497Y9887458D01*
X27745013Y9915235D01*
X27805445Y9905664D01*
X27848710Y9862399D01*
X27859500Y9817454D01*
X27859500Y8586127D01*
X27859501Y8586115D01*
X27874033Y8513063D01*
X27874035Y8513057D01*
X27929397Y8430200D01*
X27929400Y8430197D01*
X28012257Y8374835D01*
X28012263Y8374833D01*
X28085315Y8360301D01*
X28085325Y8360300D01*
X28085326Y8360300D01*
X28085327Y8360300D01*
X30334673Y8360300D01*
X30334674Y8360300D01*
X30334684Y8360301D01*
X30407736Y8374833D01*
X30407737Y8374833D01*
X30407740Y8374834D01*
X30407742Y8374835D01*
X30490599Y8430197D01*
X30490602Y8430200D01*
X30545964Y8513057D01*
X30545966Y8513060D01*
X30557113Y8569100D01*
X30560498Y8586115D01*
X30560500Y8586127D01*
X30560500Y10312172D01*
X30579407Y10370363D01*
X30628907Y10406327D01*
X30659500Y10411172D01*
X31037127Y10411172D01*
X31095318Y10392265D01*
G37*
%TD.AperFunction*%
%TA.AperFunction,Conductor*%
G36*
X15382945Y12723165D02*
G01*
X15426210Y12679900D01*
X15437000Y12634955D01*
X15437000Y12411013D01*
X15447492Y12308312D01*
X15447495Y12308300D01*
X15502643Y12141875D01*
X15594680Y11992659D01*
X15718659Y11868680D01*
X15867875Y11776642D01*
X15900290Y11765901D01*
X15949579Y11729648D01*
X15968145Y11671348D01*
X15948898Y11613269D01*
X15928476Y11592674D01*
X15829454Y11518546D01*
X15829451Y11518542D01*
X15829450Y11518541D01*
X15743202Y11403329D01*
X15692910Y11268488D01*
X15692908Y11268477D01*
X15686500Y11208870D01*
X15686500Y10413133D01*
X15686501Y10413129D01*
X15692908Y10353519D01*
X15692909Y10353514D01*
X15743202Y10218670D01*
X15829450Y10103458D01*
X15829458Y10103450D01*
X15944670Y10017202D01*
X16079511Y9966910D01*
X16079522Y9966908D01*
X16120209Y9962533D01*
X16139127Y9960500D01*
X16139128Y9960500D01*
X16139129Y9960500D01*
X17134866Y9960500D01*
X17134869Y9960500D01*
X17134872Y9960501D01*
X17149229Y9962044D01*
X17194480Y9966908D01*
X17194485Y9966909D01*
X17329329Y10017202D01*
X17444541Y10103450D01*
X17444542Y10103451D01*
X17444546Y10103454D01*
X17447574Y10107499D01*
X17530797Y10218670D01*
X17557258Y10289617D01*
X17595308Y10337532D01*
X17654255Y10353930D01*
X17711583Y10332549D01*
X17742774Y10289617D01*
X17775202Y10202670D01*
X17861450Y10087458D01*
X17861458Y10087450D01*
X17976669Y10001203D01*
X18088157Y9959621D01*
X18136071Y9921570D01*
X18152469Y9862623D01*
X18131087Y9805296D01*
X18080092Y9771485D01*
X18077318Y9770756D01*
X18048642Y9763689D01*
X17908767Y9690276D01*
X17806226Y9599433D01*
X17790521Y9585520D01*
X17773235Y9560476D01*
X17724619Y9523326D01*
X17717403Y9521093D01*
X17642056Y9500904D01*
X17642053Y9500902D01*
X17642052Y9500902D01*
X17556435Y9451471D01*
X17556434Y9451470D01*
X17556431Y9451468D01*
X16581846Y8476883D01*
X15621459Y7516496D01*
X15566942Y7488719D01*
X15551455Y7487500D01*
X13956148Y7487500D01*
X13857276Y7487500D01*
X13761775Y7461911D01*
X13676149Y7412475D01*
X13412179Y7148504D01*
X13178459Y6914784D01*
X13123942Y6887007D01*
X13108455Y6885788D01*
X11632129Y6885788D01*
X11572518Y6879380D01*
X11572515Y6879379D01*
X11437671Y6829086D01*
X11330594Y6748928D01*
X11322455Y6742835D01*
X11322452Y6742831D01*
X11322451Y6742830D01*
X11297530Y6709540D01*
X11247521Y6674287D01*
X11186342Y6675161D01*
X11137361Y6711829D01*
X11126808Y6730995D01*
X11125968Y6733020D01*
X11125967Y6733029D01*
X11070602Y6815890D01*
X10987741Y6871255D01*
X10914675Y6885789D01*
X8865327Y6885789D01*
X8865322Y6885788D01*
X8865316Y6885787D01*
X8847809Y6882304D01*
X8792261Y6871255D01*
X8792258Y6871253D01*
X8709401Y6815891D01*
X8709396Y6815886D01*
X8659973Y6741917D01*
X8611924Y6704036D01*
X8550786Y6701634D01*
X8507653Y6726914D01*
X8094696Y7139872D01*
X8066919Y7194388D01*
X8065700Y7209875D01*
X8065700Y7620700D01*
X8084607Y7678891D01*
X8134107Y7714855D01*
X8164700Y7719700D01*
X9349873Y7719700D01*
X9349874Y7719700D01*
X9349884Y7719701D01*
X9422936Y7734233D01*
X9422937Y7734233D01*
X9422940Y7734234D01*
X9422942Y7734235D01*
X9505799Y7789597D01*
X9505802Y7789600D01*
X9561164Y7872457D01*
X9561166Y7872460D01*
X9574342Y7938700D01*
X9575698Y7945515D01*
X9575700Y7945527D01*
X9575700Y8569100D01*
X9594607Y8627291D01*
X9644107Y8663255D01*
X9674700Y8668100D01*
X9982038Y8668100D01*
X10029784Y8680894D01*
X10029785Y8680894D01*
X10077534Y8693688D01*
X10077541Y8693691D01*
X10163161Y8743124D01*
X10233075Y8813037D01*
X10233075Y8813038D01*
X11705696Y10285659D01*
X11760213Y10313436D01*
X11820645Y10303865D01*
X11863910Y10260600D01*
X11874700Y10215655D01*
X11874700Y7945527D01*
X11874701Y7945515D01*
X11889233Y7872463D01*
X11889235Y7872457D01*
X11944597Y7789600D01*
X11944600Y7789597D01*
X12027457Y7734235D01*
X12027463Y7734233D01*
X12100515Y7719701D01*
X12100525Y7719700D01*
X12100526Y7719700D01*
X12100527Y7719700D01*
X13349873Y7719700D01*
X13349874Y7719700D01*
X13349884Y7719701D01*
X13422936Y7734233D01*
X13422937Y7734233D01*
X13422940Y7734234D01*
X13422942Y7734235D01*
X13505799Y7789597D01*
X13505802Y7789600D01*
X13561164Y7872457D01*
X13561166Y7872460D01*
X13574342Y7938700D01*
X13575698Y7945515D01*
X13575700Y7945527D01*
X13575700Y10494872D01*
X13575698Y10494884D01*
X13564436Y10551500D01*
X13561166Y10567940D01*
X13505801Y10650801D01*
X13451759Y10686910D01*
X13431085Y10700724D01*
X13393205Y10748773D01*
X13390802Y10809911D01*
X13416081Y10853044D01*
X15267996Y12704959D01*
X15322513Y12732736D01*
X15382945Y12723165D01*
G37*
%TD.AperFunction*%
%TA.AperFunction,Conductor*%
G36*
X18299115Y27627793D02*
G01*
X18310928Y27617704D01*
X18807628Y27121003D01*
X18835405Y27066486D01*
X18825834Y27006054D01*
X18807628Y26980995D01*
X18688328Y26861695D01*
X18633811Y26833918D01*
X18618324Y26832699D01*
X18228928Y26832699D01*
X18169317Y26826291D01*
X18169314Y26826290D01*
X18034470Y26775997D01*
X17938062Y26703826D01*
X17919254Y26689746D01*
X17919251Y26689742D01*
X17919250Y26689741D01*
X17833002Y26574529D01*
X17800801Y26488191D01*
X17762751Y26440276D01*
X17703804Y26423878D01*
X17646476Y26445259D01*
X17614068Y26491647D01*
X17561156Y26651324D01*
X17469119Y26800540D01*
X17345140Y26924519D01*
X17195924Y27016556D01*
X17029493Y27071706D01*
X16926786Y27082199D01*
X16876800Y27082198D01*
X16876800Y25093201D01*
X16898604Y25071397D01*
X16926381Y25016880D01*
X16927600Y25001393D01*
X16927600Y23674200D01*
X16908693Y23616009D01*
X16859193Y23580045D01*
X16828600Y23575200D01*
X15677602Y23575200D01*
X15677601Y23575199D01*
X15677601Y23300213D01*
X15677600Y23300213D01*
X15688092Y23197512D01*
X15688095Y23197500D01*
X15743241Y23031080D01*
X15743244Y23031073D01*
X15746810Y23025293D01*
X15761264Y22965839D01*
X15738011Y22909244D01*
X15732551Y22903320D01*
X15626438Y22797207D01*
X15626437Y22797207D01*
X15556524Y22727293D01*
X15516830Y22658540D01*
X15507090Y22641670D01*
X15502599Y22624908D01*
X15495406Y22598062D01*
X15495405Y22598060D01*
X15483587Y22553954D01*
X15483585Y22553949D01*
X15481500Y22546169D01*
X15481500Y22546167D01*
X15481500Y20461965D01*
X15492076Y20422495D01*
X15507091Y20366457D01*
X15556525Y20280837D01*
X15556525Y20280836D01*
X15556526Y20280837D01*
X15727704Y20109657D01*
X15755481Y20055142D01*
X15756700Y20039655D01*
X15756700Y19263333D01*
X15756701Y19263329D01*
X15763108Y19203719D01*
X15763109Y19203714D01*
X15813402Y19068870D01*
X15899650Y18953658D01*
X15899656Y18953652D01*
X15927234Y18933007D01*
X15962486Y18882998D01*
X15961610Y18821819D01*
X15924942Y18772838D01*
X15918298Y18768541D01*
X15779545Y18686483D01*
X15663414Y18570352D01*
X15579819Y18429001D01*
X15579819Y18429000D01*
X15534001Y18271293D01*
X15533999Y18271286D01*
X15533804Y18268800D01*
X16919600Y18268800D01*
X16977791Y18249893D01*
X17013755Y18200393D01*
X17018600Y18169800D01*
X17018600Y17218801D01*
X17018601Y17218800D01*
X17421737Y17218800D01*
X17458589Y17221699D01*
X17528980Y17242150D01*
X17590135Y17240228D01*
X17638481Y17202727D01*
X17655600Y17147081D01*
X17655600Y16887279D01*
X17655601Y16887276D01*
X17670452Y16793500D01*
X17670453Y16793497D01*
X17694111Y16747066D01*
X17703682Y16686633D01*
X17675904Y16632117D01*
X17621387Y16604340D01*
X17560956Y16613911D01*
X17481404Y16654446D01*
X17387619Y16669300D01*
X16149582Y16669299D01*
X16149578Y16669299D01*
X16055800Y16654447D01*
X16055798Y16654446D01*
X16055796Y16654446D01*
X15942758Y16596850D01*
X15853050Y16507142D01*
X15853049Y16507140D01*
X15795454Y16394104D01*
X15780600Y16300322D01*
X15780600Y15937279D01*
X15780601Y15937276D01*
X15795452Y15843500D01*
X15795454Y15843495D01*
X15853049Y15730459D01*
X15942759Y15640749D01*
X16055795Y15583154D01*
X16055794Y15583154D01*
X16149578Y15568300D01*
X16149581Y15568300D01*
X16747054Y15568300D01*
X16805245Y15549393D01*
X16817058Y15539304D01*
X18264504Y14091858D01*
X18292281Y14037341D01*
X18293500Y14021854D01*
X18293500Y13744499D01*
X18274593Y13686308D01*
X18225093Y13650344D01*
X18194500Y13645499D01*
X18171128Y13645499D01*
X18111517Y13639091D01*
X18111514Y13639090D01*
X17976670Y13588797D01*
X17877076Y13514241D01*
X17819161Y13494504D01*
X17760706Y13512578D01*
X17733486Y13541522D01*
X17679319Y13629340D01*
X17555340Y13753319D01*
X17406124Y13845356D01*
X17239693Y13900506D01*
X17136986Y13910999D01*
X16887001Y13910999D01*
X16887000Y13910998D01*
X16887000Y12660000D01*
X16868093Y12601809D01*
X16818593Y12565845D01*
X16788000Y12561000D01*
X16486000Y12561000D01*
X16427809Y12579907D01*
X16391845Y12629407D01*
X16387000Y12660000D01*
X16387000Y13910998D01*
X16386999Y13910999D01*
X16137013Y13910999D01*
X16034312Y13900507D01*
X16034299Y13900504D01*
X16029642Y13898961D01*
X15968458Y13898603D01*
X15918749Y13934277D01*
X15899502Y13992356D01*
X15899500Y13992935D01*
X15899500Y14201048D01*
X15918407Y14259239D01*
X15932851Y14275151D01*
X16000528Y14335107D01*
X16014483Y14347470D01*
X16027619Y14366500D01*
X16084537Y14448961D01*
X16104220Y14477477D01*
X16160237Y14625182D01*
X16173708Y14736127D01*
X16179278Y14781998D01*
X16179278Y14782001D01*
X16160237Y14938816D01*
X16160237Y14938818D01*
X16104220Y15086523D01*
X16014483Y15216530D01*
X15896240Y15321283D01*
X15756365Y15394696D01*
X15602985Y15432500D01*
X15445015Y15432500D01*
X15291635Y15394696D01*
X15151760Y15321283D01*
X15151758Y15321281D01*
X15089849Y15266435D01*
X15033755Y15242000D01*
X14974011Y15255203D01*
X14933438Y15301001D01*
X14925200Y15340538D01*
X14925200Y15470199D01*
X14925199Y15470200D01*
X14075201Y15470200D01*
X14075200Y15470199D01*
X14075200Y14124417D01*
X14057676Y14068181D01*
X14024780Y14020523D01*
X13980394Y13903485D01*
X13968763Y13872817D01*
X13968762Y13872816D01*
X13949722Y13716001D01*
X13949722Y13715997D01*
X13957363Y13653062D01*
X13945607Y13593017D01*
X13929089Y13571126D01*
X9806059Y9448096D01*
X9751542Y9420319D01*
X9736055Y9419100D01*
X9674700Y9419100D01*
X9616509Y9438007D01*
X9580545Y9487507D01*
X9575700Y9518100D01*
X9575700Y10494872D01*
X9575698Y10494884D01*
X9564436Y10551500D01*
X9561166Y10567940D01*
X9505801Y10650801D01*
X9422940Y10706166D01*
X9349874Y10720700D01*
X8164700Y10720700D01*
X8106509Y10739607D01*
X8070545Y10789107D01*
X8065700Y10819700D01*
X8065700Y12568743D01*
X10124700Y12568743D01*
X10124700Y12371656D01*
X10163149Y12178365D01*
X10163149Y12178363D01*
X10238567Y11996286D01*
X10348061Y11832418D01*
X10348064Y11832414D01*
X10487414Y11693064D01*
X10487418Y11693061D01*
X10651286Y11583567D01*
X10833364Y11508149D01*
X11026656Y11469700D01*
X11026659Y11469700D01*
X11223743Y11469700D01*
X11352603Y11495332D01*
X11417035Y11508149D01*
X11417036Y11508149D01*
X11599113Y11583567D01*
X11691802Y11645500D01*
X11762982Y11693061D01*
X11902339Y11832418D01*
X12011832Y11996286D01*
X12087251Y12178365D01*
X12125700Y12371659D01*
X12125700Y12568741D01*
X12087251Y12762035D01*
X12011832Y12944114D01*
X11902339Y13107982D01*
X11762982Y13247339D01*
X11599114Y13356832D01*
X11417035Y13432251D01*
X11223741Y13470700D01*
X11026659Y13470700D01*
X10833365Y13432251D01*
X10651286Y13356832D01*
X10487418Y13247339D01*
X10348061Y13107982D01*
X10274899Y12998488D01*
X10238567Y12944113D01*
X10190559Y12828210D01*
X10163149Y12762035D01*
X10158458Y12738450D01*
X10124700Y12568743D01*
X8065700Y12568743D01*
X8065700Y13872124D01*
X8084607Y13930315D01*
X8094696Y13942128D01*
X8574943Y14422375D01*
X12725199Y14422375D01*
X12731601Y14362829D01*
X12731603Y14362818D01*
X12781846Y14228111D01*
X12781847Y14228109D01*
X12868007Y14113015D01*
X12868015Y14113007D01*
X12983109Y14026847D01*
X12983111Y14026846D01*
X13117818Y13976603D01*
X13117829Y13976601D01*
X13177376Y13970200D01*
X13575199Y13970200D01*
X13575200Y13970201D01*
X13575200Y15470199D01*
X13575199Y15470200D01*
X12725201Y15470200D01*
X12725200Y15470199D01*
X12725200Y14422375D01*
X12725199Y14422375D01*
X8574943Y14422375D01*
X11170591Y17018024D01*
X12725200Y17018024D01*
X12725200Y15970201D01*
X12725201Y15970200D01*
X13575199Y15970200D01*
X13575200Y15970201D01*
X13575200Y17470199D01*
X14075200Y17470199D01*
X14075200Y15970201D01*
X14075201Y15970200D01*
X14925199Y15970200D01*
X14925200Y15970201D01*
X14925200Y17018024D01*
X14918798Y17077570D01*
X14918796Y17077581D01*
X14868553Y17212288D01*
X14868552Y17212290D01*
X14782392Y17327384D01*
X14782384Y17327392D01*
X14667290Y17413552D01*
X14667288Y17413553D01*
X14532581Y17463796D01*
X14532570Y17463798D01*
X14473024Y17470200D01*
X14075201Y17470200D01*
X14075200Y17470199D01*
X13575200Y17470199D01*
X13575199Y17470200D01*
X13177376Y17470200D01*
X13117829Y17463798D01*
X13117818Y17463796D01*
X12983111Y17413553D01*
X12983109Y17413552D01*
X12868015Y17327392D01*
X12868007Y17327384D01*
X12781847Y17212290D01*
X12781846Y17212288D01*
X12731603Y17077581D01*
X12731601Y17077570D01*
X12725200Y17018024D01*
X11170591Y17018024D01*
X11921367Y17768800D01*
X15533804Y17768800D01*
X15533999Y17766313D01*
X15534001Y17766306D01*
X15579819Y17608599D01*
X15579819Y17608598D01*
X15663414Y17467247D01*
X15779547Y17351114D01*
X15920899Y17267519D01*
X16078610Y17221699D01*
X16115463Y17218800D01*
X16518599Y17218800D01*
X16518600Y17218801D01*
X16518600Y17768799D01*
X16518599Y17768800D01*
X15533804Y17768800D01*
X11921367Y17768800D01*
X13232147Y19079580D01*
X13232151Y19079584D01*
X13263484Y19126477D01*
X13314284Y19202505D01*
X13370858Y19339087D01*
X13399700Y19484082D01*
X13399700Y24641724D01*
X13418607Y24699915D01*
X13428696Y24711728D01*
X14049181Y25332213D01*
X15626800Y25332213D01*
X15637292Y25229512D01*
X15637295Y25229500D01*
X15692443Y25063075D01*
X15784480Y24913859D01*
X15815988Y24882351D01*
X15843764Y24827834D01*
X15834192Y24767402D01*
X15830244Y24760376D01*
X15743243Y24619324D01*
X15688093Y24452893D01*
X15677600Y24350187D01*
X15677600Y24075201D01*
X15677601Y24075200D01*
X16427599Y24075200D01*
X16427600Y24075201D01*
X16427600Y24589199D01*
X16405796Y24611003D01*
X16378019Y24665520D01*
X16376800Y24681007D01*
X16376800Y25607199D01*
X16376799Y25607200D01*
X15626802Y25607200D01*
X15626801Y25607199D01*
X15626801Y25332213D01*
X15626800Y25332213D01*
X14049181Y25332213D01*
X15615297Y26898329D01*
X15669814Y26926106D01*
X15730246Y26916535D01*
X15773511Y26873270D01*
X15783082Y26812838D01*
X15769562Y26776352D01*
X15692442Y26651322D01*
X15637293Y26484893D01*
X15626800Y26382187D01*
X15626800Y26107201D01*
X15626801Y26107200D01*
X16376799Y26107200D01*
X16376800Y26107201D01*
X16376800Y27082198D01*
X16376799Y27082199D01*
X16326813Y27082199D01*
X16224112Y27071707D01*
X16224100Y27071704D01*
X16057674Y27016556D01*
X15932647Y26939438D01*
X15873194Y26924981D01*
X15816598Y26948231D01*
X15784477Y27000307D01*
X15789100Y27061317D01*
X15810670Y27093702D01*
X16334671Y27617704D01*
X16389188Y27645481D01*
X16404675Y27646700D01*
X18240924Y27646700D01*
X18299115Y27627793D01*
G37*
%TD.AperFunction*%
%TA.AperFunction,Conductor*%
G36*
X28863817Y22166318D02*
G01*
X28871828Y22159134D01*
X29056437Y21974525D01*
X29056442Y21974521D01*
X29142059Y21925090D01*
X29142057Y21925090D01*
X29185516Y21913446D01*
X29237564Y21899500D01*
X29237565Y21899500D01*
X29297192Y21899500D01*
X29355383Y21880593D01*
X29367196Y21870504D01*
X29770704Y21466996D01*
X29798481Y21412479D01*
X29799700Y21396992D01*
X29799700Y13535190D01*
X29803736Y13520129D01*
X29803905Y13519500D01*
X29805212Y13514623D01*
X29825291Y13439686D01*
X29872854Y13357307D01*
X29874724Y13354067D01*
X30746287Y12482504D01*
X30774064Y12427987D01*
X30764493Y12367555D01*
X30721228Y12324290D01*
X30676283Y12313500D01*
X27989436Y12313500D01*
X27890564Y12313500D01*
X27842813Y12300705D01*
X27842812Y12300705D01*
X27795062Y12287910D01*
X27795058Y12287908D01*
X27709436Y12238474D01*
X27709437Y12238474D01*
X27222181Y11751218D01*
X27167664Y11723441D01*
X27107232Y11733012D01*
X27063967Y11776277D01*
X27059418Y11786627D01*
X27053352Y11802891D01*
X26967192Y11917984D01*
X26967185Y11917991D01*
X26900172Y11968157D01*
X26864918Y12018166D01*
X26860500Y12047411D01*
X26860500Y12085472D01*
X26860500Y12085474D01*
X26849358Y12141487D01*
X26849358Y12180113D01*
X26860500Y12236126D01*
X26860500Y12585474D01*
X26849358Y12641487D01*
X26849358Y12680113D01*
X26860500Y12736126D01*
X26860500Y13085474D01*
X26849358Y13141487D01*
X26849358Y13180113D01*
X26860500Y13236126D01*
X26860500Y13274187D01*
X26879407Y13332378D01*
X26900170Y13353440D01*
X26967187Y13403610D01*
X26967192Y13403615D01*
X27053352Y13518709D01*
X27053353Y13518711D01*
X27103596Y13653418D01*
X27103598Y13653429D01*
X27110000Y13712975D01*
X27110000Y13760799D01*
X27109999Y13760800D01*
X26791599Y13760800D01*
X26736598Y13777484D01*
X26729555Y13782190D01*
X26707740Y13796766D01*
X26634674Y13811300D01*
X25285326Y13811300D01*
X25285320Y13811298D01*
X25285315Y13811298D01*
X25267808Y13807815D01*
X25212260Y13796766D01*
X25212257Y13796764D01*
X25183402Y13777484D01*
X25128401Y13760800D01*
X24810001Y13760800D01*
X24810000Y13760799D01*
X24810000Y13712975D01*
X24809999Y13712975D01*
X24816401Y13653429D01*
X24816403Y13653418D01*
X24866646Y13518711D01*
X24866647Y13518709D01*
X24952807Y13403615D01*
X24952812Y13403610D01*
X25019830Y13353440D01*
X25055082Y13303430D01*
X25059500Y13274187D01*
X25059500Y13236120D01*
X25070641Y13180113D01*
X25070641Y13141487D01*
X25059500Y13085479D01*
X25059500Y12736120D01*
X25070641Y12680113D01*
X25070641Y12641487D01*
X25059500Y12585479D01*
X25059500Y12236120D01*
X25070641Y12180113D01*
X25070641Y12141487D01*
X25059500Y12085479D01*
X25059500Y12047411D01*
X25040593Y11989220D01*
X25019828Y11968157D01*
X24952814Y11917991D01*
X24952807Y11917984D01*
X24866647Y11802890D01*
X24866646Y11802888D01*
X24816403Y11668181D01*
X24816401Y11668170D01*
X24810000Y11608624D01*
X24810000Y11560801D01*
X24810001Y11560800D01*
X25128401Y11560800D01*
X25183402Y11544116D01*
X25212257Y11524835D01*
X25212263Y11524833D01*
X25285315Y11510301D01*
X25285325Y11510300D01*
X25285326Y11510300D01*
X25285327Y11510300D01*
X26011000Y11510300D01*
X26069191Y11491393D01*
X26105155Y11441893D01*
X26110000Y11411300D01*
X26110000Y11401500D01*
X26091093Y11343309D01*
X26041593Y11307345D01*
X26011000Y11302500D01*
X23764108Y11302500D01*
X23705917Y11321407D01*
X23671350Y11366901D01*
X23651796Y11419331D01*
X23565546Y11534546D01*
X23450331Y11620796D01*
X23450329Y11620796D01*
X23450329Y11620797D01*
X23358381Y11655091D01*
X23315483Y11671091D01*
X23255873Y11677500D01*
X22210128Y11677499D01*
X22150517Y11671091D01*
X22150514Y11671090D01*
X22015670Y11620797D01*
X21961438Y11580199D01*
X21900454Y11534546D01*
X21900451Y11534542D01*
X21900450Y11534541D01*
X21814202Y11419329D01*
X21809758Y11407412D01*
X21771708Y11359497D01*
X21712761Y11343099D01*
X21655434Y11364480D01*
X21624242Y11407412D01*
X21619797Y11419329D01*
X21602906Y11441893D01*
X21533546Y11534546D01*
X21418331Y11620796D01*
X21418329Y11620796D01*
X21418329Y11620797D01*
X21326381Y11655091D01*
X21283483Y11671091D01*
X21223873Y11677500D01*
X20178128Y11677499D01*
X20118517Y11671091D01*
X20118514Y11671090D01*
X19983670Y11620797D01*
X19929438Y11580199D01*
X19868454Y11534546D01*
X19868451Y11534542D01*
X19868450Y11534541D01*
X19782202Y11419329D01*
X19759290Y11357897D01*
X19721240Y11309982D01*
X19662293Y11293584D01*
X19604965Y11314966D01*
X19573774Y11357897D01*
X19562796Y11387331D01*
X19476546Y11502546D01*
X19361331Y11588796D01*
X19361329Y11588796D01*
X19361329Y11588797D01*
X19226488Y11639089D01*
X19226483Y11639091D01*
X19166873Y11645500D01*
X18289543Y11645499D01*
X18231353Y11664406D01*
X18195389Y11713906D01*
X18195389Y11775092D01*
X18219540Y11814503D01*
X18320541Y11915504D01*
X18375058Y11943281D01*
X18390545Y11944500D01*
X19166866Y11944500D01*
X19166869Y11944500D01*
X19166872Y11944501D01*
X19181229Y11946044D01*
X19226480Y11950908D01*
X19226485Y11950909D01*
X19361329Y12001202D01*
X19476541Y12087450D01*
X19476542Y12087451D01*
X19476546Y12087454D01*
X19510793Y12133202D01*
X19562797Y12202670D01*
X19594589Y12287910D01*
X19605336Y12316727D01*
X19643386Y12364641D01*
X19702333Y12381039D01*
X19759660Y12359658D01*
X19776717Y12339407D01*
X19777960Y12340338D01*
X19868450Y12219458D01*
X19868458Y12219450D01*
X19983670Y12133202D01*
X20118511Y12082910D01*
X20118522Y12082908D01*
X20159209Y12078533D01*
X20178127Y12076500D01*
X20178128Y12076500D01*
X20178129Y12076500D01*
X21223866Y12076500D01*
X21223869Y12076500D01*
X21223872Y12076501D01*
X21238229Y12078044D01*
X21283480Y12082908D01*
X21283485Y12082909D01*
X21418329Y12133202D01*
X21533541Y12219450D01*
X21533542Y12219451D01*
X21533546Y12219454D01*
X21619796Y12334669D01*
X21621563Y12339407D01*
X21624242Y12346588D01*
X21662293Y12394503D01*
X21721240Y12410900D01*
X21778568Y12389518D01*
X21809758Y12346588D01*
X21814203Y12334669D01*
X21900450Y12219458D01*
X21900458Y12219450D01*
X22015670Y12133202D01*
X22150511Y12082910D01*
X22150522Y12082908D01*
X22191209Y12078533D01*
X22210127Y12076500D01*
X22210128Y12076500D01*
X22210129Y12076500D01*
X23255866Y12076500D01*
X23255869Y12076500D01*
X23255872Y12076501D01*
X23270229Y12078044D01*
X23315480Y12082908D01*
X23315485Y12082909D01*
X23450329Y12133202D01*
X23565541Y12219450D01*
X23565542Y12219451D01*
X23565546Y12219454D01*
X23583756Y12243779D01*
X23651797Y12334670D01*
X23702089Y12469511D01*
X23702089Y12469512D01*
X23702091Y12469517D01*
X23708500Y12529127D01*
X23708499Y13124872D01*
X23702091Y13184483D01*
X23651796Y13319331D01*
X23565546Y13434546D01*
X23450331Y13520796D01*
X23450329Y13520796D01*
X23450329Y13520797D01*
X23315488Y13571089D01*
X23315483Y13571091D01*
X23255873Y13577500D01*
X22554543Y13577499D01*
X22496353Y13596406D01*
X22484546Y13606489D01*
X21940706Y14150329D01*
X21912931Y14204844D01*
X21912434Y14208398D01*
X21911608Y14215200D01*
X21903177Y14284642D01*
X21847160Y14432347D01*
X21757423Y14562354D01*
X21639180Y14667107D01*
X21499305Y14740520D01*
X21345925Y14778324D01*
X21187955Y14778324D01*
X21034575Y14740520D01*
X20894700Y14667107D01*
X20795806Y14579495D01*
X20776454Y14562351D01*
X20772483Y14557869D01*
X20771382Y14558843D01*
X20728375Y14525981D01*
X20667207Y14524503D01*
X20649523Y14531702D01*
X20552365Y14582696D01*
X20398985Y14620500D01*
X20241015Y14620500D01*
X20087635Y14582696D01*
X19947760Y14509283D01*
X19844712Y14417991D01*
X19829515Y14404528D01*
X19740213Y14275151D01*
X19739780Y14274523D01*
X19689401Y14141682D01*
X19683763Y14126817D01*
X19683762Y14126816D01*
X19664722Y13970001D01*
X19664722Y13969998D01*
X19683762Y13813183D01*
X19683763Y13813182D01*
X19739780Y13665476D01*
X19829517Y13535469D01*
X19829522Y13535463D01*
X19830130Y13534925D01*
X19830387Y13534487D01*
X19833485Y13530991D01*
X19832799Y13530383D01*
X19861139Y13482179D01*
X19855222Y13421280D01*
X19843720Y13401506D01*
X19782204Y13319331D01*
X19777940Y13307898D01*
X19739890Y13259983D01*
X19680943Y13243584D01*
X19623615Y13264965D01*
X19592423Y13307897D01*
X19562797Y13387329D01*
X19562796Y13387331D01*
X19476546Y13502546D01*
X19361331Y13588796D01*
X19361329Y13588796D01*
X19361329Y13588797D01*
X19226488Y13639089D01*
X19226483Y13639091D01*
X19166873Y13645500D01*
X19143501Y13645499D01*
X19085312Y13664404D01*
X19049347Y13713903D01*
X19044500Y13744499D01*
X19044500Y14267834D01*
X19044158Y14269109D01*
X19044151Y14269136D01*
X19031705Y14315586D01*
X19023162Y14347470D01*
X19018910Y14363338D01*
X18969475Y14448962D01*
X18899562Y14518875D01*
X17736300Y15682135D01*
X17708525Y15736650D01*
X17718095Y15797079D01*
X17741746Y15843496D01*
X17756600Y15937281D01*
X17756599Y16300318D01*
X17749172Y16347211D01*
X17741747Y16394099D01*
X17741747Y16394101D01*
X17741746Y16394102D01*
X17741746Y16394104D01*
X17718088Y16440534D01*
X17708517Y16500963D01*
X17736293Y16555480D01*
X17790809Y16583259D01*
X17851242Y16573688D01*
X17851243Y16573688D01*
X17930796Y16533154D01*
X18024578Y16518300D01*
X18024581Y16518300D01*
X19262621Y16518300D01*
X19262623Y16518301D01*
X19356399Y16533152D01*
X19356404Y16533154D01*
X19469440Y16590749D01*
X19469442Y16590750D01*
X19493424Y16614732D01*
X19547939Y16642508D01*
X19608371Y16632937D01*
X19633429Y16614731D01*
X20567924Y15680238D01*
X20637838Y15610324D01*
X20723458Y15560891D01*
X20723462Y15560889D01*
X20740094Y15556432D01*
X20740095Y15556433D01*
X20766369Y15549393D01*
X20818964Y15535300D01*
X20818965Y15535300D01*
X24960500Y15535300D01*
X25018691Y15516393D01*
X25054655Y15466893D01*
X25059500Y15436300D01*
X25059500Y15236120D01*
X25070641Y15180113D01*
X25070641Y15141487D01*
X25059500Y15085479D01*
X25059500Y14736120D01*
X25070641Y14680113D01*
X25070641Y14641487D01*
X25059500Y14585479D01*
X25059500Y14547411D01*
X25040593Y14489220D01*
X25019828Y14468157D01*
X24952814Y14417991D01*
X24952807Y14417984D01*
X24866647Y14302890D01*
X24866646Y14302888D01*
X24816403Y14168181D01*
X24816401Y14168170D01*
X24810000Y14108624D01*
X24810000Y14060801D01*
X24810001Y14060800D01*
X25128401Y14060800D01*
X25183402Y14044116D01*
X25212257Y14024835D01*
X25212263Y14024833D01*
X25285315Y14010301D01*
X25285325Y14010300D01*
X25285326Y14010300D01*
X25285327Y14010300D01*
X26634673Y14010300D01*
X26634674Y14010300D01*
X26634684Y14010301D01*
X26707736Y14024833D01*
X26707737Y14024833D01*
X26707740Y14024834D01*
X26707742Y14024835D01*
X26736598Y14044116D01*
X26791599Y14060800D01*
X27109999Y14060800D01*
X27110000Y14060801D01*
X27110000Y14108624D01*
X27103598Y14168170D01*
X27103596Y14168181D01*
X27053353Y14302888D01*
X27053352Y14302890D01*
X26967192Y14417984D01*
X26967185Y14417991D01*
X26900172Y14468157D01*
X26864918Y14518166D01*
X26860500Y14547411D01*
X26860500Y14585472D01*
X26860499Y14585479D01*
X26853533Y14620499D01*
X26849358Y14641487D01*
X26849358Y14680113D01*
X26860500Y14736126D01*
X26860500Y15085474D01*
X26849358Y15141487D01*
X26849358Y15180113D01*
X26860500Y15236126D01*
X26860500Y15585474D01*
X26849358Y15641487D01*
X26849358Y15680112D01*
X26860500Y15736126D01*
X26860500Y16085474D01*
X26849358Y16141487D01*
X26849358Y16180112D01*
X26860500Y16236126D01*
X26860500Y16436300D01*
X26879407Y16494491D01*
X26928907Y16530455D01*
X26959500Y16535300D01*
X27374238Y16535300D01*
X27421984Y16548094D01*
X27421985Y16548094D01*
X27469734Y16560888D01*
X27469741Y16560891D01*
X27555361Y16610324D01*
X27625275Y16680237D01*
X27625275Y16680238D01*
X28367700Y17422663D01*
X28367700Y17422662D01*
X28367701Y17422663D01*
X28417134Y17508284D01*
X28417134Y17508285D01*
X28417136Y17508288D01*
X28440253Y17594562D01*
X28442257Y17602038D01*
X28442726Y17603789D01*
X28442726Y17890046D01*
X28461633Y17948237D01*
X28476077Y17964149D01*
X28557710Y18036469D01*
X28620608Y18127593D01*
X28647446Y18166475D01*
X28703463Y18314180D01*
X28709810Y18366452D01*
X28722504Y18470996D01*
X28722504Y18470999D01*
X28703463Y18627814D01*
X28703463Y18627816D01*
X28647446Y18775521D01*
X28564782Y18895281D01*
X28547286Y18953911D01*
X28564781Y19007757D01*
X28585037Y19037103D01*
X28646727Y19126477D01*
X28702744Y19274182D01*
X28721785Y19431000D01*
X28702744Y19587818D01*
X28646727Y19735523D01*
X28556990Y19865530D01*
X28553588Y19870459D01*
X28556013Y19872132D01*
X28536259Y19917349D01*
X28549399Y19977107D01*
X28553311Y19983247D01*
X28556567Y19987964D01*
X28646304Y20117971D01*
X28702321Y20265676D01*
X28721362Y20422494D01*
X28717593Y20453531D01*
X28704569Y20560800D01*
X28702321Y20579312D01*
X28646304Y20727017D01*
X28559647Y20852561D01*
X28542152Y20911190D01*
X28559647Y20965036D01*
X28577854Y20991413D01*
X28644614Y21088132D01*
X28700631Y21235837D01*
X28719672Y21392655D01*
X28719145Y21396992D01*
X28700631Y21549471D01*
X28700631Y21549473D01*
X28644614Y21697178D01*
X28579469Y21791557D01*
X28561974Y21850185D01*
X28582282Y21907902D01*
X28586846Y21913446D01*
X28590410Y21917469D01*
X28595671Y21925090D01*
X28680148Y22047477D01*
X28709259Y22124237D01*
X28747572Y22171940D01*
X28806608Y22188014D01*
X28863817Y22166318D01*
G37*
%TD.AperFunction*%
%TA.AperFunction,Conductor*%
G36*
X25018691Y23516393D02*
G01*
X25054655Y23466893D01*
X25059500Y23436300D01*
X25059500Y23236120D01*
X25070641Y23180113D01*
X25070641Y23141487D01*
X25059500Y23085479D01*
X25059500Y22736120D01*
X25070641Y22680113D01*
X25070641Y22641487D01*
X25059500Y22585479D01*
X25059500Y22236120D01*
X25070641Y22180113D01*
X25070641Y22141487D01*
X25059500Y22085479D01*
X25059500Y21736120D01*
X25070641Y21680113D01*
X25070641Y21641487D01*
X25059500Y21585479D01*
X25059500Y21547411D01*
X25040593Y21489220D01*
X25019828Y21468157D01*
X24952814Y21417991D01*
X24952807Y21417984D01*
X24866647Y21302890D01*
X24866646Y21302888D01*
X24816403Y21168181D01*
X24816401Y21168170D01*
X24810000Y21108624D01*
X24810000Y21060801D01*
X24810001Y21060800D01*
X25128401Y21060800D01*
X25183402Y21044116D01*
X25212257Y21024835D01*
X25212263Y21024833D01*
X25285315Y21010301D01*
X25285325Y21010300D01*
X25285326Y21010300D01*
X26011000Y21010300D01*
X26069191Y20991393D01*
X26105155Y20941893D01*
X26110000Y20911300D01*
X26110000Y19560801D01*
X26110001Y19560800D01*
X27109999Y19560800D01*
X27110000Y19560801D01*
X27110000Y19608627D01*
X27109858Y19611275D01*
X27110994Y19611335D01*
X27122711Y19667163D01*
X27168075Y19708222D01*
X27228908Y19714774D01*
X27278579Y19687889D01*
X27390596Y19575872D01*
X27418373Y19521355D01*
X27418870Y19493936D01*
X27411229Y19431002D01*
X27411229Y19430998D01*
X27430269Y19274183D01*
X27430270Y19274182D01*
X27486287Y19126476D01*
X27568951Y19006716D01*
X27586446Y18948085D01*
X27568951Y18894240D01*
X27554829Y18873780D01*
X27487006Y18775521D01*
X27439485Y18650216D01*
X27430989Y18627815D01*
X27430988Y18627814D01*
X27411948Y18470999D01*
X27411948Y18470996D01*
X27430988Y18314181D01*
X27430989Y18314180D01*
X27487006Y18166474D01*
X27576741Y18036469D01*
X27658375Y17964149D01*
X27689394Y17911409D01*
X27691726Y17890046D01*
X27691726Y17849771D01*
X27672819Y17791580D01*
X27662730Y17779767D01*
X27198259Y17315296D01*
X27143742Y17287519D01*
X27128255Y17286300D01*
X26752699Y17286300D01*
X26714815Y17293835D01*
X26707746Y17296761D01*
X26707740Y17296766D01*
X26634674Y17311300D01*
X25285326Y17311300D01*
X25285320Y17311298D01*
X25285315Y17311298D01*
X25267808Y17307815D01*
X25212260Y17296766D01*
X25212257Y17296764D01*
X25183402Y17277484D01*
X25128401Y17260800D01*
X24810001Y17260800D01*
X24810000Y17260799D01*
X24810000Y17212975D01*
X24809999Y17212975D01*
X24816401Y17153429D01*
X24816403Y17153418D01*
X24866646Y17018711D01*
X24866647Y17018709D01*
X24922104Y16944629D01*
X24941841Y16886714D01*
X24923767Y16828259D01*
X24874786Y16791592D01*
X24842851Y16786300D01*
X21548945Y16786300D01*
X21490754Y16805207D01*
X21478941Y16815296D01*
X20966845Y17327392D01*
X20533438Y17760799D01*
X24810000Y17760799D01*
X24810000Y17712973D01*
X24814471Y17671381D01*
X24814471Y17650219D01*
X24810000Y17608626D01*
X24810000Y17560801D01*
X24810001Y17560800D01*
X25809999Y17560800D01*
X25810000Y17560801D01*
X25810000Y17760799D01*
X26110000Y17760799D01*
X26110000Y17560801D01*
X26110001Y17560800D01*
X27109999Y17560800D01*
X27110000Y17560801D01*
X27110000Y17608624D01*
X27105528Y17650216D01*
X27105528Y17671384D01*
X27110000Y17712975D01*
X27110000Y17760799D01*
X27109999Y17760800D01*
X26110001Y17760800D01*
X26110000Y17760799D01*
X25810000Y17760799D01*
X25809999Y17760800D01*
X24810001Y17760800D01*
X24810000Y17760799D01*
X20533438Y17760799D01*
X20033437Y18260799D01*
X24810000Y18260799D01*
X24810000Y18212973D01*
X24814471Y18171381D01*
X24814471Y18150219D01*
X24810000Y18108626D01*
X24810000Y18060801D01*
X24810001Y18060800D01*
X25809999Y18060800D01*
X25810000Y18060801D01*
X25810000Y18260799D01*
X26110000Y18260799D01*
X26110000Y18060801D01*
X26110001Y18060800D01*
X27109999Y18060800D01*
X27110000Y18060801D01*
X27110000Y18108624D01*
X27105528Y18150216D01*
X27105528Y18171384D01*
X27110000Y18212975D01*
X27110000Y18260799D01*
X27109999Y18260800D01*
X26110001Y18260800D01*
X26110000Y18260799D01*
X25810000Y18260799D01*
X25809999Y18260800D01*
X24810001Y18260800D01*
X24810000Y18260799D01*
X20033437Y18260799D01*
X19533436Y18760799D01*
X24810000Y18760799D01*
X24810000Y18712973D01*
X24814471Y18671381D01*
X24814471Y18650219D01*
X24810000Y18608626D01*
X24810000Y18560801D01*
X24810001Y18560800D01*
X25809999Y18560800D01*
X25810000Y18560801D01*
X25810000Y18760799D01*
X26110000Y18760799D01*
X26110000Y18560801D01*
X26110001Y18560800D01*
X27109999Y18560800D01*
X27110000Y18560801D01*
X27110000Y18608624D01*
X27105528Y18650216D01*
X27105528Y18671384D01*
X27110000Y18712975D01*
X27110000Y18760799D01*
X27109999Y18760800D01*
X26110001Y18760800D01*
X26110000Y18760799D01*
X25810000Y18760799D01*
X25809999Y18760800D01*
X24810001Y18760800D01*
X24810000Y18760799D01*
X19533436Y18760799D01*
X19386463Y18907772D01*
X19358688Y18962287D01*
X19368259Y19022719D01*
X19377216Y19037103D01*
X19400997Y19068870D01*
X19451289Y19203711D01*
X19451290Y19203714D01*
X19451291Y19203717D01*
X19457428Y19260799D01*
X24810000Y19260799D01*
X24810000Y19212973D01*
X24814471Y19171381D01*
X24814471Y19150219D01*
X24810000Y19108626D01*
X24810000Y19060801D01*
X24810001Y19060800D01*
X25809999Y19060800D01*
X25810000Y19060801D01*
X25810000Y19260799D01*
X26110000Y19260799D01*
X26110000Y19060801D01*
X26110001Y19060800D01*
X27109999Y19060800D01*
X27110000Y19060801D01*
X27110000Y19108624D01*
X27105528Y19150216D01*
X27105528Y19171384D01*
X27110000Y19212975D01*
X27110000Y19260799D01*
X27109999Y19260800D01*
X26110001Y19260800D01*
X26110000Y19260799D01*
X25810000Y19260799D01*
X25809999Y19260800D01*
X24810001Y19260800D01*
X24810000Y19260799D01*
X19457428Y19260799D01*
X19457700Y19263327D01*
X19457700Y19760799D01*
X24810000Y19760799D01*
X24810000Y19712973D01*
X24814471Y19671381D01*
X24814471Y19650219D01*
X24810000Y19608626D01*
X24810000Y19560801D01*
X24810001Y19560800D01*
X25809999Y19560800D01*
X25810000Y19560801D01*
X25810000Y19760799D01*
X25809999Y19760800D01*
X24810001Y19760800D01*
X24810000Y19760799D01*
X19457700Y19760799D01*
X19457699Y20259072D01*
X19457513Y20260799D01*
X24810000Y20260799D01*
X24810000Y20212973D01*
X24814471Y20171381D01*
X24814471Y20150219D01*
X24810000Y20108626D01*
X24810000Y20060801D01*
X24810001Y20060800D01*
X25809999Y20060800D01*
X25810000Y20060801D01*
X25810000Y20260799D01*
X25809999Y20260800D01*
X24810001Y20260800D01*
X24810000Y20260799D01*
X19457513Y20260799D01*
X19451291Y20318683D01*
X19400996Y20453531D01*
X19314746Y20568746D01*
X19199531Y20654996D01*
X19148542Y20674013D01*
X19102303Y20691260D01*
X19054389Y20729310D01*
X19044898Y20760799D01*
X24810000Y20760799D01*
X24810000Y20712973D01*
X24814471Y20671381D01*
X24814471Y20650219D01*
X24810000Y20608626D01*
X24810000Y20560801D01*
X24810001Y20560800D01*
X25809999Y20560800D01*
X25810000Y20560801D01*
X25810000Y20760799D01*
X25809999Y20760800D01*
X24810001Y20760800D01*
X24810000Y20760799D01*
X19044898Y20760799D01*
X19037900Y20784018D01*
X19037900Y20827519D01*
X19056807Y20885710D01*
X19077570Y20906772D01*
X19101510Y20924694D01*
X19149546Y20960654D01*
X19186712Y21010301D01*
X19235797Y21075870D01*
X19286089Y21210711D01*
X19286089Y21210712D01*
X19286091Y21210717D01*
X19292500Y21270327D01*
X19292499Y22316072D01*
X19286091Y22375683D01*
X19247919Y22478028D01*
X19235797Y22510529D01*
X19227583Y22521502D01*
X19149546Y22625746D01*
X19034331Y22711996D01*
X19034330Y22711996D01*
X19034328Y22711998D01*
X19028115Y22715391D01*
X19029647Y22718197D01*
X18992311Y22747832D01*
X18975898Y22806775D01*
X18997265Y22864108D01*
X19040212Y22895319D01*
X19069929Y22906402D01*
X19185141Y22992650D01*
X19185142Y22992651D01*
X19185146Y22992654D01*
X19185149Y22992658D01*
X19271397Y23107870D01*
X19321689Y23242711D01*
X19321689Y23242712D01*
X19321691Y23242717D01*
X19328100Y23302327D01*
X19328100Y23436300D01*
X19347007Y23494491D01*
X19396507Y23530455D01*
X19427100Y23535300D01*
X24960500Y23535300D01*
X25018691Y23516393D01*
G37*
%TD.AperFunction*%
%TA.AperFunction,Conductor*%
G36*
X19983944Y25937834D02*
G01*
X20009002Y25919628D01*
X21473329Y24455304D01*
X21501107Y24400787D01*
X21491536Y24340355D01*
X21448271Y24297090D01*
X21403326Y24286300D01*
X19423667Y24286300D01*
X19365476Y24305207D01*
X19329512Y24354707D01*
X19325234Y24374720D01*
X19321691Y24407680D01*
X19321691Y24407683D01*
X19271396Y24542531D01*
X19185146Y24657746D01*
X19069931Y24743996D01*
X19031321Y24758396D01*
X18983408Y24796445D01*
X18967009Y24855392D01*
X18988390Y24912720D01*
X19013615Y24933955D01*
X19013462Y24934160D01*
X19017039Y24936838D01*
X19018472Y24938044D01*
X19019131Y24938403D01*
X19134341Y25024650D01*
X19134342Y25024651D01*
X19134346Y25024654D01*
X19185660Y25093201D01*
X19220597Y25139870D01*
X19270889Y25274711D01*
X19270889Y25274712D01*
X19270891Y25274717D01*
X19272795Y25292432D01*
X19297812Y25348268D01*
X19301224Y25351856D01*
X19557254Y25607886D01*
X19868995Y25919628D01*
X19923512Y25947405D01*
X19983944Y25937834D01*
G37*
%TD.AperFunction*%
%TD*%
M02*
