%TF.GenerationSoftware,KiCad,Pcbnew,8.0.5-8.0.5-0~ubuntu22.04.1*%
%TF.CreationDate,2024-11-26T13:48:27+00:00*%
%TF.ProjectId,numcalcium,6e756d63-616c-4636-9975-6d2e6b696361,rev?*%
%TF.SameCoordinates,Original*%
%TF.FileFunction,Legend,Top*%
%TF.FilePolarity,Positive*%
%FSLAX46Y46*%
G04 Gerber Fmt 4.6, Leading zero omitted, Abs format (unit mm)*
G04 Created by KiCad (PCBNEW 8.0.5-8.0.5-0~ubuntu22.04.1) date 2024-11-26 13:48:27*
%MOMM*%
%LPD*%
G01*
G04 APERTURE LIST*
%ADD10C,0.211666*%
%ADD11C,0.150000*%
%ADD12C,0.350000*%
%ADD13C,0.400000*%
%ADD14C,0.250000*%
%ADD15C,0.120000*%
G04 APERTURE END LIST*
D10*
X64166750Y31046208D02*
X65241620Y31046208D01*
X65134456Y31852093D02*
X65146238Y31867086D01*
X66344089Y30709708D02*
X66370599Y30743442D01*
X65835860Y31440099D02*
X65847407Y31469386D01*
X65719001Y31257501D02*
X65739272Y31280902D01*
X65549026Y31124048D02*
X65576033Y31139577D01*
X65177182Y31915368D02*
X65185947Y31932481D01*
X65217020Y32024558D02*
X65220510Y32044102D01*
X65207240Y31986524D02*
X65212588Y32005357D01*
X65212588Y32005357D02*
X65217020Y32024558D01*
X65121982Y31837693D02*
X65134456Y31852093D01*
X66395495Y30778452D02*
X66418722Y30814682D01*
X65675249Y31213749D02*
X65697647Y31235103D01*
X65492651Y31096890D02*
X65521218Y31109805D01*
X65371593Y31059311D02*
X65402795Y31066513D01*
X65885702Y31657943D02*
X65886542Y31691130D01*
X65602200Y31156352D02*
X65627485Y31174333D01*
X65201001Y31968084D02*
X65207240Y31986524D01*
X65241620Y31046208D02*
X65274807Y31047048D01*
X66002615Y30454924D02*
X66042170Y30472807D01*
X64982689Y31738855D02*
X65000269Y31746803D01*
X64828208Y31707667D02*
X64848631Y31708183D01*
X66080673Y30492527D02*
X66118068Y30514028D01*
X65433398Y31075203D02*
X65463364Y31085343D01*
X65878198Y30412863D02*
X65920573Y30424896D01*
X66548000Y31277719D02*
X66548000Y32766000D01*
X65157303Y31882646D02*
X65167626Y31898748D01*
X65185947Y31932481D02*
X65193895Y31950061D01*
X65739272Y31280902D02*
X65758417Y31305265D01*
X65962064Y30438935D02*
X66002615Y30454924D01*
X65822945Y31411532D02*
X65835860Y31440099D01*
X66507854Y31012177D02*
X66519887Y31054552D01*
X65793173Y31356717D02*
X65808702Y31383724D01*
X66042170Y30472807D02*
X66080673Y30492527D01*
X66529858Y31097755D02*
X66537711Y31141729D01*
X64868786Y31709716D02*
X64888648Y31712240D01*
X66316023Y30677307D02*
X66344089Y30709708D01*
X65576033Y31139577D02*
X65602200Y31156352D01*
X66440223Y30852077D02*
X66459943Y30890580D01*
X65886542Y31691130D02*
X65886542Y32766000D01*
X65873439Y31561157D02*
X65879111Y31592916D01*
X64946226Y31725510D02*
X64964666Y31731749D01*
X66493815Y30970686D02*
X66507854Y31012177D01*
X65655031Y30384750D02*
X65700983Y30385912D01*
X66154298Y30537255D02*
X66189308Y30562151D01*
X64927393Y31720162D02*
X64946226Y31725510D01*
X65700983Y30385912D02*
X65746332Y30389360D01*
X64964666Y31731749D02*
X64982689Y31738855D01*
X65746332Y30389360D02*
X65791021Y30395039D01*
X65883212Y31625191D02*
X65885702Y31657943D01*
X64166750Y31707667D02*
X64828208Y31707667D01*
X66543390Y31186418D02*
X66546838Y31231767D01*
X66286455Y30646295D02*
X66316023Y30677307D01*
X66459943Y30890580D02*
X66477826Y30930135D01*
X65402795Y31066513D02*
X65433398Y31075203D01*
X65857547Y31499352D02*
X65866237Y31529955D01*
X65274807Y31047048D02*
X65307559Y31049538D01*
X66418722Y30814682D02*
X66440223Y30852077D01*
X66477826Y30930135D02*
X66493815Y30970686D01*
X65339834Y31053639D02*
X65371593Y31059311D01*
X65000269Y31746803D02*
X65017382Y31755568D01*
X66118068Y30514028D02*
X66154298Y30537255D01*
X65050104Y31775447D02*
X65065664Y31786512D01*
X65034002Y31765124D02*
X65050104Y31775447D01*
X65651848Y31193478D02*
X65675249Y31213749D01*
X65697647Y31235103D02*
X65719001Y31257501D01*
X65463364Y31085343D02*
X65492651Y31096890D01*
X66223042Y30588661D02*
X66255443Y30616727D01*
X65776398Y31330550D02*
X65793173Y31356717D01*
X65758417Y31305265D02*
X65776398Y31330550D01*
X64166750Y30384750D02*
X65655031Y30384750D01*
X65225083Y32104542D02*
X65225083Y32766000D01*
X65521218Y31109805D02*
X65549026Y31124048D01*
X65307559Y31049538D02*
X65339834Y31053639D01*
X66546838Y31231767D02*
X66548000Y31277719D01*
X66537711Y31141729D02*
X66543390Y31186418D01*
X64848631Y31708183D02*
X64868786Y31709716D01*
X66519887Y31054552D02*
X66529858Y31097755D01*
X65167626Y31898748D02*
X65177182Y31915368D01*
X65065664Y31786512D02*
X65080657Y31798294D01*
X66189308Y30562151D02*
X66223042Y30588661D01*
X65866237Y31529955D02*
X65873439Y31561157D01*
X64888648Y31712240D02*
X64908192Y31715730D01*
X65224567Y32084119D02*
X65225083Y32104542D01*
X65108841Y31823909D02*
X65121982Y31837693D01*
X65879111Y31592916D02*
X65883212Y31625191D01*
X65627485Y31174333D02*
X65651848Y31193478D01*
X65808702Y31383724D02*
X65822945Y31411532D01*
X65223034Y32063964D02*
X65224567Y32084119D01*
X66255443Y30616727D02*
X66286455Y30646295D01*
X65920573Y30424896D02*
X65962064Y30438935D01*
X65095057Y31810768D02*
X65108841Y31823909D01*
D11*
X7249601Y31448243D02*
X56906601Y31448243D01*
X56906601Y6429243D01*
X7249601Y6429243D01*
X7249601Y31448243D01*
D10*
X65834995Y30402892D02*
X65878198Y30412863D01*
X65225083Y32766000D02*
X65223034Y32063964D01*
X65847407Y31469386D02*
X65857547Y31499352D01*
X65146238Y31867086D02*
X65157303Y31882646D01*
X65193895Y31950061D02*
X65201001Y31968084D01*
X65791021Y30395039D02*
X65834995Y30402892D01*
X65017382Y31755568D02*
X65034002Y31765124D01*
X65080657Y31798294D02*
X65095057Y31810768D01*
X64908192Y31715730D02*
X64927393Y31720162D01*
X65220510Y32044102D02*
X65223034Y32063964D01*
X66370599Y30743442D02*
X66395495Y30778452D01*
D12*
G36*
X61962585Y7131622D02*
G01*
X62037678Y7122419D01*
X62116629Y7104387D01*
X62188254Y7078340D01*
X62205015Y7070577D01*
X62274602Y7030368D01*
X62334163Y6981872D01*
X62383696Y6925087D01*
X62406882Y6889959D01*
X62440353Y6821006D01*
X62462871Y6745214D01*
X62473690Y6672101D01*
X62476124Y6613720D01*
X62471408Y6536740D01*
X62457260Y6459397D01*
X62447548Y6423577D01*
X62421651Y6354609D01*
X62382898Y6285475D01*
X62357422Y6250653D01*
X62305061Y6196678D01*
X62240850Y6151254D01*
X62191459Y6125723D01*
X62122008Y6100800D01*
X62043254Y6085108D01*
X61964422Y6078878D01*
X61936470Y6078462D01*
X61718117Y6078462D01*
X61718117Y5589000D01*
X61413668Y5589000D01*
X61413668Y6374484D01*
X61718117Y6374484D01*
X61934272Y6374484D01*
X62008361Y6383009D01*
X62049676Y6398665D01*
X62109729Y6444049D01*
X62122217Y6459481D01*
X62156878Y6526119D01*
X62159952Y6536051D01*
X62171676Y6605294D01*
X62164348Y6667210D01*
X62138129Y6738500D01*
X62133940Y6745978D01*
X62083118Y6800548D01*
X62063598Y6813023D01*
X61991785Y6836636D01*
X61936470Y6840500D01*
X61718117Y6840500D01*
X61718117Y6374484D01*
X61413668Y6374484D01*
X61413668Y7134690D01*
X61881882Y7134690D01*
X61962585Y7131622D01*
G37*
G36*
X63830939Y6070036D02*
G01*
X63261976Y7134690D01*
X63637866Y7134690D01*
X64036836Y6332353D01*
X63946711Y6326124D01*
X64339453Y7134690D01*
X64715343Y7134690D01*
X64135388Y6070036D01*
X64135388Y5589000D01*
X63830939Y5589000D01*
X63830939Y6070036D01*
G37*
G36*
X66324048Y7166198D02*
G01*
X66296090Y7090174D01*
X66268132Y7014188D01*
X66240174Y6938241D01*
X66212216Y6862333D01*
X66184257Y6786463D01*
X66156299Y6710632D01*
X66128341Y6634840D01*
X66100383Y6559086D01*
X66072425Y6483371D01*
X66044467Y6407695D01*
X66025828Y6357265D01*
X65997870Y6281683D01*
X65969911Y6206063D01*
X65941953Y6130404D01*
X65913995Y6054706D01*
X65886037Y5978969D01*
X65858079Y5903194D01*
X65830121Y5827380D01*
X65802162Y5751528D01*
X65774204Y5675637D01*
X65746246Y5599707D01*
X65727607Y5549066D01*
X65462726Y5549066D01*
X65490684Y5625021D01*
X65518642Y5700938D01*
X65546600Y5776816D01*
X65574559Y5852656D01*
X65602517Y5928457D01*
X65630475Y6004219D01*
X65658433Y6079943D01*
X65686391Y6155628D01*
X65714350Y6231274D01*
X65742308Y6306882D01*
X65760946Y6357265D01*
X65788905Y6432916D01*
X65816863Y6508605D01*
X65844821Y6584333D01*
X65872779Y6660100D01*
X65900737Y6735905D01*
X65928696Y6811749D01*
X65956654Y6887631D01*
X65984612Y6963552D01*
X66012570Y7039512D01*
X66040528Y7115511D01*
X66059167Y7166198D01*
X66324048Y7166198D01*
G37*
G36*
X67017576Y5589000D02*
G01*
X67714767Y7195507D01*
X67731620Y7195507D01*
X68428811Y5589000D01*
X68076002Y5589000D01*
X67630870Y6718867D01*
X67851055Y6870175D01*
X67317628Y5589000D01*
X67017576Y5589000D01*
G37*
G36*
X67494216Y6147705D02*
G01*
X67958399Y6147705D01*
X68065378Y5891250D01*
X67399694Y5891250D01*
X67494216Y6147705D01*
G37*
G36*
X69867767Y6993922D02*
G01*
X69945494Y6979892D01*
X70019931Y6955905D01*
X70089945Y6921823D01*
X70153897Y6877005D01*
X70206777Y6826944D01*
X70253982Y6767940D01*
X70294389Y6699919D01*
X70324944Y6630992D01*
X70333905Y6606393D01*
X70356220Y6527642D01*
X70369924Y6451363D01*
X70377858Y6369178D01*
X70380067Y6292419D01*
X70377858Y6213181D01*
X70371232Y6138957D01*
X70358248Y6060268D01*
X70339495Y5988129D01*
X70333905Y5971117D01*
X70305099Y5899398D01*
X70266431Y5828888D01*
X70220750Y5768037D01*
X70205678Y5751665D01*
X70146739Y5698555D01*
X70082259Y5656094D01*
X70018832Y5626735D01*
X69945021Y5603999D01*
X69867660Y5590701D01*
X69794251Y5586801D01*
X69720699Y5590916D01*
X69642850Y5604946D01*
X69568204Y5628933D01*
X69498356Y5663180D01*
X69434395Y5707991D01*
X69381358Y5757893D01*
X69334346Y5816898D01*
X69294060Y5884919D01*
X69263554Y5953846D01*
X69254596Y5978445D01*
X69232282Y6057196D01*
X69218577Y6133474D01*
X69210643Y6215660D01*
X69208434Y6292419D01*
X69208488Y6294617D01*
X69525339Y6294617D01*
X69528067Y6217744D01*
X69537263Y6139511D01*
X69548420Y6084690D01*
X69573039Y6014300D01*
X69616020Y5949010D01*
X69630120Y5934481D01*
X69695078Y5894510D01*
X69767002Y5879664D01*
X69792053Y5878794D01*
X69869805Y5887984D01*
X69940436Y5921429D01*
X69955817Y5934481D01*
X70003468Y5995623D01*
X70032393Y6063069D01*
X70038982Y6086522D01*
X70053717Y6161999D01*
X70061249Y6236345D01*
X70063162Y6300845D01*
X70060305Y6377199D01*
X70050671Y6453680D01*
X70038982Y6506376D01*
X70011163Y6578474D01*
X69966571Y6640002D01*
X69955817Y6650357D01*
X69890639Y6689013D01*
X69817612Y6703371D01*
X69792053Y6704212D01*
X69715663Y6695203D01*
X69645553Y6662418D01*
X69630120Y6649624D01*
X69582973Y6590076D01*
X69553060Y6519390D01*
X69548420Y6502346D01*
X69534355Y6429857D01*
X69526782Y6350877D01*
X69525339Y6294617D01*
X69208488Y6294617D01*
X69210538Y6377420D01*
X69216849Y6456109D01*
X69229214Y6538312D01*
X69247074Y6612272D01*
X69252398Y6629474D01*
X69279881Y6701464D01*
X69316875Y6771459D01*
X69360667Y6830936D01*
X69375130Y6846728D01*
X69432617Y6897520D01*
X69496770Y6937057D01*
X69560877Y6963232D01*
X69636884Y6983047D01*
X69709813Y6993924D01*
X69786392Y6998002D01*
X69794251Y6998036D01*
X69867767Y6993922D01*
G37*
D13*
G36*
X5798501Y15726946D02*
G01*
X3921677Y15726946D01*
X3921677Y15729083D01*
X5342865Y16731395D01*
X5308671Y16579232D01*
X3921677Y17578979D01*
X3921677Y17583680D01*
X5798501Y17583680D01*
X5798501Y17228490D01*
X4723099Y17228490D01*
X4906892Y17250716D01*
X5774137Y16640781D01*
X5774137Y16635652D01*
X4906892Y16008619D01*
X4737632Y16069741D01*
X5798501Y16069741D01*
X5798501Y15726946D01*
G37*
G36*
X4993205Y20571140D02*
G01*
X5084166Y20557596D01*
X5172082Y20535023D01*
X5256953Y20503420D01*
X5337763Y20463777D01*
X5413497Y20417080D01*
X5484156Y20363332D01*
X5549739Y20302531D01*
X5609365Y20235826D01*
X5662152Y20164365D01*
X5708100Y20088150D01*
X5747210Y20007180D01*
X5778251Y19922470D01*
X5800424Y19835034D01*
X5813728Y19744875D01*
X5818162Y19651990D01*
X5813728Y19557983D01*
X5800424Y19467022D01*
X5778251Y19379106D01*
X5747210Y19294235D01*
X5708100Y19213425D01*
X5662152Y19137691D01*
X5609365Y19067032D01*
X5549739Y19001449D01*
X5484156Y18941850D01*
X5413497Y18889143D01*
X5337763Y18843328D01*
X5256953Y18804406D01*
X5172082Y18773364D01*
X5084166Y18751192D01*
X4993205Y18737888D01*
X4899198Y18733453D01*
X4807436Y18737888D01*
X4718077Y18751192D01*
X4631123Y18773364D01*
X4546573Y18804406D01*
X4465602Y18843328D01*
X4389387Y18889143D01*
X4317927Y18941850D01*
X4251222Y19001449D01*
X4190341Y19067032D01*
X4136352Y19137691D01*
X4089255Y19213425D01*
X4049050Y19294235D01*
X4016886Y19379106D01*
X3993912Y19467022D01*
X3980128Y19557983D01*
X3975533Y19651990D01*
X3975660Y19654554D01*
X4318755Y19654554D01*
X4324946Y19568802D01*
X4345626Y19481330D01*
X4362780Y19436568D01*
X4404476Y19358977D01*
X4458022Y19289428D01*
X4486733Y19260041D01*
X4555631Y19203868D01*
X4633135Y19158982D01*
X4671808Y19142072D01*
X4760061Y19115228D01*
X4846535Y19102595D01*
X4899198Y19100612D01*
X4987054Y19106622D01*
X5077212Y19126699D01*
X5123596Y19143354D01*
X5204036Y19184002D01*
X5276575Y19235796D01*
X5307389Y19263460D01*
X5366129Y19330339D01*
X5413159Y19405260D01*
X5430915Y19442551D01*
X5459419Y19528238D01*
X5472833Y19612718D01*
X5474940Y19664385D01*
X5467674Y19755194D01*
X5445877Y19840783D01*
X5430915Y19878525D01*
X5389290Y19954862D01*
X5335955Y20022734D01*
X5307389Y20051205D01*
X5238497Y20105647D01*
X5161704Y20149507D01*
X5123596Y20166182D01*
X5036249Y20193303D01*
X4950988Y20206065D01*
X4899198Y20208070D01*
X4809920Y20202059D01*
X4725450Y20184027D01*
X4671808Y20165327D01*
X4590332Y20125308D01*
X4517463Y20074708D01*
X4486733Y20047785D01*
X4427717Y19982778D01*
X4380552Y19909306D01*
X4362780Y19872541D01*
X4334276Y19788108D01*
X4320303Y19698031D01*
X4318755Y19654554D01*
X3975660Y19654554D01*
X3980128Y19744875D01*
X3993912Y19835034D01*
X4016886Y19922470D01*
X4049050Y20007180D01*
X4089255Y20088150D01*
X4136352Y20164365D01*
X4190341Y20235826D01*
X4251222Y20302531D01*
X4317927Y20363332D01*
X4389387Y20417080D01*
X4465602Y20463777D01*
X4546573Y20503420D01*
X4631123Y20535023D01*
X4718077Y20557596D01*
X4807436Y20571140D01*
X4899198Y20575655D01*
X4993205Y20571140D01*
G37*
G36*
X3995194Y21603612D02*
G01*
X3995194Y22818781D01*
X4338417Y22818781D01*
X4338417Y22380243D01*
X5798501Y22380243D01*
X5798501Y22025053D01*
X4338417Y22025053D01*
X4338417Y21603612D01*
X3995194Y21603612D01*
G37*
G36*
X3995194Y23955732D02*
G01*
X3995194Y24310922D01*
X5798501Y24310922D01*
X5798501Y23955732D01*
X3995194Y23955732D01*
G37*
G36*
X3995194Y25843241D02*
G01*
X5293712Y26369828D01*
X5252251Y26164237D01*
X3995194Y26641670D01*
X3995194Y27063112D01*
X5881848Y26239891D01*
X3995194Y25416670D01*
X3995194Y25843241D01*
G37*
D14*
G36*
X3027945Y12967289D02*
G01*
X1438901Y11402181D01*
X1458441Y11480827D01*
X2962000Y11486200D01*
X2962000Y11213137D01*
X876166Y11213137D01*
X876166Y11225838D01*
X2469117Y12774337D01*
X2455440Y12711323D01*
X937715Y12705461D01*
X937715Y12975593D01*
X3027945Y12975593D01*
X3027945Y12967289D01*
G37*
G36*
X3006940Y13859752D02*
G01*
X2995511Y13756746D01*
X2956974Y13659911D01*
X2910220Y13597924D01*
X2829643Y13534887D01*
X2732991Y13498914D01*
X2659627Y13489969D01*
X1802823Y13489969D01*
X1802823Y13751797D01*
X2567303Y13751797D01*
X2666623Y13774085D01*
X2720688Y13806996D01*
X2772627Y13891412D01*
X2782725Y13963311D01*
X2766595Y14060700D01*
X2725572Y14137701D01*
X2652610Y14211263D01*
X2568769Y14261288D01*
X2469550Y14294597D01*
X2366487Y14307286D01*
X2343088Y14307694D01*
X1802823Y14307694D01*
X1802823Y14569522D01*
X2962000Y14569522D01*
X2962000Y14333095D01*
X2677701Y14310625D01*
X2728015Y14323325D01*
X2813040Y14273403D01*
X2872118Y14220255D01*
X2931732Y14141218D01*
X2971281Y14060032D01*
X2998025Y13963800D01*
X3006905Y13866484D01*
X3006940Y13859752D01*
G37*
G36*
X1802823Y15253402D02*
G01*
X2063186Y15275872D01*
X2040715Y15263172D01*
X1956122Y15314024D01*
X1879243Y15384378D01*
X1832132Y15447331D01*
X1785993Y15541899D01*
X1762406Y15637034D01*
X1756417Y15720883D01*
X1766463Y15822893D01*
X1788168Y15892830D01*
X1837551Y15977361D01*
X1877073Y16018371D01*
X1963025Y16068410D01*
X2016780Y16082362D01*
X2027038Y16066731D01*
X1939317Y16125029D01*
X1867395Y16197340D01*
X1828224Y16253332D01*
X1784467Y16344351D01*
X1760905Y16439354D01*
X1756417Y16504903D01*
X1765862Y16604069D01*
X1798071Y16697504D01*
X1853137Y16774547D01*
X1933714Y16835913D01*
X2030366Y16869801D01*
X2103730Y16877129D01*
X2962000Y16877129D01*
X2962000Y16616766D01*
X2198985Y16616766D01*
X2098693Y16598638D01*
X2049508Y16573290D01*
X1992312Y16489143D01*
X1983563Y16432118D01*
X2000796Y16330123D01*
X2044623Y16250890D01*
X2114355Y16180304D01*
X2202404Y16126815D01*
X2296865Y16094264D01*
X2397980Y16079960D01*
X2411965Y16079431D01*
X2962000Y16079431D01*
X2962000Y15817603D01*
X2198985Y15817603D01*
X2098693Y15798102D01*
X2049508Y15771197D01*
X1993779Y15689522D01*
X1983563Y15627094D01*
X2000796Y15525237D01*
X2044623Y15446354D01*
X2114721Y15376623D01*
X2203870Y15323744D01*
X2299275Y15292188D01*
X2400476Y15279952D01*
X2414407Y15279780D01*
X2962000Y15279780D01*
X2962000Y15017952D01*
X1802823Y15017952D01*
X1802823Y15253402D01*
G37*
G36*
X2810569Y18880408D02*
G01*
X2860839Y18794771D01*
X2886284Y18743632D01*
X2924997Y18648988D01*
X2953461Y18554354D01*
X2957115Y18539934D01*
X2975533Y18442081D01*
X2983955Y18336649D01*
X2984470Y18285433D01*
X2979448Y18184667D01*
X2964549Y18075002D01*
X2939880Y17971199D01*
X2905442Y17873258D01*
X2900450Y17861427D01*
X2856181Y17770874D01*
X2804463Y17687282D01*
X2737375Y17601561D01*
X2678678Y17540981D01*
X2596220Y17471622D01*
X2507116Y17411923D01*
X2411366Y17361884D01*
X2355300Y17338259D01*
X2262396Y17307271D01*
X2166378Y17285136D01*
X2067246Y17271856D01*
X1965000Y17267429D01*
X1853870Y17272008D01*
X1747136Y17285747D01*
X1644798Y17308645D01*
X1546856Y17340702D01*
X1454044Y17381398D01*
X1367582Y17429728D01*
X1287471Y17485690D01*
X1213709Y17549285D01*
X1139048Y17629184D01*
X1074434Y17716656D01*
X1019865Y17811702D01*
X993891Y17867778D01*
X959483Y17961781D01*
X934906Y18060119D01*
X920160Y18162792D01*
X915244Y18269801D01*
X919147Y18369587D01*
X932638Y18474115D01*
X955764Y18571965D01*
X964581Y18600018D01*
X1000127Y18697147D01*
X1043381Y18791784D01*
X1078887Y18855007D01*
X1333877Y18746075D01*
X1281663Y18659471D01*
X1236222Y18564503D01*
X1226898Y18542376D01*
X1196536Y18449114D01*
X1180187Y18348844D01*
X1177073Y18278106D01*
X1184057Y18179029D01*
X1205010Y18083301D01*
X1236180Y17999180D01*
X1282021Y17911863D01*
X1338945Y17831935D01*
X1400311Y17765684D01*
X1477007Y17701582D01*
X1562015Y17647638D01*
X1646508Y17607415D01*
X1745998Y17574876D01*
X1851030Y17555843D01*
X1951323Y17550262D01*
X2051453Y17555318D01*
X2156637Y17572561D01*
X2256626Y17602041D01*
X2349353Y17643008D01*
X2433422Y17694711D01*
X2502334Y17751030D01*
X2573913Y17829729D01*
X2628182Y17911405D01*
X2664512Y17985014D01*
X2697607Y18082637D01*
X2716965Y18188110D01*
X2722642Y18290806D01*
X2717100Y18393388D01*
X2698416Y18495683D01*
X2675747Y18565824D01*
X2635468Y18656291D01*
X2583583Y18743846D01*
X2568769Y18764149D01*
X2810569Y18880408D01*
G37*
G36*
X2962000Y20199320D02*
G01*
X2768869Y20199320D01*
X2798357Y20178315D01*
X2867181Y20104935D01*
X2886773Y20079152D01*
X2936423Y19994392D01*
X2960534Y19936026D01*
X2984233Y19838619D01*
X2989843Y19754309D01*
X2983022Y19654990D01*
X2959760Y19552571D01*
X2919990Y19457310D01*
X2864173Y19372486D01*
X2792772Y19300706D01*
X2714337Y19246773D01*
X2623548Y19205814D01*
X2520927Y19180026D01*
X2418454Y19169786D01*
X2382167Y19169103D01*
X2277058Y19175518D01*
X2180449Y19194760D01*
X2083076Y19231187D01*
X2047066Y19250192D01*
X1965531Y19306473D01*
X1890608Y19380613D01*
X1831155Y19467568D01*
X1788048Y19564047D01*
X1762834Y19666760D01*
X1755440Y19765545D01*
X1759535Y19815859D01*
X1970862Y19815859D01*
X1983441Y19716330D01*
X2021176Y19624861D01*
X2081382Y19546337D01*
X2161371Y19485642D01*
X2251725Y19448476D01*
X2355172Y19434065D01*
X2369955Y19433863D01*
X2471478Y19445562D01*
X2563555Y19480660D01*
X2575119Y19487108D01*
X2657184Y19549390D01*
X2720688Y19629745D01*
X2760988Y19723046D01*
X2774421Y19824163D01*
X2764219Y19921551D01*
X2738273Y19998552D01*
X2684262Y20081657D01*
X2635203Y20128001D01*
X2547529Y20178123D01*
X2477422Y20199320D01*
X2249299Y20199320D01*
X2158499Y20161334D01*
X2104707Y20121651D01*
X2039929Y20047836D01*
X2006521Y19987806D01*
X1976747Y19889482D01*
X1970862Y19815859D01*
X1759535Y19815859D01*
X1764098Y19871930D01*
X1793293Y19974032D01*
X1828713Y20041050D01*
X1893084Y20123468D01*
X1967130Y20188150D01*
X1986535Y20200522D01*
X1802823Y20220325D01*
X1802823Y20461148D01*
X2962000Y20461148D01*
X2962000Y20199320D01*
G37*
G36*
X793612Y20909090D02*
G01*
X793612Y21170918D01*
X2962000Y21170918D01*
X2962000Y20909090D01*
X793612Y20909090D01*
G37*
G36*
X2854044Y22562614D02*
G01*
X2910464Y22476884D01*
X2951380Y22382760D01*
X2953695Y22376012D01*
X2978406Y22280656D01*
X2989525Y22177452D01*
X2989843Y22156682D01*
X2983893Y22053938D01*
X2963323Y21948208D01*
X2928060Y21851350D01*
X2914616Y21824023D01*
X2861379Y21740675D01*
X2789154Y21663098D01*
X2702614Y21600297D01*
X2612454Y21557793D01*
X2512944Y21531031D01*
X2415391Y21520405D01*
X2381190Y21519697D01*
X2280915Y21526459D01*
X2178562Y21549833D01*
X2085750Y21589905D01*
X2059766Y21605182D01*
X1980340Y21663905D01*
X1906965Y21740732D01*
X1848252Y21830374D01*
X1808839Y21919904D01*
X1782345Y22022795D01*
X1773587Y22120339D01*
X1773514Y22130304D01*
X1779009Y22230894D01*
X1797366Y22330409D01*
X1812593Y22379920D01*
X1852210Y22470387D01*
X1906692Y22554658D01*
X1919083Y22569941D01*
X2089564Y22439515D01*
X2037426Y22356425D01*
X2019222Y22316905D01*
X1991936Y22218445D01*
X1987471Y22152774D01*
X2000415Y22054711D01*
X2039250Y21965684D01*
X2104743Y21885683D01*
X2179934Y21831351D01*
X2274700Y21793981D01*
X2374191Y21781574D01*
X2381190Y21781525D01*
X2484383Y21794226D01*
X2579027Y21832327D01*
X2659993Y21893144D01*
X2722153Y21973011D01*
X2761354Y22069121D01*
X2774370Y22170537D01*
X2774421Y22177687D01*
X2762813Y22278869D01*
X2751951Y22315440D01*
X2706704Y22406184D01*
X2690401Y22428280D01*
X2854044Y22562614D01*
G37*
G36*
X1802823Y22896249D02*
G01*
X1802823Y23158078D01*
X2962000Y23158078D01*
X2962000Y22896249D01*
X1802823Y22896249D01*
G37*
G36*
X1394449Y22878175D02*
G01*
X1301003Y22916323D01*
X1290401Y22928001D01*
X1249894Y23017298D01*
X1248880Y23034979D01*
X1280670Y23128585D01*
X1290401Y23140492D01*
X1379146Y23186654D01*
X1394449Y23187387D01*
X1488963Y23151483D01*
X1499473Y23140492D01*
X1539384Y23049451D01*
X1540018Y23034979D01*
X1508602Y22940572D01*
X1498985Y22928001D01*
X1413616Y22879392D01*
X1394449Y22878175D01*
G37*
G36*
X3006940Y23977268D02*
G01*
X2995511Y23874262D01*
X2956974Y23777427D01*
X2910220Y23715440D01*
X2829643Y23652402D01*
X2732991Y23616430D01*
X2659627Y23607484D01*
X1802823Y23607484D01*
X1802823Y23869313D01*
X2567303Y23869313D01*
X2666623Y23891600D01*
X2720688Y23924512D01*
X2772627Y24008928D01*
X2782725Y24080827D01*
X2766595Y24178216D01*
X2725572Y24255217D01*
X2652610Y24328779D01*
X2568769Y24378803D01*
X2469550Y24412113D01*
X2366487Y24424802D01*
X2343088Y24425210D01*
X1802823Y24425210D01*
X1802823Y24687038D01*
X2962000Y24687038D01*
X2962000Y24450611D01*
X2677701Y24428140D01*
X2728015Y24440841D01*
X2813040Y24390918D01*
X2872118Y24337771D01*
X2931732Y24258734D01*
X2971281Y24177547D01*
X2998025Y24081316D01*
X3006905Y23984000D01*
X3006940Y23977268D01*
G37*
G36*
X1802823Y25370918D02*
G01*
X2063186Y25393388D01*
X2040715Y25380688D01*
X1956122Y25431540D01*
X1879243Y25501894D01*
X1832132Y25564847D01*
X1785993Y25659414D01*
X1762406Y25754550D01*
X1756417Y25838399D01*
X1766463Y25940408D01*
X1788168Y26010346D01*
X1837551Y26094877D01*
X1877073Y26135886D01*
X1963025Y26185925D01*
X2016780Y26199878D01*
X2027038Y26184247D01*
X1939317Y26242544D01*
X1867395Y26314855D01*
X1828224Y26370848D01*
X1784467Y26461867D01*
X1760905Y26556870D01*
X1756417Y26622418D01*
X1765862Y26721585D01*
X1798071Y26815020D01*
X1853137Y26892062D01*
X1933714Y26953428D01*
X2030366Y26987317D01*
X2103730Y26994644D01*
X2962000Y26994644D01*
X2962000Y26734281D01*
X2198985Y26734281D01*
X2098693Y26716154D01*
X2049508Y26690806D01*
X1992312Y26606659D01*
X1983563Y26549634D01*
X2000796Y26447639D01*
X2044623Y26368406D01*
X2114355Y26297819D01*
X2202404Y26244330D01*
X2296865Y26211780D01*
X2397980Y26197476D01*
X2411965Y26196947D01*
X2962000Y26196947D01*
X2962000Y25935119D01*
X2198985Y25935119D01*
X2098693Y25915618D01*
X2049508Y25888713D01*
X1993779Y25807038D01*
X1983563Y25744609D01*
X2000796Y25642753D01*
X2044623Y25563870D01*
X2114721Y25494138D01*
X2203870Y25441260D01*
X2299275Y25409704D01*
X2400476Y25397468D01*
X2414407Y25397296D01*
X2962000Y25397296D01*
X2962000Y25135468D01*
X1802823Y25135468D01*
X1802823Y25370918D01*
G37*
D15*
%TO.C,D26*%
X71296000Y32620000D02*
X71296000Y29780000D01*
X71296000Y32620000D02*
X70646000Y32620000D01*
X68996000Y32620000D02*
X68996000Y29780000D01*
%TD*%
M02*
