M48
; DRILL file {KiCad 8.0.8-8.0.8-0~ubuntu22.04.1} date 2025-02-03T23:53:32+0000
; FORMAT={-:-/ absolute / inch / decimal}
; #@! TF.CreationDate,2025-02-03T23:53:32+00:00
; #@! TF.GenerationSoftware,Kicad,Pcbnew,8.0.8-8.0.8-0~ubuntu22.04.1
; #@! TF.FileFunction,NonPlated,1,2,NPTH
FMAT,2
INCH
; #@! TA.AperFunction,NonPlated,NPTH,ComponentDrill
T1C0.0256
; #@! TA.AperFunction,NonPlated,NPTH,ComponentDrill
T2C0.0669
; #@! TA.AperFunction,NonPlated,NPTH,ComponentDrill
T3C0.1575
%
G90
G05
T1
X0.22Y-0.1256
X0.22Y-0.3532
T2
X0.1775Y-3.4809
X0.1775Y-4.2309
X0.1785Y-2.7295
X0.1809Y-1.2359
X0.1809Y-1.9809
X0.5775Y-3.4809
X0.5775Y-4.2309
X0.5785Y-2.7295
X0.5809Y-1.2359
X0.5809Y-1.9809
X0.9241Y-3.4808
X0.9246Y-4.2309
X0.9259Y-1.2359
X0.9259Y-1.9809
X0.9259Y-2.7308
X1.3241Y-3.4808
X1.3246Y-4.2309
X1.3259Y-1.2359
X1.3259Y-1.9809
X1.3259Y-2.7308
X1.6759Y-1.2359
X1.6759Y-1.9809
X1.6775Y-4.2309
X1.6791Y-2.7308
X1.6791Y-3.4808
X2.0759Y-1.2359
X2.0759Y-1.9809
X2.0775Y-4.2309
X2.0791Y-2.7308
X2.0791Y-3.4808
X2.4275Y-1.2359
X2.4291Y-3.4808
X2.4296Y-4.2309
X2.4309Y-1.9809
X2.4309Y-2.7309
X2.8275Y-1.2359
X2.8291Y-3.4808
X2.8296Y-4.2309
X2.8309Y-1.9809
X2.8309Y-2.7309
T3
X0.3775Y-3.4809
X0.3775Y-4.2309
X0.3785Y-2.7295
X0.3809Y-1.2359
X0.3809Y-1.9809
X1.1241Y-3.4808
X1.1246Y-4.2309
X1.1259Y-1.2359
X1.1259Y-1.9809
X1.1259Y-2.7308
X1.8759Y-1.2359
X1.8759Y-1.9809
X1.8775Y-4.2309
X1.8791Y-2.7308
X1.8791Y-3.4808
X2.6275Y-1.2359
X2.6291Y-3.4808
X2.6296Y-4.2309
X2.6309Y-1.9809
X2.6309Y-2.7309
M30
