%TF.GenerationSoftware,KiCad,Pcbnew,8.0.8-8.0.8-0~ubuntu22.04.1*%
%TF.CreationDate,2025-02-03T23:53:40+00:00*%
%TF.ProjectId,numcalcium,6e756d63-616c-4636-9975-6d2e6b696361,rev?*%
%TF.SameCoordinates,Original*%
%TF.FileFunction,Paste,Top*%
%TF.FilePolarity,Positive*%
%FSLAX46Y46*%
G04 Gerber Fmt 4.6, Leading zero omitted, Abs format (unit mm)*
G04 Created by KiCad (PCBNEW 8.0.8-8.0.8-0~ubuntu22.04.1) date 2025-02-03 23:53:40*
%MOMM*%
%LPD*%
G01*
G04 APERTURE LIST*
G04 Aperture macros list*
%AMRoundRect*
0 Rectangle with rounded corners*
0 $1 Rounding radius*
0 $2 $3 $4 $5 $6 $7 $8 $9 X,Y pos of 4 corners*
0 Add a 4 corners polygon primitive as box body*
4,1,4,$2,$3,$4,$5,$6,$7,$8,$9,$2,$3,0*
0 Add four circle primitives for the rounded corners*
1,1,$1+$1,$2,$3*
1,1,$1+$1,$4,$5*
1,1,$1+$1,$6,$7*
1,1,$1+$1,$8,$9*
0 Add four rect primitives between the rounded corners*
20,1,$1+$1,$2,$3,$4,$5,0*
20,1,$1+$1,$4,$5,$6,$7,0*
20,1,$1+$1,$6,$7,$8,$9,0*
20,1,$1+$1,$8,$9,$2,$3,0*%
G04 Aperture macros list end*
%ADD10R,0.700000X0.700000*%
%ADD11RoundRect,0.150000X0.512500X0.150000X-0.512500X0.150000X-0.512500X-0.150000X0.512500X-0.150000X0*%
%ADD12RoundRect,0.250000X0.375000X0.625000X-0.375000X0.625000X-0.375000X-0.625000X0.375000X-0.625000X0*%
%ADD13RoundRect,0.250000X-0.350000X-0.450000X0.350000X-0.450000X0.350000X0.450000X-0.350000X0.450000X0*%
%ADD14RoundRect,0.100000X0.100000X-0.637500X0.100000X0.637500X-0.100000X0.637500X-0.100000X-0.637500X0*%
%ADD15RoundRect,0.250000X0.650000X2.450000X-0.650000X2.450000X-0.650000X-2.450000X0.650000X-2.450000X0*%
%ADD16RoundRect,0.250000X0.350000X0.450000X-0.350000X0.450000X-0.350000X-0.450000X0.350000X-0.450000X0*%
%ADD17RoundRect,0.250000X0.475000X-0.337500X0.475000X0.337500X-0.475000X0.337500X-0.475000X-0.337500X0*%
%ADD18RoundRect,0.250000X0.412500X1.100000X-0.412500X1.100000X-0.412500X-1.100000X0.412500X-1.100000X0*%
%ADD19RoundRect,0.250000X-0.475000X0.250000X-0.475000X-0.250000X0.475000X-0.250000X0.475000X0.250000X0*%
%ADD20RoundRect,0.150000X0.587500X0.150000X-0.587500X0.150000X-0.587500X-0.150000X0.587500X-0.150000X0*%
%ADD21RoundRect,0.250000X0.625000X-0.375000X0.625000X0.375000X-0.625000X0.375000X-0.625000X-0.375000X0*%
%ADD22RoundRect,0.250000X-0.375000X-0.625000X0.375000X-0.625000X0.375000X0.625000X-0.375000X0.625000X0*%
%ADD23RoundRect,0.250000X0.325000X0.650000X-0.325000X0.650000X-0.325000X-0.650000X0.325000X-0.650000X0*%
%ADD24RoundRect,0.150000X-0.587500X-0.150000X0.587500X-0.150000X0.587500X0.150000X-0.587500X0.150000X0*%
%ADD25RoundRect,0.150000X-0.425000X0.150000X-0.425000X-0.150000X0.425000X-0.150000X0.425000X0.150000X0*%
%ADD26RoundRect,0.075000X-0.500000X0.075000X-0.500000X-0.075000X0.500000X-0.075000X0.500000X0.075000X0*%
%ADD27O,2.100000X1.000000*%
%ADD28O,1.800000X1.000000*%
%ADD29R,2.500000X1.900000*%
%ADD30R,0.900000X0.900000*%
%ADD31R,1.500000X0.900000*%
%ADD32R,0.900000X1.500000*%
%ADD33RoundRect,0.250000X1.000000X0.650000X-1.000000X0.650000X-1.000000X-0.650000X1.000000X-0.650000X0*%
%ADD34RoundRect,0.250000X1.075000X-0.375000X1.075000X0.375000X-1.075000X0.375000X-1.075000X-0.375000X0*%
%ADD35RoundRect,0.250000X0.325000X1.100000X-0.325000X1.100000X-0.325000X-1.100000X0.325000X-1.100000X0*%
%ADD36RoundRect,0.250000X-0.412500X-1.100000X0.412500X-1.100000X0.412500X1.100000X-0.412500X1.100000X0*%
%ADD37RoundRect,0.250000X-0.450000X0.350000X-0.450000X-0.350000X0.450000X-0.350000X0.450000X0.350000X0*%
%ADD38RoundRect,0.250000X-2.450000X0.650000X-2.450000X-0.650000X2.450000X-0.650000X2.450000X0.650000X0*%
%ADD39RoundRect,0.150000X0.675000X0.150000X-0.675000X0.150000X-0.675000X-0.150000X0.675000X-0.150000X0*%
%ADD40RoundRect,0.250000X-1.075000X0.375000X-1.075000X-0.375000X1.075000X-0.375000X1.075000X0.375000X0*%
%ADD41RoundRect,0.250000X0.250000X0.475000X-0.250000X0.475000X-0.250000X-0.475000X0.250000X-0.475000X0*%
%ADD42R,1.300000X0.300000*%
%ADD43R,2.200000X1.800000*%
G04 APERTURE END LIST*
D10*
%TO.C,D38*%
X27952879Y-36410843D03*
X27952879Y-35310843D03*
X29782879Y-35310843D03*
X29782879Y-36410843D03*
%TD*%
D11*
%TO.C,U1*%
X15501379Y-18430843D03*
X15501379Y-17480843D03*
X15501379Y-16530843D03*
X13226379Y-16530843D03*
X13226379Y-18430843D03*
%TD*%
D12*
%TO.C,D1*%
X11265879Y-114416843D03*
X8465879Y-114416843D03*
%TD*%
D13*
%TO.C,R10*%
X28292000Y-18764000D03*
X30292000Y-18764000D03*
%TD*%
D14*
%TO.C,U3*%
X21432879Y-16018343D03*
X22082879Y-16018343D03*
X22732879Y-16018343D03*
X23382879Y-16018343D03*
X24032879Y-16018343D03*
X24682879Y-16018343D03*
X25332879Y-16018343D03*
X25982879Y-16018343D03*
X25982879Y-21743343D03*
X25332879Y-21743343D03*
X24682879Y-21743343D03*
X24032879Y-21743343D03*
X23382879Y-21743343D03*
X22732879Y-21743343D03*
X22082879Y-21743343D03*
X21432879Y-21743343D03*
%TD*%
D15*
%TO.C,C6*%
X36947479Y-3788043D03*
X31847479Y-3788043D03*
%TD*%
D16*
%TO.C,R17*%
X2555879Y-14862443D03*
X555879Y-14862443D03*
%TD*%
D17*
%TO.C,C17*%
X38457879Y-75238343D03*
X38457879Y-73163343D03*
%TD*%
D13*
%TO.C,R5*%
X40215879Y-7116843D03*
X42215879Y-7116843D03*
%TD*%
D12*
%TO.C,D4*%
X68565879Y-114416843D03*
X65765879Y-114416843D03*
%TD*%
%TO.C,D20*%
X68315879Y-38616843D03*
X65515879Y-38616843D03*
%TD*%
%TO.C,D5*%
X11165879Y-95416843D03*
X8365879Y-95416843D03*
%TD*%
D10*
%TO.C,D36*%
X66202879Y-55410843D03*
X66202879Y-54310843D03*
X68032879Y-54310843D03*
X68032879Y-55410843D03*
%TD*%
D12*
%TO.C,D9*%
X11265879Y-76416843D03*
X8465879Y-76416843D03*
%TD*%
D18*
%TO.C,C22*%
X890879Y-22480843D03*
X4015879Y-22480843D03*
%TD*%
D12*
%TO.C,D12*%
X68515879Y-76416843D03*
X65715879Y-76416843D03*
%TD*%
%TO.C,D18*%
X30365879Y-38516843D03*
X27565879Y-38516843D03*
%TD*%
D19*
%TO.C,C8*%
X39995479Y870357D03*
X39995479Y-1029643D03*
%TD*%
D20*
%TO.C,Q3*%
X27929500Y-13264000D03*
X27929500Y-11364000D03*
X26054500Y-12314000D03*
%TD*%
D10*
%TO.C,D40*%
X65952879Y-36410843D03*
X65952879Y-35310843D03*
X67782879Y-35310843D03*
X67782879Y-36410843D03*
%TD*%
D21*
%TO.C,D46*%
X71107879Y-19880843D03*
X71107879Y-17080843D03*
%TD*%
D22*
%TO.C,D44*%
X13507879Y-22680843D03*
X16307879Y-22680843D03*
%TD*%
D12*
%TO.C,D10*%
X30265879Y-76416843D03*
X27465879Y-76416843D03*
%TD*%
D10*
%TO.C,D39*%
X47202879Y-36410843D03*
X47202879Y-35310843D03*
X49032879Y-35310843D03*
X49032879Y-36410843D03*
%TD*%
D17*
%TO.C,C18*%
X38192000Y-94180843D03*
X38192000Y-92105843D03*
%TD*%
%TO.C,C14*%
X38092000Y-37385843D03*
X38092000Y-35310843D03*
%TD*%
D23*
%TO.C,C7*%
X37967000Y836000D03*
X35017000Y836000D03*
%TD*%
D24*
%TO.C,Q1*%
X21854500Y-7351500D03*
X21854500Y-9251500D03*
X23729500Y-8301500D03*
%TD*%
D25*
%TO.C,J6*%
X6662879Y-2880843D03*
X6662879Y-3680843D03*
D26*
X6662879Y-4830843D03*
X6662879Y-5830843D03*
X6662879Y-6330843D03*
X6662879Y-7330843D03*
D25*
X6662879Y-8480843D03*
X6662879Y-9280843D03*
X6662879Y-9280843D03*
X6662879Y-8480843D03*
D26*
X6662879Y-7830843D03*
X6662879Y-6830843D03*
X6662879Y-5330843D03*
X6662879Y-4330843D03*
D25*
X6662879Y-3680843D03*
X6662879Y-2880843D03*
D27*
X6087879Y-1760843D03*
D28*
X1907879Y-1760843D03*
D27*
X6087879Y-10400843D03*
D28*
X1907879Y-10400843D03*
%TD*%
D29*
%TO.C,L1*%
X17907879Y-12080843D03*
X17907879Y-7980843D03*
%TD*%
D12*
%TO.C,D16*%
X68515879Y-57716843D03*
X65715879Y-57716843D03*
%TD*%
D30*
%TO.C,U4*%
X50067668Y-5362723D03*
X50067668Y-6762723D03*
X50067668Y-8162723D03*
X51467668Y-5362723D03*
X51467668Y-6762723D03*
X51467668Y-8162723D03*
X52867668Y-5362723D03*
X52867668Y-6762723D03*
X52867668Y-8162723D03*
D31*
X44217668Y957277D03*
X44217668Y-312723D03*
X44217668Y-1582723D03*
X44217668Y-2852723D03*
X44217668Y-4122723D03*
X44217668Y-5392723D03*
X44217668Y-6662723D03*
X44217668Y-7932723D03*
X44217668Y-9202723D03*
X44217668Y-10472723D03*
X44217668Y-11742723D03*
X44217668Y-13012723D03*
X44217668Y-14282723D03*
X44217668Y-15552723D03*
D32*
X45982668Y-16802723D03*
X47252668Y-16802723D03*
X48522668Y-16802723D03*
X49792668Y-16802723D03*
X51062668Y-16802723D03*
X52332668Y-16802723D03*
X53602668Y-16802723D03*
X54872668Y-16802723D03*
X56142668Y-16802723D03*
X57412668Y-16802723D03*
X58682668Y-16802723D03*
X59952668Y-16802723D03*
D31*
X61717668Y-15552723D03*
X61717668Y-14282723D03*
X61717668Y-13012723D03*
X61717668Y-11742723D03*
X61717668Y-10472723D03*
X61717668Y-9202723D03*
X61717668Y-7932723D03*
X61717668Y-6662723D03*
X61717668Y-5392723D03*
X61717668Y-4122723D03*
X61717668Y-2852723D03*
X61717668Y-1582723D03*
X61717668Y-312723D03*
X61717668Y957277D03*
%TD*%
D12*
%TO.C,D6*%
X30215879Y-95480843D03*
X27415879Y-95480843D03*
%TD*%
D33*
%TO.C,D43*%
X10707879Y-21380843D03*
X6707879Y-21380843D03*
%TD*%
D10*
%TO.C,D30*%
X27957879Y-74468343D03*
X27957879Y-73368343D03*
X29787879Y-73368343D03*
X29787879Y-74468343D03*
%TD*%
D16*
%TO.C,R16*%
X2555879Y-12887923D03*
X555879Y-12887923D03*
%TD*%
D12*
%TO.C,D11*%
X49265879Y-76416843D03*
X46465879Y-76416843D03*
%TD*%
D16*
%TO.C,R8*%
X19336779Y-20108843D03*
X17336779Y-20108843D03*
%TD*%
D34*
%TO.C,L2*%
X57392000Y-22464000D03*
X57392000Y-19664000D03*
%TD*%
D12*
%TO.C,D13*%
X11365879Y-57716843D03*
X8565879Y-57716843D03*
%TD*%
D35*
%TO.C,C1*%
X1131679Y1088757D03*
X4081679Y1088757D03*
%TD*%
D24*
%TO.C,Q6*%
X28317000Y-15114000D03*
X28317000Y-17014000D03*
X30192000Y-16064000D03*
%TD*%
D36*
%TO.C,C3*%
X25867000Y-7114000D03*
X28992000Y-7114000D03*
%TD*%
D10*
%TO.C,D34*%
X27952879Y-55310843D03*
X27952879Y-54210843D03*
X29782879Y-54210843D03*
X29782879Y-55310843D03*
%TD*%
D37*
%TO.C,R12*%
X66434279Y-17081843D03*
X66434279Y-19081843D03*
%TD*%
D16*
%TO.C,R3*%
X15551379Y-14730843D03*
X13551379Y-14730843D03*
%TD*%
D12*
%TO.C,D8*%
X68415879Y-95416843D03*
X65615879Y-95416843D03*
%TD*%
D38*
%TO.C,C2*%
X11907879Y-7537243D03*
X11907879Y-12637243D03*
%TD*%
D21*
%TO.C,D45*%
X68801668Y-19878123D03*
X68801668Y-17078123D03*
%TD*%
D17*
%TO.C,C19*%
X38457879Y-113130843D03*
X38457879Y-111055843D03*
%TD*%
D10*
%TO.C,D33*%
X9202879Y-55410843D03*
X9202879Y-54310843D03*
X11032879Y-54310843D03*
X11032879Y-55410843D03*
%TD*%
%TO.C,D37*%
X8952879Y-36310843D03*
X8952879Y-35210843D03*
X10782879Y-35210843D03*
X10782879Y-36310843D03*
%TD*%
D39*
%TO.C,Q5*%
X11193379Y-18690843D03*
X11193379Y-17420843D03*
X11193379Y-16150843D03*
X11193379Y-14880843D03*
X5943379Y-14880843D03*
X5943379Y-16150843D03*
X5943379Y-17420843D03*
X5943379Y-18690843D03*
%TD*%
D13*
%TO.C,R26*%
X5107879Y-12880843D03*
X7107879Y-12880843D03*
%TD*%
D35*
%TO.C,C5*%
X31217000Y-21314000D03*
X28267000Y-21314000D03*
%TD*%
D12*
%TO.C,D2*%
X30265879Y-114666843D03*
X27465879Y-114666843D03*
%TD*%
D10*
%TO.C,D21*%
X10702879Y-112310843D03*
X10702879Y-111210843D03*
X8872879Y-111210843D03*
X8872879Y-112310843D03*
%TD*%
D16*
%TO.C,R4*%
X15307879Y-20280843D03*
X13307879Y-20280843D03*
%TD*%
D40*
%TO.C,L3*%
X60592000Y-19664000D03*
X60592000Y-22464000D03*
%TD*%
D11*
%TO.C,U5*%
X24079500Y-13264000D03*
X24079500Y-11364000D03*
X21804500Y-12314000D03*
%TD*%
%TO.C,U2*%
X19682979Y-16399343D03*
X19682979Y-15449343D03*
X19682979Y-14499343D03*
X17407979Y-14499343D03*
X17407979Y-16399343D03*
%TD*%
D10*
%TO.C,D35*%
X46952879Y-55410843D03*
X46952879Y-54310843D03*
X48782879Y-54310843D03*
X48782879Y-55410843D03*
%TD*%
%TO.C,D26*%
X29782879Y-93410843D03*
X29782879Y-92310843D03*
X27952879Y-92310843D03*
X27952879Y-93410843D03*
%TD*%
D12*
%TO.C,D19*%
X49565879Y-38766843D03*
X46765879Y-38766843D03*
%TD*%
D10*
%TO.C,D31*%
X47207879Y-74568343D03*
X47207879Y-73468343D03*
X49037879Y-73468343D03*
X49037879Y-74568343D03*
%TD*%
D16*
%TO.C,R9*%
X19285979Y-18126643D03*
X17285979Y-18126643D03*
%TD*%
D13*
%TO.C,R1*%
X18192000Y-25264000D03*
X20192000Y-25264000D03*
%TD*%
D12*
%TO.C,D14*%
X30015879Y-57716843D03*
X27215879Y-57716843D03*
%TD*%
%TO.C,D17*%
X11265879Y-38366843D03*
X8465879Y-38366843D03*
%TD*%
D41*
%TO.C,C4*%
X42165879Y-3116843D03*
X40265879Y-3116843D03*
%TD*%
D12*
%TO.C,D15*%
X49265879Y-57716843D03*
X46465879Y-57716843D03*
%TD*%
D16*
%TO.C,R7*%
X27642000Y-9664000D03*
X25642000Y-9664000D03*
%TD*%
D12*
%TO.C,D7*%
X49415879Y-95416843D03*
X46615879Y-95416843D03*
%TD*%
%TO.C,D3*%
X49415879Y-114416843D03*
X46615879Y-114416843D03*
%TD*%
D42*
%TO.C,J1*%
X40757879Y-12530843D03*
X40757879Y-13030843D03*
X40757879Y-13530843D03*
X40757879Y-14030843D03*
X40757879Y-14530843D03*
X40757879Y-15030843D03*
X40757879Y-15530843D03*
X40757879Y-16030843D03*
X40757879Y-16530843D03*
X40757879Y-17030843D03*
X40757879Y-17530843D03*
X40757879Y-18030843D03*
X40757879Y-18530843D03*
X40757879Y-19030843D03*
D43*
X37507879Y-10630843D03*
X37507879Y-20930843D03*
%TD*%
D16*
%TO.C,R6*%
X42215879Y-5116843D03*
X40215879Y-5116843D03*
%TD*%
D19*
%TO.C,C21*%
X54792000Y-20664000D03*
X54792000Y-22564000D03*
%TD*%
D10*
%TO.C,D29*%
X10787879Y-74468343D03*
X10787879Y-73368343D03*
X8957879Y-73368343D03*
X8957879Y-74468343D03*
%TD*%
D37*
%TO.C,R14*%
X41976679Y853557D03*
X41976679Y-1146443D03*
%TD*%
D19*
%TO.C,C20*%
X63192000Y-20714000D03*
X63192000Y-22614000D03*
%TD*%
D17*
%TO.C,C16*%
X38192000Y-56155843D03*
X38192000Y-54080843D03*
%TD*%
D10*
%TO.C,D32*%
X66207879Y-74568343D03*
X66207879Y-73468343D03*
X68037879Y-73468343D03*
X68037879Y-74568343D03*
%TD*%
D20*
%TO.C,Q2*%
X31829500Y-13264000D03*
X31829500Y-11364000D03*
X29954500Y-12314000D03*
%TD*%
D10*
%TO.C,D24*%
X66202879Y-112310843D03*
X66202879Y-111210843D03*
X68032879Y-111210843D03*
X68032879Y-112310843D03*
%TD*%
%TO.C,D28*%
X66202879Y-93310843D03*
X66202879Y-92210843D03*
X68032879Y-92210843D03*
X68032879Y-93310843D03*
%TD*%
%TO.C,D27*%
X47202879Y-93310843D03*
X47202879Y-92210843D03*
X49032879Y-92210843D03*
X49032879Y-93310843D03*
%TD*%
%TO.C,D25*%
X8952879Y-93310843D03*
X8952879Y-92210843D03*
X10782879Y-92210843D03*
X10782879Y-93310843D03*
%TD*%
%TO.C,D23*%
X47122879Y-112310843D03*
X47122879Y-111210843D03*
X48952879Y-111210843D03*
X48952879Y-112310843D03*
%TD*%
%TO.C,D22*%
X29867879Y-112310843D03*
X29867879Y-111210843D03*
X28037879Y-111210843D03*
X28037879Y-112310843D03*
%TD*%
M02*
