%TF.GenerationSoftware,KiCad,Pcbnew,8.0.8-8.0.8-0~ubuntu22.04.1*%
%TF.CreationDate,2025-02-03T23:53:40+00:00*%
%TF.ProjectId,numcalcium,6e756d63-616c-4636-9975-6d2e6b696361,rev?*%
%TF.SameCoordinates,Original*%
%TF.FileFunction,Legend,Top*%
%TF.FilePolarity,Positive*%
%FSLAX46Y46*%
G04 Gerber Fmt 4.6, Leading zero omitted, Abs format (unit mm)*
G04 Created by KiCad (PCBNEW 8.0.8-8.0.8-0~ubuntu22.04.1) date 2025-02-03 23:53:40*
%MOMM*%
%LPD*%
G01*
G04 APERTURE LIST*
%ADD10C,0.125000*%
%ADD11C,0.211666*%
%ADD12C,0.150000*%
%ADD13C,0.350000*%
%ADD14C,0.375000*%
%ADD15C,0.250000*%
%ADD16C,0.120000*%
G04 APERTURE END LIST*
D10*
X27867190Y-15921142D02*
X28367190Y-15921142D01*
X28367190Y-15921142D02*
X27867190Y-16206856D01*
X27867190Y-16206856D02*
X28367190Y-16206856D01*
X21916809Y-8494952D02*
X21416809Y-8494952D01*
X21416809Y-8494952D02*
X21416809Y-8304476D01*
X21416809Y-8304476D02*
X21440619Y-8256857D01*
X21440619Y-8256857D02*
X21464428Y-8233047D01*
X21464428Y-8233047D02*
X21512047Y-8209238D01*
X21512047Y-8209238D02*
X21583476Y-8209238D01*
X21583476Y-8209238D02*
X21631095Y-8233047D01*
X21631095Y-8233047D02*
X21654904Y-8256857D01*
X21654904Y-8256857D02*
X21678714Y-8304476D01*
X21678714Y-8304476D02*
X21678714Y-8494952D01*
X32316809Y-12306857D02*
X31816809Y-12306857D01*
X31816809Y-12306857D02*
X32316809Y-12021143D01*
X32316809Y-12021143D02*
X31816809Y-12021143D01*
X28516809Y-12394952D02*
X28016809Y-12394952D01*
X28016809Y-12394952D02*
X28016809Y-12204476D01*
X28016809Y-12204476D02*
X28040619Y-12156857D01*
X28040619Y-12156857D02*
X28064428Y-12133047D01*
X28064428Y-12133047D02*
X28112047Y-12109238D01*
X28112047Y-12109238D02*
X28183476Y-12109238D01*
X28183476Y-12109238D02*
X28231095Y-12133047D01*
X28231095Y-12133047D02*
X28254904Y-12156857D01*
X28254904Y-12156857D02*
X28278714Y-12204476D01*
X28278714Y-12204476D02*
X28278714Y-12394952D01*
X22716809Y-13633046D02*
X23216809Y-13299713D01*
X22716809Y-13299713D02*
X23216809Y-13633046D01*
X23169190Y-12823523D02*
X23193000Y-12847332D01*
X23193000Y-12847332D02*
X23216809Y-12918761D01*
X23216809Y-12918761D02*
X23216809Y-12966380D01*
X23216809Y-12966380D02*
X23193000Y-13037808D01*
X23193000Y-13037808D02*
X23145380Y-13085427D01*
X23145380Y-13085427D02*
X23097761Y-13109237D01*
X23097761Y-13109237D02*
X23002523Y-13133046D01*
X23002523Y-13133046D02*
X22931095Y-13133046D01*
X22931095Y-13133046D02*
X22835857Y-13109237D01*
X22835857Y-13109237D02*
X22788238Y-13085427D01*
X22788238Y-13085427D02*
X22740619Y-13037808D01*
X22740619Y-13037808D02*
X22716809Y-12966380D01*
X22716809Y-12966380D02*
X22716809Y-12918761D01*
X22716809Y-12918761D02*
X22740619Y-12847332D01*
X22740619Y-12847332D02*
X22764428Y-12823523D01*
X22716809Y-12394951D02*
X22716809Y-12490189D01*
X22716809Y-12490189D02*
X22740619Y-12537808D01*
X22740619Y-12537808D02*
X22764428Y-12561618D01*
X22764428Y-12561618D02*
X22835857Y-12609237D01*
X22835857Y-12609237D02*
X22931095Y-12633046D01*
X22931095Y-12633046D02*
X23121571Y-12633046D01*
X23121571Y-12633046D02*
X23169190Y-12609237D01*
X23169190Y-12609237D02*
X23193000Y-12585427D01*
X23193000Y-12585427D02*
X23216809Y-12537808D01*
X23216809Y-12537808D02*
X23216809Y-12442570D01*
X23216809Y-12442570D02*
X23193000Y-12394951D01*
X23193000Y-12394951D02*
X23169190Y-12371142D01*
X23169190Y-12371142D02*
X23121571Y-12347332D01*
X23121571Y-12347332D02*
X23002523Y-12347332D01*
X23002523Y-12347332D02*
X22954904Y-12371142D01*
X22954904Y-12371142D02*
X22931095Y-12394951D01*
X22931095Y-12394951D02*
X22907285Y-12442570D01*
X22907285Y-12442570D02*
X22907285Y-12537808D01*
X22907285Y-12537808D02*
X22931095Y-12585427D01*
X22931095Y-12585427D02*
X22954904Y-12609237D01*
X22954904Y-12609237D02*
X23002523Y-12633046D01*
X22764428Y-12156856D02*
X22740619Y-12133047D01*
X22740619Y-12133047D02*
X22716809Y-12085428D01*
X22716809Y-12085428D02*
X22716809Y-11966380D01*
X22716809Y-11966380D02*
X22740619Y-11918761D01*
X22740619Y-11918761D02*
X22764428Y-11894952D01*
X22764428Y-11894952D02*
X22812047Y-11871142D01*
X22812047Y-11871142D02*
X22859666Y-11871142D01*
X22859666Y-11871142D02*
X22931095Y-11894952D01*
X22931095Y-11894952D02*
X23216809Y-12180666D01*
X23216809Y-12180666D02*
X23216809Y-11871142D01*
X22716809Y-11561619D02*
X22716809Y-11514000D01*
X22716809Y-11514000D02*
X22740619Y-11466381D01*
X22740619Y-11466381D02*
X22764428Y-11442571D01*
X22764428Y-11442571D02*
X22812047Y-11418762D01*
X22812047Y-11418762D02*
X22907285Y-11394952D01*
X22907285Y-11394952D02*
X23026333Y-11394952D01*
X23026333Y-11394952D02*
X23121571Y-11418762D01*
X23121571Y-11418762D02*
X23169190Y-11442571D01*
X23169190Y-11442571D02*
X23193000Y-11466381D01*
X23193000Y-11466381D02*
X23216809Y-11514000D01*
X23216809Y-11514000D02*
X23216809Y-11561619D01*
X23216809Y-11561619D02*
X23193000Y-11609238D01*
X23193000Y-11609238D02*
X23169190Y-11633047D01*
X23169190Y-11633047D02*
X23121571Y-11656857D01*
X23121571Y-11656857D02*
X23026333Y-11680666D01*
X23026333Y-11680666D02*
X22907285Y-11680666D01*
X22907285Y-11680666D02*
X22812047Y-11656857D01*
X22812047Y-11656857D02*
X22764428Y-11633047D01*
X22764428Y-11633047D02*
X22740619Y-11609238D01*
X22740619Y-11609238D02*
X22716809Y-11561619D01*
X22716809Y-10966381D02*
X22716809Y-11061619D01*
X22716809Y-11061619D02*
X22740619Y-11109238D01*
X22740619Y-11109238D02*
X22764428Y-11133048D01*
X22764428Y-11133048D02*
X22835857Y-11180667D01*
X22835857Y-11180667D02*
X22931095Y-11204476D01*
X22931095Y-11204476D02*
X23121571Y-11204476D01*
X23121571Y-11204476D02*
X23169190Y-11180667D01*
X23169190Y-11180667D02*
X23193000Y-11156857D01*
X23193000Y-11156857D02*
X23216809Y-11109238D01*
X23216809Y-11109238D02*
X23216809Y-11014000D01*
X23216809Y-11014000D02*
X23193000Y-10966381D01*
X23193000Y-10966381D02*
X23169190Y-10942572D01*
X23169190Y-10942572D02*
X23121571Y-10918762D01*
X23121571Y-10918762D02*
X23002523Y-10918762D01*
X23002523Y-10918762D02*
X22954904Y-10942572D01*
X22954904Y-10942572D02*
X22931095Y-10966381D01*
X22931095Y-10966381D02*
X22907285Y-11014000D01*
X22907285Y-11014000D02*
X22907285Y-11109238D01*
X22907285Y-11109238D02*
X22931095Y-11156857D01*
X22931095Y-11156857D02*
X22954904Y-11180667D01*
X22954904Y-11180667D02*
X23002523Y-11204476D01*
X70484857Y-21488809D02*
X70484857Y-20988809D01*
X70484857Y-20988809D02*
X70603905Y-20988809D01*
X70603905Y-20988809D02*
X70675333Y-21012619D01*
X70675333Y-21012619D02*
X70722952Y-21060238D01*
X70722952Y-21060238D02*
X70746762Y-21107857D01*
X70746762Y-21107857D02*
X70770571Y-21203095D01*
X70770571Y-21203095D02*
X70770571Y-21274523D01*
X70770571Y-21274523D02*
X70746762Y-21369761D01*
X70746762Y-21369761D02*
X70722952Y-21417380D01*
X70722952Y-21417380D02*
X70675333Y-21465000D01*
X70675333Y-21465000D02*
X70603905Y-21488809D01*
X70603905Y-21488809D02*
X70484857Y-21488809D01*
X71199143Y-21155476D02*
X71199143Y-21488809D01*
X71080095Y-20965000D02*
X70961048Y-21322142D01*
X70961048Y-21322142D02*
X71270571Y-21322142D01*
X71675333Y-20988809D02*
X71580095Y-20988809D01*
X71580095Y-20988809D02*
X71532476Y-21012619D01*
X71532476Y-21012619D02*
X71508666Y-21036428D01*
X71508666Y-21036428D02*
X71461047Y-21107857D01*
X71461047Y-21107857D02*
X71437238Y-21203095D01*
X71437238Y-21203095D02*
X71437238Y-21393571D01*
X71437238Y-21393571D02*
X71461047Y-21441190D01*
X71461047Y-21441190D02*
X71484857Y-21465000D01*
X71484857Y-21465000D02*
X71532476Y-21488809D01*
X71532476Y-21488809D02*
X71627714Y-21488809D01*
X71627714Y-21488809D02*
X71675333Y-21465000D01*
X71675333Y-21465000D02*
X71699142Y-21441190D01*
X71699142Y-21441190D02*
X71722952Y-21393571D01*
X71722952Y-21393571D02*
X71722952Y-21274523D01*
X71722952Y-21274523D02*
X71699142Y-21226904D01*
X71699142Y-21226904D02*
X71675333Y-21203095D01*
X71675333Y-21203095D02*
X71627714Y-21179285D01*
X71627714Y-21179285D02*
X71532476Y-21179285D01*
X71532476Y-21179285D02*
X71484857Y-21203095D01*
X71484857Y-21203095D02*
X71461047Y-21226904D01*
X71461047Y-21226904D02*
X71437238Y-21274523D01*
X68284857Y-21488809D02*
X68284857Y-20988809D01*
X68284857Y-20988809D02*
X68403905Y-20988809D01*
X68403905Y-20988809D02*
X68475333Y-21012619D01*
X68475333Y-21012619D02*
X68522952Y-21060238D01*
X68522952Y-21060238D02*
X68546762Y-21107857D01*
X68546762Y-21107857D02*
X68570571Y-21203095D01*
X68570571Y-21203095D02*
X68570571Y-21274523D01*
X68570571Y-21274523D02*
X68546762Y-21369761D01*
X68546762Y-21369761D02*
X68522952Y-21417380D01*
X68522952Y-21417380D02*
X68475333Y-21465000D01*
X68475333Y-21465000D02*
X68403905Y-21488809D01*
X68403905Y-21488809D02*
X68284857Y-21488809D01*
X68999143Y-21155476D02*
X68999143Y-21488809D01*
X68880095Y-20965000D02*
X68761048Y-21322142D01*
X68761048Y-21322142D02*
X69070571Y-21322142D01*
X69499142Y-20988809D02*
X69261047Y-20988809D01*
X69261047Y-20988809D02*
X69237238Y-21226904D01*
X69237238Y-21226904D02*
X69261047Y-21203095D01*
X69261047Y-21203095D02*
X69308666Y-21179285D01*
X69308666Y-21179285D02*
X69427714Y-21179285D01*
X69427714Y-21179285D02*
X69475333Y-21203095D01*
X69475333Y-21203095D02*
X69499142Y-21226904D01*
X69499142Y-21226904D02*
X69522952Y-21274523D01*
X69522952Y-21274523D02*
X69522952Y-21393571D01*
X69522952Y-21393571D02*
X69499142Y-21441190D01*
X69499142Y-21441190D02*
X69475333Y-21465000D01*
X69475333Y-21465000D02*
X69427714Y-21488809D01*
X69427714Y-21488809D02*
X69308666Y-21488809D01*
X69308666Y-21488809D02*
X69261047Y-21465000D01*
X69261047Y-21465000D02*
X69237238Y-21441190D01*
X65808667Y-20255476D02*
X65808667Y-20588809D01*
X65689619Y-20065000D02*
X65570572Y-20422142D01*
X65570572Y-20422142D02*
X65880095Y-20422142D01*
X66022952Y-20088809D02*
X66356285Y-20088809D01*
X66356285Y-20088809D02*
X66142000Y-20588809D01*
X66641999Y-20088809D02*
X66689618Y-20088809D01*
X66689618Y-20088809D02*
X66737237Y-20112619D01*
X66737237Y-20112619D02*
X66761047Y-20136428D01*
X66761047Y-20136428D02*
X66784856Y-20184047D01*
X66784856Y-20184047D02*
X66808666Y-20279285D01*
X66808666Y-20279285D02*
X66808666Y-20398333D01*
X66808666Y-20398333D02*
X66784856Y-20493571D01*
X66784856Y-20493571D02*
X66761047Y-20541190D01*
X66761047Y-20541190D02*
X66737237Y-20565000D01*
X66737237Y-20565000D02*
X66689618Y-20588809D01*
X66689618Y-20588809D02*
X66641999Y-20588809D01*
X66641999Y-20588809D02*
X66594380Y-20565000D01*
X66594380Y-20565000D02*
X66570571Y-20541190D01*
X66570571Y-20541190D02*
X66546761Y-20493571D01*
X66546761Y-20493571D02*
X66522952Y-20398333D01*
X66522952Y-20398333D02*
X66522952Y-20279285D01*
X66522952Y-20279285D02*
X66546761Y-20184047D01*
X66546761Y-20184047D02*
X66570571Y-20136428D01*
X66570571Y-20136428D02*
X66594380Y-20112619D01*
X66594380Y-20112619D02*
X66641999Y-20088809D01*
X67022951Y-20588809D02*
X67022951Y-20088809D01*
X67070570Y-20398333D02*
X67213427Y-20588809D01*
X67213427Y-20255476D02*
X67022951Y-20445952D01*
X59722953Y-23555476D02*
X59722953Y-23888809D01*
X59603905Y-23365000D02*
X59484858Y-23722142D01*
X59484858Y-23722142D02*
X59794381Y-23722142D01*
X59937238Y-23388809D02*
X60270571Y-23388809D01*
X60270571Y-23388809D02*
X60056286Y-23888809D01*
X60556285Y-23388809D02*
X60603904Y-23388809D01*
X60603904Y-23388809D02*
X60651523Y-23412619D01*
X60651523Y-23412619D02*
X60675333Y-23436428D01*
X60675333Y-23436428D02*
X60699142Y-23484047D01*
X60699142Y-23484047D02*
X60722952Y-23579285D01*
X60722952Y-23579285D02*
X60722952Y-23698333D01*
X60722952Y-23698333D02*
X60699142Y-23793571D01*
X60699142Y-23793571D02*
X60675333Y-23841190D01*
X60675333Y-23841190D02*
X60651523Y-23865000D01*
X60651523Y-23865000D02*
X60603904Y-23888809D01*
X60603904Y-23888809D02*
X60556285Y-23888809D01*
X60556285Y-23888809D02*
X60508666Y-23865000D01*
X60508666Y-23865000D02*
X60484857Y-23841190D01*
X60484857Y-23841190D02*
X60461047Y-23793571D01*
X60461047Y-23793571D02*
X60437238Y-23698333D01*
X60437238Y-23698333D02*
X60437238Y-23579285D01*
X60437238Y-23579285D02*
X60461047Y-23484047D01*
X60461047Y-23484047D02*
X60484857Y-23436428D01*
X60484857Y-23436428D02*
X60508666Y-23412619D01*
X60508666Y-23412619D02*
X60556285Y-23388809D01*
X61151523Y-23555476D02*
X61151523Y-23888809D01*
X60937237Y-23555476D02*
X60937237Y-23817380D01*
X60937237Y-23817380D02*
X60961047Y-23865000D01*
X60961047Y-23865000D02*
X61008666Y-23888809D01*
X61008666Y-23888809D02*
X61080094Y-23888809D01*
X61080094Y-23888809D02*
X61127713Y-23865000D01*
X61127713Y-23865000D02*
X61151523Y-23841190D01*
X61389618Y-23888809D02*
X61389618Y-23388809D01*
X61389618Y-23626904D02*
X61675332Y-23626904D01*
X61675332Y-23888809D02*
X61675332Y-23388809D01*
X56622953Y-23555476D02*
X56622953Y-23888809D01*
X56503905Y-23365000D02*
X56384858Y-23722142D01*
X56384858Y-23722142D02*
X56694381Y-23722142D01*
X56837238Y-23388809D02*
X57170571Y-23388809D01*
X57170571Y-23388809D02*
X56956286Y-23888809D01*
X57456285Y-23388809D02*
X57503904Y-23388809D01*
X57503904Y-23388809D02*
X57551523Y-23412619D01*
X57551523Y-23412619D02*
X57575333Y-23436428D01*
X57575333Y-23436428D02*
X57599142Y-23484047D01*
X57599142Y-23484047D02*
X57622952Y-23579285D01*
X57622952Y-23579285D02*
X57622952Y-23698333D01*
X57622952Y-23698333D02*
X57599142Y-23793571D01*
X57599142Y-23793571D02*
X57575333Y-23841190D01*
X57575333Y-23841190D02*
X57551523Y-23865000D01*
X57551523Y-23865000D02*
X57503904Y-23888809D01*
X57503904Y-23888809D02*
X57456285Y-23888809D01*
X57456285Y-23888809D02*
X57408666Y-23865000D01*
X57408666Y-23865000D02*
X57384857Y-23841190D01*
X57384857Y-23841190D02*
X57361047Y-23793571D01*
X57361047Y-23793571D02*
X57337238Y-23698333D01*
X57337238Y-23698333D02*
X57337238Y-23579285D01*
X57337238Y-23579285D02*
X57361047Y-23484047D01*
X57361047Y-23484047D02*
X57384857Y-23436428D01*
X57384857Y-23436428D02*
X57408666Y-23412619D01*
X57408666Y-23412619D02*
X57456285Y-23388809D01*
X58051523Y-23555476D02*
X58051523Y-23888809D01*
X57837237Y-23555476D02*
X57837237Y-23817380D01*
X57837237Y-23817380D02*
X57861047Y-23865000D01*
X57861047Y-23865000D02*
X57908666Y-23888809D01*
X57908666Y-23888809D02*
X57980094Y-23888809D01*
X57980094Y-23888809D02*
X58027713Y-23865000D01*
X58027713Y-23865000D02*
X58051523Y-23841190D01*
X58289618Y-23888809D02*
X58289618Y-23388809D01*
X58289618Y-23626904D02*
X58575332Y-23626904D01*
X58575332Y-23888809D02*
X58575332Y-23388809D01*
X62532477Y-23436428D02*
X62556286Y-23412619D01*
X62556286Y-23412619D02*
X62603905Y-23388809D01*
X62603905Y-23388809D02*
X62722953Y-23388809D01*
X62722953Y-23388809D02*
X62770572Y-23412619D01*
X62770572Y-23412619D02*
X62794381Y-23436428D01*
X62794381Y-23436428D02*
X62818191Y-23484047D01*
X62818191Y-23484047D02*
X62818191Y-23531666D01*
X62818191Y-23531666D02*
X62794381Y-23603095D01*
X62794381Y-23603095D02*
X62508667Y-23888809D01*
X62508667Y-23888809D02*
X62818191Y-23888809D01*
X63008667Y-23436428D02*
X63032476Y-23412619D01*
X63032476Y-23412619D02*
X63080095Y-23388809D01*
X63080095Y-23388809D02*
X63199143Y-23388809D01*
X63199143Y-23388809D02*
X63246762Y-23412619D01*
X63246762Y-23412619D02*
X63270571Y-23436428D01*
X63270571Y-23436428D02*
X63294381Y-23484047D01*
X63294381Y-23484047D02*
X63294381Y-23531666D01*
X63294381Y-23531666D02*
X63270571Y-23603095D01*
X63270571Y-23603095D02*
X62984857Y-23888809D01*
X62984857Y-23888809D02*
X63294381Y-23888809D01*
X63603904Y-23388809D02*
X63651523Y-23388809D01*
X63651523Y-23388809D02*
X63699142Y-23412619D01*
X63699142Y-23412619D02*
X63722952Y-23436428D01*
X63722952Y-23436428D02*
X63746761Y-23484047D01*
X63746761Y-23484047D02*
X63770571Y-23579285D01*
X63770571Y-23579285D02*
X63770571Y-23698333D01*
X63770571Y-23698333D02*
X63746761Y-23793571D01*
X63746761Y-23793571D02*
X63722952Y-23841190D01*
X63722952Y-23841190D02*
X63699142Y-23865000D01*
X63699142Y-23865000D02*
X63651523Y-23888809D01*
X63651523Y-23888809D02*
X63603904Y-23888809D01*
X63603904Y-23888809D02*
X63556285Y-23865000D01*
X63556285Y-23865000D02*
X63532476Y-23841190D01*
X63532476Y-23841190D02*
X63508666Y-23793571D01*
X63508666Y-23793571D02*
X63484857Y-23698333D01*
X63484857Y-23698333D02*
X63484857Y-23579285D01*
X63484857Y-23579285D02*
X63508666Y-23484047D01*
X63508666Y-23484047D02*
X63532476Y-23436428D01*
X63532476Y-23436428D02*
X63556285Y-23412619D01*
X63556285Y-23412619D02*
X63603904Y-23388809D01*
X63984856Y-23555476D02*
X63984856Y-23888809D01*
X63984856Y-23603095D02*
X64008666Y-23579285D01*
X64008666Y-23579285D02*
X64056285Y-23555476D01*
X64056285Y-23555476D02*
X64127713Y-23555476D01*
X64127713Y-23555476D02*
X64175332Y-23579285D01*
X64175332Y-23579285D02*
X64199142Y-23626904D01*
X64199142Y-23626904D02*
X64199142Y-23888809D01*
X64603904Y-23626904D02*
X64437237Y-23626904D01*
X64437237Y-23888809D02*
X64437237Y-23388809D01*
X64437237Y-23388809D02*
X64675332Y-23388809D01*
X53332477Y-23436428D02*
X53356286Y-23412619D01*
X53356286Y-23412619D02*
X53403905Y-23388809D01*
X53403905Y-23388809D02*
X53522953Y-23388809D01*
X53522953Y-23388809D02*
X53570572Y-23412619D01*
X53570572Y-23412619D02*
X53594381Y-23436428D01*
X53594381Y-23436428D02*
X53618191Y-23484047D01*
X53618191Y-23484047D02*
X53618191Y-23531666D01*
X53618191Y-23531666D02*
X53594381Y-23603095D01*
X53594381Y-23603095D02*
X53308667Y-23888809D01*
X53308667Y-23888809D02*
X53618191Y-23888809D01*
X53808667Y-23436428D02*
X53832476Y-23412619D01*
X53832476Y-23412619D02*
X53880095Y-23388809D01*
X53880095Y-23388809D02*
X53999143Y-23388809D01*
X53999143Y-23388809D02*
X54046762Y-23412619D01*
X54046762Y-23412619D02*
X54070571Y-23436428D01*
X54070571Y-23436428D02*
X54094381Y-23484047D01*
X54094381Y-23484047D02*
X54094381Y-23531666D01*
X54094381Y-23531666D02*
X54070571Y-23603095D01*
X54070571Y-23603095D02*
X53784857Y-23888809D01*
X53784857Y-23888809D02*
X54094381Y-23888809D01*
X54403904Y-23388809D02*
X54451523Y-23388809D01*
X54451523Y-23388809D02*
X54499142Y-23412619D01*
X54499142Y-23412619D02*
X54522952Y-23436428D01*
X54522952Y-23436428D02*
X54546761Y-23484047D01*
X54546761Y-23484047D02*
X54570571Y-23579285D01*
X54570571Y-23579285D02*
X54570571Y-23698333D01*
X54570571Y-23698333D02*
X54546761Y-23793571D01*
X54546761Y-23793571D02*
X54522952Y-23841190D01*
X54522952Y-23841190D02*
X54499142Y-23865000D01*
X54499142Y-23865000D02*
X54451523Y-23888809D01*
X54451523Y-23888809D02*
X54403904Y-23888809D01*
X54403904Y-23888809D02*
X54356285Y-23865000D01*
X54356285Y-23865000D02*
X54332476Y-23841190D01*
X54332476Y-23841190D02*
X54308666Y-23793571D01*
X54308666Y-23793571D02*
X54284857Y-23698333D01*
X54284857Y-23698333D02*
X54284857Y-23579285D01*
X54284857Y-23579285D02*
X54308666Y-23484047D01*
X54308666Y-23484047D02*
X54332476Y-23436428D01*
X54332476Y-23436428D02*
X54356285Y-23412619D01*
X54356285Y-23412619D02*
X54403904Y-23388809D01*
X54784856Y-23555476D02*
X54784856Y-23888809D01*
X54784856Y-23603095D02*
X54808666Y-23579285D01*
X54808666Y-23579285D02*
X54856285Y-23555476D01*
X54856285Y-23555476D02*
X54927713Y-23555476D01*
X54927713Y-23555476D02*
X54975332Y-23579285D01*
X54975332Y-23579285D02*
X54999142Y-23626904D01*
X54999142Y-23626904D02*
X54999142Y-23888809D01*
X55403904Y-23626904D02*
X55237237Y-23626904D01*
X55237237Y-23888809D02*
X55237237Y-23388809D01*
X55237237Y-23388809D02*
X55475332Y-23388809D01*
X31964428Y-22185427D02*
X31940619Y-22161618D01*
X31940619Y-22161618D02*
X31916809Y-22113999D01*
X31916809Y-22113999D02*
X31916809Y-21994951D01*
X31916809Y-21994951D02*
X31940619Y-21947332D01*
X31940619Y-21947332D02*
X31964428Y-21923523D01*
X31964428Y-21923523D02*
X32012047Y-21899713D01*
X32012047Y-21899713D02*
X32059666Y-21899713D01*
X32059666Y-21899713D02*
X32131095Y-21923523D01*
X32131095Y-21923523D02*
X32416809Y-22209237D01*
X32416809Y-22209237D02*
X32416809Y-21899713D01*
X31964428Y-21709237D02*
X31940619Y-21685428D01*
X31940619Y-21685428D02*
X31916809Y-21637809D01*
X31916809Y-21637809D02*
X31916809Y-21518761D01*
X31916809Y-21518761D02*
X31940619Y-21471142D01*
X31940619Y-21471142D02*
X31964428Y-21447333D01*
X31964428Y-21447333D02*
X32012047Y-21423523D01*
X32012047Y-21423523D02*
X32059666Y-21423523D01*
X32059666Y-21423523D02*
X32131095Y-21447333D01*
X32131095Y-21447333D02*
X32416809Y-21733047D01*
X32416809Y-21733047D02*
X32416809Y-21423523D01*
X32083476Y-20994952D02*
X32416809Y-20994952D01*
X32083476Y-21209238D02*
X32345380Y-21209238D01*
X32345380Y-21209238D02*
X32393000Y-21185428D01*
X32393000Y-21185428D02*
X32416809Y-21137809D01*
X32416809Y-21137809D02*
X32416809Y-21066381D01*
X32416809Y-21066381D02*
X32393000Y-21018762D01*
X32393000Y-21018762D02*
X32369190Y-20994952D01*
X32154904Y-20590190D02*
X32154904Y-20756857D01*
X32416809Y-20756857D02*
X31916809Y-20756857D01*
X31916809Y-20756857D02*
X31916809Y-20518762D01*
X31516809Y-18906856D02*
X31516809Y-19192570D01*
X31516809Y-19049713D02*
X31016809Y-19049713D01*
X31016809Y-19049713D02*
X31088238Y-19097332D01*
X31088238Y-19097332D02*
X31135857Y-19144951D01*
X31135857Y-19144951D02*
X31159666Y-19192570D01*
X31516809Y-18692571D02*
X31016809Y-18692571D01*
X31016809Y-18692571D02*
X31373952Y-18525904D01*
X31373952Y-18525904D02*
X31016809Y-18359238D01*
X31016809Y-18359238D02*
X31516809Y-18359238D01*
X28916809Y-9706856D02*
X28916809Y-9992570D01*
X28916809Y-9849713D02*
X28416809Y-9849713D01*
X28416809Y-9849713D02*
X28488238Y-9897332D01*
X28488238Y-9897332D02*
X28535857Y-9944951D01*
X28535857Y-9944951D02*
X28559666Y-9992570D01*
X28916809Y-9492571D02*
X28416809Y-9492571D01*
X28416809Y-9492571D02*
X28773952Y-9325904D01*
X28773952Y-9325904D02*
X28416809Y-9159238D01*
X28416809Y-9159238D02*
X28916809Y-9159238D01*
X38816809Y-7671142D02*
X38816809Y-7361618D01*
X38816809Y-7361618D02*
X39007285Y-7528285D01*
X39007285Y-7528285D02*
X39007285Y-7456856D01*
X39007285Y-7456856D02*
X39031095Y-7409237D01*
X39031095Y-7409237D02*
X39054904Y-7385428D01*
X39054904Y-7385428D02*
X39102523Y-7361618D01*
X39102523Y-7361618D02*
X39221571Y-7361618D01*
X39221571Y-7361618D02*
X39269190Y-7385428D01*
X39269190Y-7385428D02*
X39293000Y-7409237D01*
X39293000Y-7409237D02*
X39316809Y-7456856D01*
X39316809Y-7456856D02*
X39316809Y-7599713D01*
X39316809Y-7599713D02*
X39293000Y-7647332D01*
X39293000Y-7647332D02*
X39269190Y-7671142D01*
X38816809Y-7194952D02*
X38816809Y-6885428D01*
X38816809Y-6885428D02*
X39007285Y-7052095D01*
X39007285Y-7052095D02*
X39007285Y-6980666D01*
X39007285Y-6980666D02*
X39031095Y-6933047D01*
X39031095Y-6933047D02*
X39054904Y-6909238D01*
X39054904Y-6909238D02*
X39102523Y-6885428D01*
X39102523Y-6885428D02*
X39221571Y-6885428D01*
X39221571Y-6885428D02*
X39269190Y-6909238D01*
X39269190Y-6909238D02*
X39293000Y-6933047D01*
X39293000Y-6933047D02*
X39316809Y-6980666D01*
X39316809Y-6980666D02*
X39316809Y-7123523D01*
X39316809Y-7123523D02*
X39293000Y-7171142D01*
X39293000Y-7171142D02*
X39269190Y-7194952D01*
X39316809Y-6671143D02*
X38816809Y-6671143D01*
X39126333Y-6623524D02*
X39316809Y-6480667D01*
X38983476Y-6480667D02*
X39173952Y-6671143D01*
X38816809Y-5671142D02*
X38816809Y-5361618D01*
X38816809Y-5361618D02*
X39007285Y-5528285D01*
X39007285Y-5528285D02*
X39007285Y-5456856D01*
X39007285Y-5456856D02*
X39031095Y-5409237D01*
X39031095Y-5409237D02*
X39054904Y-5385428D01*
X39054904Y-5385428D02*
X39102523Y-5361618D01*
X39102523Y-5361618D02*
X39221571Y-5361618D01*
X39221571Y-5361618D02*
X39269190Y-5385428D01*
X39269190Y-5385428D02*
X39293000Y-5409237D01*
X39293000Y-5409237D02*
X39316809Y-5456856D01*
X39316809Y-5456856D02*
X39316809Y-5599713D01*
X39316809Y-5599713D02*
X39293000Y-5647332D01*
X39293000Y-5647332D02*
X39269190Y-5671142D01*
X38816809Y-5194952D02*
X38816809Y-4885428D01*
X38816809Y-4885428D02*
X39007285Y-5052095D01*
X39007285Y-5052095D02*
X39007285Y-4980666D01*
X39007285Y-4980666D02*
X39031095Y-4933047D01*
X39031095Y-4933047D02*
X39054904Y-4909238D01*
X39054904Y-4909238D02*
X39102523Y-4885428D01*
X39102523Y-4885428D02*
X39221571Y-4885428D01*
X39221571Y-4885428D02*
X39269190Y-4909238D01*
X39269190Y-4909238D02*
X39293000Y-4933047D01*
X39293000Y-4933047D02*
X39316809Y-4980666D01*
X39316809Y-4980666D02*
X39316809Y-5123523D01*
X39316809Y-5123523D02*
X39293000Y-5171142D01*
X39293000Y-5171142D02*
X39269190Y-5194952D01*
X39316809Y-4671143D02*
X38816809Y-4671143D01*
X39126333Y-4623524D02*
X39316809Y-4480667D01*
X38983476Y-4480667D02*
X39173952Y-4671143D01*
X39416809Y-3361618D02*
X39416809Y-3647332D01*
X39416809Y-3504475D02*
X38916809Y-3504475D01*
X38916809Y-3504475D02*
X38988238Y-3552094D01*
X38988238Y-3552094D02*
X39035857Y-3599713D01*
X39035857Y-3599713D02*
X39059666Y-3647332D01*
X39083476Y-2933047D02*
X39416809Y-2933047D01*
X39083476Y-3147333D02*
X39345380Y-3147333D01*
X39345380Y-3147333D02*
X39393000Y-3123523D01*
X39393000Y-3123523D02*
X39416809Y-3075904D01*
X39416809Y-3075904D02*
X39416809Y-3004476D01*
X39416809Y-3004476D02*
X39393000Y-2956857D01*
X39393000Y-2956857D02*
X39369190Y-2933047D01*
X39154904Y-2528285D02*
X39154904Y-2694952D01*
X39416809Y-2694952D02*
X38916809Y-2694952D01*
X38916809Y-2694952D02*
X38916809Y-2456857D01*
X41894381Y1811190D02*
X41608667Y1811190D01*
X41751524Y1811190D02*
X41751524Y2311190D01*
X41751524Y2311190D02*
X41703905Y2239761D01*
X41703905Y2239761D02*
X41656286Y2192142D01*
X41656286Y2192142D02*
X41608667Y2168333D01*
X42203904Y2311190D02*
X42251523Y2311190D01*
X42251523Y2311190D02*
X42299142Y2287380D01*
X42299142Y2287380D02*
X42322952Y2263571D01*
X42322952Y2263571D02*
X42346761Y2215952D01*
X42346761Y2215952D02*
X42370571Y2120714D01*
X42370571Y2120714D02*
X42370571Y2001666D01*
X42370571Y2001666D02*
X42346761Y1906428D01*
X42346761Y1906428D02*
X42322952Y1858809D01*
X42322952Y1858809D02*
X42299142Y1835000D01*
X42299142Y1835000D02*
X42251523Y1811190D01*
X42251523Y1811190D02*
X42203904Y1811190D01*
X42203904Y1811190D02*
X42156285Y1835000D01*
X42156285Y1835000D02*
X42132476Y1858809D01*
X42132476Y1858809D02*
X42108666Y1906428D01*
X42108666Y1906428D02*
X42084857Y2001666D01*
X42084857Y2001666D02*
X42084857Y2120714D01*
X42084857Y2120714D02*
X42108666Y2215952D01*
X42108666Y2215952D02*
X42132476Y2263571D01*
X42132476Y2263571D02*
X42156285Y2287380D01*
X42156285Y2287380D02*
X42203904Y2311190D01*
X42584856Y1811190D02*
X42584856Y2311190D01*
X42632475Y2001666D02*
X42775332Y1811190D01*
X42775332Y2144523D02*
X42584856Y1954047D01*
X39118191Y1811190D02*
X38832477Y1811190D01*
X38975334Y1811190D02*
X38975334Y2311190D01*
X38975334Y2311190D02*
X38927715Y2239761D01*
X38927715Y2239761D02*
X38880096Y2192142D01*
X38880096Y2192142D02*
X38832477Y2168333D01*
X39427714Y2311190D02*
X39475333Y2311190D01*
X39475333Y2311190D02*
X39522952Y2287380D01*
X39522952Y2287380D02*
X39546762Y2263571D01*
X39546762Y2263571D02*
X39570571Y2215952D01*
X39570571Y2215952D02*
X39594381Y2120714D01*
X39594381Y2120714D02*
X39594381Y2001666D01*
X39594381Y2001666D02*
X39570571Y1906428D01*
X39570571Y1906428D02*
X39546762Y1858809D01*
X39546762Y1858809D02*
X39522952Y1835000D01*
X39522952Y1835000D02*
X39475333Y1811190D01*
X39475333Y1811190D02*
X39427714Y1811190D01*
X39427714Y1811190D02*
X39380095Y1835000D01*
X39380095Y1835000D02*
X39356286Y1858809D01*
X39356286Y1858809D02*
X39332476Y1906428D01*
X39332476Y1906428D02*
X39308667Y2001666D01*
X39308667Y2001666D02*
X39308667Y2120714D01*
X39308667Y2120714D02*
X39332476Y2215952D01*
X39332476Y2215952D02*
X39356286Y2263571D01*
X39356286Y2263571D02*
X39380095Y2287380D01*
X39380095Y2287380D02*
X39427714Y2311190D01*
X39903904Y2311190D02*
X39951523Y2311190D01*
X39951523Y2311190D02*
X39999142Y2287380D01*
X39999142Y2287380D02*
X40022952Y2263571D01*
X40022952Y2263571D02*
X40046761Y2215952D01*
X40046761Y2215952D02*
X40070571Y2120714D01*
X40070571Y2120714D02*
X40070571Y2001666D01*
X40070571Y2001666D02*
X40046761Y1906428D01*
X40046761Y1906428D02*
X40022952Y1858809D01*
X40022952Y1858809D02*
X39999142Y1835000D01*
X39999142Y1835000D02*
X39951523Y1811190D01*
X39951523Y1811190D02*
X39903904Y1811190D01*
X39903904Y1811190D02*
X39856285Y1835000D01*
X39856285Y1835000D02*
X39832476Y1858809D01*
X39832476Y1858809D02*
X39808666Y1906428D01*
X39808666Y1906428D02*
X39784857Y2001666D01*
X39784857Y2001666D02*
X39784857Y2120714D01*
X39784857Y2120714D02*
X39808666Y2215952D01*
X39808666Y2215952D02*
X39832476Y2263571D01*
X39832476Y2263571D02*
X39856285Y2287380D01*
X39856285Y2287380D02*
X39903904Y2311190D01*
X40284856Y2144523D02*
X40284856Y1811190D01*
X40284856Y2096904D02*
X40308666Y2120714D01*
X40308666Y2120714D02*
X40356285Y2144523D01*
X40356285Y2144523D02*
X40427713Y2144523D01*
X40427713Y2144523D02*
X40475332Y2120714D01*
X40475332Y2120714D02*
X40499142Y2073095D01*
X40499142Y2073095D02*
X40499142Y1811190D01*
X40903904Y2073095D02*
X40737237Y2073095D01*
X40737237Y1811190D02*
X40737237Y2311190D01*
X40737237Y2311190D02*
X40975332Y2311190D01*
X36094381Y1711190D02*
X35808667Y1711190D01*
X35951524Y1711190D02*
X35951524Y2211190D01*
X35951524Y2211190D02*
X35903905Y2139761D01*
X35903905Y2139761D02*
X35856286Y2092142D01*
X35856286Y2092142D02*
X35808667Y2068333D01*
X36522952Y2044523D02*
X36522952Y1711190D01*
X36308666Y2044523D02*
X36308666Y1782619D01*
X36308666Y1782619D02*
X36332476Y1735000D01*
X36332476Y1735000D02*
X36380095Y1711190D01*
X36380095Y1711190D02*
X36451523Y1711190D01*
X36451523Y1711190D02*
X36499142Y1735000D01*
X36499142Y1735000D02*
X36522952Y1758809D01*
X36927714Y1973095D02*
X36761047Y1973095D01*
X36761047Y1711190D02*
X36761047Y2211190D01*
X36761047Y2211190D02*
X36999142Y2211190D01*
X33432477Y-6736428D02*
X33456286Y-6712619D01*
X33456286Y-6712619D02*
X33503905Y-6688809D01*
X33503905Y-6688809D02*
X33622953Y-6688809D01*
X33622953Y-6688809D02*
X33670572Y-6712619D01*
X33670572Y-6712619D02*
X33694381Y-6736428D01*
X33694381Y-6736428D02*
X33718191Y-6784047D01*
X33718191Y-6784047D02*
X33718191Y-6831666D01*
X33718191Y-6831666D02*
X33694381Y-6903095D01*
X33694381Y-6903095D02*
X33408667Y-7188809D01*
X33408667Y-7188809D02*
X33718191Y-7188809D01*
X33908667Y-6736428D02*
X33932476Y-6712619D01*
X33932476Y-6712619D02*
X33980095Y-6688809D01*
X33980095Y-6688809D02*
X34099143Y-6688809D01*
X34099143Y-6688809D02*
X34146762Y-6712619D01*
X34146762Y-6712619D02*
X34170571Y-6736428D01*
X34170571Y-6736428D02*
X34194381Y-6784047D01*
X34194381Y-6784047D02*
X34194381Y-6831666D01*
X34194381Y-6831666D02*
X34170571Y-6903095D01*
X34170571Y-6903095D02*
X33884857Y-7188809D01*
X33884857Y-7188809D02*
X34194381Y-7188809D01*
X34503904Y-6688809D02*
X34551523Y-6688809D01*
X34551523Y-6688809D02*
X34599142Y-6712619D01*
X34599142Y-6712619D02*
X34622952Y-6736428D01*
X34622952Y-6736428D02*
X34646761Y-6784047D01*
X34646761Y-6784047D02*
X34670571Y-6879285D01*
X34670571Y-6879285D02*
X34670571Y-6998333D01*
X34670571Y-6998333D02*
X34646761Y-7093571D01*
X34646761Y-7093571D02*
X34622952Y-7141190D01*
X34622952Y-7141190D02*
X34599142Y-7165000D01*
X34599142Y-7165000D02*
X34551523Y-7188809D01*
X34551523Y-7188809D02*
X34503904Y-7188809D01*
X34503904Y-7188809D02*
X34456285Y-7165000D01*
X34456285Y-7165000D02*
X34432476Y-7141190D01*
X34432476Y-7141190D02*
X34408666Y-7093571D01*
X34408666Y-7093571D02*
X34384857Y-6998333D01*
X34384857Y-6998333D02*
X34384857Y-6879285D01*
X34384857Y-6879285D02*
X34408666Y-6784047D01*
X34408666Y-6784047D02*
X34432476Y-6736428D01*
X34432476Y-6736428D02*
X34456285Y-6712619D01*
X34456285Y-6712619D02*
X34503904Y-6688809D01*
X35099142Y-6855476D02*
X35099142Y-7188809D01*
X34884856Y-6855476D02*
X34884856Y-7117380D01*
X34884856Y-7117380D02*
X34908666Y-7165000D01*
X34908666Y-7165000D02*
X34956285Y-7188809D01*
X34956285Y-7188809D02*
X35027713Y-7188809D01*
X35027713Y-7188809D02*
X35075332Y-7165000D01*
X35075332Y-7165000D02*
X35099142Y-7141190D01*
X35503904Y-6926904D02*
X35337237Y-6926904D01*
X35337237Y-7188809D02*
X35337237Y-6688809D01*
X35337237Y-6688809D02*
X35575332Y-6688809D01*
X29883476Y-7747332D02*
X30216809Y-7747332D01*
X29693000Y-7866380D02*
X30050142Y-7985427D01*
X30050142Y-7985427D02*
X30050142Y-7675904D01*
X29716809Y-7533047D02*
X29716809Y-7199714D01*
X29716809Y-7199714D02*
X30216809Y-7413999D01*
X29883476Y-6794952D02*
X30216809Y-6794952D01*
X29883476Y-7009238D02*
X30145380Y-7009238D01*
X30145380Y-7009238D02*
X30193000Y-6985428D01*
X30193000Y-6985428D02*
X30216809Y-6937809D01*
X30216809Y-6937809D02*
X30216809Y-6866381D01*
X30216809Y-6866381D02*
X30193000Y-6818762D01*
X30193000Y-6818762D02*
X30169190Y-6794952D01*
X29954904Y-6390190D02*
X29954904Y-6556857D01*
X30216809Y-6556857D02*
X29716809Y-6556857D01*
X29716809Y-6556857D02*
X29716809Y-6318762D01*
X17022953Y-6336428D02*
X17046762Y-6312619D01*
X17046762Y-6312619D02*
X17094381Y-6288809D01*
X17094381Y-6288809D02*
X17213429Y-6288809D01*
X17213429Y-6288809D02*
X17261048Y-6312619D01*
X17261048Y-6312619D02*
X17284857Y-6336428D01*
X17284857Y-6336428D02*
X17308667Y-6384047D01*
X17308667Y-6384047D02*
X17308667Y-6431666D01*
X17308667Y-6431666D02*
X17284857Y-6503095D01*
X17284857Y-6503095D02*
X16999143Y-6788809D01*
X16999143Y-6788809D02*
X17308667Y-6788809D01*
X17737238Y-6455476D02*
X17737238Y-6788809D01*
X17522952Y-6455476D02*
X17522952Y-6717380D01*
X17522952Y-6717380D02*
X17546762Y-6765000D01*
X17546762Y-6765000D02*
X17594381Y-6788809D01*
X17594381Y-6788809D02*
X17665809Y-6788809D01*
X17665809Y-6788809D02*
X17713428Y-6765000D01*
X17713428Y-6765000D02*
X17737238Y-6741190D01*
X17951524Y-6336428D02*
X17975333Y-6312619D01*
X17975333Y-6312619D02*
X18022952Y-6288809D01*
X18022952Y-6288809D02*
X18142000Y-6288809D01*
X18142000Y-6288809D02*
X18189619Y-6312619D01*
X18189619Y-6312619D02*
X18213428Y-6336428D01*
X18213428Y-6336428D02*
X18237238Y-6384047D01*
X18237238Y-6384047D02*
X18237238Y-6431666D01*
X18237238Y-6431666D02*
X18213428Y-6503095D01*
X18213428Y-6503095D02*
X17927714Y-6788809D01*
X17927714Y-6788809D02*
X18237238Y-6788809D01*
X18451523Y-6788809D02*
X18451523Y-6288809D01*
X18451523Y-6526904D02*
X18737237Y-6526904D01*
X18737237Y-6788809D02*
X18737237Y-6288809D01*
X13311047Y-5512619D02*
X13263428Y-5488809D01*
X13263428Y-5488809D02*
X13191999Y-5488809D01*
X13191999Y-5488809D02*
X13120571Y-5512619D01*
X13120571Y-5512619D02*
X13072952Y-5560238D01*
X13072952Y-5560238D02*
X13049142Y-5607857D01*
X13049142Y-5607857D02*
X13025333Y-5703095D01*
X13025333Y-5703095D02*
X13025333Y-5774523D01*
X13025333Y-5774523D02*
X13049142Y-5869761D01*
X13049142Y-5869761D02*
X13072952Y-5917380D01*
X13072952Y-5917380D02*
X13120571Y-5965000D01*
X13120571Y-5965000D02*
X13191999Y-5988809D01*
X13191999Y-5988809D02*
X13239618Y-5988809D01*
X13239618Y-5988809D02*
X13311047Y-5965000D01*
X13311047Y-5965000D02*
X13334856Y-5941190D01*
X13334856Y-5941190D02*
X13334856Y-5774523D01*
X13334856Y-5774523D02*
X13239618Y-5774523D01*
X13549142Y-5988809D02*
X13549142Y-5488809D01*
X13549142Y-5488809D02*
X13834856Y-5988809D01*
X13834856Y-5988809D02*
X13834856Y-5488809D01*
X14072952Y-5988809D02*
X14072952Y-5488809D01*
X14072952Y-5488809D02*
X14192000Y-5488809D01*
X14192000Y-5488809D02*
X14263428Y-5512619D01*
X14263428Y-5512619D02*
X14311047Y-5560238D01*
X14311047Y-5560238D02*
X14334857Y-5607857D01*
X14334857Y-5607857D02*
X14358666Y-5703095D01*
X14358666Y-5703095D02*
X14358666Y-5774523D01*
X14358666Y-5774523D02*
X14334857Y-5869761D01*
X14334857Y-5869761D02*
X14311047Y-5917380D01*
X14311047Y-5917380D02*
X14263428Y-5965000D01*
X14263428Y-5965000D02*
X14192000Y-5988809D01*
X14192000Y-5988809D02*
X14072952Y-5988809D01*
X10525334Y-5488809D02*
X10692000Y-5988809D01*
X10692000Y-5988809D02*
X10858667Y-5488809D01*
X11025333Y-5988809D02*
X11025333Y-5488809D01*
X11025333Y-5488809D02*
X11144381Y-5488809D01*
X11144381Y-5488809D02*
X11215809Y-5512619D01*
X11215809Y-5512619D02*
X11263428Y-5560238D01*
X11263428Y-5560238D02*
X11287238Y-5607857D01*
X11287238Y-5607857D02*
X11311047Y-5703095D01*
X11311047Y-5703095D02*
X11311047Y-5774523D01*
X11311047Y-5774523D02*
X11287238Y-5869761D01*
X11287238Y-5869761D02*
X11263428Y-5917380D01*
X11263428Y-5917380D02*
X11215809Y-5965000D01*
X11215809Y-5965000D02*
X11144381Y-5988809D01*
X11144381Y-5988809D02*
X11025333Y-5988809D01*
X11525333Y-5988809D02*
X11525333Y-5488809D01*
X11525333Y-5488809D02*
X11644381Y-5488809D01*
X11644381Y-5488809D02*
X11715809Y-5512619D01*
X11715809Y-5512619D02*
X11763428Y-5560238D01*
X11763428Y-5560238D02*
X11787238Y-5607857D01*
X11787238Y-5607857D02*
X11811047Y-5703095D01*
X11811047Y-5703095D02*
X11811047Y-5774523D01*
X11811047Y-5774523D02*
X11787238Y-5869761D01*
X11787238Y-5869761D02*
X11763428Y-5917380D01*
X11763428Y-5917380D02*
X11715809Y-5965000D01*
X11715809Y-5965000D02*
X11644381Y-5988809D01*
X11644381Y-5988809D02*
X11525333Y-5988809D01*
X8464428Y-8423522D02*
X8440619Y-8399713D01*
X8440619Y-8399713D02*
X8416809Y-8352094D01*
X8416809Y-8352094D02*
X8416809Y-8233046D01*
X8416809Y-8233046D02*
X8440619Y-8185427D01*
X8440619Y-8185427D02*
X8464428Y-8161618D01*
X8464428Y-8161618D02*
X8512047Y-8137808D01*
X8512047Y-8137808D02*
X8559666Y-8137808D01*
X8559666Y-8137808D02*
X8631095Y-8161618D01*
X8631095Y-8161618D02*
X8916809Y-8447332D01*
X8916809Y-8447332D02*
X8916809Y-8137808D01*
X8464428Y-7947332D02*
X8440619Y-7923523D01*
X8440619Y-7923523D02*
X8416809Y-7875904D01*
X8416809Y-7875904D02*
X8416809Y-7756856D01*
X8416809Y-7756856D02*
X8440619Y-7709237D01*
X8440619Y-7709237D02*
X8464428Y-7685428D01*
X8464428Y-7685428D02*
X8512047Y-7661618D01*
X8512047Y-7661618D02*
X8559666Y-7661618D01*
X8559666Y-7661618D02*
X8631095Y-7685428D01*
X8631095Y-7685428D02*
X8916809Y-7971142D01*
X8916809Y-7971142D02*
X8916809Y-7661618D01*
X8416809Y-7352095D02*
X8416809Y-7304476D01*
X8416809Y-7304476D02*
X8440619Y-7256857D01*
X8440619Y-7256857D02*
X8464428Y-7233047D01*
X8464428Y-7233047D02*
X8512047Y-7209238D01*
X8512047Y-7209238D02*
X8607285Y-7185428D01*
X8607285Y-7185428D02*
X8726333Y-7185428D01*
X8726333Y-7185428D02*
X8821571Y-7209238D01*
X8821571Y-7209238D02*
X8869190Y-7233047D01*
X8869190Y-7233047D02*
X8893000Y-7256857D01*
X8893000Y-7256857D02*
X8916809Y-7304476D01*
X8916809Y-7304476D02*
X8916809Y-7352095D01*
X8916809Y-7352095D02*
X8893000Y-7399714D01*
X8893000Y-7399714D02*
X8869190Y-7423523D01*
X8869190Y-7423523D02*
X8821571Y-7447333D01*
X8821571Y-7447333D02*
X8726333Y-7471142D01*
X8726333Y-7471142D02*
X8607285Y-7471142D01*
X8607285Y-7471142D02*
X8512047Y-7447333D01*
X8512047Y-7447333D02*
X8464428Y-7423523D01*
X8464428Y-7423523D02*
X8440619Y-7399714D01*
X8440619Y-7399714D02*
X8416809Y-7352095D01*
X8583476Y-6756857D02*
X8916809Y-6756857D01*
X8583476Y-6971143D02*
X8845380Y-6971143D01*
X8845380Y-6971143D02*
X8893000Y-6947333D01*
X8893000Y-6947333D02*
X8916809Y-6899714D01*
X8916809Y-6899714D02*
X8916809Y-6828286D01*
X8916809Y-6828286D02*
X8893000Y-6780667D01*
X8893000Y-6780667D02*
X8869190Y-6756857D01*
X8654904Y-6352095D02*
X8654904Y-6518762D01*
X8916809Y-6518762D02*
X8416809Y-6518762D01*
X8416809Y-6518762D02*
X8416809Y-6280667D01*
X12816809Y-14806856D02*
X12816809Y-15092570D01*
X12816809Y-14949713D02*
X12316809Y-14949713D01*
X12316809Y-14949713D02*
X12388238Y-14997332D01*
X12388238Y-14997332D02*
X12435857Y-15044951D01*
X12435857Y-15044951D02*
X12459666Y-15092570D01*
X12816809Y-14592571D02*
X12316809Y-14592571D01*
X12316809Y-14592571D02*
X12673952Y-14425904D01*
X12673952Y-14425904D02*
X12316809Y-14259238D01*
X12316809Y-14259238D02*
X12816809Y-14259238D01*
X16516809Y-20323523D02*
X16516809Y-20609237D01*
X16516809Y-20466380D02*
X16016809Y-20466380D01*
X16016809Y-20466380D02*
X16088238Y-20513999D01*
X16088238Y-20513999D02*
X16135857Y-20561618D01*
X16135857Y-20561618D02*
X16159666Y-20609237D01*
X16516809Y-20109238D02*
X16016809Y-20109238D01*
X16326333Y-20061619D02*
X16516809Y-19918762D01*
X16183476Y-19918762D02*
X16373952Y-20109238D01*
X20283476Y-18409237D02*
X20616809Y-18409237D01*
X20093000Y-18528285D02*
X20450142Y-18647332D01*
X20450142Y-18647332D02*
X20450142Y-18337809D01*
X20116809Y-18194952D02*
X20116809Y-17861619D01*
X20116809Y-17861619D02*
X20616809Y-18075904D01*
X20616809Y-17671143D02*
X20116809Y-17671143D01*
X20426333Y-17623524D02*
X20616809Y-17480667D01*
X20283476Y-17480667D02*
X20473952Y-17671143D01*
X20164428Y-21085427D02*
X20140619Y-21061618D01*
X20140619Y-21061618D02*
X20116809Y-21013999D01*
X20116809Y-21013999D02*
X20116809Y-20894951D01*
X20116809Y-20894951D02*
X20140619Y-20847332D01*
X20140619Y-20847332D02*
X20164428Y-20823523D01*
X20164428Y-20823523D02*
X20212047Y-20799713D01*
X20212047Y-20799713D02*
X20259666Y-20799713D01*
X20259666Y-20799713D02*
X20331095Y-20823523D01*
X20331095Y-20823523D02*
X20616809Y-21109237D01*
X20616809Y-21109237D02*
X20616809Y-20799713D01*
X20164428Y-20609237D02*
X20140619Y-20585428D01*
X20140619Y-20585428D02*
X20116809Y-20537809D01*
X20116809Y-20537809D02*
X20116809Y-20418761D01*
X20116809Y-20418761D02*
X20140619Y-20371142D01*
X20140619Y-20371142D02*
X20164428Y-20347333D01*
X20164428Y-20347333D02*
X20212047Y-20323523D01*
X20212047Y-20323523D02*
X20259666Y-20323523D01*
X20259666Y-20323523D02*
X20331095Y-20347333D01*
X20331095Y-20347333D02*
X20616809Y-20633047D01*
X20616809Y-20633047D02*
X20616809Y-20323523D01*
X20116809Y-20014000D02*
X20116809Y-19966381D01*
X20116809Y-19966381D02*
X20140619Y-19918762D01*
X20140619Y-19918762D02*
X20164428Y-19894952D01*
X20164428Y-19894952D02*
X20212047Y-19871143D01*
X20212047Y-19871143D02*
X20307285Y-19847333D01*
X20307285Y-19847333D02*
X20426333Y-19847333D01*
X20426333Y-19847333D02*
X20521571Y-19871143D01*
X20521571Y-19871143D02*
X20569190Y-19894952D01*
X20569190Y-19894952D02*
X20593000Y-19918762D01*
X20593000Y-19918762D02*
X20616809Y-19966381D01*
X20616809Y-19966381D02*
X20616809Y-20014000D01*
X20616809Y-20014000D02*
X20593000Y-20061619D01*
X20593000Y-20061619D02*
X20569190Y-20085428D01*
X20569190Y-20085428D02*
X20521571Y-20109238D01*
X20521571Y-20109238D02*
X20426333Y-20133047D01*
X20426333Y-20133047D02*
X20307285Y-20133047D01*
X20307285Y-20133047D02*
X20212047Y-20109238D01*
X20212047Y-20109238D02*
X20164428Y-20085428D01*
X20164428Y-20085428D02*
X20140619Y-20061619D01*
X20140619Y-20061619D02*
X20116809Y-20014000D01*
X20616809Y-19633048D02*
X20116809Y-19633048D01*
X20426333Y-19585429D02*
X20616809Y-19442572D01*
X20283476Y-19442572D02*
X20473952Y-19633048D01*
X18684857Y-23688809D02*
X18994381Y-23688809D01*
X18994381Y-23688809D02*
X18827714Y-23879285D01*
X18827714Y-23879285D02*
X18899143Y-23879285D01*
X18899143Y-23879285D02*
X18946762Y-23903095D01*
X18946762Y-23903095D02*
X18970571Y-23926904D01*
X18970571Y-23926904D02*
X18994381Y-23974523D01*
X18994381Y-23974523D02*
X18994381Y-24093571D01*
X18994381Y-24093571D02*
X18970571Y-24141190D01*
X18970571Y-24141190D02*
X18946762Y-24165000D01*
X18946762Y-24165000D02*
X18899143Y-24188809D01*
X18899143Y-24188809D02*
X18756286Y-24188809D01*
X18756286Y-24188809D02*
X18708667Y-24165000D01*
X18708667Y-24165000D02*
X18684857Y-24141190D01*
X19161047Y-23688809D02*
X19470571Y-23688809D01*
X19470571Y-23688809D02*
X19303904Y-23879285D01*
X19303904Y-23879285D02*
X19375333Y-23879285D01*
X19375333Y-23879285D02*
X19422952Y-23903095D01*
X19422952Y-23903095D02*
X19446761Y-23926904D01*
X19446761Y-23926904D02*
X19470571Y-23974523D01*
X19470571Y-23974523D02*
X19470571Y-24093571D01*
X19470571Y-24093571D02*
X19446761Y-24141190D01*
X19446761Y-24141190D02*
X19422952Y-24165000D01*
X19422952Y-24165000D02*
X19375333Y-24188809D01*
X19375333Y-24188809D02*
X19232476Y-24188809D01*
X19232476Y-24188809D02*
X19184857Y-24165000D01*
X19184857Y-24165000D02*
X19161047Y-24141190D01*
X19684856Y-24188809D02*
X19684856Y-23688809D01*
X19732475Y-23998333D02*
X19875332Y-24188809D01*
X19875332Y-23855476D02*
X19684856Y-24045952D01*
X17816809Y-23671142D02*
X17316809Y-23671142D01*
X17316809Y-23671142D02*
X17316809Y-23552094D01*
X17316809Y-23552094D02*
X17340619Y-23480666D01*
X17340619Y-23480666D02*
X17388238Y-23433047D01*
X17388238Y-23433047D02*
X17435857Y-23409237D01*
X17435857Y-23409237D02*
X17531095Y-23385428D01*
X17531095Y-23385428D02*
X17602523Y-23385428D01*
X17602523Y-23385428D02*
X17697761Y-23409237D01*
X17697761Y-23409237D02*
X17745380Y-23433047D01*
X17745380Y-23433047D02*
X17793000Y-23480666D01*
X17793000Y-23480666D02*
X17816809Y-23552094D01*
X17816809Y-23552094D02*
X17816809Y-23671142D01*
X17483476Y-22956856D02*
X17816809Y-22956856D01*
X17293000Y-23075904D02*
X17650142Y-23194951D01*
X17650142Y-23194951D02*
X17650142Y-22885428D01*
X17316809Y-22456857D02*
X17316809Y-22694952D01*
X17316809Y-22694952D02*
X17554904Y-22718761D01*
X17554904Y-22718761D02*
X17531095Y-22694952D01*
X17531095Y-22694952D02*
X17507285Y-22647333D01*
X17507285Y-22647333D02*
X17507285Y-22528285D01*
X17507285Y-22528285D02*
X17531095Y-22480666D01*
X17531095Y-22480666D02*
X17554904Y-22456857D01*
X17554904Y-22456857D02*
X17602523Y-22433047D01*
X17602523Y-22433047D02*
X17721571Y-22433047D01*
X17721571Y-22433047D02*
X17769190Y-22456857D01*
X17769190Y-22456857D02*
X17793000Y-22480666D01*
X17793000Y-22480666D02*
X17816809Y-22528285D01*
X17816809Y-22528285D02*
X17816809Y-22647333D01*
X17816809Y-22647333D02*
X17793000Y-22694952D01*
X17793000Y-22694952D02*
X17769190Y-22718761D01*
X6318191Y-23786323D02*
X6318191Y-23286323D01*
X6318191Y-23286323D02*
X6437239Y-23286323D01*
X6437239Y-23286323D02*
X6508667Y-23310133D01*
X6508667Y-23310133D02*
X6556286Y-23357752D01*
X6556286Y-23357752D02*
X6580096Y-23405371D01*
X6580096Y-23405371D02*
X6603905Y-23500609D01*
X6603905Y-23500609D02*
X6603905Y-23572037D01*
X6603905Y-23572037D02*
X6580096Y-23667275D01*
X6580096Y-23667275D02*
X6556286Y-23714894D01*
X6556286Y-23714894D02*
X6508667Y-23762514D01*
X6508667Y-23762514D02*
X6437239Y-23786323D01*
X6437239Y-23786323D02*
X6318191Y-23786323D01*
X7032477Y-23452990D02*
X7032477Y-23786323D01*
X6913429Y-23262514D02*
X6794382Y-23619656D01*
X6794382Y-23619656D02*
X7103905Y-23619656D01*
X7532476Y-23286323D02*
X7294381Y-23286323D01*
X7294381Y-23286323D02*
X7270572Y-23524418D01*
X7270572Y-23524418D02*
X7294381Y-23500609D01*
X7294381Y-23500609D02*
X7342000Y-23476799D01*
X7342000Y-23476799D02*
X7461048Y-23476799D01*
X7461048Y-23476799D02*
X7508667Y-23500609D01*
X7508667Y-23500609D02*
X7532476Y-23524418D01*
X7532476Y-23524418D02*
X7556286Y-23572037D01*
X7556286Y-23572037D02*
X7556286Y-23691085D01*
X7556286Y-23691085D02*
X7532476Y-23738704D01*
X7532476Y-23738704D02*
X7508667Y-23762514D01*
X7508667Y-23762514D02*
X7461048Y-23786323D01*
X7461048Y-23786323D02*
X7342000Y-23786323D01*
X7342000Y-23786323D02*
X7294381Y-23762514D01*
X7294381Y-23762514D02*
X7270572Y-23738704D01*
X7770571Y-23595847D02*
X8151524Y-23595847D01*
X8365810Y-23762514D02*
X8437238Y-23786323D01*
X8437238Y-23786323D02*
X8556286Y-23786323D01*
X8556286Y-23786323D02*
X8603905Y-23762514D01*
X8603905Y-23762514D02*
X8627714Y-23738704D01*
X8627714Y-23738704D02*
X8651524Y-23691085D01*
X8651524Y-23691085D02*
X8651524Y-23643466D01*
X8651524Y-23643466D02*
X8627714Y-23595847D01*
X8627714Y-23595847D02*
X8603905Y-23572037D01*
X8603905Y-23572037D02*
X8556286Y-23548228D01*
X8556286Y-23548228D02*
X8461048Y-23524418D01*
X8461048Y-23524418D02*
X8413429Y-23500609D01*
X8413429Y-23500609D02*
X8389619Y-23476799D01*
X8389619Y-23476799D02*
X8365810Y-23429180D01*
X8365810Y-23429180D02*
X8365810Y-23381561D01*
X8365810Y-23381561D02*
X8389619Y-23333942D01*
X8389619Y-23333942D02*
X8413429Y-23310133D01*
X8413429Y-23310133D02*
X8461048Y-23286323D01*
X8461048Y-23286323D02*
X8580095Y-23286323D01*
X8580095Y-23286323D02*
X8651524Y-23310133D01*
X9151523Y-23738704D02*
X9127714Y-23762514D01*
X9127714Y-23762514D02*
X9056285Y-23786323D01*
X9056285Y-23786323D02*
X9008666Y-23786323D01*
X9008666Y-23786323D02*
X8937238Y-23762514D01*
X8937238Y-23762514D02*
X8889619Y-23714894D01*
X8889619Y-23714894D02*
X8865809Y-23667275D01*
X8865809Y-23667275D02*
X8842000Y-23572037D01*
X8842000Y-23572037D02*
X8842000Y-23500609D01*
X8842000Y-23500609D02*
X8865809Y-23405371D01*
X8865809Y-23405371D02*
X8889619Y-23357752D01*
X8889619Y-23357752D02*
X8937238Y-23310133D01*
X8937238Y-23310133D02*
X9008666Y-23286323D01*
X9008666Y-23286323D02*
X9056285Y-23286323D01*
X9056285Y-23286323D02*
X9127714Y-23310133D01*
X9127714Y-23310133D02*
X9151523Y-23333942D01*
X9365809Y-23786323D02*
X9365809Y-23286323D01*
X9365809Y-23524418D02*
X9651523Y-23524418D01*
X9651523Y-23786323D02*
X9651523Y-23286323D01*
X9984857Y-23286323D02*
X10080095Y-23286323D01*
X10080095Y-23286323D02*
X10127714Y-23310133D01*
X10127714Y-23310133D02*
X10175333Y-23357752D01*
X10175333Y-23357752D02*
X10199143Y-23452990D01*
X10199143Y-23452990D02*
X10199143Y-23619656D01*
X10199143Y-23619656D02*
X10175333Y-23714894D01*
X10175333Y-23714894D02*
X10127714Y-23762514D01*
X10127714Y-23762514D02*
X10080095Y-23786323D01*
X10080095Y-23786323D02*
X9984857Y-23786323D01*
X9984857Y-23786323D02*
X9937238Y-23762514D01*
X9937238Y-23762514D02*
X9889619Y-23714894D01*
X9889619Y-23714894D02*
X9865810Y-23619656D01*
X9865810Y-23619656D02*
X9865810Y-23452990D01*
X9865810Y-23452990D02*
X9889619Y-23357752D01*
X9889619Y-23357752D02*
X9937238Y-23310133D01*
X9937238Y-23310133D02*
X9984857Y-23286323D01*
X10342001Y-23286323D02*
X10627715Y-23286323D01*
X10484858Y-23786323D02*
X10484858Y-23286323D01*
X10722953Y-23286323D02*
X11008667Y-23286323D01*
X10865810Y-23786323D02*
X10865810Y-23286323D01*
X11175333Y-23786323D02*
X11175333Y-23286323D01*
X11461047Y-23786323D02*
X11246762Y-23500609D01*
X11461047Y-23286323D02*
X11175333Y-23572037D01*
X11770571Y-23548228D02*
X11770571Y-23786323D01*
X11603905Y-23286323D02*
X11770571Y-23548228D01*
X11770571Y-23548228D02*
X11937238Y-23286323D01*
X818191Y-24688809D02*
X532477Y-24688809D01*
X675334Y-24688809D02*
X675334Y-24188809D01*
X675334Y-24188809D02*
X627715Y-24260238D01*
X627715Y-24260238D02*
X580096Y-24307857D01*
X580096Y-24307857D02*
X532477Y-24331666D01*
X1127714Y-24188809D02*
X1175333Y-24188809D01*
X1175333Y-24188809D02*
X1222952Y-24212619D01*
X1222952Y-24212619D02*
X1246762Y-24236428D01*
X1246762Y-24236428D02*
X1270571Y-24284047D01*
X1270571Y-24284047D02*
X1294381Y-24379285D01*
X1294381Y-24379285D02*
X1294381Y-24498333D01*
X1294381Y-24498333D02*
X1270571Y-24593571D01*
X1270571Y-24593571D02*
X1246762Y-24641190D01*
X1246762Y-24641190D02*
X1222952Y-24665000D01*
X1222952Y-24665000D02*
X1175333Y-24688809D01*
X1175333Y-24688809D02*
X1127714Y-24688809D01*
X1127714Y-24688809D02*
X1080095Y-24665000D01*
X1080095Y-24665000D02*
X1056286Y-24641190D01*
X1056286Y-24641190D02*
X1032476Y-24593571D01*
X1032476Y-24593571D02*
X1008667Y-24498333D01*
X1008667Y-24498333D02*
X1008667Y-24379285D01*
X1008667Y-24379285D02*
X1032476Y-24284047D01*
X1032476Y-24284047D02*
X1056286Y-24236428D01*
X1056286Y-24236428D02*
X1080095Y-24212619D01*
X1080095Y-24212619D02*
X1127714Y-24188809D01*
X1603904Y-24188809D02*
X1651523Y-24188809D01*
X1651523Y-24188809D02*
X1699142Y-24212619D01*
X1699142Y-24212619D02*
X1722952Y-24236428D01*
X1722952Y-24236428D02*
X1746761Y-24284047D01*
X1746761Y-24284047D02*
X1770571Y-24379285D01*
X1770571Y-24379285D02*
X1770571Y-24498333D01*
X1770571Y-24498333D02*
X1746761Y-24593571D01*
X1746761Y-24593571D02*
X1722952Y-24641190D01*
X1722952Y-24641190D02*
X1699142Y-24665000D01*
X1699142Y-24665000D02*
X1651523Y-24688809D01*
X1651523Y-24688809D02*
X1603904Y-24688809D01*
X1603904Y-24688809D02*
X1556285Y-24665000D01*
X1556285Y-24665000D02*
X1532476Y-24641190D01*
X1532476Y-24641190D02*
X1508666Y-24593571D01*
X1508666Y-24593571D02*
X1484857Y-24498333D01*
X1484857Y-24498333D02*
X1484857Y-24379285D01*
X1484857Y-24379285D02*
X1508666Y-24284047D01*
X1508666Y-24284047D02*
X1532476Y-24236428D01*
X1532476Y-24236428D02*
X1556285Y-24212619D01*
X1556285Y-24212619D02*
X1603904Y-24188809D01*
X2199142Y-24355476D02*
X2199142Y-24688809D01*
X1984856Y-24355476D02*
X1984856Y-24617380D01*
X1984856Y-24617380D02*
X2008666Y-24665000D01*
X2008666Y-24665000D02*
X2056285Y-24688809D01*
X2056285Y-24688809D02*
X2127713Y-24688809D01*
X2127713Y-24688809D02*
X2175332Y-24665000D01*
X2175332Y-24665000D02*
X2199142Y-24641190D01*
X2603904Y-24426904D02*
X2437237Y-24426904D01*
X2437237Y-24688809D02*
X2437237Y-24188809D01*
X2437237Y-24188809D02*
X2675332Y-24188809D01*
X7983476Y-13447332D02*
X8316809Y-13447332D01*
X7793000Y-13566380D02*
X8150142Y-13685427D01*
X8150142Y-13685427D02*
X8150142Y-13375904D01*
X7816809Y-13233047D02*
X7816809Y-12899714D01*
X7816809Y-12899714D02*
X8316809Y-13113999D01*
X7816809Y-12614000D02*
X7816809Y-12566381D01*
X7816809Y-12566381D02*
X7840619Y-12518762D01*
X7840619Y-12518762D02*
X7864428Y-12494952D01*
X7864428Y-12494952D02*
X7912047Y-12471143D01*
X7912047Y-12471143D02*
X8007285Y-12447333D01*
X8007285Y-12447333D02*
X8126333Y-12447333D01*
X8126333Y-12447333D02*
X8221571Y-12471143D01*
X8221571Y-12471143D02*
X8269190Y-12494952D01*
X8269190Y-12494952D02*
X8293000Y-12518762D01*
X8293000Y-12518762D02*
X8316809Y-12566381D01*
X8316809Y-12566381D02*
X8316809Y-12614000D01*
X8316809Y-12614000D02*
X8293000Y-12661619D01*
X8293000Y-12661619D02*
X8269190Y-12685428D01*
X8269190Y-12685428D02*
X8221571Y-12709238D01*
X8221571Y-12709238D02*
X8126333Y-12733047D01*
X8126333Y-12733047D02*
X8007285Y-12733047D01*
X8007285Y-12733047D02*
X7912047Y-12709238D01*
X7912047Y-12709238D02*
X7864428Y-12685428D01*
X7864428Y-12685428D02*
X7840619Y-12661619D01*
X7840619Y-12661619D02*
X7816809Y-12614000D01*
X8316809Y-12233048D02*
X7816809Y-12233048D01*
X8126333Y-12185429D02*
X8316809Y-12042572D01*
X7983476Y-12042572D02*
X8173952Y-12233048D01*
X3316809Y-15185428D02*
X3316809Y-15423523D01*
X3316809Y-15423523D02*
X3554904Y-15447332D01*
X3554904Y-15447332D02*
X3531095Y-15423523D01*
X3531095Y-15423523D02*
X3507285Y-15375904D01*
X3507285Y-15375904D02*
X3507285Y-15256856D01*
X3507285Y-15256856D02*
X3531095Y-15209237D01*
X3531095Y-15209237D02*
X3554904Y-15185428D01*
X3554904Y-15185428D02*
X3602523Y-15161618D01*
X3602523Y-15161618D02*
X3721571Y-15161618D01*
X3721571Y-15161618D02*
X3769190Y-15185428D01*
X3769190Y-15185428D02*
X3793000Y-15209237D01*
X3793000Y-15209237D02*
X3816809Y-15256856D01*
X3816809Y-15256856D02*
X3816809Y-15375904D01*
X3816809Y-15375904D02*
X3793000Y-15423523D01*
X3793000Y-15423523D02*
X3769190Y-15447332D01*
X3816809Y-14947333D02*
X3316809Y-14947333D01*
X3626333Y-14899714D02*
X3816809Y-14756857D01*
X3483476Y-14756857D02*
X3673952Y-14947333D01*
X3816809Y-14280666D02*
X3816809Y-14566380D01*
X3816809Y-14423523D02*
X3316809Y-14423523D01*
X3316809Y-14423523D02*
X3388238Y-14471142D01*
X3388238Y-14471142D02*
X3435857Y-14518761D01*
X3435857Y-14518761D02*
X3459666Y-14566380D01*
D11*
X68280573Y41535329D02*
X69355443Y41535329D01*
X69248279Y42341214D02*
X69260061Y42356207D01*
X70457912Y41198829D02*
X70484422Y41232563D01*
X69949683Y41929220D02*
X69961230Y41958507D01*
X69832824Y41746622D02*
X69853095Y41770023D01*
X69662849Y41613169D02*
X69689856Y41628698D01*
X69291005Y42404489D02*
X69299770Y42421602D01*
X69330843Y42513679D02*
X69334333Y42533223D01*
X69321063Y42475645D02*
X69326411Y42494478D01*
X69326411Y42494478D02*
X69330843Y42513679D01*
X69235805Y42326814D02*
X69248279Y42341214D01*
X70509318Y41267573D02*
X70532545Y41303803D01*
X69789072Y41702870D02*
X69811470Y41724224D01*
X69606474Y41586011D02*
X69635041Y41598926D01*
X69485416Y41548432D02*
X69516618Y41555634D01*
X69999525Y42147064D02*
X70000365Y42180251D01*
X69716023Y41645473D02*
X69741308Y41663454D01*
X69314824Y42457205D02*
X69321063Y42475645D01*
X69355443Y41535329D02*
X69388630Y41536169D01*
X70116438Y40944045D02*
X70155993Y40961928D01*
X69096512Y42227976D02*
X69114092Y42235924D01*
X68942031Y42196788D02*
X68962454Y42197304D01*
X70194496Y40981648D02*
X70231891Y41003149D01*
X69547221Y41564324D02*
X69577187Y41574464D01*
X69992021Y40901984D02*
X70034396Y40914017D01*
X70661823Y41766840D02*
X70661823Y43255121D01*
D12*
X62538667Y43616596D02*
X62538667Y40822596D01*
D11*
X69271126Y42371767D02*
X69281449Y42387869D01*
X69299770Y42421602D02*
X69307718Y42439182D01*
X69853095Y41770023D02*
X69872240Y41794386D01*
X70075887Y40928056D02*
X70116438Y40944045D01*
X69936768Y41900653D02*
X69949683Y41929220D01*
X70621677Y41501298D02*
X70633710Y41543673D01*
X69906996Y41845838D02*
X69922525Y41872845D01*
X70155993Y40961928D02*
X70194496Y40981648D01*
X70643681Y41586876D02*
X70651534Y41630850D01*
X68982609Y42198837D02*
X69002471Y42201361D01*
X70429846Y41166428D02*
X70457912Y41198829D01*
X69689856Y41628698D02*
X69716023Y41645473D01*
X70554046Y41341198D02*
X70573766Y41379701D01*
X70000365Y42180251D02*
X70000365Y43255121D01*
X69987262Y42050278D02*
X69992934Y42082037D01*
X69060049Y42214631D02*
X69078489Y42220870D01*
X70607638Y41459807D02*
X70621677Y41501298D01*
D12*
X62538667Y40822596D02*
X62538667Y40568596D01*
D11*
X69768854Y40873871D02*
X69814806Y40875033D01*
X70268121Y41026376D02*
X70303131Y41051272D01*
X69041216Y42209283D02*
X69060049Y42214631D01*
X69814806Y40875033D02*
X69860155Y40878481D01*
X69078489Y42220870D02*
X69096512Y42227976D01*
X69860155Y40878481D02*
X69904844Y40884160D01*
X69997035Y42114312D02*
X69999525Y42147064D01*
X68280573Y42196788D02*
X68942031Y42196788D01*
X70657213Y41675539D02*
X70660661Y41720888D01*
X70400278Y41135416D02*
X70429846Y41166428D01*
X70573766Y41379701D02*
X70591649Y41419256D01*
X69516618Y41555634D02*
X69547221Y41564324D01*
X69971370Y41988473D02*
X69980060Y42019076D01*
X69388630Y41536169D02*
X69421382Y41538659D01*
X70532545Y41303803D02*
X70554046Y41341198D01*
X70591649Y41419256D02*
X70607638Y41459807D01*
D12*
X63455467Y40430596D02*
X65655467Y40430596D01*
D11*
X69453657Y41542760D02*
X69485416Y41548432D01*
X69114092Y42235924D02*
X69131205Y42244689D01*
X70231891Y41003149D02*
X70268121Y41026376D01*
X69163927Y42264568D02*
X69179487Y42275633D01*
X69147825Y42254245D02*
X69163927Y42264568D01*
X69765671Y41682599D02*
X69789072Y41702870D01*
X69811470Y41724224D02*
X69832824Y41746622D01*
X69577187Y41574464D02*
X69606474Y41586011D01*
X70336865Y41077782D02*
X70369266Y41105848D01*
X69890221Y41819671D02*
X69906996Y41845838D01*
X69872240Y41794386D02*
X69890221Y41819671D01*
X68280573Y40873871D02*
X69768854Y40873871D01*
X69338906Y42593663D02*
X69338906Y43255121D01*
X69635041Y41598926D02*
X69662849Y41613169D01*
X69421382Y41538659D02*
X69453657Y41542760D01*
X70660661Y41720888D02*
X70661823Y41766840D01*
X70651534Y41630850D02*
X70657213Y41675539D01*
X68962454Y42197304D02*
X68982609Y42198837D01*
X70633710Y41543673D02*
X70643681Y41586876D01*
X69281449Y42387869D02*
X69291005Y42404489D01*
X69179487Y42275633D02*
X69194480Y42287415D01*
X70303131Y41051272D02*
X70336865Y41077782D01*
X69980060Y42019076D02*
X69987262Y42050278D01*
X69002471Y42201361D02*
X69022015Y42204851D01*
X69338390Y42573240D02*
X69338906Y42593663D01*
X69222664Y42313030D02*
X69235805Y42326814D01*
X69992934Y42082037D02*
X69997035Y42114312D01*
X69741308Y41663454D02*
X69765671Y41682599D01*
X69922525Y41872845D02*
X69936768Y41900653D01*
X69336857Y42553085D02*
X69338390Y42573240D01*
X70369266Y41105848D02*
X70400278Y41135416D01*
X70034396Y40914017D02*
X70075887Y40928056D01*
X69208880Y42299889D02*
X69222664Y42313030D01*
D12*
X7227757Y41582599D02*
X56692000Y41582599D01*
X56692000Y16782599D01*
X7227757Y16782599D01*
X7227757Y41582599D01*
D11*
X69948818Y40892013D02*
X69992021Y40901984D01*
X69338906Y43255121D02*
X69336857Y42553085D01*
X69961230Y41958507D02*
X69971370Y41988473D01*
X69260061Y42356207D02*
X69271126Y42371767D01*
X69307718Y42439182D02*
X69314824Y42457205D01*
X69904844Y40884160D02*
X69948818Y40892013D01*
X69131205Y42244689D02*
X69147825Y42254245D01*
X69194480Y42287415D02*
X69208880Y42299889D01*
X69022015Y42204851D02*
X69041216Y42209283D01*
X69334333Y42533223D02*
X69336857Y42553085D01*
X70484422Y41232563D02*
X70509318Y41267573D01*
D13*
G36*
X63030142Y17046621D02*
G01*
X63105235Y17037418D01*
X63184186Y17019386D01*
X63255811Y16993339D01*
X63272572Y16985576D01*
X63342159Y16945367D01*
X63401720Y16896871D01*
X63451253Y16840086D01*
X63474439Y16804958D01*
X63507910Y16736005D01*
X63530428Y16660213D01*
X63541247Y16587100D01*
X63543681Y16528719D01*
X63538965Y16451739D01*
X63524817Y16374396D01*
X63515105Y16338576D01*
X63489208Y16269608D01*
X63450455Y16200474D01*
X63424979Y16165652D01*
X63372618Y16111677D01*
X63308407Y16066253D01*
X63259016Y16040722D01*
X63189565Y16015799D01*
X63110811Y16000107D01*
X63031979Y15993877D01*
X63004027Y15993461D01*
X62785674Y15993461D01*
X62785674Y15503999D01*
X62481225Y15503999D01*
X62481225Y16289483D01*
X62785674Y16289483D01*
X63001829Y16289483D01*
X63075918Y16298008D01*
X63117233Y16313664D01*
X63177286Y16359048D01*
X63189774Y16374480D01*
X63224435Y16441118D01*
X63227509Y16451050D01*
X63239233Y16520293D01*
X63231905Y16582209D01*
X63205686Y16653499D01*
X63201497Y16660977D01*
X63150675Y16715547D01*
X63131155Y16728022D01*
X63059342Y16751635D01*
X63004027Y16755499D01*
X62785674Y16755499D01*
X62785674Y16289483D01*
X62481225Y16289483D01*
X62481225Y17049689D01*
X62949439Y17049689D01*
X63030142Y17046621D01*
G37*
G36*
X64898496Y15985035D02*
G01*
X64329533Y17049689D01*
X64705423Y17049689D01*
X65104393Y16247352D01*
X65014268Y16241123D01*
X65407010Y17049689D01*
X65782900Y17049689D01*
X65202945Y15985035D01*
X65202945Y15503999D01*
X64898496Y15503999D01*
X64898496Y15985035D01*
G37*
G36*
X67391605Y17081197D02*
G01*
X67363647Y17005173D01*
X67335689Y16929187D01*
X67307731Y16853240D01*
X67279773Y16777332D01*
X67251814Y16701462D01*
X67223856Y16625631D01*
X67195898Y16549839D01*
X67167940Y16474085D01*
X67139982Y16398370D01*
X67112024Y16322694D01*
X67093385Y16272264D01*
X67065427Y16196682D01*
X67037468Y16121062D01*
X67009510Y16045403D01*
X66981552Y15969705D01*
X66953594Y15893968D01*
X66925636Y15818193D01*
X66897678Y15742379D01*
X66869719Y15666527D01*
X66841761Y15590636D01*
X66813803Y15514706D01*
X66795164Y15464065D01*
X66530283Y15464065D01*
X66558241Y15540020D01*
X66586199Y15615937D01*
X66614157Y15691815D01*
X66642116Y15767655D01*
X66670074Y15843456D01*
X66698032Y15919218D01*
X66725990Y15994942D01*
X66753948Y16070627D01*
X66781907Y16146273D01*
X66809865Y16221881D01*
X66828503Y16272264D01*
X66856462Y16347915D01*
X66884420Y16423604D01*
X66912378Y16499332D01*
X66940336Y16575099D01*
X66968294Y16650904D01*
X66996253Y16726748D01*
X67024211Y16802630D01*
X67052169Y16878551D01*
X67080127Y16954511D01*
X67108085Y17030510D01*
X67126724Y17081197D01*
X67391605Y17081197D01*
G37*
G36*
X68085133Y15503999D02*
G01*
X68782324Y17110506D01*
X68799177Y17110506D01*
X69496368Y15503999D01*
X69143559Y15503999D01*
X68698427Y16633866D01*
X68918612Y16785174D01*
X68385185Y15503999D01*
X68085133Y15503999D01*
G37*
G36*
X68561773Y16062704D02*
G01*
X69025956Y16062704D01*
X69132935Y15806249D01*
X68467251Y15806249D01*
X68561773Y16062704D01*
G37*
G36*
X70307499Y16896183D02*
G01*
X70725154Y16896183D01*
X70725154Y15503999D01*
X70418507Y15503999D01*
X70418507Y16602359D01*
X70307499Y16602359D01*
X70307499Y16896183D01*
G37*
D14*
G36*
X6137000Y29435668D02*
G01*
X4528294Y29435668D01*
X4528294Y29437500D01*
X5746455Y30296624D01*
X5717146Y30166198D01*
X4528294Y31023124D01*
X4528294Y31027154D01*
X6137000Y31027154D01*
X6137000Y30722706D01*
X5215227Y30722706D01*
X5372764Y30741757D01*
X6116117Y30218955D01*
X6116117Y30214558D01*
X5372764Y29677102D01*
X5227683Y29729492D01*
X6137000Y29729492D01*
X6137000Y29435668D01*
G37*
G36*
X5446746Y33587835D02*
G01*
X5524713Y33576225D01*
X5600070Y33556877D01*
X5672816Y33529789D01*
X5742082Y33495808D01*
X5806997Y33455783D01*
X5867561Y33409713D01*
X5923775Y33357598D01*
X5974883Y33300422D01*
X6020129Y33239170D01*
X6059513Y33173843D01*
X6093036Y33104440D01*
X6119643Y33031831D01*
X6138648Y32956887D01*
X6150051Y32879607D01*
X6153852Y32799991D01*
X6150051Y32719414D01*
X6138648Y32641447D01*
X6119643Y32566090D01*
X6093036Y32493344D01*
X6059513Y32424078D01*
X6020129Y32359163D01*
X5974883Y32298599D01*
X5923775Y32242385D01*
X5867561Y32191300D01*
X5806997Y32146122D01*
X5742082Y32106853D01*
X5672816Y32073491D01*
X5600070Y32046884D01*
X5524713Y32027878D01*
X5446746Y32016475D01*
X5366169Y32012674D01*
X5287515Y32016475D01*
X5210922Y32027878D01*
X5136390Y32046884D01*
X5063919Y32073491D01*
X4994515Y32106853D01*
X4929188Y32146122D01*
X4867937Y32191300D01*
X4810761Y32242385D01*
X4758577Y32298599D01*
X4712300Y32359163D01*
X4671932Y32424078D01*
X4637471Y32493344D01*
X4609902Y32566090D01*
X4590210Y32641447D01*
X4578394Y32719414D01*
X4574456Y32799991D01*
X4574565Y32802189D01*
X4868646Y32802189D01*
X4873953Y32728687D01*
X4891678Y32653712D01*
X4906382Y32615344D01*
X4942121Y32548837D01*
X4988018Y32489224D01*
X5012628Y32464035D01*
X5071683Y32415887D01*
X5138114Y32377413D01*
X5171263Y32362919D01*
X5246909Y32339910D01*
X5321029Y32329082D01*
X5366169Y32327381D01*
X5441474Y32332533D01*
X5518752Y32349742D01*
X5558510Y32364018D01*
X5627458Y32398859D01*
X5689634Y32443254D01*
X5716047Y32466966D01*
X5766395Y32524291D01*
X5806706Y32588509D01*
X5821926Y32620473D01*
X5846359Y32693918D01*
X5857856Y32766330D01*
X5859662Y32810616D01*
X5853434Y32888452D01*
X5834750Y32961814D01*
X5821926Y32994164D01*
X5786248Y33059596D01*
X5740532Y33117772D01*
X5716047Y33142175D01*
X5656996Y33188840D01*
X5591174Y33226435D01*
X5558510Y33240727D01*
X5483641Y33263974D01*
X5410560Y33274913D01*
X5366169Y33276631D01*
X5289645Y33271479D01*
X5217242Y33256023D01*
X5171263Y33239995D01*
X5101427Y33205693D01*
X5038967Y33162321D01*
X5012628Y33139244D01*
X4962042Y33083524D01*
X4921615Y33020548D01*
X4906382Y32989035D01*
X4881950Y32916664D01*
X4869973Y32839455D01*
X4868646Y32802189D01*
X4574565Y32802189D01*
X4578394Y32879607D01*
X4590210Y32956887D01*
X4609902Y33031831D01*
X4637471Y33104440D01*
X4671932Y33173843D01*
X4712300Y33239170D01*
X4758577Y33300422D01*
X4810761Y33357598D01*
X4867937Y33409713D01*
X4929188Y33455783D01*
X4994515Y33495808D01*
X5063919Y33529789D01*
X5136390Y33556877D01*
X5210922Y33576225D01*
X5287515Y33587835D01*
X5366169Y33591704D01*
X5446746Y33587835D01*
G37*
G36*
X4591309Y34472810D02*
G01*
X4591309Y35514384D01*
X4885499Y35514384D01*
X4885499Y35138494D01*
X6137000Y35138494D01*
X6137000Y34834046D01*
X4885499Y34834046D01*
X4885499Y34472810D01*
X4591309Y34472810D01*
G37*
G36*
X4591309Y36488913D02*
G01*
X4591309Y36793362D01*
X6137000Y36793362D01*
X6137000Y36488913D01*
X4591309Y36488913D01*
G37*
G36*
X4591309Y38106778D02*
G01*
X5704323Y38558138D01*
X5668786Y38381917D01*
X4591309Y38791146D01*
X4591309Y39152381D01*
X6208441Y38446764D01*
X4591309Y37741146D01*
X4591309Y38106778D01*
G37*
D15*
G36*
X3417945Y25081289D02*
G01*
X1828901Y23516181D01*
X1848441Y23594827D01*
X3352000Y23600200D01*
X3352000Y23327137D01*
X1266167Y23327137D01*
X1266167Y23339838D01*
X2859117Y24888337D01*
X2845440Y24825323D01*
X1327716Y24819461D01*
X1327716Y25089593D01*
X3417945Y25089593D01*
X3417945Y25081289D01*
G37*
G36*
X3396940Y25973752D02*
G01*
X3385511Y25870746D01*
X3346974Y25773911D01*
X3300220Y25711924D01*
X3219643Y25648887D01*
X3122991Y25612914D01*
X3049627Y25603969D01*
X2192823Y25603969D01*
X2192823Y25865797D01*
X2957303Y25865797D01*
X3056623Y25888085D01*
X3110688Y25920996D01*
X3162627Y26005412D01*
X3172725Y26077311D01*
X3156595Y26174700D01*
X3115572Y26251701D01*
X3042610Y26325263D01*
X2958769Y26375288D01*
X2859550Y26408597D01*
X2756487Y26421286D01*
X2733088Y26421694D01*
X2192823Y26421694D01*
X2192823Y26683522D01*
X3352000Y26683522D01*
X3352000Y26447095D01*
X3067701Y26424625D01*
X3118015Y26437325D01*
X3203040Y26387403D01*
X3262118Y26334255D01*
X3321732Y26255218D01*
X3361281Y26174032D01*
X3388025Y26077800D01*
X3396905Y25980484D01*
X3396940Y25973752D01*
G37*
G36*
X2192823Y27367402D02*
G01*
X2453186Y27389872D01*
X2430715Y27377172D01*
X2346122Y27428024D01*
X2269243Y27498378D01*
X2222132Y27561331D01*
X2175993Y27655899D01*
X2152406Y27751034D01*
X2146417Y27834883D01*
X2156463Y27936893D01*
X2178168Y28006830D01*
X2227551Y28091361D01*
X2267073Y28132371D01*
X2353025Y28182410D01*
X2406780Y28196362D01*
X2417038Y28180731D01*
X2329317Y28239029D01*
X2257395Y28311340D01*
X2218224Y28367332D01*
X2174467Y28458351D01*
X2150905Y28553354D01*
X2146417Y28618903D01*
X2155862Y28718069D01*
X2188071Y28811504D01*
X2243137Y28888547D01*
X2323714Y28949913D01*
X2420366Y28983801D01*
X2493730Y28991129D01*
X3352000Y28991129D01*
X3352000Y28730766D01*
X2588985Y28730766D01*
X2488693Y28712638D01*
X2439508Y28687290D01*
X2382312Y28603143D01*
X2373563Y28546118D01*
X2390796Y28444123D01*
X2434623Y28364890D01*
X2504355Y28294304D01*
X2592404Y28240815D01*
X2686865Y28208264D01*
X2787980Y28193960D01*
X2801965Y28193431D01*
X3352000Y28193431D01*
X3352000Y27931603D01*
X2588985Y27931603D01*
X2488693Y27912102D01*
X2439508Y27885197D01*
X2383779Y27803522D01*
X2373563Y27741094D01*
X2390796Y27639237D01*
X2434623Y27560354D01*
X2504721Y27490623D01*
X2593870Y27437744D01*
X2689275Y27406188D01*
X2790476Y27393952D01*
X2804407Y27393780D01*
X3352000Y27393780D01*
X3352000Y27131952D01*
X2192823Y27131952D01*
X2192823Y27367402D01*
G37*
G36*
X3200569Y30994408D02*
G01*
X3250839Y30908771D01*
X3276284Y30857632D01*
X3314997Y30762988D01*
X3343461Y30668354D01*
X3347115Y30653934D01*
X3365533Y30556081D01*
X3373955Y30450649D01*
X3374470Y30399433D01*
X3369448Y30298667D01*
X3354549Y30189002D01*
X3329880Y30085199D01*
X3295442Y29987258D01*
X3290450Y29975427D01*
X3246181Y29884874D01*
X3194463Y29801282D01*
X3127375Y29715561D01*
X3068678Y29654981D01*
X2986220Y29585622D01*
X2897116Y29525923D01*
X2801366Y29475884D01*
X2745300Y29452259D01*
X2652396Y29421271D01*
X2556378Y29399136D01*
X2457246Y29385856D01*
X2355000Y29381429D01*
X2243870Y29386008D01*
X2137136Y29399747D01*
X2034798Y29422645D01*
X1936856Y29454702D01*
X1844044Y29495398D01*
X1757582Y29543728D01*
X1677471Y29599690D01*
X1603709Y29663285D01*
X1529048Y29743184D01*
X1464434Y29830656D01*
X1409865Y29925702D01*
X1383892Y29981778D01*
X1349484Y30075781D01*
X1324907Y30174119D01*
X1310161Y30276792D01*
X1305245Y30383801D01*
X1309148Y30483587D01*
X1322639Y30588115D01*
X1345765Y30685965D01*
X1354582Y30714018D01*
X1390128Y30811147D01*
X1433381Y30905784D01*
X1468887Y30969007D01*
X1723877Y30860075D01*
X1671663Y30773471D01*
X1626222Y30678503D01*
X1616898Y30656376D01*
X1586536Y30563114D01*
X1570187Y30462844D01*
X1567073Y30392106D01*
X1574057Y30293029D01*
X1595010Y30197301D01*
X1626180Y30113180D01*
X1672021Y30025863D01*
X1728945Y29945935D01*
X1790311Y29879684D01*
X1867007Y29815582D01*
X1952015Y29761638D01*
X2036508Y29721415D01*
X2135998Y29688876D01*
X2241030Y29669843D01*
X2341323Y29664262D01*
X2441453Y29669318D01*
X2546637Y29686561D01*
X2646626Y29716041D01*
X2739353Y29757008D01*
X2823422Y29808711D01*
X2892334Y29865030D01*
X2963913Y29943729D01*
X3018182Y30025405D01*
X3054512Y30099014D01*
X3087607Y30196637D01*
X3106965Y30302110D01*
X3112642Y30404806D01*
X3107100Y30507388D01*
X3088416Y30609683D01*
X3065747Y30679824D01*
X3025468Y30770291D01*
X2973583Y30857846D01*
X2958769Y30878149D01*
X3200569Y30994408D01*
G37*
G36*
X3352000Y32313320D02*
G01*
X3158869Y32313320D01*
X3188357Y32292315D01*
X3257181Y32218935D01*
X3276773Y32193152D01*
X3326423Y32108392D01*
X3350534Y32050026D01*
X3374233Y31952619D01*
X3379843Y31868309D01*
X3373022Y31768990D01*
X3349760Y31666571D01*
X3309990Y31571310D01*
X3254173Y31486486D01*
X3182772Y31414706D01*
X3104337Y31360773D01*
X3013548Y31319814D01*
X2910927Y31294026D01*
X2808454Y31283786D01*
X2772167Y31283103D01*
X2667058Y31289518D01*
X2570449Y31308760D01*
X2473076Y31345187D01*
X2437066Y31364192D01*
X2355531Y31420473D01*
X2280608Y31494613D01*
X2221155Y31581568D01*
X2178048Y31678047D01*
X2152834Y31780760D01*
X2145440Y31879545D01*
X2149535Y31929859D01*
X2360862Y31929859D01*
X2373441Y31830330D01*
X2411176Y31738861D01*
X2471382Y31660337D01*
X2551371Y31599642D01*
X2641725Y31562476D01*
X2745172Y31548065D01*
X2759955Y31547863D01*
X2861478Y31559562D01*
X2953555Y31594660D01*
X2965119Y31601108D01*
X3047184Y31663390D01*
X3110688Y31743745D01*
X3150988Y31837046D01*
X3164421Y31938163D01*
X3154219Y32035551D01*
X3128273Y32112552D01*
X3074262Y32195657D01*
X3025203Y32242001D01*
X2937529Y32292123D01*
X2867422Y32313320D01*
X2639299Y32313320D01*
X2548499Y32275334D01*
X2494707Y32235651D01*
X2429929Y32161836D01*
X2396521Y32101806D01*
X2366747Y32003482D01*
X2360862Y31929859D01*
X2149535Y31929859D01*
X2154098Y31985930D01*
X2183293Y32088032D01*
X2218713Y32155050D01*
X2283084Y32237468D01*
X2357130Y32302150D01*
X2376535Y32314522D01*
X2192823Y32334325D01*
X2192823Y32575148D01*
X3352000Y32575148D01*
X3352000Y32313320D01*
G37*
G36*
X1183613Y33023090D02*
G01*
X1183613Y33284918D01*
X3352000Y33284918D01*
X3352000Y33023090D01*
X1183613Y33023090D01*
G37*
G36*
X3244044Y34676614D02*
G01*
X3300464Y34590884D01*
X3341380Y34496760D01*
X3343695Y34490012D01*
X3368406Y34394656D01*
X3379525Y34291452D01*
X3379843Y34270682D01*
X3373893Y34167938D01*
X3353323Y34062208D01*
X3318060Y33965350D01*
X3304616Y33938023D01*
X3251379Y33854675D01*
X3179154Y33777098D01*
X3092614Y33714297D01*
X3002454Y33671793D01*
X2902944Y33645031D01*
X2805391Y33634405D01*
X2771190Y33633697D01*
X2670915Y33640459D01*
X2568562Y33663833D01*
X2475750Y33703905D01*
X2449766Y33719182D01*
X2370340Y33777905D01*
X2296965Y33854732D01*
X2238252Y33944374D01*
X2198839Y34033904D01*
X2172345Y34136795D01*
X2163587Y34234339D01*
X2163514Y34244304D01*
X2169009Y34344894D01*
X2187366Y34444409D01*
X2202593Y34493920D01*
X2242210Y34584387D01*
X2296692Y34668658D01*
X2309083Y34683941D01*
X2479564Y34553515D01*
X2427426Y34470425D01*
X2409222Y34430905D01*
X2381936Y34332445D01*
X2377471Y34266774D01*
X2390415Y34168711D01*
X2429250Y34079684D01*
X2494743Y33999683D01*
X2569934Y33945351D01*
X2664700Y33907981D01*
X2764191Y33895574D01*
X2771190Y33895525D01*
X2874383Y33908226D01*
X2969027Y33946327D01*
X3049993Y34007144D01*
X3112153Y34087011D01*
X3151354Y34183121D01*
X3164370Y34284537D01*
X3164421Y34291687D01*
X3152813Y34392869D01*
X3141951Y34429440D01*
X3096704Y34520184D01*
X3080401Y34542280D01*
X3244044Y34676614D01*
G37*
G36*
X2192823Y35010249D02*
G01*
X2192823Y35272078D01*
X3352000Y35272078D01*
X3352000Y35010249D01*
X2192823Y35010249D01*
G37*
G36*
X1784449Y34992175D02*
G01*
X1691003Y35030323D01*
X1680401Y35042001D01*
X1639894Y35131298D01*
X1638880Y35148979D01*
X1670670Y35242585D01*
X1680401Y35254492D01*
X1769146Y35300654D01*
X1784449Y35301387D01*
X1878963Y35265483D01*
X1889473Y35254492D01*
X1929384Y35163451D01*
X1930018Y35148979D01*
X1898602Y35054572D01*
X1888985Y35042001D01*
X1803616Y34993392D01*
X1784449Y34992175D01*
G37*
G36*
X3396940Y36091268D02*
G01*
X3385511Y35988262D01*
X3346974Y35891427D01*
X3300220Y35829440D01*
X3219643Y35766402D01*
X3122991Y35730430D01*
X3049627Y35721484D01*
X2192823Y35721484D01*
X2192823Y35983313D01*
X2957303Y35983313D01*
X3056623Y36005600D01*
X3110688Y36038512D01*
X3162627Y36122928D01*
X3172725Y36194827D01*
X3156595Y36292216D01*
X3115572Y36369217D01*
X3042610Y36442779D01*
X2958769Y36492803D01*
X2859550Y36526113D01*
X2756487Y36538802D01*
X2733088Y36539210D01*
X2192823Y36539210D01*
X2192823Y36801038D01*
X3352000Y36801038D01*
X3352000Y36564611D01*
X3067701Y36542140D01*
X3118015Y36554841D01*
X3203040Y36504918D01*
X3262118Y36451771D01*
X3321732Y36372734D01*
X3361281Y36291547D01*
X3388025Y36195316D01*
X3396905Y36098000D01*
X3396940Y36091268D01*
G37*
G36*
X2192823Y37484918D02*
G01*
X2453186Y37507388D01*
X2430715Y37494688D01*
X2346122Y37545540D01*
X2269243Y37615894D01*
X2222132Y37678847D01*
X2175993Y37773414D01*
X2152406Y37868550D01*
X2146417Y37952399D01*
X2156463Y38054408D01*
X2178168Y38124346D01*
X2227551Y38208877D01*
X2267073Y38249886D01*
X2353025Y38299925D01*
X2406780Y38313878D01*
X2417038Y38298247D01*
X2329317Y38356544D01*
X2257395Y38428855D01*
X2218224Y38484848D01*
X2174467Y38575867D01*
X2150905Y38670870D01*
X2146417Y38736418D01*
X2155862Y38835585D01*
X2188071Y38929020D01*
X2243137Y39006062D01*
X2323714Y39067428D01*
X2420366Y39101317D01*
X2493730Y39108644D01*
X3352000Y39108644D01*
X3352000Y38848281D01*
X2588985Y38848281D01*
X2488693Y38830154D01*
X2439508Y38804806D01*
X2382312Y38720659D01*
X2373563Y38663634D01*
X2390796Y38561639D01*
X2434623Y38482406D01*
X2504355Y38411819D01*
X2592404Y38358330D01*
X2686865Y38325780D01*
X2787980Y38311476D01*
X2801965Y38310947D01*
X3352000Y38310947D01*
X3352000Y38049119D01*
X2588985Y38049119D01*
X2488693Y38029618D01*
X2439508Y38002713D01*
X2383779Y37921038D01*
X2373563Y37858609D01*
X2390796Y37756753D01*
X2434623Y37677870D01*
X2504721Y37608138D01*
X2593870Y37555260D01*
X2689275Y37523704D01*
X2790476Y37511468D01*
X2804407Y37511296D01*
X3352000Y37511296D01*
X3352000Y37249468D01*
X2192823Y37249468D01*
X2192823Y37484918D01*
G37*
D12*
X40624476Y-76870200D02*
X40767333Y-76917819D01*
X40767333Y-76917819D02*
X41005428Y-76917819D01*
X41005428Y-76917819D02*
X41100666Y-76870200D01*
X41100666Y-76870200D02*
X41148285Y-76822580D01*
X41148285Y-76822580D02*
X41195904Y-76727342D01*
X41195904Y-76727342D02*
X41195904Y-76632104D01*
X41195904Y-76632104D02*
X41148285Y-76536866D01*
X41148285Y-76536866D02*
X41100666Y-76489247D01*
X41100666Y-76489247D02*
X41005428Y-76441628D01*
X41005428Y-76441628D02*
X40814952Y-76394009D01*
X40814952Y-76394009D02*
X40719714Y-76346390D01*
X40719714Y-76346390D02*
X40672095Y-76298771D01*
X40672095Y-76298771D02*
X40624476Y-76203533D01*
X40624476Y-76203533D02*
X40624476Y-76108295D01*
X40624476Y-76108295D02*
X40672095Y-76013057D01*
X40672095Y-76013057D02*
X40719714Y-75965438D01*
X40719714Y-75965438D02*
X40814952Y-75917819D01*
X40814952Y-75917819D02*
X41053047Y-75917819D01*
X41053047Y-75917819D02*
X41195904Y-75965438D01*
X41529238Y-75917819D02*
X41767333Y-76917819D01*
X41767333Y-76917819D02*
X41957809Y-76203533D01*
X41957809Y-76203533D02*
X42148285Y-76917819D01*
X42148285Y-76917819D02*
X42386381Y-75917819D01*
X43291142Y-76917819D02*
X42719714Y-76917819D01*
X43005428Y-76917819D02*
X43005428Y-75917819D01*
X43005428Y-75917819D02*
X42910190Y-76060676D01*
X42910190Y-76060676D02*
X42814952Y-76155914D01*
X42814952Y-76155914D02*
X42719714Y-76203533D01*
X44243523Y-76917819D02*
X43672095Y-76917819D01*
X43957809Y-76917819D02*
X43957809Y-75917819D01*
X43957809Y-75917819D02*
X43862571Y-76060676D01*
X43862571Y-76060676D02*
X43767333Y-76155914D01*
X43767333Y-76155914D02*
X43672095Y-76203533D01*
X2569476Y-57821200D02*
X2712333Y-57868819D01*
X2712333Y-57868819D02*
X2950428Y-57868819D01*
X2950428Y-57868819D02*
X3045666Y-57821200D01*
X3045666Y-57821200D02*
X3093285Y-57773580D01*
X3093285Y-57773580D02*
X3140904Y-57678342D01*
X3140904Y-57678342D02*
X3140904Y-57583104D01*
X3140904Y-57583104D02*
X3093285Y-57487866D01*
X3093285Y-57487866D02*
X3045666Y-57440247D01*
X3045666Y-57440247D02*
X2950428Y-57392628D01*
X2950428Y-57392628D02*
X2759952Y-57345009D01*
X2759952Y-57345009D02*
X2664714Y-57297390D01*
X2664714Y-57297390D02*
X2617095Y-57249771D01*
X2617095Y-57249771D02*
X2569476Y-57154533D01*
X2569476Y-57154533D02*
X2569476Y-57059295D01*
X2569476Y-57059295D02*
X2617095Y-56964057D01*
X2617095Y-56964057D02*
X2664714Y-56916438D01*
X2664714Y-56916438D02*
X2759952Y-56868819D01*
X2759952Y-56868819D02*
X2998047Y-56868819D01*
X2998047Y-56868819D02*
X3140904Y-56916438D01*
X3474238Y-56868819D02*
X3712333Y-57868819D01*
X3712333Y-57868819D02*
X3902809Y-57154533D01*
X3902809Y-57154533D02*
X4093285Y-57868819D01*
X4093285Y-57868819D02*
X4331381Y-56868819D01*
X5236142Y-57868819D02*
X4664714Y-57868819D01*
X4950428Y-57868819D02*
X4950428Y-56868819D01*
X4950428Y-56868819D02*
X4855190Y-57011676D01*
X4855190Y-57011676D02*
X4759952Y-57106914D01*
X4759952Y-57106914D02*
X4664714Y-57154533D01*
X5569476Y-56868819D02*
X6188523Y-56868819D01*
X6188523Y-56868819D02*
X5855190Y-57249771D01*
X5855190Y-57249771D02*
X5998047Y-57249771D01*
X5998047Y-57249771D02*
X6093285Y-57297390D01*
X6093285Y-57297390D02*
X6140904Y-57345009D01*
X6140904Y-57345009D02*
X6188523Y-57440247D01*
X6188523Y-57440247D02*
X6188523Y-57678342D01*
X6188523Y-57678342D02*
X6140904Y-57773580D01*
X6140904Y-57773580D02*
X6093285Y-57821200D01*
X6093285Y-57821200D02*
X5998047Y-57868819D01*
X5998047Y-57868819D02*
X5712333Y-57868819D01*
X5712333Y-57868819D02*
X5617095Y-57821200D01*
X5617095Y-57821200D02*
X5569476Y-57773580D01*
X2985667Y-76836200D02*
X3128524Y-76883819D01*
X3128524Y-76883819D02*
X3366619Y-76883819D01*
X3366619Y-76883819D02*
X3461857Y-76836200D01*
X3461857Y-76836200D02*
X3509476Y-76788580D01*
X3509476Y-76788580D02*
X3557095Y-76693342D01*
X3557095Y-76693342D02*
X3557095Y-76598104D01*
X3557095Y-76598104D02*
X3509476Y-76502866D01*
X3509476Y-76502866D02*
X3461857Y-76455247D01*
X3461857Y-76455247D02*
X3366619Y-76407628D01*
X3366619Y-76407628D02*
X3176143Y-76360009D01*
X3176143Y-76360009D02*
X3080905Y-76312390D01*
X3080905Y-76312390D02*
X3033286Y-76264771D01*
X3033286Y-76264771D02*
X2985667Y-76169533D01*
X2985667Y-76169533D02*
X2985667Y-76074295D01*
X2985667Y-76074295D02*
X3033286Y-75979057D01*
X3033286Y-75979057D02*
X3080905Y-75931438D01*
X3080905Y-75931438D02*
X3176143Y-75883819D01*
X3176143Y-75883819D02*
X3414238Y-75883819D01*
X3414238Y-75883819D02*
X3557095Y-75931438D01*
X3890429Y-75883819D02*
X4128524Y-76883819D01*
X4128524Y-76883819D02*
X4319000Y-76169533D01*
X4319000Y-76169533D02*
X4509476Y-76883819D01*
X4509476Y-76883819D02*
X4747572Y-75883819D01*
X5176143Y-76883819D02*
X5366619Y-76883819D01*
X5366619Y-76883819D02*
X5461857Y-76836200D01*
X5461857Y-76836200D02*
X5509476Y-76788580D01*
X5509476Y-76788580D02*
X5604714Y-76645723D01*
X5604714Y-76645723D02*
X5652333Y-76455247D01*
X5652333Y-76455247D02*
X5652333Y-76074295D01*
X5652333Y-76074295D02*
X5604714Y-75979057D01*
X5604714Y-75979057D02*
X5557095Y-75931438D01*
X5557095Y-75931438D02*
X5461857Y-75883819D01*
X5461857Y-75883819D02*
X5271381Y-75883819D01*
X5271381Y-75883819D02*
X5176143Y-75931438D01*
X5176143Y-75931438D02*
X5128524Y-75979057D01*
X5128524Y-75979057D02*
X5080905Y-76074295D01*
X5080905Y-76074295D02*
X5080905Y-76312390D01*
X5080905Y-76312390D02*
X5128524Y-76407628D01*
X5128524Y-76407628D02*
X5176143Y-76455247D01*
X5176143Y-76455247D02*
X5271381Y-76502866D01*
X5271381Y-76502866D02*
X5461857Y-76502866D01*
X5461857Y-76502866D02*
X5557095Y-76455247D01*
X5557095Y-76455247D02*
X5604714Y-76407628D01*
X5604714Y-76407628D02*
X5652333Y-76312390D01*
X60150667Y-95920200D02*
X60293524Y-95967819D01*
X60293524Y-95967819D02*
X60531619Y-95967819D01*
X60531619Y-95967819D02*
X60626857Y-95920200D01*
X60626857Y-95920200D02*
X60674476Y-95872580D01*
X60674476Y-95872580D02*
X60722095Y-95777342D01*
X60722095Y-95777342D02*
X60722095Y-95682104D01*
X60722095Y-95682104D02*
X60674476Y-95586866D01*
X60674476Y-95586866D02*
X60626857Y-95539247D01*
X60626857Y-95539247D02*
X60531619Y-95491628D01*
X60531619Y-95491628D02*
X60341143Y-95444009D01*
X60341143Y-95444009D02*
X60245905Y-95396390D01*
X60245905Y-95396390D02*
X60198286Y-95348771D01*
X60198286Y-95348771D02*
X60150667Y-95253533D01*
X60150667Y-95253533D02*
X60150667Y-95158295D01*
X60150667Y-95158295D02*
X60198286Y-95063057D01*
X60198286Y-95063057D02*
X60245905Y-95015438D01*
X60245905Y-95015438D02*
X60341143Y-94967819D01*
X60341143Y-94967819D02*
X60579238Y-94967819D01*
X60579238Y-94967819D02*
X60722095Y-95015438D01*
X61055429Y-94967819D02*
X61293524Y-95967819D01*
X61293524Y-95967819D02*
X61484000Y-95253533D01*
X61484000Y-95253533D02*
X61674476Y-95967819D01*
X61674476Y-95967819D02*
X61912572Y-94967819D01*
X62436381Y-95396390D02*
X62341143Y-95348771D01*
X62341143Y-95348771D02*
X62293524Y-95301152D01*
X62293524Y-95301152D02*
X62245905Y-95205914D01*
X62245905Y-95205914D02*
X62245905Y-95158295D01*
X62245905Y-95158295D02*
X62293524Y-95063057D01*
X62293524Y-95063057D02*
X62341143Y-95015438D01*
X62341143Y-95015438D02*
X62436381Y-94967819D01*
X62436381Y-94967819D02*
X62626857Y-94967819D01*
X62626857Y-94967819D02*
X62722095Y-95015438D01*
X62722095Y-95015438D02*
X62769714Y-95063057D01*
X62769714Y-95063057D02*
X62817333Y-95158295D01*
X62817333Y-95158295D02*
X62817333Y-95205914D01*
X62817333Y-95205914D02*
X62769714Y-95301152D01*
X62769714Y-95301152D02*
X62722095Y-95348771D01*
X62722095Y-95348771D02*
X62626857Y-95396390D01*
X62626857Y-95396390D02*
X62436381Y-95396390D01*
X62436381Y-95396390D02*
X62341143Y-95444009D01*
X62341143Y-95444009D02*
X62293524Y-95491628D01*
X62293524Y-95491628D02*
X62245905Y-95586866D01*
X62245905Y-95586866D02*
X62245905Y-95777342D01*
X62245905Y-95777342D02*
X62293524Y-95872580D01*
X62293524Y-95872580D02*
X62341143Y-95920200D01*
X62341143Y-95920200D02*
X62436381Y-95967819D01*
X62436381Y-95967819D02*
X62626857Y-95967819D01*
X62626857Y-95967819D02*
X62722095Y-95920200D01*
X62722095Y-95920200D02*
X62769714Y-95872580D01*
X62769714Y-95872580D02*
X62817333Y-95777342D01*
X62817333Y-95777342D02*
X62817333Y-95586866D01*
X62817333Y-95586866D02*
X62769714Y-95491628D01*
X62769714Y-95491628D02*
X62722095Y-95444009D01*
X62722095Y-95444009D02*
X62626857Y-95396390D01*
X60162667Y-114971200D02*
X60305524Y-115018819D01*
X60305524Y-115018819D02*
X60543619Y-115018819D01*
X60543619Y-115018819D02*
X60638857Y-114971200D01*
X60638857Y-114971200D02*
X60686476Y-114923580D01*
X60686476Y-114923580D02*
X60734095Y-114828342D01*
X60734095Y-114828342D02*
X60734095Y-114733104D01*
X60734095Y-114733104D02*
X60686476Y-114637866D01*
X60686476Y-114637866D02*
X60638857Y-114590247D01*
X60638857Y-114590247D02*
X60543619Y-114542628D01*
X60543619Y-114542628D02*
X60353143Y-114495009D01*
X60353143Y-114495009D02*
X60257905Y-114447390D01*
X60257905Y-114447390D02*
X60210286Y-114399771D01*
X60210286Y-114399771D02*
X60162667Y-114304533D01*
X60162667Y-114304533D02*
X60162667Y-114209295D01*
X60162667Y-114209295D02*
X60210286Y-114114057D01*
X60210286Y-114114057D02*
X60257905Y-114066438D01*
X60257905Y-114066438D02*
X60353143Y-114018819D01*
X60353143Y-114018819D02*
X60591238Y-114018819D01*
X60591238Y-114018819D02*
X60734095Y-114066438D01*
X61067429Y-114018819D02*
X61305524Y-115018819D01*
X61305524Y-115018819D02*
X61496000Y-114304533D01*
X61496000Y-114304533D02*
X61686476Y-115018819D01*
X61686476Y-115018819D02*
X61924572Y-114018819D01*
X62734095Y-114352152D02*
X62734095Y-115018819D01*
X62496000Y-113971200D02*
X62257905Y-114685485D01*
X62257905Y-114685485D02*
X62876952Y-114685485D01*
X40542476Y-57821200D02*
X40685333Y-57868819D01*
X40685333Y-57868819D02*
X40923428Y-57868819D01*
X40923428Y-57868819D02*
X41018666Y-57821200D01*
X41018666Y-57821200D02*
X41066285Y-57773580D01*
X41066285Y-57773580D02*
X41113904Y-57678342D01*
X41113904Y-57678342D02*
X41113904Y-57583104D01*
X41113904Y-57583104D02*
X41066285Y-57487866D01*
X41066285Y-57487866D02*
X41018666Y-57440247D01*
X41018666Y-57440247D02*
X40923428Y-57392628D01*
X40923428Y-57392628D02*
X40732952Y-57345009D01*
X40732952Y-57345009D02*
X40637714Y-57297390D01*
X40637714Y-57297390D02*
X40590095Y-57249771D01*
X40590095Y-57249771D02*
X40542476Y-57154533D01*
X40542476Y-57154533D02*
X40542476Y-57059295D01*
X40542476Y-57059295D02*
X40590095Y-56964057D01*
X40590095Y-56964057D02*
X40637714Y-56916438D01*
X40637714Y-56916438D02*
X40732952Y-56868819D01*
X40732952Y-56868819D02*
X40971047Y-56868819D01*
X40971047Y-56868819D02*
X41113904Y-56916438D01*
X41447238Y-56868819D02*
X41685333Y-57868819D01*
X41685333Y-57868819D02*
X41875809Y-57154533D01*
X41875809Y-57154533D02*
X42066285Y-57868819D01*
X42066285Y-57868819D02*
X42304381Y-56868819D01*
X43209142Y-57868819D02*
X42637714Y-57868819D01*
X42923428Y-57868819D02*
X42923428Y-56868819D01*
X42923428Y-56868819D02*
X42828190Y-57011676D01*
X42828190Y-57011676D02*
X42732952Y-57106914D01*
X42732952Y-57106914D02*
X42637714Y-57154533D01*
X44113904Y-56868819D02*
X43637714Y-56868819D01*
X43637714Y-56868819D02*
X43590095Y-57345009D01*
X43590095Y-57345009D02*
X43637714Y-57297390D01*
X43637714Y-57297390D02*
X43732952Y-57249771D01*
X43732952Y-57249771D02*
X43971047Y-57249771D01*
X43971047Y-57249771D02*
X44066285Y-57297390D01*
X44066285Y-57297390D02*
X44113904Y-57345009D01*
X44113904Y-57345009D02*
X44161523Y-57440247D01*
X44161523Y-57440247D02*
X44161523Y-57678342D01*
X44161523Y-57678342D02*
X44113904Y-57773580D01*
X44113904Y-57773580D02*
X44066285Y-57821200D01*
X44066285Y-57821200D02*
X43971047Y-57868819D01*
X43971047Y-57868819D02*
X43732952Y-57868819D01*
X43732952Y-57868819D02*
X43637714Y-57821200D01*
X43637714Y-57821200D02*
X43590095Y-57773580D01*
X59719476Y-57821200D02*
X59862333Y-57868819D01*
X59862333Y-57868819D02*
X60100428Y-57868819D01*
X60100428Y-57868819D02*
X60195666Y-57821200D01*
X60195666Y-57821200D02*
X60243285Y-57773580D01*
X60243285Y-57773580D02*
X60290904Y-57678342D01*
X60290904Y-57678342D02*
X60290904Y-57583104D01*
X60290904Y-57583104D02*
X60243285Y-57487866D01*
X60243285Y-57487866D02*
X60195666Y-57440247D01*
X60195666Y-57440247D02*
X60100428Y-57392628D01*
X60100428Y-57392628D02*
X59909952Y-57345009D01*
X59909952Y-57345009D02*
X59814714Y-57297390D01*
X59814714Y-57297390D02*
X59767095Y-57249771D01*
X59767095Y-57249771D02*
X59719476Y-57154533D01*
X59719476Y-57154533D02*
X59719476Y-57059295D01*
X59719476Y-57059295D02*
X59767095Y-56964057D01*
X59767095Y-56964057D02*
X59814714Y-56916438D01*
X59814714Y-56916438D02*
X59909952Y-56868819D01*
X59909952Y-56868819D02*
X60148047Y-56868819D01*
X60148047Y-56868819D02*
X60290904Y-56916438D01*
X60624238Y-56868819D02*
X60862333Y-57868819D01*
X60862333Y-57868819D02*
X61052809Y-57154533D01*
X61052809Y-57154533D02*
X61243285Y-57868819D01*
X61243285Y-57868819D02*
X61481381Y-56868819D01*
X62386142Y-57868819D02*
X61814714Y-57868819D01*
X62100428Y-57868819D02*
X62100428Y-56868819D01*
X62100428Y-56868819D02*
X62005190Y-57011676D01*
X62005190Y-57011676D02*
X61909952Y-57106914D01*
X61909952Y-57106914D02*
X61814714Y-57154533D01*
X63243285Y-56868819D02*
X63052809Y-56868819D01*
X63052809Y-56868819D02*
X62957571Y-56916438D01*
X62957571Y-56916438D02*
X62909952Y-56964057D01*
X62909952Y-56964057D02*
X62814714Y-57106914D01*
X62814714Y-57106914D02*
X62767095Y-57297390D01*
X62767095Y-57297390D02*
X62767095Y-57678342D01*
X62767095Y-57678342D02*
X62814714Y-57773580D01*
X62814714Y-57773580D02*
X62862333Y-57821200D01*
X62862333Y-57821200D02*
X62957571Y-57868819D01*
X62957571Y-57868819D02*
X63148047Y-57868819D01*
X63148047Y-57868819D02*
X63243285Y-57821200D01*
X63243285Y-57821200D02*
X63290904Y-57773580D01*
X63290904Y-57773580D02*
X63338523Y-57678342D01*
X63338523Y-57678342D02*
X63338523Y-57440247D01*
X63338523Y-57440247D02*
X63290904Y-57345009D01*
X63290904Y-57345009D02*
X63243285Y-57297390D01*
X63243285Y-57297390D02*
X63148047Y-57249771D01*
X63148047Y-57249771D02*
X62957571Y-57249771D01*
X62957571Y-57249771D02*
X62862333Y-57297390D01*
X62862333Y-57297390D02*
X62814714Y-57345009D01*
X62814714Y-57345009D02*
X62767095Y-57440247D01*
X21492476Y-38898200D02*
X21635333Y-38945819D01*
X21635333Y-38945819D02*
X21873428Y-38945819D01*
X21873428Y-38945819D02*
X21968666Y-38898200D01*
X21968666Y-38898200D02*
X22016285Y-38850580D01*
X22016285Y-38850580D02*
X22063904Y-38755342D01*
X22063904Y-38755342D02*
X22063904Y-38660104D01*
X22063904Y-38660104D02*
X22016285Y-38564866D01*
X22016285Y-38564866D02*
X21968666Y-38517247D01*
X21968666Y-38517247D02*
X21873428Y-38469628D01*
X21873428Y-38469628D02*
X21682952Y-38422009D01*
X21682952Y-38422009D02*
X21587714Y-38374390D01*
X21587714Y-38374390D02*
X21540095Y-38326771D01*
X21540095Y-38326771D02*
X21492476Y-38231533D01*
X21492476Y-38231533D02*
X21492476Y-38136295D01*
X21492476Y-38136295D02*
X21540095Y-38041057D01*
X21540095Y-38041057D02*
X21587714Y-37993438D01*
X21587714Y-37993438D02*
X21682952Y-37945819D01*
X21682952Y-37945819D02*
X21921047Y-37945819D01*
X21921047Y-37945819D02*
X22063904Y-37993438D01*
X22397238Y-37945819D02*
X22635333Y-38945819D01*
X22635333Y-38945819D02*
X22825809Y-38231533D01*
X22825809Y-38231533D02*
X23016285Y-38945819D01*
X23016285Y-38945819D02*
X23254381Y-37945819D01*
X24159142Y-38945819D02*
X23587714Y-38945819D01*
X23873428Y-38945819D02*
X23873428Y-37945819D01*
X23873428Y-37945819D02*
X23778190Y-38088676D01*
X23778190Y-38088676D02*
X23682952Y-38183914D01*
X23682952Y-38183914D02*
X23587714Y-38231533D01*
X24730571Y-38374390D02*
X24635333Y-38326771D01*
X24635333Y-38326771D02*
X24587714Y-38279152D01*
X24587714Y-38279152D02*
X24540095Y-38183914D01*
X24540095Y-38183914D02*
X24540095Y-38136295D01*
X24540095Y-38136295D02*
X24587714Y-38041057D01*
X24587714Y-38041057D02*
X24635333Y-37993438D01*
X24635333Y-37993438D02*
X24730571Y-37945819D01*
X24730571Y-37945819D02*
X24921047Y-37945819D01*
X24921047Y-37945819D02*
X25016285Y-37993438D01*
X25016285Y-37993438D02*
X25063904Y-38041057D01*
X25063904Y-38041057D02*
X25111523Y-38136295D01*
X25111523Y-38136295D02*
X25111523Y-38183914D01*
X25111523Y-38183914D02*
X25063904Y-38279152D01*
X25063904Y-38279152D02*
X25016285Y-38326771D01*
X25016285Y-38326771D02*
X24921047Y-38374390D01*
X24921047Y-38374390D02*
X24730571Y-38374390D01*
X24730571Y-38374390D02*
X24635333Y-38422009D01*
X24635333Y-38422009D02*
X24587714Y-38469628D01*
X24587714Y-38469628D02*
X24540095Y-38564866D01*
X24540095Y-38564866D02*
X24540095Y-38755342D01*
X24540095Y-38755342D02*
X24587714Y-38850580D01*
X24587714Y-38850580D02*
X24635333Y-38898200D01*
X24635333Y-38898200D02*
X24730571Y-38945819D01*
X24730571Y-38945819D02*
X24921047Y-38945819D01*
X24921047Y-38945819D02*
X25016285Y-38898200D01*
X25016285Y-38898200D02*
X25063904Y-38850580D01*
X25063904Y-38850580D02*
X25111523Y-38755342D01*
X25111523Y-38755342D02*
X25111523Y-38564866D01*
X25111523Y-38564866D02*
X25063904Y-38469628D01*
X25063904Y-38469628D02*
X25016285Y-38422009D01*
X25016285Y-38422009D02*
X24921047Y-38374390D01*
X40542476Y-38898200D02*
X40685333Y-38945819D01*
X40685333Y-38945819D02*
X40923428Y-38945819D01*
X40923428Y-38945819D02*
X41018666Y-38898200D01*
X41018666Y-38898200D02*
X41066285Y-38850580D01*
X41066285Y-38850580D02*
X41113904Y-38755342D01*
X41113904Y-38755342D02*
X41113904Y-38660104D01*
X41113904Y-38660104D02*
X41066285Y-38564866D01*
X41066285Y-38564866D02*
X41018666Y-38517247D01*
X41018666Y-38517247D02*
X40923428Y-38469628D01*
X40923428Y-38469628D02*
X40732952Y-38422009D01*
X40732952Y-38422009D02*
X40637714Y-38374390D01*
X40637714Y-38374390D02*
X40590095Y-38326771D01*
X40590095Y-38326771D02*
X40542476Y-38231533D01*
X40542476Y-38231533D02*
X40542476Y-38136295D01*
X40542476Y-38136295D02*
X40590095Y-38041057D01*
X40590095Y-38041057D02*
X40637714Y-37993438D01*
X40637714Y-37993438D02*
X40732952Y-37945819D01*
X40732952Y-37945819D02*
X40971047Y-37945819D01*
X40971047Y-37945819D02*
X41113904Y-37993438D01*
X41447238Y-37945819D02*
X41685333Y-38945819D01*
X41685333Y-38945819D02*
X41875809Y-38231533D01*
X41875809Y-38231533D02*
X42066285Y-38945819D01*
X42066285Y-38945819D02*
X42304381Y-37945819D01*
X43209142Y-38945819D02*
X42637714Y-38945819D01*
X42923428Y-38945819D02*
X42923428Y-37945819D01*
X42923428Y-37945819D02*
X42828190Y-38088676D01*
X42828190Y-38088676D02*
X42732952Y-38183914D01*
X42732952Y-38183914D02*
X42637714Y-38231533D01*
X43685333Y-38945819D02*
X43875809Y-38945819D01*
X43875809Y-38945819D02*
X43971047Y-38898200D01*
X43971047Y-38898200D02*
X44018666Y-38850580D01*
X44018666Y-38850580D02*
X44113904Y-38707723D01*
X44113904Y-38707723D02*
X44161523Y-38517247D01*
X44161523Y-38517247D02*
X44161523Y-38136295D01*
X44161523Y-38136295D02*
X44113904Y-38041057D01*
X44113904Y-38041057D02*
X44066285Y-37993438D01*
X44066285Y-37993438D02*
X43971047Y-37945819D01*
X43971047Y-37945819D02*
X43780571Y-37945819D01*
X43780571Y-37945819D02*
X43685333Y-37993438D01*
X43685333Y-37993438D02*
X43637714Y-38041057D01*
X43637714Y-38041057D02*
X43590095Y-38136295D01*
X43590095Y-38136295D02*
X43590095Y-38374390D01*
X43590095Y-38374390D02*
X43637714Y-38469628D01*
X43637714Y-38469628D02*
X43685333Y-38517247D01*
X43685333Y-38517247D02*
X43780571Y-38564866D01*
X43780571Y-38564866D02*
X43971047Y-38564866D01*
X43971047Y-38564866D02*
X44066285Y-38517247D01*
X44066285Y-38517247D02*
X44113904Y-38469628D01*
X44113904Y-38469628D02*
X44161523Y-38374390D01*
X3858667Y-115071200D02*
X4001524Y-115118819D01*
X4001524Y-115118819D02*
X4239619Y-115118819D01*
X4239619Y-115118819D02*
X4334857Y-115071200D01*
X4334857Y-115071200D02*
X4382476Y-115023580D01*
X4382476Y-115023580D02*
X4430095Y-114928342D01*
X4430095Y-114928342D02*
X4430095Y-114833104D01*
X4430095Y-114833104D02*
X4382476Y-114737866D01*
X4382476Y-114737866D02*
X4334857Y-114690247D01*
X4334857Y-114690247D02*
X4239619Y-114642628D01*
X4239619Y-114642628D02*
X4049143Y-114595009D01*
X4049143Y-114595009D02*
X3953905Y-114547390D01*
X3953905Y-114547390D02*
X3906286Y-114499771D01*
X3906286Y-114499771D02*
X3858667Y-114404533D01*
X3858667Y-114404533D02*
X3858667Y-114309295D01*
X3858667Y-114309295D02*
X3906286Y-114214057D01*
X3906286Y-114214057D02*
X3953905Y-114166438D01*
X3953905Y-114166438D02*
X4049143Y-114118819D01*
X4049143Y-114118819D02*
X4287238Y-114118819D01*
X4287238Y-114118819D02*
X4430095Y-114166438D01*
X4763429Y-114118819D02*
X5001524Y-115118819D01*
X5001524Y-115118819D02*
X5192000Y-114404533D01*
X5192000Y-114404533D02*
X5382476Y-115118819D01*
X5382476Y-115118819D02*
X5620572Y-114118819D01*
X6525333Y-115118819D02*
X5953905Y-115118819D01*
X6239619Y-115118819D02*
X6239619Y-114118819D01*
X6239619Y-114118819D02*
X6144381Y-114261676D01*
X6144381Y-114261676D02*
X6049143Y-114356914D01*
X6049143Y-114356914D02*
X5953905Y-114404533D01*
X41100667Y-95920200D02*
X41243524Y-95967819D01*
X41243524Y-95967819D02*
X41481619Y-95967819D01*
X41481619Y-95967819D02*
X41576857Y-95920200D01*
X41576857Y-95920200D02*
X41624476Y-95872580D01*
X41624476Y-95872580D02*
X41672095Y-95777342D01*
X41672095Y-95777342D02*
X41672095Y-95682104D01*
X41672095Y-95682104D02*
X41624476Y-95586866D01*
X41624476Y-95586866D02*
X41576857Y-95539247D01*
X41576857Y-95539247D02*
X41481619Y-95491628D01*
X41481619Y-95491628D02*
X41291143Y-95444009D01*
X41291143Y-95444009D02*
X41195905Y-95396390D01*
X41195905Y-95396390D02*
X41148286Y-95348771D01*
X41148286Y-95348771D02*
X41100667Y-95253533D01*
X41100667Y-95253533D02*
X41100667Y-95158295D01*
X41100667Y-95158295D02*
X41148286Y-95063057D01*
X41148286Y-95063057D02*
X41195905Y-95015438D01*
X41195905Y-95015438D02*
X41291143Y-94967819D01*
X41291143Y-94967819D02*
X41529238Y-94967819D01*
X41529238Y-94967819D02*
X41672095Y-95015438D01*
X42005429Y-94967819D02*
X42243524Y-95967819D01*
X42243524Y-95967819D02*
X42434000Y-95253533D01*
X42434000Y-95253533D02*
X42624476Y-95967819D01*
X42624476Y-95967819D02*
X42862572Y-94967819D01*
X43148286Y-94967819D02*
X43814952Y-94967819D01*
X43814952Y-94967819D02*
X43386381Y-95967819D01*
X21492476Y-76870200D02*
X21635333Y-76917819D01*
X21635333Y-76917819D02*
X21873428Y-76917819D01*
X21873428Y-76917819D02*
X21968666Y-76870200D01*
X21968666Y-76870200D02*
X22016285Y-76822580D01*
X22016285Y-76822580D02*
X22063904Y-76727342D01*
X22063904Y-76727342D02*
X22063904Y-76632104D01*
X22063904Y-76632104D02*
X22016285Y-76536866D01*
X22016285Y-76536866D02*
X21968666Y-76489247D01*
X21968666Y-76489247D02*
X21873428Y-76441628D01*
X21873428Y-76441628D02*
X21682952Y-76394009D01*
X21682952Y-76394009D02*
X21587714Y-76346390D01*
X21587714Y-76346390D02*
X21540095Y-76298771D01*
X21540095Y-76298771D02*
X21492476Y-76203533D01*
X21492476Y-76203533D02*
X21492476Y-76108295D01*
X21492476Y-76108295D02*
X21540095Y-76013057D01*
X21540095Y-76013057D02*
X21587714Y-75965438D01*
X21587714Y-75965438D02*
X21682952Y-75917819D01*
X21682952Y-75917819D02*
X21921047Y-75917819D01*
X21921047Y-75917819D02*
X22063904Y-75965438D01*
X22397238Y-75917819D02*
X22635333Y-76917819D01*
X22635333Y-76917819D02*
X22825809Y-76203533D01*
X22825809Y-76203533D02*
X23016285Y-76917819D01*
X23016285Y-76917819D02*
X23254381Y-75917819D01*
X24159142Y-76917819D02*
X23587714Y-76917819D01*
X23873428Y-76917819D02*
X23873428Y-75917819D01*
X23873428Y-75917819D02*
X23778190Y-76060676D01*
X23778190Y-76060676D02*
X23682952Y-76155914D01*
X23682952Y-76155914D02*
X23587714Y-76203533D01*
X24778190Y-75917819D02*
X24873428Y-75917819D01*
X24873428Y-75917819D02*
X24968666Y-75965438D01*
X24968666Y-75965438D02*
X25016285Y-76013057D01*
X25016285Y-76013057D02*
X25063904Y-76108295D01*
X25063904Y-76108295D02*
X25111523Y-76298771D01*
X25111523Y-76298771D02*
X25111523Y-76536866D01*
X25111523Y-76536866D02*
X25063904Y-76727342D01*
X25063904Y-76727342D02*
X25016285Y-76822580D01*
X25016285Y-76822580D02*
X24968666Y-76870200D01*
X24968666Y-76870200D02*
X24873428Y-76917819D01*
X24873428Y-76917819D02*
X24778190Y-76917819D01*
X24778190Y-76917819D02*
X24682952Y-76870200D01*
X24682952Y-76870200D02*
X24635333Y-76822580D01*
X24635333Y-76822580D02*
X24587714Y-76727342D01*
X24587714Y-76727342D02*
X24540095Y-76536866D01*
X24540095Y-76536866D02*
X24540095Y-76298771D01*
X24540095Y-76298771D02*
X24587714Y-76108295D01*
X24587714Y-76108295D02*
X24635333Y-76013057D01*
X24635333Y-76013057D02*
X24682952Y-75965438D01*
X24682952Y-75965438D02*
X24778190Y-75917819D01*
X41058667Y-114971200D02*
X41201524Y-115018819D01*
X41201524Y-115018819D02*
X41439619Y-115018819D01*
X41439619Y-115018819D02*
X41534857Y-114971200D01*
X41534857Y-114971200D02*
X41582476Y-114923580D01*
X41582476Y-114923580D02*
X41630095Y-114828342D01*
X41630095Y-114828342D02*
X41630095Y-114733104D01*
X41630095Y-114733104D02*
X41582476Y-114637866D01*
X41582476Y-114637866D02*
X41534857Y-114590247D01*
X41534857Y-114590247D02*
X41439619Y-114542628D01*
X41439619Y-114542628D02*
X41249143Y-114495009D01*
X41249143Y-114495009D02*
X41153905Y-114447390D01*
X41153905Y-114447390D02*
X41106286Y-114399771D01*
X41106286Y-114399771D02*
X41058667Y-114304533D01*
X41058667Y-114304533D02*
X41058667Y-114209295D01*
X41058667Y-114209295D02*
X41106286Y-114114057D01*
X41106286Y-114114057D02*
X41153905Y-114066438D01*
X41153905Y-114066438D02*
X41249143Y-114018819D01*
X41249143Y-114018819D02*
X41487238Y-114018819D01*
X41487238Y-114018819D02*
X41630095Y-114066438D01*
X41963429Y-114018819D02*
X42201524Y-115018819D01*
X42201524Y-115018819D02*
X42392000Y-114304533D01*
X42392000Y-114304533D02*
X42582476Y-115018819D01*
X42582476Y-115018819D02*
X42820572Y-114018819D01*
X43106286Y-114018819D02*
X43725333Y-114018819D01*
X43725333Y-114018819D02*
X43392000Y-114399771D01*
X43392000Y-114399771D02*
X43534857Y-114399771D01*
X43534857Y-114399771D02*
X43630095Y-114447390D01*
X43630095Y-114447390D02*
X43677714Y-114495009D01*
X43677714Y-114495009D02*
X43725333Y-114590247D01*
X43725333Y-114590247D02*
X43725333Y-114828342D01*
X43725333Y-114828342D02*
X43677714Y-114923580D01*
X43677714Y-114923580D02*
X43630095Y-114971200D01*
X43630095Y-114971200D02*
X43534857Y-115018819D01*
X43534857Y-115018819D02*
X43249143Y-115018819D01*
X43249143Y-115018819D02*
X43153905Y-114971200D01*
X43153905Y-114971200D02*
X43106286Y-114923580D01*
X59719476Y-76871200D02*
X59862333Y-76918819D01*
X59862333Y-76918819D02*
X60100428Y-76918819D01*
X60100428Y-76918819D02*
X60195666Y-76871200D01*
X60195666Y-76871200D02*
X60243285Y-76823580D01*
X60243285Y-76823580D02*
X60290904Y-76728342D01*
X60290904Y-76728342D02*
X60290904Y-76633104D01*
X60290904Y-76633104D02*
X60243285Y-76537866D01*
X60243285Y-76537866D02*
X60195666Y-76490247D01*
X60195666Y-76490247D02*
X60100428Y-76442628D01*
X60100428Y-76442628D02*
X59909952Y-76395009D01*
X59909952Y-76395009D02*
X59814714Y-76347390D01*
X59814714Y-76347390D02*
X59767095Y-76299771D01*
X59767095Y-76299771D02*
X59719476Y-76204533D01*
X59719476Y-76204533D02*
X59719476Y-76109295D01*
X59719476Y-76109295D02*
X59767095Y-76014057D01*
X59767095Y-76014057D02*
X59814714Y-75966438D01*
X59814714Y-75966438D02*
X59909952Y-75918819D01*
X59909952Y-75918819D02*
X60148047Y-75918819D01*
X60148047Y-75918819D02*
X60290904Y-75966438D01*
X60624238Y-75918819D02*
X60862333Y-76918819D01*
X60862333Y-76918819D02*
X61052809Y-76204533D01*
X61052809Y-76204533D02*
X61243285Y-76918819D01*
X61243285Y-76918819D02*
X61481381Y-75918819D01*
X62386142Y-76918819D02*
X61814714Y-76918819D01*
X62100428Y-76918819D02*
X62100428Y-75918819D01*
X62100428Y-75918819D02*
X62005190Y-76061676D01*
X62005190Y-76061676D02*
X61909952Y-76156914D01*
X61909952Y-76156914D02*
X61814714Y-76204533D01*
X62767095Y-76014057D02*
X62814714Y-75966438D01*
X62814714Y-75966438D02*
X62909952Y-75918819D01*
X62909952Y-75918819D02*
X63148047Y-75918819D01*
X63148047Y-75918819D02*
X63243285Y-75966438D01*
X63243285Y-75966438D02*
X63290904Y-76014057D01*
X63290904Y-76014057D02*
X63338523Y-76109295D01*
X63338523Y-76109295D02*
X63338523Y-76204533D01*
X63338523Y-76204533D02*
X63290904Y-76347390D01*
X63290904Y-76347390D02*
X62719476Y-76918819D01*
X62719476Y-76918819D02*
X63338523Y-76918819D01*
X21492476Y-57821200D02*
X21635333Y-57868819D01*
X21635333Y-57868819D02*
X21873428Y-57868819D01*
X21873428Y-57868819D02*
X21968666Y-57821200D01*
X21968666Y-57821200D02*
X22016285Y-57773580D01*
X22016285Y-57773580D02*
X22063904Y-57678342D01*
X22063904Y-57678342D02*
X22063904Y-57583104D01*
X22063904Y-57583104D02*
X22016285Y-57487866D01*
X22016285Y-57487866D02*
X21968666Y-57440247D01*
X21968666Y-57440247D02*
X21873428Y-57392628D01*
X21873428Y-57392628D02*
X21682952Y-57345009D01*
X21682952Y-57345009D02*
X21587714Y-57297390D01*
X21587714Y-57297390D02*
X21540095Y-57249771D01*
X21540095Y-57249771D02*
X21492476Y-57154533D01*
X21492476Y-57154533D02*
X21492476Y-57059295D01*
X21492476Y-57059295D02*
X21540095Y-56964057D01*
X21540095Y-56964057D02*
X21587714Y-56916438D01*
X21587714Y-56916438D02*
X21682952Y-56868819D01*
X21682952Y-56868819D02*
X21921047Y-56868819D01*
X21921047Y-56868819D02*
X22063904Y-56916438D01*
X22397238Y-56868819D02*
X22635333Y-57868819D01*
X22635333Y-57868819D02*
X22825809Y-57154533D01*
X22825809Y-57154533D02*
X23016285Y-57868819D01*
X23016285Y-57868819D02*
X23254381Y-56868819D01*
X24159142Y-57868819D02*
X23587714Y-57868819D01*
X23873428Y-57868819D02*
X23873428Y-56868819D01*
X23873428Y-56868819D02*
X23778190Y-57011676D01*
X23778190Y-57011676D02*
X23682952Y-57106914D01*
X23682952Y-57106914D02*
X23587714Y-57154533D01*
X25016285Y-57202152D02*
X25016285Y-57868819D01*
X24778190Y-56821200D02*
X24540095Y-57535485D01*
X24540095Y-57535485D02*
X25159142Y-57535485D01*
X21923667Y-95920200D02*
X22066524Y-95967819D01*
X22066524Y-95967819D02*
X22304619Y-95967819D01*
X22304619Y-95967819D02*
X22399857Y-95920200D01*
X22399857Y-95920200D02*
X22447476Y-95872580D01*
X22447476Y-95872580D02*
X22495095Y-95777342D01*
X22495095Y-95777342D02*
X22495095Y-95682104D01*
X22495095Y-95682104D02*
X22447476Y-95586866D01*
X22447476Y-95586866D02*
X22399857Y-95539247D01*
X22399857Y-95539247D02*
X22304619Y-95491628D01*
X22304619Y-95491628D02*
X22114143Y-95444009D01*
X22114143Y-95444009D02*
X22018905Y-95396390D01*
X22018905Y-95396390D02*
X21971286Y-95348771D01*
X21971286Y-95348771D02*
X21923667Y-95253533D01*
X21923667Y-95253533D02*
X21923667Y-95158295D01*
X21923667Y-95158295D02*
X21971286Y-95063057D01*
X21971286Y-95063057D02*
X22018905Y-95015438D01*
X22018905Y-95015438D02*
X22114143Y-94967819D01*
X22114143Y-94967819D02*
X22352238Y-94967819D01*
X22352238Y-94967819D02*
X22495095Y-95015438D01*
X22828429Y-94967819D02*
X23066524Y-95967819D01*
X23066524Y-95967819D02*
X23257000Y-95253533D01*
X23257000Y-95253533D02*
X23447476Y-95967819D01*
X23447476Y-95967819D02*
X23685572Y-94967819D01*
X24495095Y-94967819D02*
X24304619Y-94967819D01*
X24304619Y-94967819D02*
X24209381Y-95015438D01*
X24209381Y-95015438D02*
X24161762Y-95063057D01*
X24161762Y-95063057D02*
X24066524Y-95205914D01*
X24066524Y-95205914D02*
X24018905Y-95396390D01*
X24018905Y-95396390D02*
X24018905Y-95777342D01*
X24018905Y-95777342D02*
X24066524Y-95872580D01*
X24066524Y-95872580D02*
X24114143Y-95920200D01*
X24114143Y-95920200D02*
X24209381Y-95967819D01*
X24209381Y-95967819D02*
X24399857Y-95967819D01*
X24399857Y-95967819D02*
X24495095Y-95920200D01*
X24495095Y-95920200D02*
X24542714Y-95872580D01*
X24542714Y-95872580D02*
X24590333Y-95777342D01*
X24590333Y-95777342D02*
X24590333Y-95539247D01*
X24590333Y-95539247D02*
X24542714Y-95444009D01*
X24542714Y-95444009D02*
X24495095Y-95396390D01*
X24495095Y-95396390D02*
X24399857Y-95348771D01*
X24399857Y-95348771D02*
X24209381Y-95348771D01*
X24209381Y-95348771D02*
X24114143Y-95396390D01*
X24114143Y-95396390D02*
X24066524Y-95444009D01*
X24066524Y-95444009D02*
X24018905Y-95539247D01*
X21935667Y-114971200D02*
X22078524Y-115018819D01*
X22078524Y-115018819D02*
X22316619Y-115018819D01*
X22316619Y-115018819D02*
X22411857Y-114971200D01*
X22411857Y-114971200D02*
X22459476Y-114923580D01*
X22459476Y-114923580D02*
X22507095Y-114828342D01*
X22507095Y-114828342D02*
X22507095Y-114733104D01*
X22507095Y-114733104D02*
X22459476Y-114637866D01*
X22459476Y-114637866D02*
X22411857Y-114590247D01*
X22411857Y-114590247D02*
X22316619Y-114542628D01*
X22316619Y-114542628D02*
X22126143Y-114495009D01*
X22126143Y-114495009D02*
X22030905Y-114447390D01*
X22030905Y-114447390D02*
X21983286Y-114399771D01*
X21983286Y-114399771D02*
X21935667Y-114304533D01*
X21935667Y-114304533D02*
X21935667Y-114209295D01*
X21935667Y-114209295D02*
X21983286Y-114114057D01*
X21983286Y-114114057D02*
X22030905Y-114066438D01*
X22030905Y-114066438D02*
X22126143Y-114018819D01*
X22126143Y-114018819D02*
X22364238Y-114018819D01*
X22364238Y-114018819D02*
X22507095Y-114066438D01*
X22840429Y-114018819D02*
X23078524Y-115018819D01*
X23078524Y-115018819D02*
X23269000Y-114304533D01*
X23269000Y-114304533D02*
X23459476Y-115018819D01*
X23459476Y-115018819D02*
X23697572Y-114018819D01*
X24030905Y-114114057D02*
X24078524Y-114066438D01*
X24078524Y-114066438D02*
X24173762Y-114018819D01*
X24173762Y-114018819D02*
X24411857Y-114018819D01*
X24411857Y-114018819D02*
X24507095Y-114066438D01*
X24507095Y-114066438D02*
X24554714Y-114114057D01*
X24554714Y-114114057D02*
X24602333Y-114209295D01*
X24602333Y-114209295D02*
X24602333Y-114304533D01*
X24602333Y-114304533D02*
X24554714Y-114447390D01*
X24554714Y-114447390D02*
X23983286Y-115018819D01*
X23983286Y-115018819D02*
X24602333Y-115018819D01*
X2569476Y-38898200D02*
X2712333Y-38945819D01*
X2712333Y-38945819D02*
X2950428Y-38945819D01*
X2950428Y-38945819D02*
X3045666Y-38898200D01*
X3045666Y-38898200D02*
X3093285Y-38850580D01*
X3093285Y-38850580D02*
X3140904Y-38755342D01*
X3140904Y-38755342D02*
X3140904Y-38660104D01*
X3140904Y-38660104D02*
X3093285Y-38564866D01*
X3093285Y-38564866D02*
X3045666Y-38517247D01*
X3045666Y-38517247D02*
X2950428Y-38469628D01*
X2950428Y-38469628D02*
X2759952Y-38422009D01*
X2759952Y-38422009D02*
X2664714Y-38374390D01*
X2664714Y-38374390D02*
X2617095Y-38326771D01*
X2617095Y-38326771D02*
X2569476Y-38231533D01*
X2569476Y-38231533D02*
X2569476Y-38136295D01*
X2569476Y-38136295D02*
X2617095Y-38041057D01*
X2617095Y-38041057D02*
X2664714Y-37993438D01*
X2664714Y-37993438D02*
X2759952Y-37945819D01*
X2759952Y-37945819D02*
X2998047Y-37945819D01*
X2998047Y-37945819D02*
X3140904Y-37993438D01*
X3474238Y-37945819D02*
X3712333Y-38945819D01*
X3712333Y-38945819D02*
X3902809Y-38231533D01*
X3902809Y-38231533D02*
X4093285Y-38945819D01*
X4093285Y-38945819D02*
X4331381Y-37945819D01*
X5236142Y-38945819D02*
X4664714Y-38945819D01*
X4950428Y-38945819D02*
X4950428Y-37945819D01*
X4950428Y-37945819D02*
X4855190Y-38088676D01*
X4855190Y-38088676D02*
X4759952Y-38183914D01*
X4759952Y-38183914D02*
X4664714Y-38231533D01*
X5569476Y-37945819D02*
X6236142Y-37945819D01*
X6236142Y-37945819D02*
X5807571Y-38945819D01*
X59632476Y-38898200D02*
X59775333Y-38945819D01*
X59775333Y-38945819D02*
X60013428Y-38945819D01*
X60013428Y-38945819D02*
X60108666Y-38898200D01*
X60108666Y-38898200D02*
X60156285Y-38850580D01*
X60156285Y-38850580D02*
X60203904Y-38755342D01*
X60203904Y-38755342D02*
X60203904Y-38660104D01*
X60203904Y-38660104D02*
X60156285Y-38564866D01*
X60156285Y-38564866D02*
X60108666Y-38517247D01*
X60108666Y-38517247D02*
X60013428Y-38469628D01*
X60013428Y-38469628D02*
X59822952Y-38422009D01*
X59822952Y-38422009D02*
X59727714Y-38374390D01*
X59727714Y-38374390D02*
X59680095Y-38326771D01*
X59680095Y-38326771D02*
X59632476Y-38231533D01*
X59632476Y-38231533D02*
X59632476Y-38136295D01*
X59632476Y-38136295D02*
X59680095Y-38041057D01*
X59680095Y-38041057D02*
X59727714Y-37993438D01*
X59727714Y-37993438D02*
X59822952Y-37945819D01*
X59822952Y-37945819D02*
X60061047Y-37945819D01*
X60061047Y-37945819D02*
X60203904Y-37993438D01*
X60537238Y-37945819D02*
X60775333Y-38945819D01*
X60775333Y-38945819D02*
X60965809Y-38231533D01*
X60965809Y-38231533D02*
X61156285Y-38945819D01*
X61156285Y-38945819D02*
X61394381Y-37945819D01*
X61727714Y-38041057D02*
X61775333Y-37993438D01*
X61775333Y-37993438D02*
X61870571Y-37945819D01*
X61870571Y-37945819D02*
X62108666Y-37945819D01*
X62108666Y-37945819D02*
X62203904Y-37993438D01*
X62203904Y-37993438D02*
X62251523Y-38041057D01*
X62251523Y-38041057D02*
X62299142Y-38136295D01*
X62299142Y-38136295D02*
X62299142Y-38231533D01*
X62299142Y-38231533D02*
X62251523Y-38374390D01*
X62251523Y-38374390D02*
X61680095Y-38945819D01*
X61680095Y-38945819D02*
X62299142Y-38945819D01*
X62918190Y-37945819D02*
X63013428Y-37945819D01*
X63013428Y-37945819D02*
X63108666Y-37993438D01*
X63108666Y-37993438D02*
X63156285Y-38041057D01*
X63156285Y-38041057D02*
X63203904Y-38136295D01*
X63203904Y-38136295D02*
X63251523Y-38326771D01*
X63251523Y-38326771D02*
X63251523Y-38564866D01*
X63251523Y-38564866D02*
X63203904Y-38755342D01*
X63203904Y-38755342D02*
X63156285Y-38850580D01*
X63156285Y-38850580D02*
X63108666Y-38898200D01*
X63108666Y-38898200D02*
X63013428Y-38945819D01*
X63013428Y-38945819D02*
X62918190Y-38945819D01*
X62918190Y-38945819D02*
X62822952Y-38898200D01*
X62822952Y-38898200D02*
X62775333Y-38850580D01*
X62775333Y-38850580D02*
X62727714Y-38755342D01*
X62727714Y-38755342D02*
X62680095Y-38564866D01*
X62680095Y-38564866D02*
X62680095Y-38326771D01*
X62680095Y-38326771D02*
X62727714Y-38136295D01*
X62727714Y-38136295D02*
X62775333Y-38041057D01*
X62775333Y-38041057D02*
X62822952Y-37993438D01*
X62822952Y-37993438D02*
X62918190Y-37945819D01*
X2958667Y-95921200D02*
X3101524Y-95968819D01*
X3101524Y-95968819D02*
X3339619Y-95968819D01*
X3339619Y-95968819D02*
X3434857Y-95921200D01*
X3434857Y-95921200D02*
X3482476Y-95873580D01*
X3482476Y-95873580D02*
X3530095Y-95778342D01*
X3530095Y-95778342D02*
X3530095Y-95683104D01*
X3530095Y-95683104D02*
X3482476Y-95587866D01*
X3482476Y-95587866D02*
X3434857Y-95540247D01*
X3434857Y-95540247D02*
X3339619Y-95492628D01*
X3339619Y-95492628D02*
X3149143Y-95445009D01*
X3149143Y-95445009D02*
X3053905Y-95397390D01*
X3053905Y-95397390D02*
X3006286Y-95349771D01*
X3006286Y-95349771D02*
X2958667Y-95254533D01*
X2958667Y-95254533D02*
X2958667Y-95159295D01*
X2958667Y-95159295D02*
X3006286Y-95064057D01*
X3006286Y-95064057D02*
X3053905Y-95016438D01*
X3053905Y-95016438D02*
X3149143Y-94968819D01*
X3149143Y-94968819D02*
X3387238Y-94968819D01*
X3387238Y-94968819D02*
X3530095Y-95016438D01*
X3863429Y-94968819D02*
X4101524Y-95968819D01*
X4101524Y-95968819D02*
X4292000Y-95254533D01*
X4292000Y-95254533D02*
X4482476Y-95968819D01*
X4482476Y-95968819D02*
X4720572Y-94968819D01*
X5577714Y-94968819D02*
X5101524Y-94968819D01*
X5101524Y-94968819D02*
X5053905Y-95445009D01*
X5053905Y-95445009D02*
X5101524Y-95397390D01*
X5101524Y-95397390D02*
X5196762Y-95349771D01*
X5196762Y-95349771D02*
X5434857Y-95349771D01*
X5434857Y-95349771D02*
X5530095Y-95397390D01*
X5530095Y-95397390D02*
X5577714Y-95445009D01*
X5577714Y-95445009D02*
X5625333Y-95540247D01*
X5625333Y-95540247D02*
X5625333Y-95778342D01*
X5625333Y-95778342D02*
X5577714Y-95873580D01*
X5577714Y-95873580D02*
X5530095Y-95921200D01*
X5530095Y-95921200D02*
X5434857Y-95968819D01*
X5434857Y-95968819D02*
X5196762Y-95968819D01*
X5196762Y-95968819D02*
X5101524Y-95921200D01*
X5101524Y-95921200D02*
X5053905Y-95873580D01*
D10*
X28184857Y-34388809D02*
X28184857Y-33888809D01*
X28184857Y-33888809D02*
X28303905Y-33888809D01*
X28303905Y-33888809D02*
X28375333Y-33912619D01*
X28375333Y-33912619D02*
X28422952Y-33960238D01*
X28422952Y-33960238D02*
X28446762Y-34007857D01*
X28446762Y-34007857D02*
X28470571Y-34103095D01*
X28470571Y-34103095D02*
X28470571Y-34174523D01*
X28470571Y-34174523D02*
X28446762Y-34269761D01*
X28446762Y-34269761D02*
X28422952Y-34317380D01*
X28422952Y-34317380D02*
X28375333Y-34365000D01*
X28375333Y-34365000D02*
X28303905Y-34388809D01*
X28303905Y-34388809D02*
X28184857Y-34388809D01*
X28637238Y-33888809D02*
X28946762Y-33888809D01*
X28946762Y-33888809D02*
X28780095Y-34079285D01*
X28780095Y-34079285D02*
X28851524Y-34079285D01*
X28851524Y-34079285D02*
X28899143Y-34103095D01*
X28899143Y-34103095D02*
X28922952Y-34126904D01*
X28922952Y-34126904D02*
X28946762Y-34174523D01*
X28946762Y-34174523D02*
X28946762Y-34293571D01*
X28946762Y-34293571D02*
X28922952Y-34341190D01*
X28922952Y-34341190D02*
X28899143Y-34365000D01*
X28899143Y-34365000D02*
X28851524Y-34388809D01*
X28851524Y-34388809D02*
X28708667Y-34388809D01*
X28708667Y-34388809D02*
X28661048Y-34365000D01*
X28661048Y-34365000D02*
X28637238Y-34341190D01*
X29232476Y-34103095D02*
X29184857Y-34079285D01*
X29184857Y-34079285D02*
X29161047Y-34055476D01*
X29161047Y-34055476D02*
X29137238Y-34007857D01*
X29137238Y-34007857D02*
X29137238Y-33984047D01*
X29137238Y-33984047D02*
X29161047Y-33936428D01*
X29161047Y-33936428D02*
X29184857Y-33912619D01*
X29184857Y-33912619D02*
X29232476Y-33888809D01*
X29232476Y-33888809D02*
X29327714Y-33888809D01*
X29327714Y-33888809D02*
X29375333Y-33912619D01*
X29375333Y-33912619D02*
X29399142Y-33936428D01*
X29399142Y-33936428D02*
X29422952Y-33984047D01*
X29422952Y-33984047D02*
X29422952Y-34007857D01*
X29422952Y-34007857D02*
X29399142Y-34055476D01*
X29399142Y-34055476D02*
X29375333Y-34079285D01*
X29375333Y-34079285D02*
X29327714Y-34103095D01*
X29327714Y-34103095D02*
X29232476Y-34103095D01*
X29232476Y-34103095D02*
X29184857Y-34126904D01*
X29184857Y-34126904D02*
X29161047Y-34150714D01*
X29161047Y-34150714D02*
X29137238Y-34198333D01*
X29137238Y-34198333D02*
X29137238Y-34293571D01*
X29137238Y-34293571D02*
X29161047Y-34341190D01*
X29161047Y-34341190D02*
X29184857Y-34365000D01*
X29184857Y-34365000D02*
X29232476Y-34388809D01*
X29232476Y-34388809D02*
X29327714Y-34388809D01*
X29327714Y-34388809D02*
X29375333Y-34365000D01*
X29375333Y-34365000D02*
X29399142Y-34341190D01*
X29399142Y-34341190D02*
X29422952Y-34293571D01*
X29422952Y-34293571D02*
X29422952Y-34198333D01*
X29422952Y-34198333D02*
X29399142Y-34150714D01*
X29399142Y-34150714D02*
X29375333Y-34126904D01*
X29375333Y-34126904D02*
X29327714Y-34103095D01*
X14588688Y-18702094D02*
X14588688Y-18940189D01*
X14588688Y-18940189D02*
X14088688Y-18940189D01*
X14088688Y-18606855D02*
X14088688Y-18321141D01*
X14588688Y-18463998D02*
X14088688Y-18463998D01*
X14541069Y-17868761D02*
X14564879Y-17892570D01*
X14564879Y-17892570D02*
X14588688Y-17963999D01*
X14588688Y-17963999D02*
X14588688Y-18011618D01*
X14588688Y-18011618D02*
X14564879Y-18083046D01*
X14564879Y-18083046D02*
X14517259Y-18130665D01*
X14517259Y-18130665D02*
X14469640Y-18154475D01*
X14469640Y-18154475D02*
X14374402Y-18178284D01*
X14374402Y-18178284D02*
X14302974Y-18178284D01*
X14302974Y-18178284D02*
X14207736Y-18154475D01*
X14207736Y-18154475D02*
X14160117Y-18130665D01*
X14160117Y-18130665D02*
X14112498Y-18083046D01*
X14112498Y-18083046D02*
X14088688Y-18011618D01*
X14088688Y-18011618D02*
X14088688Y-17963999D01*
X14088688Y-17963999D02*
X14112498Y-17892570D01*
X14112498Y-17892570D02*
X14136307Y-17868761D01*
X14255355Y-17440189D02*
X14588688Y-17440189D01*
X14064879Y-17559237D02*
X14422021Y-17678284D01*
X14422021Y-17678284D02*
X14422021Y-17368761D01*
X14088688Y-17083047D02*
X14088688Y-17035428D01*
X14088688Y-17035428D02*
X14112498Y-16987809D01*
X14112498Y-16987809D02*
X14136307Y-16963999D01*
X14136307Y-16963999D02*
X14183926Y-16940190D01*
X14183926Y-16940190D02*
X14279164Y-16916380D01*
X14279164Y-16916380D02*
X14398212Y-16916380D01*
X14398212Y-16916380D02*
X14493450Y-16940190D01*
X14493450Y-16940190D02*
X14541069Y-16963999D01*
X14541069Y-16963999D02*
X14564879Y-16987809D01*
X14564879Y-16987809D02*
X14588688Y-17035428D01*
X14588688Y-17035428D02*
X14588688Y-17083047D01*
X14588688Y-17083047D02*
X14564879Y-17130666D01*
X14564879Y-17130666D02*
X14541069Y-17154475D01*
X14541069Y-17154475D02*
X14493450Y-17178285D01*
X14493450Y-17178285D02*
X14398212Y-17202094D01*
X14398212Y-17202094D02*
X14279164Y-17202094D01*
X14279164Y-17202094D02*
X14183926Y-17178285D01*
X14183926Y-17178285D02*
X14136307Y-17154475D01*
X14136307Y-17154475D02*
X14112498Y-17130666D01*
X14112498Y-17130666D02*
X14088688Y-17083047D01*
X14088688Y-16464000D02*
X14088688Y-16702095D01*
X14088688Y-16702095D02*
X14326783Y-16725904D01*
X14326783Y-16725904D02*
X14302974Y-16702095D01*
X14302974Y-16702095D02*
X14279164Y-16654476D01*
X14279164Y-16654476D02*
X14279164Y-16535428D01*
X14279164Y-16535428D02*
X14302974Y-16487809D01*
X14302974Y-16487809D02*
X14326783Y-16464000D01*
X14326783Y-16464000D02*
X14374402Y-16440190D01*
X14374402Y-16440190D02*
X14493450Y-16440190D01*
X14493450Y-16440190D02*
X14541069Y-16464000D01*
X14541069Y-16464000D02*
X14564879Y-16487809D01*
X14564879Y-16487809D02*
X14588688Y-16535428D01*
X14588688Y-16535428D02*
X14588688Y-16654476D01*
X14588688Y-16654476D02*
X14564879Y-16702095D01*
X14564879Y-16702095D02*
X14541069Y-16725904D01*
X14255355Y-16011619D02*
X14588688Y-16011619D01*
X14064879Y-16130667D02*
X14422021Y-16249714D01*
X14422021Y-16249714D02*
X14422021Y-15940191D01*
X22061048Y-18588809D02*
X22394381Y-18588809D01*
X22394381Y-18588809D02*
X22180096Y-19088809D01*
X22799143Y-18755476D02*
X22799143Y-19088809D01*
X22680095Y-18565000D02*
X22561048Y-18922142D01*
X22561048Y-18922142D02*
X22870571Y-18922142D01*
X23061047Y-19088809D02*
X23061047Y-18588809D01*
X23061047Y-18826904D02*
X23346761Y-18826904D01*
X23346761Y-19088809D02*
X23346761Y-18588809D01*
X23870571Y-19041190D02*
X23846762Y-19065000D01*
X23846762Y-19065000D02*
X23775333Y-19088809D01*
X23775333Y-19088809D02*
X23727714Y-19088809D01*
X23727714Y-19088809D02*
X23656286Y-19065000D01*
X23656286Y-19065000D02*
X23608667Y-19017380D01*
X23608667Y-19017380D02*
X23584857Y-18969761D01*
X23584857Y-18969761D02*
X23561048Y-18874523D01*
X23561048Y-18874523D02*
X23561048Y-18803095D01*
X23561048Y-18803095D02*
X23584857Y-18707857D01*
X23584857Y-18707857D02*
X23608667Y-18660238D01*
X23608667Y-18660238D02*
X23656286Y-18612619D01*
X23656286Y-18612619D02*
X23727714Y-18588809D01*
X23727714Y-18588809D02*
X23775333Y-18588809D01*
X23775333Y-18588809D02*
X23846762Y-18612619D01*
X23846762Y-18612619D02*
X23870571Y-18636428D01*
X24322952Y-18588809D02*
X24084857Y-18588809D01*
X24084857Y-18588809D02*
X24061048Y-18826904D01*
X24061048Y-18826904D02*
X24084857Y-18803095D01*
X24084857Y-18803095D02*
X24132476Y-18779285D01*
X24132476Y-18779285D02*
X24251524Y-18779285D01*
X24251524Y-18779285D02*
X24299143Y-18803095D01*
X24299143Y-18803095D02*
X24322952Y-18826904D01*
X24322952Y-18826904D02*
X24346762Y-18874523D01*
X24346762Y-18874523D02*
X24346762Y-18993571D01*
X24346762Y-18993571D02*
X24322952Y-19041190D01*
X24322952Y-19041190D02*
X24299143Y-19065000D01*
X24299143Y-19065000D02*
X24251524Y-19088809D01*
X24251524Y-19088809D02*
X24132476Y-19088809D01*
X24132476Y-19088809D02*
X24084857Y-19065000D01*
X24084857Y-19065000D02*
X24061048Y-19041190D01*
X24584857Y-19088809D02*
X24680095Y-19088809D01*
X24680095Y-19088809D02*
X24727714Y-19065000D01*
X24727714Y-19065000D02*
X24751523Y-19041190D01*
X24751523Y-19041190D02*
X24799142Y-18969761D01*
X24799142Y-18969761D02*
X24822952Y-18874523D01*
X24822952Y-18874523D02*
X24822952Y-18684047D01*
X24822952Y-18684047D02*
X24799142Y-18636428D01*
X24799142Y-18636428D02*
X24775333Y-18612619D01*
X24775333Y-18612619D02*
X24727714Y-18588809D01*
X24727714Y-18588809D02*
X24632476Y-18588809D01*
X24632476Y-18588809D02*
X24584857Y-18612619D01*
X24584857Y-18612619D02*
X24561047Y-18636428D01*
X24561047Y-18636428D02*
X24537238Y-18684047D01*
X24537238Y-18684047D02*
X24537238Y-18803095D01*
X24537238Y-18803095D02*
X24561047Y-18850714D01*
X24561047Y-18850714D02*
X24584857Y-18874523D01*
X24584857Y-18874523D02*
X24632476Y-18898333D01*
X24632476Y-18898333D02*
X24727714Y-18898333D01*
X24727714Y-18898333D02*
X24775333Y-18874523D01*
X24775333Y-18874523D02*
X24799142Y-18850714D01*
X24799142Y-18850714D02*
X24822952Y-18803095D01*
X25275332Y-18588809D02*
X25037237Y-18588809D01*
X25037237Y-18588809D02*
X25013428Y-18826904D01*
X25013428Y-18826904D02*
X25037237Y-18803095D01*
X25037237Y-18803095D02*
X25084856Y-18779285D01*
X25084856Y-18779285D02*
X25203904Y-18779285D01*
X25203904Y-18779285D02*
X25251523Y-18803095D01*
X25251523Y-18803095D02*
X25275332Y-18826904D01*
X25275332Y-18826904D02*
X25299142Y-18874523D01*
X25299142Y-18874523D02*
X25299142Y-18993571D01*
X25299142Y-18993571D02*
X25275332Y-19041190D01*
X25275332Y-19041190D02*
X25251523Y-19065000D01*
X25251523Y-19065000D02*
X25203904Y-19088809D01*
X25203904Y-19088809D02*
X25084856Y-19088809D01*
X25084856Y-19088809D02*
X25037237Y-19065000D01*
X25037237Y-19065000D02*
X25013428Y-19041190D01*
X66484857Y-53388809D02*
X66484857Y-52888809D01*
X66484857Y-52888809D02*
X66603905Y-52888809D01*
X66603905Y-52888809D02*
X66675333Y-52912619D01*
X66675333Y-52912619D02*
X66722952Y-52960238D01*
X66722952Y-52960238D02*
X66746762Y-53007857D01*
X66746762Y-53007857D02*
X66770571Y-53103095D01*
X66770571Y-53103095D02*
X66770571Y-53174523D01*
X66770571Y-53174523D02*
X66746762Y-53269761D01*
X66746762Y-53269761D02*
X66722952Y-53317380D01*
X66722952Y-53317380D02*
X66675333Y-53365000D01*
X66675333Y-53365000D02*
X66603905Y-53388809D01*
X66603905Y-53388809D02*
X66484857Y-53388809D01*
X66937238Y-52888809D02*
X67246762Y-52888809D01*
X67246762Y-52888809D02*
X67080095Y-53079285D01*
X67080095Y-53079285D02*
X67151524Y-53079285D01*
X67151524Y-53079285D02*
X67199143Y-53103095D01*
X67199143Y-53103095D02*
X67222952Y-53126904D01*
X67222952Y-53126904D02*
X67246762Y-53174523D01*
X67246762Y-53174523D02*
X67246762Y-53293571D01*
X67246762Y-53293571D02*
X67222952Y-53341190D01*
X67222952Y-53341190D02*
X67199143Y-53365000D01*
X67199143Y-53365000D02*
X67151524Y-53388809D01*
X67151524Y-53388809D02*
X67008667Y-53388809D01*
X67008667Y-53388809D02*
X66961048Y-53365000D01*
X66961048Y-53365000D02*
X66937238Y-53341190D01*
X67675333Y-52888809D02*
X67580095Y-52888809D01*
X67580095Y-52888809D02*
X67532476Y-52912619D01*
X67532476Y-52912619D02*
X67508666Y-52936428D01*
X67508666Y-52936428D02*
X67461047Y-53007857D01*
X67461047Y-53007857D02*
X67437238Y-53103095D01*
X67437238Y-53103095D02*
X67437238Y-53293571D01*
X67437238Y-53293571D02*
X67461047Y-53341190D01*
X67461047Y-53341190D02*
X67484857Y-53365000D01*
X67484857Y-53365000D02*
X67532476Y-53388809D01*
X67532476Y-53388809D02*
X67627714Y-53388809D01*
X67627714Y-53388809D02*
X67675333Y-53365000D01*
X67675333Y-53365000D02*
X67699142Y-53341190D01*
X67699142Y-53341190D02*
X67722952Y-53293571D01*
X67722952Y-53293571D02*
X67722952Y-53174523D01*
X67722952Y-53174523D02*
X67699142Y-53126904D01*
X67699142Y-53126904D02*
X67675333Y-53103095D01*
X67675333Y-53103095D02*
X67627714Y-53079285D01*
X67627714Y-53079285D02*
X67532476Y-53079285D01*
X67532476Y-53079285D02*
X67484857Y-53103095D01*
X67484857Y-53103095D02*
X67461047Y-53126904D01*
X67461047Y-53126904D02*
X67437238Y-53174523D01*
X66184857Y-34488809D02*
X66184857Y-33988809D01*
X66184857Y-33988809D02*
X66303905Y-33988809D01*
X66303905Y-33988809D02*
X66375333Y-34012619D01*
X66375333Y-34012619D02*
X66422952Y-34060238D01*
X66422952Y-34060238D02*
X66446762Y-34107857D01*
X66446762Y-34107857D02*
X66470571Y-34203095D01*
X66470571Y-34203095D02*
X66470571Y-34274523D01*
X66470571Y-34274523D02*
X66446762Y-34369761D01*
X66446762Y-34369761D02*
X66422952Y-34417380D01*
X66422952Y-34417380D02*
X66375333Y-34465000D01*
X66375333Y-34465000D02*
X66303905Y-34488809D01*
X66303905Y-34488809D02*
X66184857Y-34488809D01*
X66899143Y-34155476D02*
X66899143Y-34488809D01*
X66780095Y-33965000D02*
X66661048Y-34322142D01*
X66661048Y-34322142D02*
X66970571Y-34322142D01*
X67256285Y-33988809D02*
X67303904Y-33988809D01*
X67303904Y-33988809D02*
X67351523Y-34012619D01*
X67351523Y-34012619D02*
X67375333Y-34036428D01*
X67375333Y-34036428D02*
X67399142Y-34084047D01*
X67399142Y-34084047D02*
X67422952Y-34179285D01*
X67422952Y-34179285D02*
X67422952Y-34298333D01*
X67422952Y-34298333D02*
X67399142Y-34393571D01*
X67399142Y-34393571D02*
X67375333Y-34441190D01*
X67375333Y-34441190D02*
X67351523Y-34465000D01*
X67351523Y-34465000D02*
X67303904Y-34488809D01*
X67303904Y-34488809D02*
X67256285Y-34488809D01*
X67256285Y-34488809D02*
X67208666Y-34465000D01*
X67208666Y-34465000D02*
X67184857Y-34441190D01*
X67184857Y-34441190D02*
X67161047Y-34393571D01*
X67161047Y-34393571D02*
X67137238Y-34298333D01*
X67137238Y-34298333D02*
X67137238Y-34179285D01*
X67137238Y-34179285D02*
X67161047Y-34084047D01*
X67161047Y-34084047D02*
X67184857Y-34036428D01*
X67184857Y-34036428D02*
X67208666Y-34012619D01*
X67208666Y-34012619D02*
X67256285Y-33988809D01*
X47484857Y-34488809D02*
X47484857Y-33988809D01*
X47484857Y-33988809D02*
X47603905Y-33988809D01*
X47603905Y-33988809D02*
X47675333Y-34012619D01*
X47675333Y-34012619D02*
X47722952Y-34060238D01*
X47722952Y-34060238D02*
X47746762Y-34107857D01*
X47746762Y-34107857D02*
X47770571Y-34203095D01*
X47770571Y-34203095D02*
X47770571Y-34274523D01*
X47770571Y-34274523D02*
X47746762Y-34369761D01*
X47746762Y-34369761D02*
X47722952Y-34417380D01*
X47722952Y-34417380D02*
X47675333Y-34465000D01*
X47675333Y-34465000D02*
X47603905Y-34488809D01*
X47603905Y-34488809D02*
X47484857Y-34488809D01*
X47937238Y-33988809D02*
X48246762Y-33988809D01*
X48246762Y-33988809D02*
X48080095Y-34179285D01*
X48080095Y-34179285D02*
X48151524Y-34179285D01*
X48151524Y-34179285D02*
X48199143Y-34203095D01*
X48199143Y-34203095D02*
X48222952Y-34226904D01*
X48222952Y-34226904D02*
X48246762Y-34274523D01*
X48246762Y-34274523D02*
X48246762Y-34393571D01*
X48246762Y-34393571D02*
X48222952Y-34441190D01*
X48222952Y-34441190D02*
X48199143Y-34465000D01*
X48199143Y-34465000D02*
X48151524Y-34488809D01*
X48151524Y-34488809D02*
X48008667Y-34488809D01*
X48008667Y-34488809D02*
X47961048Y-34465000D01*
X47961048Y-34465000D02*
X47937238Y-34441190D01*
X48484857Y-34488809D02*
X48580095Y-34488809D01*
X48580095Y-34488809D02*
X48627714Y-34465000D01*
X48627714Y-34465000D02*
X48651523Y-34441190D01*
X48651523Y-34441190D02*
X48699142Y-34369761D01*
X48699142Y-34369761D02*
X48722952Y-34274523D01*
X48722952Y-34274523D02*
X48722952Y-34084047D01*
X48722952Y-34084047D02*
X48699142Y-34036428D01*
X48699142Y-34036428D02*
X48675333Y-34012619D01*
X48675333Y-34012619D02*
X48627714Y-33988809D01*
X48627714Y-33988809D02*
X48532476Y-33988809D01*
X48532476Y-33988809D02*
X48484857Y-34012619D01*
X48484857Y-34012619D02*
X48461047Y-34036428D01*
X48461047Y-34036428D02*
X48437238Y-34084047D01*
X48437238Y-34084047D02*
X48437238Y-34203095D01*
X48437238Y-34203095D02*
X48461047Y-34250714D01*
X48461047Y-34250714D02*
X48484857Y-34274523D01*
X48484857Y-34274523D02*
X48532476Y-34298333D01*
X48532476Y-34298333D02*
X48627714Y-34298333D01*
X48627714Y-34298333D02*
X48675333Y-34274523D01*
X48675333Y-34274523D02*
X48699142Y-34250714D01*
X48699142Y-34250714D02*
X48722952Y-34203095D01*
X43926926Y-17588809D02*
X43926926Y-17993571D01*
X43926926Y-17993571D02*
X43950736Y-18041190D01*
X43950736Y-18041190D02*
X43974545Y-18065000D01*
X43974545Y-18065000D02*
X44022164Y-18088809D01*
X44022164Y-18088809D02*
X44117402Y-18088809D01*
X44117402Y-18088809D02*
X44165021Y-18065000D01*
X44165021Y-18065000D02*
X44188831Y-18041190D01*
X44188831Y-18041190D02*
X44212640Y-17993571D01*
X44212640Y-17993571D02*
X44212640Y-17588809D01*
X44665022Y-17755476D02*
X44665022Y-18088809D01*
X44545974Y-17565000D02*
X44426927Y-17922142D01*
X44426927Y-17922142D02*
X44736450Y-17922142D01*
X28184857Y-72488809D02*
X28184857Y-71988809D01*
X28184857Y-71988809D02*
X28303905Y-71988809D01*
X28303905Y-71988809D02*
X28375333Y-72012619D01*
X28375333Y-72012619D02*
X28422952Y-72060238D01*
X28422952Y-72060238D02*
X28446762Y-72107857D01*
X28446762Y-72107857D02*
X28470571Y-72203095D01*
X28470571Y-72203095D02*
X28470571Y-72274523D01*
X28470571Y-72274523D02*
X28446762Y-72369761D01*
X28446762Y-72369761D02*
X28422952Y-72417380D01*
X28422952Y-72417380D02*
X28375333Y-72465000D01*
X28375333Y-72465000D02*
X28303905Y-72488809D01*
X28303905Y-72488809D02*
X28184857Y-72488809D01*
X28637238Y-71988809D02*
X28946762Y-71988809D01*
X28946762Y-71988809D02*
X28780095Y-72179285D01*
X28780095Y-72179285D02*
X28851524Y-72179285D01*
X28851524Y-72179285D02*
X28899143Y-72203095D01*
X28899143Y-72203095D02*
X28922952Y-72226904D01*
X28922952Y-72226904D02*
X28946762Y-72274523D01*
X28946762Y-72274523D02*
X28946762Y-72393571D01*
X28946762Y-72393571D02*
X28922952Y-72441190D01*
X28922952Y-72441190D02*
X28899143Y-72465000D01*
X28899143Y-72465000D02*
X28851524Y-72488809D01*
X28851524Y-72488809D02*
X28708667Y-72488809D01*
X28708667Y-72488809D02*
X28661048Y-72465000D01*
X28661048Y-72465000D02*
X28637238Y-72441190D01*
X29256285Y-71988809D02*
X29303904Y-71988809D01*
X29303904Y-71988809D02*
X29351523Y-72012619D01*
X29351523Y-72012619D02*
X29375333Y-72036428D01*
X29375333Y-72036428D02*
X29399142Y-72084047D01*
X29399142Y-72084047D02*
X29422952Y-72179285D01*
X29422952Y-72179285D02*
X29422952Y-72298333D01*
X29422952Y-72298333D02*
X29399142Y-72393571D01*
X29399142Y-72393571D02*
X29375333Y-72441190D01*
X29375333Y-72441190D02*
X29351523Y-72465000D01*
X29351523Y-72465000D02*
X29303904Y-72488809D01*
X29303904Y-72488809D02*
X29256285Y-72488809D01*
X29256285Y-72488809D02*
X29208666Y-72465000D01*
X29208666Y-72465000D02*
X29184857Y-72441190D01*
X29184857Y-72441190D02*
X29161047Y-72393571D01*
X29161047Y-72393571D02*
X29137238Y-72298333D01*
X29137238Y-72298333D02*
X29137238Y-72179285D01*
X29137238Y-72179285D02*
X29161047Y-72084047D01*
X29161047Y-72084047D02*
X29184857Y-72036428D01*
X29184857Y-72036428D02*
X29208666Y-72012619D01*
X29208666Y-72012619D02*
X29256285Y-71988809D01*
X3316809Y-13185428D02*
X3316809Y-13423523D01*
X3316809Y-13423523D02*
X3554904Y-13447332D01*
X3554904Y-13447332D02*
X3531095Y-13423523D01*
X3531095Y-13423523D02*
X3507285Y-13375904D01*
X3507285Y-13375904D02*
X3507285Y-13256856D01*
X3507285Y-13256856D02*
X3531095Y-13209237D01*
X3531095Y-13209237D02*
X3554904Y-13185428D01*
X3554904Y-13185428D02*
X3602523Y-13161618D01*
X3602523Y-13161618D02*
X3721571Y-13161618D01*
X3721571Y-13161618D02*
X3769190Y-13185428D01*
X3769190Y-13185428D02*
X3793000Y-13209237D01*
X3793000Y-13209237D02*
X3816809Y-13256856D01*
X3816809Y-13256856D02*
X3816809Y-13375904D01*
X3816809Y-13375904D02*
X3793000Y-13423523D01*
X3793000Y-13423523D02*
X3769190Y-13447332D01*
X3816809Y-12947333D02*
X3316809Y-12947333D01*
X3626333Y-12899714D02*
X3816809Y-12756857D01*
X3483476Y-12756857D02*
X3673952Y-12947333D01*
X3816809Y-12280666D02*
X3816809Y-12566380D01*
X3816809Y-12423523D02*
X3316809Y-12423523D01*
X3316809Y-12423523D02*
X3388238Y-12471142D01*
X3388238Y-12471142D02*
X3435857Y-12518761D01*
X3435857Y-12518761D02*
X3459666Y-12566380D01*
X1918191Y2811190D02*
X1632477Y2811190D01*
X1775334Y2811190D02*
X1775334Y3311190D01*
X1775334Y3311190D02*
X1727715Y3239761D01*
X1727715Y3239761D02*
X1680096Y3192142D01*
X1680096Y3192142D02*
X1632477Y3168333D01*
X2227714Y3311190D02*
X2275333Y3311190D01*
X2275333Y3311190D02*
X2322952Y3287380D01*
X2322952Y3287380D02*
X2346762Y3263571D01*
X2346762Y3263571D02*
X2370571Y3215952D01*
X2370571Y3215952D02*
X2394381Y3120714D01*
X2394381Y3120714D02*
X2394381Y3001666D01*
X2394381Y3001666D02*
X2370571Y2906428D01*
X2370571Y2906428D02*
X2346762Y2858809D01*
X2346762Y2858809D02*
X2322952Y2835000D01*
X2322952Y2835000D02*
X2275333Y2811190D01*
X2275333Y2811190D02*
X2227714Y2811190D01*
X2227714Y2811190D02*
X2180095Y2835000D01*
X2180095Y2835000D02*
X2156286Y2858809D01*
X2156286Y2858809D02*
X2132476Y2906428D01*
X2132476Y2906428D02*
X2108667Y3001666D01*
X2108667Y3001666D02*
X2108667Y3120714D01*
X2108667Y3120714D02*
X2132476Y3215952D01*
X2132476Y3215952D02*
X2156286Y3263571D01*
X2156286Y3263571D02*
X2180095Y3287380D01*
X2180095Y3287380D02*
X2227714Y3311190D01*
X2703904Y3311190D02*
X2751523Y3311190D01*
X2751523Y3311190D02*
X2799142Y3287380D01*
X2799142Y3287380D02*
X2822952Y3263571D01*
X2822952Y3263571D02*
X2846761Y3215952D01*
X2846761Y3215952D02*
X2870571Y3120714D01*
X2870571Y3120714D02*
X2870571Y3001666D01*
X2870571Y3001666D02*
X2846761Y2906428D01*
X2846761Y2906428D02*
X2822952Y2858809D01*
X2822952Y2858809D02*
X2799142Y2835000D01*
X2799142Y2835000D02*
X2751523Y2811190D01*
X2751523Y2811190D02*
X2703904Y2811190D01*
X2703904Y2811190D02*
X2656285Y2835000D01*
X2656285Y2835000D02*
X2632476Y2858809D01*
X2632476Y2858809D02*
X2608666Y2906428D01*
X2608666Y2906428D02*
X2584857Y3001666D01*
X2584857Y3001666D02*
X2584857Y3120714D01*
X2584857Y3120714D02*
X2608666Y3215952D01*
X2608666Y3215952D02*
X2632476Y3263571D01*
X2632476Y3263571D02*
X2656285Y3287380D01*
X2656285Y3287380D02*
X2703904Y3311190D01*
X3299142Y3144523D02*
X3299142Y2811190D01*
X3084856Y3144523D02*
X3084856Y2882619D01*
X3084856Y2882619D02*
X3108666Y2835000D01*
X3108666Y2835000D02*
X3156285Y2811190D01*
X3156285Y2811190D02*
X3227713Y2811190D01*
X3227713Y2811190D02*
X3275332Y2835000D01*
X3275332Y2835000D02*
X3299142Y2858809D01*
X3703904Y3073095D02*
X3537237Y3073095D01*
X3537237Y2811190D02*
X3537237Y3311190D01*
X3537237Y3311190D02*
X3775332Y3311190D01*
X28184857Y-53388809D02*
X28184857Y-52888809D01*
X28184857Y-52888809D02*
X28303905Y-52888809D01*
X28303905Y-52888809D02*
X28375333Y-52912619D01*
X28375333Y-52912619D02*
X28422952Y-52960238D01*
X28422952Y-52960238D02*
X28446762Y-53007857D01*
X28446762Y-53007857D02*
X28470571Y-53103095D01*
X28470571Y-53103095D02*
X28470571Y-53174523D01*
X28470571Y-53174523D02*
X28446762Y-53269761D01*
X28446762Y-53269761D02*
X28422952Y-53317380D01*
X28422952Y-53317380D02*
X28375333Y-53365000D01*
X28375333Y-53365000D02*
X28303905Y-53388809D01*
X28303905Y-53388809D02*
X28184857Y-53388809D01*
X28637238Y-52888809D02*
X28946762Y-52888809D01*
X28946762Y-52888809D02*
X28780095Y-53079285D01*
X28780095Y-53079285D02*
X28851524Y-53079285D01*
X28851524Y-53079285D02*
X28899143Y-53103095D01*
X28899143Y-53103095D02*
X28922952Y-53126904D01*
X28922952Y-53126904D02*
X28946762Y-53174523D01*
X28946762Y-53174523D02*
X28946762Y-53293571D01*
X28946762Y-53293571D02*
X28922952Y-53341190D01*
X28922952Y-53341190D02*
X28899143Y-53365000D01*
X28899143Y-53365000D02*
X28851524Y-53388809D01*
X28851524Y-53388809D02*
X28708667Y-53388809D01*
X28708667Y-53388809D02*
X28661048Y-53365000D01*
X28661048Y-53365000D02*
X28637238Y-53341190D01*
X29375333Y-53055476D02*
X29375333Y-53388809D01*
X29256285Y-52865000D02*
X29137238Y-53222142D01*
X29137238Y-53222142D02*
X29446761Y-53222142D01*
X9384857Y-53388809D02*
X9384857Y-52888809D01*
X9384857Y-52888809D02*
X9503905Y-52888809D01*
X9503905Y-52888809D02*
X9575333Y-52912619D01*
X9575333Y-52912619D02*
X9622952Y-52960238D01*
X9622952Y-52960238D02*
X9646762Y-53007857D01*
X9646762Y-53007857D02*
X9670571Y-53103095D01*
X9670571Y-53103095D02*
X9670571Y-53174523D01*
X9670571Y-53174523D02*
X9646762Y-53269761D01*
X9646762Y-53269761D02*
X9622952Y-53317380D01*
X9622952Y-53317380D02*
X9575333Y-53365000D01*
X9575333Y-53365000D02*
X9503905Y-53388809D01*
X9503905Y-53388809D02*
X9384857Y-53388809D01*
X9837238Y-52888809D02*
X10146762Y-52888809D01*
X10146762Y-52888809D02*
X9980095Y-53079285D01*
X9980095Y-53079285D02*
X10051524Y-53079285D01*
X10051524Y-53079285D02*
X10099143Y-53103095D01*
X10099143Y-53103095D02*
X10122952Y-53126904D01*
X10122952Y-53126904D02*
X10146762Y-53174523D01*
X10146762Y-53174523D02*
X10146762Y-53293571D01*
X10146762Y-53293571D02*
X10122952Y-53341190D01*
X10122952Y-53341190D02*
X10099143Y-53365000D01*
X10099143Y-53365000D02*
X10051524Y-53388809D01*
X10051524Y-53388809D02*
X9908667Y-53388809D01*
X9908667Y-53388809D02*
X9861048Y-53365000D01*
X9861048Y-53365000D02*
X9837238Y-53341190D01*
X10313428Y-52888809D02*
X10622952Y-52888809D01*
X10622952Y-52888809D02*
X10456285Y-53079285D01*
X10456285Y-53079285D02*
X10527714Y-53079285D01*
X10527714Y-53079285D02*
X10575333Y-53103095D01*
X10575333Y-53103095D02*
X10599142Y-53126904D01*
X10599142Y-53126904D02*
X10622952Y-53174523D01*
X10622952Y-53174523D02*
X10622952Y-53293571D01*
X10622952Y-53293571D02*
X10599142Y-53341190D01*
X10599142Y-53341190D02*
X10575333Y-53365000D01*
X10575333Y-53365000D02*
X10527714Y-53388809D01*
X10527714Y-53388809D02*
X10384857Y-53388809D01*
X10384857Y-53388809D02*
X10337238Y-53365000D01*
X10337238Y-53365000D02*
X10313428Y-53341190D01*
X9284857Y-34388809D02*
X9284857Y-33888809D01*
X9284857Y-33888809D02*
X9403905Y-33888809D01*
X9403905Y-33888809D02*
X9475333Y-33912619D01*
X9475333Y-33912619D02*
X9522952Y-33960238D01*
X9522952Y-33960238D02*
X9546762Y-34007857D01*
X9546762Y-34007857D02*
X9570571Y-34103095D01*
X9570571Y-34103095D02*
X9570571Y-34174523D01*
X9570571Y-34174523D02*
X9546762Y-34269761D01*
X9546762Y-34269761D02*
X9522952Y-34317380D01*
X9522952Y-34317380D02*
X9475333Y-34365000D01*
X9475333Y-34365000D02*
X9403905Y-34388809D01*
X9403905Y-34388809D02*
X9284857Y-34388809D01*
X9737238Y-33888809D02*
X10046762Y-33888809D01*
X10046762Y-33888809D02*
X9880095Y-34079285D01*
X9880095Y-34079285D02*
X9951524Y-34079285D01*
X9951524Y-34079285D02*
X9999143Y-34103095D01*
X9999143Y-34103095D02*
X10022952Y-34126904D01*
X10022952Y-34126904D02*
X10046762Y-34174523D01*
X10046762Y-34174523D02*
X10046762Y-34293571D01*
X10046762Y-34293571D02*
X10022952Y-34341190D01*
X10022952Y-34341190D02*
X9999143Y-34365000D01*
X9999143Y-34365000D02*
X9951524Y-34388809D01*
X9951524Y-34388809D02*
X9808667Y-34388809D01*
X9808667Y-34388809D02*
X9761048Y-34365000D01*
X9761048Y-34365000D02*
X9737238Y-34341190D01*
X10213428Y-33888809D02*
X10546761Y-33888809D01*
X10546761Y-33888809D02*
X10332476Y-34388809D01*
X8673952Y-18311617D02*
X8673952Y-18073522D01*
X8816809Y-18359236D02*
X8316809Y-18192570D01*
X8316809Y-18192570D02*
X8816809Y-18025903D01*
X8316809Y-17763999D02*
X8316809Y-17668761D01*
X8316809Y-17668761D02*
X8340619Y-17621142D01*
X8340619Y-17621142D02*
X8388238Y-17573523D01*
X8388238Y-17573523D02*
X8483476Y-17549713D01*
X8483476Y-17549713D02*
X8650142Y-17549713D01*
X8650142Y-17549713D02*
X8745380Y-17573523D01*
X8745380Y-17573523D02*
X8793000Y-17621142D01*
X8793000Y-17621142D02*
X8816809Y-17668761D01*
X8816809Y-17668761D02*
X8816809Y-17763999D01*
X8816809Y-17763999D02*
X8793000Y-17811618D01*
X8793000Y-17811618D02*
X8745380Y-17859237D01*
X8745380Y-17859237D02*
X8650142Y-17883046D01*
X8650142Y-17883046D02*
X8483476Y-17883046D01*
X8483476Y-17883046D02*
X8388238Y-17859237D01*
X8388238Y-17859237D02*
X8340619Y-17811618D01*
X8340619Y-17811618D02*
X8316809Y-17763999D01*
X8483476Y-17121141D02*
X8816809Y-17121141D01*
X8293000Y-17240189D02*
X8650142Y-17359236D01*
X8650142Y-17359236D02*
X8650142Y-17049713D01*
X8816809Y-16835427D02*
X8816809Y-16740189D01*
X8816809Y-16740189D02*
X8793000Y-16692570D01*
X8793000Y-16692570D02*
X8769190Y-16668761D01*
X8769190Y-16668761D02*
X8697761Y-16621142D01*
X8697761Y-16621142D02*
X8602523Y-16597332D01*
X8602523Y-16597332D02*
X8412047Y-16597332D01*
X8412047Y-16597332D02*
X8364428Y-16621142D01*
X8364428Y-16621142D02*
X8340619Y-16644951D01*
X8340619Y-16644951D02*
X8316809Y-16692570D01*
X8316809Y-16692570D02*
X8316809Y-16787808D01*
X8316809Y-16787808D02*
X8340619Y-16835427D01*
X8340619Y-16835427D02*
X8364428Y-16859237D01*
X8364428Y-16859237D02*
X8412047Y-16883046D01*
X8412047Y-16883046D02*
X8531095Y-16883046D01*
X8531095Y-16883046D02*
X8578714Y-16859237D01*
X8578714Y-16859237D02*
X8602523Y-16835427D01*
X8602523Y-16835427D02*
X8626333Y-16787808D01*
X8626333Y-16787808D02*
X8626333Y-16692570D01*
X8626333Y-16692570D02*
X8602523Y-16644951D01*
X8602523Y-16644951D02*
X8578714Y-16621142D01*
X8578714Y-16621142D02*
X8531095Y-16597332D01*
X8316809Y-16144952D02*
X8316809Y-16383047D01*
X8316809Y-16383047D02*
X8554904Y-16406856D01*
X8554904Y-16406856D02*
X8531095Y-16383047D01*
X8531095Y-16383047D02*
X8507285Y-16335428D01*
X8507285Y-16335428D02*
X8507285Y-16216380D01*
X8507285Y-16216380D02*
X8531095Y-16168761D01*
X8531095Y-16168761D02*
X8554904Y-16144952D01*
X8554904Y-16144952D02*
X8602523Y-16121142D01*
X8602523Y-16121142D02*
X8721571Y-16121142D01*
X8721571Y-16121142D02*
X8769190Y-16144952D01*
X8769190Y-16144952D02*
X8793000Y-16168761D01*
X8793000Y-16168761D02*
X8816809Y-16216380D01*
X8816809Y-16216380D02*
X8816809Y-16335428D01*
X8816809Y-16335428D02*
X8793000Y-16383047D01*
X8793000Y-16383047D02*
X8769190Y-16406856D01*
X8316809Y-15954476D02*
X8316809Y-15644952D01*
X8316809Y-15644952D02*
X8507285Y-15811619D01*
X8507285Y-15811619D02*
X8507285Y-15740190D01*
X8507285Y-15740190D02*
X8531095Y-15692571D01*
X8531095Y-15692571D02*
X8554904Y-15668762D01*
X8554904Y-15668762D02*
X8602523Y-15644952D01*
X8602523Y-15644952D02*
X8721571Y-15644952D01*
X8721571Y-15644952D02*
X8769190Y-15668762D01*
X8769190Y-15668762D02*
X8793000Y-15692571D01*
X8793000Y-15692571D02*
X8816809Y-15740190D01*
X8816809Y-15740190D02*
X8816809Y-15883047D01*
X8816809Y-15883047D02*
X8793000Y-15930666D01*
X8793000Y-15930666D02*
X8769190Y-15954476D01*
X8673952Y-15454476D02*
X8673952Y-15216381D01*
X8816809Y-15502095D02*
X8316809Y-15335429D01*
X8316809Y-15335429D02*
X8816809Y-15168762D01*
X9184857Y-110288809D02*
X9184857Y-109788809D01*
X9184857Y-109788809D02*
X9303905Y-109788809D01*
X9303905Y-109788809D02*
X9375333Y-109812619D01*
X9375333Y-109812619D02*
X9422952Y-109860238D01*
X9422952Y-109860238D02*
X9446762Y-109907857D01*
X9446762Y-109907857D02*
X9470571Y-110003095D01*
X9470571Y-110003095D02*
X9470571Y-110074523D01*
X9470571Y-110074523D02*
X9446762Y-110169761D01*
X9446762Y-110169761D02*
X9422952Y-110217380D01*
X9422952Y-110217380D02*
X9375333Y-110265000D01*
X9375333Y-110265000D02*
X9303905Y-110288809D01*
X9303905Y-110288809D02*
X9184857Y-110288809D01*
X9661048Y-109836428D02*
X9684857Y-109812619D01*
X9684857Y-109812619D02*
X9732476Y-109788809D01*
X9732476Y-109788809D02*
X9851524Y-109788809D01*
X9851524Y-109788809D02*
X9899143Y-109812619D01*
X9899143Y-109812619D02*
X9922952Y-109836428D01*
X9922952Y-109836428D02*
X9946762Y-109884047D01*
X9946762Y-109884047D02*
X9946762Y-109931666D01*
X9946762Y-109931666D02*
X9922952Y-110003095D01*
X9922952Y-110003095D02*
X9637238Y-110288809D01*
X9637238Y-110288809D02*
X9946762Y-110288809D01*
X10422952Y-110288809D02*
X10137238Y-110288809D01*
X10280095Y-110288809D02*
X10280095Y-109788809D01*
X10280095Y-109788809D02*
X10232476Y-109860238D01*
X10232476Y-109860238D02*
X10184857Y-109907857D01*
X10184857Y-109907857D02*
X10137238Y-109931666D01*
X18793000Y-16983045D02*
X18816809Y-16911617D01*
X18816809Y-16911617D02*
X18816809Y-16792569D01*
X18816809Y-16792569D02*
X18793000Y-16744950D01*
X18793000Y-16744950D02*
X18769190Y-16721141D01*
X18769190Y-16721141D02*
X18721571Y-16697331D01*
X18721571Y-16697331D02*
X18673952Y-16697331D01*
X18673952Y-16697331D02*
X18626333Y-16721141D01*
X18626333Y-16721141D02*
X18602523Y-16744950D01*
X18602523Y-16744950D02*
X18578714Y-16792569D01*
X18578714Y-16792569D02*
X18554904Y-16887807D01*
X18554904Y-16887807D02*
X18531095Y-16935426D01*
X18531095Y-16935426D02*
X18507285Y-16959236D01*
X18507285Y-16959236D02*
X18459666Y-16983045D01*
X18459666Y-16983045D02*
X18412047Y-16983045D01*
X18412047Y-16983045D02*
X18364428Y-16959236D01*
X18364428Y-16959236D02*
X18340619Y-16935426D01*
X18340619Y-16935426D02*
X18316809Y-16887807D01*
X18316809Y-16887807D02*
X18316809Y-16768760D01*
X18316809Y-16768760D02*
X18340619Y-16697331D01*
X18316809Y-16554474D02*
X18316809Y-16268760D01*
X18816809Y-16411617D02*
X18316809Y-16411617D01*
X18816809Y-16102094D02*
X18316809Y-16102094D01*
X18316809Y-15911618D02*
X18316809Y-15602094D01*
X18316809Y-15602094D02*
X18507285Y-15768761D01*
X18507285Y-15768761D02*
X18507285Y-15697332D01*
X18507285Y-15697332D02*
X18531095Y-15649713D01*
X18531095Y-15649713D02*
X18554904Y-15625904D01*
X18554904Y-15625904D02*
X18602523Y-15602094D01*
X18602523Y-15602094D02*
X18721571Y-15602094D01*
X18721571Y-15602094D02*
X18769190Y-15625904D01*
X18769190Y-15625904D02*
X18793000Y-15649713D01*
X18793000Y-15649713D02*
X18816809Y-15697332D01*
X18816809Y-15697332D02*
X18816809Y-15840189D01*
X18816809Y-15840189D02*
X18793000Y-15887808D01*
X18793000Y-15887808D02*
X18769190Y-15911618D01*
X18483476Y-15173523D02*
X18816809Y-15173523D01*
X18293000Y-15292571D02*
X18650142Y-15411618D01*
X18650142Y-15411618D02*
X18650142Y-15102095D01*
X18816809Y-14649714D02*
X18816809Y-14935428D01*
X18816809Y-14792571D02*
X18316809Y-14792571D01*
X18316809Y-14792571D02*
X18388238Y-14840190D01*
X18388238Y-14840190D02*
X18435857Y-14887809D01*
X18435857Y-14887809D02*
X18459666Y-14935428D01*
X18816809Y-14173524D02*
X18816809Y-14459238D01*
X18816809Y-14316381D02*
X18316809Y-14316381D01*
X18316809Y-14316381D02*
X18388238Y-14364000D01*
X18388238Y-14364000D02*
X18435857Y-14411619D01*
X18435857Y-14411619D02*
X18459666Y-14459238D01*
X18673952Y-13983048D02*
X18673952Y-13744953D01*
X18816809Y-14030667D02*
X18316809Y-13864001D01*
X18316809Y-13864001D02*
X18816809Y-13697334D01*
X47260736Y-53488809D02*
X47260736Y-52988809D01*
X47260736Y-52988809D02*
X47379784Y-52988809D01*
X47379784Y-52988809D02*
X47451212Y-53012619D01*
X47451212Y-53012619D02*
X47498831Y-53060238D01*
X47498831Y-53060238D02*
X47522641Y-53107857D01*
X47522641Y-53107857D02*
X47546450Y-53203095D01*
X47546450Y-53203095D02*
X47546450Y-53274523D01*
X47546450Y-53274523D02*
X47522641Y-53369761D01*
X47522641Y-53369761D02*
X47498831Y-53417380D01*
X47498831Y-53417380D02*
X47451212Y-53465000D01*
X47451212Y-53465000D02*
X47379784Y-53488809D01*
X47379784Y-53488809D02*
X47260736Y-53488809D01*
X47713117Y-52988809D02*
X48022641Y-52988809D01*
X48022641Y-52988809D02*
X47855974Y-53179285D01*
X47855974Y-53179285D02*
X47927403Y-53179285D01*
X47927403Y-53179285D02*
X47975022Y-53203095D01*
X47975022Y-53203095D02*
X47998831Y-53226904D01*
X47998831Y-53226904D02*
X48022641Y-53274523D01*
X48022641Y-53274523D02*
X48022641Y-53393571D01*
X48022641Y-53393571D02*
X47998831Y-53441190D01*
X47998831Y-53441190D02*
X47975022Y-53465000D01*
X47975022Y-53465000D02*
X47927403Y-53488809D01*
X47927403Y-53488809D02*
X47784546Y-53488809D01*
X47784546Y-53488809D02*
X47736927Y-53465000D01*
X47736927Y-53465000D02*
X47713117Y-53441190D01*
X48475021Y-52988809D02*
X48236926Y-52988809D01*
X48236926Y-52988809D02*
X48213117Y-53226904D01*
X48213117Y-53226904D02*
X48236926Y-53203095D01*
X48236926Y-53203095D02*
X48284545Y-53179285D01*
X48284545Y-53179285D02*
X48403593Y-53179285D01*
X48403593Y-53179285D02*
X48451212Y-53203095D01*
X48451212Y-53203095D02*
X48475021Y-53226904D01*
X48475021Y-53226904D02*
X48498831Y-53274523D01*
X48498831Y-53274523D02*
X48498831Y-53393571D01*
X48498831Y-53393571D02*
X48475021Y-53441190D01*
X48475021Y-53441190D02*
X48451212Y-53465000D01*
X48451212Y-53465000D02*
X48403593Y-53488809D01*
X48403593Y-53488809D02*
X48284545Y-53488809D01*
X48284545Y-53488809D02*
X48236926Y-53465000D01*
X48236926Y-53465000D02*
X48213117Y-53441190D01*
X28284857Y-91388809D02*
X28284857Y-90888809D01*
X28284857Y-90888809D02*
X28403905Y-90888809D01*
X28403905Y-90888809D02*
X28475333Y-90912619D01*
X28475333Y-90912619D02*
X28522952Y-90960238D01*
X28522952Y-90960238D02*
X28546762Y-91007857D01*
X28546762Y-91007857D02*
X28570571Y-91103095D01*
X28570571Y-91103095D02*
X28570571Y-91174523D01*
X28570571Y-91174523D02*
X28546762Y-91269761D01*
X28546762Y-91269761D02*
X28522952Y-91317380D01*
X28522952Y-91317380D02*
X28475333Y-91365000D01*
X28475333Y-91365000D02*
X28403905Y-91388809D01*
X28403905Y-91388809D02*
X28284857Y-91388809D01*
X28761048Y-90936428D02*
X28784857Y-90912619D01*
X28784857Y-90912619D02*
X28832476Y-90888809D01*
X28832476Y-90888809D02*
X28951524Y-90888809D01*
X28951524Y-90888809D02*
X28999143Y-90912619D01*
X28999143Y-90912619D02*
X29022952Y-90936428D01*
X29022952Y-90936428D02*
X29046762Y-90984047D01*
X29046762Y-90984047D02*
X29046762Y-91031666D01*
X29046762Y-91031666D02*
X29022952Y-91103095D01*
X29022952Y-91103095D02*
X28737238Y-91388809D01*
X28737238Y-91388809D02*
X29046762Y-91388809D01*
X29475333Y-90888809D02*
X29380095Y-90888809D01*
X29380095Y-90888809D02*
X29332476Y-90912619D01*
X29332476Y-90912619D02*
X29308666Y-90936428D01*
X29308666Y-90936428D02*
X29261047Y-91007857D01*
X29261047Y-91007857D02*
X29237238Y-91103095D01*
X29237238Y-91103095D02*
X29237238Y-91293571D01*
X29237238Y-91293571D02*
X29261047Y-91341190D01*
X29261047Y-91341190D02*
X29284857Y-91365000D01*
X29284857Y-91365000D02*
X29332476Y-91388809D01*
X29332476Y-91388809D02*
X29427714Y-91388809D01*
X29427714Y-91388809D02*
X29475333Y-91365000D01*
X29475333Y-91365000D02*
X29499142Y-91341190D01*
X29499142Y-91341190D02*
X29522952Y-91293571D01*
X29522952Y-91293571D02*
X29522952Y-91174523D01*
X29522952Y-91174523D02*
X29499142Y-91126904D01*
X29499142Y-91126904D02*
X29475333Y-91103095D01*
X29475333Y-91103095D02*
X29427714Y-91079285D01*
X29427714Y-91079285D02*
X29332476Y-91079285D01*
X29332476Y-91079285D02*
X29284857Y-91103095D01*
X29284857Y-91103095D02*
X29261047Y-91126904D01*
X29261047Y-91126904D02*
X29237238Y-91174523D01*
X47484857Y-72588809D02*
X47484857Y-72088809D01*
X47484857Y-72088809D02*
X47603905Y-72088809D01*
X47603905Y-72088809D02*
X47675333Y-72112619D01*
X47675333Y-72112619D02*
X47722952Y-72160238D01*
X47722952Y-72160238D02*
X47746762Y-72207857D01*
X47746762Y-72207857D02*
X47770571Y-72303095D01*
X47770571Y-72303095D02*
X47770571Y-72374523D01*
X47770571Y-72374523D02*
X47746762Y-72469761D01*
X47746762Y-72469761D02*
X47722952Y-72517380D01*
X47722952Y-72517380D02*
X47675333Y-72565000D01*
X47675333Y-72565000D02*
X47603905Y-72588809D01*
X47603905Y-72588809D02*
X47484857Y-72588809D01*
X47937238Y-72088809D02*
X48246762Y-72088809D01*
X48246762Y-72088809D02*
X48080095Y-72279285D01*
X48080095Y-72279285D02*
X48151524Y-72279285D01*
X48151524Y-72279285D02*
X48199143Y-72303095D01*
X48199143Y-72303095D02*
X48222952Y-72326904D01*
X48222952Y-72326904D02*
X48246762Y-72374523D01*
X48246762Y-72374523D02*
X48246762Y-72493571D01*
X48246762Y-72493571D02*
X48222952Y-72541190D01*
X48222952Y-72541190D02*
X48199143Y-72565000D01*
X48199143Y-72565000D02*
X48151524Y-72588809D01*
X48151524Y-72588809D02*
X48008667Y-72588809D01*
X48008667Y-72588809D02*
X47961048Y-72565000D01*
X47961048Y-72565000D02*
X47937238Y-72541190D01*
X48722952Y-72588809D02*
X48437238Y-72588809D01*
X48580095Y-72588809D02*
X48580095Y-72088809D01*
X48580095Y-72088809D02*
X48532476Y-72160238D01*
X48532476Y-72160238D02*
X48484857Y-72207857D01*
X48484857Y-72207857D02*
X48437238Y-72231666D01*
D12*
X39358666Y-21218819D02*
X39358666Y-21933104D01*
X39358666Y-21933104D02*
X39311047Y-22075961D01*
X39311047Y-22075961D02*
X39215809Y-22171200D01*
X39215809Y-22171200D02*
X39072952Y-22218819D01*
X39072952Y-22218819D02*
X38977714Y-22218819D01*
X40358666Y-22218819D02*
X39787238Y-22218819D01*
X40072952Y-22218819D02*
X40072952Y-21218819D01*
X40072952Y-21218819D02*
X39977714Y-21361676D01*
X39977714Y-21361676D02*
X39882476Y-21456914D01*
X39882476Y-21456914D02*
X39787238Y-21504533D01*
D10*
X9184857Y-72488809D02*
X9184857Y-71988809D01*
X9184857Y-71988809D02*
X9303905Y-71988809D01*
X9303905Y-71988809D02*
X9375333Y-72012619D01*
X9375333Y-72012619D02*
X9422952Y-72060238D01*
X9422952Y-72060238D02*
X9446762Y-72107857D01*
X9446762Y-72107857D02*
X9470571Y-72203095D01*
X9470571Y-72203095D02*
X9470571Y-72274523D01*
X9470571Y-72274523D02*
X9446762Y-72369761D01*
X9446762Y-72369761D02*
X9422952Y-72417380D01*
X9422952Y-72417380D02*
X9375333Y-72465000D01*
X9375333Y-72465000D02*
X9303905Y-72488809D01*
X9303905Y-72488809D02*
X9184857Y-72488809D01*
X9661048Y-72036428D02*
X9684857Y-72012619D01*
X9684857Y-72012619D02*
X9732476Y-71988809D01*
X9732476Y-71988809D02*
X9851524Y-71988809D01*
X9851524Y-71988809D02*
X9899143Y-72012619D01*
X9899143Y-72012619D02*
X9922952Y-72036428D01*
X9922952Y-72036428D02*
X9946762Y-72084047D01*
X9946762Y-72084047D02*
X9946762Y-72131666D01*
X9946762Y-72131666D02*
X9922952Y-72203095D01*
X9922952Y-72203095D02*
X9637238Y-72488809D01*
X9637238Y-72488809D02*
X9946762Y-72488809D01*
X10184857Y-72488809D02*
X10280095Y-72488809D01*
X10280095Y-72488809D02*
X10327714Y-72465000D01*
X10327714Y-72465000D02*
X10351523Y-72441190D01*
X10351523Y-72441190D02*
X10399142Y-72369761D01*
X10399142Y-72369761D02*
X10422952Y-72274523D01*
X10422952Y-72274523D02*
X10422952Y-72084047D01*
X10422952Y-72084047D02*
X10399142Y-72036428D01*
X10399142Y-72036428D02*
X10375333Y-72012619D01*
X10375333Y-72012619D02*
X10327714Y-71988809D01*
X10327714Y-71988809D02*
X10232476Y-71988809D01*
X10232476Y-71988809D02*
X10184857Y-72012619D01*
X10184857Y-72012619D02*
X10161047Y-72036428D01*
X10161047Y-72036428D02*
X10137238Y-72084047D01*
X10137238Y-72084047D02*
X10137238Y-72203095D01*
X10137238Y-72203095D02*
X10161047Y-72250714D01*
X10161047Y-72250714D02*
X10184857Y-72274523D01*
X10184857Y-72274523D02*
X10232476Y-72298333D01*
X10232476Y-72298333D02*
X10327714Y-72298333D01*
X10327714Y-72298333D02*
X10375333Y-72274523D01*
X10375333Y-72274523D02*
X10399142Y-72250714D01*
X10399142Y-72250714D02*
X10422952Y-72203095D01*
X66484857Y-72588809D02*
X66484857Y-72088809D01*
X66484857Y-72088809D02*
X66603905Y-72088809D01*
X66603905Y-72088809D02*
X66675333Y-72112619D01*
X66675333Y-72112619D02*
X66722952Y-72160238D01*
X66722952Y-72160238D02*
X66746762Y-72207857D01*
X66746762Y-72207857D02*
X66770571Y-72303095D01*
X66770571Y-72303095D02*
X66770571Y-72374523D01*
X66770571Y-72374523D02*
X66746762Y-72469761D01*
X66746762Y-72469761D02*
X66722952Y-72517380D01*
X66722952Y-72517380D02*
X66675333Y-72565000D01*
X66675333Y-72565000D02*
X66603905Y-72588809D01*
X66603905Y-72588809D02*
X66484857Y-72588809D01*
X66937238Y-72088809D02*
X67246762Y-72088809D01*
X67246762Y-72088809D02*
X67080095Y-72279285D01*
X67080095Y-72279285D02*
X67151524Y-72279285D01*
X67151524Y-72279285D02*
X67199143Y-72303095D01*
X67199143Y-72303095D02*
X67222952Y-72326904D01*
X67222952Y-72326904D02*
X67246762Y-72374523D01*
X67246762Y-72374523D02*
X67246762Y-72493571D01*
X67246762Y-72493571D02*
X67222952Y-72541190D01*
X67222952Y-72541190D02*
X67199143Y-72565000D01*
X67199143Y-72565000D02*
X67151524Y-72588809D01*
X67151524Y-72588809D02*
X67008667Y-72588809D01*
X67008667Y-72588809D02*
X66961048Y-72565000D01*
X66961048Y-72565000D02*
X66937238Y-72541190D01*
X67437238Y-72136428D02*
X67461047Y-72112619D01*
X67461047Y-72112619D02*
X67508666Y-72088809D01*
X67508666Y-72088809D02*
X67627714Y-72088809D01*
X67627714Y-72088809D02*
X67675333Y-72112619D01*
X67675333Y-72112619D02*
X67699142Y-72136428D01*
X67699142Y-72136428D02*
X67722952Y-72184047D01*
X67722952Y-72184047D02*
X67722952Y-72231666D01*
X67722952Y-72231666D02*
X67699142Y-72303095D01*
X67699142Y-72303095D02*
X67413428Y-72588809D01*
X67413428Y-72588809D02*
X67722952Y-72588809D01*
X66484857Y-110388809D02*
X66484857Y-109888809D01*
X66484857Y-109888809D02*
X66603905Y-109888809D01*
X66603905Y-109888809D02*
X66675333Y-109912619D01*
X66675333Y-109912619D02*
X66722952Y-109960238D01*
X66722952Y-109960238D02*
X66746762Y-110007857D01*
X66746762Y-110007857D02*
X66770571Y-110103095D01*
X66770571Y-110103095D02*
X66770571Y-110174523D01*
X66770571Y-110174523D02*
X66746762Y-110269761D01*
X66746762Y-110269761D02*
X66722952Y-110317380D01*
X66722952Y-110317380D02*
X66675333Y-110365000D01*
X66675333Y-110365000D02*
X66603905Y-110388809D01*
X66603905Y-110388809D02*
X66484857Y-110388809D01*
X66961048Y-109936428D02*
X66984857Y-109912619D01*
X66984857Y-109912619D02*
X67032476Y-109888809D01*
X67032476Y-109888809D02*
X67151524Y-109888809D01*
X67151524Y-109888809D02*
X67199143Y-109912619D01*
X67199143Y-109912619D02*
X67222952Y-109936428D01*
X67222952Y-109936428D02*
X67246762Y-109984047D01*
X67246762Y-109984047D02*
X67246762Y-110031666D01*
X67246762Y-110031666D02*
X67222952Y-110103095D01*
X67222952Y-110103095D02*
X66937238Y-110388809D01*
X66937238Y-110388809D02*
X67246762Y-110388809D01*
X67675333Y-110055476D02*
X67675333Y-110388809D01*
X67556285Y-109865000D02*
X67437238Y-110222142D01*
X67437238Y-110222142D02*
X67746761Y-110222142D01*
X66384857Y-91288809D02*
X66384857Y-90788809D01*
X66384857Y-90788809D02*
X66503905Y-90788809D01*
X66503905Y-90788809D02*
X66575333Y-90812619D01*
X66575333Y-90812619D02*
X66622952Y-90860238D01*
X66622952Y-90860238D02*
X66646762Y-90907857D01*
X66646762Y-90907857D02*
X66670571Y-91003095D01*
X66670571Y-91003095D02*
X66670571Y-91074523D01*
X66670571Y-91074523D02*
X66646762Y-91169761D01*
X66646762Y-91169761D02*
X66622952Y-91217380D01*
X66622952Y-91217380D02*
X66575333Y-91265000D01*
X66575333Y-91265000D02*
X66503905Y-91288809D01*
X66503905Y-91288809D02*
X66384857Y-91288809D01*
X66861048Y-90836428D02*
X66884857Y-90812619D01*
X66884857Y-90812619D02*
X66932476Y-90788809D01*
X66932476Y-90788809D02*
X67051524Y-90788809D01*
X67051524Y-90788809D02*
X67099143Y-90812619D01*
X67099143Y-90812619D02*
X67122952Y-90836428D01*
X67122952Y-90836428D02*
X67146762Y-90884047D01*
X67146762Y-90884047D02*
X67146762Y-90931666D01*
X67146762Y-90931666D02*
X67122952Y-91003095D01*
X67122952Y-91003095D02*
X66837238Y-91288809D01*
X66837238Y-91288809D02*
X67146762Y-91288809D01*
X67432476Y-91003095D02*
X67384857Y-90979285D01*
X67384857Y-90979285D02*
X67361047Y-90955476D01*
X67361047Y-90955476D02*
X67337238Y-90907857D01*
X67337238Y-90907857D02*
X67337238Y-90884047D01*
X67337238Y-90884047D02*
X67361047Y-90836428D01*
X67361047Y-90836428D02*
X67384857Y-90812619D01*
X67384857Y-90812619D02*
X67432476Y-90788809D01*
X67432476Y-90788809D02*
X67527714Y-90788809D01*
X67527714Y-90788809D02*
X67575333Y-90812619D01*
X67575333Y-90812619D02*
X67599142Y-90836428D01*
X67599142Y-90836428D02*
X67622952Y-90884047D01*
X67622952Y-90884047D02*
X67622952Y-90907857D01*
X67622952Y-90907857D02*
X67599142Y-90955476D01*
X67599142Y-90955476D02*
X67575333Y-90979285D01*
X67575333Y-90979285D02*
X67527714Y-91003095D01*
X67527714Y-91003095D02*
X67432476Y-91003095D01*
X67432476Y-91003095D02*
X67384857Y-91026904D01*
X67384857Y-91026904D02*
X67361047Y-91050714D01*
X67361047Y-91050714D02*
X67337238Y-91098333D01*
X67337238Y-91098333D02*
X67337238Y-91193571D01*
X67337238Y-91193571D02*
X67361047Y-91241190D01*
X67361047Y-91241190D02*
X67384857Y-91265000D01*
X67384857Y-91265000D02*
X67432476Y-91288809D01*
X67432476Y-91288809D02*
X67527714Y-91288809D01*
X67527714Y-91288809D02*
X67575333Y-91265000D01*
X67575333Y-91265000D02*
X67599142Y-91241190D01*
X67599142Y-91241190D02*
X67622952Y-91193571D01*
X67622952Y-91193571D02*
X67622952Y-91098333D01*
X67622952Y-91098333D02*
X67599142Y-91050714D01*
X67599142Y-91050714D02*
X67575333Y-91026904D01*
X67575333Y-91026904D02*
X67527714Y-91003095D01*
X47484857Y-91388809D02*
X47484857Y-90888809D01*
X47484857Y-90888809D02*
X47603905Y-90888809D01*
X47603905Y-90888809D02*
X47675333Y-90912619D01*
X47675333Y-90912619D02*
X47722952Y-90960238D01*
X47722952Y-90960238D02*
X47746762Y-91007857D01*
X47746762Y-91007857D02*
X47770571Y-91103095D01*
X47770571Y-91103095D02*
X47770571Y-91174523D01*
X47770571Y-91174523D02*
X47746762Y-91269761D01*
X47746762Y-91269761D02*
X47722952Y-91317380D01*
X47722952Y-91317380D02*
X47675333Y-91365000D01*
X47675333Y-91365000D02*
X47603905Y-91388809D01*
X47603905Y-91388809D02*
X47484857Y-91388809D01*
X47961048Y-90936428D02*
X47984857Y-90912619D01*
X47984857Y-90912619D02*
X48032476Y-90888809D01*
X48032476Y-90888809D02*
X48151524Y-90888809D01*
X48151524Y-90888809D02*
X48199143Y-90912619D01*
X48199143Y-90912619D02*
X48222952Y-90936428D01*
X48222952Y-90936428D02*
X48246762Y-90984047D01*
X48246762Y-90984047D02*
X48246762Y-91031666D01*
X48246762Y-91031666D02*
X48222952Y-91103095D01*
X48222952Y-91103095D02*
X47937238Y-91388809D01*
X47937238Y-91388809D02*
X48246762Y-91388809D01*
X48413428Y-90888809D02*
X48746761Y-90888809D01*
X48746761Y-90888809D02*
X48532476Y-91388809D01*
X9284857Y-91288809D02*
X9284857Y-90788809D01*
X9284857Y-90788809D02*
X9403905Y-90788809D01*
X9403905Y-90788809D02*
X9475333Y-90812619D01*
X9475333Y-90812619D02*
X9522952Y-90860238D01*
X9522952Y-90860238D02*
X9546762Y-90907857D01*
X9546762Y-90907857D02*
X9570571Y-91003095D01*
X9570571Y-91003095D02*
X9570571Y-91074523D01*
X9570571Y-91074523D02*
X9546762Y-91169761D01*
X9546762Y-91169761D02*
X9522952Y-91217380D01*
X9522952Y-91217380D02*
X9475333Y-91265000D01*
X9475333Y-91265000D02*
X9403905Y-91288809D01*
X9403905Y-91288809D02*
X9284857Y-91288809D01*
X9761048Y-90836428D02*
X9784857Y-90812619D01*
X9784857Y-90812619D02*
X9832476Y-90788809D01*
X9832476Y-90788809D02*
X9951524Y-90788809D01*
X9951524Y-90788809D02*
X9999143Y-90812619D01*
X9999143Y-90812619D02*
X10022952Y-90836428D01*
X10022952Y-90836428D02*
X10046762Y-90884047D01*
X10046762Y-90884047D02*
X10046762Y-90931666D01*
X10046762Y-90931666D02*
X10022952Y-91003095D01*
X10022952Y-91003095D02*
X9737238Y-91288809D01*
X9737238Y-91288809D02*
X10046762Y-91288809D01*
X10499142Y-90788809D02*
X10261047Y-90788809D01*
X10261047Y-90788809D02*
X10237238Y-91026904D01*
X10237238Y-91026904D02*
X10261047Y-91003095D01*
X10261047Y-91003095D02*
X10308666Y-90979285D01*
X10308666Y-90979285D02*
X10427714Y-90979285D01*
X10427714Y-90979285D02*
X10475333Y-91003095D01*
X10475333Y-91003095D02*
X10499142Y-91026904D01*
X10499142Y-91026904D02*
X10522952Y-91074523D01*
X10522952Y-91074523D02*
X10522952Y-91193571D01*
X10522952Y-91193571D02*
X10499142Y-91241190D01*
X10499142Y-91241190D02*
X10475333Y-91265000D01*
X10475333Y-91265000D02*
X10427714Y-91288809D01*
X10427714Y-91288809D02*
X10308666Y-91288809D01*
X10308666Y-91288809D02*
X10261047Y-91265000D01*
X10261047Y-91265000D02*
X10237238Y-91241190D01*
X47384857Y-110288809D02*
X47384857Y-109788809D01*
X47384857Y-109788809D02*
X47503905Y-109788809D01*
X47503905Y-109788809D02*
X47575333Y-109812619D01*
X47575333Y-109812619D02*
X47622952Y-109860238D01*
X47622952Y-109860238D02*
X47646762Y-109907857D01*
X47646762Y-109907857D02*
X47670571Y-110003095D01*
X47670571Y-110003095D02*
X47670571Y-110074523D01*
X47670571Y-110074523D02*
X47646762Y-110169761D01*
X47646762Y-110169761D02*
X47622952Y-110217380D01*
X47622952Y-110217380D02*
X47575333Y-110265000D01*
X47575333Y-110265000D02*
X47503905Y-110288809D01*
X47503905Y-110288809D02*
X47384857Y-110288809D01*
X47861048Y-109836428D02*
X47884857Y-109812619D01*
X47884857Y-109812619D02*
X47932476Y-109788809D01*
X47932476Y-109788809D02*
X48051524Y-109788809D01*
X48051524Y-109788809D02*
X48099143Y-109812619D01*
X48099143Y-109812619D02*
X48122952Y-109836428D01*
X48122952Y-109836428D02*
X48146762Y-109884047D01*
X48146762Y-109884047D02*
X48146762Y-109931666D01*
X48146762Y-109931666D02*
X48122952Y-110003095D01*
X48122952Y-110003095D02*
X47837238Y-110288809D01*
X47837238Y-110288809D02*
X48146762Y-110288809D01*
X48313428Y-109788809D02*
X48622952Y-109788809D01*
X48622952Y-109788809D02*
X48456285Y-109979285D01*
X48456285Y-109979285D02*
X48527714Y-109979285D01*
X48527714Y-109979285D02*
X48575333Y-110003095D01*
X48575333Y-110003095D02*
X48599142Y-110026904D01*
X48599142Y-110026904D02*
X48622952Y-110074523D01*
X48622952Y-110074523D02*
X48622952Y-110193571D01*
X48622952Y-110193571D02*
X48599142Y-110241190D01*
X48599142Y-110241190D02*
X48575333Y-110265000D01*
X48575333Y-110265000D02*
X48527714Y-110288809D01*
X48527714Y-110288809D02*
X48384857Y-110288809D01*
X48384857Y-110288809D02*
X48337238Y-110265000D01*
X48337238Y-110265000D02*
X48313428Y-110241190D01*
X28345736Y-110288809D02*
X28345736Y-109788809D01*
X28345736Y-109788809D02*
X28464784Y-109788809D01*
X28464784Y-109788809D02*
X28536212Y-109812619D01*
X28536212Y-109812619D02*
X28583831Y-109860238D01*
X28583831Y-109860238D02*
X28607641Y-109907857D01*
X28607641Y-109907857D02*
X28631450Y-110003095D01*
X28631450Y-110003095D02*
X28631450Y-110074523D01*
X28631450Y-110074523D02*
X28607641Y-110169761D01*
X28607641Y-110169761D02*
X28583831Y-110217380D01*
X28583831Y-110217380D02*
X28536212Y-110265000D01*
X28536212Y-110265000D02*
X28464784Y-110288809D01*
X28464784Y-110288809D02*
X28345736Y-110288809D01*
X28821927Y-109836428D02*
X28845736Y-109812619D01*
X28845736Y-109812619D02*
X28893355Y-109788809D01*
X28893355Y-109788809D02*
X29012403Y-109788809D01*
X29012403Y-109788809D02*
X29060022Y-109812619D01*
X29060022Y-109812619D02*
X29083831Y-109836428D01*
X29083831Y-109836428D02*
X29107641Y-109884047D01*
X29107641Y-109884047D02*
X29107641Y-109931666D01*
X29107641Y-109931666D02*
X29083831Y-110003095D01*
X29083831Y-110003095D02*
X28798117Y-110288809D01*
X28798117Y-110288809D02*
X29107641Y-110288809D01*
X29298117Y-109836428D02*
X29321926Y-109812619D01*
X29321926Y-109812619D02*
X29369545Y-109788809D01*
X29369545Y-109788809D02*
X29488593Y-109788809D01*
X29488593Y-109788809D02*
X29536212Y-109812619D01*
X29536212Y-109812619D02*
X29560021Y-109836428D01*
X29560021Y-109836428D02*
X29583831Y-109884047D01*
X29583831Y-109884047D02*
X29583831Y-109931666D01*
X29583831Y-109931666D02*
X29560021Y-110003095D01*
X29560021Y-110003095D02*
X29274307Y-110288809D01*
X29274307Y-110288809D02*
X29583831Y-110288809D01*
D16*
%TO.C,J7*%
X5982000Y8869157D02*
X34182000Y8869157D01*
X5982000Y-250843D02*
X5982000Y8869157D01*
X8942000Y-4020843D02*
X8942000Y-5020843D01*
X9942000Y-4520843D02*
X8942000Y-4020843D01*
X8942000Y-5020843D02*
X9942000Y-4520843D01*
X18032000Y-250843D02*
X18032000Y8869157D01*
X22132000Y-250843D02*
X22132000Y8869157D01*
X34182000Y8869157D02*
X34182000Y-250843D01*
X34182000Y-250843D02*
X5982000Y-250843D01*
%TO.C,SW21*%
X65471603Y-14016567D02*
X65471603Y-13416567D01*
X65771603Y-13716567D02*
X65471603Y-14016567D01*
X65471603Y-13416567D02*
X65771603Y-13716567D01*
X63671603Y-12316567D02*
X75471603Y-12316567D01*
X63671603Y-8216567D02*
X63671603Y-12316567D01*
X75471603Y-8216567D02*
X75471603Y-12316567D01*
X69571603Y-6716567D02*
X69571603Y-5716567D01*
X69071603Y-6216567D02*
X70071603Y-6216567D01*
X63671603Y-4216567D02*
X63671603Y-116567D01*
X63671603Y-116567D02*
X66071603Y-116567D01*
X68271603Y-116567D02*
X70871603Y-116567D01*
X73071603Y-116567D02*
X75471603Y-116567D01*
X75471603Y-116567D02*
X75471603Y-4216567D01*
X72571603Y-6216567D02*
G75*
G02*
X66571603Y-6216567I-3000000J0D01*
G01*
X66571603Y-6216567D02*
G75*
G02*
X72571603Y-6216567I3000000J0D01*
G01*
%TO.C,D38*%
X30467879Y-34710843D02*
X30467879Y-36710843D01*
X30467879Y-34710843D02*
X27267879Y-34710843D01*
X30167879Y-37010843D02*
X30467879Y-36710843D01*
X30167879Y-37010843D02*
X27267879Y-37010843D01*
X27267879Y-37010843D02*
X27267879Y-34710843D01*
%TO.C,U1*%
X14363879Y-15920843D02*
X13563879Y-15920843D01*
X14363879Y-15920843D02*
X15163879Y-15920843D01*
X14363879Y-19040843D02*
X13563879Y-19040843D01*
X14363879Y-19040843D02*
X15163879Y-19040843D01*
X15903879Y-19320843D02*
X15423879Y-19320843D01*
X15663879Y-18990843D01*
X15903879Y-19320843D01*
G36*
X15903879Y-19320843D02*
G01*
X15423879Y-19320843D01*
X15663879Y-18990843D01*
X15903879Y-19320843D01*
G37*
%TO.C,D1*%
X8265879Y-115551843D02*
X12150879Y-115551843D01*
X12150879Y-113281843D02*
X8265879Y-113281843D01*
X12150879Y-115551843D02*
X12150879Y-113281843D01*
%TO.C,R10*%
X29064936Y-18029000D02*
X29519064Y-18029000D01*
X29064936Y-19499000D02*
X29519064Y-19499000D01*
%TO.C,U3*%
X21672879Y-23070843D02*
X21192879Y-23070843D01*
X21432879Y-22740843D01*
X21672879Y-23070843D01*
G36*
X21672879Y-23070843D02*
G01*
X21192879Y-23070843D01*
X21432879Y-22740843D01*
X21672879Y-23070843D01*
G37*
X26442879Y-18880843D02*
X26442879Y-21080843D01*
X26442879Y-18880843D02*
X26442879Y-16680843D01*
X20972879Y-18880843D02*
X20972879Y-21080843D01*
X20972879Y-18880843D02*
X20972879Y-16680843D01*
%TO.C,C6*%
X35813227Y-1178043D02*
X32981731Y-1178043D01*
X35813227Y-6398043D02*
X32981731Y-6398043D01*
%TO.C,R17*%
X1782943Y-14127443D02*
X1328815Y-14127443D01*
X1782943Y-15597443D02*
X1328815Y-15597443D01*
%TO.C,C17*%
X37722879Y-74462095D02*
X37722879Y-73939591D01*
X39192879Y-74462095D02*
X39192879Y-73939591D01*
%TO.C,R5*%
X40988815Y-6381843D02*
X41442943Y-6381843D01*
X40988815Y-7851843D02*
X41442943Y-7851843D01*
%TO.C,D4*%
X65565879Y-115551843D02*
X69450879Y-115551843D01*
X69450879Y-113281843D02*
X65565879Y-113281843D01*
X69450879Y-115551843D02*
X69450879Y-113281843D01*
%TO.C,D20*%
X65315879Y-39751843D02*
X69200879Y-39751843D01*
X69200879Y-37481843D02*
X65315879Y-37481843D01*
X69200879Y-39751843D02*
X69200879Y-37481843D01*
%TO.C,D5*%
X8165879Y-96551843D02*
X12050879Y-96551843D01*
X12050879Y-94281843D02*
X8165879Y-94281843D01*
X12050879Y-96551843D02*
X12050879Y-94281843D01*
%TO.C,D36*%
X68717879Y-53710843D02*
X68717879Y-55710843D01*
X68717879Y-53710843D02*
X65517879Y-53710843D01*
X68417879Y-56010843D02*
X68717879Y-55710843D01*
X68417879Y-56010843D02*
X65517879Y-56010843D01*
X65517879Y-56010843D02*
X65517879Y-53710843D01*
%TO.C,D9*%
X8265879Y-77551843D02*
X12150879Y-77551843D01*
X12150879Y-75281843D02*
X8265879Y-75281843D01*
X12150879Y-77551843D02*
X12150879Y-75281843D01*
%TO.C,C22*%
X3164631Y-23840843D02*
X1742127Y-23840843D01*
X3164631Y-21120843D02*
X1742127Y-21120843D01*
%TO.C,D12*%
X65515879Y-77551843D02*
X69400879Y-77551843D01*
X69400879Y-75281843D02*
X65515879Y-75281843D01*
X69400879Y-77551843D02*
X69400879Y-75281843D01*
%TO.C,D18*%
X27365879Y-39651843D02*
X31250879Y-39651843D01*
X31250879Y-37381843D02*
X27365879Y-37381843D01*
X31250879Y-39651843D02*
X31250879Y-37381843D01*
%TO.C,C8*%
X39260479Y181609D02*
X39260479Y-340895D01*
X40730479Y181609D02*
X40730479Y-340895D01*
%TO.C,Q3*%
X26992000Y-10754000D02*
X26342000Y-10754000D01*
X26992000Y-10754000D02*
X27642000Y-10754000D01*
X26992000Y-13874000D02*
X26342000Y-13874000D01*
X26992000Y-13874000D02*
X27642000Y-13874000D01*
X28394500Y-14154000D02*
X27914500Y-14154000D01*
X28154500Y-13824000D01*
X28394500Y-14154000D01*
G36*
X28394500Y-14154000D02*
G01*
X27914500Y-14154000D01*
X28154500Y-13824000D01*
X28394500Y-14154000D01*
G37*
%TO.C,D40*%
X68467879Y-34710843D02*
X68467879Y-36710843D01*
X68467879Y-34710843D02*
X65267879Y-34710843D01*
X68167879Y-37010843D02*
X68467879Y-36710843D01*
X68167879Y-37010843D02*
X65267879Y-37010843D01*
X65267879Y-37010843D02*
X65267879Y-34710843D01*
%TO.C,D46*%
X69972879Y-16880843D02*
X69972879Y-20765843D01*
X69972879Y-20765843D02*
X72242879Y-20765843D01*
X72242879Y-20765843D02*
X72242879Y-16880843D01*
%TO.C,D44*%
X12622879Y-21545843D02*
X12622879Y-23815843D01*
X12622879Y-23815843D02*
X16507879Y-23815843D01*
X16507879Y-21545843D02*
X12622879Y-21545843D01*
%TO.C,D10*%
X27265879Y-77551843D02*
X31150879Y-77551843D01*
X31150879Y-75281843D02*
X27265879Y-75281843D01*
X31150879Y-77551843D02*
X31150879Y-75281843D01*
%TO.C,D39*%
X49717879Y-34710843D02*
X49717879Y-36710843D01*
X49717879Y-34710843D02*
X46517879Y-34710843D01*
X49417879Y-37010843D02*
X49717879Y-36710843D01*
X49417879Y-37010843D02*
X46517879Y-37010843D01*
X46517879Y-37010843D02*
X46517879Y-34710843D01*
%TO.C,C18*%
X37457000Y-93404595D02*
X37457000Y-92882091D01*
X38927000Y-93404595D02*
X38927000Y-92882091D01*
%TO.C,C14*%
X37357000Y-36609595D02*
X37357000Y-36087091D01*
X38827000Y-36609595D02*
X38827000Y-36087091D01*
%TO.C,C7*%
X37203252Y1746000D02*
X35780748Y1746000D01*
X37203252Y-74000D02*
X35780748Y-74000D01*
%TO.C,Q1*%
X22792000Y-6741500D02*
X22142000Y-6741500D01*
X22792000Y-6741500D02*
X23442000Y-6741500D01*
X22792000Y-9861500D02*
X22142000Y-9861500D01*
X22792000Y-9861500D02*
X23442000Y-9861500D01*
X21629500Y-6791500D02*
X21389500Y-6461500D01*
X21869500Y-6461500D01*
X21629500Y-6791500D01*
G36*
X21629500Y-6791500D02*
G01*
X21389500Y-6461500D01*
X21869500Y-6461500D01*
X21629500Y-6791500D01*
G37*
%TO.C,J6*%
X3082879Y-1410843D02*
X4782879Y-1410843D01*
X3082879Y-10750843D02*
X4782879Y-10750843D01*
%TO.C,L1*%
X14947879Y-6920843D02*
X16397879Y-6920843D01*
X14947879Y-13140843D02*
X14947879Y-6920843D01*
X14947879Y-13140843D02*
X16397879Y-13140843D01*
X20867879Y-6920843D02*
X19417879Y-6920843D01*
X20867879Y-13140843D02*
X19417879Y-13140843D01*
X20867879Y-13140843D02*
X20867879Y-6920843D01*
%TO.C,D16*%
X65515879Y-58851843D02*
X69400879Y-58851843D01*
X69400879Y-56581843D02*
X65515879Y-56581843D01*
X69400879Y-58851843D02*
X69400879Y-56581843D01*
%TO.C,U4*%
X43767668Y8597277D02*
X43767668Y2397277D01*
X43767668Y8597277D02*
X62167668Y8597277D01*
X43767668Y-16252723D02*
X43767668Y-17252723D01*
X43767668Y-17252723D02*
X45267668Y-17252723D01*
X62167668Y8597277D02*
X62167668Y2397277D01*
X62167668Y-17252723D02*
X60667668Y-17252723D01*
X62167668Y-17252723D02*
X62167668Y-16252723D01*
X43767668Y1722277D02*
X43267668Y1722277D01*
X43767668Y2222277D01*
X43767668Y1722277D01*
G36*
X43767668Y1722277D02*
G01*
X43267668Y1722277D01*
X43767668Y2222277D01*
X43767668Y1722277D01*
G37*
%TO.C,D6*%
X27215879Y-96615843D02*
X31100879Y-96615843D01*
X31100879Y-94345843D02*
X27215879Y-94345843D01*
X31100879Y-96615843D02*
X31100879Y-94345843D01*
%TO.C,D43*%
X12217879Y-19730843D02*
X6707879Y-19730843D01*
X12217879Y-23030843D02*
X6707879Y-23030843D01*
X12217879Y-23030843D02*
X12217879Y-19730843D01*
%TO.C,D30*%
X30472879Y-72768343D02*
X30472879Y-74768343D01*
X30472879Y-72768343D02*
X27272879Y-72768343D01*
X30172879Y-75068343D02*
X30472879Y-74768343D01*
X30172879Y-75068343D02*
X27272879Y-75068343D01*
X27272879Y-75068343D02*
X27272879Y-72768343D01*
%TO.C,R16*%
X1782943Y-12152923D02*
X1328815Y-12152923D01*
X1782943Y-13622923D02*
X1328815Y-13622923D01*
%TO.C,D11*%
X46265879Y-77551843D02*
X50150879Y-77551843D01*
X50150879Y-75281843D02*
X46265879Y-75281843D01*
X50150879Y-77551843D02*
X50150879Y-75281843D01*
%TO.C,R8*%
X18563843Y-19373843D02*
X18109715Y-19373843D01*
X18563843Y-20843843D02*
X18109715Y-20843843D01*
%TO.C,L2*%
X56032000Y-21666064D02*
X56032000Y-20461936D01*
X58752000Y-21666064D02*
X58752000Y-20461936D01*
%TO.C,D13*%
X8365879Y-58851843D02*
X12250879Y-58851843D01*
X12250879Y-56581843D02*
X8365879Y-56581843D01*
X12250879Y-58851843D02*
X12250879Y-56581843D01*
%TO.C,C1*%
X3317931Y-271243D02*
X1895427Y-271243D01*
X3317931Y2448757D02*
X1895427Y2448757D01*
%TO.C,Q6*%
X29254500Y-14504000D02*
X28604500Y-14504000D01*
X29254500Y-14504000D02*
X29904500Y-14504000D01*
X29254500Y-17624000D02*
X28604500Y-17624000D01*
X29254500Y-17624000D02*
X29904500Y-17624000D01*
X28092000Y-14554000D02*
X27852000Y-14224000D01*
X28332000Y-14224000D01*
X28092000Y-14554000D01*
G36*
X28092000Y-14554000D02*
G01*
X27852000Y-14224000D01*
X28332000Y-14224000D01*
X28092000Y-14554000D01*
G37*
%TO.C,C3*%
X26718248Y-5754000D02*
X28140752Y-5754000D01*
X26718248Y-8474000D02*
X28140752Y-8474000D01*
%TO.C,D34*%
X30467879Y-53610843D02*
X30467879Y-55610843D01*
X30467879Y-53610843D02*
X27267879Y-53610843D01*
X30167879Y-55910843D02*
X30467879Y-55610843D01*
X30167879Y-55910843D02*
X27267879Y-55910843D01*
X27267879Y-55910843D02*
X27267879Y-53610843D01*
%TO.C,R12*%
X65699279Y-17854779D02*
X65699279Y-18308907D01*
X67169279Y-17854779D02*
X67169279Y-18308907D01*
%TO.C,R3*%
X14778443Y-13995843D02*
X14324315Y-13995843D01*
X14778443Y-15465843D02*
X14324315Y-15465843D01*
%TO.C,D8*%
X65415879Y-96551843D02*
X69300879Y-96551843D01*
X69300879Y-94281843D02*
X65415879Y-94281843D01*
X69300879Y-96551843D02*
X69300879Y-94281843D01*
%TO.C,C2*%
X9297879Y-8671495D02*
X9297879Y-11502991D01*
X14517879Y-8671495D02*
X14517879Y-11502991D01*
%TO.C,D45*%
X67666668Y-16878123D02*
X67666668Y-20763123D01*
X67666668Y-20763123D02*
X69936668Y-20763123D01*
X69936668Y-20763123D02*
X69936668Y-16878123D01*
%TO.C,C19*%
X37722879Y-112354595D02*
X37722879Y-111832091D01*
X39192879Y-112354595D02*
X39192879Y-111832091D01*
%TO.C,D33*%
X11717879Y-53710843D02*
X11717879Y-55710843D01*
X11717879Y-53710843D02*
X8517879Y-53710843D01*
X11417879Y-56010843D02*
X11717879Y-55710843D01*
X11417879Y-56010843D02*
X8517879Y-56010843D01*
X8517879Y-56010843D02*
X8517879Y-53710843D01*
%TO.C,D37*%
X11467879Y-34610843D02*
X11467879Y-36610843D01*
X11467879Y-34610843D02*
X8267879Y-34610843D01*
X11167879Y-36910843D02*
X11467879Y-36610843D01*
X11167879Y-36910843D02*
X8267879Y-36910843D01*
X8267879Y-36910843D02*
X8267879Y-34610843D01*
%TO.C,Q5*%
X8568379Y-14225843D02*
X6618379Y-14225843D01*
X8568379Y-14225843D02*
X10518379Y-14225843D01*
X8568379Y-19345843D02*
X6618379Y-19345843D01*
X8568379Y-19345843D02*
X10518379Y-19345843D01*
X11508379Y-19580843D02*
X11028379Y-19580843D01*
X11268379Y-19250843D01*
X11508379Y-19580843D01*
G36*
X11508379Y-19580843D02*
G01*
X11028379Y-19580843D01*
X11268379Y-19250843D01*
X11508379Y-19580843D01*
G37*
%TO.C,R26*%
X5880815Y-12145843D02*
X6334943Y-12145843D01*
X5880815Y-13615843D02*
X6334943Y-13615843D01*
%TO.C,C5*%
X30453252Y-19954000D02*
X29030748Y-19954000D01*
X30453252Y-22674000D02*
X29030748Y-22674000D01*
%TO.C,D2*%
X27265879Y-115801843D02*
X31150879Y-115801843D01*
X31150879Y-113531843D02*
X27265879Y-113531843D01*
X31150879Y-115801843D02*
X31150879Y-113531843D01*
%TO.C,D21*%
X8187879Y-112910843D02*
X8187879Y-110610843D01*
X11087879Y-112910843D02*
X8187879Y-112910843D01*
X11087879Y-112910843D02*
X11387879Y-112610843D01*
X11387879Y-110610843D02*
X8187879Y-110610843D01*
X11387879Y-110610843D02*
X11387879Y-112610843D01*
%TO.C,R4*%
X14534943Y-19545843D02*
X14080815Y-19545843D01*
X14534943Y-21015843D02*
X14080815Y-21015843D01*
%TO.C,L3*%
X59232000Y-20461936D02*
X59232000Y-21666064D01*
X61952000Y-20461936D02*
X61952000Y-21666064D01*
%TO.C,U5*%
X22942000Y-10754000D02*
X22142000Y-10754000D01*
X22942000Y-10754000D02*
X23742000Y-10754000D01*
X22942000Y-13874000D02*
X22142000Y-13874000D01*
X22942000Y-13874000D02*
X23742000Y-13874000D01*
X24482000Y-14154000D02*
X24002000Y-14154000D01*
X24242000Y-13824000D01*
X24482000Y-14154000D01*
G36*
X24482000Y-14154000D02*
G01*
X24002000Y-14154000D01*
X24242000Y-13824000D01*
X24482000Y-14154000D01*
G37*
%TO.C,U2*%
X18545479Y-13889343D02*
X17745479Y-13889343D01*
X18545479Y-13889343D02*
X19345479Y-13889343D01*
X18545479Y-17009343D02*
X17745479Y-17009343D01*
X18545479Y-17009343D02*
X19345479Y-17009343D01*
X20085479Y-17289343D02*
X19605479Y-17289343D01*
X19845479Y-16959343D01*
X20085479Y-17289343D01*
G36*
X20085479Y-17289343D02*
G01*
X19605479Y-17289343D01*
X19845479Y-16959343D01*
X20085479Y-17289343D01*
G37*
%TO.C,D35*%
X49467879Y-53710843D02*
X49467879Y-55710843D01*
X49467879Y-53710843D02*
X46267879Y-53710843D01*
X49167879Y-56010843D02*
X49467879Y-55710843D01*
X49167879Y-56010843D02*
X46267879Y-56010843D01*
X46267879Y-56010843D02*
X46267879Y-53710843D01*
%TO.C,D26*%
X27267879Y-94010843D02*
X27267879Y-91710843D01*
X30167879Y-94010843D02*
X27267879Y-94010843D01*
X30167879Y-94010843D02*
X30467879Y-93710843D01*
X30467879Y-91710843D02*
X27267879Y-91710843D01*
X30467879Y-91710843D02*
X30467879Y-93710843D01*
%TO.C,D19*%
X46565879Y-39901843D02*
X50450879Y-39901843D01*
X50450879Y-37631843D02*
X46565879Y-37631843D01*
X50450879Y-39901843D02*
X50450879Y-37631843D01*
%TO.C,D31*%
X49722879Y-72868343D02*
X49722879Y-74868343D01*
X49722879Y-72868343D02*
X46522879Y-72868343D01*
X49422879Y-75168343D02*
X49722879Y-74868343D01*
X49422879Y-75168343D02*
X46522879Y-75168343D01*
X46522879Y-75168343D02*
X46522879Y-72868343D01*
%TO.C,R9*%
X18513043Y-17391643D02*
X18058915Y-17391643D01*
X18513043Y-18861643D02*
X18058915Y-18861643D01*
%TO.C,R1*%
X18964936Y-24529000D02*
X19419064Y-24529000D01*
X18964936Y-25999000D02*
X19419064Y-25999000D01*
%TO.C,D14*%
X27015879Y-58851843D02*
X30900879Y-58851843D01*
X30900879Y-56581843D02*
X27015879Y-56581843D01*
X30900879Y-58851843D02*
X30900879Y-56581843D01*
%TO.C,D17*%
X8265879Y-39501843D02*
X12150879Y-39501843D01*
X12150879Y-37231843D02*
X8265879Y-37231843D01*
X12150879Y-39501843D02*
X12150879Y-37231843D01*
%TO.C,C4*%
X41477131Y-2381843D02*
X40954627Y-2381843D01*
X41477131Y-3851843D02*
X40954627Y-3851843D01*
%TO.C,D15*%
X46265879Y-58851843D02*
X50150879Y-58851843D01*
X50150879Y-56581843D02*
X46265879Y-56581843D01*
X50150879Y-58851843D02*
X50150879Y-56581843D01*
%TO.C,R7*%
X26869064Y-8929000D02*
X26414936Y-8929000D01*
X26869064Y-10399000D02*
X26414936Y-10399000D01*
%TO.C,D7*%
X46415879Y-96551843D02*
X50300879Y-96551843D01*
X50300879Y-94281843D02*
X46415879Y-94281843D01*
X50300879Y-96551843D02*
X50300879Y-94281843D01*
%TO.C,D3*%
X46415879Y-115551843D02*
X50300879Y-115551843D01*
X50300879Y-113281843D02*
X46415879Y-113281843D01*
X50300879Y-115551843D02*
X50300879Y-113281843D01*
%TO.C,J1*%
X34407879Y-10630843D02*
X34407879Y-20930843D01*
X34407879Y-20930843D02*
X36147879Y-20930843D01*
X36147879Y-10630843D02*
X34407879Y-10630843D01*
X40207879Y-10630843D02*
X38867879Y-10630843D01*
X40207879Y-12120843D02*
X40207879Y-10630843D01*
X40207879Y-12120843D02*
X41407879Y-12120843D01*
X40207879Y-19440843D02*
X40207879Y-20930843D01*
X40207879Y-20930843D02*
X38867879Y-20930843D01*
%TO.C,R6*%
X41442943Y-4381843D02*
X40988815Y-4381843D01*
X41442943Y-5851843D02*
X40988815Y-5851843D01*
%TO.C,C21*%
X54057000Y-21352748D02*
X54057000Y-21875252D01*
X55527000Y-21352748D02*
X55527000Y-21875252D01*
%TO.C,D29*%
X8272879Y-75068343D02*
X8272879Y-72768343D01*
X11172879Y-75068343D02*
X8272879Y-75068343D01*
X11172879Y-75068343D02*
X11472879Y-74768343D01*
X11472879Y-72768343D02*
X8272879Y-72768343D01*
X11472879Y-72768343D02*
X11472879Y-74768343D01*
%TO.C,R14*%
X41241679Y80621D02*
X41241679Y-373507D01*
X42711679Y80621D02*
X42711679Y-373507D01*
%TO.C,C20*%
X62457000Y-21402748D02*
X62457000Y-21925252D01*
X63927000Y-21402748D02*
X63927000Y-21925252D01*
%TO.C,C16*%
X37457000Y-55379595D02*
X37457000Y-54857091D01*
X38927000Y-55379595D02*
X38927000Y-54857091D01*
%TO.C,D32*%
X68722879Y-72868343D02*
X68722879Y-74868343D01*
X68722879Y-72868343D02*
X65522879Y-72868343D01*
X68422879Y-75168343D02*
X68722879Y-74868343D01*
X68422879Y-75168343D02*
X65522879Y-75168343D01*
X65522879Y-75168343D02*
X65522879Y-72868343D01*
%TO.C,Q2*%
X30892000Y-10754000D02*
X30242000Y-10754000D01*
X30892000Y-10754000D02*
X31542000Y-10754000D01*
X30892000Y-13874000D02*
X30242000Y-13874000D01*
X30892000Y-13874000D02*
X31542000Y-13874000D01*
X32294500Y-14154000D02*
X31814500Y-14154000D01*
X32054500Y-13824000D01*
X32294500Y-14154000D01*
G36*
X32294500Y-14154000D02*
G01*
X31814500Y-14154000D01*
X32054500Y-13824000D01*
X32294500Y-14154000D01*
G37*
%TO.C,D24*%
X68717879Y-110610843D02*
X68717879Y-112610843D01*
X68717879Y-110610843D02*
X65517879Y-110610843D01*
X68417879Y-112910843D02*
X68717879Y-112610843D01*
X68417879Y-112910843D02*
X65517879Y-112910843D01*
X65517879Y-112910843D02*
X65517879Y-110610843D01*
%TO.C,D28*%
X68717879Y-91610843D02*
X68717879Y-93610843D01*
X68717879Y-91610843D02*
X65517879Y-91610843D01*
X68417879Y-93910843D02*
X68717879Y-93610843D01*
X68417879Y-93910843D02*
X65517879Y-93910843D01*
X65517879Y-93910843D02*
X65517879Y-91610843D01*
%TO.C,D27*%
X49717879Y-91610843D02*
X49717879Y-93610843D01*
X49717879Y-91610843D02*
X46517879Y-91610843D01*
X49417879Y-93910843D02*
X49717879Y-93610843D01*
X49417879Y-93910843D02*
X46517879Y-93910843D01*
X46517879Y-93910843D02*
X46517879Y-91610843D01*
%TO.C,D25*%
X11467879Y-91610843D02*
X11467879Y-93610843D01*
X11467879Y-91610843D02*
X8267879Y-91610843D01*
X11167879Y-93910843D02*
X11467879Y-93610843D01*
X11167879Y-93910843D02*
X8267879Y-93910843D01*
X8267879Y-93910843D02*
X8267879Y-91610843D01*
%TO.C,D23*%
X49637879Y-110610843D02*
X49637879Y-112610843D01*
X49637879Y-110610843D02*
X46437879Y-110610843D01*
X49337879Y-112910843D02*
X49637879Y-112610843D01*
X49337879Y-112910843D02*
X46437879Y-112910843D01*
X46437879Y-112910843D02*
X46437879Y-110610843D01*
%TO.C,D22*%
X27352879Y-112910843D02*
X27352879Y-110610843D01*
X30252879Y-112910843D02*
X27352879Y-112910843D01*
X30252879Y-112910843D02*
X30552879Y-112610843D01*
X30552879Y-110610843D02*
X27352879Y-110610843D01*
X30552879Y-110610843D02*
X30552879Y-112610843D01*
%TD*%
M02*
