%TF.GenerationSoftware,KiCad,Pcbnew,8.0.5-8.0.5-0~ubuntu22.04.1*%
%TF.CreationDate,2024-11-26T13:49:24+00:00*%
%TF.ProjectId,numcalcium,6e756d63-616c-4636-9975-6d2e6b696361,rev?*%
%TF.SameCoordinates,Original*%
%TF.FileFunction,Soldermask,Top*%
%TF.FilePolarity,Negative*%
%FSLAX46Y46*%
G04 Gerber Fmt 4.6, Leading zero omitted, Abs format (unit mm)*
G04 Created by KiCad (PCBNEW 8.0.5-8.0.5-0~ubuntu22.04.1) date 2024-11-26 13:49:24*
%MOMM*%
%LPD*%
G01*
G04 APERTURE LIST*
G04 Aperture macros list*
%AMRoundRect*
0 Rectangle with rounded corners*
0 $1 Rounding radius*
0 $2 $3 $4 $5 $6 $7 $8 $9 X,Y pos of 4 corners*
0 Add a 4 corners polygon primitive as box body*
4,1,4,$2,$3,$4,$5,$6,$7,$8,$9,$2,$3,0*
0 Add four circle primitives for the rounded corners*
1,1,$1+$1,$2,$3*
1,1,$1+$1,$4,$5*
1,1,$1+$1,$6,$7*
1,1,$1+$1,$8,$9*
0 Add four rect primitives between the rounded corners*
20,1,$1+$1,$2,$3,$4,$5,0*
20,1,$1+$1,$4,$5,$6,$7,0*
20,1,$1+$1,$6,$7,$8,$9,0*
20,1,$1+$1,$8,$9,$2,$3,0*%
G04 Aperture macros list end*
%ADD10RoundRect,0.250000X0.350000X0.450000X-0.350000X0.450000X-0.350000X-0.450000X0.350000X-0.450000X0*%
%ADD11RoundRect,0.150000X0.150000X-0.825000X0.150000X0.825000X-0.150000X0.825000X-0.150000X-0.825000X0*%
%ADD12RoundRect,0.250000X0.412500X1.100000X-0.412500X1.100000X-0.412500X-1.100000X0.412500X-1.100000X0*%
%ADD13RoundRect,0.500000X-0.500000X-0.500000X0.500000X-0.500000X0.500000X0.500000X-0.500000X0.500000X0*%
%ADD14RoundRect,0.250000X0.450000X-0.325000X0.450000X0.325000X-0.450000X0.325000X-0.450000X-0.325000X0*%
%ADD15RoundRect,0.250000X0.550000X-1.137500X0.550000X1.137500X-0.550000X1.137500X-0.550000X-1.137500X0*%
%ADD16RoundRect,0.250000X0.450000X-0.350000X0.450000X0.350000X-0.450000X0.350000X-0.450000X-0.350000X0*%
%ADD17R,2.000000X2.000000*%
%ADD18C,2.000000*%
%ADD19R,2.000000X3.200000*%
%ADD20RoundRect,0.250000X0.400000X1.075000X-0.400000X1.075000X-0.400000X-1.075000X0.400000X-1.075000X0*%
%ADD21RoundRect,0.250000X-1.075000X0.400000X-1.075000X-0.400000X1.075000X-0.400000X1.075000X0.400000X0*%
%ADD22RoundRect,0.250000X0.600000X-0.600000X0.600000X0.600000X-0.600000X0.600000X-0.600000X-0.600000X0*%
%ADD23C,1.700000*%
%ADD24RoundRect,0.250000X-0.350000X-0.450000X0.350000X-0.450000X0.350000X0.450000X-0.350000X0.450000X0*%
%ADD25RoundRect,0.150000X0.587500X0.150000X-0.587500X0.150000X-0.587500X-0.150000X0.587500X-0.150000X0*%
%ADD26R,1.700000X1.700000*%
%ADD27O,1.700000X1.700000*%
%ADD28RoundRect,0.250000X-1.100000X0.325000X-1.100000X-0.325000X1.100000X-0.325000X1.100000X0.325000X0*%
%ADD29RoundRect,0.150000X0.150000X-0.587500X0.150000X0.587500X-0.150000X0.587500X-0.150000X-0.587500X0*%
%ADD30RoundRect,0.250000X-0.450000X0.350000X-0.450000X-0.350000X0.450000X-0.350000X0.450000X0.350000X0*%
%ADD31R,1.500000X0.900000*%
%ADD32R,0.900000X1.500000*%
%ADD33C,0.600000*%
%ADD34R,3.900000X3.900000*%
%ADD35R,2.500000X1.900000*%
%ADD36RoundRect,0.250000X0.325000X0.650000X-0.325000X0.650000X-0.325000X-0.650000X0.325000X-0.650000X0*%
%ADD37RoundRect,0.250000X-0.250000X0.525000X-0.250000X-0.525000X0.250000X-0.525000X0.250000X0.525000X0*%
%ADD38C,0.650000*%
%ADD39RoundRect,0.150000X-0.425000X0.150000X-0.425000X-0.150000X0.425000X-0.150000X0.425000X0.150000X0*%
%ADD40RoundRect,0.075000X-0.500000X0.075000X-0.500000X-0.075000X0.500000X-0.075000X0.500000X0.075000X0*%
%ADD41O,2.100000X1.000000*%
%ADD42O,1.800000X1.000000*%
%ADD43RoundRect,0.150000X0.512500X0.150000X-0.512500X0.150000X-0.512500X-0.150000X0.512500X-0.150000X0*%
%ADD44RoundRect,0.250000X-0.325000X-0.450000X0.325000X-0.450000X0.325000X0.450000X-0.325000X0.450000X0*%
%ADD45RoundRect,0.150000X0.150000X-0.512500X0.150000X0.512500X-0.150000X0.512500X-0.150000X-0.512500X0*%
%ADD46RoundRect,0.225000X-0.375000X0.225000X-0.375000X-0.225000X0.375000X-0.225000X0.375000X0.225000X0*%
G04 APERTURE END LIST*
D10*
%TO.C,R16*%
X2893846Y12190246D03*
X893846Y12190246D03*
%TD*%
D11*
%TO.C,U3*%
X33272246Y8611846D03*
X34542246Y8611846D03*
X35812246Y8611846D03*
X37082246Y8611846D03*
X38352246Y8611846D03*
X39622246Y8611846D03*
X40892246Y8611846D03*
X42162246Y8611846D03*
X42162246Y13561846D03*
X40892246Y13561846D03*
X39622246Y13561846D03*
X38352246Y13561846D03*
X37082246Y13561846D03*
X35812246Y13561846D03*
X34542246Y13561846D03*
X33272246Y13561846D03*
%TD*%
D12*
%TO.C,C3*%
X15530746Y16914646D03*
X12405746Y16914646D03*
%TD*%
D13*
%TO.C,SW15*%
X50250246Y-19585154D03*
X50350246Y-30800154D03*
X43350246Y-30000154D03*
X44100246Y-22125154D03*
%TD*%
D14*
%TO.C,D22*%
X67054246Y6526446D03*
X67054246Y8576446D03*
%TD*%
D13*
%TO.C,SW6*%
X31155246Y-57684154D03*
X31255246Y-68899154D03*
X24255246Y-68099154D03*
X25005246Y-60224154D03*
%TD*%
D10*
%TO.C,R2*%
X11777246Y8354846D03*
X9777246Y8354846D03*
%TD*%
D13*
%TO.C,SW1*%
X12190246Y-76735154D03*
X12290246Y-87950154D03*
X5290246Y-87150154D03*
X6040246Y-79275154D03*
%TD*%
%TO.C,SW16*%
X69427246Y-19585154D03*
X69527246Y-30800154D03*
X62527246Y-30000154D03*
X63277246Y-22125154D03*
%TD*%
D10*
%TO.C,R14*%
X42146246Y23366246D03*
X40146246Y23366246D03*
%TD*%
%TO.C,R9*%
X19346446Y8380246D03*
X17346446Y8380246D03*
%TD*%
D15*
%TO.C,C6*%
X32510246Y18911046D03*
X32510246Y23036046D03*
%TD*%
D10*
%TO.C,R17*%
X2944646Y9497846D03*
X944646Y9497846D03*
%TD*%
D16*
%TO.C,R5*%
X42111446Y15695446D03*
X42111446Y17695446D03*
%TD*%
D13*
%TO.C,SW18*%
X31200246Y-662154D03*
X31300246Y-11877154D03*
X24300246Y-11077154D03*
X25050246Y-3202154D03*
%TD*%
%TO.C,SW17*%
X12277246Y-662154D03*
X12377246Y-11877154D03*
X5377246Y-11077154D03*
X6127246Y-3202154D03*
%TD*%
D10*
%TO.C,R4*%
X14866646Y10793246D03*
X12866646Y10793246D03*
%TD*%
D17*
%TO.C,SW21*%
X67360246Y11395846D03*
D18*
X72360246Y11395846D03*
X69860246Y11395846D03*
D19*
X64260246Y18895846D03*
X75460246Y18895846D03*
D18*
X72360246Y25895846D03*
X67360246Y25895846D03*
%TD*%
D20*
%TO.C,C5*%
X4393046Y26515846D03*
X1293046Y26515846D03*
%TD*%
D21*
%TO.C,C2*%
X24255246Y16788846D03*
X24255246Y13688846D03*
%TD*%
D22*
%TO.C,J1*%
X10767846Y20673846D03*
D23*
X10767846Y23213846D03*
X13307846Y20673846D03*
X13307846Y23213846D03*
X15847846Y20673846D03*
X15847846Y23213846D03*
X18387846Y20673846D03*
X18387846Y23213846D03*
X20927846Y20673846D03*
X20927846Y23213846D03*
X23467846Y20673846D03*
X23467846Y23213846D03*
X26007846Y20673846D03*
X26007846Y23213846D03*
X28547846Y20673846D03*
X28547846Y23213846D03*
%TD*%
D13*
%TO.C,SW14*%
X31200246Y-19585154D03*
X31300246Y-30800154D03*
X24300246Y-30000154D03*
X25050246Y-22125154D03*
%TD*%
%TO.C,SW10*%
X31200246Y-38634154D03*
X31300246Y-49849154D03*
X24300246Y-49049154D03*
X25050246Y-41174154D03*
%TD*%
D24*
%TO.C,R15*%
X23144246Y10615446D03*
X25144246Y10615446D03*
%TD*%
D16*
%TO.C,R12*%
X65022246Y6558446D03*
X65022246Y8558446D03*
%TD*%
D25*
%TO.C,Q6*%
X28875746Y8420846D03*
X28875746Y10320846D03*
X27000746Y9370846D03*
%TD*%
D26*
%TO.C,IPC1*%
X9853446Y5535446D03*
D27*
X12393446Y5535446D03*
X14933446Y5535446D03*
X17473446Y5535446D03*
X20013446Y5535446D03*
X22553446Y5535446D03*
X25093446Y5535446D03*
X27633446Y5535446D03*
X30173446Y5535446D03*
X32713446Y5535446D03*
X35253446Y5535446D03*
X37793446Y5535446D03*
X40333446Y5535446D03*
X42873446Y5535446D03*
X45413446Y5535446D03*
%TD*%
D28*
%TO.C,C1*%
X9904246Y13462046D03*
X9904246Y10512046D03*
%TD*%
D29*
%TO.C,Q7*%
X5171946Y4801146D03*
X7071946Y4801146D03*
X6121946Y6676146D03*
%TD*%
D30*
%TO.C,R8*%
X21308846Y10253246D03*
X21308846Y8253246D03*
%TD*%
D31*
%TO.C,U4*%
X44220246Y26187846D03*
X44220246Y24917846D03*
X44220246Y23647846D03*
X44220246Y22377846D03*
X44220246Y21107846D03*
X44220246Y19837846D03*
X44220246Y18567846D03*
X44220246Y17297846D03*
X44220246Y16027846D03*
X44220246Y14757846D03*
X44220246Y13487846D03*
X44220246Y12217846D03*
X44220246Y10947846D03*
X44220246Y9677846D03*
D32*
X45985246Y8427846D03*
X47255246Y8427846D03*
X48525246Y8427846D03*
X49795246Y8427846D03*
X51065246Y8427846D03*
X52335246Y8427846D03*
X53605246Y8427846D03*
X54875246Y8427846D03*
X56145246Y8427846D03*
X57415246Y8427846D03*
X58685246Y8427846D03*
X59955246Y8427846D03*
D31*
X61720246Y9677846D03*
X61720246Y10947846D03*
X61720246Y12217846D03*
X61720246Y13487846D03*
X61720246Y14757846D03*
X61720246Y16027846D03*
X61720246Y17297846D03*
X61720246Y18567846D03*
X61720246Y19837846D03*
X61720246Y21107846D03*
X61720246Y22377846D03*
X61720246Y23647846D03*
X61720246Y24917846D03*
X61720246Y26187846D03*
D33*
X50070246Y19167846D03*
X50070246Y17767846D03*
X50770246Y19867846D03*
X50770246Y18467846D03*
X50770246Y17067846D03*
X51470246Y19167846D03*
D34*
X51470246Y18467846D03*
D33*
X51470246Y17767846D03*
X52170246Y19867846D03*
X52170246Y18467846D03*
X52170246Y17067846D03*
X52870246Y19167846D03*
X52870246Y17767846D03*
%TD*%
D35*
%TO.C,L1*%
X19556246Y14069846D03*
X19556246Y18169846D03*
%TD*%
D10*
%TO.C,R11*%
X7110246Y11377446D03*
X5110246Y11377446D03*
%TD*%
D13*
%TO.C,SW3*%
X50290246Y-76735154D03*
X50390246Y-87950154D03*
X43390246Y-87150154D03*
X44140246Y-79275154D03*
%TD*%
%TO.C,SW20*%
X69340246Y-662154D03*
X69440246Y-11877154D03*
X62440246Y-11077154D03*
X63190246Y-3202154D03*
%TD*%
D24*
%TO.C,R3*%
X13485646Y8354846D03*
X15485646Y8354846D03*
%TD*%
D13*
%TO.C,SW2*%
X31167246Y-76735154D03*
X31267246Y-87950154D03*
X24267246Y-87150154D03*
X25017246Y-79275154D03*
%TD*%
%TO.C,SW9*%
X12217246Y-38600154D03*
X12317246Y-49815154D03*
X5317246Y-49015154D03*
X6067246Y-41140154D03*
%TD*%
D24*
%TO.C,R10*%
X23128246Y8431046D03*
X25128246Y8431046D03*
%TD*%
D13*
%TO.C,SW4*%
X69394246Y-76735154D03*
X69494246Y-87950154D03*
X62494246Y-87150154D03*
X63244246Y-79275154D03*
%TD*%
%TO.C,SW11*%
X50332246Y-38634154D03*
X50432246Y-49849154D03*
X43432246Y-49049154D03*
X44182246Y-41174154D03*
%TD*%
%TO.C,SW13*%
X12277246Y-19585154D03*
X12377246Y-30800154D03*
X5377246Y-30000154D03*
X6127246Y-22125154D03*
%TD*%
D36*
%TO.C,C7*%
X37590246Y25550646D03*
X34640246Y25550646D03*
%TD*%
D13*
%TO.C,SW5*%
X12190246Y-57685154D03*
X12290246Y-68900154D03*
X5290246Y-68100154D03*
X6040246Y-60225154D03*
%TD*%
%TO.C,SW19*%
X50250246Y-662154D03*
X50350246Y-11877154D03*
X43350246Y-11077154D03*
X44100246Y-3202154D03*
%TD*%
D37*
%TO.C,SW22*%
X39749246Y21224846D03*
X39749246Y15974846D03*
X36549246Y21224846D03*
X36549246Y15974846D03*
%TD*%
D38*
%TO.C,J2*%
X5594246Y22037846D03*
X5594246Y16257846D03*
D39*
X6669246Y22347846D03*
X6669246Y21547846D03*
D40*
X6669246Y20397846D03*
X6669246Y19397846D03*
X6669246Y18897846D03*
X6669246Y17897846D03*
D39*
X6669246Y16747846D03*
X6669246Y15947846D03*
X6669246Y15947846D03*
X6669246Y16747846D03*
D40*
X6669246Y17397846D03*
X6669246Y18397846D03*
X6669246Y19897846D03*
X6669246Y20897846D03*
D39*
X6669246Y21547846D03*
X6669246Y22347846D03*
D41*
X6094246Y23467846D03*
D42*
X1914246Y23467846D03*
D41*
X6094246Y14827846D03*
D42*
X1914246Y14827846D03*
%TD*%
D13*
%TO.C,SW8*%
X69382246Y-57684154D03*
X69482246Y-68899154D03*
X62482246Y-68099154D03*
X63232246Y-60224154D03*
%TD*%
D29*
%TO.C,Q3*%
X26988246Y12164846D03*
X28888246Y12164846D03*
X27938246Y14039846D03*
%TD*%
D43*
%TO.C,U2*%
X19429246Y10158246D03*
X19429246Y11108246D03*
X19429246Y12058246D03*
X17154246Y12058246D03*
X17154246Y10158246D03*
%TD*%
D13*
%TO.C,SW7*%
X50332246Y-57684154D03*
X50432246Y-68899154D03*
X43432246Y-68099154D03*
X44182246Y-60224154D03*
%TD*%
D44*
%TO.C,D21*%
X4976646Y9396246D03*
X7026646Y9396246D03*
%TD*%
D45*
%TO.C,U6*%
X26988246Y15980346D03*
X28888246Y15980346D03*
X27938246Y18255346D03*
%TD*%
D13*
%TO.C,SW12*%
X69427246Y-38635154D03*
X69527246Y-49850154D03*
X62527246Y-49050154D03*
X63277246Y-41175154D03*
%TD*%
D16*
%TO.C,R6*%
X42060646Y19411446D03*
X42060646Y21411446D03*
%TD*%
D10*
%TO.C,C8*%
X42162246Y25398246D03*
X40162246Y25398246D03*
%TD*%
D29*
%TO.C,Q1*%
X8700246Y15649246D03*
X10600246Y15649246D03*
X9650246Y17524246D03*
%TD*%
D14*
%TO.C,D23*%
X69086246Y6577246D03*
X69086246Y8627246D03*
%TD*%
D46*
%TO.C,D28*%
X30986246Y16227846D03*
X30986246Y12927846D03*
%TD*%
D14*
%TO.C,D24*%
X30833846Y8481846D03*
X30833846Y10531846D03*
%TD*%
D43*
%TO.C,U1*%
X15258146Y12496146D03*
X15258146Y13446146D03*
X15258146Y14396146D03*
X12983146Y14396146D03*
X12983146Y12496146D03*
%TD*%
M02*
