%TF.GenerationSoftware,KiCad,Pcbnew,8.0.5-8.0.5-0~ubuntu22.04.1*%
%TF.CreationDate,2024-11-26T13:49:20+00:00*%
%TF.ProjectId,numcalcium,6e756d63-616c-4636-9975-6d2e6b696361,rev?*%
%TF.SameCoordinates,Original*%
%TF.FileFunction,Drillmap*%
%TF.FilePolarity,Positive*%
%FSLAX45Y45*%
G04 Gerber Fmt 4.5, Leading zero omitted, Abs format (unit mm)*
G04 Created by KiCad (PCBNEW 8.0.5-8.0.5-0~ubuntu22.04.1) date 2024-11-26 13:49:20*
%MOMM*%
%LPD*%
G01*
G04 APERTURE LIST*
%ADD10C,0.100000*%
%ADD11C,0.200000*%
%ADD12C,0.150000*%
G04 APERTURE END LIST*
D10*
X7557255Y646563D02*
G75*
G02*
X7327581Y646563I-114837J0D01*
G01*
X7327581Y646563D02*
G75*
G02*
X7557255Y646563I114837J0D01*
G01*
X7703252Y-8789360D02*
G75*
G02*
X7316997Y-9175613I-386262J8D01*
G01*
X-49003Y-8789360D02*
X-50975Y3007185D01*
X344062Y646909D02*
G75*
G02*
X111179Y646909I-116441J0D01*
G01*
X111179Y646909D02*
G75*
G02*
X344062Y646909I116441J0D01*
G01*
X346866Y3145348D02*
G75*
G02*
X118034Y3145348I-114416J0D01*
G01*
X118034Y3145348D02*
G75*
G02*
X346866Y3145348I114416J0D01*
G01*
X7315025Y3393440D02*
X335280Y3393440D01*
X7701280Y3007185D02*
X7703252Y-8789360D01*
X7316997Y-9175615D02*
X337252Y-9175615D01*
X-50975Y3007185D02*
G75*
G02*
X335280Y3393440I386255J0D01*
G01*
X337252Y-9175615D02*
G75*
G02*
X-49003Y-8789360I1J386256D01*
G01*
X7555016Y3142322D02*
G75*
G02*
X7330364Y3142322I-112326J0D01*
G01*
X7330364Y3142322D02*
G75*
G02*
X7555016Y3142322I112326J0D01*
G01*
X7315025Y3393440D02*
G75*
G02*
X7701272Y3007185I-4J-386252D01*
G01*
X5050025Y-2530015D02*
G75*
G02*
X4500025Y-2530015I-275000J0D01*
G01*
X4500025Y-2530015D02*
G75*
G02*
X5050025Y-2530015I275000J0D01*
G01*
X3140525Y-6339915D02*
G75*
G02*
X2590525Y-6339915I-275000J0D01*
G01*
X2590525Y-6339915D02*
G75*
G02*
X3140525Y-6339915I275000J0D01*
G01*
X1244025Y-8245015D02*
G75*
G02*
X694025Y-8245015I-275000J0D01*
G01*
X694025Y-8245015D02*
G75*
G02*
X1244025Y-8245015I275000J0D01*
G01*
X6967725Y-2530015D02*
G75*
G02*
X6417725Y-2530015I-275000J0D01*
G01*
X6417725Y-2530015D02*
G75*
G02*
X6967725Y-2530015I275000J0D01*
G01*
X3145025Y-637715D02*
G75*
G02*
X2595025Y-637715I-275000J0D01*
G01*
X2595025Y-637715D02*
G75*
G02*
X3145025Y-637715I275000J0D01*
G01*
X1252725Y-637715D02*
G75*
G02*
X702725Y-637715I-275000J0D01*
G01*
X702725Y-637715D02*
G75*
G02*
X1252725Y-637715I275000J0D01*
G01*
X3145025Y-2530015D02*
G75*
G02*
X2595025Y-2530015I-275000J0D01*
G01*
X2595025Y-2530015D02*
G75*
G02*
X3145025Y-2530015I275000J0D01*
G01*
X3145025Y-4434915D02*
G75*
G02*
X2595025Y-4434915I-275000J0D01*
G01*
X2595025Y-4434915D02*
G75*
G02*
X3145025Y-4434915I275000J0D01*
G01*
X5054025Y-8245015D02*
G75*
G02*
X4504025Y-8245015I-275000J0D01*
G01*
X4504025Y-8245015D02*
G75*
G02*
X5054025Y-8245015I275000J0D01*
G01*
X6959025Y-637715D02*
G75*
G02*
X6409025Y-637715I-275000J0D01*
G01*
X6409025Y-637715D02*
G75*
G02*
X6959025Y-637715I275000J0D01*
G01*
X3141725Y-8245015D02*
G75*
G02*
X2591725Y-8245015I-275000J0D01*
G01*
X2591725Y-8245015D02*
G75*
G02*
X3141725Y-8245015I275000J0D01*
G01*
X1246725Y-4431515D02*
G75*
G02*
X696725Y-4431515I-275000J0D01*
G01*
X696725Y-4431515D02*
G75*
G02*
X1246725Y-4431515I275000J0D01*
G01*
X6964425Y-8245015D02*
G75*
G02*
X6414425Y-8245015I-275000J0D01*
G01*
X6414425Y-8245015D02*
G75*
G02*
X6964425Y-8245015I275000J0D01*
G01*
X5058225Y-4434915D02*
G75*
G02*
X4508225Y-4434915I-275000J0D01*
G01*
X4508225Y-4434915D02*
G75*
G02*
X5058225Y-4434915I275000J0D01*
G01*
X1252725Y-2530015D02*
G75*
G02*
X702725Y-2530015I-275000J0D01*
G01*
X702725Y-2530015D02*
G75*
G02*
X1252725Y-2530015I275000J0D01*
G01*
X1244025Y-6340015D02*
G75*
G02*
X694025Y-6340015I-275000J0D01*
G01*
X694025Y-6340015D02*
G75*
G02*
X1244025Y-6340015I275000J0D01*
G01*
X5050025Y-637715D02*
G75*
G02*
X4500025Y-637715I-275000J0D01*
G01*
X4500025Y-637715D02*
G75*
G02*
X5050025Y-637715I275000J0D01*
G01*
X6963225Y-6339915D02*
G75*
G02*
X6413225Y-6339915I-275000J0D01*
G01*
X6413225Y-6339915D02*
G75*
G02*
X6963225Y-6339915I275000J0D01*
G01*
X5058225Y-6339915D02*
G75*
G02*
X4508225Y-6339915I-275000J0D01*
G01*
X4508225Y-6339915D02*
G75*
G02*
X5058225Y-6339915I275000J0D01*
G01*
X6967725Y-4435015D02*
G75*
G02*
X6417725Y-4435015I-275000J0D01*
G01*
X6417725Y-4435015D02*
G75*
G02*
X6967725Y-4435015I275000J0D01*
G01*
D11*
D10*
X4997025Y1926785D02*
X5017025Y1906785D01*
X5017025Y1926785D02*
X4997025Y1906785D01*
X4997025Y1786785D02*
X5017025Y1766785D01*
X5017025Y1786785D02*
X4997025Y1766785D01*
X5067025Y1996785D02*
X5087025Y1976785D01*
X5087025Y1996785D02*
X5067025Y1976785D01*
X5067025Y1856785D02*
X5087025Y1836785D01*
X5087025Y1856785D02*
X5067025Y1836785D01*
X5067025Y1716785D02*
X5087025Y1696785D01*
X5087025Y1716785D02*
X5067025Y1696785D01*
X5137025Y1926785D02*
X5157025Y1906785D01*
X5157025Y1926785D02*
X5137025Y1906785D01*
X5137025Y1786785D02*
X5157025Y1766785D01*
X5157025Y1786785D02*
X5137025Y1766785D01*
X5207025Y1996785D02*
X5227025Y1976785D01*
X5227025Y1996785D02*
X5207025Y1976785D01*
X5207025Y1856785D02*
X5227025Y1836785D01*
X5227025Y1856785D02*
X5207025Y1836785D01*
X5207025Y1716785D02*
X5227025Y1696785D01*
X5227025Y1716785D02*
X5207025Y1696785D01*
X5277025Y1926785D02*
X5297025Y1906785D01*
X5297025Y1926785D02*
X5277025Y1906785D01*
X5277025Y1786785D02*
X5297025Y1766785D01*
X5297025Y1786785D02*
X5277025Y1766785D01*
X96025Y-421815D02*
G75*
G02*
X56025Y-421815I-20000J0D01*
G01*
X56025Y-421815D02*
G75*
G02*
X96025Y-421815I20000J0D01*
G01*
X96025Y-1056815D02*
G75*
G02*
X56025Y-1056815I-20000J0D01*
G01*
X56025Y-1056815D02*
G75*
G02*
X96025Y-1056815I20000J0D01*
G01*
X96025Y-1691815D02*
G75*
G02*
X56025Y-1691815I-20000J0D01*
G01*
X56025Y-1691815D02*
G75*
G02*
X96025Y-1691815I20000J0D01*
G01*
X96025Y-2326815D02*
G75*
G02*
X56025Y-2326815I-20000J0D01*
G01*
X56025Y-2326815D02*
G75*
G02*
X96025Y-2326815I20000J0D01*
G01*
X96025Y-2961815D02*
G75*
G02*
X56025Y-2961815I-20000J0D01*
G01*
X56025Y-2961815D02*
G75*
G02*
X96025Y-2961815I20000J0D01*
G01*
X96025Y-3596815D02*
G75*
G02*
X56025Y-3596815I-20000J0D01*
G01*
X56025Y-3596815D02*
G75*
G02*
X96025Y-3596815I20000J0D01*
G01*
X96025Y-4231815D02*
G75*
G02*
X56025Y-4231815I-20000J0D01*
G01*
X56025Y-4231815D02*
G75*
G02*
X96025Y-4231815I20000J0D01*
G01*
X96025Y-4866815D02*
G75*
G02*
X56025Y-4866815I-20000J0D01*
G01*
X56025Y-4866815D02*
G75*
G02*
X96025Y-4866815I20000J0D01*
G01*
X96025Y-5501815D02*
G75*
G02*
X56025Y-5501815I-20000J0D01*
G01*
X56025Y-5501815D02*
G75*
G02*
X96025Y-5501815I20000J0D01*
G01*
X96025Y-6136815D02*
G75*
G02*
X56025Y-6136815I-20000J0D01*
G01*
X56025Y-6136815D02*
G75*
G02*
X96025Y-6136815I20000J0D01*
G01*
X96025Y-6771815D02*
G75*
G02*
X56025Y-6771815I-20000J0D01*
G01*
X56025Y-6771815D02*
G75*
G02*
X96025Y-6771815I20000J0D01*
G01*
X96025Y-7406815D02*
G75*
G02*
X56025Y-7406815I-20000J0D01*
G01*
X56025Y-7406815D02*
G75*
G02*
X96025Y-7406815I20000J0D01*
G01*
X96025Y-8041815D02*
G75*
G02*
X56025Y-8041815I-20000J0D01*
G01*
X56025Y-8041815D02*
G75*
G02*
X96025Y-8041815I20000J0D01*
G01*
X96025Y-8676815D02*
G75*
G02*
X56025Y-8676815I-20000J0D01*
G01*
X56025Y-8676815D02*
G75*
G02*
X96025Y-8676815I20000J0D01*
G01*
X116345Y1224105D02*
G75*
G02*
X76345Y1224105I-20000J0D01*
G01*
X76345Y1224105D02*
G75*
G02*
X116345Y1224105I20000J0D01*
G01*
X121425Y2880185D02*
G75*
G02*
X81425Y2880185I-20000J0D01*
G01*
X81425Y2880185D02*
G75*
G02*
X121425Y2880185I20000J0D01*
G01*
X231145Y1092025D02*
G75*
G02*
X191145Y1092025I-20000J0D01*
G01*
X191145Y1092025D02*
G75*
G02*
X231145Y1092025I20000J0D01*
G01*
X299225Y2753185D02*
G75*
G02*
X259225Y2753185I-20000J0D01*
G01*
X259225Y2753185D02*
G75*
G02*
X299225Y2753185I20000J0D01*
G01*
X299225Y2651585D02*
G75*
G02*
X259225Y2651585I-20000J0D01*
G01*
X259225Y2651585D02*
G75*
G02*
X299225Y2651585I20000J0D01*
G01*
X318945Y1598825D02*
G75*
G02*
X278945Y1598825I-20000J0D01*
G01*
X278945Y1598825D02*
G75*
G02*
X318945Y1598825I20000J0D01*
G01*
X426225Y2270585D02*
G75*
G02*
X386225Y2270585I-20000J0D01*
G01*
X386225Y2270585D02*
G75*
G02*
X426225Y2270585I20000J0D01*
G01*
X438925Y35385D02*
G75*
G02*
X398925Y35385I-20000J0D01*
G01*
X398925Y35385D02*
G75*
G02*
X438925Y35385I20000J0D01*
G01*
X527825Y3286585D02*
G75*
G02*
X487825Y3286585I-20000J0D01*
G01*
X487825Y3286585D02*
G75*
G02*
X527825Y3286585I20000J0D01*
G01*
X527825Y2930985D02*
G75*
G02*
X487825Y2930985I-20000J0D01*
G01*
X487825Y2930985D02*
G75*
G02*
X527825Y2930985I20000J0D01*
G01*
X558305Y1346025D02*
G75*
G02*
X518305Y1346025I-20000J0D01*
G01*
X518305Y1346025D02*
G75*
G02*
X558305Y1346025I20000J0D01*
G01*
X573545Y345265D02*
G75*
G02*
X533545Y345265I-20000J0D01*
G01*
X533545Y345265D02*
G75*
G02*
X573545Y345265I20000J0D01*
G01*
X604025Y2499185D02*
G75*
G02*
X564025Y2499185I-20000J0D01*
G01*
X564025Y2499185D02*
G75*
G02*
X604025Y2499185I20000J0D01*
G01*
X619265Y-3723815D02*
G75*
G02*
X579265Y-3723815I-20000J0D01*
G01*
X579265Y-3723815D02*
G75*
G02*
X619265Y-3723815I20000J0D01*
G01*
X634505Y-1798495D02*
G75*
G02*
X594505Y-1798495I-20000J0D01*
G01*
X594505Y-1798495D02*
G75*
G02*
X634505Y-1798495I20000J0D01*
G01*
X649745Y2646505D02*
G75*
G02*
X609745Y2646505I-20000J0D01*
G01*
X609745Y2646505D02*
G75*
G02*
X649745Y2646505I20000J0D01*
G01*
X664985Y1346025D02*
G75*
G02*
X624985Y1346025I-20000J0D01*
G01*
X624985Y1346025D02*
G75*
G02*
X664985Y1346025I20000J0D01*
G01*
X705625Y2499185D02*
G75*
G02*
X665625Y2499185I-20000J0D01*
G01*
X665625Y2499185D02*
G75*
G02*
X705625Y2499185I20000J0D01*
G01*
X743525Y736114D02*
G75*
G02*
X703525Y736114I-20000J0D01*
G01*
X703525Y736114D02*
G75*
G02*
X743525Y736114I20000J0D01*
G01*
X761505Y1346025D02*
G75*
G02*
X721505Y1346025I-20000J0D01*
G01*
X721505Y1346025D02*
G75*
G02*
X761505Y1346025I20000J0D01*
G01*
X776745Y2646505D02*
G75*
G02*
X736745Y2646505I-20000J0D01*
G01*
X736745Y2646505D02*
G75*
G02*
X776745Y2646505I20000J0D01*
G01*
X809765Y1607885D02*
G75*
G02*
X769765Y1607885I-20000J0D01*
G01*
X769765Y1607885D02*
G75*
G02*
X809765Y1607885I20000J0D01*
G01*
X878345Y1823545D02*
G75*
G02*
X838345Y1823545I-20000J0D01*
G01*
X838345Y1823545D02*
G75*
G02*
X878345Y1823545I20000J0D01*
G01*
X885965Y1706705D02*
G75*
G02*
X845965Y1706705I-20000J0D01*
G01*
X845965Y1706705D02*
G75*
G02*
X885965Y1706705I20000J0D01*
G01*
X921525Y708485D02*
G75*
G02*
X881525Y708485I-20000J0D01*
G01*
X881525Y708485D02*
G75*
G02*
X921525Y708485I20000J0D01*
G01*
X921525Y-8930815D02*
G75*
G02*
X881525Y-8930815I-20000J0D01*
G01*
X881525Y-8930815D02*
G75*
G02*
X921525Y-8930815I20000J0D01*
G01*
X931685Y1922605D02*
G75*
G02*
X891685Y1922605I-20000J0D01*
G01*
X891685Y1922605D02*
G75*
G02*
X931685Y1922605I20000J0D01*
G01*
X978535Y1845275D02*
G75*
G02*
X938535Y1845275I-20000J0D01*
G01*
X938535Y1845275D02*
G75*
G02*
X978535Y1845275I20000J0D01*
G01*
X978535Y1743675D02*
G75*
G02*
X938535Y1743675I-20000J0D01*
G01*
X938535Y1743675D02*
G75*
G02*
X978535Y1743675I20000J0D01*
G01*
X988581Y2965528D02*
G75*
G02*
X948581Y2965528I-20000J0D01*
G01*
X948581Y2965528D02*
G75*
G02*
X988581Y2965528I20000J0D01*
G01*
X990105Y825085D02*
G75*
G02*
X950105Y825085I-20000J0D01*
G01*
X950105Y825085D02*
G75*
G02*
X990105Y825085I20000J0D01*
G01*
X1023125Y251285D02*
G75*
G02*
X983125Y251285I-20000J0D01*
G01*
X983125Y251285D02*
G75*
G02*
X1023125Y251285I20000J0D01*
G01*
X1035825Y2651585D02*
G75*
G02*
X995825Y2651585I-20000J0D01*
G01*
X995825Y2651585D02*
G75*
G02*
X1035825Y2651585I20000J0D01*
G01*
X1061225Y1152985D02*
G75*
G02*
X1021225Y1152985I-20000J0D01*
G01*
X1021225Y1152985D02*
G75*
G02*
X1061225Y1152985I20000J0D01*
G01*
X1086625Y1874345D02*
G75*
G02*
X1046625Y1874345I-20000J0D01*
G01*
X1046625Y1874345D02*
G75*
G02*
X1086625Y1874345I20000J0D01*
G01*
X1152665Y1473025D02*
G75*
G02*
X1112665Y1473025I-20000J0D01*
G01*
X1112665Y1473025D02*
G75*
G02*
X1152665Y1473025I20000J0D01*
G01*
X1162825Y2651585D02*
G75*
G02*
X1122825Y2651585I-20000J0D01*
G01*
X1122825Y2651585D02*
G75*
G02*
X1162825Y2651585I20000J0D01*
G01*
X1200925Y251285D02*
G75*
G02*
X1160925Y251285I-20000J0D01*
G01*
X1160925Y251285D02*
G75*
G02*
X1200925Y251285I20000J0D01*
G01*
X1289825Y2651585D02*
G75*
G02*
X1249825Y2651585I-20000J0D01*
G01*
X1249825Y2651585D02*
G75*
G02*
X1289825Y2651585I20000J0D01*
G01*
X1366025Y251285D02*
G75*
G02*
X1326025Y251285I-20000J0D01*
G01*
X1326025Y251285D02*
G75*
G02*
X1366025Y251285I20000J0D01*
G01*
X1404125Y1711785D02*
G75*
G02*
X1364125Y1711785I-20000J0D01*
G01*
X1364125Y1711785D02*
G75*
G02*
X1404125Y1711785I20000J0D01*
G01*
X1496581Y2965528D02*
G75*
G02*
X1456581Y2965528I-20000J0D01*
G01*
X1456581Y2965528D02*
G75*
G02*
X1496581Y2965528I20000J0D01*
G01*
X1543825Y2651585D02*
G75*
G02*
X1503825Y2651585I-20000J0D01*
G01*
X1503825Y2651585D02*
G75*
G02*
X1543825Y2651585I20000J0D01*
G01*
X1543825Y251285D02*
G75*
G02*
X1503825Y251285I-20000J0D01*
G01*
X1503825Y251285D02*
G75*
G02*
X1543825Y251285I20000J0D01*
G01*
X1668844Y1339076D02*
G75*
G02*
X1628844Y1339076I-20000J0D01*
G01*
X1628844Y1339076D02*
G75*
G02*
X1668844Y1339076I20000J0D01*
G01*
X1683525Y175085D02*
G75*
G02*
X1643525Y175085I-20000J0D01*
G01*
X1643525Y175085D02*
G75*
G02*
X1683525Y175085I20000J0D01*
G01*
X1706385Y1508585D02*
G75*
G02*
X1666385Y1508585I-20000J0D01*
G01*
X1666385Y1508585D02*
G75*
G02*
X1706385Y1508585I20000J0D01*
G01*
X1729245Y1780365D02*
G75*
G02*
X1689245Y1780365I-20000J0D01*
G01*
X1689245Y1780365D02*
G75*
G02*
X1729245Y1780365I20000J0D01*
G01*
X1747025Y-2517315D02*
G75*
G02*
X1707025Y-2517315I-20000J0D01*
G01*
X1707025Y-2517315D02*
G75*
G02*
X1747025Y-2517315I20000J0D01*
G01*
X1797825Y2651585D02*
G75*
G02*
X1757825Y2651585I-20000J0D01*
G01*
X1757825Y2651585D02*
G75*
G02*
X1797825Y2651585I20000J0D01*
G01*
X1797825Y60785D02*
G75*
G02*
X1757825Y60785I-20000J0D01*
G01*
X1757825Y60785D02*
G75*
G02*
X1797825Y60785I20000J0D01*
G01*
X1810525Y-612315D02*
G75*
G02*
X1770525Y-612315I-20000J0D01*
G01*
X1770525Y-612315D02*
G75*
G02*
X1810525Y-612315I20000J0D01*
G01*
X1810525Y-4422315D02*
G75*
G02*
X1770525Y-4422315I-20000J0D01*
G01*
X1770525Y-4422315D02*
G75*
G02*
X1810525Y-4422315I20000J0D01*
G01*
X1810525Y-6327315D02*
G75*
G02*
X1770525Y-6327315I-20000J0D01*
G01*
X1770525Y-6327315D02*
G75*
G02*
X1810525Y-6327315I20000J0D01*
G01*
X1818339Y933997D02*
G75*
G02*
X1778339Y933997I-20000J0D01*
G01*
X1778339Y933997D02*
G75*
G02*
X1818339Y933997I20000J0D01*
G01*
X1937525Y-8232315D02*
G75*
G02*
X1897525Y-8232315I-20000J0D01*
G01*
X1897525Y-8232315D02*
G75*
G02*
X1937525Y-8232315I20000J0D01*
G01*
X2000625Y-1191315D02*
G75*
G02*
X1960625Y-1191315I-20000J0D01*
G01*
X1960625Y-1191315D02*
G75*
G02*
X2000625Y-1191315I20000J0D01*
G01*
X2001025Y2965528D02*
G75*
G02*
X1961025Y2965528I-20000J0D01*
G01*
X1961025Y2965528D02*
G75*
G02*
X2001025Y2965528I20000J0D01*
G01*
X2102625Y2651585D02*
G75*
G02*
X2062625Y2651585I-20000J0D01*
G01*
X2062625Y2651585D02*
G75*
G02*
X2102625Y2651585I20000J0D01*
G01*
X2102625Y1203785D02*
G75*
G02*
X2062625Y1203785I-20000J0D01*
G01*
X2062625Y1203785D02*
G75*
G02*
X2102625Y1203785I20000J0D01*
G01*
X2332825Y954865D02*
G75*
G02*
X2292825Y954865I-20000J0D01*
G01*
X2292825Y954865D02*
G75*
G02*
X2332825Y954865I20000J0D01*
G01*
X2332825Y843105D02*
G75*
G02*
X2292825Y843105I-20000J0D01*
G01*
X2292825Y843105D02*
G75*
G02*
X2332825Y843105I20000J0D01*
G01*
X2334425Y1061545D02*
G75*
G02*
X2294425Y1061545I-20000J0D01*
G01*
X2294425Y1061545D02*
G75*
G02*
X2334425Y1061545I20000J0D01*
G01*
X2366785Y1478105D02*
G75*
G02*
X2326785Y1478105I-20000J0D01*
G01*
X2326785Y1478105D02*
G75*
G02*
X2366785Y1478105I20000J0D01*
G01*
X2371865Y1213945D02*
G75*
G02*
X2331865Y1213945I-20000J0D01*
G01*
X2331865Y1213945D02*
G75*
G02*
X2371865Y1213945I20000J0D01*
G01*
X2382025Y-40815D02*
G75*
G02*
X2342025Y-40815I-20000J0D01*
G01*
X2342025Y-40815D02*
G75*
G02*
X2382025Y-40815I20000J0D01*
G01*
X2458225Y1600025D02*
G75*
G02*
X2418225Y1600025I-20000J0D01*
G01*
X2418225Y1600025D02*
G75*
G02*
X2458225Y1600025I20000J0D01*
G01*
X2509025Y1203785D02*
G75*
G02*
X2469025Y1203785I-20000J0D01*
G01*
X2469025Y1203785D02*
G75*
G02*
X2509025Y1203785I20000J0D01*
G01*
X2509025Y-8930815D02*
G75*
G02*
X2469025Y-8930815I-20000J0D01*
G01*
X2469025Y-8930815D02*
G75*
G02*
X2509025Y-8930815I20000J0D01*
G01*
X2512581Y2965528D02*
G75*
G02*
X2472581Y2965528I-20000J0D01*
G01*
X2472581Y2965528D02*
G75*
G02*
X2512581Y2965528I20000J0D01*
G01*
X2534425Y1521285D02*
G75*
G02*
X2494425Y1521285I-20000J0D01*
G01*
X2494425Y1521285D02*
G75*
G02*
X2534425Y1521285I20000J0D01*
G01*
X2712225Y1711785D02*
G75*
G02*
X2672225Y1711785I-20000J0D01*
G01*
X2672225Y1711785D02*
G75*
G02*
X2712225Y1711785I20000J0D01*
G01*
X2724925Y1838785D02*
G75*
G02*
X2684925Y1838785I-20000J0D01*
G01*
X2684925Y1838785D02*
G75*
G02*
X2724925Y1838785I20000J0D01*
G01*
X2818905Y1183465D02*
G75*
G02*
X2778905Y1183465I-20000J0D01*
G01*
X2778905Y1183465D02*
G75*
G02*
X2818905Y1183465I20000J0D01*
G01*
X2884945Y954865D02*
G75*
G02*
X2844945Y954865I-20000J0D01*
G01*
X2844945Y954865D02*
G75*
G02*
X2884945Y954865I20000J0D01*
G01*
X3017025Y1841325D02*
G75*
G02*
X2977025Y1841325I-20000J0D01*
G01*
X2977025Y1841325D02*
G75*
G02*
X3017025Y1841325I20000J0D01*
G01*
X3020581Y2965528D02*
G75*
G02*
X2980581Y2965528I-20000J0D01*
G01*
X2980581Y2965528D02*
G75*
G02*
X3020581Y2965528I20000J0D01*
G01*
X3042425Y2026745D02*
G75*
G02*
X3002425Y2026745I-20000J0D01*
G01*
X3002425Y2026745D02*
G75*
G02*
X3042425Y2026745I20000J0D01*
G01*
X3047505Y2209625D02*
G75*
G02*
X3007505Y2209625I-20000J0D01*
G01*
X3007505Y2209625D02*
G75*
G02*
X3047505Y2209625I20000J0D01*
G01*
X3083562Y2298596D02*
G75*
G02*
X3043562Y2298596I-20000J0D01*
G01*
X3043562Y2298596D02*
G75*
G02*
X3083562Y2298596I20000J0D01*
G01*
X3120559Y2387181D02*
G75*
G02*
X3080559Y2387181I-20000J0D01*
G01*
X3080559Y2387181D02*
G75*
G02*
X3120559Y2387181I20000J0D01*
G01*
X3224122Y2329545D02*
G75*
G02*
X3184122Y2329545I-20000J0D01*
G01*
X3184122Y2329545D02*
G75*
G02*
X3224122Y2329545I20000J0D01*
G01*
X3243085Y1076785D02*
G75*
G02*
X3203085Y1076785I-20000J0D01*
G01*
X3203085Y1076785D02*
G75*
G02*
X3243085Y1076785I20000J0D01*
G01*
X3245625Y1356185D02*
G75*
G02*
X3205625Y1356185I-20000J0D01*
G01*
X3205625Y1356185D02*
G75*
G02*
X3245625Y1356185I20000J0D01*
G01*
X3253245Y825965D02*
G75*
G02*
X3213245Y825965I-20000J0D01*
G01*
X3213245Y825965D02*
G75*
G02*
X3253245Y825965I20000J0D01*
G01*
X3476765Y1084325D02*
G75*
G02*
X3436765Y1084325I-20000J0D01*
G01*
X3436765Y1084325D02*
G75*
G02*
X3476765Y1084325I20000J0D01*
G01*
X3527565Y1732105D02*
G75*
G02*
X3487565Y1732105I-20000J0D01*
G01*
X3487565Y1732105D02*
G75*
G02*
X3527565Y1732105I20000J0D01*
G01*
X3573285Y1084325D02*
G75*
G02*
X3533285Y1084325I-20000J0D01*
G01*
X3533285Y1084325D02*
G75*
G02*
X3573285Y1084325I20000J0D01*
G01*
X3575825Y1970865D02*
G75*
G02*
X3535825Y1970865I-20000J0D01*
G01*
X3535825Y1970865D02*
G75*
G02*
X3575825Y1970865I20000J0D01*
G01*
X3636785Y1732105D02*
G75*
G02*
X3596785Y1732105I-20000J0D01*
G01*
X3596785Y1732105D02*
G75*
G02*
X3636785Y1732105I20000J0D01*
G01*
X3652025Y-6327315D02*
G75*
G02*
X3612025Y-6327315I-20000J0D01*
G01*
X3612025Y-6327315D02*
G75*
G02*
X3652025Y-6327315I20000J0D01*
G01*
X3685045Y1079685D02*
G75*
G02*
X3645045Y1079685I-20000J0D01*
G01*
X3645045Y1079685D02*
G75*
G02*
X3685045Y1079685I20000J0D01*
G01*
X3692665Y1970865D02*
G75*
G02*
X3652665Y1970865I-20000J0D01*
G01*
X3652665Y1970865D02*
G75*
G02*
X3692665Y1970865I20000J0D01*
G01*
X3702825Y2290905D02*
G75*
G02*
X3662825Y2290905I-20000J0D01*
G01*
X3662825Y2290905D02*
G75*
G02*
X3702825Y2290905I20000J0D01*
G01*
X3715525Y-2517315D02*
G75*
G02*
X3675525Y-2517315I-20000J0D01*
G01*
X3675525Y-2517315D02*
G75*
G02*
X3715525Y-2517315I20000J0D01*
G01*
X3715525Y-4485815D02*
G75*
G02*
X3675525Y-4485815I-20000J0D01*
G01*
X3675525Y-4485815D02*
G75*
G02*
X3715525Y-4485815I20000J0D01*
G01*
X3842525Y-612315D02*
G75*
G02*
X3802525Y-612315I-20000J0D01*
G01*
X3802525Y-612315D02*
G75*
G02*
X3842525Y-612315I20000J0D01*
G01*
X3842525Y-8232315D02*
G75*
G02*
X3802525Y-8232315I-20000J0D01*
G01*
X3802525Y-8232315D02*
G75*
G02*
X3842525Y-8232315I20000J0D01*
G01*
X3917121Y1044784D02*
G75*
G02*
X3877121Y1044784I-20000J0D01*
G01*
X3877121Y1044784D02*
G75*
G02*
X3917121Y1044784I20000J0D01*
G01*
X3994925Y1711785D02*
G75*
G02*
X3954925Y1711785I-20000J0D01*
G01*
X3954925Y1711785D02*
G75*
G02*
X3994925Y1711785I20000J0D01*
G01*
X4088905Y1107265D02*
G75*
G02*
X4048905Y1107265I-20000J0D01*
G01*
X4048905Y1107265D02*
G75*
G02*
X4088905Y1107265I20000J0D01*
G01*
X4160025Y-1945815D02*
G75*
G02*
X4120025Y-1945815I-20000J0D01*
G01*
X4120025Y-1945815D02*
G75*
G02*
X4160025Y-1945815I20000J0D01*
G01*
X4207135Y1127580D02*
G75*
G02*
X4167135Y1127580I-20000J0D01*
G01*
X4167135Y1127580D02*
G75*
G02*
X4207135Y1127580I20000J0D01*
G01*
X4223525Y-104315D02*
G75*
G02*
X4183525Y-104315I-20000J0D01*
G01*
X4183525Y-104315D02*
G75*
G02*
X4223525Y-104315I20000J0D01*
G01*
X4223525Y-1501315D02*
G75*
G02*
X4183525Y-1501315I-20000J0D01*
G01*
X4183525Y-1501315D02*
G75*
G02*
X4223525Y-1501315I20000J0D01*
G01*
X4281945Y2082625D02*
G75*
G02*
X4241945Y2082625I-20000J0D01*
G01*
X4241945Y2082625D02*
G75*
G02*
X4281945Y2082625I20000J0D01*
G01*
X4297253Y1160667D02*
G75*
G02*
X4257253Y1160667I-20000J0D01*
G01*
X4257253Y1160667D02*
G75*
G02*
X4297253Y1160667I20000J0D01*
G01*
X4350525Y-8930815D02*
G75*
G02*
X4310525Y-8930815I-20000J0D01*
G01*
X4310525Y-8930815D02*
G75*
G02*
X4350525Y-8930815I20000J0D01*
G01*
X4439425Y726265D02*
G75*
G02*
X4399425Y726265I-20000J0D01*
G01*
X4399425Y726265D02*
G75*
G02*
X4439425Y726265I20000J0D01*
G01*
X4586745Y1467945D02*
G75*
G02*
X4546745Y1467945I-20000J0D01*
G01*
X4546745Y1467945D02*
G75*
G02*
X4586745Y1467945I20000J0D01*
G01*
X4586745Y1356185D02*
G75*
G02*
X4546745Y1356185I-20000J0D01*
G01*
X4546745Y1356185D02*
G75*
G02*
X4586745Y1356185I20000J0D01*
G01*
X4599225Y1221785D02*
G75*
G02*
X4559225Y1221785I-20000J0D01*
G01*
X4559225Y1221785D02*
G75*
G02*
X4599225Y1221785I20000J0D01*
G01*
X4601985Y1630505D02*
G75*
G02*
X4561985Y1630505I-20000J0D01*
G01*
X4561985Y1630505D02*
G75*
G02*
X4601985Y1630505I20000J0D01*
G01*
X4617225Y2585545D02*
G75*
G02*
X4577225Y2585545I-20000J0D01*
G01*
X4577225Y2585545D02*
G75*
G02*
X4617225Y2585545I20000J0D01*
G01*
X4619942Y1734821D02*
G75*
G02*
X4579942Y1734821I-20000J0D01*
G01*
X4579942Y1734821D02*
G75*
G02*
X4619942Y1734821I20000J0D01*
G01*
X4690446Y1885771D02*
G75*
G02*
X4650446Y1885771I-20000J0D01*
G01*
X4650446Y1885771D02*
G75*
G02*
X4690446Y1885771I20000J0D01*
G01*
X4693602Y1457961D02*
G75*
G02*
X4653602Y1457961I-20000J0D01*
G01*
X4653602Y1457961D02*
G75*
G02*
X4693602Y1457961I20000J0D01*
G01*
X4718825Y2588085D02*
G75*
G02*
X4678825Y2588085I-20000J0D01*
G01*
X4678825Y2588085D02*
G75*
G02*
X4718825Y2588085I20000J0D01*
G01*
X4746616Y2217096D02*
G75*
G02*
X4706616Y2217096I-20000J0D01*
G01*
X4706616Y2217096D02*
G75*
G02*
X4746616Y2217096I20000J0D01*
G01*
X4751343Y2018622D02*
G75*
G02*
X4711343Y2018622I-20000J0D01*
G01*
X4711343Y2018622D02*
G75*
G02*
X4751343Y2018622I20000J0D01*
G01*
X4756942Y1666065D02*
G75*
G02*
X4716942Y1666065I-20000J0D01*
G01*
X4716942Y1666065D02*
G75*
G02*
X4756942Y1666065I20000J0D01*
G01*
X4787485Y1076785D02*
G75*
G02*
X4747485Y1076785I-20000J0D01*
G01*
X4747485Y1076785D02*
G75*
G02*
X4787485Y1076785I20000J0D01*
G01*
X4830585Y35385D02*
G75*
G02*
X4790585Y35385I-20000J0D01*
G01*
X4790585Y35385D02*
G75*
G02*
X4830585Y35385I20000J0D01*
G01*
X4942345Y502745D02*
G75*
G02*
X4902345Y502745I-20000J0D01*
G01*
X4902345Y502745D02*
G75*
G02*
X4942345Y502745I20000J0D01*
G01*
X4947425Y2275665D02*
G75*
G02*
X4907425Y2275665I-20000J0D01*
G01*
X4907425Y2275665D02*
G75*
G02*
X4947425Y2275665I20000J0D01*
G01*
X4972825Y2651585D02*
G75*
G02*
X4932825Y2651585I-20000J0D01*
G01*
X4932825Y2651585D02*
G75*
G02*
X4972825Y2651585I20000J0D01*
G01*
X4988065Y1076785D02*
G75*
G02*
X4948065Y1076785I-20000J0D01*
G01*
X4948065Y1076785D02*
G75*
G02*
X4988065Y1076785I20000J0D01*
G01*
X5028705Y695785D02*
G75*
G02*
X4988705Y695785I-20000J0D01*
G01*
X4988705Y695785D02*
G75*
G02*
X5028705Y695785I20000J0D01*
G01*
X5054105Y502745D02*
G75*
G02*
X5014105Y502745I-20000J0D01*
G01*
X5014105Y502745D02*
G75*
G02*
X5054105Y502745I20000J0D01*
G01*
X5056794Y2288285D02*
G75*
G02*
X5016794Y2288285I-20000J0D01*
G01*
X5016794Y2288285D02*
G75*
G02*
X5056794Y2288285I20000J0D01*
G01*
X5150625Y2651585D02*
G75*
G02*
X5110625Y2651585I-20000J0D01*
G01*
X5110625Y2651585D02*
G75*
G02*
X5150625Y2651585I20000J0D01*
G01*
X5155705Y690705D02*
G75*
G02*
X5115705Y690705I-20000J0D01*
G01*
X5115705Y690705D02*
G75*
G02*
X5155705Y690705I20000J0D01*
G01*
X5160785Y502745D02*
G75*
G02*
X5120785Y502745I-20000J0D01*
G01*
X5120785Y502745D02*
G75*
G02*
X5160785Y502745I20000J0D01*
G01*
X5181105Y990425D02*
G75*
G02*
X5141105Y990425I-20000J0D01*
G01*
X5141105Y990425D02*
G75*
G02*
X5181105Y990425I20000J0D01*
G01*
X5292865Y690705D02*
G75*
G02*
X5252865Y690705I-20000J0D01*
G01*
X5252865Y690705D02*
G75*
G02*
X5292865Y690705I20000J0D01*
G01*
X5315725Y2651585D02*
G75*
G02*
X5275725Y2651585I-20000J0D01*
G01*
X5275725Y2651585D02*
G75*
G02*
X5315725Y2651585I20000J0D01*
G01*
X5473325Y500325D02*
G75*
G02*
X5433325Y500325I-20000J0D01*
G01*
X5433325Y500325D02*
G75*
G02*
X5473325Y500325I20000J0D01*
G01*
X5480825Y2651585D02*
G75*
G02*
X5440825Y2651585I-20000J0D01*
G01*
X5440825Y2651585D02*
G75*
G02*
X5480825Y2651585I20000J0D01*
G01*
X5533673Y-318142D02*
G75*
G02*
X5493673Y-318142I-20000J0D01*
G01*
X5493673Y-318142D02*
G75*
G02*
X5533673Y-318142I20000J0D01*
G01*
X5580434Y601256D02*
G75*
G02*
X5540434Y601256I-20000J0D01*
G01*
X5540434Y601256D02*
G75*
G02*
X5580434Y601256I20000J0D01*
G01*
X5645925Y2651585D02*
G75*
G02*
X5605925Y2651585I-20000J0D01*
G01*
X5605925Y2651585D02*
G75*
G02*
X5645925Y2651585I20000J0D01*
G01*
X5658625Y-316315D02*
G75*
G02*
X5618625Y-316315I-20000J0D01*
G01*
X5618625Y-316315D02*
G75*
G02*
X5658625Y-316315I20000J0D01*
G01*
X5747525Y-2580815D02*
G75*
G02*
X5707525Y-2580815I-20000J0D01*
G01*
X5707525Y-2580815D02*
G75*
G02*
X5747525Y-2580815I20000J0D01*
G01*
X5747525Y-4422315D02*
G75*
G02*
X5707525Y-4422315I-20000J0D01*
G01*
X5707525Y-4422315D02*
G75*
G02*
X5747525Y-4422315I20000J0D01*
G01*
X5747525Y-6327315D02*
G75*
G02*
X5707525Y-6327315I-20000J0D01*
G01*
X5707525Y-6327315D02*
G75*
G02*
X5747525Y-6327315I20000J0D01*
G01*
X5747525Y-8930815D02*
G75*
G02*
X5707525Y-8930815I-20000J0D01*
G01*
X5707525Y-8930815D02*
G75*
G02*
X5747525Y-8930815I20000J0D01*
G01*
X5760225Y-316315D02*
G75*
G02*
X5720225Y-316315I-20000J0D01*
G01*
X5720225Y-316315D02*
G75*
G02*
X5760225Y-316315I20000J0D01*
G01*
X5821185Y-1966135D02*
G75*
G02*
X5781185Y-1966135I-20000J0D01*
G01*
X5781185Y-1966135D02*
G75*
G02*
X5821185Y-1966135I20000J0D01*
G01*
X5874525Y-929815D02*
G75*
G02*
X5834525Y-929815I-20000J0D01*
G01*
X5834525Y-929815D02*
G75*
G02*
X5874525Y-929815I20000J0D01*
G01*
X5874525Y-8232315D02*
G75*
G02*
X5834525Y-8232315I-20000J0D01*
G01*
X5834525Y-8232315D02*
G75*
G02*
X5874525Y-8232315I20000J0D01*
G01*
X5907545Y1442545D02*
G75*
G02*
X5867545Y1442545I-20000J0D01*
G01*
X5867545Y1442545D02*
G75*
G02*
X5907545Y1442545I20000J0D01*
G01*
X5963425Y1564465D02*
G75*
G02*
X5923425Y1564465I-20000J0D01*
G01*
X5923425Y1564465D02*
G75*
G02*
X5963425Y1564465I20000J0D01*
G01*
X5978665Y1005665D02*
G75*
G02*
X5938665Y1005665I-20000J0D01*
G01*
X5938665Y1005665D02*
G75*
G02*
X5978665Y1005665I20000J0D01*
G01*
X5993905Y1701625D02*
G75*
G02*
X5953905Y1701625I-20000J0D01*
G01*
X5953905Y1701625D02*
G75*
G02*
X5993905Y1701625I20000J0D01*
G01*
X6014225Y1828625D02*
G75*
G02*
X5974225Y1828625I-20000J0D01*
G01*
X5974225Y1828625D02*
G75*
G02*
X6014225Y1828625I20000J0D01*
G01*
X6024385Y2499185D02*
G75*
G02*
X5984385Y2499185I-20000J0D01*
G01*
X5984385Y2499185D02*
G75*
G02*
X6024385Y2499185I20000J0D01*
G01*
X6024385Y2377265D02*
G75*
G02*
X5984385Y2377265I-20000J0D01*
G01*
X5984385Y2377265D02*
G75*
G02*
X6024385Y2377265I20000J0D01*
G01*
X6024385Y1970865D02*
G75*
G02*
X5984385Y1970865I-20000J0D01*
G01*
X5984385Y1970865D02*
G75*
G02*
X6024385Y1970865I20000J0D01*
G01*
X6065025Y436705D02*
G75*
G02*
X6025025Y436705I-20000J0D01*
G01*
X6025025Y436705D02*
G75*
G02*
X6065025Y436705I20000J0D01*
G01*
X6151385Y-3866055D02*
G75*
G02*
X6111385Y-3866055I-20000J0D01*
G01*
X6111385Y-3866055D02*
G75*
G02*
X6151385Y-3866055I20000J0D01*
G01*
X6192025Y436705D02*
G75*
G02*
X6152025Y436705I-20000J0D01*
G01*
X6152025Y436705D02*
G75*
G02*
X6192025Y436705I20000J0D01*
G01*
X6319025Y436705D02*
G75*
G02*
X6279025Y436705I-20000J0D01*
G01*
X6279025Y436705D02*
G75*
G02*
X6319025Y436705I20000J0D01*
G01*
X6319025Y-8930815D02*
G75*
G02*
X6279025Y-8930815I-20000J0D01*
G01*
X6279025Y-8930815D02*
G75*
G02*
X6319025Y-8930815I20000J0D01*
G01*
X6344425Y2616025D02*
G75*
G02*
X6304425Y2616025I-20000J0D01*
G01*
X6304425Y2616025D02*
G75*
G02*
X6344425Y2616025I20000J0D01*
G01*
X6349505Y2326465D02*
G75*
G02*
X6309505Y2326465I-20000J0D01*
G01*
X6309505Y2326465D02*
G75*
G02*
X6349505Y2326465I20000J0D01*
G01*
X6362205Y2227405D02*
G75*
G02*
X6322205Y2227405I-20000J0D01*
G01*
X6322205Y2227405D02*
G75*
G02*
X6362205Y2227405I20000J0D01*
G01*
X6471425Y436705D02*
G75*
G02*
X6431425Y436705I-20000J0D01*
G01*
X6431425Y436705D02*
G75*
G02*
X6471425Y436705I20000J0D01*
G01*
X6506985Y1452705D02*
G75*
G02*
X6466985Y1452705I-20000J0D01*
G01*
X6466985Y1452705D02*
G75*
G02*
X6506985Y1452705I20000J0D01*
G01*
X6730505Y548465D02*
G75*
G02*
X6690505Y548465I-20000J0D01*
G01*
X6690505Y548465D02*
G75*
G02*
X6730505Y548465I20000J0D01*
G01*
X6776225Y2067385D02*
G75*
G02*
X6736225Y2067385I-20000J0D01*
G01*
X6736225Y2067385D02*
G75*
G02*
X6776225Y2067385I20000J0D01*
G01*
X6776225Y1711785D02*
G75*
G02*
X6736225Y1711785I-20000J0D01*
G01*
X6736225Y1711785D02*
G75*
G02*
X6776225Y1711785I20000J0D01*
G01*
X6857505Y548465D02*
G75*
G02*
X6817505Y548465I-20000J0D01*
G01*
X6817505Y548465D02*
G75*
G02*
X6857505Y548465I20000J0D01*
G01*
X6877825Y1965785D02*
G75*
G02*
X6837825Y1965785I-20000J0D01*
G01*
X6837825Y1965785D02*
G75*
G02*
X6877825Y1965785I20000J0D01*
G01*
X6877825Y1813385D02*
G75*
G02*
X6837825Y1813385I-20000J0D01*
G01*
X6837825Y1813385D02*
G75*
G02*
X6877825Y1813385I20000J0D01*
G01*
X6924098Y446311D02*
G75*
G02*
X6884098Y446311I-20000J0D01*
G01*
X6884098Y446311D02*
G75*
G02*
X6924098Y446311I20000J0D01*
G01*
X6979425Y2067385D02*
G75*
G02*
X6939425Y2067385I-20000J0D01*
G01*
X6939425Y2067385D02*
G75*
G02*
X6979425Y2067385I20000J0D01*
G01*
X6979425Y1711785D02*
G75*
G02*
X6939425Y1711785I-20000J0D01*
G01*
X6939425Y1711785D02*
G75*
G02*
X6979425Y1711785I20000J0D01*
G01*
X7025698Y547912D02*
G75*
G02*
X6985698Y547912I-20000J0D01*
G01*
X6985698Y547912D02*
G75*
G02*
X7025698Y547912I20000J0D01*
G01*
X7030225Y1965785D02*
G75*
G02*
X6990225Y1965785I-20000J0D01*
G01*
X6990225Y1965785D02*
G75*
G02*
X7030225Y1965785I20000J0D01*
G01*
X7030225Y1813385D02*
G75*
G02*
X6990225Y1813385I-20000J0D01*
G01*
X6990225Y1813385D02*
G75*
G02*
X7030225Y1813385I20000J0D01*
G01*
X7127298Y649512D02*
G75*
G02*
X7087298Y649512I-20000J0D01*
G01*
X7087298Y649512D02*
G75*
G02*
X7127298Y649512I20000J0D01*
G01*
X7147065Y1892125D02*
G75*
G02*
X7107065Y1892125I-20000J0D01*
G01*
X7107065Y1892125D02*
G75*
G02*
X7147065Y1892125I20000J0D01*
G01*
X7147065Y1892125D02*
G75*
G02*
X7107065Y1892125I-20000J0D01*
G01*
X7107065Y1892125D02*
G75*
G02*
X7147065Y1892125I20000J0D01*
G01*
X7147065Y1892125D02*
G75*
G02*
X7107065Y1892125I-20000J0D01*
G01*
X7107065Y1892125D02*
G75*
G02*
X7147065Y1892125I20000J0D01*
G01*
X7147065Y1892125D02*
G75*
G02*
X7107065Y1892125I-20000J0D01*
G01*
X7107065Y1892125D02*
G75*
G02*
X7147065Y1892125I20000J0D01*
G01*
X7147065Y1892125D02*
G75*
G02*
X7107065Y1892125I-20000J0D01*
G01*
X7107065Y1892125D02*
G75*
G02*
X7147065Y1892125I20000J0D01*
G01*
X7147065Y1892125D02*
G75*
G02*
X7107065Y1892125I-20000J0D01*
G01*
X7107065Y1892125D02*
G75*
G02*
X7147065Y1892125I20000J0D01*
G01*
X7147065Y1892125D02*
G75*
G02*
X7107065Y1892125I-20000J0D01*
G01*
X7107065Y1892125D02*
G75*
G02*
X7147065Y1892125I20000J0D01*
G01*
X7147065Y1892125D02*
G75*
G02*
X7107065Y1892125I-20000J0D01*
G01*
X7107065Y1892125D02*
G75*
G02*
X7147065Y1892125I20000J0D01*
G01*
X7147065Y1892125D02*
G75*
G02*
X7107065Y1892125I-20000J0D01*
G01*
X7107065Y1892125D02*
G75*
G02*
X7147065Y1892125I20000J0D01*
G01*
X7147065Y1892125D02*
G75*
G02*
X7107065Y1892125I-20000J0D01*
G01*
X7107065Y1892125D02*
G75*
G02*
X7147065Y1892125I20000J0D01*
G01*
X7147065Y1892125D02*
G75*
G02*
X7107065Y1892125I-20000J0D01*
G01*
X7107065Y1892125D02*
G75*
G02*
X7147065Y1892125I20000J0D01*
G01*
X7147065Y1892125D02*
G75*
G02*
X7107065Y1892125I-20000J0D01*
G01*
X7107065Y1892125D02*
G75*
G02*
X7147065Y1892125I20000J0D01*
G01*
X7147065Y1892125D02*
G75*
G02*
X7107065Y1892125I-20000J0D01*
G01*
X7107065Y1892125D02*
G75*
G02*
X7147065Y1892125I20000J0D01*
G01*
X7147065Y1892125D02*
G75*
G02*
X7107065Y1892125I-20000J0D01*
G01*
X7107065Y1892125D02*
G75*
G02*
X7147065Y1892125I20000J0D01*
G01*
X7147065Y1892125D02*
G75*
G02*
X7107065Y1892125I-20000J0D01*
G01*
X7107065Y1892125D02*
G75*
G02*
X7147065Y1892125I20000J0D01*
G01*
X7147065Y1892125D02*
G75*
G02*
X7107065Y1892125I-20000J0D01*
G01*
X7107065Y1892125D02*
G75*
G02*
X7147065Y1892125I20000J0D01*
G01*
X7147065Y1892125D02*
G75*
G02*
X7107065Y1892125I-20000J0D01*
G01*
X7107065Y1892125D02*
G75*
G02*
X7147065Y1892125I20000J0D01*
G01*
X7147065Y1892125D02*
G75*
G02*
X7107065Y1892125I-20000J0D01*
G01*
X7107065Y1892125D02*
G75*
G02*
X7147065Y1892125I20000J0D01*
G01*
X7228898Y751111D02*
G75*
G02*
X7188898Y751111I-20000J0D01*
G01*
X7188898Y751111D02*
G75*
G02*
X7228898Y751111I20000J0D01*
G01*
X7304545Y1579705D02*
G75*
G02*
X7264545Y1579705I-20000J0D01*
G01*
X7264545Y1579705D02*
G75*
G02*
X7304545Y1579705I20000J0D01*
G01*
X7343198Y865411D02*
G75*
G02*
X7303198Y865411I-20000J0D01*
G01*
X7303198Y865411D02*
G75*
G02*
X7343198Y865411I20000J0D01*
G01*
X7418845Y1465405D02*
G75*
G02*
X7378845Y1465405I-20000J0D01*
G01*
X7378845Y1465405D02*
G75*
G02*
X7418845Y1465405I20000J0D01*
G01*
X7432098Y954311D02*
G75*
G02*
X7392098Y954311I-20000J0D01*
G01*
X7392098Y954311D02*
G75*
G02*
X7432098Y954311I20000J0D01*
G01*
X7482345Y1076785D02*
G75*
G02*
X7442345Y1076785I-20000J0D01*
G01*
X7442345Y1076785D02*
G75*
G02*
X7482345Y1076785I20000J0D01*
G01*
X7487425Y1356185D02*
G75*
G02*
X7447425Y1356185I-20000J0D01*
G01*
X7447425Y1356185D02*
G75*
G02*
X7487425Y1356185I20000J0D01*
G01*
X7487425Y1203785D02*
G75*
G02*
X7447425Y1203785I-20000J0D01*
G01*
X7447425Y1203785D02*
G75*
G02*
X7487425Y1203785I20000J0D01*
G01*
X7639825Y2626185D02*
G75*
G02*
X7599825Y2626185I-20000J0D01*
G01*
X7599825Y2626185D02*
G75*
G02*
X7639825Y2626185I20000J0D01*
G01*
X7639825Y2473785D02*
G75*
G02*
X7599825Y2473785I-20000J0D01*
G01*
X7599825Y2473785D02*
G75*
G02*
X7639825Y2473785I20000J0D01*
G01*
X7639825Y2321385D02*
G75*
G02*
X7599825Y2321385I-20000J0D01*
G01*
X7599825Y2321385D02*
G75*
G02*
X7639825Y2321385I20000J0D01*
G01*
X7652525Y213185D02*
G75*
G02*
X7612525Y213185I-20000J0D01*
G01*
X7612525Y213185D02*
G75*
G02*
X7652525Y213185I20000J0D01*
G01*
X7652525Y-421815D02*
G75*
G02*
X7612525Y-421815I-20000J0D01*
G01*
X7612525Y-421815D02*
G75*
G02*
X7652525Y-421815I20000J0D01*
G01*
X7652525Y-1056815D02*
G75*
G02*
X7612525Y-1056815I-20000J0D01*
G01*
X7612525Y-1056815D02*
G75*
G02*
X7652525Y-1056815I20000J0D01*
G01*
X7652525Y-1691815D02*
G75*
G02*
X7612525Y-1691815I-20000J0D01*
G01*
X7612525Y-1691815D02*
G75*
G02*
X7652525Y-1691815I20000J0D01*
G01*
X7652525Y-2326815D02*
G75*
G02*
X7612525Y-2326815I-20000J0D01*
G01*
X7612525Y-2326815D02*
G75*
G02*
X7652525Y-2326815I20000J0D01*
G01*
X7652525Y-2961815D02*
G75*
G02*
X7612525Y-2961815I-20000J0D01*
G01*
X7612525Y-2961815D02*
G75*
G02*
X7652525Y-2961815I20000J0D01*
G01*
X7652525Y-3596815D02*
G75*
G02*
X7612525Y-3596815I-20000J0D01*
G01*
X7612525Y-3596815D02*
G75*
G02*
X7652525Y-3596815I20000J0D01*
G01*
X7652525Y-4231815D02*
G75*
G02*
X7612525Y-4231815I-20000J0D01*
G01*
X7612525Y-4231815D02*
G75*
G02*
X7652525Y-4231815I20000J0D01*
G01*
X7652525Y-4866815D02*
G75*
G02*
X7612525Y-4866815I-20000J0D01*
G01*
X7612525Y-4866815D02*
G75*
G02*
X7652525Y-4866815I20000J0D01*
G01*
X7652525Y-5501815D02*
G75*
G02*
X7612525Y-5501815I-20000J0D01*
G01*
X7612525Y-5501815D02*
G75*
G02*
X7652525Y-5501815I20000J0D01*
G01*
X7652525Y-6136815D02*
G75*
G02*
X7612525Y-6136815I-20000J0D01*
G01*
X7612525Y-6136815D02*
G75*
G02*
X7652525Y-6136815I20000J0D01*
G01*
X7652525Y-6771815D02*
G75*
G02*
X7612525Y-6771815I-20000J0D01*
G01*
X7612525Y-6771815D02*
G75*
G02*
X7652525Y-6771815I20000J0D01*
G01*
X7652525Y-7406815D02*
G75*
G02*
X7612525Y-7406815I-20000J0D01*
G01*
X7612525Y-7406815D02*
G75*
G02*
X7652525Y-7406815I20000J0D01*
G01*
X7652525Y-8041815D02*
G75*
G02*
X7612525Y-8041815I-20000J0D01*
G01*
X7612525Y-8041815D02*
G75*
G02*
X7652525Y-8041815I20000J0D01*
G01*
X7652525Y-8676815D02*
G75*
G02*
X7612525Y-8676815I-20000J0D01*
G01*
X7612525Y-8676815D02*
G75*
G02*
X7652525Y-8676815I20000J0D01*
G01*
X191425Y2376785D02*
X191425Y2316785D01*
X161425Y2346785D02*
X221425Y2346785D01*
X231425Y2376785D02*
X151425Y2376785D01*
X151425Y2316785D02*
G75*
G02*
X151425Y2376785I0J30000D01*
G01*
X151425Y2316785D02*
X231425Y2316785D01*
X231425Y2316785D02*
G75*
G03*
X231425Y2376785I0J30000D01*
G01*
X191425Y1512785D02*
X191425Y1452785D01*
X161425Y1482785D02*
X221425Y1482785D01*
X231425Y1512785D02*
X151425Y1512785D01*
X151425Y1452785D02*
G75*
G02*
X151425Y1512785I0J30000D01*
G01*
X151425Y1452785D02*
X231425Y1452785D01*
X231425Y1452785D02*
G75*
G03*
X231425Y1512785I0J30000D01*
G01*
X609425Y2376785D02*
X609425Y2316785D01*
X579425Y2346785D02*
X639425Y2346785D01*
X664425Y2376785D02*
X554425Y2376785D01*
X554425Y2316785D02*
G75*
G02*
X554425Y2376785I0J30000D01*
G01*
X554425Y2316785D02*
X664425Y2316785D01*
X664425Y2316785D02*
G75*
G03*
X664425Y2376785I0J30000D01*
G01*
X609425Y1512785D02*
X609425Y1452785D01*
X579425Y1482785D02*
X639425Y1482785D01*
X664425Y1512785D02*
X554425Y1512785D01*
X554425Y1452785D02*
G75*
G02*
X554425Y1512785I0J30000D01*
G01*
X554425Y1452785D02*
X664425Y1452785D01*
X664425Y1452785D02*
G75*
G03*
X664425Y1512785I0J30000D01*
G01*
X630541Y-6049032D02*
X630541Y-5995999D01*
X577508Y-5995999D01*
X577508Y-6049032D01*
X630541Y-6049032D01*
X566525Y-6060015D02*
X641525Y-6060015D01*
X641525Y-5985015D02*
G75*
G02*
X641525Y-6060015I0J-37500D01*
G01*
X641525Y-5985015D02*
X566525Y-5985015D01*
X566525Y-5985015D02*
G75*
G03*
X566525Y-6060015I0J-37500D01*
G01*
X630541Y-7954032D02*
X630541Y-7900999D01*
X577508Y-7900999D01*
X577508Y-7954032D01*
X630541Y-7954032D01*
X566525Y-7965015D02*
X641525Y-7965015D01*
X641525Y-7890015D02*
G75*
G02*
X641525Y-7965015I0J-37500D01*
G01*
X641525Y-7890015D02*
X566525Y-7890015D01*
X566525Y-7890015D02*
G75*
G03*
X566525Y-7965015I0J-37500D01*
G01*
X633241Y-4140532D02*
X633241Y-4087499D01*
X580208Y-4087499D01*
X580208Y-4140532D01*
X633241Y-4140532D01*
X569225Y-4151515D02*
X644225Y-4151515D01*
X644225Y-4076515D02*
G75*
G02*
X644225Y-4151515I0J-37500D01*
G01*
X644225Y-4076515D02*
X569225Y-4076515D01*
X569225Y-4076515D02*
G75*
G03*
X569225Y-4151515I0J-37500D01*
G01*
X639241Y-346732D02*
X639241Y-293699D01*
X586208Y-293699D01*
X586208Y-346732D01*
X639241Y-346732D01*
X575225Y-357715D02*
X650225Y-357715D01*
X650225Y-282715D02*
G75*
G02*
X650225Y-357715I0J-37500D01*
G01*
X650225Y-282715D02*
X575225Y-282715D01*
X575225Y-282715D02*
G75*
G03*
X575225Y-357715I0J-37500D01*
G01*
X639241Y-2239032D02*
X639241Y-2185999D01*
X586208Y-2185999D01*
X586208Y-2239032D01*
X639241Y-2239032D01*
X575225Y-2250015D02*
X650225Y-2250015D01*
X650225Y-2175015D02*
G75*
G02*
X650225Y-2250015I0J-37500D01*
G01*
X650225Y-2175015D02*
X575225Y-2175015D01*
X575225Y-2175015D02*
G75*
G03*
X575225Y-2250015I0J-37500D01*
G01*
X1245541Y-5795032D02*
X1245541Y-5741999D01*
X1192508Y-5741999D01*
X1192508Y-5795032D01*
X1245541Y-5795032D01*
X1181525Y-5806015D02*
X1256525Y-5806015D01*
X1256525Y-5731015D02*
G75*
G02*
X1256525Y-5806015I0J-37500D01*
G01*
X1256525Y-5731015D02*
X1181525Y-5731015D01*
X1181525Y-5731015D02*
G75*
G03*
X1181525Y-5806015I0J-37500D01*
G01*
X1245541Y-7700032D02*
X1245541Y-7646999D01*
X1192508Y-7646999D01*
X1192508Y-7700032D01*
X1245541Y-7700032D01*
X1181525Y-7711015D02*
X1256525Y-7711015D01*
X1256525Y-7636015D02*
G75*
G02*
X1256525Y-7711015I0J-37500D01*
G01*
X1256525Y-7636015D02*
X1181525Y-7636015D01*
X1181525Y-7636015D02*
G75*
G03*
X1181525Y-7711015I0J-37500D01*
G01*
X1248241Y-3886532D02*
X1248241Y-3833499D01*
X1195208Y-3833499D01*
X1195208Y-3886532D01*
X1248241Y-3886532D01*
X1184225Y-3897515D02*
X1259225Y-3897515D01*
X1259225Y-3822515D02*
G75*
G02*
X1259225Y-3897515I0J-37500D01*
G01*
X1259225Y-3822515D02*
X1184225Y-3822515D01*
X1184225Y-3822515D02*
G75*
G03*
X1184225Y-3897515I0J-37500D01*
G01*
X1254241Y-92732D02*
X1254241Y-39699D01*
X1201208Y-39699D01*
X1201208Y-92732D01*
X1254241Y-92732D01*
X1190225Y-103715D02*
X1265225Y-103715D01*
X1265225Y-28715D02*
G75*
G02*
X1265225Y-103715I0J-37500D01*
G01*
X1265225Y-28715D02*
X1190225Y-28715D01*
X1190225Y-28715D02*
G75*
G03*
X1190225Y-103715I0J-37500D01*
G01*
X1254241Y-1985032D02*
X1254241Y-1931999D01*
X1201208Y-1931999D01*
X1201208Y-1985032D01*
X1254241Y-1985032D01*
X1190225Y-1996015D02*
X1265225Y-1996015D01*
X1265225Y-1921015D02*
G75*
G02*
X1265225Y-1996015I0J-37500D01*
G01*
X1265225Y-1921015D02*
X1190225Y-1921015D01*
X1190225Y-1921015D02*
G75*
G03*
X1190225Y-1996015I0J-37500D01*
G01*
X2527041Y-6048932D02*
X2527041Y-5995899D01*
X2474008Y-5995899D01*
X2474008Y-6048932D01*
X2527041Y-6048932D01*
X2463025Y-6059915D02*
X2538025Y-6059915D01*
X2538025Y-5984915D02*
G75*
G02*
X2538025Y-6059915I0J-37500D01*
G01*
X2538025Y-5984915D02*
X2463025Y-5984915D01*
X2463025Y-5984915D02*
G75*
G03*
X2463025Y-6059915I0J-37500D01*
G01*
X2528241Y-7954032D02*
X2528241Y-7900999D01*
X2475208Y-7900999D01*
X2475208Y-7954032D01*
X2528241Y-7954032D01*
X2464225Y-7965015D02*
X2539225Y-7965015D01*
X2539225Y-7890015D02*
G75*
G02*
X2539225Y-7965015I0J-37500D01*
G01*
X2539225Y-7890015D02*
X2464225Y-7890015D01*
X2464225Y-7890015D02*
G75*
G03*
X2464225Y-7965015I0J-37500D01*
G01*
X2531541Y-346732D02*
X2531541Y-293699D01*
X2478508Y-293699D01*
X2478508Y-346732D01*
X2531541Y-346732D01*
X2467525Y-357715D02*
X2542525Y-357715D01*
X2542525Y-282715D02*
G75*
G02*
X2542525Y-357715I0J-37500D01*
G01*
X2542525Y-282715D02*
X2467525Y-282715D01*
X2467525Y-282715D02*
G75*
G03*
X2467525Y-357715I0J-37500D01*
G01*
X2531541Y-2239032D02*
X2531541Y-2185999D01*
X2478508Y-2185999D01*
X2478508Y-2239032D01*
X2531541Y-2239032D01*
X2467525Y-2250015D02*
X2542525Y-2250015D01*
X2542525Y-2175015D02*
G75*
G02*
X2542525Y-2250015I0J-37500D01*
G01*
X2542525Y-2175015D02*
X2467525Y-2175015D01*
X2467525Y-2175015D02*
G75*
G03*
X2467525Y-2250015I0J-37500D01*
G01*
X2531541Y-4143932D02*
X2531541Y-4090899D01*
X2478508Y-4090899D01*
X2478508Y-4143932D01*
X2531541Y-4143932D01*
X2467525Y-4154915D02*
X2542525Y-4154915D01*
X2542525Y-4079915D02*
G75*
G02*
X2542525Y-4154915I0J-37500D01*
G01*
X2542525Y-4079915D02*
X2467525Y-4079915D01*
X2467525Y-4079915D02*
G75*
G03*
X2467525Y-4154915I0J-37500D01*
G01*
X3142041Y-5794932D02*
X3142041Y-5741899D01*
X3089008Y-5741899D01*
X3089008Y-5794932D01*
X3142041Y-5794932D01*
X3078025Y-5805915D02*
X3153025Y-5805915D01*
X3153025Y-5730915D02*
G75*
G02*
X3153025Y-5805915I0J-37500D01*
G01*
X3153025Y-5730915D02*
X3078025Y-5730915D01*
X3078025Y-5730915D02*
G75*
G03*
X3078025Y-5805915I0J-37500D01*
G01*
X3143241Y-7700032D02*
X3143241Y-7646999D01*
X3090208Y-7646999D01*
X3090208Y-7700032D01*
X3143241Y-7700032D01*
X3079225Y-7711015D02*
X3154225Y-7711015D01*
X3154225Y-7636015D02*
G75*
G02*
X3154225Y-7711015I0J-37500D01*
G01*
X3154225Y-7636015D02*
X3079225Y-7636015D01*
X3079225Y-7636015D02*
G75*
G03*
X3079225Y-7711015I0J-37500D01*
G01*
X3146541Y-92732D02*
X3146541Y-39699D01*
X3093508Y-39699D01*
X3093508Y-92732D01*
X3146541Y-92732D01*
X3082525Y-103715D02*
X3157525Y-103715D01*
X3157525Y-28715D02*
G75*
G02*
X3157525Y-103715I0J-37500D01*
G01*
X3157525Y-28715D02*
X3082525Y-28715D01*
X3082525Y-28715D02*
G75*
G03*
X3082525Y-103715I0J-37500D01*
G01*
X3146541Y-1985032D02*
X3146541Y-1931999D01*
X3093508Y-1931999D01*
X3093508Y-1985032D01*
X3146541Y-1985032D01*
X3082525Y-1996015D02*
X3157525Y-1996015D01*
X3157525Y-1921015D02*
G75*
G02*
X3157525Y-1996015I0J-37500D01*
G01*
X3157525Y-1921015D02*
X3082525Y-1921015D01*
X3082525Y-1921015D02*
G75*
G03*
X3082525Y-1996015I0J-37500D01*
G01*
X3146541Y-3889932D02*
X3146541Y-3836899D01*
X3093508Y-3836899D01*
X3093508Y-3889932D01*
X3146541Y-3889932D01*
X3082525Y-3900915D02*
X3157525Y-3900915D01*
X3157525Y-3825915D02*
G75*
G02*
X3157525Y-3900915I0J-37500D01*
G01*
X3157525Y-3825915D02*
X3082525Y-3825915D01*
X3082525Y-3825915D02*
G75*
G03*
X3082525Y-3900915I0J-37500D01*
G01*
X4436541Y-346732D02*
X4436541Y-293699D01*
X4383508Y-293699D01*
X4383508Y-346732D01*
X4436541Y-346732D01*
X4372525Y-357715D02*
X4447525Y-357715D01*
X4447525Y-282715D02*
G75*
G02*
X4447525Y-357715I0J-37500D01*
G01*
X4447525Y-282715D02*
X4372525Y-282715D01*
X4372525Y-282715D02*
G75*
G03*
X4372525Y-357715I0J-37500D01*
G01*
X4436541Y-2239032D02*
X4436541Y-2185999D01*
X4383508Y-2185999D01*
X4383508Y-2239032D01*
X4436541Y-2239032D01*
X4372525Y-2250015D02*
X4447525Y-2250015D01*
X4447525Y-2175015D02*
G75*
G02*
X4447525Y-2250015I0J-37500D01*
G01*
X4447525Y-2175015D02*
X4372525Y-2175015D01*
X4372525Y-2175015D02*
G75*
G03*
X4372525Y-2250015I0J-37500D01*
G01*
X4440541Y-7954032D02*
X4440541Y-7900999D01*
X4387508Y-7900999D01*
X4387508Y-7954032D01*
X4440541Y-7954032D01*
X4376525Y-7965015D02*
X4451525Y-7965015D01*
X4451525Y-7890015D02*
G75*
G02*
X4451525Y-7965015I0J-37500D01*
G01*
X4451525Y-7890015D02*
X4376525Y-7890015D01*
X4376525Y-7890015D02*
G75*
G03*
X4376525Y-7965015I0J-37500D01*
G01*
X4444741Y-4143932D02*
X4444741Y-4090899D01*
X4391708Y-4090899D01*
X4391708Y-4143932D01*
X4444741Y-4143932D01*
X4380725Y-4154915D02*
X4455725Y-4154915D01*
X4455725Y-4079915D02*
G75*
G02*
X4455725Y-4154915I0J-37500D01*
G01*
X4455725Y-4079915D02*
X4380725Y-4079915D01*
X4380725Y-4079915D02*
G75*
G03*
X4380725Y-4154915I0J-37500D01*
G01*
X4444741Y-6048932D02*
X4444741Y-5995899D01*
X4391708Y-5995899D01*
X4391708Y-6048932D01*
X4444741Y-6048932D01*
X4380725Y-6059915D02*
X4455725Y-6059915D01*
X4455725Y-5984915D02*
G75*
G02*
X4455725Y-6059915I0J-37500D01*
G01*
X4455725Y-5984915D02*
X4380725Y-5984915D01*
X4380725Y-5984915D02*
G75*
G03*
X4380725Y-6059915I0J-37500D01*
G01*
X5051541Y-92732D02*
X5051541Y-39699D01*
X4998508Y-39699D01*
X4998508Y-92732D01*
X5051541Y-92732D01*
X4987525Y-103715D02*
X5062525Y-103715D01*
X5062525Y-28715D02*
G75*
G02*
X5062525Y-103715I0J-37500D01*
G01*
X5062525Y-28715D02*
X4987525Y-28715D01*
X4987525Y-28715D02*
G75*
G03*
X4987525Y-103715I0J-37500D01*
G01*
X5051541Y-1985032D02*
X5051541Y-1931999D01*
X4998508Y-1931999D01*
X4998508Y-1985032D01*
X5051541Y-1985032D01*
X4987525Y-1996015D02*
X5062525Y-1996015D01*
X5062525Y-1921015D02*
G75*
G02*
X5062525Y-1996015I0J-37500D01*
G01*
X5062525Y-1921015D02*
X4987525Y-1921015D01*
X4987525Y-1921015D02*
G75*
G03*
X4987525Y-1996015I0J-37500D01*
G01*
X5055541Y-7700032D02*
X5055541Y-7646999D01*
X5002508Y-7646999D01*
X5002508Y-7700032D01*
X5055541Y-7700032D01*
X4991525Y-7711015D02*
X5066525Y-7711015D01*
X5066525Y-7636015D02*
G75*
G02*
X5066525Y-7711015I0J-37500D01*
G01*
X5066525Y-7636015D02*
X4991525Y-7636015D01*
X4991525Y-7636015D02*
G75*
G03*
X4991525Y-7711015I0J-37500D01*
G01*
X5059741Y-3889932D02*
X5059741Y-3836899D01*
X5006708Y-3836899D01*
X5006708Y-3889932D01*
X5059741Y-3889932D01*
X4995725Y-3900915D02*
X5070725Y-3900915D01*
X5070725Y-3825915D02*
G75*
G02*
X5070725Y-3900915I0J-37500D01*
G01*
X5070725Y-3825915D02*
X4995725Y-3825915D01*
X4995725Y-3825915D02*
G75*
G03*
X4995725Y-3900915I0J-37500D01*
G01*
X5059741Y-5794932D02*
X5059741Y-5741899D01*
X5006708Y-5741899D01*
X5006708Y-5794932D01*
X5059741Y-5794932D01*
X4995725Y-5805915D02*
X5070725Y-5805915D01*
X5070725Y-5730915D02*
G75*
G02*
X5070725Y-5805915I0J-37500D01*
G01*
X5070725Y-5730915D02*
X4995725Y-5730915D01*
X4995725Y-5730915D02*
G75*
G03*
X4995725Y-5805915I0J-37500D01*
G01*
X6345541Y-346732D02*
X6345541Y-293699D01*
X6292508Y-293699D01*
X6292508Y-346732D01*
X6345541Y-346732D01*
X6281525Y-357715D02*
X6356525Y-357715D01*
X6356525Y-282715D02*
G75*
G02*
X6356525Y-357715I0J-37500D01*
G01*
X6356525Y-282715D02*
X6281525Y-282715D01*
X6281525Y-282715D02*
G75*
G03*
X6281525Y-357715I0J-37500D01*
G01*
X6349741Y-6048932D02*
X6349741Y-5995899D01*
X6296708Y-5995899D01*
X6296708Y-6048932D01*
X6349741Y-6048932D01*
X6285725Y-6059915D02*
X6360725Y-6059915D01*
X6360725Y-5984915D02*
G75*
G02*
X6360725Y-6059915I0J-37500D01*
G01*
X6360725Y-5984915D02*
X6285725Y-5984915D01*
X6285725Y-5984915D02*
G75*
G03*
X6285725Y-6059915I0J-37500D01*
G01*
X6350941Y-7954032D02*
X6350941Y-7900999D01*
X6297908Y-7900999D01*
X6297908Y-7954032D01*
X6350941Y-7954032D01*
X6286925Y-7965015D02*
X6361925Y-7965015D01*
X6361925Y-7890015D02*
G75*
G02*
X6361925Y-7965015I0J-37500D01*
G01*
X6361925Y-7890015D02*
X6286925Y-7890015D01*
X6286925Y-7890015D02*
G75*
G03*
X6286925Y-7965015I0J-37500D01*
G01*
X6354241Y-2239032D02*
X6354241Y-2185999D01*
X6301208Y-2185999D01*
X6301208Y-2239032D01*
X6354241Y-2239032D01*
X6290225Y-2250015D02*
X6365225Y-2250015D01*
X6365225Y-2175015D02*
G75*
G02*
X6365225Y-2250015I0J-37500D01*
G01*
X6365225Y-2175015D02*
X6290225Y-2175015D01*
X6290225Y-2175015D02*
G75*
G03*
X6290225Y-2250015I0J-37500D01*
G01*
X6354241Y-4144032D02*
X6354241Y-4090999D01*
X6301208Y-4090999D01*
X6301208Y-4144032D01*
X6354241Y-4144032D01*
X6290225Y-4155015D02*
X6365225Y-4155015D01*
X6365225Y-4080015D02*
G75*
G02*
X6365225Y-4155015I0J-37500D01*
G01*
X6365225Y-4080015D02*
X6290225Y-4080015D01*
X6290225Y-4080015D02*
G75*
G03*
X6290225Y-4155015I0J-37500D01*
G01*
X6960541Y-92732D02*
X6960541Y-39699D01*
X6907508Y-39699D01*
X6907508Y-92732D01*
X6960541Y-92732D01*
X6896525Y-103715D02*
X6971525Y-103715D01*
X6971525Y-28715D02*
G75*
G02*
X6971525Y-103715I0J-37500D01*
G01*
X6971525Y-28715D02*
X6896525Y-28715D01*
X6896525Y-28715D02*
G75*
G03*
X6896525Y-103715I0J-37500D01*
G01*
X6964741Y-5794932D02*
X6964741Y-5741899D01*
X6911708Y-5741899D01*
X6911708Y-5794932D01*
X6964741Y-5794932D01*
X6900725Y-5805915D02*
X6975725Y-5805915D01*
X6975725Y-5730915D02*
G75*
G02*
X6975725Y-5805915I0J-37500D01*
G01*
X6975725Y-5730915D02*
X6900725Y-5730915D01*
X6900725Y-5730915D02*
G75*
G03*
X6900725Y-5805915I0J-37500D01*
G01*
X6965941Y-7700032D02*
X6965941Y-7646999D01*
X6912908Y-7646999D01*
X6912908Y-7700032D01*
X6965941Y-7700032D01*
X6901925Y-7711015D02*
X6976925Y-7711015D01*
X6976925Y-7636015D02*
G75*
G02*
X6976925Y-7711015I0J-37500D01*
G01*
X6976925Y-7636015D02*
X6901925Y-7636015D01*
X6901925Y-7636015D02*
G75*
G03*
X6901925Y-7711015I0J-37500D01*
G01*
X6969241Y-1985032D02*
X6969241Y-1931999D01*
X6916208Y-1931999D01*
X6916208Y-1985032D01*
X6969241Y-1985032D01*
X6905225Y-1996015D02*
X6980225Y-1996015D01*
X6980225Y-1921015D02*
G75*
G02*
X6980225Y-1996015I0J-37500D01*
G01*
X6980225Y-1921015D02*
X6905225Y-1921015D01*
X6905225Y-1921015D02*
G75*
G03*
X6905225Y-1996015I0J-37500D01*
G01*
X6969241Y-3890032D02*
X6969241Y-3836999D01*
X6916208Y-3836999D01*
X6916208Y-3890032D01*
X6969241Y-3890032D01*
X6905225Y-3901015D02*
X6980225Y-3901015D01*
X6980225Y-3826015D02*
G75*
G02*
X6980225Y-3901015I0J-37500D01*
G01*
X6980225Y-3826015D02*
X6905225Y-3826015D01*
X6905225Y-3826015D02*
G75*
G03*
X6905225Y-3901015I0J-37500D01*
G01*
X529025Y-6850015D02*
X569025Y-6810015D01*
X529025Y-6770015D01*
X489025Y-6810015D01*
X529025Y-6850015D01*
X489025Y-6775015D02*
X489025Y-6845015D01*
X569025Y-6845015D02*
G75*
G02*
X489025Y-6845015I-40000J0D01*
G01*
X569025Y-6845015D02*
X569025Y-6775015D01*
X569025Y-6775015D02*
G75*
G03*
X489025Y-6775015I-40000J0D01*
G01*
X529025Y-8755015D02*
X569025Y-8715015D01*
X529025Y-8675015D01*
X489025Y-8715015D01*
X529025Y-8755015D01*
X489025Y-8680015D02*
X489025Y-8750015D01*
X569025Y-8750015D02*
G75*
G02*
X489025Y-8750015I-40000J0D01*
G01*
X569025Y-8750015D02*
X569025Y-8680015D01*
X569025Y-8680015D02*
G75*
G03*
X489025Y-8680015I-40000J0D01*
G01*
X531725Y-4941515D02*
X571725Y-4901515D01*
X531725Y-4861515D01*
X491725Y-4901515D01*
X531725Y-4941515D01*
X491725Y-4866515D02*
X491725Y-4936515D01*
X571725Y-4936515D02*
G75*
G02*
X491725Y-4936515I-40000J0D01*
G01*
X571725Y-4936515D02*
X571725Y-4866515D01*
X571725Y-4866515D02*
G75*
G03*
X491725Y-4866515I-40000J0D01*
G01*
X537725Y-1147715D02*
X577725Y-1107715D01*
X537725Y-1067715D01*
X497725Y-1107715D01*
X537725Y-1147715D01*
X497725Y-1072715D02*
X497725Y-1142715D01*
X577725Y-1142715D02*
G75*
G02*
X497725Y-1142715I-40000J0D01*
G01*
X577725Y-1142715D02*
X577725Y-1072715D01*
X577725Y-1072715D02*
G75*
G03*
X497725Y-1072715I-40000J0D01*
G01*
X537725Y-3040015D02*
X577725Y-3000015D01*
X537725Y-2960015D01*
X497725Y-3000015D01*
X537725Y-3040015D01*
X497725Y-2965015D02*
X497725Y-3035015D01*
X577725Y-3035015D02*
G75*
G02*
X497725Y-3035015I-40000J0D01*
G01*
X577725Y-3035015D02*
X577725Y-2965015D01*
X577725Y-2965015D02*
G75*
G03*
X497725Y-2965015I-40000J0D01*
G01*
X2425525Y-6849915D02*
X2465525Y-6809915D01*
X2425525Y-6769915D01*
X2385525Y-6809915D01*
X2425525Y-6849915D01*
X2385525Y-6774915D02*
X2385525Y-6844915D01*
X2465525Y-6844915D02*
G75*
G02*
X2385525Y-6844915I-40000J0D01*
G01*
X2465525Y-6844915D02*
X2465525Y-6774915D01*
X2465525Y-6774915D02*
G75*
G03*
X2385525Y-6774915I-40000J0D01*
G01*
X2426725Y-8755015D02*
X2466725Y-8715015D01*
X2426725Y-8675015D01*
X2386725Y-8715015D01*
X2426725Y-8755015D01*
X2386725Y-8680015D02*
X2386725Y-8750015D01*
X2466725Y-8750015D02*
G75*
G02*
X2386725Y-8750015I-40000J0D01*
G01*
X2466725Y-8750015D02*
X2466725Y-8680015D01*
X2466725Y-8680015D02*
G75*
G03*
X2386725Y-8680015I-40000J0D01*
G01*
X2430025Y-1147715D02*
X2470025Y-1107715D01*
X2430025Y-1067715D01*
X2390025Y-1107715D01*
X2430025Y-1147715D01*
X2390025Y-1072715D02*
X2390025Y-1142715D01*
X2470025Y-1142715D02*
G75*
G02*
X2390025Y-1142715I-40000J0D01*
G01*
X2470025Y-1142715D02*
X2470025Y-1072715D01*
X2470025Y-1072715D02*
G75*
G03*
X2390025Y-1072715I-40000J0D01*
G01*
X2430025Y-3040015D02*
X2470025Y-3000015D01*
X2430025Y-2960015D01*
X2390025Y-3000015D01*
X2430025Y-3040015D01*
X2390025Y-2965015D02*
X2390025Y-3035015D01*
X2470025Y-3035015D02*
G75*
G02*
X2390025Y-3035015I-40000J0D01*
G01*
X2470025Y-3035015D02*
X2470025Y-2965015D01*
X2470025Y-2965015D02*
G75*
G03*
X2390025Y-2965015I-40000J0D01*
G01*
X2430025Y-4944915D02*
X2470025Y-4904915D01*
X2430025Y-4864915D01*
X2390025Y-4904915D01*
X2430025Y-4944915D01*
X2390025Y-4869915D02*
X2390025Y-4939915D01*
X2470025Y-4939915D02*
G75*
G02*
X2390025Y-4939915I-40000J0D01*
G01*
X2470025Y-4939915D02*
X2470025Y-4869915D01*
X2470025Y-4869915D02*
G75*
G03*
X2390025Y-4869915I-40000J0D01*
G01*
X4335025Y-1147715D02*
X4375025Y-1107715D01*
X4335025Y-1067715D01*
X4295025Y-1107715D01*
X4335025Y-1147715D01*
X4295025Y-1072715D02*
X4295025Y-1142715D01*
X4375025Y-1142715D02*
G75*
G02*
X4295025Y-1142715I-40000J0D01*
G01*
X4375025Y-1142715D02*
X4375025Y-1072715D01*
X4375025Y-1072715D02*
G75*
G03*
X4295025Y-1072715I-40000J0D01*
G01*
X4335025Y-3040015D02*
X4375025Y-3000015D01*
X4335025Y-2960015D01*
X4295025Y-3000015D01*
X4335025Y-3040015D01*
X4295025Y-2965015D02*
X4295025Y-3035015D01*
X4375025Y-3035015D02*
G75*
G02*
X4295025Y-3035015I-40000J0D01*
G01*
X4375025Y-3035015D02*
X4375025Y-2965015D01*
X4375025Y-2965015D02*
G75*
G03*
X4295025Y-2965015I-40000J0D01*
G01*
X4339025Y-8755015D02*
X4379025Y-8715015D01*
X4339025Y-8675015D01*
X4299025Y-8715015D01*
X4339025Y-8755015D01*
X4299025Y-8680015D02*
X4299025Y-8750015D01*
X4379025Y-8750015D02*
G75*
G02*
X4299025Y-8750015I-40000J0D01*
G01*
X4379025Y-8750015D02*
X4379025Y-8680015D01*
X4379025Y-8680015D02*
G75*
G03*
X4299025Y-8680015I-40000J0D01*
G01*
X4343225Y-4944915D02*
X4383225Y-4904915D01*
X4343225Y-4864915D01*
X4303225Y-4904915D01*
X4343225Y-4944915D01*
X4303225Y-4869915D02*
X4303225Y-4939915D01*
X4383225Y-4939915D02*
G75*
G02*
X4303225Y-4939915I-40000J0D01*
G01*
X4383225Y-4939915D02*
X4383225Y-4869915D01*
X4383225Y-4869915D02*
G75*
G03*
X4303225Y-4869915I-40000J0D01*
G01*
X4343225Y-6849915D02*
X4383225Y-6809915D01*
X4343225Y-6769915D01*
X4303225Y-6809915D01*
X4343225Y-6849915D01*
X4303225Y-6774915D02*
X4303225Y-6844915D01*
X4383225Y-6844915D02*
G75*
G02*
X4303225Y-6844915I-40000J0D01*
G01*
X4383225Y-6844915D02*
X4383225Y-6774915D01*
X4383225Y-6774915D02*
G75*
G03*
X4303225Y-6774915I-40000J0D01*
G01*
X6244025Y-1147715D02*
X6284025Y-1107715D01*
X6244025Y-1067715D01*
X6204025Y-1107715D01*
X6244025Y-1147715D01*
X6204025Y-1072715D02*
X6204025Y-1142715D01*
X6284025Y-1142715D02*
G75*
G02*
X6204025Y-1142715I-40000J0D01*
G01*
X6284025Y-1142715D02*
X6284025Y-1072715D01*
X6284025Y-1072715D02*
G75*
G03*
X6204025Y-1072715I-40000J0D01*
G01*
X6248225Y-6849915D02*
X6288225Y-6809915D01*
X6248225Y-6769915D01*
X6208225Y-6809915D01*
X6248225Y-6849915D01*
X6208225Y-6774915D02*
X6208225Y-6844915D01*
X6288225Y-6844915D02*
G75*
G02*
X6208225Y-6844915I-40000J0D01*
G01*
X6288225Y-6844915D02*
X6288225Y-6774915D01*
X6288225Y-6774915D02*
G75*
G03*
X6208225Y-6774915I-40000J0D01*
G01*
X6249425Y-8755015D02*
X6289425Y-8715015D01*
X6249425Y-8675015D01*
X6209425Y-8715015D01*
X6249425Y-8755015D01*
X6209425Y-8680015D02*
X6209425Y-8750015D01*
X6289425Y-8750015D02*
G75*
G02*
X6209425Y-8750015I-40000J0D01*
G01*
X6289425Y-8750015D02*
X6289425Y-8680015D01*
X6289425Y-8680015D02*
G75*
G03*
X6209425Y-8680015I-40000J0D01*
G01*
X6252725Y-3040015D02*
X6292725Y-3000015D01*
X6252725Y-2960015D01*
X6212725Y-3000015D01*
X6252725Y-3040015D01*
X6212725Y-2965015D02*
X6212725Y-3035015D01*
X6292725Y-3035015D02*
G75*
G02*
X6212725Y-3035015I-40000J0D01*
G01*
X6292725Y-3035015D02*
X6292725Y-2965015D01*
X6292725Y-2965015D02*
G75*
G03*
X6212725Y-2965015I-40000J0D01*
G01*
X6252725Y-4945015D02*
X6292725Y-4905015D01*
X6252725Y-4865015D01*
X6212725Y-4905015D01*
X6252725Y-4945015D01*
X6212725Y-4870015D02*
X6212725Y-4940015D01*
X6292725Y-4940015D02*
G75*
G02*
X6212725Y-4940015I-40000J0D01*
G01*
X6292725Y-4940015D02*
X6292725Y-4870015D01*
X6292725Y-4870015D02*
G75*
G03*
X6212725Y-4870015I-40000J0D01*
G01*
X935345Y603545D02*
X1035345Y503545D01*
X1035345Y603545D02*
X935345Y503545D01*
X1035345Y553545D02*
G75*
G02*
X935345Y553545I-50000J0D01*
G01*
X935345Y553545D02*
G75*
G02*
X1035345Y553545I50000J0D01*
G01*
X1026785Y2371385D02*
X1126785Y2271385D01*
X1126785Y2371385D02*
X1026785Y2271385D01*
X1126785Y2321385D02*
G75*
G02*
X1026785Y2321385I-50000J0D01*
G01*
X1026785Y2321385D02*
G75*
G02*
X1126785Y2321385I50000J0D01*
G01*
X1026785Y2117385D02*
X1126785Y2017385D01*
X1126785Y2117385D02*
X1026785Y2017385D01*
X1126785Y2067385D02*
G75*
G02*
X1026785Y2067385I-50000J0D01*
G01*
X1026785Y2067385D02*
G75*
G02*
X1126785Y2067385I50000J0D01*
G01*
X1179025Y-6840015D02*
X1279025Y-6940015D01*
X1279025Y-6840015D02*
X1179025Y-6940015D01*
X1279025Y-6890015D02*
G75*
G02*
X1179025Y-6890015I-50000J0D01*
G01*
X1179025Y-6890015D02*
G75*
G02*
X1279025Y-6890015I50000J0D01*
G01*
X1204025Y-6940015D02*
X1254025Y-6940015D01*
X1254025Y-6840015D02*
G75*
G02*
X1254025Y-6940015I0J-50000D01*
G01*
X1254025Y-6840015D02*
X1204025Y-6840015D01*
X1204025Y-6840015D02*
G75*
G03*
X1204025Y-6940015I0J-50000D01*
G01*
X1179025Y-8745015D02*
X1279025Y-8845015D01*
X1279025Y-8745015D02*
X1179025Y-8845015D01*
X1279025Y-8795015D02*
G75*
G02*
X1179025Y-8795015I-50000J0D01*
G01*
X1179025Y-8795015D02*
G75*
G02*
X1279025Y-8795015I50000J0D01*
G01*
X1204025Y-8845015D02*
X1254025Y-8845015D01*
X1254025Y-8745015D02*
G75*
G02*
X1254025Y-8845015I0J-50000D01*
G01*
X1254025Y-8745015D02*
X1204025Y-8745015D01*
X1204025Y-8745015D02*
G75*
G03*
X1204025Y-8845015I0J-50000D01*
G01*
X1181725Y-4931515D02*
X1281725Y-5031515D01*
X1281725Y-4931515D02*
X1181725Y-5031515D01*
X1281725Y-4981515D02*
G75*
G02*
X1181725Y-4981515I-50000J0D01*
G01*
X1181725Y-4981515D02*
G75*
G02*
X1281725Y-4981515I50000J0D01*
G01*
X1206725Y-5031515D02*
X1256725Y-5031515D01*
X1256725Y-4931515D02*
G75*
G02*
X1256725Y-5031515I0J-50000D01*
G01*
X1256725Y-4931515D02*
X1206725Y-4931515D01*
X1206725Y-4931515D02*
G75*
G03*
X1206725Y-5031515I0J-50000D01*
G01*
X1187725Y-1137715D02*
X1287725Y-1237715D01*
X1287725Y-1137715D02*
X1187725Y-1237715D01*
X1287725Y-1187715D02*
G75*
G02*
X1187725Y-1187715I-50000J0D01*
G01*
X1187725Y-1187715D02*
G75*
G02*
X1287725Y-1187715I50000J0D01*
G01*
X1212725Y-1237715D02*
X1262725Y-1237715D01*
X1262725Y-1137715D02*
G75*
G02*
X1262725Y-1237715I0J-50000D01*
G01*
X1262725Y-1137715D02*
X1212725Y-1137715D01*
X1212725Y-1137715D02*
G75*
G03*
X1212725Y-1237715I0J-50000D01*
G01*
X1187725Y-3030015D02*
X1287725Y-3130015D01*
X1287725Y-3030015D02*
X1187725Y-3130015D01*
X1287725Y-3080015D02*
G75*
G02*
X1187725Y-3080015I-50000J0D01*
G01*
X1187725Y-3080015D02*
G75*
G02*
X1287725Y-3080015I50000J0D01*
G01*
X1212725Y-3130015D02*
X1262725Y-3130015D01*
X1262725Y-3030015D02*
G75*
G02*
X1262725Y-3130015I0J-50000D01*
G01*
X1262725Y-3030015D02*
X1212725Y-3030015D01*
X1212725Y-3030015D02*
G75*
G03*
X1212725Y-3130015I0J-50000D01*
G01*
X1189345Y603545D02*
X1289345Y503545D01*
X1289345Y603545D02*
X1189345Y503545D01*
X1289345Y553545D02*
G75*
G02*
X1189345Y553545I-50000J0D01*
G01*
X1189345Y553545D02*
G75*
G02*
X1289345Y553545I50000J0D01*
G01*
X1280785Y2371385D02*
X1380785Y2271385D01*
X1380785Y2371385D02*
X1280785Y2271385D01*
X1380785Y2321385D02*
G75*
G02*
X1280785Y2321385I-50000J0D01*
G01*
X1280785Y2321385D02*
G75*
G02*
X1380785Y2321385I50000J0D01*
G01*
X1280785Y2117385D02*
X1380785Y2017385D01*
X1380785Y2117385D02*
X1280785Y2017385D01*
X1380785Y2067385D02*
G75*
G02*
X1280785Y2067385I-50000J0D01*
G01*
X1280785Y2067385D02*
G75*
G02*
X1380785Y2067385I50000J0D01*
G01*
X1443345Y603545D02*
X1543345Y503545D01*
X1543345Y603545D02*
X1443345Y503545D01*
X1543345Y553545D02*
G75*
G02*
X1443345Y553545I-50000J0D01*
G01*
X1443345Y553545D02*
G75*
G02*
X1543345Y553545I50000J0D01*
G01*
X1534785Y2371385D02*
X1634785Y2271385D01*
X1634785Y2371385D02*
X1534785Y2271385D01*
X1634785Y2321385D02*
G75*
G02*
X1534785Y2321385I-50000J0D01*
G01*
X1534785Y2321385D02*
G75*
G02*
X1634785Y2321385I50000J0D01*
G01*
X1534785Y2117385D02*
X1634785Y2017385D01*
X1634785Y2117385D02*
X1534785Y2017385D01*
X1634785Y2067385D02*
G75*
G02*
X1534785Y2067385I-50000J0D01*
G01*
X1534785Y2067385D02*
G75*
G02*
X1634785Y2067385I50000J0D01*
G01*
X1697345Y603545D02*
X1797345Y503545D01*
X1797345Y603545D02*
X1697345Y503545D01*
X1797345Y553545D02*
G75*
G02*
X1697345Y553545I-50000J0D01*
G01*
X1697345Y553545D02*
G75*
G02*
X1797345Y553545I50000J0D01*
G01*
X1788785Y2371385D02*
X1888785Y2271385D01*
X1888785Y2371385D02*
X1788785Y2271385D01*
X1888785Y2321385D02*
G75*
G02*
X1788785Y2321385I-50000J0D01*
G01*
X1788785Y2321385D02*
G75*
G02*
X1888785Y2321385I50000J0D01*
G01*
X1788785Y2117385D02*
X1888785Y2017385D01*
X1888785Y2117385D02*
X1788785Y2017385D01*
X1888785Y2067385D02*
G75*
G02*
X1788785Y2067385I-50000J0D01*
G01*
X1788785Y2067385D02*
G75*
G02*
X1888785Y2067385I50000J0D01*
G01*
X1951345Y603545D02*
X2051345Y503545D01*
X2051345Y603545D02*
X1951345Y503545D01*
X2051345Y553545D02*
G75*
G02*
X1951345Y553545I-50000J0D01*
G01*
X1951345Y553545D02*
G75*
G02*
X2051345Y553545I50000J0D01*
G01*
X2042785Y2371385D02*
X2142785Y2271385D01*
X2142785Y2371385D02*
X2042785Y2271385D01*
X2142785Y2321385D02*
G75*
G02*
X2042785Y2321385I-50000J0D01*
G01*
X2042785Y2321385D02*
G75*
G02*
X2142785Y2321385I50000J0D01*
G01*
X2042785Y2117385D02*
X2142785Y2017385D01*
X2142785Y2117385D02*
X2042785Y2017385D01*
X2142785Y2067385D02*
G75*
G02*
X2042785Y2067385I-50000J0D01*
G01*
X2042785Y2067385D02*
G75*
G02*
X2142785Y2067385I50000J0D01*
G01*
X2205345Y603545D02*
X2305345Y503545D01*
X2305345Y603545D02*
X2205345Y503545D01*
X2305345Y553545D02*
G75*
G02*
X2205345Y553545I-50000J0D01*
G01*
X2205345Y553545D02*
G75*
G02*
X2305345Y553545I50000J0D01*
G01*
X2296785Y2371385D02*
X2396785Y2271385D01*
X2396785Y2371385D02*
X2296785Y2271385D01*
X2396785Y2321385D02*
G75*
G02*
X2296785Y2321385I-50000J0D01*
G01*
X2296785Y2321385D02*
G75*
G02*
X2396785Y2321385I50000J0D01*
G01*
X2296785Y2117385D02*
X2396785Y2017385D01*
X2396785Y2117385D02*
X2296785Y2017385D01*
X2396785Y2067385D02*
G75*
G02*
X2296785Y2067385I-50000J0D01*
G01*
X2296785Y2067385D02*
G75*
G02*
X2396785Y2067385I50000J0D01*
G01*
X2459345Y603545D02*
X2559345Y503545D01*
X2559345Y603545D02*
X2459345Y503545D01*
X2559345Y553545D02*
G75*
G02*
X2459345Y553545I-50000J0D01*
G01*
X2459345Y553545D02*
G75*
G02*
X2559345Y553545I50000J0D01*
G01*
X2550785Y2371385D02*
X2650785Y2271385D01*
X2650785Y2371385D02*
X2550785Y2271385D01*
X2650785Y2321385D02*
G75*
G02*
X2550785Y2321385I-50000J0D01*
G01*
X2550785Y2321385D02*
G75*
G02*
X2650785Y2321385I50000J0D01*
G01*
X2550785Y2117385D02*
X2650785Y2017385D01*
X2650785Y2117385D02*
X2550785Y2017385D01*
X2650785Y2067385D02*
G75*
G02*
X2550785Y2067385I-50000J0D01*
G01*
X2550785Y2067385D02*
G75*
G02*
X2650785Y2067385I50000J0D01*
G01*
X2713345Y603545D02*
X2813345Y503545D01*
X2813345Y603545D02*
X2713345Y503545D01*
X2813345Y553545D02*
G75*
G02*
X2713345Y553545I-50000J0D01*
G01*
X2713345Y553545D02*
G75*
G02*
X2813345Y553545I50000J0D01*
G01*
X2804785Y2371385D02*
X2904785Y2271385D01*
X2904785Y2371385D02*
X2804785Y2271385D01*
X2904785Y2321385D02*
G75*
G02*
X2804785Y2321385I-50000J0D01*
G01*
X2804785Y2321385D02*
G75*
G02*
X2904785Y2321385I50000J0D01*
G01*
X2804785Y2117385D02*
X2904785Y2017385D01*
X2904785Y2117385D02*
X2804785Y2017385D01*
X2904785Y2067385D02*
G75*
G02*
X2804785Y2067385I-50000J0D01*
G01*
X2804785Y2067385D02*
G75*
G02*
X2904785Y2067385I50000J0D01*
G01*
X2967345Y603545D02*
X3067345Y503545D01*
X3067345Y603545D02*
X2967345Y503545D01*
X3067345Y553545D02*
G75*
G02*
X2967345Y553545I-50000J0D01*
G01*
X2967345Y553545D02*
G75*
G02*
X3067345Y553545I50000J0D01*
G01*
X3075525Y-6839915D02*
X3175525Y-6939915D01*
X3175525Y-6839915D02*
X3075525Y-6939915D01*
X3175525Y-6889915D02*
G75*
G02*
X3075525Y-6889915I-50000J0D01*
G01*
X3075525Y-6889915D02*
G75*
G02*
X3175525Y-6889915I50000J0D01*
G01*
X3100525Y-6939915D02*
X3150525Y-6939915D01*
X3150525Y-6839915D02*
G75*
G02*
X3150525Y-6939915I0J-50000D01*
G01*
X3150525Y-6839915D02*
X3100525Y-6839915D01*
X3100525Y-6839915D02*
G75*
G03*
X3100525Y-6939915I0J-50000D01*
G01*
X3076725Y-8745015D02*
X3176725Y-8845015D01*
X3176725Y-8745015D02*
X3076725Y-8845015D01*
X3176725Y-8795015D02*
G75*
G02*
X3076725Y-8795015I-50000J0D01*
G01*
X3076725Y-8795015D02*
G75*
G02*
X3176725Y-8795015I50000J0D01*
G01*
X3101725Y-8845015D02*
X3151725Y-8845015D01*
X3151725Y-8745015D02*
G75*
G02*
X3151725Y-8845015I0J-50000D01*
G01*
X3151725Y-8745015D02*
X3101725Y-8745015D01*
X3101725Y-8745015D02*
G75*
G03*
X3101725Y-8845015I0J-50000D01*
G01*
X3080025Y-1137715D02*
X3180025Y-1237715D01*
X3180025Y-1137715D02*
X3080025Y-1237715D01*
X3180025Y-1187715D02*
G75*
G02*
X3080025Y-1187715I-50000J0D01*
G01*
X3080025Y-1187715D02*
G75*
G02*
X3180025Y-1187715I50000J0D01*
G01*
X3105025Y-1237715D02*
X3155025Y-1237715D01*
X3155025Y-1137715D02*
G75*
G02*
X3155025Y-1237715I0J-50000D01*
G01*
X3155025Y-1137715D02*
X3105025Y-1137715D01*
X3105025Y-1137715D02*
G75*
G03*
X3105025Y-1237715I0J-50000D01*
G01*
X3080025Y-3030015D02*
X3180025Y-3130015D01*
X3180025Y-3030015D02*
X3080025Y-3130015D01*
X3180025Y-3080015D02*
G75*
G02*
X3080025Y-3080015I-50000J0D01*
G01*
X3080025Y-3080015D02*
G75*
G02*
X3180025Y-3080015I50000J0D01*
G01*
X3105025Y-3130015D02*
X3155025Y-3130015D01*
X3155025Y-3030015D02*
G75*
G02*
X3155025Y-3130015I0J-50000D01*
G01*
X3155025Y-3030015D02*
X3105025Y-3030015D01*
X3105025Y-3030015D02*
G75*
G03*
X3105025Y-3130015I0J-50000D01*
G01*
X3080025Y-4934915D02*
X3180025Y-5034915D01*
X3180025Y-4934915D02*
X3080025Y-5034915D01*
X3180025Y-4984915D02*
G75*
G02*
X3080025Y-4984915I-50000J0D01*
G01*
X3080025Y-4984915D02*
G75*
G02*
X3180025Y-4984915I50000J0D01*
G01*
X3105025Y-5034915D02*
X3155025Y-5034915D01*
X3155025Y-4934915D02*
G75*
G02*
X3155025Y-5034915I0J-50000D01*
G01*
X3155025Y-4934915D02*
X3105025Y-4934915D01*
X3105025Y-4934915D02*
G75*
G03*
X3105025Y-5034915I0J-50000D01*
G01*
X3221345Y603545D02*
X3321345Y503545D01*
X3321345Y603545D02*
X3221345Y503545D01*
X3321345Y553545D02*
G75*
G02*
X3221345Y553545I-50000J0D01*
G01*
X3221345Y553545D02*
G75*
G02*
X3321345Y553545I50000J0D01*
G01*
X3475345Y603545D02*
X3575345Y503545D01*
X3575345Y603545D02*
X3475345Y503545D01*
X3575345Y553545D02*
G75*
G02*
X3475345Y553545I-50000J0D01*
G01*
X3475345Y553545D02*
G75*
G02*
X3575345Y553545I50000J0D01*
G01*
X3729345Y603545D02*
X3829345Y503545D01*
X3829345Y603545D02*
X3729345Y503545D01*
X3829345Y553545D02*
G75*
G02*
X3729345Y553545I-50000J0D01*
G01*
X3729345Y553545D02*
G75*
G02*
X3829345Y553545I50000J0D01*
G01*
X3983345Y603545D02*
X4083345Y503545D01*
X4083345Y603545D02*
X3983345Y503545D01*
X4083345Y553545D02*
G75*
G02*
X3983345Y553545I-50000J0D01*
G01*
X3983345Y553545D02*
G75*
G02*
X4083345Y553545I50000J0D01*
G01*
X4237345Y603545D02*
X4337345Y503545D01*
X4337345Y603545D02*
X4237345Y503545D01*
X4337345Y553545D02*
G75*
G02*
X4237345Y553545I-50000J0D01*
G01*
X4237345Y553545D02*
G75*
G02*
X4337345Y553545I50000J0D01*
G01*
X4491345Y603545D02*
X4591345Y503545D01*
X4591345Y603545D02*
X4491345Y503545D01*
X4591345Y553545D02*
G75*
G02*
X4491345Y553545I-50000J0D01*
G01*
X4491345Y553545D02*
G75*
G02*
X4591345Y553545I50000J0D01*
G01*
X4985025Y-1137715D02*
X5085025Y-1237715D01*
X5085025Y-1137715D02*
X4985025Y-1237715D01*
X5085025Y-1187715D02*
G75*
G02*
X4985025Y-1187715I-50000J0D01*
G01*
X4985025Y-1187715D02*
G75*
G02*
X5085025Y-1187715I50000J0D01*
G01*
X5010025Y-1237715D02*
X5060025Y-1237715D01*
X5060025Y-1137715D02*
G75*
G02*
X5060025Y-1237715I0J-50000D01*
G01*
X5060025Y-1137715D02*
X5010025Y-1137715D01*
X5010025Y-1137715D02*
G75*
G03*
X5010025Y-1237715I0J-50000D01*
G01*
X4985025Y-3030015D02*
X5085025Y-3130015D01*
X5085025Y-3030015D02*
X4985025Y-3130015D01*
X5085025Y-3080015D02*
G75*
G02*
X4985025Y-3080015I-50000J0D01*
G01*
X4985025Y-3080015D02*
G75*
G02*
X5085025Y-3080015I50000J0D01*
G01*
X5010025Y-3130015D02*
X5060025Y-3130015D01*
X5060025Y-3030015D02*
G75*
G02*
X5060025Y-3130015I0J-50000D01*
G01*
X5060025Y-3030015D02*
X5010025Y-3030015D01*
X5010025Y-3030015D02*
G75*
G03*
X5010025Y-3130015I0J-50000D01*
G01*
X4989025Y-8745015D02*
X5089025Y-8845015D01*
X5089025Y-8745015D02*
X4989025Y-8845015D01*
X5089025Y-8795015D02*
G75*
G02*
X4989025Y-8795015I-50000J0D01*
G01*
X4989025Y-8795015D02*
G75*
G02*
X5089025Y-8795015I50000J0D01*
G01*
X5014025Y-8845015D02*
X5064025Y-8845015D01*
X5064025Y-8745015D02*
G75*
G02*
X5064025Y-8845015I0J-50000D01*
G01*
X5064025Y-8745015D02*
X5014025Y-8745015D01*
X5014025Y-8745015D02*
G75*
G03*
X5014025Y-8845015I0J-50000D01*
G01*
X4993225Y-4934915D02*
X5093225Y-5034915D01*
X5093225Y-4934915D02*
X4993225Y-5034915D01*
X5093225Y-4984915D02*
G75*
G02*
X4993225Y-4984915I-50000J0D01*
G01*
X4993225Y-4984915D02*
G75*
G02*
X5093225Y-4984915I50000J0D01*
G01*
X5018225Y-5034915D02*
X5068225Y-5034915D01*
X5068225Y-4934915D02*
G75*
G02*
X5068225Y-5034915I0J-50000D01*
G01*
X5068225Y-4934915D02*
X5018225Y-4934915D01*
X5018225Y-4934915D02*
G75*
G03*
X5018225Y-5034915I0J-50000D01*
G01*
X4993225Y-6839915D02*
X5093225Y-6939915D01*
X5093225Y-6839915D02*
X4993225Y-6939915D01*
X5093225Y-6889915D02*
G75*
G02*
X4993225Y-6889915I-50000J0D01*
G01*
X4993225Y-6889915D02*
G75*
G02*
X5093225Y-6889915I50000J0D01*
G01*
X5018225Y-6939915D02*
X5068225Y-6939915D01*
X5068225Y-6839915D02*
G75*
G02*
X5068225Y-6939915I0J-50000D01*
G01*
X5068225Y-6839915D02*
X5018225Y-6839915D01*
X5018225Y-6839915D02*
G75*
G03*
X5018225Y-6939915I0J-50000D01*
G01*
X6686025Y2639585D02*
X6786025Y2539585D01*
X6786025Y2639585D02*
X6686025Y2539585D01*
X6786025Y2589585D02*
G75*
G02*
X6686025Y2589585I-50000J0D01*
G01*
X6686025Y2589585D02*
G75*
G02*
X6786025Y2589585I50000J0D01*
G01*
X6686025Y1189585D02*
X6786025Y1089585D01*
X6786025Y1189585D02*
X6686025Y1089585D01*
X6786025Y1139585D02*
G75*
G02*
X6686025Y1139585I-50000J0D01*
G01*
X6686025Y1139585D02*
G75*
G02*
X6786025Y1139585I50000J0D01*
G01*
X6894025Y-1137715D02*
X6994025Y-1237715D01*
X6994025Y-1137715D02*
X6894025Y-1237715D01*
X6994025Y-1187715D02*
G75*
G02*
X6894025Y-1187715I-50000J0D01*
G01*
X6894025Y-1187715D02*
G75*
G02*
X6994025Y-1187715I50000J0D01*
G01*
X6919025Y-1237715D02*
X6969025Y-1237715D01*
X6969025Y-1137715D02*
G75*
G02*
X6969025Y-1237715I0J-50000D01*
G01*
X6969025Y-1137715D02*
X6919025Y-1137715D01*
X6919025Y-1137715D02*
G75*
G03*
X6919025Y-1237715I0J-50000D01*
G01*
X6898225Y-6839915D02*
X6998225Y-6939915D01*
X6998225Y-6839915D02*
X6898225Y-6939915D01*
X6998225Y-6889915D02*
G75*
G02*
X6898225Y-6889915I-50000J0D01*
G01*
X6898225Y-6889915D02*
G75*
G02*
X6998225Y-6889915I50000J0D01*
G01*
X6923225Y-6939915D02*
X6973225Y-6939915D01*
X6973225Y-6839915D02*
G75*
G02*
X6973225Y-6939915I0J-50000D01*
G01*
X6973225Y-6839915D02*
X6923225Y-6839915D01*
X6923225Y-6839915D02*
G75*
G03*
X6923225Y-6939915I0J-50000D01*
G01*
X6899425Y-8745015D02*
X6999425Y-8845015D01*
X6999425Y-8745015D02*
X6899425Y-8845015D01*
X6999425Y-8795015D02*
G75*
G02*
X6899425Y-8795015I-50000J0D01*
G01*
X6899425Y-8795015D02*
G75*
G02*
X6999425Y-8795015I50000J0D01*
G01*
X6924425Y-8845015D02*
X6974425Y-8845015D01*
X6974425Y-8745015D02*
G75*
G02*
X6974425Y-8845015I0J-50000D01*
G01*
X6974425Y-8745015D02*
X6924425Y-8745015D01*
X6924425Y-8745015D02*
G75*
G03*
X6924425Y-8845015I0J-50000D01*
G01*
X6902725Y-3030015D02*
X7002725Y-3130015D01*
X7002725Y-3030015D02*
X6902725Y-3130015D01*
X7002725Y-3080015D02*
G75*
G02*
X6902725Y-3080015I-50000J0D01*
G01*
X6902725Y-3080015D02*
G75*
G02*
X7002725Y-3080015I50000J0D01*
G01*
X6927725Y-3130015D02*
X6977725Y-3130015D01*
X6977725Y-3030015D02*
G75*
G02*
X6977725Y-3130015I0J-50000D01*
G01*
X6977725Y-3030015D02*
X6927725Y-3030015D01*
X6927725Y-3030015D02*
G75*
G03*
X6927725Y-3130015I0J-50000D01*
G01*
X6902725Y-4935015D02*
X7002725Y-5035015D01*
X7002725Y-4935015D02*
X6902725Y-5035015D01*
X7002725Y-4985015D02*
G75*
G02*
X6902725Y-4985015I-50000J0D01*
G01*
X6902725Y-4985015D02*
G75*
G02*
X7002725Y-4985015I50000J0D01*
G01*
X6927725Y-5035015D02*
X6977725Y-5035015D01*
X6977725Y-4935015D02*
G75*
G02*
X6977725Y-5035015I0J-50000D01*
G01*
X6977725Y-4935015D02*
X6927725Y-4935015D01*
X6927725Y-4935015D02*
G75*
G03*
X6927725Y-5035015I0J-50000D01*
G01*
X6936025Y1189585D02*
X7036025Y1089585D01*
X7036025Y1189585D02*
X6936025Y1089585D01*
X7036025Y1139585D02*
G75*
G02*
X6936025Y1139585I-50000J0D01*
G01*
X6936025Y1139585D02*
G75*
G02*
X7036025Y1139585I50000J0D01*
G01*
X7186025Y2639585D02*
X7286025Y2539585D01*
X7286025Y2639585D02*
X7186025Y2539585D01*
X7286025Y2589585D02*
G75*
G02*
X7186025Y2589585I-50000J0D01*
G01*
X7186025Y2589585D02*
G75*
G02*
X7286025Y2589585I50000J0D01*
G01*
X7186025Y1189585D02*
X7286025Y1089585D01*
X7286025Y1189585D02*
X7186025Y1089585D01*
X7286025Y1139585D02*
G75*
G02*
X7186025Y1139585I-50000J0D01*
G01*
X7186025Y1139585D02*
G75*
G02*
X7286025Y1139585I50000J0D01*
G01*
D12*
X6351025Y1964585D02*
X6501025Y1814585D01*
X6501025Y1964585D02*
X6351025Y1814585D01*
X6426025Y1964585D02*
X6426025Y1814585D01*
X6351025Y1889585D02*
X6501025Y1889585D01*
D10*
X6501025Y1824585D02*
X6501025Y1954585D01*
X6351025Y1954585D02*
G75*
G02*
X6501025Y1954585I75000J0D01*
G01*
X6351025Y1954585D02*
X6351025Y1824585D01*
X6351025Y1824585D02*
G75*
G03*
X6501025Y1824585I75000J0D01*
G01*
D12*
X7471025Y1964585D02*
X7621025Y1814585D01*
X7621025Y1964585D02*
X7471025Y1814585D01*
X7546025Y1964585D02*
X7546025Y1814585D01*
X7471025Y1889585D02*
X7621025Y1889585D01*
D10*
X7621025Y1824585D02*
X7621025Y1954585D01*
X7471025Y1954585D02*
G75*
G02*
X7621025Y1954585I75000J0D01*
G01*
X7471025Y1954585D02*
X7471025Y1824585D01*
X7471025Y1824585D02*
G75*
G03*
X7621025Y1824585I75000J0D01*
G01*
D11*
X204801Y-9492099D02*
X204801Y-9292099D01*
X204801Y-9292099D02*
X252420Y-9292099D01*
X252420Y-9292099D02*
X280992Y-9301623D01*
X280992Y-9301623D02*
X300040Y-9320671D01*
X300040Y-9320671D02*
X309563Y-9339718D01*
X309563Y-9339718D02*
X319087Y-9377813D01*
X319087Y-9377813D02*
X319087Y-9406385D01*
X319087Y-9406385D02*
X309563Y-9444480D01*
X309563Y-9444480D02*
X300040Y-9463528D01*
X300040Y-9463528D02*
X280992Y-9482575D01*
X280992Y-9482575D02*
X252420Y-9492099D01*
X252420Y-9492099D02*
X204801Y-9492099D01*
X404801Y-9492099D02*
X404801Y-9358766D01*
X404801Y-9396861D02*
X414325Y-9377813D01*
X414325Y-9377813D02*
X423849Y-9368290D01*
X423849Y-9368290D02*
X442897Y-9358766D01*
X442897Y-9358766D02*
X461944Y-9358766D01*
X528611Y-9492099D02*
X528611Y-9358766D01*
X528611Y-9292099D02*
X519087Y-9301623D01*
X519087Y-9301623D02*
X528611Y-9311147D01*
X528611Y-9311147D02*
X538135Y-9301623D01*
X538135Y-9301623D02*
X528611Y-9292099D01*
X528611Y-9292099D02*
X528611Y-9311147D01*
X652420Y-9492099D02*
X633373Y-9482575D01*
X633373Y-9482575D02*
X623849Y-9463528D01*
X623849Y-9463528D02*
X623849Y-9292099D01*
X757182Y-9492099D02*
X738135Y-9482575D01*
X738135Y-9482575D02*
X728611Y-9463528D01*
X728611Y-9463528D02*
X728611Y-9292099D01*
X985754Y-9492099D02*
X985754Y-9292099D01*
X985754Y-9292099D02*
X1052421Y-9434956D01*
X1052421Y-9434956D02*
X1119087Y-9292099D01*
X1119087Y-9292099D02*
X1119087Y-9492099D01*
X1300040Y-9492099D02*
X1300040Y-9387337D01*
X1300040Y-9387337D02*
X1290516Y-9368290D01*
X1290516Y-9368290D02*
X1271468Y-9358766D01*
X1271468Y-9358766D02*
X1233373Y-9358766D01*
X1233373Y-9358766D02*
X1214325Y-9368290D01*
X1300040Y-9482575D02*
X1280992Y-9492099D01*
X1280992Y-9492099D02*
X1233373Y-9492099D01*
X1233373Y-9492099D02*
X1214325Y-9482575D01*
X1214325Y-9482575D02*
X1204801Y-9463528D01*
X1204801Y-9463528D02*
X1204801Y-9444480D01*
X1204801Y-9444480D02*
X1214325Y-9425433D01*
X1214325Y-9425433D02*
X1233373Y-9415909D01*
X1233373Y-9415909D02*
X1280992Y-9415909D01*
X1280992Y-9415909D02*
X1300040Y-9406385D01*
X1395278Y-9358766D02*
X1395278Y-9558766D01*
X1395278Y-9368290D02*
X1414325Y-9358766D01*
X1414325Y-9358766D02*
X1452420Y-9358766D01*
X1452420Y-9358766D02*
X1471468Y-9368290D01*
X1471468Y-9368290D02*
X1480992Y-9377813D01*
X1480992Y-9377813D02*
X1490516Y-9396861D01*
X1490516Y-9396861D02*
X1490516Y-9454004D01*
X1490516Y-9454004D02*
X1480992Y-9473052D01*
X1480992Y-9473052D02*
X1471468Y-9482575D01*
X1471468Y-9482575D02*
X1452420Y-9492099D01*
X1452420Y-9492099D02*
X1414325Y-9492099D01*
X1414325Y-9492099D02*
X1395278Y-9482575D01*
X1576230Y-9473052D02*
X1585754Y-9482575D01*
X1585754Y-9482575D02*
X1576230Y-9492099D01*
X1576230Y-9492099D02*
X1566706Y-9482575D01*
X1566706Y-9482575D02*
X1576230Y-9473052D01*
X1576230Y-9473052D02*
X1576230Y-9492099D01*
X1576230Y-9368290D02*
X1585754Y-9377813D01*
X1585754Y-9377813D02*
X1576230Y-9387337D01*
X1576230Y-9387337D02*
X1566706Y-9377813D01*
X1566706Y-9377813D02*
X1576230Y-9368290D01*
X1576230Y-9368290D02*
X1576230Y-9387337D01*
D10*
X-75975Y-9810615D02*
X-55975Y-9830615D01*
X-55975Y-9810615D02*
X-75975Y-9830615D01*
D11*
X242897Y-9712099D02*
X261944Y-9712099D01*
X261944Y-9712099D02*
X280992Y-9721623D01*
X280992Y-9721623D02*
X290516Y-9731147D01*
X290516Y-9731147D02*
X300040Y-9750194D01*
X300040Y-9750194D02*
X309563Y-9788290D01*
X309563Y-9788290D02*
X309563Y-9835909D01*
X309563Y-9835909D02*
X300040Y-9874004D01*
X300040Y-9874004D02*
X290516Y-9893052D01*
X290516Y-9893052D02*
X280992Y-9902575D01*
X280992Y-9902575D02*
X261944Y-9912099D01*
X261944Y-9912099D02*
X242897Y-9912099D01*
X242897Y-9912099D02*
X223849Y-9902575D01*
X223849Y-9902575D02*
X214325Y-9893052D01*
X214325Y-9893052D02*
X204801Y-9874004D01*
X204801Y-9874004D02*
X195278Y-9835909D01*
X195278Y-9835909D02*
X195278Y-9788290D01*
X195278Y-9788290D02*
X204801Y-9750194D01*
X204801Y-9750194D02*
X214325Y-9731147D01*
X214325Y-9731147D02*
X223849Y-9721623D01*
X223849Y-9721623D02*
X242897Y-9712099D01*
X395278Y-9893052D02*
X404801Y-9902575D01*
X404801Y-9902575D02*
X395278Y-9912099D01*
X395278Y-9912099D02*
X385754Y-9902575D01*
X385754Y-9902575D02*
X395278Y-9893052D01*
X395278Y-9893052D02*
X395278Y-9912099D01*
X480992Y-9731147D02*
X490516Y-9721623D01*
X490516Y-9721623D02*
X509563Y-9712099D01*
X509563Y-9712099D02*
X557182Y-9712099D01*
X557182Y-9712099D02*
X576230Y-9721623D01*
X576230Y-9721623D02*
X585754Y-9731147D01*
X585754Y-9731147D02*
X595278Y-9750194D01*
X595278Y-9750194D02*
X595278Y-9769242D01*
X595278Y-9769242D02*
X585754Y-9797813D01*
X585754Y-9797813D02*
X471468Y-9912099D01*
X471468Y-9912099D02*
X595278Y-9912099D01*
X719087Y-9712099D02*
X738135Y-9712099D01*
X738135Y-9712099D02*
X757182Y-9721623D01*
X757182Y-9721623D02*
X766706Y-9731147D01*
X766706Y-9731147D02*
X776230Y-9750194D01*
X776230Y-9750194D02*
X785754Y-9788290D01*
X785754Y-9788290D02*
X785754Y-9835909D01*
X785754Y-9835909D02*
X776230Y-9874004D01*
X776230Y-9874004D02*
X766706Y-9893052D01*
X766706Y-9893052D02*
X757182Y-9902575D01*
X757182Y-9902575D02*
X738135Y-9912099D01*
X738135Y-9912099D02*
X719087Y-9912099D01*
X719087Y-9912099D02*
X700039Y-9902575D01*
X700039Y-9902575D02*
X690516Y-9893052D01*
X690516Y-9893052D02*
X680992Y-9874004D01*
X680992Y-9874004D02*
X671468Y-9835909D01*
X671468Y-9835909D02*
X671468Y-9788290D01*
X671468Y-9788290D02*
X680992Y-9750194D01*
X680992Y-9750194D02*
X690516Y-9731147D01*
X690516Y-9731147D02*
X700039Y-9721623D01*
X700039Y-9721623D02*
X719087Y-9712099D01*
X909563Y-9712099D02*
X928611Y-9712099D01*
X928611Y-9712099D02*
X947659Y-9721623D01*
X947659Y-9721623D02*
X957182Y-9731147D01*
X957182Y-9731147D02*
X966706Y-9750194D01*
X966706Y-9750194D02*
X976230Y-9788290D01*
X976230Y-9788290D02*
X976230Y-9835909D01*
X976230Y-9835909D02*
X966706Y-9874004D01*
X966706Y-9874004D02*
X957182Y-9893052D01*
X957182Y-9893052D02*
X947659Y-9902575D01*
X947659Y-9902575D02*
X928611Y-9912099D01*
X928611Y-9912099D02*
X909563Y-9912099D01*
X909563Y-9912099D02*
X890516Y-9902575D01*
X890516Y-9902575D02*
X880992Y-9893052D01*
X880992Y-9893052D02*
X871468Y-9874004D01*
X871468Y-9874004D02*
X861944Y-9835909D01*
X861944Y-9835909D02*
X861944Y-9788290D01*
X861944Y-9788290D02*
X871468Y-9750194D01*
X871468Y-9750194D02*
X880992Y-9731147D01*
X880992Y-9731147D02*
X890516Y-9721623D01*
X890516Y-9721623D02*
X909563Y-9712099D01*
X1061944Y-9912099D02*
X1061944Y-9778766D01*
X1061944Y-9797813D02*
X1071468Y-9788290D01*
X1071468Y-9788290D02*
X1090516Y-9778766D01*
X1090516Y-9778766D02*
X1119087Y-9778766D01*
X1119087Y-9778766D02*
X1138135Y-9788290D01*
X1138135Y-9788290D02*
X1147659Y-9807337D01*
X1147659Y-9807337D02*
X1147659Y-9912099D01*
X1147659Y-9807337D02*
X1157182Y-9788290D01*
X1157182Y-9788290D02*
X1176230Y-9778766D01*
X1176230Y-9778766D02*
X1204801Y-9778766D01*
X1204801Y-9778766D02*
X1223849Y-9788290D01*
X1223849Y-9788290D02*
X1233373Y-9807337D01*
X1233373Y-9807337D02*
X1233373Y-9912099D01*
X1328611Y-9912099D02*
X1328611Y-9778766D01*
X1328611Y-9797813D02*
X1338135Y-9788290D01*
X1338135Y-9788290D02*
X1357182Y-9778766D01*
X1357182Y-9778766D02*
X1385754Y-9778766D01*
X1385754Y-9778766D02*
X1404801Y-9788290D01*
X1404801Y-9788290D02*
X1414325Y-9807337D01*
X1414325Y-9807337D02*
X1414325Y-9912099D01*
X1414325Y-9807337D02*
X1423849Y-9788290D01*
X1423849Y-9788290D02*
X1442897Y-9778766D01*
X1442897Y-9778766D02*
X1471468Y-9778766D01*
X1471468Y-9778766D02*
X1490516Y-9788290D01*
X1490516Y-9788290D02*
X1500040Y-9807337D01*
X1500040Y-9807337D02*
X1500040Y-9912099D01*
X1890516Y-9702575D02*
X1719087Y-9959718D01*
X2147659Y-9712099D02*
X2166706Y-9712099D01*
X2166706Y-9712099D02*
X2185754Y-9721623D01*
X2185754Y-9721623D02*
X2195278Y-9731147D01*
X2195278Y-9731147D02*
X2204802Y-9750194D01*
X2204802Y-9750194D02*
X2214325Y-9788290D01*
X2214325Y-9788290D02*
X2214325Y-9835909D01*
X2214325Y-9835909D02*
X2204802Y-9874004D01*
X2204802Y-9874004D02*
X2195278Y-9893052D01*
X2195278Y-9893052D02*
X2185754Y-9902575D01*
X2185754Y-9902575D02*
X2166706Y-9912099D01*
X2166706Y-9912099D02*
X2147659Y-9912099D01*
X2147659Y-9912099D02*
X2128611Y-9902575D01*
X2128611Y-9902575D02*
X2119087Y-9893052D01*
X2119087Y-9893052D02*
X2109564Y-9874004D01*
X2109564Y-9874004D02*
X2100040Y-9835909D01*
X2100040Y-9835909D02*
X2100040Y-9788290D01*
X2100040Y-9788290D02*
X2109564Y-9750194D01*
X2109564Y-9750194D02*
X2119087Y-9731147D01*
X2119087Y-9731147D02*
X2128611Y-9721623D01*
X2128611Y-9721623D02*
X2147659Y-9712099D01*
X2300040Y-9893052D02*
X2309564Y-9902575D01*
X2309564Y-9902575D02*
X2300040Y-9912099D01*
X2300040Y-9912099D02*
X2290516Y-9902575D01*
X2290516Y-9902575D02*
X2300040Y-9893052D01*
X2300040Y-9893052D02*
X2300040Y-9912099D01*
X2433373Y-9712099D02*
X2452421Y-9712099D01*
X2452421Y-9712099D02*
X2471468Y-9721623D01*
X2471468Y-9721623D02*
X2480992Y-9731147D01*
X2480992Y-9731147D02*
X2490516Y-9750194D01*
X2490516Y-9750194D02*
X2500040Y-9788290D01*
X2500040Y-9788290D02*
X2500040Y-9835909D01*
X2500040Y-9835909D02*
X2490516Y-9874004D01*
X2490516Y-9874004D02*
X2480992Y-9893052D01*
X2480992Y-9893052D02*
X2471468Y-9902575D01*
X2471468Y-9902575D02*
X2452421Y-9912099D01*
X2452421Y-9912099D02*
X2433373Y-9912099D01*
X2433373Y-9912099D02*
X2414325Y-9902575D01*
X2414325Y-9902575D02*
X2404802Y-9893052D01*
X2404802Y-9893052D02*
X2395278Y-9874004D01*
X2395278Y-9874004D02*
X2385754Y-9835909D01*
X2385754Y-9835909D02*
X2385754Y-9788290D01*
X2385754Y-9788290D02*
X2395278Y-9750194D01*
X2395278Y-9750194D02*
X2404802Y-9731147D01*
X2404802Y-9731147D02*
X2414325Y-9721623D01*
X2414325Y-9721623D02*
X2433373Y-9712099D01*
X2623849Y-9712099D02*
X2642897Y-9712099D01*
X2642897Y-9712099D02*
X2661945Y-9721623D01*
X2661945Y-9721623D02*
X2671468Y-9731147D01*
X2671468Y-9731147D02*
X2680992Y-9750194D01*
X2680992Y-9750194D02*
X2690516Y-9788290D01*
X2690516Y-9788290D02*
X2690516Y-9835909D01*
X2690516Y-9835909D02*
X2680992Y-9874004D01*
X2680992Y-9874004D02*
X2671468Y-9893052D01*
X2671468Y-9893052D02*
X2661945Y-9902575D01*
X2661945Y-9902575D02*
X2642897Y-9912099D01*
X2642897Y-9912099D02*
X2623849Y-9912099D01*
X2623849Y-9912099D02*
X2604802Y-9902575D01*
X2604802Y-9902575D02*
X2595278Y-9893052D01*
X2595278Y-9893052D02*
X2585754Y-9874004D01*
X2585754Y-9874004D02*
X2576230Y-9835909D01*
X2576230Y-9835909D02*
X2576230Y-9788290D01*
X2576230Y-9788290D02*
X2585754Y-9750194D01*
X2585754Y-9750194D02*
X2595278Y-9731147D01*
X2595278Y-9731147D02*
X2604802Y-9721623D01*
X2604802Y-9721623D02*
X2623849Y-9712099D01*
X2757183Y-9712099D02*
X2890516Y-9712099D01*
X2890516Y-9712099D02*
X2804802Y-9912099D01*
X2976230Y-9912099D02*
X3014325Y-9912099D01*
X3014325Y-9912099D02*
X3033373Y-9902575D01*
X3033373Y-9902575D02*
X3042897Y-9893052D01*
X3042897Y-9893052D02*
X3061944Y-9864480D01*
X3061944Y-9864480D02*
X3071468Y-9826385D01*
X3071468Y-9826385D02*
X3071468Y-9750194D01*
X3071468Y-9750194D02*
X3061944Y-9731147D01*
X3061944Y-9731147D02*
X3052421Y-9721623D01*
X3052421Y-9721623D02*
X3033373Y-9712099D01*
X3033373Y-9712099D02*
X2995278Y-9712099D01*
X2995278Y-9712099D02*
X2976230Y-9721623D01*
X2976230Y-9721623D02*
X2966706Y-9731147D01*
X2966706Y-9731147D02*
X2957183Y-9750194D01*
X2957183Y-9750194D02*
X2957183Y-9797813D01*
X2957183Y-9797813D02*
X2966706Y-9816861D01*
X2966706Y-9816861D02*
X2976230Y-9826385D01*
X2976230Y-9826385D02*
X2995278Y-9835909D01*
X2995278Y-9835909D02*
X3033373Y-9835909D01*
X3033373Y-9835909D02*
X3052421Y-9826385D01*
X3052421Y-9826385D02*
X3061944Y-9816861D01*
X3061944Y-9816861D02*
X3071468Y-9797813D01*
X3147659Y-9712099D02*
X3147659Y-9750194D01*
X3223849Y-9712099D02*
X3223849Y-9750194D01*
X3519087Y-9988290D02*
X3509564Y-9978766D01*
X3509564Y-9978766D02*
X3490516Y-9950194D01*
X3490516Y-9950194D02*
X3480992Y-9931147D01*
X3480992Y-9931147D02*
X3471468Y-9902575D01*
X3471468Y-9902575D02*
X3461945Y-9854956D01*
X3461945Y-9854956D02*
X3461945Y-9816861D01*
X3461945Y-9816861D02*
X3471468Y-9769242D01*
X3471468Y-9769242D02*
X3480992Y-9740671D01*
X3480992Y-9740671D02*
X3490516Y-9721623D01*
X3490516Y-9721623D02*
X3509564Y-9693052D01*
X3509564Y-9693052D02*
X3519087Y-9683528D01*
X3700040Y-9912099D02*
X3585754Y-9912099D01*
X3642897Y-9912099D02*
X3642897Y-9712099D01*
X3642897Y-9712099D02*
X3623849Y-9740671D01*
X3623849Y-9740671D02*
X3604802Y-9759718D01*
X3604802Y-9759718D02*
X3585754Y-9769242D01*
X3776230Y-9731147D02*
X3785754Y-9721623D01*
X3785754Y-9721623D02*
X3804802Y-9712099D01*
X3804802Y-9712099D02*
X3852421Y-9712099D01*
X3852421Y-9712099D02*
X3871468Y-9721623D01*
X3871468Y-9721623D02*
X3880992Y-9731147D01*
X3880992Y-9731147D02*
X3890516Y-9750194D01*
X3890516Y-9750194D02*
X3890516Y-9769242D01*
X3890516Y-9769242D02*
X3880992Y-9797813D01*
X3880992Y-9797813D02*
X3766706Y-9912099D01*
X3766706Y-9912099D02*
X3890516Y-9912099D01*
X4128611Y-9912099D02*
X4128611Y-9712099D01*
X4214326Y-9912099D02*
X4214326Y-9807337D01*
X4214326Y-9807337D02*
X4204802Y-9788290D01*
X4204802Y-9788290D02*
X4185754Y-9778766D01*
X4185754Y-9778766D02*
X4157183Y-9778766D01*
X4157183Y-9778766D02*
X4138135Y-9788290D01*
X4138135Y-9788290D02*
X4128611Y-9797813D01*
X4338135Y-9912099D02*
X4319088Y-9902575D01*
X4319088Y-9902575D02*
X4309564Y-9893052D01*
X4309564Y-9893052D02*
X4300040Y-9874004D01*
X4300040Y-9874004D02*
X4300040Y-9816861D01*
X4300040Y-9816861D02*
X4309564Y-9797813D01*
X4309564Y-9797813D02*
X4319088Y-9788290D01*
X4319088Y-9788290D02*
X4338135Y-9778766D01*
X4338135Y-9778766D02*
X4366707Y-9778766D01*
X4366707Y-9778766D02*
X4385754Y-9788290D01*
X4385754Y-9788290D02*
X4395278Y-9797813D01*
X4395278Y-9797813D02*
X4404802Y-9816861D01*
X4404802Y-9816861D02*
X4404802Y-9874004D01*
X4404802Y-9874004D02*
X4395278Y-9893052D01*
X4395278Y-9893052D02*
X4385754Y-9902575D01*
X4385754Y-9902575D02*
X4366707Y-9912099D01*
X4366707Y-9912099D02*
X4338135Y-9912099D01*
X4519088Y-9912099D02*
X4500040Y-9902575D01*
X4500040Y-9902575D02*
X4490516Y-9883528D01*
X4490516Y-9883528D02*
X4490516Y-9712099D01*
X4671469Y-9902575D02*
X4652421Y-9912099D01*
X4652421Y-9912099D02*
X4614326Y-9912099D01*
X4614326Y-9912099D02*
X4595278Y-9902575D01*
X4595278Y-9902575D02*
X4585754Y-9883528D01*
X4585754Y-9883528D02*
X4585754Y-9807337D01*
X4585754Y-9807337D02*
X4595278Y-9788290D01*
X4595278Y-9788290D02*
X4614326Y-9778766D01*
X4614326Y-9778766D02*
X4652421Y-9778766D01*
X4652421Y-9778766D02*
X4671469Y-9788290D01*
X4671469Y-9788290D02*
X4680992Y-9807337D01*
X4680992Y-9807337D02*
X4680992Y-9826385D01*
X4680992Y-9826385D02*
X4585754Y-9845433D01*
X4757183Y-9902575D02*
X4776230Y-9912099D01*
X4776230Y-9912099D02*
X4814326Y-9912099D01*
X4814326Y-9912099D02*
X4833373Y-9902575D01*
X4833373Y-9902575D02*
X4842897Y-9883528D01*
X4842897Y-9883528D02*
X4842897Y-9874004D01*
X4842897Y-9874004D02*
X4833373Y-9854956D01*
X4833373Y-9854956D02*
X4814326Y-9845433D01*
X4814326Y-9845433D02*
X4785754Y-9845433D01*
X4785754Y-9845433D02*
X4766707Y-9835909D01*
X4766707Y-9835909D02*
X4757183Y-9816861D01*
X4757183Y-9816861D02*
X4757183Y-9807337D01*
X4757183Y-9807337D02*
X4766707Y-9788290D01*
X4766707Y-9788290D02*
X4785754Y-9778766D01*
X4785754Y-9778766D02*
X4814326Y-9778766D01*
X4814326Y-9778766D02*
X4833373Y-9788290D01*
X4909564Y-9988290D02*
X4919088Y-9978766D01*
X4919088Y-9978766D02*
X4938135Y-9950194D01*
X4938135Y-9950194D02*
X4947659Y-9931147D01*
X4947659Y-9931147D02*
X4957183Y-9902575D01*
X4957183Y-9902575D02*
X4966707Y-9854956D01*
X4966707Y-9854956D02*
X4966707Y-9816861D01*
X4966707Y-9816861D02*
X4957183Y-9769242D01*
X4957183Y-9769242D02*
X4947659Y-9740671D01*
X4947659Y-9740671D02*
X4938135Y-9721623D01*
X4938135Y-9721623D02*
X4919088Y-9693052D01*
X4919088Y-9693052D02*
X4909564Y-9683528D01*
D10*
X-55975Y-10084615D02*
G75*
G02*
X-95975Y-10084615I-20000J0D01*
G01*
X-95975Y-10084615D02*
G75*
G02*
X-55975Y-10084615I20000J0D01*
G01*
D11*
X242897Y-9976099D02*
X261944Y-9976099D01*
X261944Y-9976099D02*
X280992Y-9985623D01*
X280992Y-9985623D02*
X290516Y-9995147D01*
X290516Y-9995147D02*
X300040Y-10014194D01*
X300040Y-10014194D02*
X309563Y-10052290D01*
X309563Y-10052290D02*
X309563Y-10099909D01*
X309563Y-10099909D02*
X300040Y-10138004D01*
X300040Y-10138004D02*
X290516Y-10157052D01*
X290516Y-10157052D02*
X280992Y-10166575D01*
X280992Y-10166575D02*
X261944Y-10176099D01*
X261944Y-10176099D02*
X242897Y-10176099D01*
X242897Y-10176099D02*
X223849Y-10166575D01*
X223849Y-10166575D02*
X214325Y-10157052D01*
X214325Y-10157052D02*
X204801Y-10138004D01*
X204801Y-10138004D02*
X195278Y-10099909D01*
X195278Y-10099909D02*
X195278Y-10052290D01*
X195278Y-10052290D02*
X204801Y-10014194D01*
X204801Y-10014194D02*
X214325Y-9995147D01*
X214325Y-9995147D02*
X223849Y-9985623D01*
X223849Y-9985623D02*
X242897Y-9976099D01*
X395278Y-10157052D02*
X404801Y-10166575D01*
X404801Y-10166575D02*
X395278Y-10176099D01*
X395278Y-10176099D02*
X385754Y-10166575D01*
X385754Y-10166575D02*
X395278Y-10157052D01*
X395278Y-10157052D02*
X395278Y-10176099D01*
X576230Y-10042766D02*
X576230Y-10176099D01*
X528611Y-9966575D02*
X480992Y-10109433D01*
X480992Y-10109433D02*
X604801Y-10109433D01*
X719087Y-9976099D02*
X738135Y-9976099D01*
X738135Y-9976099D02*
X757182Y-9985623D01*
X757182Y-9985623D02*
X766706Y-9995147D01*
X766706Y-9995147D02*
X776230Y-10014194D01*
X776230Y-10014194D02*
X785754Y-10052290D01*
X785754Y-10052290D02*
X785754Y-10099909D01*
X785754Y-10099909D02*
X776230Y-10138004D01*
X776230Y-10138004D02*
X766706Y-10157052D01*
X766706Y-10157052D02*
X757182Y-10166575D01*
X757182Y-10166575D02*
X738135Y-10176099D01*
X738135Y-10176099D02*
X719087Y-10176099D01*
X719087Y-10176099D02*
X700039Y-10166575D01*
X700039Y-10166575D02*
X690516Y-10157052D01*
X690516Y-10157052D02*
X680992Y-10138004D01*
X680992Y-10138004D02*
X671468Y-10099909D01*
X671468Y-10099909D02*
X671468Y-10052290D01*
X671468Y-10052290D02*
X680992Y-10014194D01*
X680992Y-10014194D02*
X690516Y-9995147D01*
X690516Y-9995147D02*
X700039Y-9985623D01*
X700039Y-9985623D02*
X719087Y-9976099D01*
X909563Y-9976099D02*
X928611Y-9976099D01*
X928611Y-9976099D02*
X947659Y-9985623D01*
X947659Y-9985623D02*
X957182Y-9995147D01*
X957182Y-9995147D02*
X966706Y-10014194D01*
X966706Y-10014194D02*
X976230Y-10052290D01*
X976230Y-10052290D02*
X976230Y-10099909D01*
X976230Y-10099909D02*
X966706Y-10138004D01*
X966706Y-10138004D02*
X957182Y-10157052D01*
X957182Y-10157052D02*
X947659Y-10166575D01*
X947659Y-10166575D02*
X928611Y-10176099D01*
X928611Y-10176099D02*
X909563Y-10176099D01*
X909563Y-10176099D02*
X890516Y-10166575D01*
X890516Y-10166575D02*
X880992Y-10157052D01*
X880992Y-10157052D02*
X871468Y-10138004D01*
X871468Y-10138004D02*
X861944Y-10099909D01*
X861944Y-10099909D02*
X861944Y-10052290D01*
X861944Y-10052290D02*
X871468Y-10014194D01*
X871468Y-10014194D02*
X880992Y-9995147D01*
X880992Y-9995147D02*
X890516Y-9985623D01*
X890516Y-9985623D02*
X909563Y-9976099D01*
X1061944Y-10176099D02*
X1061944Y-10042766D01*
X1061944Y-10061813D02*
X1071468Y-10052290D01*
X1071468Y-10052290D02*
X1090516Y-10042766D01*
X1090516Y-10042766D02*
X1119087Y-10042766D01*
X1119087Y-10042766D02*
X1138135Y-10052290D01*
X1138135Y-10052290D02*
X1147659Y-10071337D01*
X1147659Y-10071337D02*
X1147659Y-10176099D01*
X1147659Y-10071337D02*
X1157182Y-10052290D01*
X1157182Y-10052290D02*
X1176230Y-10042766D01*
X1176230Y-10042766D02*
X1204801Y-10042766D01*
X1204801Y-10042766D02*
X1223849Y-10052290D01*
X1223849Y-10052290D02*
X1233373Y-10071337D01*
X1233373Y-10071337D02*
X1233373Y-10176099D01*
X1328611Y-10176099D02*
X1328611Y-10042766D01*
X1328611Y-10061813D02*
X1338135Y-10052290D01*
X1338135Y-10052290D02*
X1357182Y-10042766D01*
X1357182Y-10042766D02*
X1385754Y-10042766D01*
X1385754Y-10042766D02*
X1404801Y-10052290D01*
X1404801Y-10052290D02*
X1414325Y-10071337D01*
X1414325Y-10071337D02*
X1414325Y-10176099D01*
X1414325Y-10071337D02*
X1423849Y-10052290D01*
X1423849Y-10052290D02*
X1442897Y-10042766D01*
X1442897Y-10042766D02*
X1471468Y-10042766D01*
X1471468Y-10042766D02*
X1490516Y-10052290D01*
X1490516Y-10052290D02*
X1500040Y-10071337D01*
X1500040Y-10071337D02*
X1500040Y-10176099D01*
X1890516Y-9966575D02*
X1719087Y-10223718D01*
X2147659Y-9976099D02*
X2166706Y-9976099D01*
X2166706Y-9976099D02*
X2185754Y-9985623D01*
X2185754Y-9985623D02*
X2195278Y-9995147D01*
X2195278Y-9995147D02*
X2204802Y-10014194D01*
X2204802Y-10014194D02*
X2214325Y-10052290D01*
X2214325Y-10052290D02*
X2214325Y-10099909D01*
X2214325Y-10099909D02*
X2204802Y-10138004D01*
X2204802Y-10138004D02*
X2195278Y-10157052D01*
X2195278Y-10157052D02*
X2185754Y-10166575D01*
X2185754Y-10166575D02*
X2166706Y-10176099D01*
X2166706Y-10176099D02*
X2147659Y-10176099D01*
X2147659Y-10176099D02*
X2128611Y-10166575D01*
X2128611Y-10166575D02*
X2119087Y-10157052D01*
X2119087Y-10157052D02*
X2109564Y-10138004D01*
X2109564Y-10138004D02*
X2100040Y-10099909D01*
X2100040Y-10099909D02*
X2100040Y-10052290D01*
X2100040Y-10052290D02*
X2109564Y-10014194D01*
X2109564Y-10014194D02*
X2119087Y-9995147D01*
X2119087Y-9995147D02*
X2128611Y-9985623D01*
X2128611Y-9985623D02*
X2147659Y-9976099D01*
X2300040Y-10157052D02*
X2309564Y-10166575D01*
X2309564Y-10166575D02*
X2300040Y-10176099D01*
X2300040Y-10176099D02*
X2290516Y-10166575D01*
X2290516Y-10166575D02*
X2300040Y-10157052D01*
X2300040Y-10157052D02*
X2300040Y-10176099D01*
X2433373Y-9976099D02*
X2452421Y-9976099D01*
X2452421Y-9976099D02*
X2471468Y-9985623D01*
X2471468Y-9985623D02*
X2480992Y-9995147D01*
X2480992Y-9995147D02*
X2490516Y-10014194D01*
X2490516Y-10014194D02*
X2500040Y-10052290D01*
X2500040Y-10052290D02*
X2500040Y-10099909D01*
X2500040Y-10099909D02*
X2490516Y-10138004D01*
X2490516Y-10138004D02*
X2480992Y-10157052D01*
X2480992Y-10157052D02*
X2471468Y-10166575D01*
X2471468Y-10166575D02*
X2452421Y-10176099D01*
X2452421Y-10176099D02*
X2433373Y-10176099D01*
X2433373Y-10176099D02*
X2414325Y-10166575D01*
X2414325Y-10166575D02*
X2404802Y-10157052D01*
X2404802Y-10157052D02*
X2395278Y-10138004D01*
X2395278Y-10138004D02*
X2385754Y-10099909D01*
X2385754Y-10099909D02*
X2385754Y-10052290D01*
X2385754Y-10052290D02*
X2395278Y-10014194D01*
X2395278Y-10014194D02*
X2404802Y-9995147D01*
X2404802Y-9995147D02*
X2414325Y-9985623D01*
X2414325Y-9985623D02*
X2433373Y-9976099D01*
X2690516Y-10176099D02*
X2576230Y-10176099D01*
X2633373Y-10176099D02*
X2633373Y-9976099D01*
X2633373Y-9976099D02*
X2614325Y-10004671D01*
X2614325Y-10004671D02*
X2595278Y-10023718D01*
X2595278Y-10023718D02*
X2576230Y-10033242D01*
X2871468Y-9976099D02*
X2776230Y-9976099D01*
X2776230Y-9976099D02*
X2766706Y-10071337D01*
X2766706Y-10071337D02*
X2776230Y-10061813D01*
X2776230Y-10061813D02*
X2795278Y-10052290D01*
X2795278Y-10052290D02*
X2842897Y-10052290D01*
X2842897Y-10052290D02*
X2861944Y-10061813D01*
X2861944Y-10061813D02*
X2871468Y-10071337D01*
X2871468Y-10071337D02*
X2880992Y-10090385D01*
X2880992Y-10090385D02*
X2880992Y-10138004D01*
X2880992Y-10138004D02*
X2871468Y-10157052D01*
X2871468Y-10157052D02*
X2861944Y-10166575D01*
X2861944Y-10166575D02*
X2842897Y-10176099D01*
X2842897Y-10176099D02*
X2795278Y-10176099D01*
X2795278Y-10176099D02*
X2776230Y-10166575D01*
X2776230Y-10166575D02*
X2766706Y-10157052D01*
X2947659Y-9976099D02*
X3080992Y-9976099D01*
X3080992Y-9976099D02*
X2995278Y-10176099D01*
X3147659Y-9976099D02*
X3147659Y-10014194D01*
X3223849Y-9976099D02*
X3223849Y-10014194D01*
X3519087Y-10252290D02*
X3509564Y-10242766D01*
X3509564Y-10242766D02*
X3490516Y-10214194D01*
X3490516Y-10214194D02*
X3480992Y-10195147D01*
X3480992Y-10195147D02*
X3471468Y-10166575D01*
X3471468Y-10166575D02*
X3461945Y-10118956D01*
X3461945Y-10118956D02*
X3461945Y-10080861D01*
X3461945Y-10080861D02*
X3471468Y-10033242D01*
X3471468Y-10033242D02*
X3480992Y-10004671D01*
X3480992Y-10004671D02*
X3490516Y-9985623D01*
X3490516Y-9985623D02*
X3509564Y-9957052D01*
X3509564Y-9957052D02*
X3519087Y-9947528D01*
X3585754Y-9995147D02*
X3595278Y-9985623D01*
X3595278Y-9985623D02*
X3614325Y-9976099D01*
X3614325Y-9976099D02*
X3661945Y-9976099D01*
X3661945Y-9976099D02*
X3680992Y-9985623D01*
X3680992Y-9985623D02*
X3690516Y-9995147D01*
X3690516Y-9995147D02*
X3700040Y-10014194D01*
X3700040Y-10014194D02*
X3700040Y-10033242D01*
X3700040Y-10033242D02*
X3690516Y-10061813D01*
X3690516Y-10061813D02*
X3576230Y-10176099D01*
X3576230Y-10176099D02*
X3700040Y-10176099D01*
X3766706Y-9976099D02*
X3890516Y-9976099D01*
X3890516Y-9976099D02*
X3823849Y-10052290D01*
X3823849Y-10052290D02*
X3852421Y-10052290D01*
X3852421Y-10052290D02*
X3871468Y-10061813D01*
X3871468Y-10061813D02*
X3880992Y-10071337D01*
X3880992Y-10071337D02*
X3890516Y-10090385D01*
X3890516Y-10090385D02*
X3890516Y-10138004D01*
X3890516Y-10138004D02*
X3880992Y-10157052D01*
X3880992Y-10157052D02*
X3871468Y-10166575D01*
X3871468Y-10166575D02*
X3852421Y-10176099D01*
X3852421Y-10176099D02*
X3795278Y-10176099D01*
X3795278Y-10176099D02*
X3776230Y-10166575D01*
X3776230Y-10166575D02*
X3766706Y-10157052D01*
X3985754Y-10176099D02*
X4023849Y-10176099D01*
X4023849Y-10176099D02*
X4042897Y-10166575D01*
X4042897Y-10166575D02*
X4052421Y-10157052D01*
X4052421Y-10157052D02*
X4071468Y-10128480D01*
X4071468Y-10128480D02*
X4080992Y-10090385D01*
X4080992Y-10090385D02*
X4080992Y-10014194D01*
X4080992Y-10014194D02*
X4071468Y-9995147D01*
X4071468Y-9995147D02*
X4061945Y-9985623D01*
X4061945Y-9985623D02*
X4042897Y-9976099D01*
X4042897Y-9976099D02*
X4004802Y-9976099D01*
X4004802Y-9976099D02*
X3985754Y-9985623D01*
X3985754Y-9985623D02*
X3976230Y-9995147D01*
X3976230Y-9995147D02*
X3966706Y-10014194D01*
X3966706Y-10014194D02*
X3966706Y-10061813D01*
X3966706Y-10061813D02*
X3976230Y-10080861D01*
X3976230Y-10080861D02*
X3985754Y-10090385D01*
X3985754Y-10090385D02*
X4004802Y-10099909D01*
X4004802Y-10099909D02*
X4042897Y-10099909D01*
X4042897Y-10099909D02*
X4061945Y-10090385D01*
X4061945Y-10090385D02*
X4071468Y-10080861D01*
X4071468Y-10080861D02*
X4080992Y-10061813D01*
X4319088Y-10176099D02*
X4319088Y-9976099D01*
X4404802Y-10176099D02*
X4404802Y-10071337D01*
X4404802Y-10071337D02*
X4395278Y-10052290D01*
X4395278Y-10052290D02*
X4376230Y-10042766D01*
X4376230Y-10042766D02*
X4347659Y-10042766D01*
X4347659Y-10042766D02*
X4328611Y-10052290D01*
X4328611Y-10052290D02*
X4319088Y-10061813D01*
X4528611Y-10176099D02*
X4509564Y-10166575D01*
X4509564Y-10166575D02*
X4500040Y-10157052D01*
X4500040Y-10157052D02*
X4490516Y-10138004D01*
X4490516Y-10138004D02*
X4490516Y-10080861D01*
X4490516Y-10080861D02*
X4500040Y-10061813D01*
X4500040Y-10061813D02*
X4509564Y-10052290D01*
X4509564Y-10052290D02*
X4528611Y-10042766D01*
X4528611Y-10042766D02*
X4557183Y-10042766D01*
X4557183Y-10042766D02*
X4576230Y-10052290D01*
X4576230Y-10052290D02*
X4585754Y-10061813D01*
X4585754Y-10061813D02*
X4595278Y-10080861D01*
X4595278Y-10080861D02*
X4595278Y-10138004D01*
X4595278Y-10138004D02*
X4585754Y-10157052D01*
X4585754Y-10157052D02*
X4576230Y-10166575D01*
X4576230Y-10166575D02*
X4557183Y-10176099D01*
X4557183Y-10176099D02*
X4528611Y-10176099D01*
X4709564Y-10176099D02*
X4690516Y-10166575D01*
X4690516Y-10166575D02*
X4680992Y-10147528D01*
X4680992Y-10147528D02*
X4680992Y-9976099D01*
X4861945Y-10166575D02*
X4842897Y-10176099D01*
X4842897Y-10176099D02*
X4804802Y-10176099D01*
X4804802Y-10176099D02*
X4785754Y-10166575D01*
X4785754Y-10166575D02*
X4776230Y-10147528D01*
X4776230Y-10147528D02*
X4776230Y-10071337D01*
X4776230Y-10071337D02*
X4785754Y-10052290D01*
X4785754Y-10052290D02*
X4804802Y-10042766D01*
X4804802Y-10042766D02*
X4842897Y-10042766D01*
X4842897Y-10042766D02*
X4861945Y-10052290D01*
X4861945Y-10052290D02*
X4871469Y-10071337D01*
X4871469Y-10071337D02*
X4871469Y-10090385D01*
X4871469Y-10090385D02*
X4776230Y-10109433D01*
X4947659Y-10166575D02*
X4966707Y-10176099D01*
X4966707Y-10176099D02*
X5004802Y-10176099D01*
X5004802Y-10176099D02*
X5023850Y-10166575D01*
X5023850Y-10166575D02*
X5033373Y-10147528D01*
X5033373Y-10147528D02*
X5033373Y-10138004D01*
X5033373Y-10138004D02*
X5023850Y-10118956D01*
X5023850Y-10118956D02*
X5004802Y-10109433D01*
X5004802Y-10109433D02*
X4976230Y-10109433D01*
X4976230Y-10109433D02*
X4957183Y-10099909D01*
X4957183Y-10099909D02*
X4947659Y-10080861D01*
X4947659Y-10080861D02*
X4947659Y-10071337D01*
X4947659Y-10071337D02*
X4957183Y-10052290D01*
X4957183Y-10052290D02*
X4976230Y-10042766D01*
X4976230Y-10042766D02*
X5004802Y-10042766D01*
X5004802Y-10042766D02*
X5023850Y-10052290D01*
X5100040Y-10252290D02*
X5109564Y-10242766D01*
X5109564Y-10242766D02*
X5128611Y-10214194D01*
X5128611Y-10214194D02*
X5138135Y-10195147D01*
X5138135Y-10195147D02*
X5147659Y-10166575D01*
X5147659Y-10166575D02*
X5157183Y-10118956D01*
X5157183Y-10118956D02*
X5157183Y-10080861D01*
X5157183Y-10080861D02*
X5147659Y-10033242D01*
X5147659Y-10033242D02*
X5138135Y-10004671D01*
X5138135Y-10004671D02*
X5128611Y-9985623D01*
X5128611Y-9985623D02*
X5109564Y-9957052D01*
X5109564Y-9957052D02*
X5100040Y-9947528D01*
D10*
X-85975Y-10318615D02*
X-85975Y-10378615D01*
X-115975Y-10348615D02*
X-55975Y-10348615D01*
D11*
X242897Y-10240099D02*
X261944Y-10240099D01*
X261944Y-10240099D02*
X280992Y-10249623D01*
X280992Y-10249623D02*
X290516Y-10259147D01*
X290516Y-10259147D02*
X300040Y-10278194D01*
X300040Y-10278194D02*
X309563Y-10316290D01*
X309563Y-10316290D02*
X309563Y-10363909D01*
X309563Y-10363909D02*
X300040Y-10402004D01*
X300040Y-10402004D02*
X290516Y-10421052D01*
X290516Y-10421052D02*
X280992Y-10430575D01*
X280992Y-10430575D02*
X261944Y-10440099D01*
X261944Y-10440099D02*
X242897Y-10440099D01*
X242897Y-10440099D02*
X223849Y-10430575D01*
X223849Y-10430575D02*
X214325Y-10421052D01*
X214325Y-10421052D02*
X204801Y-10402004D01*
X204801Y-10402004D02*
X195278Y-10363909D01*
X195278Y-10363909D02*
X195278Y-10316290D01*
X195278Y-10316290D02*
X204801Y-10278194D01*
X204801Y-10278194D02*
X214325Y-10259147D01*
X214325Y-10259147D02*
X223849Y-10249623D01*
X223849Y-10249623D02*
X242897Y-10240099D01*
X395278Y-10421052D02*
X404801Y-10430575D01*
X404801Y-10430575D02*
X395278Y-10440099D01*
X395278Y-10440099D02*
X385754Y-10430575D01*
X385754Y-10430575D02*
X395278Y-10421052D01*
X395278Y-10421052D02*
X395278Y-10440099D01*
X576230Y-10240099D02*
X538135Y-10240099D01*
X538135Y-10240099D02*
X519087Y-10249623D01*
X519087Y-10249623D02*
X509563Y-10259147D01*
X509563Y-10259147D02*
X490516Y-10287718D01*
X490516Y-10287718D02*
X480992Y-10325813D01*
X480992Y-10325813D02*
X480992Y-10402004D01*
X480992Y-10402004D02*
X490516Y-10421052D01*
X490516Y-10421052D02*
X500039Y-10430575D01*
X500039Y-10430575D02*
X519087Y-10440099D01*
X519087Y-10440099D02*
X557182Y-10440099D01*
X557182Y-10440099D02*
X576230Y-10430575D01*
X576230Y-10430575D02*
X585754Y-10421052D01*
X585754Y-10421052D02*
X595278Y-10402004D01*
X595278Y-10402004D02*
X595278Y-10354385D01*
X595278Y-10354385D02*
X585754Y-10335337D01*
X585754Y-10335337D02*
X576230Y-10325813D01*
X576230Y-10325813D02*
X557182Y-10316290D01*
X557182Y-10316290D02*
X519087Y-10316290D01*
X519087Y-10316290D02*
X500039Y-10325813D01*
X500039Y-10325813D02*
X490516Y-10335337D01*
X490516Y-10335337D02*
X480992Y-10354385D01*
X719087Y-10240099D02*
X738135Y-10240099D01*
X738135Y-10240099D02*
X757182Y-10249623D01*
X757182Y-10249623D02*
X766706Y-10259147D01*
X766706Y-10259147D02*
X776230Y-10278194D01*
X776230Y-10278194D02*
X785754Y-10316290D01*
X785754Y-10316290D02*
X785754Y-10363909D01*
X785754Y-10363909D02*
X776230Y-10402004D01*
X776230Y-10402004D02*
X766706Y-10421052D01*
X766706Y-10421052D02*
X757182Y-10430575D01*
X757182Y-10430575D02*
X738135Y-10440099D01*
X738135Y-10440099D02*
X719087Y-10440099D01*
X719087Y-10440099D02*
X700039Y-10430575D01*
X700039Y-10430575D02*
X690516Y-10421052D01*
X690516Y-10421052D02*
X680992Y-10402004D01*
X680992Y-10402004D02*
X671468Y-10363909D01*
X671468Y-10363909D02*
X671468Y-10316290D01*
X671468Y-10316290D02*
X680992Y-10278194D01*
X680992Y-10278194D02*
X690516Y-10259147D01*
X690516Y-10259147D02*
X700039Y-10249623D01*
X700039Y-10249623D02*
X719087Y-10240099D01*
X909563Y-10240099D02*
X928611Y-10240099D01*
X928611Y-10240099D02*
X947659Y-10249623D01*
X947659Y-10249623D02*
X957182Y-10259147D01*
X957182Y-10259147D02*
X966706Y-10278194D01*
X966706Y-10278194D02*
X976230Y-10316290D01*
X976230Y-10316290D02*
X976230Y-10363909D01*
X976230Y-10363909D02*
X966706Y-10402004D01*
X966706Y-10402004D02*
X957182Y-10421052D01*
X957182Y-10421052D02*
X947659Y-10430575D01*
X947659Y-10430575D02*
X928611Y-10440099D01*
X928611Y-10440099D02*
X909563Y-10440099D01*
X909563Y-10440099D02*
X890516Y-10430575D01*
X890516Y-10430575D02*
X880992Y-10421052D01*
X880992Y-10421052D02*
X871468Y-10402004D01*
X871468Y-10402004D02*
X861944Y-10363909D01*
X861944Y-10363909D02*
X861944Y-10316290D01*
X861944Y-10316290D02*
X871468Y-10278194D01*
X871468Y-10278194D02*
X880992Y-10259147D01*
X880992Y-10259147D02*
X890516Y-10249623D01*
X890516Y-10249623D02*
X909563Y-10240099D01*
X1061944Y-10440099D02*
X1061944Y-10306766D01*
X1061944Y-10325813D02*
X1071468Y-10316290D01*
X1071468Y-10316290D02*
X1090516Y-10306766D01*
X1090516Y-10306766D02*
X1119087Y-10306766D01*
X1119087Y-10306766D02*
X1138135Y-10316290D01*
X1138135Y-10316290D02*
X1147659Y-10335337D01*
X1147659Y-10335337D02*
X1147659Y-10440099D01*
X1147659Y-10335337D02*
X1157182Y-10316290D01*
X1157182Y-10316290D02*
X1176230Y-10306766D01*
X1176230Y-10306766D02*
X1204801Y-10306766D01*
X1204801Y-10306766D02*
X1223849Y-10316290D01*
X1223849Y-10316290D02*
X1233373Y-10335337D01*
X1233373Y-10335337D02*
X1233373Y-10440099D01*
X1328611Y-10440099D02*
X1328611Y-10306766D01*
X1328611Y-10325813D02*
X1338135Y-10316290D01*
X1338135Y-10316290D02*
X1357182Y-10306766D01*
X1357182Y-10306766D02*
X1385754Y-10306766D01*
X1385754Y-10306766D02*
X1404801Y-10316290D01*
X1404801Y-10316290D02*
X1414325Y-10335337D01*
X1414325Y-10335337D02*
X1414325Y-10440099D01*
X1414325Y-10335337D02*
X1423849Y-10316290D01*
X1423849Y-10316290D02*
X1442897Y-10306766D01*
X1442897Y-10306766D02*
X1471468Y-10306766D01*
X1471468Y-10306766D02*
X1490516Y-10316290D01*
X1490516Y-10316290D02*
X1500040Y-10335337D01*
X1500040Y-10335337D02*
X1500040Y-10440099D01*
X1890516Y-10230575D02*
X1719087Y-10487718D01*
X2147659Y-10240099D02*
X2166706Y-10240099D01*
X2166706Y-10240099D02*
X2185754Y-10249623D01*
X2185754Y-10249623D02*
X2195278Y-10259147D01*
X2195278Y-10259147D02*
X2204802Y-10278194D01*
X2204802Y-10278194D02*
X2214325Y-10316290D01*
X2214325Y-10316290D02*
X2214325Y-10363909D01*
X2214325Y-10363909D02*
X2204802Y-10402004D01*
X2204802Y-10402004D02*
X2195278Y-10421052D01*
X2195278Y-10421052D02*
X2185754Y-10430575D01*
X2185754Y-10430575D02*
X2166706Y-10440099D01*
X2166706Y-10440099D02*
X2147659Y-10440099D01*
X2147659Y-10440099D02*
X2128611Y-10430575D01*
X2128611Y-10430575D02*
X2119087Y-10421052D01*
X2119087Y-10421052D02*
X2109564Y-10402004D01*
X2109564Y-10402004D02*
X2100040Y-10363909D01*
X2100040Y-10363909D02*
X2100040Y-10316290D01*
X2100040Y-10316290D02*
X2109564Y-10278194D01*
X2109564Y-10278194D02*
X2119087Y-10259147D01*
X2119087Y-10259147D02*
X2128611Y-10249623D01*
X2128611Y-10249623D02*
X2147659Y-10240099D01*
X2300040Y-10421052D02*
X2309564Y-10430575D01*
X2309564Y-10430575D02*
X2300040Y-10440099D01*
X2300040Y-10440099D02*
X2290516Y-10430575D01*
X2290516Y-10430575D02*
X2300040Y-10421052D01*
X2300040Y-10421052D02*
X2300040Y-10440099D01*
X2433373Y-10240099D02*
X2452421Y-10240099D01*
X2452421Y-10240099D02*
X2471468Y-10249623D01*
X2471468Y-10249623D02*
X2480992Y-10259147D01*
X2480992Y-10259147D02*
X2490516Y-10278194D01*
X2490516Y-10278194D02*
X2500040Y-10316290D01*
X2500040Y-10316290D02*
X2500040Y-10363909D01*
X2500040Y-10363909D02*
X2490516Y-10402004D01*
X2490516Y-10402004D02*
X2480992Y-10421052D01*
X2480992Y-10421052D02*
X2471468Y-10430575D01*
X2471468Y-10430575D02*
X2452421Y-10440099D01*
X2452421Y-10440099D02*
X2433373Y-10440099D01*
X2433373Y-10440099D02*
X2414325Y-10430575D01*
X2414325Y-10430575D02*
X2404802Y-10421052D01*
X2404802Y-10421052D02*
X2395278Y-10402004D01*
X2395278Y-10402004D02*
X2385754Y-10363909D01*
X2385754Y-10363909D02*
X2385754Y-10316290D01*
X2385754Y-10316290D02*
X2395278Y-10278194D01*
X2395278Y-10278194D02*
X2404802Y-10259147D01*
X2404802Y-10259147D02*
X2414325Y-10249623D01*
X2414325Y-10249623D02*
X2433373Y-10240099D01*
X2576230Y-10259147D02*
X2585754Y-10249623D01*
X2585754Y-10249623D02*
X2604802Y-10240099D01*
X2604802Y-10240099D02*
X2652421Y-10240099D01*
X2652421Y-10240099D02*
X2671468Y-10249623D01*
X2671468Y-10249623D02*
X2680992Y-10259147D01*
X2680992Y-10259147D02*
X2690516Y-10278194D01*
X2690516Y-10278194D02*
X2690516Y-10297242D01*
X2690516Y-10297242D02*
X2680992Y-10325813D01*
X2680992Y-10325813D02*
X2566706Y-10440099D01*
X2566706Y-10440099D02*
X2690516Y-10440099D01*
X2757183Y-10240099D02*
X2880992Y-10240099D01*
X2880992Y-10240099D02*
X2814325Y-10316290D01*
X2814325Y-10316290D02*
X2842897Y-10316290D01*
X2842897Y-10316290D02*
X2861944Y-10325813D01*
X2861944Y-10325813D02*
X2871468Y-10335337D01*
X2871468Y-10335337D02*
X2880992Y-10354385D01*
X2880992Y-10354385D02*
X2880992Y-10402004D01*
X2880992Y-10402004D02*
X2871468Y-10421052D01*
X2871468Y-10421052D02*
X2861944Y-10430575D01*
X2861944Y-10430575D02*
X2842897Y-10440099D01*
X2842897Y-10440099D02*
X2785754Y-10440099D01*
X2785754Y-10440099D02*
X2766706Y-10430575D01*
X2766706Y-10430575D02*
X2757183Y-10421052D01*
X3052421Y-10240099D02*
X3014325Y-10240099D01*
X3014325Y-10240099D02*
X2995278Y-10249623D01*
X2995278Y-10249623D02*
X2985754Y-10259147D01*
X2985754Y-10259147D02*
X2966706Y-10287718D01*
X2966706Y-10287718D02*
X2957183Y-10325813D01*
X2957183Y-10325813D02*
X2957183Y-10402004D01*
X2957183Y-10402004D02*
X2966706Y-10421052D01*
X2966706Y-10421052D02*
X2976230Y-10430575D01*
X2976230Y-10430575D02*
X2995278Y-10440099D01*
X2995278Y-10440099D02*
X3033373Y-10440099D01*
X3033373Y-10440099D02*
X3052421Y-10430575D01*
X3052421Y-10430575D02*
X3061944Y-10421052D01*
X3061944Y-10421052D02*
X3071468Y-10402004D01*
X3071468Y-10402004D02*
X3071468Y-10354385D01*
X3071468Y-10354385D02*
X3061944Y-10335337D01*
X3061944Y-10335337D02*
X3052421Y-10325813D01*
X3052421Y-10325813D02*
X3033373Y-10316290D01*
X3033373Y-10316290D02*
X2995278Y-10316290D01*
X2995278Y-10316290D02*
X2976230Y-10325813D01*
X2976230Y-10325813D02*
X2966706Y-10335337D01*
X2966706Y-10335337D02*
X2957183Y-10354385D01*
X3147659Y-10240099D02*
X3147659Y-10278194D01*
X3223849Y-10240099D02*
X3223849Y-10278194D01*
X3519087Y-10516290D02*
X3509564Y-10506766D01*
X3509564Y-10506766D02*
X3490516Y-10478194D01*
X3490516Y-10478194D02*
X3480992Y-10459147D01*
X3480992Y-10459147D02*
X3471468Y-10430575D01*
X3471468Y-10430575D02*
X3461945Y-10382956D01*
X3461945Y-10382956D02*
X3461945Y-10344861D01*
X3461945Y-10344861D02*
X3471468Y-10297242D01*
X3471468Y-10297242D02*
X3480992Y-10268671D01*
X3480992Y-10268671D02*
X3490516Y-10249623D01*
X3490516Y-10249623D02*
X3509564Y-10221052D01*
X3509564Y-10221052D02*
X3519087Y-10211528D01*
X3633373Y-10240099D02*
X3652421Y-10240099D01*
X3652421Y-10240099D02*
X3671468Y-10249623D01*
X3671468Y-10249623D02*
X3680992Y-10259147D01*
X3680992Y-10259147D02*
X3690516Y-10278194D01*
X3690516Y-10278194D02*
X3700040Y-10316290D01*
X3700040Y-10316290D02*
X3700040Y-10363909D01*
X3700040Y-10363909D02*
X3690516Y-10402004D01*
X3690516Y-10402004D02*
X3680992Y-10421052D01*
X3680992Y-10421052D02*
X3671468Y-10430575D01*
X3671468Y-10430575D02*
X3652421Y-10440099D01*
X3652421Y-10440099D02*
X3633373Y-10440099D01*
X3633373Y-10440099D02*
X3614325Y-10430575D01*
X3614325Y-10430575D02*
X3604802Y-10421052D01*
X3604802Y-10421052D02*
X3595278Y-10402004D01*
X3595278Y-10402004D02*
X3585754Y-10363909D01*
X3585754Y-10363909D02*
X3585754Y-10316290D01*
X3585754Y-10316290D02*
X3595278Y-10278194D01*
X3595278Y-10278194D02*
X3604802Y-10259147D01*
X3604802Y-10259147D02*
X3614325Y-10249623D01*
X3614325Y-10249623D02*
X3633373Y-10240099D01*
X3938135Y-10440099D02*
X3938135Y-10240099D01*
X4023849Y-10440099D02*
X4023849Y-10335337D01*
X4023849Y-10335337D02*
X4014326Y-10316290D01*
X4014326Y-10316290D02*
X3995278Y-10306766D01*
X3995278Y-10306766D02*
X3966706Y-10306766D01*
X3966706Y-10306766D02*
X3947659Y-10316290D01*
X3947659Y-10316290D02*
X3938135Y-10325813D01*
X4147659Y-10440099D02*
X4128611Y-10430575D01*
X4128611Y-10430575D02*
X4119087Y-10421052D01*
X4119087Y-10421052D02*
X4109564Y-10402004D01*
X4109564Y-10402004D02*
X4109564Y-10344861D01*
X4109564Y-10344861D02*
X4119087Y-10325813D01*
X4119087Y-10325813D02*
X4128611Y-10316290D01*
X4128611Y-10316290D02*
X4147659Y-10306766D01*
X4147659Y-10306766D02*
X4176230Y-10306766D01*
X4176230Y-10306766D02*
X4195278Y-10316290D01*
X4195278Y-10316290D02*
X4204802Y-10325813D01*
X4204802Y-10325813D02*
X4214326Y-10344861D01*
X4214326Y-10344861D02*
X4214326Y-10402004D01*
X4214326Y-10402004D02*
X4204802Y-10421052D01*
X4204802Y-10421052D02*
X4195278Y-10430575D01*
X4195278Y-10430575D02*
X4176230Y-10440099D01*
X4176230Y-10440099D02*
X4147659Y-10440099D01*
X4328611Y-10440099D02*
X4309564Y-10430575D01*
X4309564Y-10430575D02*
X4300040Y-10411528D01*
X4300040Y-10411528D02*
X4300040Y-10240099D01*
X4480992Y-10430575D02*
X4461945Y-10440099D01*
X4461945Y-10440099D02*
X4423849Y-10440099D01*
X4423849Y-10440099D02*
X4404802Y-10430575D01*
X4404802Y-10430575D02*
X4395278Y-10411528D01*
X4395278Y-10411528D02*
X4395278Y-10335337D01*
X4395278Y-10335337D02*
X4404802Y-10316290D01*
X4404802Y-10316290D02*
X4423849Y-10306766D01*
X4423849Y-10306766D02*
X4461945Y-10306766D01*
X4461945Y-10306766D02*
X4480992Y-10316290D01*
X4480992Y-10316290D02*
X4490516Y-10335337D01*
X4490516Y-10335337D02*
X4490516Y-10354385D01*
X4490516Y-10354385D02*
X4395278Y-10373433D01*
X4566707Y-10430575D02*
X4585754Y-10440099D01*
X4585754Y-10440099D02*
X4623849Y-10440099D01*
X4623849Y-10440099D02*
X4642897Y-10430575D01*
X4642897Y-10430575D02*
X4652421Y-10411528D01*
X4652421Y-10411528D02*
X4652421Y-10402004D01*
X4652421Y-10402004D02*
X4642897Y-10382956D01*
X4642897Y-10382956D02*
X4623849Y-10373433D01*
X4623849Y-10373433D02*
X4595278Y-10373433D01*
X4595278Y-10373433D02*
X4576230Y-10363909D01*
X4576230Y-10363909D02*
X4566707Y-10344861D01*
X4566707Y-10344861D02*
X4566707Y-10335337D01*
X4566707Y-10335337D02*
X4576230Y-10316290D01*
X4576230Y-10316290D02*
X4595278Y-10306766D01*
X4595278Y-10306766D02*
X4623849Y-10306766D01*
X4623849Y-10306766D02*
X4642897Y-10316290D01*
X4890516Y-10363909D02*
X5042897Y-10363909D01*
X4966707Y-10440099D02*
X4966707Y-10287718D01*
X5376231Y-10306766D02*
X5376231Y-10440099D01*
X5328611Y-10230575D02*
X5280992Y-10373433D01*
X5280992Y-10373433D02*
X5404802Y-10373433D01*
X5623850Y-10430575D02*
X5642897Y-10440099D01*
X5642897Y-10440099D02*
X5680992Y-10440099D01*
X5680992Y-10440099D02*
X5700040Y-10430575D01*
X5700040Y-10430575D02*
X5709564Y-10411528D01*
X5709564Y-10411528D02*
X5709564Y-10402004D01*
X5709564Y-10402004D02*
X5700040Y-10382956D01*
X5700040Y-10382956D02*
X5680992Y-10373433D01*
X5680992Y-10373433D02*
X5652421Y-10373433D01*
X5652421Y-10373433D02*
X5633373Y-10363909D01*
X5633373Y-10363909D02*
X5623850Y-10344861D01*
X5623850Y-10344861D02*
X5623850Y-10335337D01*
X5623850Y-10335337D02*
X5633373Y-10316290D01*
X5633373Y-10316290D02*
X5652421Y-10306766D01*
X5652421Y-10306766D02*
X5680992Y-10306766D01*
X5680992Y-10306766D02*
X5700040Y-10316290D01*
X5823850Y-10440099D02*
X5804802Y-10430575D01*
X5804802Y-10430575D02*
X5795278Y-10411528D01*
X5795278Y-10411528D02*
X5795278Y-10240099D01*
X5928611Y-10440099D02*
X5909564Y-10430575D01*
X5909564Y-10430575D02*
X5900040Y-10421052D01*
X5900040Y-10421052D02*
X5890516Y-10402004D01*
X5890516Y-10402004D02*
X5890516Y-10344861D01*
X5890516Y-10344861D02*
X5900040Y-10325813D01*
X5900040Y-10325813D02*
X5909564Y-10316290D01*
X5909564Y-10316290D02*
X5928611Y-10306766D01*
X5928611Y-10306766D02*
X5957183Y-10306766D01*
X5957183Y-10306766D02*
X5976231Y-10316290D01*
X5976231Y-10316290D02*
X5985754Y-10325813D01*
X5985754Y-10325813D02*
X5995278Y-10344861D01*
X5995278Y-10344861D02*
X5995278Y-10402004D01*
X5995278Y-10402004D02*
X5985754Y-10421052D01*
X5985754Y-10421052D02*
X5976231Y-10430575D01*
X5976231Y-10430575D02*
X5957183Y-10440099D01*
X5957183Y-10440099D02*
X5928611Y-10440099D01*
X6052421Y-10306766D02*
X6128611Y-10306766D01*
X6080992Y-10240099D02*
X6080992Y-10411528D01*
X6080992Y-10411528D02*
X6090516Y-10430575D01*
X6090516Y-10430575D02*
X6109564Y-10440099D01*
X6109564Y-10440099D02*
X6128611Y-10440099D01*
X6185754Y-10430575D02*
X6204802Y-10440099D01*
X6204802Y-10440099D02*
X6242897Y-10440099D01*
X6242897Y-10440099D02*
X6261945Y-10430575D01*
X6261945Y-10430575D02*
X6271469Y-10411528D01*
X6271469Y-10411528D02*
X6271469Y-10402004D01*
X6271469Y-10402004D02*
X6261945Y-10382956D01*
X6261945Y-10382956D02*
X6242897Y-10373433D01*
X6242897Y-10373433D02*
X6214326Y-10373433D01*
X6214326Y-10373433D02*
X6195278Y-10363909D01*
X6195278Y-10363909D02*
X6185754Y-10344861D01*
X6185754Y-10344861D02*
X6185754Y-10335337D01*
X6185754Y-10335337D02*
X6195278Y-10316290D01*
X6195278Y-10316290D02*
X6214326Y-10306766D01*
X6214326Y-10306766D02*
X6242897Y-10306766D01*
X6242897Y-10306766D02*
X6261945Y-10316290D01*
X6338135Y-10516290D02*
X6347659Y-10506766D01*
X6347659Y-10506766D02*
X6366707Y-10478194D01*
X6366707Y-10478194D02*
X6376231Y-10459147D01*
X6376231Y-10459147D02*
X6385754Y-10430575D01*
X6385754Y-10430575D02*
X6395278Y-10382956D01*
X6395278Y-10382956D02*
X6395278Y-10344861D01*
X6395278Y-10344861D02*
X6385754Y-10297242D01*
X6385754Y-10297242D02*
X6376231Y-10268671D01*
X6376231Y-10268671D02*
X6366707Y-10249623D01*
X6366707Y-10249623D02*
X6347659Y-10221052D01*
X6347659Y-10221052D02*
X6338135Y-10211528D01*
D10*
X-66959Y-10639132D02*
X-66959Y-10586099D01*
X-119992Y-10586099D01*
X-119992Y-10639132D01*
X-66959Y-10639132D01*
D11*
X242897Y-10504099D02*
X261944Y-10504099D01*
X261944Y-10504099D02*
X280992Y-10513623D01*
X280992Y-10513623D02*
X290516Y-10523147D01*
X290516Y-10523147D02*
X300040Y-10542194D01*
X300040Y-10542194D02*
X309563Y-10580290D01*
X309563Y-10580290D02*
X309563Y-10627909D01*
X309563Y-10627909D02*
X300040Y-10666004D01*
X300040Y-10666004D02*
X290516Y-10685052D01*
X290516Y-10685052D02*
X280992Y-10694575D01*
X280992Y-10694575D02*
X261944Y-10704099D01*
X261944Y-10704099D02*
X242897Y-10704099D01*
X242897Y-10704099D02*
X223849Y-10694575D01*
X223849Y-10694575D02*
X214325Y-10685052D01*
X214325Y-10685052D02*
X204801Y-10666004D01*
X204801Y-10666004D02*
X195278Y-10627909D01*
X195278Y-10627909D02*
X195278Y-10580290D01*
X195278Y-10580290D02*
X204801Y-10542194D01*
X204801Y-10542194D02*
X214325Y-10523147D01*
X214325Y-10523147D02*
X223849Y-10513623D01*
X223849Y-10513623D02*
X242897Y-10504099D01*
X395278Y-10685052D02*
X404801Y-10694575D01*
X404801Y-10694575D02*
X395278Y-10704099D01*
X395278Y-10704099D02*
X385754Y-10694575D01*
X385754Y-10694575D02*
X395278Y-10685052D01*
X395278Y-10685052D02*
X395278Y-10704099D01*
X471468Y-10504099D02*
X604801Y-10504099D01*
X604801Y-10504099D02*
X519087Y-10704099D01*
X776230Y-10504099D02*
X680992Y-10504099D01*
X680992Y-10504099D02*
X671468Y-10599337D01*
X671468Y-10599337D02*
X680992Y-10589813D01*
X680992Y-10589813D02*
X700039Y-10580290D01*
X700039Y-10580290D02*
X747659Y-10580290D01*
X747659Y-10580290D02*
X766706Y-10589813D01*
X766706Y-10589813D02*
X776230Y-10599337D01*
X776230Y-10599337D02*
X785754Y-10618385D01*
X785754Y-10618385D02*
X785754Y-10666004D01*
X785754Y-10666004D02*
X776230Y-10685052D01*
X776230Y-10685052D02*
X766706Y-10694575D01*
X766706Y-10694575D02*
X747659Y-10704099D01*
X747659Y-10704099D02*
X700039Y-10704099D01*
X700039Y-10704099D02*
X680992Y-10694575D01*
X680992Y-10694575D02*
X671468Y-10685052D01*
X909563Y-10504099D02*
X928611Y-10504099D01*
X928611Y-10504099D02*
X947659Y-10513623D01*
X947659Y-10513623D02*
X957182Y-10523147D01*
X957182Y-10523147D02*
X966706Y-10542194D01*
X966706Y-10542194D02*
X976230Y-10580290D01*
X976230Y-10580290D02*
X976230Y-10627909D01*
X976230Y-10627909D02*
X966706Y-10666004D01*
X966706Y-10666004D02*
X957182Y-10685052D01*
X957182Y-10685052D02*
X947659Y-10694575D01*
X947659Y-10694575D02*
X928611Y-10704099D01*
X928611Y-10704099D02*
X909563Y-10704099D01*
X909563Y-10704099D02*
X890516Y-10694575D01*
X890516Y-10694575D02*
X880992Y-10685052D01*
X880992Y-10685052D02*
X871468Y-10666004D01*
X871468Y-10666004D02*
X861944Y-10627909D01*
X861944Y-10627909D02*
X861944Y-10580290D01*
X861944Y-10580290D02*
X871468Y-10542194D01*
X871468Y-10542194D02*
X880992Y-10523147D01*
X880992Y-10523147D02*
X890516Y-10513623D01*
X890516Y-10513623D02*
X909563Y-10504099D01*
X1061944Y-10704099D02*
X1061944Y-10570766D01*
X1061944Y-10589813D02*
X1071468Y-10580290D01*
X1071468Y-10580290D02*
X1090516Y-10570766D01*
X1090516Y-10570766D02*
X1119087Y-10570766D01*
X1119087Y-10570766D02*
X1138135Y-10580290D01*
X1138135Y-10580290D02*
X1147659Y-10599337D01*
X1147659Y-10599337D02*
X1147659Y-10704099D01*
X1147659Y-10599337D02*
X1157182Y-10580290D01*
X1157182Y-10580290D02*
X1176230Y-10570766D01*
X1176230Y-10570766D02*
X1204801Y-10570766D01*
X1204801Y-10570766D02*
X1223849Y-10580290D01*
X1223849Y-10580290D02*
X1233373Y-10599337D01*
X1233373Y-10599337D02*
X1233373Y-10704099D01*
X1328611Y-10704099D02*
X1328611Y-10570766D01*
X1328611Y-10589813D02*
X1338135Y-10580290D01*
X1338135Y-10580290D02*
X1357182Y-10570766D01*
X1357182Y-10570766D02*
X1385754Y-10570766D01*
X1385754Y-10570766D02*
X1404801Y-10580290D01*
X1404801Y-10580290D02*
X1414325Y-10599337D01*
X1414325Y-10599337D02*
X1414325Y-10704099D01*
X1414325Y-10599337D02*
X1423849Y-10580290D01*
X1423849Y-10580290D02*
X1442897Y-10570766D01*
X1442897Y-10570766D02*
X1471468Y-10570766D01*
X1471468Y-10570766D02*
X1490516Y-10580290D01*
X1490516Y-10580290D02*
X1500040Y-10599337D01*
X1500040Y-10599337D02*
X1500040Y-10704099D01*
X1890516Y-10494575D02*
X1719087Y-10751718D01*
X2147659Y-10504099D02*
X2166706Y-10504099D01*
X2166706Y-10504099D02*
X2185754Y-10513623D01*
X2185754Y-10513623D02*
X2195278Y-10523147D01*
X2195278Y-10523147D02*
X2204802Y-10542194D01*
X2204802Y-10542194D02*
X2214325Y-10580290D01*
X2214325Y-10580290D02*
X2214325Y-10627909D01*
X2214325Y-10627909D02*
X2204802Y-10666004D01*
X2204802Y-10666004D02*
X2195278Y-10685052D01*
X2195278Y-10685052D02*
X2185754Y-10694575D01*
X2185754Y-10694575D02*
X2166706Y-10704099D01*
X2166706Y-10704099D02*
X2147659Y-10704099D01*
X2147659Y-10704099D02*
X2128611Y-10694575D01*
X2128611Y-10694575D02*
X2119087Y-10685052D01*
X2119087Y-10685052D02*
X2109564Y-10666004D01*
X2109564Y-10666004D02*
X2100040Y-10627909D01*
X2100040Y-10627909D02*
X2100040Y-10580290D01*
X2100040Y-10580290D02*
X2109564Y-10542194D01*
X2109564Y-10542194D02*
X2119087Y-10523147D01*
X2119087Y-10523147D02*
X2128611Y-10513623D01*
X2128611Y-10513623D02*
X2147659Y-10504099D01*
X2300040Y-10685052D02*
X2309564Y-10694575D01*
X2309564Y-10694575D02*
X2300040Y-10704099D01*
X2300040Y-10704099D02*
X2290516Y-10694575D01*
X2290516Y-10694575D02*
X2300040Y-10685052D01*
X2300040Y-10685052D02*
X2300040Y-10704099D01*
X2433373Y-10504099D02*
X2452421Y-10504099D01*
X2452421Y-10504099D02*
X2471468Y-10513623D01*
X2471468Y-10513623D02*
X2480992Y-10523147D01*
X2480992Y-10523147D02*
X2490516Y-10542194D01*
X2490516Y-10542194D02*
X2500040Y-10580290D01*
X2500040Y-10580290D02*
X2500040Y-10627909D01*
X2500040Y-10627909D02*
X2490516Y-10666004D01*
X2490516Y-10666004D02*
X2480992Y-10685052D01*
X2480992Y-10685052D02*
X2471468Y-10694575D01*
X2471468Y-10694575D02*
X2452421Y-10704099D01*
X2452421Y-10704099D02*
X2433373Y-10704099D01*
X2433373Y-10704099D02*
X2414325Y-10694575D01*
X2414325Y-10694575D02*
X2404802Y-10685052D01*
X2404802Y-10685052D02*
X2395278Y-10666004D01*
X2395278Y-10666004D02*
X2385754Y-10627909D01*
X2385754Y-10627909D02*
X2385754Y-10580290D01*
X2385754Y-10580290D02*
X2395278Y-10542194D01*
X2395278Y-10542194D02*
X2404802Y-10523147D01*
X2404802Y-10523147D02*
X2414325Y-10513623D01*
X2414325Y-10513623D02*
X2433373Y-10504099D01*
X2576230Y-10523147D02*
X2585754Y-10513623D01*
X2585754Y-10513623D02*
X2604802Y-10504099D01*
X2604802Y-10504099D02*
X2652421Y-10504099D01*
X2652421Y-10504099D02*
X2671468Y-10513623D01*
X2671468Y-10513623D02*
X2680992Y-10523147D01*
X2680992Y-10523147D02*
X2690516Y-10542194D01*
X2690516Y-10542194D02*
X2690516Y-10561242D01*
X2690516Y-10561242D02*
X2680992Y-10589813D01*
X2680992Y-10589813D02*
X2566706Y-10704099D01*
X2566706Y-10704099D02*
X2690516Y-10704099D01*
X2785754Y-10704099D02*
X2823849Y-10704099D01*
X2823849Y-10704099D02*
X2842897Y-10694575D01*
X2842897Y-10694575D02*
X2852421Y-10685052D01*
X2852421Y-10685052D02*
X2871468Y-10656480D01*
X2871468Y-10656480D02*
X2880992Y-10618385D01*
X2880992Y-10618385D02*
X2880992Y-10542194D01*
X2880992Y-10542194D02*
X2871468Y-10523147D01*
X2871468Y-10523147D02*
X2861944Y-10513623D01*
X2861944Y-10513623D02*
X2842897Y-10504099D01*
X2842897Y-10504099D02*
X2804802Y-10504099D01*
X2804802Y-10504099D02*
X2785754Y-10513623D01*
X2785754Y-10513623D02*
X2776230Y-10523147D01*
X2776230Y-10523147D02*
X2766706Y-10542194D01*
X2766706Y-10542194D02*
X2766706Y-10589813D01*
X2766706Y-10589813D02*
X2776230Y-10608861D01*
X2776230Y-10608861D02*
X2785754Y-10618385D01*
X2785754Y-10618385D02*
X2804802Y-10627909D01*
X2804802Y-10627909D02*
X2842897Y-10627909D01*
X2842897Y-10627909D02*
X2861944Y-10618385D01*
X2861944Y-10618385D02*
X2871468Y-10608861D01*
X2871468Y-10608861D02*
X2880992Y-10589813D01*
X3061944Y-10504099D02*
X2966706Y-10504099D01*
X2966706Y-10504099D02*
X2957183Y-10599337D01*
X2957183Y-10599337D02*
X2966706Y-10589813D01*
X2966706Y-10589813D02*
X2985754Y-10580290D01*
X2985754Y-10580290D02*
X3033373Y-10580290D01*
X3033373Y-10580290D02*
X3052421Y-10589813D01*
X3052421Y-10589813D02*
X3061944Y-10599337D01*
X3061944Y-10599337D02*
X3071468Y-10618385D01*
X3071468Y-10618385D02*
X3071468Y-10666004D01*
X3071468Y-10666004D02*
X3061944Y-10685052D01*
X3061944Y-10685052D02*
X3052421Y-10694575D01*
X3052421Y-10694575D02*
X3033373Y-10704099D01*
X3033373Y-10704099D02*
X2985754Y-10704099D01*
X2985754Y-10704099D02*
X2966706Y-10694575D01*
X2966706Y-10694575D02*
X2957183Y-10685052D01*
X3147659Y-10504099D02*
X3147659Y-10542194D01*
X3223849Y-10504099D02*
X3223849Y-10542194D01*
X3519087Y-10780290D02*
X3509564Y-10770766D01*
X3509564Y-10770766D02*
X3490516Y-10742194D01*
X3490516Y-10742194D02*
X3480992Y-10723147D01*
X3480992Y-10723147D02*
X3471468Y-10694575D01*
X3471468Y-10694575D02*
X3461945Y-10646956D01*
X3461945Y-10646956D02*
X3461945Y-10608861D01*
X3461945Y-10608861D02*
X3471468Y-10561242D01*
X3471468Y-10561242D02*
X3480992Y-10532671D01*
X3480992Y-10532671D02*
X3490516Y-10513623D01*
X3490516Y-10513623D02*
X3509564Y-10485052D01*
X3509564Y-10485052D02*
X3519087Y-10475528D01*
X3633373Y-10504099D02*
X3652421Y-10504099D01*
X3652421Y-10504099D02*
X3671468Y-10513623D01*
X3671468Y-10513623D02*
X3680992Y-10523147D01*
X3680992Y-10523147D02*
X3690516Y-10542194D01*
X3690516Y-10542194D02*
X3700040Y-10580290D01*
X3700040Y-10580290D02*
X3700040Y-10627909D01*
X3700040Y-10627909D02*
X3690516Y-10666004D01*
X3690516Y-10666004D02*
X3680992Y-10685052D01*
X3680992Y-10685052D02*
X3671468Y-10694575D01*
X3671468Y-10694575D02*
X3652421Y-10704099D01*
X3652421Y-10704099D02*
X3633373Y-10704099D01*
X3633373Y-10704099D02*
X3614325Y-10694575D01*
X3614325Y-10694575D02*
X3604802Y-10685052D01*
X3604802Y-10685052D02*
X3595278Y-10666004D01*
X3595278Y-10666004D02*
X3585754Y-10627909D01*
X3585754Y-10627909D02*
X3585754Y-10580290D01*
X3585754Y-10580290D02*
X3595278Y-10542194D01*
X3595278Y-10542194D02*
X3604802Y-10523147D01*
X3604802Y-10523147D02*
X3614325Y-10513623D01*
X3614325Y-10513623D02*
X3633373Y-10504099D01*
X3938135Y-10704099D02*
X3938135Y-10504099D01*
X4023849Y-10704099D02*
X4023849Y-10599337D01*
X4023849Y-10599337D02*
X4014326Y-10580290D01*
X4014326Y-10580290D02*
X3995278Y-10570766D01*
X3995278Y-10570766D02*
X3966706Y-10570766D01*
X3966706Y-10570766D02*
X3947659Y-10580290D01*
X3947659Y-10580290D02*
X3938135Y-10589813D01*
X4147659Y-10704099D02*
X4128611Y-10694575D01*
X4128611Y-10694575D02*
X4119087Y-10685052D01*
X4119087Y-10685052D02*
X4109564Y-10666004D01*
X4109564Y-10666004D02*
X4109564Y-10608861D01*
X4109564Y-10608861D02*
X4119087Y-10589813D01*
X4119087Y-10589813D02*
X4128611Y-10580290D01*
X4128611Y-10580290D02*
X4147659Y-10570766D01*
X4147659Y-10570766D02*
X4176230Y-10570766D01*
X4176230Y-10570766D02*
X4195278Y-10580290D01*
X4195278Y-10580290D02*
X4204802Y-10589813D01*
X4204802Y-10589813D02*
X4214326Y-10608861D01*
X4214326Y-10608861D02*
X4214326Y-10666004D01*
X4214326Y-10666004D02*
X4204802Y-10685052D01*
X4204802Y-10685052D02*
X4195278Y-10694575D01*
X4195278Y-10694575D02*
X4176230Y-10704099D01*
X4176230Y-10704099D02*
X4147659Y-10704099D01*
X4328611Y-10704099D02*
X4309564Y-10694575D01*
X4309564Y-10694575D02*
X4300040Y-10675528D01*
X4300040Y-10675528D02*
X4300040Y-10504099D01*
X4480992Y-10694575D02*
X4461945Y-10704099D01*
X4461945Y-10704099D02*
X4423849Y-10704099D01*
X4423849Y-10704099D02*
X4404802Y-10694575D01*
X4404802Y-10694575D02*
X4395278Y-10675528D01*
X4395278Y-10675528D02*
X4395278Y-10599337D01*
X4395278Y-10599337D02*
X4404802Y-10580290D01*
X4404802Y-10580290D02*
X4423849Y-10570766D01*
X4423849Y-10570766D02*
X4461945Y-10570766D01*
X4461945Y-10570766D02*
X4480992Y-10580290D01*
X4480992Y-10580290D02*
X4490516Y-10599337D01*
X4490516Y-10599337D02*
X4490516Y-10618385D01*
X4490516Y-10618385D02*
X4395278Y-10637433D01*
X4566707Y-10694575D02*
X4585754Y-10704099D01*
X4585754Y-10704099D02*
X4623849Y-10704099D01*
X4623849Y-10704099D02*
X4642897Y-10694575D01*
X4642897Y-10694575D02*
X4652421Y-10675528D01*
X4652421Y-10675528D02*
X4652421Y-10666004D01*
X4652421Y-10666004D02*
X4642897Y-10646956D01*
X4642897Y-10646956D02*
X4623849Y-10637433D01*
X4623849Y-10637433D02*
X4595278Y-10637433D01*
X4595278Y-10637433D02*
X4576230Y-10627909D01*
X4576230Y-10627909D02*
X4566707Y-10608861D01*
X4566707Y-10608861D02*
X4566707Y-10599337D01*
X4566707Y-10599337D02*
X4576230Y-10580290D01*
X4576230Y-10580290D02*
X4595278Y-10570766D01*
X4595278Y-10570766D02*
X4623849Y-10570766D01*
X4623849Y-10570766D02*
X4642897Y-10580290D01*
X4890516Y-10627909D02*
X5042897Y-10627909D01*
X4966707Y-10704099D02*
X4966707Y-10551718D01*
X5376231Y-10570766D02*
X5376231Y-10704099D01*
X5328611Y-10494575D02*
X5280992Y-10637433D01*
X5280992Y-10637433D02*
X5404802Y-10637433D01*
X5519088Y-10504099D02*
X5538135Y-10504099D01*
X5538135Y-10504099D02*
X5557183Y-10513623D01*
X5557183Y-10513623D02*
X5566707Y-10523147D01*
X5566707Y-10523147D02*
X5576231Y-10542194D01*
X5576231Y-10542194D02*
X5585754Y-10580290D01*
X5585754Y-10580290D02*
X5585754Y-10627909D01*
X5585754Y-10627909D02*
X5576231Y-10666004D01*
X5576231Y-10666004D02*
X5566707Y-10685052D01*
X5566707Y-10685052D02*
X5557183Y-10694575D01*
X5557183Y-10694575D02*
X5538135Y-10704099D01*
X5538135Y-10704099D02*
X5519088Y-10704099D01*
X5519088Y-10704099D02*
X5500040Y-10694575D01*
X5500040Y-10694575D02*
X5490516Y-10685052D01*
X5490516Y-10685052D02*
X5480992Y-10666004D01*
X5480992Y-10666004D02*
X5471469Y-10627909D01*
X5471469Y-10627909D02*
X5471469Y-10580290D01*
X5471469Y-10580290D02*
X5480992Y-10542194D01*
X5480992Y-10542194D02*
X5490516Y-10523147D01*
X5490516Y-10523147D02*
X5500040Y-10513623D01*
X5500040Y-10513623D02*
X5519088Y-10504099D01*
X5814326Y-10694575D02*
X5833373Y-10704099D01*
X5833373Y-10704099D02*
X5871469Y-10704099D01*
X5871469Y-10704099D02*
X5890516Y-10694575D01*
X5890516Y-10694575D02*
X5900040Y-10675528D01*
X5900040Y-10675528D02*
X5900040Y-10666004D01*
X5900040Y-10666004D02*
X5890516Y-10646956D01*
X5890516Y-10646956D02*
X5871469Y-10637433D01*
X5871469Y-10637433D02*
X5842897Y-10637433D01*
X5842897Y-10637433D02*
X5823850Y-10627909D01*
X5823850Y-10627909D02*
X5814326Y-10608861D01*
X5814326Y-10608861D02*
X5814326Y-10599337D01*
X5814326Y-10599337D02*
X5823850Y-10580290D01*
X5823850Y-10580290D02*
X5842897Y-10570766D01*
X5842897Y-10570766D02*
X5871469Y-10570766D01*
X5871469Y-10570766D02*
X5890516Y-10580290D01*
X6014326Y-10704099D02*
X5995278Y-10694575D01*
X5995278Y-10694575D02*
X5985754Y-10675528D01*
X5985754Y-10675528D02*
X5985754Y-10504099D01*
X6119088Y-10704099D02*
X6100040Y-10694575D01*
X6100040Y-10694575D02*
X6090516Y-10685052D01*
X6090516Y-10685052D02*
X6080992Y-10666004D01*
X6080992Y-10666004D02*
X6080992Y-10608861D01*
X6080992Y-10608861D02*
X6090516Y-10589813D01*
X6090516Y-10589813D02*
X6100040Y-10580290D01*
X6100040Y-10580290D02*
X6119088Y-10570766D01*
X6119088Y-10570766D02*
X6147659Y-10570766D01*
X6147659Y-10570766D02*
X6166707Y-10580290D01*
X6166707Y-10580290D02*
X6176231Y-10589813D01*
X6176231Y-10589813D02*
X6185754Y-10608861D01*
X6185754Y-10608861D02*
X6185754Y-10666004D01*
X6185754Y-10666004D02*
X6176231Y-10685052D01*
X6176231Y-10685052D02*
X6166707Y-10694575D01*
X6166707Y-10694575D02*
X6147659Y-10704099D01*
X6147659Y-10704099D02*
X6119088Y-10704099D01*
X6242897Y-10570766D02*
X6319088Y-10570766D01*
X6271469Y-10504099D02*
X6271469Y-10675528D01*
X6271469Y-10675528D02*
X6280992Y-10694575D01*
X6280992Y-10694575D02*
X6300040Y-10704099D01*
X6300040Y-10704099D02*
X6319088Y-10704099D01*
X6376231Y-10694575D02*
X6395278Y-10704099D01*
X6395278Y-10704099D02*
X6433373Y-10704099D01*
X6433373Y-10704099D02*
X6452421Y-10694575D01*
X6452421Y-10694575D02*
X6461945Y-10675528D01*
X6461945Y-10675528D02*
X6461945Y-10666004D01*
X6461945Y-10666004D02*
X6452421Y-10646956D01*
X6452421Y-10646956D02*
X6433373Y-10637433D01*
X6433373Y-10637433D02*
X6404802Y-10637433D01*
X6404802Y-10637433D02*
X6385754Y-10627909D01*
X6385754Y-10627909D02*
X6376231Y-10608861D01*
X6376231Y-10608861D02*
X6376231Y-10599337D01*
X6376231Y-10599337D02*
X6385754Y-10580290D01*
X6385754Y-10580290D02*
X6404802Y-10570766D01*
X6404802Y-10570766D02*
X6433373Y-10570766D01*
X6433373Y-10570766D02*
X6452421Y-10580290D01*
X6528612Y-10780290D02*
X6538135Y-10770766D01*
X6538135Y-10770766D02*
X6557183Y-10742194D01*
X6557183Y-10742194D02*
X6566707Y-10723147D01*
X6566707Y-10723147D02*
X6576231Y-10694575D01*
X6576231Y-10694575D02*
X6585754Y-10646956D01*
X6585754Y-10646956D02*
X6585754Y-10608861D01*
X6585754Y-10608861D02*
X6576231Y-10561242D01*
X6576231Y-10561242D02*
X6566707Y-10532671D01*
X6566707Y-10532671D02*
X6557183Y-10513623D01*
X6557183Y-10513623D02*
X6538135Y-10485052D01*
X6538135Y-10485052D02*
X6528612Y-10475528D01*
D10*
X-95975Y-10916615D02*
X-55975Y-10876615D01*
X-95975Y-10836615D01*
X-135975Y-10876615D01*
X-95975Y-10916615D01*
D11*
X242897Y-10768099D02*
X261944Y-10768099D01*
X261944Y-10768099D02*
X280992Y-10777623D01*
X280992Y-10777623D02*
X290516Y-10787147D01*
X290516Y-10787147D02*
X300040Y-10806194D01*
X300040Y-10806194D02*
X309563Y-10844290D01*
X309563Y-10844290D02*
X309563Y-10891909D01*
X309563Y-10891909D02*
X300040Y-10930004D01*
X300040Y-10930004D02*
X290516Y-10949052D01*
X290516Y-10949052D02*
X280992Y-10958575D01*
X280992Y-10958575D02*
X261944Y-10968099D01*
X261944Y-10968099D02*
X242897Y-10968099D01*
X242897Y-10968099D02*
X223849Y-10958575D01*
X223849Y-10958575D02*
X214325Y-10949052D01*
X214325Y-10949052D02*
X204801Y-10930004D01*
X204801Y-10930004D02*
X195278Y-10891909D01*
X195278Y-10891909D02*
X195278Y-10844290D01*
X195278Y-10844290D02*
X204801Y-10806194D01*
X204801Y-10806194D02*
X214325Y-10787147D01*
X214325Y-10787147D02*
X223849Y-10777623D01*
X223849Y-10777623D02*
X242897Y-10768099D01*
X395278Y-10949052D02*
X404801Y-10958575D01*
X404801Y-10958575D02*
X395278Y-10968099D01*
X395278Y-10968099D02*
X385754Y-10958575D01*
X385754Y-10958575D02*
X395278Y-10949052D01*
X395278Y-10949052D02*
X395278Y-10968099D01*
X519087Y-10853813D02*
X500039Y-10844290D01*
X500039Y-10844290D02*
X490516Y-10834766D01*
X490516Y-10834766D02*
X480992Y-10815718D01*
X480992Y-10815718D02*
X480992Y-10806194D01*
X480992Y-10806194D02*
X490516Y-10787147D01*
X490516Y-10787147D02*
X500039Y-10777623D01*
X500039Y-10777623D02*
X519087Y-10768099D01*
X519087Y-10768099D02*
X557182Y-10768099D01*
X557182Y-10768099D02*
X576230Y-10777623D01*
X576230Y-10777623D02*
X585754Y-10787147D01*
X585754Y-10787147D02*
X595278Y-10806194D01*
X595278Y-10806194D02*
X595278Y-10815718D01*
X595278Y-10815718D02*
X585754Y-10834766D01*
X585754Y-10834766D02*
X576230Y-10844290D01*
X576230Y-10844290D02*
X557182Y-10853813D01*
X557182Y-10853813D02*
X519087Y-10853813D01*
X519087Y-10853813D02*
X500039Y-10863337D01*
X500039Y-10863337D02*
X490516Y-10872861D01*
X490516Y-10872861D02*
X480992Y-10891909D01*
X480992Y-10891909D02*
X480992Y-10930004D01*
X480992Y-10930004D02*
X490516Y-10949052D01*
X490516Y-10949052D02*
X500039Y-10958575D01*
X500039Y-10958575D02*
X519087Y-10968099D01*
X519087Y-10968099D02*
X557182Y-10968099D01*
X557182Y-10968099D02*
X576230Y-10958575D01*
X576230Y-10958575D02*
X585754Y-10949052D01*
X585754Y-10949052D02*
X595278Y-10930004D01*
X595278Y-10930004D02*
X595278Y-10891909D01*
X595278Y-10891909D02*
X585754Y-10872861D01*
X585754Y-10872861D02*
X576230Y-10863337D01*
X576230Y-10863337D02*
X557182Y-10853813D01*
X719087Y-10768099D02*
X738135Y-10768099D01*
X738135Y-10768099D02*
X757182Y-10777623D01*
X757182Y-10777623D02*
X766706Y-10787147D01*
X766706Y-10787147D02*
X776230Y-10806194D01*
X776230Y-10806194D02*
X785754Y-10844290D01*
X785754Y-10844290D02*
X785754Y-10891909D01*
X785754Y-10891909D02*
X776230Y-10930004D01*
X776230Y-10930004D02*
X766706Y-10949052D01*
X766706Y-10949052D02*
X757182Y-10958575D01*
X757182Y-10958575D02*
X738135Y-10968099D01*
X738135Y-10968099D02*
X719087Y-10968099D01*
X719087Y-10968099D02*
X700039Y-10958575D01*
X700039Y-10958575D02*
X690516Y-10949052D01*
X690516Y-10949052D02*
X680992Y-10930004D01*
X680992Y-10930004D02*
X671468Y-10891909D01*
X671468Y-10891909D02*
X671468Y-10844290D01*
X671468Y-10844290D02*
X680992Y-10806194D01*
X680992Y-10806194D02*
X690516Y-10787147D01*
X690516Y-10787147D02*
X700039Y-10777623D01*
X700039Y-10777623D02*
X719087Y-10768099D01*
X909563Y-10768099D02*
X928611Y-10768099D01*
X928611Y-10768099D02*
X947659Y-10777623D01*
X947659Y-10777623D02*
X957182Y-10787147D01*
X957182Y-10787147D02*
X966706Y-10806194D01*
X966706Y-10806194D02*
X976230Y-10844290D01*
X976230Y-10844290D02*
X976230Y-10891909D01*
X976230Y-10891909D02*
X966706Y-10930004D01*
X966706Y-10930004D02*
X957182Y-10949052D01*
X957182Y-10949052D02*
X947659Y-10958575D01*
X947659Y-10958575D02*
X928611Y-10968099D01*
X928611Y-10968099D02*
X909563Y-10968099D01*
X909563Y-10968099D02*
X890516Y-10958575D01*
X890516Y-10958575D02*
X880992Y-10949052D01*
X880992Y-10949052D02*
X871468Y-10930004D01*
X871468Y-10930004D02*
X861944Y-10891909D01*
X861944Y-10891909D02*
X861944Y-10844290D01*
X861944Y-10844290D02*
X871468Y-10806194D01*
X871468Y-10806194D02*
X880992Y-10787147D01*
X880992Y-10787147D02*
X890516Y-10777623D01*
X890516Y-10777623D02*
X909563Y-10768099D01*
X1061944Y-10968099D02*
X1061944Y-10834766D01*
X1061944Y-10853813D02*
X1071468Y-10844290D01*
X1071468Y-10844290D02*
X1090516Y-10834766D01*
X1090516Y-10834766D02*
X1119087Y-10834766D01*
X1119087Y-10834766D02*
X1138135Y-10844290D01*
X1138135Y-10844290D02*
X1147659Y-10863337D01*
X1147659Y-10863337D02*
X1147659Y-10968099D01*
X1147659Y-10863337D02*
X1157182Y-10844290D01*
X1157182Y-10844290D02*
X1176230Y-10834766D01*
X1176230Y-10834766D02*
X1204801Y-10834766D01*
X1204801Y-10834766D02*
X1223849Y-10844290D01*
X1223849Y-10844290D02*
X1233373Y-10863337D01*
X1233373Y-10863337D02*
X1233373Y-10968099D01*
X1328611Y-10968099D02*
X1328611Y-10834766D01*
X1328611Y-10853813D02*
X1338135Y-10844290D01*
X1338135Y-10844290D02*
X1357182Y-10834766D01*
X1357182Y-10834766D02*
X1385754Y-10834766D01*
X1385754Y-10834766D02*
X1404801Y-10844290D01*
X1404801Y-10844290D02*
X1414325Y-10863337D01*
X1414325Y-10863337D02*
X1414325Y-10968099D01*
X1414325Y-10863337D02*
X1423849Y-10844290D01*
X1423849Y-10844290D02*
X1442897Y-10834766D01*
X1442897Y-10834766D02*
X1471468Y-10834766D01*
X1471468Y-10834766D02*
X1490516Y-10844290D01*
X1490516Y-10844290D02*
X1500040Y-10863337D01*
X1500040Y-10863337D02*
X1500040Y-10968099D01*
X1890516Y-10758575D02*
X1719087Y-11015718D01*
X2147659Y-10768099D02*
X2166706Y-10768099D01*
X2166706Y-10768099D02*
X2185754Y-10777623D01*
X2185754Y-10777623D02*
X2195278Y-10787147D01*
X2195278Y-10787147D02*
X2204802Y-10806194D01*
X2204802Y-10806194D02*
X2214325Y-10844290D01*
X2214325Y-10844290D02*
X2214325Y-10891909D01*
X2214325Y-10891909D02*
X2204802Y-10930004D01*
X2204802Y-10930004D02*
X2195278Y-10949052D01*
X2195278Y-10949052D02*
X2185754Y-10958575D01*
X2185754Y-10958575D02*
X2166706Y-10968099D01*
X2166706Y-10968099D02*
X2147659Y-10968099D01*
X2147659Y-10968099D02*
X2128611Y-10958575D01*
X2128611Y-10958575D02*
X2119087Y-10949052D01*
X2119087Y-10949052D02*
X2109564Y-10930004D01*
X2109564Y-10930004D02*
X2100040Y-10891909D01*
X2100040Y-10891909D02*
X2100040Y-10844290D01*
X2100040Y-10844290D02*
X2109564Y-10806194D01*
X2109564Y-10806194D02*
X2119087Y-10787147D01*
X2119087Y-10787147D02*
X2128611Y-10777623D01*
X2128611Y-10777623D02*
X2147659Y-10768099D01*
X2300040Y-10949052D02*
X2309564Y-10958575D01*
X2309564Y-10958575D02*
X2300040Y-10968099D01*
X2300040Y-10968099D02*
X2290516Y-10958575D01*
X2290516Y-10958575D02*
X2300040Y-10949052D01*
X2300040Y-10949052D02*
X2300040Y-10968099D01*
X2433373Y-10768099D02*
X2452421Y-10768099D01*
X2452421Y-10768099D02*
X2471468Y-10777623D01*
X2471468Y-10777623D02*
X2480992Y-10787147D01*
X2480992Y-10787147D02*
X2490516Y-10806194D01*
X2490516Y-10806194D02*
X2500040Y-10844290D01*
X2500040Y-10844290D02*
X2500040Y-10891909D01*
X2500040Y-10891909D02*
X2490516Y-10930004D01*
X2490516Y-10930004D02*
X2480992Y-10949052D01*
X2480992Y-10949052D02*
X2471468Y-10958575D01*
X2471468Y-10958575D02*
X2452421Y-10968099D01*
X2452421Y-10968099D02*
X2433373Y-10968099D01*
X2433373Y-10968099D02*
X2414325Y-10958575D01*
X2414325Y-10958575D02*
X2404802Y-10949052D01*
X2404802Y-10949052D02*
X2395278Y-10930004D01*
X2395278Y-10930004D02*
X2385754Y-10891909D01*
X2385754Y-10891909D02*
X2385754Y-10844290D01*
X2385754Y-10844290D02*
X2395278Y-10806194D01*
X2395278Y-10806194D02*
X2404802Y-10787147D01*
X2404802Y-10787147D02*
X2414325Y-10777623D01*
X2414325Y-10777623D02*
X2433373Y-10768099D01*
X2566706Y-10768099D02*
X2690516Y-10768099D01*
X2690516Y-10768099D02*
X2623849Y-10844290D01*
X2623849Y-10844290D02*
X2652421Y-10844290D01*
X2652421Y-10844290D02*
X2671468Y-10853813D01*
X2671468Y-10853813D02*
X2680992Y-10863337D01*
X2680992Y-10863337D02*
X2690516Y-10882385D01*
X2690516Y-10882385D02*
X2690516Y-10930004D01*
X2690516Y-10930004D02*
X2680992Y-10949052D01*
X2680992Y-10949052D02*
X2671468Y-10958575D01*
X2671468Y-10958575D02*
X2652421Y-10968099D01*
X2652421Y-10968099D02*
X2595278Y-10968099D01*
X2595278Y-10968099D02*
X2576230Y-10958575D01*
X2576230Y-10958575D02*
X2566706Y-10949052D01*
X2880992Y-10968099D02*
X2766706Y-10968099D01*
X2823849Y-10968099D02*
X2823849Y-10768099D01*
X2823849Y-10768099D02*
X2804802Y-10796671D01*
X2804802Y-10796671D02*
X2785754Y-10815718D01*
X2785754Y-10815718D02*
X2766706Y-10825242D01*
X3061944Y-10768099D02*
X2966706Y-10768099D01*
X2966706Y-10768099D02*
X2957183Y-10863337D01*
X2957183Y-10863337D02*
X2966706Y-10853813D01*
X2966706Y-10853813D02*
X2985754Y-10844290D01*
X2985754Y-10844290D02*
X3033373Y-10844290D01*
X3033373Y-10844290D02*
X3052421Y-10853813D01*
X3052421Y-10853813D02*
X3061944Y-10863337D01*
X3061944Y-10863337D02*
X3071468Y-10882385D01*
X3071468Y-10882385D02*
X3071468Y-10930004D01*
X3071468Y-10930004D02*
X3061944Y-10949052D01*
X3061944Y-10949052D02*
X3052421Y-10958575D01*
X3052421Y-10958575D02*
X3033373Y-10968099D01*
X3033373Y-10968099D02*
X2985754Y-10968099D01*
X2985754Y-10968099D02*
X2966706Y-10958575D01*
X2966706Y-10958575D02*
X2957183Y-10949052D01*
X3147659Y-10768099D02*
X3147659Y-10806194D01*
X3223849Y-10768099D02*
X3223849Y-10806194D01*
X3519087Y-11044290D02*
X3509564Y-11034766D01*
X3509564Y-11034766D02*
X3490516Y-11006194D01*
X3490516Y-11006194D02*
X3480992Y-10987147D01*
X3480992Y-10987147D02*
X3471468Y-10958575D01*
X3471468Y-10958575D02*
X3461945Y-10910956D01*
X3461945Y-10910956D02*
X3461945Y-10872861D01*
X3461945Y-10872861D02*
X3471468Y-10825242D01*
X3471468Y-10825242D02*
X3480992Y-10796671D01*
X3480992Y-10796671D02*
X3490516Y-10777623D01*
X3490516Y-10777623D02*
X3509564Y-10749052D01*
X3509564Y-10749052D02*
X3519087Y-10739528D01*
X3633373Y-10768099D02*
X3652421Y-10768099D01*
X3652421Y-10768099D02*
X3671468Y-10777623D01*
X3671468Y-10777623D02*
X3680992Y-10787147D01*
X3680992Y-10787147D02*
X3690516Y-10806194D01*
X3690516Y-10806194D02*
X3700040Y-10844290D01*
X3700040Y-10844290D02*
X3700040Y-10891909D01*
X3700040Y-10891909D02*
X3690516Y-10930004D01*
X3690516Y-10930004D02*
X3680992Y-10949052D01*
X3680992Y-10949052D02*
X3671468Y-10958575D01*
X3671468Y-10958575D02*
X3652421Y-10968099D01*
X3652421Y-10968099D02*
X3633373Y-10968099D01*
X3633373Y-10968099D02*
X3614325Y-10958575D01*
X3614325Y-10958575D02*
X3604802Y-10949052D01*
X3604802Y-10949052D02*
X3595278Y-10930004D01*
X3595278Y-10930004D02*
X3585754Y-10891909D01*
X3585754Y-10891909D02*
X3585754Y-10844290D01*
X3585754Y-10844290D02*
X3595278Y-10806194D01*
X3595278Y-10806194D02*
X3604802Y-10787147D01*
X3604802Y-10787147D02*
X3614325Y-10777623D01*
X3614325Y-10777623D02*
X3633373Y-10768099D01*
X3938135Y-10968099D02*
X3938135Y-10768099D01*
X4023849Y-10968099D02*
X4023849Y-10863337D01*
X4023849Y-10863337D02*
X4014326Y-10844290D01*
X4014326Y-10844290D02*
X3995278Y-10834766D01*
X3995278Y-10834766D02*
X3966706Y-10834766D01*
X3966706Y-10834766D02*
X3947659Y-10844290D01*
X3947659Y-10844290D02*
X3938135Y-10853813D01*
X4147659Y-10968099D02*
X4128611Y-10958575D01*
X4128611Y-10958575D02*
X4119087Y-10949052D01*
X4119087Y-10949052D02*
X4109564Y-10930004D01*
X4109564Y-10930004D02*
X4109564Y-10872861D01*
X4109564Y-10872861D02*
X4119087Y-10853813D01*
X4119087Y-10853813D02*
X4128611Y-10844290D01*
X4128611Y-10844290D02*
X4147659Y-10834766D01*
X4147659Y-10834766D02*
X4176230Y-10834766D01*
X4176230Y-10834766D02*
X4195278Y-10844290D01*
X4195278Y-10844290D02*
X4204802Y-10853813D01*
X4204802Y-10853813D02*
X4214326Y-10872861D01*
X4214326Y-10872861D02*
X4214326Y-10930004D01*
X4214326Y-10930004D02*
X4204802Y-10949052D01*
X4204802Y-10949052D02*
X4195278Y-10958575D01*
X4195278Y-10958575D02*
X4176230Y-10968099D01*
X4176230Y-10968099D02*
X4147659Y-10968099D01*
X4328611Y-10968099D02*
X4309564Y-10958575D01*
X4309564Y-10958575D02*
X4300040Y-10939528D01*
X4300040Y-10939528D02*
X4300040Y-10768099D01*
X4480992Y-10958575D02*
X4461945Y-10968099D01*
X4461945Y-10968099D02*
X4423849Y-10968099D01*
X4423849Y-10968099D02*
X4404802Y-10958575D01*
X4404802Y-10958575D02*
X4395278Y-10939528D01*
X4395278Y-10939528D02*
X4395278Y-10863337D01*
X4395278Y-10863337D02*
X4404802Y-10844290D01*
X4404802Y-10844290D02*
X4423849Y-10834766D01*
X4423849Y-10834766D02*
X4461945Y-10834766D01*
X4461945Y-10834766D02*
X4480992Y-10844290D01*
X4480992Y-10844290D02*
X4490516Y-10863337D01*
X4490516Y-10863337D02*
X4490516Y-10882385D01*
X4490516Y-10882385D02*
X4395278Y-10901433D01*
X4566707Y-10958575D02*
X4585754Y-10968099D01*
X4585754Y-10968099D02*
X4623849Y-10968099D01*
X4623849Y-10968099D02*
X4642897Y-10958575D01*
X4642897Y-10958575D02*
X4652421Y-10939528D01*
X4652421Y-10939528D02*
X4652421Y-10930004D01*
X4652421Y-10930004D02*
X4642897Y-10910956D01*
X4642897Y-10910956D02*
X4623849Y-10901433D01*
X4623849Y-10901433D02*
X4595278Y-10901433D01*
X4595278Y-10901433D02*
X4576230Y-10891909D01*
X4576230Y-10891909D02*
X4566707Y-10872861D01*
X4566707Y-10872861D02*
X4566707Y-10863337D01*
X4566707Y-10863337D02*
X4576230Y-10844290D01*
X4576230Y-10844290D02*
X4595278Y-10834766D01*
X4595278Y-10834766D02*
X4623849Y-10834766D01*
X4623849Y-10834766D02*
X4642897Y-10844290D01*
X4890516Y-10891909D02*
X5042897Y-10891909D01*
X4966707Y-10968099D02*
X4966707Y-10815718D01*
X5280992Y-10787147D02*
X5290516Y-10777623D01*
X5290516Y-10777623D02*
X5309564Y-10768099D01*
X5309564Y-10768099D02*
X5357183Y-10768099D01*
X5357183Y-10768099D02*
X5376231Y-10777623D01*
X5376231Y-10777623D02*
X5385754Y-10787147D01*
X5385754Y-10787147D02*
X5395278Y-10806194D01*
X5395278Y-10806194D02*
X5395278Y-10825242D01*
X5395278Y-10825242D02*
X5385754Y-10853813D01*
X5385754Y-10853813D02*
X5271469Y-10968099D01*
X5271469Y-10968099D02*
X5395278Y-10968099D01*
X5519088Y-10768099D02*
X5538135Y-10768099D01*
X5538135Y-10768099D02*
X5557183Y-10777623D01*
X5557183Y-10777623D02*
X5566707Y-10787147D01*
X5566707Y-10787147D02*
X5576231Y-10806194D01*
X5576231Y-10806194D02*
X5585754Y-10844290D01*
X5585754Y-10844290D02*
X5585754Y-10891909D01*
X5585754Y-10891909D02*
X5576231Y-10930004D01*
X5576231Y-10930004D02*
X5566707Y-10949052D01*
X5566707Y-10949052D02*
X5557183Y-10958575D01*
X5557183Y-10958575D02*
X5538135Y-10968099D01*
X5538135Y-10968099D02*
X5519088Y-10968099D01*
X5519088Y-10968099D02*
X5500040Y-10958575D01*
X5500040Y-10958575D02*
X5490516Y-10949052D01*
X5490516Y-10949052D02*
X5480992Y-10930004D01*
X5480992Y-10930004D02*
X5471469Y-10891909D01*
X5471469Y-10891909D02*
X5471469Y-10844290D01*
X5471469Y-10844290D02*
X5480992Y-10806194D01*
X5480992Y-10806194D02*
X5490516Y-10787147D01*
X5490516Y-10787147D02*
X5500040Y-10777623D01*
X5500040Y-10777623D02*
X5519088Y-10768099D01*
X5814326Y-10958575D02*
X5833373Y-10968099D01*
X5833373Y-10968099D02*
X5871469Y-10968099D01*
X5871469Y-10968099D02*
X5890516Y-10958575D01*
X5890516Y-10958575D02*
X5900040Y-10939528D01*
X5900040Y-10939528D02*
X5900040Y-10930004D01*
X5900040Y-10930004D02*
X5890516Y-10910956D01*
X5890516Y-10910956D02*
X5871469Y-10901433D01*
X5871469Y-10901433D02*
X5842897Y-10901433D01*
X5842897Y-10901433D02*
X5823850Y-10891909D01*
X5823850Y-10891909D02*
X5814326Y-10872861D01*
X5814326Y-10872861D02*
X5814326Y-10863337D01*
X5814326Y-10863337D02*
X5823850Y-10844290D01*
X5823850Y-10844290D02*
X5842897Y-10834766D01*
X5842897Y-10834766D02*
X5871469Y-10834766D01*
X5871469Y-10834766D02*
X5890516Y-10844290D01*
X6014326Y-10968099D02*
X5995278Y-10958575D01*
X5995278Y-10958575D02*
X5985754Y-10939528D01*
X5985754Y-10939528D02*
X5985754Y-10768099D01*
X6119088Y-10968099D02*
X6100040Y-10958575D01*
X6100040Y-10958575D02*
X6090516Y-10949052D01*
X6090516Y-10949052D02*
X6080992Y-10930004D01*
X6080992Y-10930004D02*
X6080992Y-10872861D01*
X6080992Y-10872861D02*
X6090516Y-10853813D01*
X6090516Y-10853813D02*
X6100040Y-10844290D01*
X6100040Y-10844290D02*
X6119088Y-10834766D01*
X6119088Y-10834766D02*
X6147659Y-10834766D01*
X6147659Y-10834766D02*
X6166707Y-10844290D01*
X6166707Y-10844290D02*
X6176231Y-10853813D01*
X6176231Y-10853813D02*
X6185754Y-10872861D01*
X6185754Y-10872861D02*
X6185754Y-10930004D01*
X6185754Y-10930004D02*
X6176231Y-10949052D01*
X6176231Y-10949052D02*
X6166707Y-10958575D01*
X6166707Y-10958575D02*
X6147659Y-10968099D01*
X6147659Y-10968099D02*
X6119088Y-10968099D01*
X6242897Y-10834766D02*
X6319088Y-10834766D01*
X6271469Y-10768099D02*
X6271469Y-10939528D01*
X6271469Y-10939528D02*
X6280992Y-10958575D01*
X6280992Y-10958575D02*
X6300040Y-10968099D01*
X6300040Y-10968099D02*
X6319088Y-10968099D01*
X6376231Y-10958575D02*
X6395278Y-10968099D01*
X6395278Y-10968099D02*
X6433373Y-10968099D01*
X6433373Y-10968099D02*
X6452421Y-10958575D01*
X6452421Y-10958575D02*
X6461945Y-10939528D01*
X6461945Y-10939528D02*
X6461945Y-10930004D01*
X6461945Y-10930004D02*
X6452421Y-10910956D01*
X6452421Y-10910956D02*
X6433373Y-10901433D01*
X6433373Y-10901433D02*
X6404802Y-10901433D01*
X6404802Y-10901433D02*
X6385754Y-10891909D01*
X6385754Y-10891909D02*
X6376231Y-10872861D01*
X6376231Y-10872861D02*
X6376231Y-10863337D01*
X6376231Y-10863337D02*
X6385754Y-10844290D01*
X6385754Y-10844290D02*
X6404802Y-10834766D01*
X6404802Y-10834766D02*
X6433373Y-10834766D01*
X6433373Y-10834766D02*
X6452421Y-10844290D01*
X6528612Y-11044290D02*
X6538135Y-11034766D01*
X6538135Y-11034766D02*
X6557183Y-11006194D01*
X6557183Y-11006194D02*
X6566707Y-10987147D01*
X6566707Y-10987147D02*
X6576231Y-10958575D01*
X6576231Y-10958575D02*
X6585754Y-10910956D01*
X6585754Y-10910956D02*
X6585754Y-10872861D01*
X6585754Y-10872861D02*
X6576231Y-10825242D01*
X6576231Y-10825242D02*
X6566707Y-10796671D01*
X6566707Y-10796671D02*
X6557183Y-10777623D01*
X6557183Y-10777623D02*
X6538135Y-10749052D01*
X6538135Y-10749052D02*
X6528612Y-10739528D01*
D10*
X-155975Y-11090615D02*
X-55975Y-11190615D01*
X-55975Y-11090615D02*
X-155975Y-11190615D01*
X-55975Y-11140615D02*
G75*
G02*
X-155975Y-11140615I-50000J0D01*
G01*
X-155975Y-11140615D02*
G75*
G02*
X-55975Y-11140615I50000J0D01*
G01*
D11*
X309563Y-11232099D02*
X195278Y-11232099D01*
X252420Y-11232099D02*
X252420Y-11032099D01*
X252420Y-11032099D02*
X233373Y-11060671D01*
X233373Y-11060671D02*
X214325Y-11079718D01*
X214325Y-11079718D02*
X195278Y-11089242D01*
X395278Y-11213051D02*
X404801Y-11222575D01*
X404801Y-11222575D02*
X395278Y-11232099D01*
X395278Y-11232099D02*
X385754Y-11222575D01*
X385754Y-11222575D02*
X395278Y-11213051D01*
X395278Y-11213051D02*
X395278Y-11232099D01*
X528611Y-11032099D02*
X547659Y-11032099D01*
X547659Y-11032099D02*
X566706Y-11041623D01*
X566706Y-11041623D02*
X576230Y-11051147D01*
X576230Y-11051147D02*
X585754Y-11070194D01*
X585754Y-11070194D02*
X595278Y-11108290D01*
X595278Y-11108290D02*
X595278Y-11155909D01*
X595278Y-11155909D02*
X585754Y-11194004D01*
X585754Y-11194004D02*
X576230Y-11213051D01*
X576230Y-11213051D02*
X566706Y-11222575D01*
X566706Y-11222575D02*
X547659Y-11232099D01*
X547659Y-11232099D02*
X528611Y-11232099D01*
X528611Y-11232099D02*
X509563Y-11222575D01*
X509563Y-11222575D02*
X500039Y-11213051D01*
X500039Y-11213051D02*
X490516Y-11194004D01*
X490516Y-11194004D02*
X480992Y-11155909D01*
X480992Y-11155909D02*
X480992Y-11108290D01*
X480992Y-11108290D02*
X490516Y-11070194D01*
X490516Y-11070194D02*
X500039Y-11051147D01*
X500039Y-11051147D02*
X509563Y-11041623D01*
X509563Y-11041623D02*
X528611Y-11032099D01*
X719087Y-11032099D02*
X738135Y-11032099D01*
X738135Y-11032099D02*
X757182Y-11041623D01*
X757182Y-11041623D02*
X766706Y-11051147D01*
X766706Y-11051147D02*
X776230Y-11070194D01*
X776230Y-11070194D02*
X785754Y-11108290D01*
X785754Y-11108290D02*
X785754Y-11155909D01*
X785754Y-11155909D02*
X776230Y-11194004D01*
X776230Y-11194004D02*
X766706Y-11213051D01*
X766706Y-11213051D02*
X757182Y-11222575D01*
X757182Y-11222575D02*
X738135Y-11232099D01*
X738135Y-11232099D02*
X719087Y-11232099D01*
X719087Y-11232099D02*
X700039Y-11222575D01*
X700039Y-11222575D02*
X690516Y-11213051D01*
X690516Y-11213051D02*
X680992Y-11194004D01*
X680992Y-11194004D02*
X671468Y-11155909D01*
X671468Y-11155909D02*
X671468Y-11108290D01*
X671468Y-11108290D02*
X680992Y-11070194D01*
X680992Y-11070194D02*
X690516Y-11051147D01*
X690516Y-11051147D02*
X700039Y-11041623D01*
X700039Y-11041623D02*
X719087Y-11032099D01*
X909563Y-11032099D02*
X928611Y-11032099D01*
X928611Y-11032099D02*
X947659Y-11041623D01*
X947659Y-11041623D02*
X957182Y-11051147D01*
X957182Y-11051147D02*
X966706Y-11070194D01*
X966706Y-11070194D02*
X976230Y-11108290D01*
X976230Y-11108290D02*
X976230Y-11155909D01*
X976230Y-11155909D02*
X966706Y-11194004D01*
X966706Y-11194004D02*
X957182Y-11213051D01*
X957182Y-11213051D02*
X947659Y-11222575D01*
X947659Y-11222575D02*
X928611Y-11232099D01*
X928611Y-11232099D02*
X909563Y-11232099D01*
X909563Y-11232099D02*
X890516Y-11222575D01*
X890516Y-11222575D02*
X880992Y-11213051D01*
X880992Y-11213051D02*
X871468Y-11194004D01*
X871468Y-11194004D02*
X861944Y-11155909D01*
X861944Y-11155909D02*
X861944Y-11108290D01*
X861944Y-11108290D02*
X871468Y-11070194D01*
X871468Y-11070194D02*
X880992Y-11051147D01*
X880992Y-11051147D02*
X890516Y-11041623D01*
X890516Y-11041623D02*
X909563Y-11032099D01*
X1061944Y-11232099D02*
X1061944Y-11098766D01*
X1061944Y-11117813D02*
X1071468Y-11108290D01*
X1071468Y-11108290D02*
X1090516Y-11098766D01*
X1090516Y-11098766D02*
X1119087Y-11098766D01*
X1119087Y-11098766D02*
X1138135Y-11108290D01*
X1138135Y-11108290D02*
X1147659Y-11127337D01*
X1147659Y-11127337D02*
X1147659Y-11232099D01*
X1147659Y-11127337D02*
X1157182Y-11108290D01*
X1157182Y-11108290D02*
X1176230Y-11098766D01*
X1176230Y-11098766D02*
X1204801Y-11098766D01*
X1204801Y-11098766D02*
X1223849Y-11108290D01*
X1223849Y-11108290D02*
X1233373Y-11127337D01*
X1233373Y-11127337D02*
X1233373Y-11232099D01*
X1328611Y-11232099D02*
X1328611Y-11098766D01*
X1328611Y-11117813D02*
X1338135Y-11108290D01*
X1338135Y-11108290D02*
X1357182Y-11098766D01*
X1357182Y-11098766D02*
X1385754Y-11098766D01*
X1385754Y-11098766D02*
X1404801Y-11108290D01*
X1404801Y-11108290D02*
X1414325Y-11127337D01*
X1414325Y-11127337D02*
X1414325Y-11232099D01*
X1414325Y-11127337D02*
X1423849Y-11108290D01*
X1423849Y-11108290D02*
X1442897Y-11098766D01*
X1442897Y-11098766D02*
X1471468Y-11098766D01*
X1471468Y-11098766D02*
X1490516Y-11108290D01*
X1490516Y-11108290D02*
X1500040Y-11127337D01*
X1500040Y-11127337D02*
X1500040Y-11232099D01*
X1890516Y-11022575D02*
X1719087Y-11279718D01*
X2147659Y-11032099D02*
X2166706Y-11032099D01*
X2166706Y-11032099D02*
X2185754Y-11041623D01*
X2185754Y-11041623D02*
X2195278Y-11051147D01*
X2195278Y-11051147D02*
X2204802Y-11070194D01*
X2204802Y-11070194D02*
X2214325Y-11108290D01*
X2214325Y-11108290D02*
X2214325Y-11155909D01*
X2214325Y-11155909D02*
X2204802Y-11194004D01*
X2204802Y-11194004D02*
X2195278Y-11213051D01*
X2195278Y-11213051D02*
X2185754Y-11222575D01*
X2185754Y-11222575D02*
X2166706Y-11232099D01*
X2166706Y-11232099D02*
X2147659Y-11232099D01*
X2147659Y-11232099D02*
X2128611Y-11222575D01*
X2128611Y-11222575D02*
X2119087Y-11213051D01*
X2119087Y-11213051D02*
X2109564Y-11194004D01*
X2109564Y-11194004D02*
X2100040Y-11155909D01*
X2100040Y-11155909D02*
X2100040Y-11108290D01*
X2100040Y-11108290D02*
X2109564Y-11070194D01*
X2109564Y-11070194D02*
X2119087Y-11051147D01*
X2119087Y-11051147D02*
X2128611Y-11041623D01*
X2128611Y-11041623D02*
X2147659Y-11032099D01*
X2300040Y-11213051D02*
X2309564Y-11222575D01*
X2309564Y-11222575D02*
X2300040Y-11232099D01*
X2300040Y-11232099D02*
X2290516Y-11222575D01*
X2290516Y-11222575D02*
X2300040Y-11213051D01*
X2300040Y-11213051D02*
X2300040Y-11232099D01*
X2433373Y-11032099D02*
X2452421Y-11032099D01*
X2452421Y-11032099D02*
X2471468Y-11041623D01*
X2471468Y-11041623D02*
X2480992Y-11051147D01*
X2480992Y-11051147D02*
X2490516Y-11070194D01*
X2490516Y-11070194D02*
X2500040Y-11108290D01*
X2500040Y-11108290D02*
X2500040Y-11155909D01*
X2500040Y-11155909D02*
X2490516Y-11194004D01*
X2490516Y-11194004D02*
X2480992Y-11213051D01*
X2480992Y-11213051D02*
X2471468Y-11222575D01*
X2471468Y-11222575D02*
X2452421Y-11232099D01*
X2452421Y-11232099D02*
X2433373Y-11232099D01*
X2433373Y-11232099D02*
X2414325Y-11222575D01*
X2414325Y-11222575D02*
X2404802Y-11213051D01*
X2404802Y-11213051D02*
X2395278Y-11194004D01*
X2395278Y-11194004D02*
X2385754Y-11155909D01*
X2385754Y-11155909D02*
X2385754Y-11108290D01*
X2385754Y-11108290D02*
X2395278Y-11070194D01*
X2395278Y-11070194D02*
X2404802Y-11051147D01*
X2404802Y-11051147D02*
X2414325Y-11041623D01*
X2414325Y-11041623D02*
X2433373Y-11032099D01*
X2566706Y-11032099D02*
X2690516Y-11032099D01*
X2690516Y-11032099D02*
X2623849Y-11108290D01*
X2623849Y-11108290D02*
X2652421Y-11108290D01*
X2652421Y-11108290D02*
X2671468Y-11117813D01*
X2671468Y-11117813D02*
X2680992Y-11127337D01*
X2680992Y-11127337D02*
X2690516Y-11146385D01*
X2690516Y-11146385D02*
X2690516Y-11194004D01*
X2690516Y-11194004D02*
X2680992Y-11213051D01*
X2680992Y-11213051D02*
X2671468Y-11222575D01*
X2671468Y-11222575D02*
X2652421Y-11232099D01*
X2652421Y-11232099D02*
X2595278Y-11232099D01*
X2595278Y-11232099D02*
X2576230Y-11222575D01*
X2576230Y-11222575D02*
X2566706Y-11213051D01*
X2785754Y-11232099D02*
X2823849Y-11232099D01*
X2823849Y-11232099D02*
X2842897Y-11222575D01*
X2842897Y-11222575D02*
X2852421Y-11213051D01*
X2852421Y-11213051D02*
X2871468Y-11184480D01*
X2871468Y-11184480D02*
X2880992Y-11146385D01*
X2880992Y-11146385D02*
X2880992Y-11070194D01*
X2880992Y-11070194D02*
X2871468Y-11051147D01*
X2871468Y-11051147D02*
X2861944Y-11041623D01*
X2861944Y-11041623D02*
X2842897Y-11032099D01*
X2842897Y-11032099D02*
X2804802Y-11032099D01*
X2804802Y-11032099D02*
X2785754Y-11041623D01*
X2785754Y-11041623D02*
X2776230Y-11051147D01*
X2776230Y-11051147D02*
X2766706Y-11070194D01*
X2766706Y-11070194D02*
X2766706Y-11117813D01*
X2766706Y-11117813D02*
X2776230Y-11136861D01*
X2776230Y-11136861D02*
X2785754Y-11146385D01*
X2785754Y-11146385D02*
X2804802Y-11155909D01*
X2804802Y-11155909D02*
X2842897Y-11155909D01*
X2842897Y-11155909D02*
X2861944Y-11146385D01*
X2861944Y-11146385D02*
X2871468Y-11136861D01*
X2871468Y-11136861D02*
X2880992Y-11117813D01*
X3052421Y-11098766D02*
X3052421Y-11232099D01*
X3004802Y-11022575D02*
X2957183Y-11165433D01*
X2957183Y-11165433D02*
X3080992Y-11165433D01*
X3147659Y-11032099D02*
X3147659Y-11070194D01*
X3223849Y-11032099D02*
X3223849Y-11070194D01*
X3519087Y-11308290D02*
X3509564Y-11298766D01*
X3509564Y-11298766D02*
X3490516Y-11270194D01*
X3490516Y-11270194D02*
X3480992Y-11251147D01*
X3480992Y-11251147D02*
X3471468Y-11222575D01*
X3471468Y-11222575D02*
X3461945Y-11174956D01*
X3461945Y-11174956D02*
X3461945Y-11136861D01*
X3461945Y-11136861D02*
X3471468Y-11089242D01*
X3471468Y-11089242D02*
X3480992Y-11060671D01*
X3480992Y-11060671D02*
X3490516Y-11041623D01*
X3490516Y-11041623D02*
X3509564Y-11013052D01*
X3509564Y-11013052D02*
X3519087Y-11003528D01*
X3576230Y-11032099D02*
X3700040Y-11032099D01*
X3700040Y-11032099D02*
X3633373Y-11108290D01*
X3633373Y-11108290D02*
X3661945Y-11108290D01*
X3661945Y-11108290D02*
X3680992Y-11117813D01*
X3680992Y-11117813D02*
X3690516Y-11127337D01*
X3690516Y-11127337D02*
X3700040Y-11146385D01*
X3700040Y-11146385D02*
X3700040Y-11194004D01*
X3700040Y-11194004D02*
X3690516Y-11213051D01*
X3690516Y-11213051D02*
X3680992Y-11222575D01*
X3680992Y-11222575D02*
X3661945Y-11232099D01*
X3661945Y-11232099D02*
X3604802Y-11232099D01*
X3604802Y-11232099D02*
X3585754Y-11222575D01*
X3585754Y-11222575D02*
X3576230Y-11213051D01*
X3871468Y-11032099D02*
X3833373Y-11032099D01*
X3833373Y-11032099D02*
X3814325Y-11041623D01*
X3814325Y-11041623D02*
X3804802Y-11051147D01*
X3804802Y-11051147D02*
X3785754Y-11079718D01*
X3785754Y-11079718D02*
X3776230Y-11117813D01*
X3776230Y-11117813D02*
X3776230Y-11194004D01*
X3776230Y-11194004D02*
X3785754Y-11213051D01*
X3785754Y-11213051D02*
X3795278Y-11222575D01*
X3795278Y-11222575D02*
X3814325Y-11232099D01*
X3814325Y-11232099D02*
X3852421Y-11232099D01*
X3852421Y-11232099D02*
X3871468Y-11222575D01*
X3871468Y-11222575D02*
X3880992Y-11213051D01*
X3880992Y-11213051D02*
X3890516Y-11194004D01*
X3890516Y-11194004D02*
X3890516Y-11146385D01*
X3890516Y-11146385D02*
X3880992Y-11127337D01*
X3880992Y-11127337D02*
X3871468Y-11117813D01*
X3871468Y-11117813D02*
X3852421Y-11108290D01*
X3852421Y-11108290D02*
X3814325Y-11108290D01*
X3814325Y-11108290D02*
X3795278Y-11117813D01*
X3795278Y-11117813D02*
X3785754Y-11127337D01*
X3785754Y-11127337D02*
X3776230Y-11146385D01*
X4128611Y-11232099D02*
X4128611Y-11032099D01*
X4214326Y-11232099D02*
X4214326Y-11127337D01*
X4214326Y-11127337D02*
X4204802Y-11108290D01*
X4204802Y-11108290D02*
X4185754Y-11098766D01*
X4185754Y-11098766D02*
X4157183Y-11098766D01*
X4157183Y-11098766D02*
X4138135Y-11108290D01*
X4138135Y-11108290D02*
X4128611Y-11117813D01*
X4338135Y-11232099D02*
X4319088Y-11222575D01*
X4319088Y-11222575D02*
X4309564Y-11213051D01*
X4309564Y-11213051D02*
X4300040Y-11194004D01*
X4300040Y-11194004D02*
X4300040Y-11136861D01*
X4300040Y-11136861D02*
X4309564Y-11117813D01*
X4309564Y-11117813D02*
X4319088Y-11108290D01*
X4319088Y-11108290D02*
X4338135Y-11098766D01*
X4338135Y-11098766D02*
X4366707Y-11098766D01*
X4366707Y-11098766D02*
X4385754Y-11108290D01*
X4385754Y-11108290D02*
X4395278Y-11117813D01*
X4395278Y-11117813D02*
X4404802Y-11136861D01*
X4404802Y-11136861D02*
X4404802Y-11194004D01*
X4404802Y-11194004D02*
X4395278Y-11213051D01*
X4395278Y-11213051D02*
X4385754Y-11222575D01*
X4385754Y-11222575D02*
X4366707Y-11232099D01*
X4366707Y-11232099D02*
X4338135Y-11232099D01*
X4519088Y-11232099D02*
X4500040Y-11222575D01*
X4500040Y-11222575D02*
X4490516Y-11203528D01*
X4490516Y-11203528D02*
X4490516Y-11032099D01*
X4671469Y-11222575D02*
X4652421Y-11232099D01*
X4652421Y-11232099D02*
X4614326Y-11232099D01*
X4614326Y-11232099D02*
X4595278Y-11222575D01*
X4595278Y-11222575D02*
X4585754Y-11203528D01*
X4585754Y-11203528D02*
X4585754Y-11127337D01*
X4585754Y-11127337D02*
X4595278Y-11108290D01*
X4595278Y-11108290D02*
X4614326Y-11098766D01*
X4614326Y-11098766D02*
X4652421Y-11098766D01*
X4652421Y-11098766D02*
X4671469Y-11108290D01*
X4671469Y-11108290D02*
X4680992Y-11127337D01*
X4680992Y-11127337D02*
X4680992Y-11146385D01*
X4680992Y-11146385D02*
X4585754Y-11165433D01*
X4757183Y-11222575D02*
X4776230Y-11232099D01*
X4776230Y-11232099D02*
X4814326Y-11232099D01*
X4814326Y-11232099D02*
X4833373Y-11222575D01*
X4833373Y-11222575D02*
X4842897Y-11203528D01*
X4842897Y-11203528D02*
X4842897Y-11194004D01*
X4842897Y-11194004D02*
X4833373Y-11174956D01*
X4833373Y-11174956D02*
X4814326Y-11165433D01*
X4814326Y-11165433D02*
X4785754Y-11165433D01*
X4785754Y-11165433D02*
X4766707Y-11155909D01*
X4766707Y-11155909D02*
X4757183Y-11136861D01*
X4757183Y-11136861D02*
X4757183Y-11127337D01*
X4757183Y-11127337D02*
X4766707Y-11108290D01*
X4766707Y-11108290D02*
X4785754Y-11098766D01*
X4785754Y-11098766D02*
X4814326Y-11098766D01*
X4814326Y-11098766D02*
X4833373Y-11108290D01*
X5080992Y-11155909D02*
X5233373Y-11155909D01*
X5157183Y-11232099D02*
X5157183Y-11079718D01*
X5471469Y-11051147D02*
X5480992Y-11041623D01*
X5480992Y-11041623D02*
X5500040Y-11032099D01*
X5500040Y-11032099D02*
X5547659Y-11032099D01*
X5547659Y-11032099D02*
X5566707Y-11041623D01*
X5566707Y-11041623D02*
X5576231Y-11051147D01*
X5576231Y-11051147D02*
X5585754Y-11070194D01*
X5585754Y-11070194D02*
X5585754Y-11089242D01*
X5585754Y-11089242D02*
X5576231Y-11117813D01*
X5576231Y-11117813D02*
X5461945Y-11232099D01*
X5461945Y-11232099D02*
X5585754Y-11232099D01*
X5709564Y-11032099D02*
X5728611Y-11032099D01*
X5728611Y-11032099D02*
X5747659Y-11041623D01*
X5747659Y-11041623D02*
X5757183Y-11051147D01*
X5757183Y-11051147D02*
X5766707Y-11070194D01*
X5766707Y-11070194D02*
X5776230Y-11108290D01*
X5776230Y-11108290D02*
X5776230Y-11155909D01*
X5776230Y-11155909D02*
X5766707Y-11194004D01*
X5766707Y-11194004D02*
X5757183Y-11213051D01*
X5757183Y-11213051D02*
X5747659Y-11222575D01*
X5747659Y-11222575D02*
X5728611Y-11232099D01*
X5728611Y-11232099D02*
X5709564Y-11232099D01*
X5709564Y-11232099D02*
X5690516Y-11222575D01*
X5690516Y-11222575D02*
X5680992Y-11213051D01*
X5680992Y-11213051D02*
X5671469Y-11194004D01*
X5671469Y-11194004D02*
X5661945Y-11155909D01*
X5661945Y-11155909D02*
X5661945Y-11108290D01*
X5661945Y-11108290D02*
X5671469Y-11070194D01*
X5671469Y-11070194D02*
X5680992Y-11051147D01*
X5680992Y-11051147D02*
X5690516Y-11041623D01*
X5690516Y-11041623D02*
X5709564Y-11032099D01*
X6004802Y-11222575D02*
X6023850Y-11232099D01*
X6023850Y-11232099D02*
X6061945Y-11232099D01*
X6061945Y-11232099D02*
X6080992Y-11222575D01*
X6080992Y-11222575D02*
X6090516Y-11203528D01*
X6090516Y-11203528D02*
X6090516Y-11194004D01*
X6090516Y-11194004D02*
X6080992Y-11174956D01*
X6080992Y-11174956D02*
X6061945Y-11165433D01*
X6061945Y-11165433D02*
X6033373Y-11165433D01*
X6033373Y-11165433D02*
X6014326Y-11155909D01*
X6014326Y-11155909D02*
X6004802Y-11136861D01*
X6004802Y-11136861D02*
X6004802Y-11127337D01*
X6004802Y-11127337D02*
X6014326Y-11108290D01*
X6014326Y-11108290D02*
X6033373Y-11098766D01*
X6033373Y-11098766D02*
X6061945Y-11098766D01*
X6061945Y-11098766D02*
X6080992Y-11108290D01*
X6204802Y-11232099D02*
X6185754Y-11222575D01*
X6185754Y-11222575D02*
X6176231Y-11203528D01*
X6176231Y-11203528D02*
X6176231Y-11032099D01*
X6309564Y-11232099D02*
X6290516Y-11222575D01*
X6290516Y-11222575D02*
X6280992Y-11213051D01*
X6280992Y-11213051D02*
X6271469Y-11194004D01*
X6271469Y-11194004D02*
X6271469Y-11136861D01*
X6271469Y-11136861D02*
X6280992Y-11117813D01*
X6280992Y-11117813D02*
X6290516Y-11108290D01*
X6290516Y-11108290D02*
X6309564Y-11098766D01*
X6309564Y-11098766D02*
X6338135Y-11098766D01*
X6338135Y-11098766D02*
X6357183Y-11108290D01*
X6357183Y-11108290D02*
X6366707Y-11117813D01*
X6366707Y-11117813D02*
X6376231Y-11136861D01*
X6376231Y-11136861D02*
X6376231Y-11194004D01*
X6376231Y-11194004D02*
X6366707Y-11213051D01*
X6366707Y-11213051D02*
X6357183Y-11222575D01*
X6357183Y-11222575D02*
X6338135Y-11232099D01*
X6338135Y-11232099D02*
X6309564Y-11232099D01*
X6433373Y-11098766D02*
X6509564Y-11098766D01*
X6461945Y-11032099D02*
X6461945Y-11203528D01*
X6461945Y-11203528D02*
X6471469Y-11222575D01*
X6471469Y-11222575D02*
X6490516Y-11232099D01*
X6490516Y-11232099D02*
X6509564Y-11232099D01*
X6566707Y-11222575D02*
X6585754Y-11232099D01*
X6585754Y-11232099D02*
X6623850Y-11232099D01*
X6623850Y-11232099D02*
X6642897Y-11222575D01*
X6642897Y-11222575D02*
X6652421Y-11203528D01*
X6652421Y-11203528D02*
X6652421Y-11194004D01*
X6652421Y-11194004D02*
X6642897Y-11174956D01*
X6642897Y-11174956D02*
X6623850Y-11165433D01*
X6623850Y-11165433D02*
X6595278Y-11165433D01*
X6595278Y-11165433D02*
X6576231Y-11155909D01*
X6576231Y-11155909D02*
X6566707Y-11136861D01*
X6566707Y-11136861D02*
X6566707Y-11127337D01*
X6566707Y-11127337D02*
X6576231Y-11108290D01*
X6576231Y-11108290D02*
X6595278Y-11098766D01*
X6595278Y-11098766D02*
X6623850Y-11098766D01*
X6623850Y-11098766D02*
X6642897Y-11108290D01*
X6719088Y-11308290D02*
X6728612Y-11298766D01*
X6728612Y-11298766D02*
X6747659Y-11270194D01*
X6747659Y-11270194D02*
X6757183Y-11251147D01*
X6757183Y-11251147D02*
X6766707Y-11222575D01*
X6766707Y-11222575D02*
X6776231Y-11174956D01*
X6776231Y-11174956D02*
X6776231Y-11136861D01*
X6776231Y-11136861D02*
X6766707Y-11089242D01*
X6766707Y-11089242D02*
X6757183Y-11060671D01*
X6757183Y-11060671D02*
X6747659Y-11041623D01*
X6747659Y-11041623D02*
X6728612Y-11013052D01*
X6728612Y-11013052D02*
X6719088Y-11003528D01*
D12*
X-205975Y-11329615D02*
X-55975Y-11479615D01*
X-55975Y-11329615D02*
X-205975Y-11479615D01*
X-130975Y-11329615D02*
X-130975Y-11479615D01*
X-205975Y-11404615D02*
X-55975Y-11404615D01*
D11*
X309563Y-11496099D02*
X195278Y-11496099D01*
X252420Y-11496099D02*
X252420Y-11296099D01*
X252420Y-11296099D02*
X233373Y-11324671D01*
X233373Y-11324671D02*
X214325Y-11343718D01*
X214325Y-11343718D02*
X195278Y-11353242D01*
X395278Y-11477051D02*
X404801Y-11486575D01*
X404801Y-11486575D02*
X395278Y-11496099D01*
X395278Y-11496099D02*
X385754Y-11486575D01*
X385754Y-11486575D02*
X395278Y-11477051D01*
X395278Y-11477051D02*
X395278Y-11496099D01*
X585754Y-11296099D02*
X490516Y-11296099D01*
X490516Y-11296099D02*
X480992Y-11391337D01*
X480992Y-11391337D02*
X490516Y-11381813D01*
X490516Y-11381813D02*
X509563Y-11372290D01*
X509563Y-11372290D02*
X557182Y-11372290D01*
X557182Y-11372290D02*
X576230Y-11381813D01*
X576230Y-11381813D02*
X585754Y-11391337D01*
X585754Y-11391337D02*
X595278Y-11410385D01*
X595278Y-11410385D02*
X595278Y-11458004D01*
X595278Y-11458004D02*
X585754Y-11477051D01*
X585754Y-11477051D02*
X576230Y-11486575D01*
X576230Y-11486575D02*
X557182Y-11496099D01*
X557182Y-11496099D02*
X509563Y-11496099D01*
X509563Y-11496099D02*
X490516Y-11486575D01*
X490516Y-11486575D02*
X480992Y-11477051D01*
X719087Y-11296099D02*
X738135Y-11296099D01*
X738135Y-11296099D02*
X757182Y-11305623D01*
X757182Y-11305623D02*
X766706Y-11315147D01*
X766706Y-11315147D02*
X776230Y-11334194D01*
X776230Y-11334194D02*
X785754Y-11372290D01*
X785754Y-11372290D02*
X785754Y-11419909D01*
X785754Y-11419909D02*
X776230Y-11458004D01*
X776230Y-11458004D02*
X766706Y-11477051D01*
X766706Y-11477051D02*
X757182Y-11486575D01*
X757182Y-11486575D02*
X738135Y-11496099D01*
X738135Y-11496099D02*
X719087Y-11496099D01*
X719087Y-11496099D02*
X700039Y-11486575D01*
X700039Y-11486575D02*
X690516Y-11477051D01*
X690516Y-11477051D02*
X680992Y-11458004D01*
X680992Y-11458004D02*
X671468Y-11419909D01*
X671468Y-11419909D02*
X671468Y-11372290D01*
X671468Y-11372290D02*
X680992Y-11334194D01*
X680992Y-11334194D02*
X690516Y-11315147D01*
X690516Y-11315147D02*
X700039Y-11305623D01*
X700039Y-11305623D02*
X719087Y-11296099D01*
X909563Y-11296099D02*
X928611Y-11296099D01*
X928611Y-11296099D02*
X947659Y-11305623D01*
X947659Y-11305623D02*
X957182Y-11315147D01*
X957182Y-11315147D02*
X966706Y-11334194D01*
X966706Y-11334194D02*
X976230Y-11372290D01*
X976230Y-11372290D02*
X976230Y-11419909D01*
X976230Y-11419909D02*
X966706Y-11458004D01*
X966706Y-11458004D02*
X957182Y-11477051D01*
X957182Y-11477051D02*
X947659Y-11486575D01*
X947659Y-11486575D02*
X928611Y-11496099D01*
X928611Y-11496099D02*
X909563Y-11496099D01*
X909563Y-11496099D02*
X890516Y-11486575D01*
X890516Y-11486575D02*
X880992Y-11477051D01*
X880992Y-11477051D02*
X871468Y-11458004D01*
X871468Y-11458004D02*
X861944Y-11419909D01*
X861944Y-11419909D02*
X861944Y-11372290D01*
X861944Y-11372290D02*
X871468Y-11334194D01*
X871468Y-11334194D02*
X880992Y-11315147D01*
X880992Y-11315147D02*
X890516Y-11305623D01*
X890516Y-11305623D02*
X909563Y-11296099D01*
X1061944Y-11496099D02*
X1061944Y-11362766D01*
X1061944Y-11381813D02*
X1071468Y-11372290D01*
X1071468Y-11372290D02*
X1090516Y-11362766D01*
X1090516Y-11362766D02*
X1119087Y-11362766D01*
X1119087Y-11362766D02*
X1138135Y-11372290D01*
X1138135Y-11372290D02*
X1147659Y-11391337D01*
X1147659Y-11391337D02*
X1147659Y-11496099D01*
X1147659Y-11391337D02*
X1157182Y-11372290D01*
X1157182Y-11372290D02*
X1176230Y-11362766D01*
X1176230Y-11362766D02*
X1204801Y-11362766D01*
X1204801Y-11362766D02*
X1223849Y-11372290D01*
X1223849Y-11372290D02*
X1233373Y-11391337D01*
X1233373Y-11391337D02*
X1233373Y-11496099D01*
X1328611Y-11496099D02*
X1328611Y-11362766D01*
X1328611Y-11381813D02*
X1338135Y-11372290D01*
X1338135Y-11372290D02*
X1357182Y-11362766D01*
X1357182Y-11362766D02*
X1385754Y-11362766D01*
X1385754Y-11362766D02*
X1404801Y-11372290D01*
X1404801Y-11372290D02*
X1414325Y-11391337D01*
X1414325Y-11391337D02*
X1414325Y-11496099D01*
X1414325Y-11391337D02*
X1423849Y-11372290D01*
X1423849Y-11372290D02*
X1442897Y-11362766D01*
X1442897Y-11362766D02*
X1471468Y-11362766D01*
X1471468Y-11362766D02*
X1490516Y-11372290D01*
X1490516Y-11372290D02*
X1500040Y-11391337D01*
X1500040Y-11391337D02*
X1500040Y-11496099D01*
X1890516Y-11286575D02*
X1719087Y-11543718D01*
X2147659Y-11296099D02*
X2166706Y-11296099D01*
X2166706Y-11296099D02*
X2185754Y-11305623D01*
X2185754Y-11305623D02*
X2195278Y-11315147D01*
X2195278Y-11315147D02*
X2204802Y-11334194D01*
X2204802Y-11334194D02*
X2214325Y-11372290D01*
X2214325Y-11372290D02*
X2214325Y-11419909D01*
X2214325Y-11419909D02*
X2204802Y-11458004D01*
X2204802Y-11458004D02*
X2195278Y-11477051D01*
X2195278Y-11477051D02*
X2185754Y-11486575D01*
X2185754Y-11486575D02*
X2166706Y-11496099D01*
X2166706Y-11496099D02*
X2147659Y-11496099D01*
X2147659Y-11496099D02*
X2128611Y-11486575D01*
X2128611Y-11486575D02*
X2119087Y-11477051D01*
X2119087Y-11477051D02*
X2109564Y-11458004D01*
X2109564Y-11458004D02*
X2100040Y-11419909D01*
X2100040Y-11419909D02*
X2100040Y-11372290D01*
X2100040Y-11372290D02*
X2109564Y-11334194D01*
X2109564Y-11334194D02*
X2119087Y-11315147D01*
X2119087Y-11315147D02*
X2128611Y-11305623D01*
X2128611Y-11305623D02*
X2147659Y-11296099D01*
X2300040Y-11477051D02*
X2309564Y-11486575D01*
X2309564Y-11486575D02*
X2300040Y-11496099D01*
X2300040Y-11496099D02*
X2290516Y-11486575D01*
X2290516Y-11486575D02*
X2300040Y-11477051D01*
X2300040Y-11477051D02*
X2300040Y-11496099D01*
X2433373Y-11296099D02*
X2452421Y-11296099D01*
X2452421Y-11296099D02*
X2471468Y-11305623D01*
X2471468Y-11305623D02*
X2480992Y-11315147D01*
X2480992Y-11315147D02*
X2490516Y-11334194D01*
X2490516Y-11334194D02*
X2500040Y-11372290D01*
X2500040Y-11372290D02*
X2500040Y-11419909D01*
X2500040Y-11419909D02*
X2490516Y-11458004D01*
X2490516Y-11458004D02*
X2480992Y-11477051D01*
X2480992Y-11477051D02*
X2471468Y-11486575D01*
X2471468Y-11486575D02*
X2452421Y-11496099D01*
X2452421Y-11496099D02*
X2433373Y-11496099D01*
X2433373Y-11496099D02*
X2414325Y-11486575D01*
X2414325Y-11486575D02*
X2404802Y-11477051D01*
X2404802Y-11477051D02*
X2395278Y-11458004D01*
X2395278Y-11458004D02*
X2385754Y-11419909D01*
X2385754Y-11419909D02*
X2385754Y-11372290D01*
X2385754Y-11372290D02*
X2395278Y-11334194D01*
X2395278Y-11334194D02*
X2404802Y-11315147D01*
X2404802Y-11315147D02*
X2414325Y-11305623D01*
X2414325Y-11305623D02*
X2433373Y-11296099D01*
X2680992Y-11296099D02*
X2585754Y-11296099D01*
X2585754Y-11296099D02*
X2576230Y-11391337D01*
X2576230Y-11391337D02*
X2585754Y-11381813D01*
X2585754Y-11381813D02*
X2604802Y-11372290D01*
X2604802Y-11372290D02*
X2652421Y-11372290D01*
X2652421Y-11372290D02*
X2671468Y-11381813D01*
X2671468Y-11381813D02*
X2680992Y-11391337D01*
X2680992Y-11391337D02*
X2690516Y-11410385D01*
X2690516Y-11410385D02*
X2690516Y-11458004D01*
X2690516Y-11458004D02*
X2680992Y-11477051D01*
X2680992Y-11477051D02*
X2671468Y-11486575D01*
X2671468Y-11486575D02*
X2652421Y-11496099D01*
X2652421Y-11496099D02*
X2604802Y-11496099D01*
X2604802Y-11496099D02*
X2585754Y-11486575D01*
X2585754Y-11486575D02*
X2576230Y-11477051D01*
X2785754Y-11496099D02*
X2823849Y-11496099D01*
X2823849Y-11496099D02*
X2842897Y-11486575D01*
X2842897Y-11486575D02*
X2852421Y-11477051D01*
X2852421Y-11477051D02*
X2871468Y-11448480D01*
X2871468Y-11448480D02*
X2880992Y-11410385D01*
X2880992Y-11410385D02*
X2880992Y-11334194D01*
X2880992Y-11334194D02*
X2871468Y-11315147D01*
X2871468Y-11315147D02*
X2861944Y-11305623D01*
X2861944Y-11305623D02*
X2842897Y-11296099D01*
X2842897Y-11296099D02*
X2804802Y-11296099D01*
X2804802Y-11296099D02*
X2785754Y-11305623D01*
X2785754Y-11305623D02*
X2776230Y-11315147D01*
X2776230Y-11315147D02*
X2766706Y-11334194D01*
X2766706Y-11334194D02*
X2766706Y-11381813D01*
X2766706Y-11381813D02*
X2776230Y-11400861D01*
X2776230Y-11400861D02*
X2785754Y-11410385D01*
X2785754Y-11410385D02*
X2804802Y-11419909D01*
X2804802Y-11419909D02*
X2842897Y-11419909D01*
X2842897Y-11419909D02*
X2861944Y-11410385D01*
X2861944Y-11410385D02*
X2871468Y-11400861D01*
X2871468Y-11400861D02*
X2880992Y-11381813D01*
X3071468Y-11496099D02*
X2957183Y-11496099D01*
X3014325Y-11496099D02*
X3014325Y-11296099D01*
X3014325Y-11296099D02*
X2995278Y-11324671D01*
X2995278Y-11324671D02*
X2976230Y-11343718D01*
X2976230Y-11343718D02*
X2957183Y-11353242D01*
X3147659Y-11296099D02*
X3147659Y-11334194D01*
X3223849Y-11296099D02*
X3223849Y-11334194D01*
X3519087Y-11572290D02*
X3509564Y-11562766D01*
X3509564Y-11562766D02*
X3490516Y-11534194D01*
X3490516Y-11534194D02*
X3480992Y-11515147D01*
X3480992Y-11515147D02*
X3471468Y-11486575D01*
X3471468Y-11486575D02*
X3461945Y-11438956D01*
X3461945Y-11438956D02*
X3461945Y-11400861D01*
X3461945Y-11400861D02*
X3471468Y-11353242D01*
X3471468Y-11353242D02*
X3480992Y-11324671D01*
X3480992Y-11324671D02*
X3490516Y-11305623D01*
X3490516Y-11305623D02*
X3509564Y-11277051D01*
X3509564Y-11277051D02*
X3519087Y-11267528D01*
X3633373Y-11296099D02*
X3652421Y-11296099D01*
X3652421Y-11296099D02*
X3671468Y-11305623D01*
X3671468Y-11305623D02*
X3680992Y-11315147D01*
X3680992Y-11315147D02*
X3690516Y-11334194D01*
X3690516Y-11334194D02*
X3700040Y-11372290D01*
X3700040Y-11372290D02*
X3700040Y-11419909D01*
X3700040Y-11419909D02*
X3690516Y-11458004D01*
X3690516Y-11458004D02*
X3680992Y-11477051D01*
X3680992Y-11477051D02*
X3671468Y-11486575D01*
X3671468Y-11486575D02*
X3652421Y-11496099D01*
X3652421Y-11496099D02*
X3633373Y-11496099D01*
X3633373Y-11496099D02*
X3614325Y-11486575D01*
X3614325Y-11486575D02*
X3604802Y-11477051D01*
X3604802Y-11477051D02*
X3595278Y-11458004D01*
X3595278Y-11458004D02*
X3585754Y-11419909D01*
X3585754Y-11419909D02*
X3585754Y-11372290D01*
X3585754Y-11372290D02*
X3595278Y-11334194D01*
X3595278Y-11334194D02*
X3604802Y-11315147D01*
X3604802Y-11315147D02*
X3614325Y-11305623D01*
X3614325Y-11305623D02*
X3633373Y-11296099D01*
X3938135Y-11496099D02*
X3938135Y-11296099D01*
X4023849Y-11496099D02*
X4023849Y-11391337D01*
X4023849Y-11391337D02*
X4014326Y-11372290D01*
X4014326Y-11372290D02*
X3995278Y-11362766D01*
X3995278Y-11362766D02*
X3966706Y-11362766D01*
X3966706Y-11362766D02*
X3947659Y-11372290D01*
X3947659Y-11372290D02*
X3938135Y-11381813D01*
X4147659Y-11496099D02*
X4128611Y-11486575D01*
X4128611Y-11486575D02*
X4119087Y-11477051D01*
X4119087Y-11477051D02*
X4109564Y-11458004D01*
X4109564Y-11458004D02*
X4109564Y-11400861D01*
X4109564Y-11400861D02*
X4119087Y-11381813D01*
X4119087Y-11381813D02*
X4128611Y-11372290D01*
X4128611Y-11372290D02*
X4147659Y-11362766D01*
X4147659Y-11362766D02*
X4176230Y-11362766D01*
X4176230Y-11362766D02*
X4195278Y-11372290D01*
X4195278Y-11372290D02*
X4204802Y-11381813D01*
X4204802Y-11381813D02*
X4214326Y-11400861D01*
X4214326Y-11400861D02*
X4214326Y-11458004D01*
X4214326Y-11458004D02*
X4204802Y-11477051D01*
X4204802Y-11477051D02*
X4195278Y-11486575D01*
X4195278Y-11486575D02*
X4176230Y-11496099D01*
X4176230Y-11496099D02*
X4147659Y-11496099D01*
X4328611Y-11496099D02*
X4309564Y-11486575D01*
X4309564Y-11486575D02*
X4300040Y-11467528D01*
X4300040Y-11467528D02*
X4300040Y-11296099D01*
X4480992Y-11486575D02*
X4461945Y-11496099D01*
X4461945Y-11496099D02*
X4423849Y-11496099D01*
X4423849Y-11496099D02*
X4404802Y-11486575D01*
X4404802Y-11486575D02*
X4395278Y-11467528D01*
X4395278Y-11467528D02*
X4395278Y-11391337D01*
X4395278Y-11391337D02*
X4404802Y-11372290D01*
X4404802Y-11372290D02*
X4423849Y-11362766D01*
X4423849Y-11362766D02*
X4461945Y-11362766D01*
X4461945Y-11362766D02*
X4480992Y-11372290D01*
X4480992Y-11372290D02*
X4490516Y-11391337D01*
X4490516Y-11391337D02*
X4490516Y-11410385D01*
X4490516Y-11410385D02*
X4395278Y-11429432D01*
X4566707Y-11486575D02*
X4585754Y-11496099D01*
X4585754Y-11496099D02*
X4623849Y-11496099D01*
X4623849Y-11496099D02*
X4642897Y-11486575D01*
X4642897Y-11486575D02*
X4652421Y-11467528D01*
X4652421Y-11467528D02*
X4652421Y-11458004D01*
X4652421Y-11458004D02*
X4642897Y-11438956D01*
X4642897Y-11438956D02*
X4623849Y-11429432D01*
X4623849Y-11429432D02*
X4595278Y-11429432D01*
X4595278Y-11429432D02*
X4576230Y-11419909D01*
X4576230Y-11419909D02*
X4566707Y-11400861D01*
X4566707Y-11400861D02*
X4566707Y-11391337D01*
X4566707Y-11391337D02*
X4576230Y-11372290D01*
X4576230Y-11372290D02*
X4595278Y-11362766D01*
X4595278Y-11362766D02*
X4623849Y-11362766D01*
X4623849Y-11362766D02*
X4642897Y-11372290D01*
X4890516Y-11419909D02*
X5042897Y-11419909D01*
X4966707Y-11496099D02*
X4966707Y-11343718D01*
X5280992Y-11315147D02*
X5290516Y-11305623D01*
X5290516Y-11305623D02*
X5309564Y-11296099D01*
X5309564Y-11296099D02*
X5357183Y-11296099D01*
X5357183Y-11296099D02*
X5376231Y-11305623D01*
X5376231Y-11305623D02*
X5385754Y-11315147D01*
X5385754Y-11315147D02*
X5395278Y-11334194D01*
X5395278Y-11334194D02*
X5395278Y-11353242D01*
X5395278Y-11353242D02*
X5385754Y-11381813D01*
X5385754Y-11381813D02*
X5271469Y-11496099D01*
X5271469Y-11496099D02*
X5395278Y-11496099D01*
X5623850Y-11486575D02*
X5642897Y-11496099D01*
X5642897Y-11496099D02*
X5680992Y-11496099D01*
X5680992Y-11496099D02*
X5700040Y-11486575D01*
X5700040Y-11486575D02*
X5709564Y-11467528D01*
X5709564Y-11467528D02*
X5709564Y-11458004D01*
X5709564Y-11458004D02*
X5700040Y-11438956D01*
X5700040Y-11438956D02*
X5680992Y-11429432D01*
X5680992Y-11429432D02*
X5652421Y-11429432D01*
X5652421Y-11429432D02*
X5633373Y-11419909D01*
X5633373Y-11419909D02*
X5623850Y-11400861D01*
X5623850Y-11400861D02*
X5623850Y-11391337D01*
X5623850Y-11391337D02*
X5633373Y-11372290D01*
X5633373Y-11372290D02*
X5652421Y-11362766D01*
X5652421Y-11362766D02*
X5680992Y-11362766D01*
X5680992Y-11362766D02*
X5700040Y-11372290D01*
X5823850Y-11496099D02*
X5804802Y-11486575D01*
X5804802Y-11486575D02*
X5795278Y-11467528D01*
X5795278Y-11467528D02*
X5795278Y-11296099D01*
X5928611Y-11496099D02*
X5909564Y-11486575D01*
X5909564Y-11486575D02*
X5900040Y-11477051D01*
X5900040Y-11477051D02*
X5890516Y-11458004D01*
X5890516Y-11458004D02*
X5890516Y-11400861D01*
X5890516Y-11400861D02*
X5900040Y-11381813D01*
X5900040Y-11381813D02*
X5909564Y-11372290D01*
X5909564Y-11372290D02*
X5928611Y-11362766D01*
X5928611Y-11362766D02*
X5957183Y-11362766D01*
X5957183Y-11362766D02*
X5976231Y-11372290D01*
X5976231Y-11372290D02*
X5985754Y-11381813D01*
X5985754Y-11381813D02*
X5995278Y-11400861D01*
X5995278Y-11400861D02*
X5995278Y-11458004D01*
X5995278Y-11458004D02*
X5985754Y-11477051D01*
X5985754Y-11477051D02*
X5976231Y-11486575D01*
X5976231Y-11486575D02*
X5957183Y-11496099D01*
X5957183Y-11496099D02*
X5928611Y-11496099D01*
X6052421Y-11362766D02*
X6128611Y-11362766D01*
X6080992Y-11296099D02*
X6080992Y-11467528D01*
X6080992Y-11467528D02*
X6090516Y-11486575D01*
X6090516Y-11486575D02*
X6109564Y-11496099D01*
X6109564Y-11496099D02*
X6128611Y-11496099D01*
X6185754Y-11486575D02*
X6204802Y-11496099D01*
X6204802Y-11496099D02*
X6242897Y-11496099D01*
X6242897Y-11496099D02*
X6261945Y-11486575D01*
X6261945Y-11486575D02*
X6271469Y-11467528D01*
X6271469Y-11467528D02*
X6271469Y-11458004D01*
X6271469Y-11458004D02*
X6261945Y-11438956D01*
X6261945Y-11438956D02*
X6242897Y-11429432D01*
X6242897Y-11429432D02*
X6214326Y-11429432D01*
X6214326Y-11429432D02*
X6195278Y-11419909D01*
X6195278Y-11419909D02*
X6185754Y-11400861D01*
X6185754Y-11400861D02*
X6185754Y-11391337D01*
X6185754Y-11391337D02*
X6195278Y-11372290D01*
X6195278Y-11372290D02*
X6214326Y-11362766D01*
X6214326Y-11362766D02*
X6242897Y-11362766D01*
X6242897Y-11362766D02*
X6261945Y-11372290D01*
X6338135Y-11572290D02*
X6347659Y-11562766D01*
X6347659Y-11562766D02*
X6366707Y-11534194D01*
X6366707Y-11534194D02*
X6376231Y-11515147D01*
X6376231Y-11515147D02*
X6385754Y-11486575D01*
X6385754Y-11486575D02*
X6395278Y-11438956D01*
X6395278Y-11438956D02*
X6395278Y-11400861D01*
X6395278Y-11400861D02*
X6385754Y-11353242D01*
X6385754Y-11353242D02*
X6376231Y-11324671D01*
X6376231Y-11324671D02*
X6366707Y-11305623D01*
X6366707Y-11305623D02*
X6347659Y-11277051D01*
X6347659Y-11277051D02*
X6338135Y-11267528D01*
M02*
