%TF.GenerationSoftware,KiCad,Pcbnew,8.0.5-8.0.5-0~ubuntu22.04.1*%
%TF.CreationDate,2024-11-26T13:49:23+00:00*%
%TF.ProjectId,numcalcium,6e756d63-616c-4636-9975-6d2e6b696361,rev?*%
%TF.SameCoordinates,Original*%
%TF.FileFunction,Paste,Bot*%
%TF.FilePolarity,Positive*%
%FSLAX46Y46*%
G04 Gerber Fmt 4.6, Leading zero omitted, Abs format (unit mm)*
G04 Created by KiCad (PCBNEW 8.0.5-8.0.5-0~ubuntu22.04.1) date 2024-11-26 13:49:23*
%MOMM*%
%LPD*%
G01*
G04 APERTURE LIST*
G04 Aperture macros list*
%AMRoundRect*
0 Rectangle with rounded corners*
0 $1 Rounding radius*
0 $2 $3 $4 $5 $6 $7 $8 $9 X,Y pos of 4 corners*
0 Add a 4 corners polygon primitive as box body*
4,1,4,$2,$3,$4,$5,$6,$7,$8,$9,$2,$3,0*
0 Add four circle primitives for the rounded corners*
1,1,$1+$1,$2,$3*
1,1,$1+$1,$4,$5*
1,1,$1+$1,$6,$7*
1,1,$1+$1,$8,$9*
0 Add four rect primitives between the rounded corners*
20,1,$1+$1,$2,$3,$4,$5,0*
20,1,$1+$1,$4,$5,$6,$7,0*
20,1,$1+$1,$6,$7,$8,$9,0*
20,1,$1+$1,$8,$9,$2,$3,0*%
G04 Aperture macros list end*
%ADD10RoundRect,0.250000X-0.325000X-0.450000X0.325000X-0.450000X0.325000X0.450000X-0.325000X0.450000X0*%
%ADD11RoundRect,0.250000X-0.350000X-0.450000X0.350000X-0.450000X0.350000X0.450000X-0.350000X0.450000X0*%
%ADD12RoundRect,1.125000X3.725000X1.125000X-3.725000X1.125000X-3.725000X-1.125000X3.725000X-1.125000X0*%
%ADD13RoundRect,1.250000X4.000000X1.250000X-4.000000X1.250000X-4.000000X-1.250000X4.000000X-1.250000X0*%
%ADD14R,0.740000X2.400000*%
G04 APERTURE END LIST*
D10*
%TO.C,D6*%
X24890246Y-57812154D03*
X26940246Y-57812154D03*
%TD*%
%TO.C,D13*%
X5967246Y-19712154D03*
X8017246Y-19712154D03*
%TD*%
%TO.C,D20*%
X63117246Y-535154D03*
X65167246Y-535154D03*
%TD*%
%TO.C,D10*%
X25144246Y-38762154D03*
X27194246Y-38762154D03*
%TD*%
D11*
%TO.C,R1*%
X2157246Y1827046D03*
X4157246Y1827046D03*
%TD*%
%TO.C,D25*%
X5872246Y1827046D03*
X7872246Y1827046D03*
%TD*%
D10*
%TO.C,D7*%
X44067246Y-57685154D03*
X46117246Y-57685154D03*
%TD*%
%TO.C,D9*%
X5840246Y-38889154D03*
X7890246Y-38889154D03*
%TD*%
%TO.C,D5*%
X5967246Y-57685154D03*
X8017246Y-57685154D03*
%TD*%
%TO.C,D18*%
X25017246Y-662154D03*
X27067246Y-662154D03*
%TD*%
%TO.C,D11*%
X44067246Y-38762154D03*
X46117246Y-38762154D03*
%TD*%
%TO.C,D3*%
X44067246Y-76862154D03*
X46117246Y-76862154D03*
%TD*%
%TO.C,D4*%
X63235246Y-76735154D03*
X65285246Y-76735154D03*
%TD*%
%TO.C,D16*%
X63244246Y-19712154D03*
X65294246Y-19712154D03*
%TD*%
%TO.C,D14*%
X25017246Y-19585154D03*
X27067246Y-19585154D03*
%TD*%
D12*
%TO.C,BT1*%
X4333246Y19063846D03*
D13*
X71333246Y19063846D03*
%TD*%
D10*
%TO.C,D19*%
X44067246Y-535154D03*
X46117246Y-535154D03*
%TD*%
%TO.C,D17*%
X5967246Y-535154D03*
X8017246Y-535154D03*
%TD*%
%TO.C,D15*%
X44067246Y-19585154D03*
X46117246Y-19585154D03*
%TD*%
%TO.C,D1*%
X5839246Y-76810154D03*
X7889246Y-76810154D03*
%TD*%
%TO.C,D12*%
X63117246Y-38635154D03*
X65167246Y-38635154D03*
%TD*%
%TO.C,D2*%
X25017246Y-76862154D03*
X27067246Y-76862154D03*
%TD*%
D14*
%TO.C,J3*%
X58164246Y16570646D03*
X58164246Y20470646D03*
X56894246Y16570646D03*
X56894246Y20470646D03*
X55624246Y16570646D03*
X55624246Y20470646D03*
X54354246Y16570646D03*
X54354246Y20470646D03*
%TD*%
D10*
%TO.C,D8*%
X63117246Y-57812154D03*
X65167246Y-57812154D03*
%TD*%
M02*
