%TF.GenerationSoftware,KiCad,Pcbnew,8.0.7-8.0.7-0~ubuntu22.04.1*%
%TF.CreationDate,2024-12-28T00:36:34+00:00*%
%TF.ProjectId,numcalcium,6e756d63-616c-4636-9975-6d2e6b696361,rev?*%
%TF.SameCoordinates,Original*%
%TF.FileFunction,Drillmap*%
%TF.FilePolarity,Positive*%
%FSLAX45Y45*%
G04 Gerber Fmt 4.5, Leading zero omitted, Abs format (unit mm)*
G04 Created by KiCad (PCBNEW 8.0.7-8.0.7-0~ubuntu22.04.1) date 2024-12-28 00:36:34*
%MOMM*%
%LPD*%
G01*
G04 APERTURE LIST*
%ADD10C,0.100000*%
%ADD11C,0.200000*%
%ADD12C,0.150000*%
G04 APERTURE END LIST*
D10*
X-5849Y-8835733D02*
X-7821Y2960812D01*
X7360151Y-9221988D02*
X380407Y-9221988D01*
X7358179Y3347067D02*
X378434Y3347067D01*
X390020Y3098975D02*
G75*
G02*
X161189Y3098975I-114416J0D01*
G01*
X161189Y3098975D02*
G75*
G02*
X390020Y3098975I114416J0D01*
G01*
X7600410Y600190D02*
G75*
G02*
X7370735Y600190I-114837J0D01*
G01*
X7370735Y600190D02*
G75*
G02*
X7600410Y600190I114837J0D01*
G01*
X7746407Y-8835733D02*
G75*
G02*
X7360151Y-9221987I-386267J13D01*
G01*
X-7821Y2960812D02*
G75*
G02*
X378434Y3347067I386255J0D01*
G01*
X7358179Y3347067D02*
G75*
G02*
X7744437Y2960812I-9J-386267D01*
G01*
X7598171Y3095949D02*
G75*
G02*
X7373519Y3095949I-112326J0D01*
G01*
X7373519Y3095949D02*
G75*
G02*
X7598171Y3095949I112326J0D01*
G01*
X7744434Y2960812D02*
X7746407Y-8835733D01*
X387216Y600536D02*
G75*
G02*
X154334Y600536I-116441J0D01*
G01*
X154334Y600536D02*
G75*
G02*
X387216Y600536I116441J0D01*
G01*
X380407Y-9221988D02*
G75*
G02*
X-5849Y-8835733I0J386256D01*
G01*
X592179Y-8286388D02*
G75*
G02*
X422179Y-8286388I-85000J0D01*
G01*
X422179Y-8286388D02*
G75*
G02*
X592179Y-8286388I85000J0D01*
G01*
X887179Y-8831388D02*
G75*
G02*
X577179Y-8831388I-155000J0D01*
G01*
X577179Y-8831388D02*
G75*
G02*
X887179Y-8831388I155000J0D01*
G01*
X1207179Y-8286388D02*
G75*
G02*
X807179Y-8286388I-200000J0D01*
G01*
X807179Y-8286388D02*
G75*
G02*
X1207179Y-8286388I200000J0D01*
G01*
X1537179Y-8566388D02*
G75*
G02*
X1227179Y-8566388I-155000J0D01*
G01*
X1227179Y-8566388D02*
G75*
G02*
X1537179Y-8566388I155000J0D01*
G01*
X1592179Y-8286388D02*
G75*
G02*
X1422179Y-8286388I-85000J0D01*
G01*
X1422179Y-8286388D02*
G75*
G02*
X1592179Y-8286388I85000J0D01*
G01*
X6312579Y-8286388D02*
G75*
G02*
X6142579Y-8286388I-85000J0D01*
G01*
X6142579Y-8286388D02*
G75*
G02*
X6312579Y-8286388I85000J0D01*
G01*
X6607579Y-8831388D02*
G75*
G02*
X6297579Y-8831388I-155000J0D01*
G01*
X6297579Y-8831388D02*
G75*
G02*
X6607579Y-8831388I155000J0D01*
G01*
X6927579Y-8286388D02*
G75*
G02*
X6527579Y-8286388I-200000J0D01*
G01*
X6527579Y-8286388D02*
G75*
G02*
X6927579Y-8286388I200000J0D01*
G01*
X7257579Y-8566388D02*
G75*
G02*
X6947579Y-8566388I-155000J0D01*
G01*
X6947579Y-8566388D02*
G75*
G02*
X7257579Y-8566388I155000J0D01*
G01*
X7312579Y-8286388D02*
G75*
G02*
X7142579Y-8286388I-85000J0D01*
G01*
X7142579Y-8286388D02*
G75*
G02*
X7312579Y-8286388I85000J0D01*
G01*
X600879Y-2571388D02*
G75*
G02*
X430879Y-2571388I-85000J0D01*
G01*
X430879Y-2571388D02*
G75*
G02*
X600879Y-2571388I85000J0D01*
G01*
X895879Y-3116388D02*
G75*
G02*
X585879Y-3116388I-155000J0D01*
G01*
X585879Y-3116388D02*
G75*
G02*
X895879Y-3116388I155000J0D01*
G01*
X1215879Y-2571388D02*
G75*
G02*
X815879Y-2571388I-200000J0D01*
G01*
X815879Y-2571388D02*
G75*
G02*
X1215879Y-2571388I200000J0D01*
G01*
X1545879Y-2851388D02*
G75*
G02*
X1235879Y-2851388I-155000J0D01*
G01*
X1235879Y-2851388D02*
G75*
G02*
X1545879Y-2851388I155000J0D01*
G01*
X1600879Y-2571388D02*
G75*
G02*
X1430879Y-2571388I-85000J0D01*
G01*
X1430879Y-2571388D02*
G75*
G02*
X1600879Y-2571388I85000J0D01*
G01*
X6307179Y-679088D02*
G75*
G02*
X6137179Y-679088I-85000J0D01*
G01*
X6137179Y-679088D02*
G75*
G02*
X6307179Y-679088I85000J0D01*
G01*
X6602179Y-1224088D02*
G75*
G02*
X6292179Y-1224088I-155000J0D01*
G01*
X6292179Y-1224088D02*
G75*
G02*
X6602179Y-1224088I155000J0D01*
G01*
X6922179Y-679088D02*
G75*
G02*
X6522179Y-679088I-200000J0D01*
G01*
X6522179Y-679088D02*
G75*
G02*
X6922179Y-679088I200000J0D01*
G01*
X7252179Y-959088D02*
G75*
G02*
X6942179Y-959088I-155000J0D01*
G01*
X6942179Y-959088D02*
G75*
G02*
X7252179Y-959088I155000J0D01*
G01*
X7307179Y-679088D02*
G75*
G02*
X7137179Y-679088I-85000J0D01*
G01*
X7137179Y-679088D02*
G75*
G02*
X7307179Y-679088I85000J0D01*
G01*
X4402179Y-8286388D02*
G75*
G02*
X4232179Y-8286388I-85000J0D01*
G01*
X4232179Y-8286388D02*
G75*
G02*
X4402179Y-8286388I85000J0D01*
G01*
X4697179Y-8831388D02*
G75*
G02*
X4387179Y-8831388I-155000J0D01*
G01*
X4387179Y-8831388D02*
G75*
G02*
X4697179Y-8831388I155000J0D01*
G01*
X5017179Y-8286388D02*
G75*
G02*
X4617179Y-8286388I-200000J0D01*
G01*
X4617179Y-8286388D02*
G75*
G02*
X5017179Y-8286388I200000J0D01*
G01*
X5347179Y-8566388D02*
G75*
G02*
X5037179Y-8566388I-155000J0D01*
G01*
X5037179Y-8566388D02*
G75*
G02*
X5347179Y-8566388I155000J0D01*
G01*
X5402179Y-8286388D02*
G75*
G02*
X5232179Y-8286388I-85000J0D01*
G01*
X5232179Y-8286388D02*
G75*
G02*
X5402179Y-8286388I85000J0D01*
G01*
X4398179Y-679088D02*
G75*
G02*
X4228179Y-679088I-85000J0D01*
G01*
X4228179Y-679088D02*
G75*
G02*
X4398179Y-679088I85000J0D01*
G01*
X4693179Y-1224088D02*
G75*
G02*
X4383179Y-1224088I-155000J0D01*
G01*
X4383179Y-1224088D02*
G75*
G02*
X4693179Y-1224088I155000J0D01*
G01*
X5013179Y-679088D02*
G75*
G02*
X4613179Y-679088I-200000J0D01*
G01*
X4613179Y-679088D02*
G75*
G02*
X5013179Y-679088I200000J0D01*
G01*
X5343179Y-959088D02*
G75*
G02*
X5033179Y-959088I-155000J0D01*
G01*
X5033179Y-959088D02*
G75*
G02*
X5343179Y-959088I155000J0D01*
G01*
X5398179Y-679088D02*
G75*
G02*
X5228179Y-679088I-85000J0D01*
G01*
X5228179Y-679088D02*
G75*
G02*
X5398179Y-679088I85000J0D01*
G01*
X6311379Y-6381288D02*
G75*
G02*
X6141379Y-6381288I-85000J0D01*
G01*
X6141379Y-6381288D02*
G75*
G02*
X6311379Y-6381288I85000J0D01*
G01*
X6606379Y-6926288D02*
G75*
G02*
X6296379Y-6926288I-155000J0D01*
G01*
X6296379Y-6926288D02*
G75*
G02*
X6606379Y-6926288I155000J0D01*
G01*
X6926379Y-6381288D02*
G75*
G02*
X6526379Y-6381288I-200000J0D01*
G01*
X6526379Y-6381288D02*
G75*
G02*
X6926379Y-6381288I200000J0D01*
G01*
X7256379Y-6661288D02*
G75*
G02*
X6946379Y-6661288I-155000J0D01*
G01*
X6946379Y-6661288D02*
G75*
G02*
X7256379Y-6661288I155000J0D01*
G01*
X7311379Y-6381288D02*
G75*
G02*
X7141379Y-6381288I-85000J0D01*
G01*
X7141379Y-6381288D02*
G75*
G02*
X7311379Y-6381288I85000J0D01*
G01*
X4398179Y-2571388D02*
G75*
G02*
X4228179Y-2571388I-85000J0D01*
G01*
X4228179Y-2571388D02*
G75*
G02*
X4398179Y-2571388I85000J0D01*
G01*
X4693179Y-3116388D02*
G75*
G02*
X4383179Y-3116388I-155000J0D01*
G01*
X4383179Y-3116388D02*
G75*
G02*
X4693179Y-3116388I155000J0D01*
G01*
X5013179Y-2571388D02*
G75*
G02*
X4613179Y-2571388I-200000J0D01*
G01*
X4613179Y-2571388D02*
G75*
G02*
X5013179Y-2571388I200000J0D01*
G01*
X5343179Y-2851388D02*
G75*
G02*
X5033179Y-2851388I-155000J0D01*
G01*
X5033179Y-2851388D02*
G75*
G02*
X5343179Y-2851388I155000J0D01*
G01*
X5398179Y-2571388D02*
G75*
G02*
X5228179Y-2571388I-85000J0D01*
G01*
X5228179Y-2571388D02*
G75*
G02*
X5398179Y-2571388I85000J0D01*
G01*
X2493179Y-4476288D02*
G75*
G02*
X2323179Y-4476288I-85000J0D01*
G01*
X2323179Y-4476288D02*
G75*
G02*
X2493179Y-4476288I85000J0D01*
G01*
X2788179Y-5021288D02*
G75*
G02*
X2478179Y-5021288I-155000J0D01*
G01*
X2478179Y-5021288D02*
G75*
G02*
X2788179Y-5021288I155000J0D01*
G01*
X3108179Y-4476288D02*
G75*
G02*
X2708179Y-4476288I-200000J0D01*
G01*
X2708179Y-4476288D02*
G75*
G02*
X3108179Y-4476288I200000J0D01*
G01*
X3438179Y-4756288D02*
G75*
G02*
X3128179Y-4756288I-155000J0D01*
G01*
X3128179Y-4756288D02*
G75*
G02*
X3438179Y-4756288I155000J0D01*
G01*
X3493179Y-4476288D02*
G75*
G02*
X3323179Y-4476288I-85000J0D01*
G01*
X3323179Y-4476288D02*
G75*
G02*
X3493179Y-4476288I85000J0D01*
G01*
X2493179Y-2571388D02*
G75*
G02*
X2323179Y-2571388I-85000J0D01*
G01*
X2323179Y-2571388D02*
G75*
G02*
X2493179Y-2571388I85000J0D01*
G01*
X2788179Y-3116388D02*
G75*
G02*
X2478179Y-3116388I-155000J0D01*
G01*
X2478179Y-3116388D02*
G75*
G02*
X2788179Y-3116388I155000J0D01*
G01*
X3108179Y-2571388D02*
G75*
G02*
X2708179Y-2571388I-200000J0D01*
G01*
X2708179Y-2571388D02*
G75*
G02*
X3108179Y-2571388I200000J0D01*
G01*
X3438179Y-2851388D02*
G75*
G02*
X3128179Y-2851388I-155000J0D01*
G01*
X3128179Y-2851388D02*
G75*
G02*
X3438179Y-2851388I155000J0D01*
G01*
X3493179Y-2571388D02*
G75*
G02*
X3323179Y-2571388I-85000J0D01*
G01*
X3323179Y-2571388D02*
G75*
G02*
X3493179Y-2571388I85000J0D01*
G01*
X4406379Y-4476288D02*
G75*
G02*
X4236379Y-4476288I-85000J0D01*
G01*
X4236379Y-4476288D02*
G75*
G02*
X4406379Y-4476288I85000J0D01*
G01*
X4701379Y-5021288D02*
G75*
G02*
X4391379Y-5021288I-155000J0D01*
G01*
X4391379Y-5021288D02*
G75*
G02*
X4701379Y-5021288I155000J0D01*
G01*
X5021379Y-4476288D02*
G75*
G02*
X4621379Y-4476288I-200000J0D01*
G01*
X4621379Y-4476288D02*
G75*
G02*
X5021379Y-4476288I200000J0D01*
G01*
X5351379Y-4756288D02*
G75*
G02*
X5041379Y-4756288I-155000J0D01*
G01*
X5041379Y-4756288D02*
G75*
G02*
X5351379Y-4756288I155000J0D01*
G01*
X5406379Y-4476288D02*
G75*
G02*
X5236379Y-4476288I-85000J0D01*
G01*
X5236379Y-4476288D02*
G75*
G02*
X5406379Y-4476288I85000J0D01*
G01*
X2489879Y-8286388D02*
G75*
G02*
X2319879Y-8286388I-85000J0D01*
G01*
X2319879Y-8286388D02*
G75*
G02*
X2489879Y-8286388I85000J0D01*
G01*
X2784879Y-8831388D02*
G75*
G02*
X2474879Y-8831388I-155000J0D01*
G01*
X2474879Y-8831388D02*
G75*
G02*
X2784879Y-8831388I155000J0D01*
G01*
X3104879Y-8286388D02*
G75*
G02*
X2704879Y-8286388I-200000J0D01*
G01*
X2704879Y-8286388D02*
G75*
G02*
X3104879Y-8286388I200000J0D01*
G01*
X3434879Y-8566388D02*
G75*
G02*
X3124879Y-8566388I-155000J0D01*
G01*
X3124879Y-8566388D02*
G75*
G02*
X3434879Y-8566388I155000J0D01*
G01*
X3489879Y-8286388D02*
G75*
G02*
X3319879Y-8286388I-85000J0D01*
G01*
X3319879Y-8286388D02*
G75*
G02*
X3489879Y-8286388I85000J0D01*
G01*
X6315879Y-2571388D02*
G75*
G02*
X6145879Y-2571388I-85000J0D01*
G01*
X6145879Y-2571388D02*
G75*
G02*
X6315879Y-2571388I85000J0D01*
G01*
X6610879Y-3116388D02*
G75*
G02*
X6300879Y-3116388I-155000J0D01*
G01*
X6300879Y-3116388D02*
G75*
G02*
X6610879Y-3116388I155000J0D01*
G01*
X6930879Y-2571388D02*
G75*
G02*
X6530879Y-2571388I-200000J0D01*
G01*
X6530879Y-2571388D02*
G75*
G02*
X6930879Y-2571388I200000J0D01*
G01*
X7260879Y-2851388D02*
G75*
G02*
X6950879Y-2851388I-155000J0D01*
G01*
X6950879Y-2851388D02*
G75*
G02*
X7260879Y-2851388I155000J0D01*
G01*
X7315879Y-2571388D02*
G75*
G02*
X7145879Y-2571388I-85000J0D01*
G01*
X7145879Y-2571388D02*
G75*
G02*
X7315879Y-2571388I85000J0D01*
G01*
X600879Y-679088D02*
G75*
G02*
X430879Y-679088I-85000J0D01*
G01*
X430879Y-679088D02*
G75*
G02*
X600879Y-679088I85000J0D01*
G01*
X895879Y-1224088D02*
G75*
G02*
X585879Y-1224088I-155000J0D01*
G01*
X585879Y-1224088D02*
G75*
G02*
X895879Y-1224088I155000J0D01*
G01*
X1215879Y-679088D02*
G75*
G02*
X815879Y-679088I-200000J0D01*
G01*
X815879Y-679088D02*
G75*
G02*
X1215879Y-679088I200000J0D01*
G01*
X1545879Y-959088D02*
G75*
G02*
X1235879Y-959088I-155000J0D01*
G01*
X1235879Y-959088D02*
G75*
G02*
X1545879Y-959088I155000J0D01*
G01*
X1600879Y-679088D02*
G75*
G02*
X1430879Y-679088I-85000J0D01*
G01*
X1430879Y-679088D02*
G75*
G02*
X1600879Y-679088I85000J0D01*
G01*
X2493179Y-679088D02*
G75*
G02*
X2323179Y-679088I-85000J0D01*
G01*
X2323179Y-679088D02*
G75*
G02*
X2493179Y-679088I85000J0D01*
G01*
X2788179Y-1224088D02*
G75*
G02*
X2478179Y-1224088I-155000J0D01*
G01*
X2478179Y-1224088D02*
G75*
G02*
X2788179Y-1224088I155000J0D01*
G01*
X3108179Y-679088D02*
G75*
G02*
X2708179Y-679088I-200000J0D01*
G01*
X2708179Y-679088D02*
G75*
G02*
X3108179Y-679088I200000J0D01*
G01*
X3438179Y-959088D02*
G75*
G02*
X3128179Y-959088I-155000J0D01*
G01*
X3128179Y-959088D02*
G75*
G02*
X3438179Y-959088I155000J0D01*
G01*
X3493179Y-679088D02*
G75*
G02*
X3323179Y-679088I-85000J0D01*
G01*
X3323179Y-679088D02*
G75*
G02*
X3493179Y-679088I85000J0D01*
G01*
X594879Y-4472888D02*
G75*
G02*
X424879Y-4472888I-85000J0D01*
G01*
X424879Y-4472888D02*
G75*
G02*
X594879Y-4472888I85000J0D01*
G01*
X889879Y-5017888D02*
G75*
G02*
X579879Y-5017888I-155000J0D01*
G01*
X579879Y-5017888D02*
G75*
G02*
X889879Y-5017888I155000J0D01*
G01*
X1209879Y-4472888D02*
G75*
G02*
X809879Y-4472888I-200000J0D01*
G01*
X809879Y-4472888D02*
G75*
G02*
X1209879Y-4472888I200000J0D01*
G01*
X1539879Y-4752888D02*
G75*
G02*
X1229879Y-4752888I-155000J0D01*
G01*
X1229879Y-4752888D02*
G75*
G02*
X1539879Y-4752888I155000J0D01*
G01*
X1594879Y-4472888D02*
G75*
G02*
X1424879Y-4472888I-85000J0D01*
G01*
X1424879Y-4472888D02*
G75*
G02*
X1594879Y-4472888I85000J0D01*
G01*
X6315879Y-4476388D02*
G75*
G02*
X6145879Y-4476388I-85000J0D01*
G01*
X6145879Y-4476388D02*
G75*
G02*
X6315879Y-4476388I85000J0D01*
G01*
X6610879Y-5021388D02*
G75*
G02*
X6300879Y-5021388I-155000J0D01*
G01*
X6300879Y-5021388D02*
G75*
G02*
X6610879Y-5021388I155000J0D01*
G01*
X6930879Y-4476388D02*
G75*
G02*
X6530879Y-4476388I-200000J0D01*
G01*
X6530879Y-4476388D02*
G75*
G02*
X6930879Y-4476388I200000J0D01*
G01*
X7260879Y-4756388D02*
G75*
G02*
X6950879Y-4756388I-155000J0D01*
G01*
X6950879Y-4756388D02*
G75*
G02*
X7260879Y-4756388I155000J0D01*
G01*
X7315879Y-4476388D02*
G75*
G02*
X7145879Y-4476388I-85000J0D01*
G01*
X7145879Y-4476388D02*
G75*
G02*
X7315879Y-4476388I85000J0D01*
G01*
X592179Y-6381388D02*
G75*
G02*
X422179Y-6381388I-85000J0D01*
G01*
X422179Y-6381388D02*
G75*
G02*
X592179Y-6381388I85000J0D01*
G01*
X887179Y-6926388D02*
G75*
G02*
X577179Y-6926388I-155000J0D01*
G01*
X577179Y-6926388D02*
G75*
G02*
X887179Y-6926388I155000J0D01*
G01*
X1207179Y-6381388D02*
G75*
G02*
X807179Y-6381388I-200000J0D01*
G01*
X807179Y-6381388D02*
G75*
G02*
X1207179Y-6381388I200000J0D01*
G01*
X1537179Y-6661388D02*
G75*
G02*
X1227179Y-6661388I-155000J0D01*
G01*
X1227179Y-6661388D02*
G75*
G02*
X1537179Y-6661388I155000J0D01*
G01*
X1592179Y-6381388D02*
G75*
G02*
X1422179Y-6381388I-85000J0D01*
G01*
X1422179Y-6381388D02*
G75*
G02*
X1592179Y-6381388I85000J0D01*
G01*
X4406379Y-6381288D02*
G75*
G02*
X4236379Y-6381288I-85000J0D01*
G01*
X4236379Y-6381288D02*
G75*
G02*
X4406379Y-6381288I85000J0D01*
G01*
X4701379Y-6926288D02*
G75*
G02*
X4391379Y-6926288I-155000J0D01*
G01*
X4391379Y-6926288D02*
G75*
G02*
X4701379Y-6926288I155000J0D01*
G01*
X5021379Y-6381288D02*
G75*
G02*
X4621379Y-6381288I-200000J0D01*
G01*
X4621379Y-6381288D02*
G75*
G02*
X5021379Y-6381288I200000J0D01*
G01*
X5351379Y-6661288D02*
G75*
G02*
X5041379Y-6661288I-155000J0D01*
G01*
X5041379Y-6661288D02*
G75*
G02*
X5351379Y-6661288I155000J0D01*
G01*
X5406379Y-6381288D02*
G75*
G02*
X5236379Y-6381288I-85000J0D01*
G01*
X5236379Y-6381288D02*
G75*
G02*
X5406379Y-6381288I85000J0D01*
G01*
X2488679Y-6381288D02*
G75*
G02*
X2318679Y-6381288I-85000J0D01*
G01*
X2318679Y-6381288D02*
G75*
G02*
X2488679Y-6381288I85000J0D01*
G01*
X2783679Y-6926288D02*
G75*
G02*
X2473679Y-6926288I-155000J0D01*
G01*
X2473679Y-6926288D02*
G75*
G02*
X2783679Y-6926288I155000J0D01*
G01*
X3103679Y-6381288D02*
G75*
G02*
X2703679Y-6381288I-200000J0D01*
G01*
X2703679Y-6381288D02*
G75*
G02*
X3103679Y-6381288I200000J0D01*
G01*
X3433679Y-6661288D02*
G75*
G02*
X3123679Y-6661288I-155000J0D01*
G01*
X3123679Y-6661288D02*
G75*
G02*
X3433679Y-6661288I155000J0D01*
G01*
X3488679Y-6381288D02*
G75*
G02*
X3318679Y-6381288I-85000J0D01*
G01*
X3318679Y-6381288D02*
G75*
G02*
X3488679Y-6381288I85000J0D01*
G01*
D11*
D10*
X5040179Y1880412D02*
X5060179Y1860412D01*
X5060179Y1880412D02*
X5040179Y1860412D01*
X5040179Y1740412D02*
X5060179Y1720412D01*
X5060179Y1740412D02*
X5040179Y1720412D01*
X5110179Y1950412D02*
X5130179Y1930412D01*
X5130179Y1950412D02*
X5110179Y1930412D01*
X5110179Y1810412D02*
X5130179Y1790412D01*
X5130179Y1810412D02*
X5110179Y1790412D01*
X5110179Y1670412D02*
X5130179Y1650412D01*
X5130179Y1670412D02*
X5110179Y1650412D01*
X5180179Y1880412D02*
X5200179Y1860412D01*
X5200179Y1880412D02*
X5180179Y1860412D01*
X5180179Y1740412D02*
X5200179Y1720412D01*
X5200179Y1740412D02*
X5180179Y1720412D01*
X5250179Y1950412D02*
X5270179Y1930412D01*
X5270179Y1950412D02*
X5250179Y1930412D01*
X5250179Y1810412D02*
X5270179Y1790412D01*
X5270179Y1810412D02*
X5250179Y1790412D01*
X5250179Y1670412D02*
X5270179Y1650412D01*
X5270179Y1670412D02*
X5250179Y1650412D01*
X5320179Y1880412D02*
X5340179Y1860412D01*
X5340179Y1880412D02*
X5320179Y1860412D01*
X5320179Y1740412D02*
X5340179Y1720412D01*
X5340179Y1740412D02*
X5320179Y1720412D01*
X139179Y-468188D02*
G75*
G02*
X99179Y-468188I-20000J0D01*
G01*
X99179Y-468188D02*
G75*
G02*
X139179Y-468188I20000J0D01*
G01*
X139179Y-1103188D02*
G75*
G02*
X99179Y-1103188I-20000J0D01*
G01*
X99179Y-1103188D02*
G75*
G02*
X139179Y-1103188I20000J0D01*
G01*
X139179Y-1738188D02*
G75*
G02*
X99179Y-1738188I-20000J0D01*
G01*
X99179Y-1738188D02*
G75*
G02*
X139179Y-1738188I20000J0D01*
G01*
X139179Y-2373188D02*
G75*
G02*
X99179Y-2373188I-20000J0D01*
G01*
X99179Y-2373188D02*
G75*
G02*
X139179Y-2373188I20000J0D01*
G01*
X139179Y-3008188D02*
G75*
G02*
X99179Y-3008188I-20000J0D01*
G01*
X99179Y-3008188D02*
G75*
G02*
X139179Y-3008188I20000J0D01*
G01*
X139179Y-3643188D02*
G75*
G02*
X99179Y-3643188I-20000J0D01*
G01*
X99179Y-3643188D02*
G75*
G02*
X139179Y-3643188I20000J0D01*
G01*
X139179Y-4278188D02*
G75*
G02*
X99179Y-4278188I-20000J0D01*
G01*
X99179Y-4278188D02*
G75*
G02*
X139179Y-4278188I20000J0D01*
G01*
X139179Y-4913188D02*
G75*
G02*
X99179Y-4913188I-20000J0D01*
G01*
X99179Y-4913188D02*
G75*
G02*
X139179Y-4913188I20000J0D01*
G01*
X139179Y-5548188D02*
G75*
G02*
X99179Y-5548188I-20000J0D01*
G01*
X99179Y-5548188D02*
G75*
G02*
X139179Y-5548188I20000J0D01*
G01*
X139179Y-6183188D02*
G75*
G02*
X99179Y-6183188I-20000J0D01*
G01*
X99179Y-6183188D02*
G75*
G02*
X139179Y-6183188I20000J0D01*
G01*
X139179Y-6818188D02*
G75*
G02*
X99179Y-6818188I-20000J0D01*
G01*
X99179Y-6818188D02*
G75*
G02*
X139179Y-6818188I20000J0D01*
G01*
X139179Y-7453188D02*
G75*
G02*
X99179Y-7453188I-20000J0D01*
G01*
X99179Y-7453188D02*
G75*
G02*
X139179Y-7453188I20000J0D01*
G01*
X139179Y-8088188D02*
G75*
G02*
X99179Y-8088188I-20000J0D01*
G01*
X99179Y-8088188D02*
G75*
G02*
X139179Y-8088188I20000J0D01*
G01*
X139179Y-8723188D02*
G75*
G02*
X99179Y-8723188I-20000J0D01*
G01*
X99179Y-8723188D02*
G75*
G02*
X139179Y-8723188I20000J0D01*
G01*
X164200Y813600D02*
G75*
G02*
X124200Y813600I-20000J0D01*
G01*
X124200Y813600D02*
G75*
G02*
X164200Y813600I20000J0D01*
G01*
X221092Y1583412D02*
G75*
G02*
X181092Y1583412I-20000J0D01*
G01*
X181092Y1583412D02*
G75*
G02*
X221092Y1583412I20000J0D01*
G01*
X314200Y2688600D02*
G75*
G02*
X274200Y2688600I-20000J0D01*
G01*
X274200Y2688600D02*
G75*
G02*
X314200Y2688600I20000J0D01*
G01*
X314200Y2588600D02*
G75*
G02*
X274200Y2588600I-20000J0D01*
G01*
X274200Y2588600D02*
G75*
G02*
X314200Y2588600I20000J0D01*
G01*
X314200Y2488600D02*
G75*
G02*
X274200Y2488600I-20000J0D01*
G01*
X274200Y2488600D02*
G75*
G02*
X314200Y2488600I20000J0D01*
G01*
X319000Y1583200D02*
G75*
G02*
X279000Y1583200I-20000J0D01*
G01*
X279000Y1583200D02*
G75*
G02*
X319000Y1583200I20000J0D01*
G01*
X385040Y2153760D02*
G75*
G02*
X345040Y2153760I-20000J0D01*
G01*
X345040Y2153760D02*
G75*
G02*
X385040Y2153760I20000J0D01*
G01*
X449700Y1775407D02*
G75*
G02*
X409700Y1775407I-20000J0D01*
G01*
X409700Y1775407D02*
G75*
G02*
X449700Y1775407I20000J0D01*
G01*
X471400Y1684707D02*
G75*
G02*
X431400Y1684707I-20000J0D01*
G01*
X431400Y1684707D02*
G75*
G02*
X471400Y1684707I20000J0D01*
G01*
X471400Y1579720D02*
G75*
G02*
X431400Y1579720I-20000J0D01*
G01*
X431400Y1579720D02*
G75*
G02*
X471400Y1579720I20000J0D01*
G01*
X471400Y1467960D02*
G75*
G02*
X431400Y1467960I-20000J0D01*
G01*
X431400Y1467960D02*
G75*
G02*
X471400Y1467960I20000J0D01*
G01*
X471400Y1356200D02*
G75*
G02*
X431400Y1356200I-20000J0D01*
G01*
X431400Y1356200D02*
G75*
G02*
X471400Y1356200I20000J0D01*
G01*
X482079Y-10988D02*
G75*
G02*
X442079Y-10988I-20000J0D01*
G01*
X442079Y-10988D02*
G75*
G02*
X482079Y-10988I20000J0D01*
G01*
X494260Y2156300D02*
G75*
G02*
X454260Y2156300I-20000J0D01*
G01*
X454260Y2156300D02*
G75*
G02*
X494260Y2156300I20000J0D01*
G01*
X514200Y838600D02*
G75*
G02*
X474200Y838600I-20000J0D01*
G01*
X474200Y838600D02*
G75*
G02*
X514200Y838600I20000J0D01*
G01*
X639200Y2763600D02*
G75*
G02*
X599200Y2763600I-20000J0D01*
G01*
X599200Y2763600D02*
G75*
G02*
X639200Y2763600I20000J0D01*
G01*
X664200Y2438600D02*
G75*
G02*
X624200Y2438600I-20000J0D01*
G01*
X624200Y2438600D02*
G75*
G02*
X664200Y2438600I20000J0D01*
G01*
X689200Y1288600D02*
G75*
G02*
X649200Y1288600I-20000J0D01*
G01*
X649200Y1288600D02*
G75*
G02*
X689200Y1288600I20000J0D01*
G01*
X864200Y2438600D02*
G75*
G02*
X824200Y2438600I-20000J0D01*
G01*
X824200Y2438600D02*
G75*
G02*
X864200Y2438600I20000J0D01*
G01*
X889200Y2763600D02*
G75*
G02*
X849200Y2763600I-20000J0D01*
G01*
X849200Y2763600D02*
G75*
G02*
X889200Y2763600I20000J0D01*
G01*
X964200Y2538600D02*
G75*
G02*
X924200Y2538600I-20000J0D01*
G01*
X924200Y2538600D02*
G75*
G02*
X964200Y2538600I20000J0D01*
G01*
X991648Y310726D02*
G75*
G02*
X951648Y310726I-20000J0D01*
G01*
X951648Y310726D02*
G75*
G02*
X991648Y310726I20000J0D01*
G01*
X1089200Y2588600D02*
G75*
G02*
X1049200Y2588600I-20000J0D01*
G01*
X1049200Y2588600D02*
G75*
G02*
X1089200Y2588600I20000J0D01*
G01*
X1139200Y2763600D02*
G75*
G02*
X1099200Y2763600I-20000J0D01*
G01*
X1099200Y2763600D02*
G75*
G02*
X1139200Y2763600I20000J0D01*
G01*
X1154200Y-5471400D02*
G75*
G02*
X1114200Y-5471400I-20000J0D01*
G01*
X1114200Y-5471400D02*
G75*
G02*
X1154200Y-5471400I20000J0D01*
G01*
X1158780Y1390180D02*
G75*
G02*
X1118780Y1390180I-20000J0D01*
G01*
X1118780Y1390180D02*
G75*
G02*
X1158780Y1390180I20000J0D01*
G01*
X1194200Y-1671400D02*
G75*
G02*
X1154200Y-1671400I-20000J0D01*
G01*
X1154200Y-1671400D02*
G75*
G02*
X1194200Y-1671400I20000J0D01*
G01*
X1194200Y-3571400D02*
G75*
G02*
X1154200Y-3571400I-20000J0D01*
G01*
X1154200Y-3571400D02*
G75*
G02*
X1194200Y-3571400I20000J0D01*
G01*
X1222950Y257100D02*
G75*
G02*
X1182950Y257100I-20000J0D01*
G01*
X1182950Y257100D02*
G75*
G02*
X1222950Y257100I20000J0D01*
G01*
X1239200Y2588600D02*
G75*
G02*
X1199200Y2588600I-20000J0D01*
G01*
X1199200Y2588600D02*
G75*
G02*
X1239200Y2588600I20000J0D01*
G01*
X1251626Y531203D02*
G75*
G02*
X1211626Y531203I-20000J0D01*
G01*
X1211626Y531203D02*
G75*
G02*
X1251626Y531203I20000J0D01*
G01*
X1279120Y1386680D02*
G75*
G02*
X1239120Y1386680I-20000J0D01*
G01*
X1239120Y1386680D02*
G75*
G02*
X1279120Y1386680I20000J0D01*
G01*
X1314200Y-26400D02*
G75*
G02*
X1274200Y-26400I-20000J0D01*
G01*
X1274200Y-26400D02*
G75*
G02*
X1314200Y-26400I20000J0D01*
G01*
X1365480Y1528920D02*
G75*
G02*
X1325480Y1528920I-20000J0D01*
G01*
X1325480Y1528920D02*
G75*
G02*
X1365480Y1528920I20000J0D01*
G01*
X1389200Y2763600D02*
G75*
G02*
X1349200Y2763600I-20000J0D01*
G01*
X1349200Y2763600D02*
G75*
G02*
X1389200Y2763600I20000J0D01*
G01*
X1389200Y1388600D02*
G75*
G02*
X1349200Y1388600I-20000J0D01*
G01*
X1349200Y1388600D02*
G75*
G02*
X1389200Y1388600I20000J0D01*
G01*
X1425456Y314741D02*
G75*
G02*
X1385456Y314741I-20000J0D01*
G01*
X1385456Y314741D02*
G75*
G02*
X1425456Y314741I20000J0D01*
G01*
X1467080Y1528920D02*
G75*
G02*
X1427080Y1528920I-20000J0D01*
G01*
X1427080Y1528920D02*
G75*
G02*
X1467080Y1528920I20000J0D01*
G01*
X1494200Y1388600D02*
G75*
G02*
X1454200Y1388600I-20000J0D01*
G01*
X1454200Y1388600D02*
G75*
G02*
X1494200Y1388600I20000J0D01*
G01*
X1508950Y73850D02*
G75*
G02*
X1468950Y73850I-20000J0D01*
G01*
X1468950Y73850D02*
G75*
G02*
X1508950Y73850I20000J0D01*
G01*
X1558520Y1528920D02*
G75*
G02*
X1518520Y1528920I-20000J0D01*
G01*
X1518520Y1528920D02*
G75*
G02*
X1558520Y1528920I20000J0D01*
G01*
X1561620Y1757520D02*
G75*
G02*
X1521620Y1757520I-20000J0D01*
G01*
X1521620Y1757520D02*
G75*
G02*
X1561620Y1757520I20000J0D01*
G01*
X1564200Y2588600D02*
G75*
G02*
X1524200Y2588600I-20000J0D01*
G01*
X1524200Y2588600D02*
G75*
G02*
X1564200Y2588600I20000J0D01*
G01*
X1614200Y1820100D02*
G75*
G02*
X1574200Y1820100I-20000J0D01*
G01*
X1574200Y1820100D02*
G75*
G02*
X1614200Y1820100I20000J0D01*
G01*
X1614200Y288600D02*
G75*
G02*
X1574200Y288600I-20000J0D01*
G01*
X1574200Y288600D02*
G75*
G02*
X1614200Y288600I20000J0D01*
G01*
X1639200Y2763600D02*
G75*
G02*
X1599200Y2763600I-20000J0D01*
G01*
X1599200Y2763600D02*
G75*
G02*
X1639200Y2763600I20000J0D01*
G01*
X1705047Y1809047D02*
G75*
G02*
X1665047Y1809047I-20000J0D01*
G01*
X1665047Y1809047D02*
G75*
G02*
X1705047Y1809047I20000J0D01*
G01*
X1734200Y728600D02*
G75*
G02*
X1694200Y728600I-20000J0D01*
G01*
X1694200Y728600D02*
G75*
G02*
X1734200Y728600I20000J0D01*
G01*
X1754180Y149350D02*
G75*
G02*
X1714180Y149350I-20000J0D01*
G01*
X1714180Y149350D02*
G75*
G02*
X1754180Y149350I20000J0D01*
G01*
X1822680Y255120D02*
G75*
G02*
X1782680Y255120I-20000J0D01*
G01*
X1782680Y255120D02*
G75*
G02*
X1822680Y255120I20000J0D01*
G01*
X1889200Y2763600D02*
G75*
G02*
X1849200Y2763600I-20000J0D01*
G01*
X1849200Y2763600D02*
G75*
G02*
X1889200Y2763600I20000J0D01*
G01*
X1949680Y253620D02*
G75*
G02*
X1909680Y253620I-20000J0D01*
G01*
X1909680Y253620D02*
G75*
G02*
X1949680Y253620I20000J0D01*
G01*
X1950013Y-292388D02*
G75*
G02*
X1910013Y-292388I-20000J0D01*
G01*
X1910013Y-292388D02*
G75*
G02*
X1950013Y-292388I20000J0D01*
G01*
X1954200Y-391400D02*
G75*
G02*
X1914200Y-391400I-20000J0D01*
G01*
X1914200Y-391400D02*
G75*
G02*
X1954200Y-391400I20000J0D01*
G01*
X1954200Y-6131400D02*
G75*
G02*
X1914200Y-6131400I-20000J0D01*
G01*
X1914200Y-6131400D02*
G75*
G02*
X1954200Y-6131400I20000J0D01*
G01*
X1980679Y-8278688D02*
G75*
G02*
X1940679Y-8278688I-20000J0D01*
G01*
X1940679Y-8278688D02*
G75*
G02*
X1980679Y-8278688I20000J0D01*
G01*
X1994200Y-4231400D02*
G75*
G02*
X1954200Y-4231400I-20000J0D01*
G01*
X1954200Y-4231400D02*
G75*
G02*
X1994200Y-4231400I20000J0D01*
G01*
X2014200Y-6985046D02*
G75*
G02*
X1974200Y-6985046I-20000J0D01*
G01*
X1974200Y-6985046D02*
G75*
G02*
X2014200Y-6985046I20000J0D01*
G01*
X2034200Y-811400D02*
G75*
G02*
X1994200Y-811400I-20000J0D01*
G01*
X1994200Y-811400D02*
G75*
G02*
X2034200Y-811400I20000J0D01*
G01*
X2034200Y-2331400D02*
G75*
G02*
X1994200Y-2331400I-20000J0D01*
G01*
X1994200Y-2331400D02*
G75*
G02*
X2034200Y-2331400I20000J0D01*
G01*
X2035763Y-3152963D02*
G75*
G02*
X1995763Y-3152963I-20000J0D01*
G01*
X1995763Y-3152963D02*
G75*
G02*
X2035763Y-3152963I20000J0D01*
G01*
X2051280Y741520D02*
G75*
G02*
X2011280Y741520I-20000J0D01*
G01*
X2011280Y741520D02*
G75*
G02*
X2051280Y741520I20000J0D01*
G01*
X2054200Y-3371400D02*
G75*
G02*
X2014200Y-3371400I-20000J0D01*
G01*
X2014200Y-3371400D02*
G75*
G02*
X2054200Y-3371400I20000J0D01*
G01*
X2054200Y-7204046D02*
G75*
G02*
X2014200Y-7204046I-20000J0D01*
G01*
X2014200Y-7204046D02*
G75*
G02*
X2054200Y-7204046I20000J0D01*
G01*
X2060693Y-301020D02*
G75*
G02*
X2020693Y-301020I-20000J0D01*
G01*
X2020693Y-301020D02*
G75*
G02*
X2060693Y-301020I20000J0D01*
G01*
X2089200Y263600D02*
G75*
G02*
X2049200Y263600I-20000J0D01*
G01*
X2049200Y263600D02*
G75*
G02*
X2089200Y263600I20000J0D01*
G01*
X2134200Y567600D02*
G75*
G02*
X2094200Y567600I-20000J0D01*
G01*
X2094200Y567600D02*
G75*
G02*
X2134200Y567600I20000J0D01*
G01*
X2141700Y2755980D02*
G75*
G02*
X2101700Y2755980I-20000J0D01*
G01*
X2101700Y2755980D02*
G75*
G02*
X2141700Y2755980I20000J0D01*
G01*
X2157960Y749060D02*
G75*
G02*
X2117960Y749060I-20000J0D01*
G01*
X2117960Y749060D02*
G75*
G02*
X2157960Y749060I20000J0D01*
G01*
X2174200Y1698460D02*
G75*
G02*
X2134200Y1698460I-20000J0D01*
G01*
X2134200Y1698460D02*
G75*
G02*
X2174200Y1698460I20000J0D01*
G01*
X2198869Y-245900D02*
G75*
G02*
X2158869Y-245900I-20000J0D01*
G01*
X2158869Y-245900D02*
G75*
G02*
X2198869Y-245900I20000J0D01*
G01*
X2214200Y263600D02*
G75*
G02*
X2174200Y263600I-20000J0D01*
G01*
X2174200Y263600D02*
G75*
G02*
X2214200Y263600I20000J0D01*
G01*
X2274200Y1688600D02*
G75*
G02*
X2234200Y1688600I-20000J0D01*
G01*
X2234200Y1688600D02*
G75*
G02*
X2274200Y1688600I20000J0D01*
G01*
X2289200Y-278400D02*
G75*
G02*
X2249200Y-278400I-20000J0D01*
G01*
X2249200Y-278400D02*
G75*
G02*
X2289200Y-278400I20000J0D01*
G01*
X2314200Y-1051400D02*
G75*
G02*
X2274200Y-1051400I-20000J0D01*
G01*
X2274200Y-1051400D02*
G75*
G02*
X2314200Y-1051400I20000J0D01*
G01*
X2339200Y263600D02*
G75*
G02*
X2299200Y263600I-20000J0D01*
G01*
X2299200Y263600D02*
G75*
G02*
X2339200Y263600I20000J0D01*
G01*
X2345920Y746600D02*
G75*
G02*
X2305920Y746600I-20000J0D01*
G01*
X2305920Y746600D02*
G75*
G02*
X2345920Y746600I20000J0D01*
G01*
X2386700Y2755980D02*
G75*
G02*
X2346700Y2755980I-20000J0D01*
G01*
X2346700Y2755980D02*
G75*
G02*
X2386700Y2755980I20000J0D01*
G01*
X2389200Y-286400D02*
G75*
G02*
X2349200Y-286400I-20000J0D01*
G01*
X2349200Y-286400D02*
G75*
G02*
X2389200Y-286400I20000J0D01*
G01*
X2394200Y1428600D02*
G75*
G02*
X2354200Y1428600I-20000J0D01*
G01*
X2354200Y1428600D02*
G75*
G02*
X2394200Y1428600I20000J0D01*
G01*
X2452600Y736440D02*
G75*
G02*
X2412600Y736440I-20000J0D01*
G01*
X2412600Y736440D02*
G75*
G02*
X2452600Y736440I20000J0D01*
G01*
X2464200Y263600D02*
G75*
G02*
X2424200Y263600I-20000J0D01*
G01*
X2424200Y263600D02*
G75*
G02*
X2464200Y263600I20000J0D01*
G01*
X2489200Y-286400D02*
G75*
G02*
X2449200Y-286400I-20000J0D01*
G01*
X2449200Y-286400D02*
G75*
G02*
X2489200Y-286400I20000J0D01*
G01*
X2589200Y263600D02*
G75*
G02*
X2549200Y263600I-20000J0D01*
G01*
X2549200Y263600D02*
G75*
G02*
X2589200Y263600I20000J0D01*
G01*
X2641700Y2755980D02*
G75*
G02*
X2601700Y2755980I-20000J0D01*
G01*
X2601700Y2755980D02*
G75*
G02*
X2641700Y2755980I20000J0D01*
G01*
X2747240Y1655920D02*
G75*
G02*
X2707240Y1655920I-20000J0D01*
G01*
X2707240Y1655920D02*
G75*
G02*
X2747240Y1655920I20000J0D01*
G01*
X2814200Y1413600D02*
G75*
G02*
X2774200Y1413600I-20000J0D01*
G01*
X2774200Y1413600D02*
G75*
G02*
X2814200Y1413600I20000J0D01*
G01*
X2864200Y2755980D02*
G75*
G02*
X2824200Y2755980I-20000J0D01*
G01*
X2824200Y2755980D02*
G75*
G02*
X2864200Y2755980I20000J0D01*
G01*
X2904200Y962360D02*
G75*
G02*
X2864200Y962360I-20000J0D01*
G01*
X2864200Y962360D02*
G75*
G02*
X2904200Y962360I20000J0D01*
G01*
X2935700Y-36400D02*
G75*
G02*
X2895700Y-36400I-20000J0D01*
G01*
X2895700Y-36400D02*
G75*
G02*
X2935700Y-36400I20000J0D01*
G01*
X2994200Y288600D02*
G75*
G02*
X2954200Y288600I-20000J0D01*
G01*
X2954200Y288600D02*
G75*
G02*
X2994200Y288600I20000J0D01*
G01*
X3014200Y1328600D02*
G75*
G02*
X2974200Y1328600I-20000J0D01*
G01*
X2974200Y1328600D02*
G75*
G02*
X3014200Y1328600I20000J0D01*
G01*
X3060729Y1652900D02*
G75*
G02*
X3020729Y1652900I-20000J0D01*
G01*
X3020729Y1652900D02*
G75*
G02*
X3060729Y1652900I20000J0D01*
G01*
X3094200Y2021012D02*
G75*
G02*
X3054200Y2021012I-20000J0D01*
G01*
X3054200Y2021012D02*
G75*
G02*
X3094200Y2021012I20000J0D01*
G01*
X3134200Y1208600D02*
G75*
G02*
X3094200Y1208600I-20000J0D01*
G01*
X3094200Y1208600D02*
G75*
G02*
X3134200Y1208600I20000J0D01*
G01*
X3154200Y179100D02*
G75*
G02*
X3114200Y179100I-20000J0D01*
G01*
X3114200Y179100D02*
G75*
G02*
X3154200Y179100I20000J0D01*
G01*
X3173960Y1652900D02*
G75*
G02*
X3133960Y1652900I-20000J0D01*
G01*
X3133960Y1652900D02*
G75*
G02*
X3173960Y1652900I20000J0D01*
G01*
X3176700Y1443600D02*
G75*
G02*
X3136700Y1443600I-20000J0D01*
G01*
X3136700Y1443600D02*
G75*
G02*
X3176700Y1443600I20000J0D01*
G01*
X3189200Y1549400D02*
G75*
G02*
X3149200Y1549400I-20000J0D01*
G01*
X3149200Y1549400D02*
G75*
G02*
X3189200Y1549400I20000J0D01*
G01*
X3259200Y2613600D02*
G75*
G02*
X3219200Y2613600I-20000J0D01*
G01*
X3219200Y2613600D02*
G75*
G02*
X3259200Y2613600I20000J0D01*
G01*
X3275560Y1655920D02*
G75*
G02*
X3235560Y1655920I-20000J0D01*
G01*
X3235560Y1655920D02*
G75*
G02*
X3275560Y1655920I20000J0D01*
G01*
X3289200Y1446100D02*
G75*
G02*
X3249200Y1446100I-20000J0D01*
G01*
X3249200Y1446100D02*
G75*
G02*
X3289200Y1446100I20000J0D01*
G01*
X3310518Y704709D02*
G75*
G02*
X3270518Y704709I-20000J0D01*
G01*
X3270518Y704709D02*
G75*
G02*
X3310518Y704709I20000J0D01*
G01*
X3314060Y1553600D02*
G75*
G02*
X3274060Y1553600I-20000J0D01*
G01*
X3274060Y1553600D02*
G75*
G02*
X3314060Y1553600I20000J0D01*
G01*
X3314200Y1107280D02*
G75*
G02*
X3274200Y1107280I-20000J0D01*
G01*
X3274200Y1107280D02*
G75*
G02*
X3314200Y1107280I20000J0D01*
G01*
X3346284Y613441D02*
G75*
G02*
X3306284Y613441I-20000J0D01*
G01*
X3306284Y613441D02*
G75*
G02*
X3346284Y613441I20000J0D01*
G01*
X3348483Y792883D02*
G75*
G02*
X3308483Y792883I-20000J0D01*
G01*
X3308483Y792883D02*
G75*
G02*
X3348483Y792883I20000J0D01*
G01*
X3381700Y2571100D02*
G75*
G02*
X3341700Y2571100I-20000J0D01*
G01*
X3341700Y2571100D02*
G75*
G02*
X3381700Y2571100I20000J0D01*
G01*
X3394200Y1208600D02*
G75*
G02*
X3354200Y1208600I-20000J0D01*
G01*
X3354200Y1208600D02*
G75*
G02*
X3394200Y1208600I20000J0D01*
G01*
X3435700Y492109D02*
G75*
G02*
X3395700Y492109I-20000J0D01*
G01*
X3395700Y492109D02*
G75*
G02*
X3435700Y492109I20000J0D01*
G01*
X3441700Y388600D02*
G75*
G02*
X3401700Y388600I-20000J0D01*
G01*
X3401700Y388600D02*
G75*
G02*
X3441700Y388600I20000J0D01*
G01*
X3502073Y948600D02*
G75*
G02*
X3462073Y948600I-20000J0D01*
G01*
X3462073Y948600D02*
G75*
G02*
X3502073Y948600I20000J0D01*
G01*
X3511700Y1970880D02*
G75*
G02*
X3471700Y1970880I-20000J0D01*
G01*
X3471700Y1970880D02*
G75*
G02*
X3511700Y1970880I20000J0D01*
G01*
X3511700Y1601100D02*
G75*
G02*
X3471700Y1601100I-20000J0D01*
G01*
X3471700Y1601100D02*
G75*
G02*
X3511700Y1601100I20000J0D01*
G01*
X3596700Y1970880D02*
G75*
G02*
X3556700Y1970880I-20000J0D01*
G01*
X3556700Y1970880D02*
G75*
G02*
X3596700Y1970880I20000J0D01*
G01*
X3604200Y1613720D02*
G75*
G02*
X3564200Y1613720I-20000J0D01*
G01*
X3564200Y1613720D02*
G75*
G02*
X3604200Y1613720I20000J0D01*
G01*
X3640080Y1212720D02*
G75*
G02*
X3600080Y1212720I-20000J0D01*
G01*
X3600080Y1212720D02*
G75*
G02*
X3640080Y1212720I20000J0D01*
G01*
X3714200Y1638600D02*
G75*
G02*
X3674200Y1638600I-20000J0D01*
G01*
X3674200Y1638600D02*
G75*
G02*
X3714200Y1638600I20000J0D01*
G01*
X3814200Y1638600D02*
G75*
G02*
X3774200Y1638600I-20000J0D01*
G01*
X3774200Y1638600D02*
G75*
G02*
X3814200Y1638600I20000J0D01*
G01*
X3864200Y713600D02*
G75*
G02*
X3824200Y713600I-20000J0D01*
G01*
X3824200Y713600D02*
G75*
G02*
X3864200Y713600I20000J0D01*
G01*
X3902977Y1015253D02*
G75*
G02*
X3862977Y1015253I-20000J0D01*
G01*
X3862977Y1015253D02*
G75*
G02*
X3902977Y1015253I20000J0D01*
G01*
X3914200Y-3379900D02*
G75*
G02*
X3874200Y-3379900I-20000J0D01*
G01*
X3874200Y-3379900D02*
G75*
G02*
X3914200Y-3379900I20000J0D01*
G01*
X3914200Y-6151400D02*
G75*
G02*
X3874200Y-6151400I-20000J0D01*
G01*
X3874200Y-6151400D02*
G75*
G02*
X3914200Y-6151400I20000J0D01*
G01*
X3914200Y-6862788D02*
G75*
G02*
X3874200Y-6862788I-20000J0D01*
G01*
X3874200Y-6862788D02*
G75*
G02*
X3914200Y-6862788I20000J0D01*
G01*
X3914200Y-6999788D02*
G75*
G02*
X3874200Y-6999788I-20000J0D01*
G01*
X3874200Y-6999788D02*
G75*
G02*
X3914200Y-6999788I20000J0D01*
G01*
X3915763Y-3192963D02*
G75*
G02*
X3875763Y-3192963I-20000J0D01*
G01*
X3875763Y-3192963D02*
G75*
G02*
X3915763Y-3192963I20000J0D01*
G01*
X3920336Y920835D02*
G75*
G02*
X3880336Y920835I-20000J0D01*
G01*
X3880336Y920835D02*
G75*
G02*
X3920336Y920835I20000J0D01*
G01*
X3926261Y823227D02*
G75*
G02*
X3886261Y823227I-20000J0D01*
G01*
X3886261Y823227D02*
G75*
G02*
X3926261Y823227I20000J0D01*
G01*
X3934200Y-4291400D02*
G75*
G02*
X3894200Y-4291400I-20000J0D01*
G01*
X3894200Y-4291400D02*
G75*
G02*
X3934200Y-4291400I20000J0D01*
G01*
X3944200Y1970880D02*
G75*
G02*
X3904200Y1970880I-20000J0D01*
G01*
X3904200Y1970880D02*
G75*
G02*
X3944200Y1970880I20000J0D01*
G01*
X3954359Y1099100D02*
G75*
G02*
X3914359Y1099100I-20000J0D01*
G01*
X3914359Y1099100D02*
G75*
G02*
X3954359Y1099100I20000J0D01*
G01*
X3974200Y-651400D02*
G75*
G02*
X3934200Y-651400I-20000J0D01*
G01*
X3934200Y-651400D02*
G75*
G02*
X3974200Y-651400I20000J0D01*
G01*
X3974200Y-5120946D02*
G75*
G02*
X3934200Y-5120946I-20000J0D01*
G01*
X3934200Y-5120946D02*
G75*
G02*
X3974200Y-5120946I20000J0D01*
G01*
X3974200Y-5257946D02*
G75*
G02*
X3934200Y-5257946I-20000J0D01*
G01*
X3934200Y-5257946D02*
G75*
G02*
X3974200Y-5257946I20000J0D01*
G01*
X3989200Y1638600D02*
G75*
G02*
X3949200Y1638600I-20000J0D01*
G01*
X3949200Y1638600D02*
G75*
G02*
X3989200Y1638600I20000J0D01*
G01*
X4005763Y877037D02*
G75*
G02*
X3965763Y877037I-20000J0D01*
G01*
X3965763Y877037D02*
G75*
G02*
X4005763Y877037I20000J0D01*
G01*
X4034100Y343213D02*
G75*
G02*
X3994100Y343213I-20000J0D01*
G01*
X3994100Y343213D02*
G75*
G02*
X4034100Y343213I20000J0D01*
G01*
X4044200Y1148600D02*
G75*
G02*
X4004200Y1148600I-20000J0D01*
G01*
X4004200Y1148600D02*
G75*
G02*
X4044200Y1148600I20000J0D01*
G01*
X4102600Y411713D02*
G75*
G02*
X4062600Y411713I-20000J0D01*
G01*
X4062600Y411713D02*
G75*
G02*
X4102600Y411713I20000J0D01*
G01*
X4163125Y1462925D02*
G75*
G02*
X4123125Y1462925I-20000J0D01*
G01*
X4123125Y1462925D02*
G75*
G02*
X4163125Y1462925I20000J0D01*
G01*
X4171400Y480513D02*
G75*
G02*
X4131400Y480513I-20000J0D01*
G01*
X4131400Y480513D02*
G75*
G02*
X4171400Y480513I20000J0D01*
G01*
X4172192Y2458947D02*
G75*
G02*
X4132192Y2458947I-20000J0D01*
G01*
X4132192Y2458947D02*
G75*
G02*
X4172192Y2458947I20000J0D01*
G01*
X4174200Y-1411400D02*
G75*
G02*
X4134200Y-1411400I-20000J0D01*
G01*
X4134200Y-1411400D02*
G75*
G02*
X4174200Y-1411400I20000J0D01*
G01*
X4189200Y-9036400D02*
G75*
G02*
X4149200Y-9036400I-20000J0D01*
G01*
X4149200Y-9036400D02*
G75*
G02*
X4189200Y-9036400I20000J0D01*
G01*
X4238220Y1318100D02*
G75*
G02*
X4198220Y1318100I-20000J0D01*
G01*
X4198220Y1318100D02*
G75*
G02*
X4238220Y1318100I20000J0D01*
G01*
X4286686Y74917D02*
G75*
G02*
X4246686Y74917I-20000J0D01*
G01*
X4246686Y74917D02*
G75*
G02*
X4286686Y74917I20000J0D01*
G01*
X4309513Y546111D02*
G75*
G02*
X4269513Y546111I-20000J0D01*
G01*
X4269513Y546111D02*
G75*
G02*
X4309513Y546111I20000J0D01*
G01*
X4311500Y252917D02*
G75*
G02*
X4271500Y252917I-20000J0D01*
G01*
X4271500Y252917D02*
G75*
G02*
X4311500Y252917I20000J0D01*
G01*
X4311700Y1558600D02*
G75*
G02*
X4271700Y1558600I-20000J0D01*
G01*
X4271700Y1558600D02*
G75*
G02*
X4311700Y1558600I20000J0D01*
G01*
X4374200Y-3611400D02*
G75*
G02*
X4334200Y-3611400I-20000J0D01*
G01*
X4334200Y-3611400D02*
G75*
G02*
X4374200Y-3611400I20000J0D01*
G01*
X4405424Y541965D02*
G75*
G02*
X4365424Y541965I-20000J0D01*
G01*
X4365424Y541965D02*
G75*
G02*
X4405424Y541965I20000J0D01*
G01*
X4435200Y322965D02*
G75*
G02*
X4395200Y322965I-20000J0D01*
G01*
X4395200Y322965D02*
G75*
G02*
X4435200Y322965I20000J0D01*
G01*
X4497655Y568600D02*
G75*
G02*
X4457655Y568600I-20000J0D01*
G01*
X4457655Y568600D02*
G75*
G02*
X4497655Y568600I20000J0D01*
G01*
X4618327Y1651615D02*
G75*
G02*
X4578327Y1651615I-20000J0D01*
G01*
X4578327Y1651615D02*
G75*
G02*
X4618327Y1651615I20000J0D01*
G01*
X4634200Y2199956D02*
G75*
G02*
X4594200Y2199956I-20000J0D01*
G01*
X4594200Y2199956D02*
G75*
G02*
X4634200Y2199956I20000J0D01*
G01*
X4654200Y2477100D02*
G75*
G02*
X4614200Y2477100I-20000J0D01*
G01*
X4614200Y2477100D02*
G75*
G02*
X4654200Y2477100I20000J0D01*
G01*
X4657320Y2575400D02*
G75*
G02*
X4617320Y2575400I-20000J0D01*
G01*
X4617320Y2575400D02*
G75*
G02*
X4657320Y2575400I20000J0D01*
G01*
X4678755Y228299D02*
G75*
G02*
X4638755Y228299I-20000J0D01*
G01*
X4638755Y228299D02*
G75*
G02*
X4678755Y228299I20000J0D01*
G01*
X4686827Y1581743D02*
G75*
G02*
X4646827Y1581743I-20000J0D01*
G01*
X4646827Y1581743D02*
G75*
G02*
X4686827Y1581743I20000J0D01*
G01*
X4721692Y2160443D02*
G75*
G02*
X4681692Y2160443I-20000J0D01*
G01*
X4681692Y2160443D02*
G75*
G02*
X4721692Y2160443I20000J0D01*
G01*
X4751811Y301354D02*
G75*
G02*
X4711811Y301354I-20000J0D01*
G01*
X4711811Y301354D02*
G75*
G02*
X4751811Y301354I20000J0D01*
G01*
X4770290Y1825010D02*
G75*
G02*
X4730290Y1825010I-20000J0D01*
G01*
X4730290Y1825010D02*
G75*
G02*
X4770290Y1825010I20000J0D01*
G01*
X4779240Y2386920D02*
G75*
G02*
X4739240Y2386920I-20000J0D01*
G01*
X4739240Y2386920D02*
G75*
G02*
X4779240Y2386920I20000J0D01*
G01*
X4779240Y2290920D02*
G75*
G02*
X4739240Y2290920I-20000J0D01*
G01*
X4739240Y2290920D02*
G75*
G02*
X4779240Y2290920I20000J0D01*
G01*
X4812179Y1091551D02*
G75*
G02*
X4772179Y1091551I-20000J0D01*
G01*
X4772179Y1091551D02*
G75*
G02*
X4812179Y1091551I20000J0D01*
G01*
X4812637Y1707663D02*
G75*
G02*
X4772637Y1707663I-20000J0D01*
G01*
X4772637Y1707663D02*
G75*
G02*
X4812637Y1707663I20000J0D01*
G01*
X4815547Y2140263D02*
G75*
G02*
X4775547Y2140263I-20000J0D01*
G01*
X4775547Y2140263D02*
G75*
G02*
X4815547Y2140263I20000J0D01*
G01*
X4840700Y1951617D02*
G75*
G02*
X4800700Y1951617I-20000J0D01*
G01*
X4800700Y1951617D02*
G75*
G02*
X4840700Y1951617I20000J0D01*
G01*
X4840700Y2047617D02*
G75*
G02*
X4800700Y2047617I-20000J0D01*
G01*
X4800700Y2047617D02*
G75*
G02*
X4840700Y2047617I20000J0D01*
G01*
X4852492Y2228870D02*
G75*
G02*
X4812492Y2228870I-20000J0D01*
G01*
X4812492Y2228870D02*
G75*
G02*
X4852492Y2228870I20000J0D01*
G01*
X4855200Y-51400D02*
G75*
G02*
X4815200Y-51400I-20000J0D01*
G01*
X4815200Y-51400D02*
G75*
G02*
X4855200Y-51400I20000J0D01*
G01*
X4863171Y1172889D02*
G75*
G02*
X4823171Y1172889I-20000J0D01*
G01*
X4823171Y1172889D02*
G75*
G02*
X4863171Y1172889I20000J0D01*
G01*
X4888671Y1033543D02*
G75*
G02*
X4848671Y1033543I-20000J0D01*
G01*
X4848671Y1033543D02*
G75*
G02*
X4888671Y1033543I20000J0D01*
G01*
X4909886Y1707288D02*
G75*
G02*
X4869886Y1707288I-20000J0D01*
G01*
X4869886Y1707288D02*
G75*
G02*
X4909886Y1707288I20000J0D01*
G01*
X4927032Y1244568D02*
G75*
G02*
X4887032Y1244568I-20000J0D01*
G01*
X4887032Y1244568D02*
G75*
G02*
X4927032Y1244568I20000J0D01*
G01*
X4934200Y2488600D02*
G75*
G02*
X4894200Y2488600I-20000J0D01*
G01*
X4894200Y2488600D02*
G75*
G02*
X4934200Y2488600I20000J0D01*
G01*
X4944200Y1825010D02*
G75*
G02*
X4904200Y1825010I-20000J0D01*
G01*
X4904200Y1825010D02*
G75*
G02*
X4944200Y1825010I20000J0D01*
G01*
X4959198Y968412D02*
G75*
G02*
X4919198Y968412I-20000J0D01*
G01*
X4919198Y968412D02*
G75*
G02*
X4959198Y968412I20000J0D01*
G01*
X5014200Y148600D02*
G75*
G02*
X4974200Y148600I-20000J0D01*
G01*
X4974200Y148600D02*
G75*
G02*
X5014200Y148600I20000J0D01*
G01*
X5090137Y57100D02*
G75*
G02*
X5050137Y57100I-20000J0D01*
G01*
X5050137Y57100D02*
G75*
G02*
X5090137Y57100I20000J0D01*
G01*
X5114200Y929480D02*
G75*
G02*
X5074200Y929480I-20000J0D01*
G01*
X5074200Y929480D02*
G75*
G02*
X5114200Y929480I20000J0D01*
G01*
X5194200Y-221900D02*
G75*
G02*
X5154200Y-221900I-20000J0D01*
G01*
X5154200Y-221900D02*
G75*
G02*
X5194200Y-221900I20000J0D01*
G01*
X5234200Y1368600D02*
G75*
G02*
X5194200Y1368600I-20000J0D01*
G01*
X5194200Y1368600D02*
G75*
G02*
X5234200Y1368600I20000J0D01*
G01*
X5264200Y598600D02*
G75*
G02*
X5224200Y598600I-20000J0D01*
G01*
X5224200Y598600D02*
G75*
G02*
X5264200Y598600I20000J0D01*
G01*
X5384200Y598600D02*
G75*
G02*
X5344200Y598600I-20000J0D01*
G01*
X5344200Y598600D02*
G75*
G02*
X5384200Y598600I20000J0D01*
G01*
X5414200Y2488600D02*
G75*
G02*
X5374200Y2488600I-20000J0D01*
G01*
X5374200Y2488600D02*
G75*
G02*
X5414200Y2488600I20000J0D01*
G01*
X5434200Y128600D02*
G75*
G02*
X5394200Y128600I-20000J0D01*
G01*
X5394200Y128600D02*
G75*
G02*
X5434200Y128600I20000J0D01*
G01*
X5534200Y1617212D02*
G75*
G02*
X5494200Y1617212I-20000J0D01*
G01*
X5494200Y1617212D02*
G75*
G02*
X5534200Y1617212I20000J0D01*
G01*
X5654200Y1708600D02*
G75*
G02*
X5614200Y1708600I-20000J0D01*
G01*
X5614200Y1708600D02*
G75*
G02*
X5654200Y1708600I20000J0D01*
G01*
X5654200Y499100D02*
G75*
G02*
X5614200Y499100I-20000J0D01*
G01*
X5614200Y499100D02*
G75*
G02*
X5654200Y499100I20000J0D01*
G01*
X5654200Y188600D02*
G75*
G02*
X5614200Y188600I-20000J0D01*
G01*
X5614200Y188600D02*
G75*
G02*
X5654200Y188600I20000J0D01*
G01*
X5754200Y-4171400D02*
G75*
G02*
X5714200Y-4171400I-20000J0D01*
G01*
X5714200Y-4171400D02*
G75*
G02*
X5754200Y-4171400I20000J0D01*
G01*
X5764200Y1617212D02*
G75*
G02*
X5724200Y1617212I-20000J0D01*
G01*
X5724200Y1617212D02*
G75*
G02*
X5764200Y1617212I20000J0D01*
G01*
X5790679Y-2627188D02*
G75*
G02*
X5750679Y-2627188I-20000J0D01*
G01*
X5750679Y-2627188D02*
G75*
G02*
X5790679Y-2627188I20000J0D01*
G01*
X5814200Y-6171400D02*
G75*
G02*
X5774200Y-6171400I-20000J0D01*
G01*
X5774200Y-6171400D02*
G75*
G02*
X5814200Y-6171400I20000J0D01*
G01*
X5834200Y2488600D02*
G75*
G02*
X5794200Y2488600I-20000J0D01*
G01*
X5794200Y2488600D02*
G75*
G02*
X5834200Y2488600I20000J0D01*
G01*
X5834200Y2048600D02*
G75*
G02*
X5794200Y2048600I-20000J0D01*
G01*
X5794200Y2048600D02*
G75*
G02*
X5834200Y2048600I20000J0D01*
G01*
X5917679Y-976188D02*
G75*
G02*
X5877679Y-976188I-20000J0D01*
G01*
X5877679Y-976188D02*
G75*
G02*
X5917679Y-976188I20000J0D01*
G01*
X5917679Y-8278688D02*
G75*
G02*
X5877679Y-8278688I-20000J0D01*
G01*
X5877679Y-8278688D02*
G75*
G02*
X5917679Y-8278688I20000J0D01*
G01*
X5954200Y1068600D02*
G75*
G02*
X5914200Y1068600I-20000J0D01*
G01*
X5914200Y1068600D02*
G75*
G02*
X5954200Y1068600I20000J0D01*
G01*
X6049240Y2575400D02*
G75*
G02*
X6009240Y2575400I-20000J0D01*
G01*
X6009240Y2575400D02*
G75*
G02*
X6049240Y2575400I20000J0D01*
G01*
X6094200Y148600D02*
G75*
G02*
X6054200Y148600I-20000J0D01*
G01*
X6054200Y148600D02*
G75*
G02*
X6094200Y148600I20000J0D01*
G01*
X6114200Y-7191400D02*
G75*
G02*
X6074200Y-7191400I-20000J0D01*
G01*
X6074200Y-7191400D02*
G75*
G02*
X6114200Y-7191400I20000J0D01*
G01*
X6114200Y-9031400D02*
G75*
G02*
X6074200Y-9031400I-20000J0D01*
G01*
X6074200Y-9031400D02*
G75*
G02*
X6114200Y-9031400I20000J0D01*
G01*
X6134200Y-5251400D02*
G75*
G02*
X6094200Y-5251400I-20000J0D01*
G01*
X6094200Y-5251400D02*
G75*
G02*
X6134200Y-5251400I20000J0D01*
G01*
X6174200Y798600D02*
G75*
G02*
X6134200Y798600I-20000J0D01*
G01*
X6134200Y798600D02*
G75*
G02*
X6174200Y798600I20000J0D01*
G01*
X6254200Y368600D02*
G75*
G02*
X6214200Y368600I-20000J0D01*
G01*
X6214200Y368600D02*
G75*
G02*
X6254200Y368600I20000J0D01*
G01*
X6386628Y746172D02*
G75*
G02*
X6346628Y746172I-20000J0D01*
G01*
X6346628Y746172D02*
G75*
G02*
X6386628Y746172I20000J0D01*
G01*
X6420080Y2575400D02*
G75*
G02*
X6380080Y2575400I-20000J0D01*
G01*
X6380080Y2575400D02*
G75*
G02*
X6420080Y2575400I20000J0D01*
G01*
X6464200Y1617212D02*
G75*
G02*
X6424200Y1617212I-20000J0D01*
G01*
X6424200Y1617212D02*
G75*
G02*
X6464200Y1617212I20000J0D01*
G01*
X6529200Y-3511400D02*
G75*
G02*
X6489200Y-3511400I-20000J0D01*
G01*
X6489200Y-3511400D02*
G75*
G02*
X6529200Y-3511400I20000J0D01*
G01*
X6574200Y-5471400D02*
G75*
G02*
X6534200Y-5471400I-20000J0D01*
G01*
X6534200Y-5471400D02*
G75*
G02*
X6574200Y-5471400I20000J0D01*
G01*
X6614200Y188600D02*
G75*
G02*
X6574200Y188600I-20000J0D01*
G01*
X6574200Y188600D02*
G75*
G02*
X6614200Y188600I20000J0D01*
G01*
X6734200Y-51400D02*
G75*
G02*
X6694200Y-51400I-20000J0D01*
G01*
X6694200Y-51400D02*
G75*
G02*
X6734200Y-51400I20000J0D01*
G01*
X6754200Y348600D02*
G75*
G02*
X6714200Y348600I-20000J0D01*
G01*
X6714200Y348600D02*
G75*
G02*
X6754200Y348600I20000J0D01*
G01*
X6904200Y-1671400D02*
G75*
G02*
X6864200Y-1671400I-20000J0D01*
G01*
X6864200Y-1671400D02*
G75*
G02*
X6904200Y-1671400I20000J0D01*
G01*
X6954200Y1868600D02*
G75*
G02*
X6914200Y1868600I-20000J0D01*
G01*
X6914200Y1868600D02*
G75*
G02*
X6954200Y1868600I20000J0D01*
G01*
X6954200Y1868600D02*
G75*
G02*
X6914200Y1868600I-20000J0D01*
G01*
X6914200Y1868600D02*
G75*
G02*
X6954200Y1868600I20000J0D01*
G01*
X6954200Y1868600D02*
G75*
G02*
X6914200Y1868600I-20000J0D01*
G01*
X6914200Y1868600D02*
G75*
G02*
X6954200Y1868600I20000J0D01*
G01*
X6954200Y1868600D02*
G75*
G02*
X6914200Y1868600I-20000J0D01*
G01*
X6914200Y1868600D02*
G75*
G02*
X6954200Y1868600I20000J0D01*
G01*
X6954200Y1868600D02*
G75*
G02*
X6914200Y1868600I-20000J0D01*
G01*
X6914200Y1868600D02*
G75*
G02*
X6954200Y1868600I20000J0D01*
G01*
X6954200Y1868600D02*
G75*
G02*
X6914200Y1868600I-20000J0D01*
G01*
X6914200Y1868600D02*
G75*
G02*
X6954200Y1868600I20000J0D01*
G01*
X6954200Y1868600D02*
G75*
G02*
X6914200Y1868600I-20000J0D01*
G01*
X6914200Y1868600D02*
G75*
G02*
X6954200Y1868600I20000J0D01*
G01*
X6954200Y1868600D02*
G75*
G02*
X6914200Y1868600I-20000J0D01*
G01*
X6914200Y1868600D02*
G75*
G02*
X6954200Y1868600I20000J0D01*
G01*
X6954200Y1868600D02*
G75*
G02*
X6914200Y1868600I-20000J0D01*
G01*
X6914200Y1868600D02*
G75*
G02*
X6954200Y1868600I20000J0D01*
G01*
X6954200Y1868600D02*
G75*
G02*
X6914200Y1868600I-20000J0D01*
G01*
X6914200Y1868600D02*
G75*
G02*
X6954200Y1868600I20000J0D01*
G01*
X6954200Y1868600D02*
G75*
G02*
X6914200Y1868600I-20000J0D01*
G01*
X6914200Y1868600D02*
G75*
G02*
X6954200Y1868600I20000J0D01*
G01*
X6954200Y1868600D02*
G75*
G02*
X6914200Y1868600I-20000J0D01*
G01*
X6914200Y1868600D02*
G75*
G02*
X6954200Y1868600I20000J0D01*
G01*
X6954200Y1868600D02*
G75*
G02*
X6914200Y1868600I-20000J0D01*
G01*
X6914200Y1868600D02*
G75*
G02*
X6954200Y1868600I20000J0D01*
G01*
X6954200Y1868600D02*
G75*
G02*
X6914200Y1868600I-20000J0D01*
G01*
X6914200Y1868600D02*
G75*
G02*
X6954200Y1868600I20000J0D01*
G01*
X6954200Y1868600D02*
G75*
G02*
X6914200Y1868600I-20000J0D01*
G01*
X6914200Y1868600D02*
G75*
G02*
X6954200Y1868600I20000J0D01*
G01*
X6954200Y1868600D02*
G75*
G02*
X6914200Y1868600I-20000J0D01*
G01*
X6914200Y1868600D02*
G75*
G02*
X6954200Y1868600I20000J0D01*
G01*
X6954200Y1328600D02*
G75*
G02*
X6914200Y1328600I-20000J0D01*
G01*
X6914200Y1328600D02*
G75*
G02*
X6954200Y1328600I20000J0D01*
G01*
X6974200Y348600D02*
G75*
G02*
X6934200Y348600I-20000J0D01*
G01*
X6934200Y348600D02*
G75*
G02*
X6974200Y348600I20000J0D01*
G01*
X6974200Y48600D02*
G75*
G02*
X6934200Y48600I-20000J0D01*
G01*
X6934200Y48600D02*
G75*
G02*
X6974200Y48600I20000J0D01*
G01*
X7054200Y1968600D02*
G75*
G02*
X7014200Y1968600I-20000J0D01*
G01*
X7014200Y1968600D02*
G75*
G02*
X7054200Y1968600I20000J0D01*
G01*
X7054200Y1968600D02*
G75*
G02*
X7014200Y1968600I-20000J0D01*
G01*
X7014200Y1968600D02*
G75*
G02*
X7054200Y1968600I20000J0D01*
G01*
X7054200Y1968600D02*
G75*
G02*
X7014200Y1968600I-20000J0D01*
G01*
X7014200Y1968600D02*
G75*
G02*
X7054200Y1968600I20000J0D01*
G01*
X7054200Y1968600D02*
G75*
G02*
X7014200Y1968600I-20000J0D01*
G01*
X7014200Y1968600D02*
G75*
G02*
X7054200Y1968600I20000J0D01*
G01*
X7054200Y1968600D02*
G75*
G02*
X7014200Y1968600I-20000J0D01*
G01*
X7014200Y1968600D02*
G75*
G02*
X7054200Y1968600I20000J0D01*
G01*
X7054200Y1968600D02*
G75*
G02*
X7014200Y1968600I-20000J0D01*
G01*
X7014200Y1968600D02*
G75*
G02*
X7054200Y1968600I20000J0D01*
G01*
X7054200Y1968600D02*
G75*
G02*
X7014200Y1968600I-20000J0D01*
G01*
X7014200Y1968600D02*
G75*
G02*
X7054200Y1968600I20000J0D01*
G01*
X7054200Y1968600D02*
G75*
G02*
X7014200Y1968600I-20000J0D01*
G01*
X7014200Y1968600D02*
G75*
G02*
X7054200Y1968600I20000J0D01*
G01*
X7054200Y1968600D02*
G75*
G02*
X7014200Y1968600I-20000J0D01*
G01*
X7014200Y1968600D02*
G75*
G02*
X7054200Y1968600I20000J0D01*
G01*
X7054200Y1968600D02*
G75*
G02*
X7014200Y1968600I-20000J0D01*
G01*
X7014200Y1968600D02*
G75*
G02*
X7054200Y1968600I20000J0D01*
G01*
X7054200Y1968600D02*
G75*
G02*
X7014200Y1968600I-20000J0D01*
G01*
X7014200Y1968600D02*
G75*
G02*
X7054200Y1968600I20000J0D01*
G01*
X7054200Y1968600D02*
G75*
G02*
X7014200Y1968600I-20000J0D01*
G01*
X7014200Y1968600D02*
G75*
G02*
X7054200Y1968600I20000J0D01*
G01*
X7054200Y1968600D02*
G75*
G02*
X7014200Y1968600I-20000J0D01*
G01*
X7014200Y1968600D02*
G75*
G02*
X7054200Y1968600I20000J0D01*
G01*
X7054200Y1968600D02*
G75*
G02*
X7014200Y1968600I-20000J0D01*
G01*
X7014200Y1968600D02*
G75*
G02*
X7054200Y1968600I20000J0D01*
G01*
X7054200Y1968600D02*
G75*
G02*
X7014200Y1968600I-20000J0D01*
G01*
X7014200Y1968600D02*
G75*
G02*
X7054200Y1968600I20000J0D01*
G01*
X7054200Y1968600D02*
G75*
G02*
X7014200Y1968600I-20000J0D01*
G01*
X7014200Y1968600D02*
G75*
G02*
X7054200Y1968600I20000J0D01*
G01*
X7054200Y1788600D02*
G75*
G02*
X7014200Y1788600I-20000J0D01*
G01*
X7014200Y1788600D02*
G75*
G02*
X7054200Y1788600I20000J0D01*
G01*
X7054200Y1788600D02*
G75*
G02*
X7014200Y1788600I-20000J0D01*
G01*
X7014200Y1788600D02*
G75*
G02*
X7054200Y1788600I20000J0D01*
G01*
X7054200Y1788600D02*
G75*
G02*
X7014200Y1788600I-20000J0D01*
G01*
X7014200Y1788600D02*
G75*
G02*
X7054200Y1788600I20000J0D01*
G01*
X7054200Y1788600D02*
G75*
G02*
X7014200Y1788600I-20000J0D01*
G01*
X7014200Y1788600D02*
G75*
G02*
X7054200Y1788600I20000J0D01*
G01*
X7054200Y1788600D02*
G75*
G02*
X7014200Y1788600I-20000J0D01*
G01*
X7014200Y1788600D02*
G75*
G02*
X7054200Y1788600I20000J0D01*
G01*
X7054200Y1788600D02*
G75*
G02*
X7014200Y1788600I-20000J0D01*
G01*
X7014200Y1788600D02*
G75*
G02*
X7054200Y1788600I20000J0D01*
G01*
X7054200Y1788600D02*
G75*
G02*
X7014200Y1788600I-20000J0D01*
G01*
X7014200Y1788600D02*
G75*
G02*
X7054200Y1788600I20000J0D01*
G01*
X7054200Y1788600D02*
G75*
G02*
X7014200Y1788600I-20000J0D01*
G01*
X7014200Y1788600D02*
G75*
G02*
X7054200Y1788600I20000J0D01*
G01*
X7054200Y1788600D02*
G75*
G02*
X7014200Y1788600I-20000J0D01*
G01*
X7014200Y1788600D02*
G75*
G02*
X7054200Y1788600I20000J0D01*
G01*
X7054200Y1788600D02*
G75*
G02*
X7014200Y1788600I-20000J0D01*
G01*
X7014200Y1788600D02*
G75*
G02*
X7054200Y1788600I20000J0D01*
G01*
X7054200Y1788600D02*
G75*
G02*
X7014200Y1788600I-20000J0D01*
G01*
X7014200Y1788600D02*
G75*
G02*
X7054200Y1788600I20000J0D01*
G01*
X7054200Y1788600D02*
G75*
G02*
X7014200Y1788600I-20000J0D01*
G01*
X7014200Y1788600D02*
G75*
G02*
X7054200Y1788600I20000J0D01*
G01*
X7054200Y1788600D02*
G75*
G02*
X7014200Y1788600I-20000J0D01*
G01*
X7014200Y1788600D02*
G75*
G02*
X7054200Y1788600I20000J0D01*
G01*
X7054200Y1788600D02*
G75*
G02*
X7014200Y1788600I-20000J0D01*
G01*
X7014200Y1788600D02*
G75*
G02*
X7054200Y1788600I20000J0D01*
G01*
X7054200Y1788600D02*
G75*
G02*
X7014200Y1788600I-20000J0D01*
G01*
X7014200Y1788600D02*
G75*
G02*
X7054200Y1788600I20000J0D01*
G01*
X7054200Y1788600D02*
G75*
G02*
X7014200Y1788600I-20000J0D01*
G01*
X7014200Y1788600D02*
G75*
G02*
X7054200Y1788600I20000J0D01*
G01*
X7134200Y1868600D02*
G75*
G02*
X7094200Y1868600I-20000J0D01*
G01*
X7094200Y1868600D02*
G75*
G02*
X7134200Y1868600I20000J0D01*
G01*
X7134200Y1868600D02*
G75*
G02*
X7094200Y1868600I-20000J0D01*
G01*
X7094200Y1868600D02*
G75*
G02*
X7134200Y1868600I20000J0D01*
G01*
X7134200Y1868600D02*
G75*
G02*
X7094200Y1868600I-20000J0D01*
G01*
X7094200Y1868600D02*
G75*
G02*
X7134200Y1868600I20000J0D01*
G01*
X7134200Y1868600D02*
G75*
G02*
X7094200Y1868600I-20000J0D01*
G01*
X7094200Y1868600D02*
G75*
G02*
X7134200Y1868600I20000J0D01*
G01*
X7134200Y1868600D02*
G75*
G02*
X7094200Y1868600I-20000J0D01*
G01*
X7094200Y1868600D02*
G75*
G02*
X7134200Y1868600I20000J0D01*
G01*
X7134200Y1868600D02*
G75*
G02*
X7094200Y1868600I-20000J0D01*
G01*
X7094200Y1868600D02*
G75*
G02*
X7134200Y1868600I20000J0D01*
G01*
X7134200Y1868600D02*
G75*
G02*
X7094200Y1868600I-20000J0D01*
G01*
X7094200Y1868600D02*
G75*
G02*
X7134200Y1868600I20000J0D01*
G01*
X7134200Y1868600D02*
G75*
G02*
X7094200Y1868600I-20000J0D01*
G01*
X7094200Y1868600D02*
G75*
G02*
X7134200Y1868600I20000J0D01*
G01*
X7134200Y1868600D02*
G75*
G02*
X7094200Y1868600I-20000J0D01*
G01*
X7094200Y1868600D02*
G75*
G02*
X7134200Y1868600I20000J0D01*
G01*
X7134200Y1868600D02*
G75*
G02*
X7094200Y1868600I-20000J0D01*
G01*
X7094200Y1868600D02*
G75*
G02*
X7134200Y1868600I20000J0D01*
G01*
X7134200Y1868600D02*
G75*
G02*
X7094200Y1868600I-20000J0D01*
G01*
X7094200Y1868600D02*
G75*
G02*
X7134200Y1868600I20000J0D01*
G01*
X7134200Y1868600D02*
G75*
G02*
X7094200Y1868600I-20000J0D01*
G01*
X7094200Y1868600D02*
G75*
G02*
X7134200Y1868600I20000J0D01*
G01*
X7134200Y1868600D02*
G75*
G02*
X7094200Y1868600I-20000J0D01*
G01*
X7094200Y1868600D02*
G75*
G02*
X7134200Y1868600I20000J0D01*
G01*
X7134200Y1868600D02*
G75*
G02*
X7094200Y1868600I-20000J0D01*
G01*
X7094200Y1868600D02*
G75*
G02*
X7134200Y1868600I20000J0D01*
G01*
X7134200Y1868600D02*
G75*
G02*
X7094200Y1868600I-20000J0D01*
G01*
X7094200Y1868600D02*
G75*
G02*
X7134200Y1868600I20000J0D01*
G01*
X7134200Y1868600D02*
G75*
G02*
X7094200Y1868600I-20000J0D01*
G01*
X7094200Y1868600D02*
G75*
G02*
X7134200Y1868600I20000J0D01*
G01*
X7214200Y1968600D02*
G75*
G02*
X7174200Y1968600I-20000J0D01*
G01*
X7174200Y1968600D02*
G75*
G02*
X7214200Y1968600I20000J0D01*
G01*
X7214200Y1968600D02*
G75*
G02*
X7174200Y1968600I-20000J0D01*
G01*
X7174200Y1968600D02*
G75*
G02*
X7214200Y1968600I20000J0D01*
G01*
X7214200Y1968600D02*
G75*
G02*
X7174200Y1968600I-20000J0D01*
G01*
X7174200Y1968600D02*
G75*
G02*
X7214200Y1968600I20000J0D01*
G01*
X7214200Y1968600D02*
G75*
G02*
X7174200Y1968600I-20000J0D01*
G01*
X7174200Y1968600D02*
G75*
G02*
X7214200Y1968600I20000J0D01*
G01*
X7214200Y1968600D02*
G75*
G02*
X7174200Y1968600I-20000J0D01*
G01*
X7174200Y1968600D02*
G75*
G02*
X7214200Y1968600I20000J0D01*
G01*
X7214200Y1968600D02*
G75*
G02*
X7174200Y1968600I-20000J0D01*
G01*
X7174200Y1968600D02*
G75*
G02*
X7214200Y1968600I20000J0D01*
G01*
X7214200Y1968600D02*
G75*
G02*
X7174200Y1968600I-20000J0D01*
G01*
X7174200Y1968600D02*
G75*
G02*
X7214200Y1968600I20000J0D01*
G01*
X7214200Y1968600D02*
G75*
G02*
X7174200Y1968600I-20000J0D01*
G01*
X7174200Y1968600D02*
G75*
G02*
X7214200Y1968600I20000J0D01*
G01*
X7214200Y1968600D02*
G75*
G02*
X7174200Y1968600I-20000J0D01*
G01*
X7174200Y1968600D02*
G75*
G02*
X7214200Y1968600I20000J0D01*
G01*
X7214200Y1968600D02*
G75*
G02*
X7174200Y1968600I-20000J0D01*
G01*
X7174200Y1968600D02*
G75*
G02*
X7214200Y1968600I20000J0D01*
G01*
X7214200Y1968600D02*
G75*
G02*
X7174200Y1968600I-20000J0D01*
G01*
X7174200Y1968600D02*
G75*
G02*
X7214200Y1968600I20000J0D01*
G01*
X7214200Y1968600D02*
G75*
G02*
X7174200Y1968600I-20000J0D01*
G01*
X7174200Y1968600D02*
G75*
G02*
X7214200Y1968600I20000J0D01*
G01*
X7214200Y1968600D02*
G75*
G02*
X7174200Y1968600I-20000J0D01*
G01*
X7174200Y1968600D02*
G75*
G02*
X7214200Y1968600I20000J0D01*
G01*
X7214200Y1968600D02*
G75*
G02*
X7174200Y1968600I-20000J0D01*
G01*
X7174200Y1968600D02*
G75*
G02*
X7214200Y1968600I20000J0D01*
G01*
X7214200Y1968600D02*
G75*
G02*
X7174200Y1968600I-20000J0D01*
G01*
X7174200Y1968600D02*
G75*
G02*
X7214200Y1968600I20000J0D01*
G01*
X7214200Y1968600D02*
G75*
G02*
X7174200Y1968600I-20000J0D01*
G01*
X7174200Y1968600D02*
G75*
G02*
X7214200Y1968600I20000J0D01*
G01*
X7214200Y1788600D02*
G75*
G02*
X7174200Y1788600I-20000J0D01*
G01*
X7174200Y1788600D02*
G75*
G02*
X7214200Y1788600I20000J0D01*
G01*
X7214200Y1788600D02*
G75*
G02*
X7174200Y1788600I-20000J0D01*
G01*
X7174200Y1788600D02*
G75*
G02*
X7214200Y1788600I20000J0D01*
G01*
X7214200Y1788600D02*
G75*
G02*
X7174200Y1788600I-20000J0D01*
G01*
X7174200Y1788600D02*
G75*
G02*
X7214200Y1788600I20000J0D01*
G01*
X7214200Y1788600D02*
G75*
G02*
X7174200Y1788600I-20000J0D01*
G01*
X7174200Y1788600D02*
G75*
G02*
X7214200Y1788600I20000J0D01*
G01*
X7214200Y1788600D02*
G75*
G02*
X7174200Y1788600I-20000J0D01*
G01*
X7174200Y1788600D02*
G75*
G02*
X7214200Y1788600I20000J0D01*
G01*
X7214200Y1788600D02*
G75*
G02*
X7174200Y1788600I-20000J0D01*
G01*
X7174200Y1788600D02*
G75*
G02*
X7214200Y1788600I20000J0D01*
G01*
X7214200Y1788600D02*
G75*
G02*
X7174200Y1788600I-20000J0D01*
G01*
X7174200Y1788600D02*
G75*
G02*
X7214200Y1788600I20000J0D01*
G01*
X7214200Y1788600D02*
G75*
G02*
X7174200Y1788600I-20000J0D01*
G01*
X7174200Y1788600D02*
G75*
G02*
X7214200Y1788600I20000J0D01*
G01*
X7214200Y1788600D02*
G75*
G02*
X7174200Y1788600I-20000J0D01*
G01*
X7174200Y1788600D02*
G75*
G02*
X7214200Y1788600I20000J0D01*
G01*
X7214200Y1788600D02*
G75*
G02*
X7174200Y1788600I-20000J0D01*
G01*
X7174200Y1788600D02*
G75*
G02*
X7214200Y1788600I20000J0D01*
G01*
X7214200Y1788600D02*
G75*
G02*
X7174200Y1788600I-20000J0D01*
G01*
X7174200Y1788600D02*
G75*
G02*
X7214200Y1788600I20000J0D01*
G01*
X7214200Y1788600D02*
G75*
G02*
X7174200Y1788600I-20000J0D01*
G01*
X7174200Y1788600D02*
G75*
G02*
X7214200Y1788600I20000J0D01*
G01*
X7214200Y1788600D02*
G75*
G02*
X7174200Y1788600I-20000J0D01*
G01*
X7174200Y1788600D02*
G75*
G02*
X7214200Y1788600I20000J0D01*
G01*
X7214200Y1788600D02*
G75*
G02*
X7174200Y1788600I-20000J0D01*
G01*
X7174200Y1788600D02*
G75*
G02*
X7214200Y1788600I20000J0D01*
G01*
X7214200Y1788600D02*
G75*
G02*
X7174200Y1788600I-20000J0D01*
G01*
X7174200Y1788600D02*
G75*
G02*
X7214200Y1788600I20000J0D01*
G01*
X7214200Y1788600D02*
G75*
G02*
X7174200Y1788600I-20000J0D01*
G01*
X7174200Y1788600D02*
G75*
G02*
X7214200Y1788600I20000J0D01*
G01*
X7254200Y368600D02*
G75*
G02*
X7214200Y368600I-20000J0D01*
G01*
X7214200Y368600D02*
G75*
G02*
X7254200Y368600I20000J0D01*
G01*
X7314200Y1868600D02*
G75*
G02*
X7274200Y1868600I-20000J0D01*
G01*
X7274200Y1868600D02*
G75*
G02*
X7314200Y1868600I20000J0D01*
G01*
X7314200Y1868600D02*
G75*
G02*
X7274200Y1868600I-20000J0D01*
G01*
X7274200Y1868600D02*
G75*
G02*
X7314200Y1868600I20000J0D01*
G01*
X7314200Y1868600D02*
G75*
G02*
X7274200Y1868600I-20000J0D01*
G01*
X7274200Y1868600D02*
G75*
G02*
X7314200Y1868600I20000J0D01*
G01*
X7314200Y1868600D02*
G75*
G02*
X7274200Y1868600I-20000J0D01*
G01*
X7274200Y1868600D02*
G75*
G02*
X7314200Y1868600I20000J0D01*
G01*
X7314200Y1868600D02*
G75*
G02*
X7274200Y1868600I-20000J0D01*
G01*
X7274200Y1868600D02*
G75*
G02*
X7314200Y1868600I20000J0D01*
G01*
X7314200Y1868600D02*
G75*
G02*
X7274200Y1868600I-20000J0D01*
G01*
X7274200Y1868600D02*
G75*
G02*
X7314200Y1868600I20000J0D01*
G01*
X7314200Y1868600D02*
G75*
G02*
X7274200Y1868600I-20000J0D01*
G01*
X7274200Y1868600D02*
G75*
G02*
X7314200Y1868600I20000J0D01*
G01*
X7314200Y1868600D02*
G75*
G02*
X7274200Y1868600I-20000J0D01*
G01*
X7274200Y1868600D02*
G75*
G02*
X7314200Y1868600I20000J0D01*
G01*
X7314200Y1868600D02*
G75*
G02*
X7274200Y1868600I-20000J0D01*
G01*
X7274200Y1868600D02*
G75*
G02*
X7314200Y1868600I20000J0D01*
G01*
X7314200Y1868600D02*
G75*
G02*
X7274200Y1868600I-20000J0D01*
G01*
X7274200Y1868600D02*
G75*
G02*
X7314200Y1868600I20000J0D01*
G01*
X7314200Y1868600D02*
G75*
G02*
X7274200Y1868600I-20000J0D01*
G01*
X7274200Y1868600D02*
G75*
G02*
X7314200Y1868600I20000J0D01*
G01*
X7314200Y1868600D02*
G75*
G02*
X7274200Y1868600I-20000J0D01*
G01*
X7274200Y1868600D02*
G75*
G02*
X7314200Y1868600I20000J0D01*
G01*
X7314200Y1868600D02*
G75*
G02*
X7274200Y1868600I-20000J0D01*
G01*
X7274200Y1868600D02*
G75*
G02*
X7314200Y1868600I20000J0D01*
G01*
X7314200Y1868600D02*
G75*
G02*
X7274200Y1868600I-20000J0D01*
G01*
X7274200Y1868600D02*
G75*
G02*
X7314200Y1868600I20000J0D01*
G01*
X7314200Y1868600D02*
G75*
G02*
X7274200Y1868600I-20000J0D01*
G01*
X7274200Y1868600D02*
G75*
G02*
X7314200Y1868600I20000J0D01*
G01*
X7314200Y1868600D02*
G75*
G02*
X7274200Y1868600I-20000J0D01*
G01*
X7274200Y1868600D02*
G75*
G02*
X7314200Y1868600I20000J0D01*
G01*
X7354200Y268600D02*
G75*
G02*
X7314200Y268600I-20000J0D01*
G01*
X7314200Y268600D02*
G75*
G02*
X7354200Y268600I20000J0D01*
G01*
X7494200Y1408600D02*
G75*
G02*
X7454200Y1408600I-20000J0D01*
G01*
X7454200Y1408600D02*
G75*
G02*
X7494200Y1408600I20000J0D01*
G01*
X7534200Y1148600D02*
G75*
G02*
X7494200Y1148600I-20000J0D01*
G01*
X7494200Y1148600D02*
G75*
G02*
X7534200Y1148600I20000J0D01*
G01*
X7614200Y908600D02*
G75*
G02*
X7574200Y908600I-20000J0D01*
G01*
X7574200Y908600D02*
G75*
G02*
X7614200Y908600I20000J0D01*
G01*
X7694200Y108600D02*
G75*
G02*
X7654200Y108600I-20000J0D01*
G01*
X7654200Y108600D02*
G75*
G02*
X7694200Y108600I20000J0D01*
G01*
X7695679Y-468188D02*
G75*
G02*
X7655679Y-468188I-20000J0D01*
G01*
X7655679Y-468188D02*
G75*
G02*
X7695679Y-468188I20000J0D01*
G01*
X7695679Y-1103188D02*
G75*
G02*
X7655679Y-1103188I-20000J0D01*
G01*
X7655679Y-1103188D02*
G75*
G02*
X7695679Y-1103188I20000J0D01*
G01*
X7695679Y-1738188D02*
G75*
G02*
X7655679Y-1738188I-20000J0D01*
G01*
X7655679Y-1738188D02*
G75*
G02*
X7695679Y-1738188I20000J0D01*
G01*
X7695679Y-2373188D02*
G75*
G02*
X7655679Y-2373188I-20000J0D01*
G01*
X7655679Y-2373188D02*
G75*
G02*
X7695679Y-2373188I20000J0D01*
G01*
X7695679Y-3008188D02*
G75*
G02*
X7655679Y-3008188I-20000J0D01*
G01*
X7655679Y-3008188D02*
G75*
G02*
X7695679Y-3008188I20000J0D01*
G01*
X7695679Y-3643188D02*
G75*
G02*
X7655679Y-3643188I-20000J0D01*
G01*
X7655679Y-3643188D02*
G75*
G02*
X7695679Y-3643188I20000J0D01*
G01*
X7695679Y-4278188D02*
G75*
G02*
X7655679Y-4278188I-20000J0D01*
G01*
X7655679Y-4278188D02*
G75*
G02*
X7695679Y-4278188I20000J0D01*
G01*
X7695679Y-4913188D02*
G75*
G02*
X7655679Y-4913188I-20000J0D01*
G01*
X7655679Y-4913188D02*
G75*
G02*
X7695679Y-4913188I20000J0D01*
G01*
X7695679Y-5548188D02*
G75*
G02*
X7655679Y-5548188I-20000J0D01*
G01*
X7655679Y-5548188D02*
G75*
G02*
X7695679Y-5548188I20000J0D01*
G01*
X7695679Y-6183188D02*
G75*
G02*
X7655679Y-6183188I-20000J0D01*
G01*
X7655679Y-6183188D02*
G75*
G02*
X7695679Y-6183188I20000J0D01*
G01*
X7695679Y-6818188D02*
G75*
G02*
X7655679Y-6818188I-20000J0D01*
G01*
X7655679Y-6818188D02*
G75*
G02*
X7695679Y-6818188I20000J0D01*
G01*
X7695679Y-7453188D02*
G75*
G02*
X7655679Y-7453188I-20000J0D01*
G01*
X7655679Y-7453188D02*
G75*
G02*
X7695679Y-7453188I20000J0D01*
G01*
X7695679Y-8088188D02*
G75*
G02*
X7655679Y-8088188I-20000J0D01*
G01*
X7655679Y-8088188D02*
G75*
G02*
X7695679Y-8088188I20000J0D01*
G01*
X7695679Y-8723188D02*
G75*
G02*
X7655679Y-8723188I-20000J0D01*
G01*
X7655679Y-8723188D02*
G75*
G02*
X7695679Y-8723188I20000J0D01*
G01*
X234579Y2330412D02*
X234579Y2270412D01*
X204579Y2300412D02*
X264579Y2300412D01*
X274579Y2330412D02*
X194579Y2330412D01*
X194579Y2270412D02*
G75*
G02*
X194579Y2330412I0J30000D01*
G01*
X194579Y2270412D02*
X274579Y2270412D01*
X274579Y2270412D02*
G75*
G03*
X274579Y2330412I0J30000D01*
G01*
X234579Y1466412D02*
X234579Y1406412D01*
X204579Y1436412D02*
X264579Y1436412D01*
X274579Y1466412D02*
X194579Y1466412D01*
X194579Y1406412D02*
G75*
G02*
X194579Y1466412I0J30000D01*
G01*
X194579Y1406412D02*
X274579Y1406412D01*
X274579Y1406412D02*
G75*
G03*
X274579Y1466412I0J30000D01*
G01*
X652579Y2330412D02*
X652579Y2270412D01*
X622579Y2300412D02*
X682579Y2300412D01*
X707579Y2330412D02*
X597579Y2330412D01*
X597579Y2270412D02*
G75*
G02*
X597579Y2330412I0J30000D01*
G01*
X597579Y2270412D02*
X707579Y2270412D01*
X707579Y2270412D02*
G75*
G03*
X707579Y2330412I0J30000D01*
G01*
X652579Y1466412D02*
X652579Y1406412D01*
X622579Y1436412D02*
X682579Y1436412D01*
X707579Y1466412D02*
X597579Y1466412D01*
X597579Y1406412D02*
G75*
G02*
X597579Y1466412I0J30000D01*
G01*
X597579Y1406412D02*
X707579Y1406412D01*
X707579Y1406412D02*
G75*
G03*
X707579Y1466412I0J30000D01*
G01*
X1155295Y2239656D02*
X1155295Y2310368D01*
X1084583Y2310368D01*
X1084583Y2239656D01*
X1155295Y2239656D01*
X1155295Y1985656D02*
X1155295Y2056368D01*
X1084583Y2056368D01*
X1084583Y1985656D01*
X1155295Y1985656D01*
X1409295Y2239656D02*
X1409295Y2310368D01*
X1338583Y2310368D01*
X1338583Y2239656D01*
X1409295Y2239656D01*
X1409295Y1985656D02*
X1409295Y2056368D01*
X1338583Y2056368D01*
X1338583Y1985656D01*
X1409295Y1985656D01*
X1663295Y2239656D02*
X1663295Y2310368D01*
X1592583Y2310368D01*
X1592583Y2239656D01*
X1663295Y2239656D01*
X1663295Y1985656D02*
X1663295Y2056368D01*
X1592583Y2056368D01*
X1592583Y1985656D01*
X1663295Y1985656D01*
X1917295Y2239656D02*
X1917295Y2310368D01*
X1846583Y2310368D01*
X1846583Y2239656D01*
X1917295Y2239656D01*
X1917295Y1985656D02*
X1917295Y2056368D01*
X1846583Y2056368D01*
X1846583Y1985656D01*
X1917295Y1985656D01*
X2171295Y2239656D02*
X2171295Y2310368D01*
X2100583Y2310368D01*
X2100583Y2239656D01*
X2171295Y2239656D01*
X2171295Y1985656D02*
X2171295Y2056368D01*
X2100583Y2056368D01*
X2100583Y1985656D01*
X2171295Y1985656D01*
X2425295Y2239656D02*
X2425295Y2310368D01*
X2354583Y2310368D01*
X2354583Y2239656D01*
X2425295Y2239656D01*
X2425295Y1985656D02*
X2425295Y2056368D01*
X2354583Y2056368D01*
X2354583Y1985656D01*
X2425295Y1985656D01*
X2679295Y2239656D02*
X2679295Y2310368D01*
X2608583Y2310368D01*
X2608583Y2239656D01*
X2679295Y2239656D01*
X2679295Y1985656D02*
X2679295Y2056368D01*
X2608583Y2056368D01*
X2608583Y1985656D01*
X2679295Y1985656D01*
X2933295Y2239656D02*
X2933295Y2310368D01*
X2862583Y2310368D01*
X2862583Y2239656D01*
X2933295Y2239656D01*
X2933295Y1985656D02*
X2933295Y2056368D01*
X2862583Y2056368D01*
X2862583Y1985656D01*
X2933295Y1985656D01*
X6814156Y2507856D02*
X6814156Y2578568D01*
X6743444Y2578568D01*
X6743444Y2507856D01*
X6814156Y2507856D01*
X6814156Y1057856D02*
X6814156Y1128568D01*
X6743444Y1128568D01*
X6743444Y1057856D01*
X6814156Y1057856D01*
X7064156Y1057856D02*
X7064156Y1128568D01*
X6993444Y1128568D01*
X6993444Y1057856D01*
X7064156Y1057856D01*
X7314156Y2507856D02*
X7314156Y2578568D01*
X7243444Y2578568D01*
X7243444Y2507856D01*
X7314156Y2507856D01*
X7314156Y1057856D02*
X7314156Y1128568D01*
X7243444Y1128568D01*
X7243444Y1057856D01*
X7314156Y1057856D01*
D12*
X6468800Y1768212D02*
X6543800Y1843212D01*
X6468800Y1918212D01*
X6393800Y1843212D01*
X6468800Y1768212D01*
D10*
X6543800Y1778212D02*
X6543800Y1908212D01*
X6393800Y1908212D02*
G75*
G02*
X6543800Y1908212I75000J0D01*
G01*
X6393800Y1908212D02*
X6393800Y1778212D01*
X6393800Y1778212D02*
G75*
G03*
X6543800Y1778212I75000J0D01*
G01*
D12*
X7588800Y1768212D02*
X7663800Y1843212D01*
X7588800Y1918212D01*
X7513800Y1843212D01*
X7588800Y1768212D01*
D10*
X7663800Y1778212D02*
X7663800Y1908212D01*
X7513800Y1908212D02*
G75*
G02*
X7663800Y1908212I75000J0D01*
G01*
X7513800Y1908212D02*
X7513800Y1778212D01*
X7513800Y1778212D02*
G75*
G03*
X7663800Y1778212I75000J0D01*
G01*
D11*
X247956Y-9538472D02*
X247956Y-9338472D01*
X247956Y-9338472D02*
X295575Y-9338472D01*
X295575Y-9338472D02*
X324146Y-9347996D01*
X324146Y-9347996D02*
X343194Y-9367043D01*
X343194Y-9367043D02*
X352718Y-9386091D01*
X352718Y-9386091D02*
X362241Y-9424186D01*
X362241Y-9424186D02*
X362241Y-9452758D01*
X362241Y-9452758D02*
X352718Y-9490853D01*
X352718Y-9490853D02*
X343194Y-9509900D01*
X343194Y-9509900D02*
X324146Y-9528948D01*
X324146Y-9528948D02*
X295575Y-9538472D01*
X295575Y-9538472D02*
X247956Y-9538472D01*
X447956Y-9538472D02*
X447956Y-9405138D01*
X447956Y-9443234D02*
X457479Y-9424186D01*
X457479Y-9424186D02*
X467003Y-9414662D01*
X467003Y-9414662D02*
X486051Y-9405138D01*
X486051Y-9405138D02*
X505099Y-9405138D01*
X571765Y-9538472D02*
X571765Y-9405138D01*
X571765Y-9338472D02*
X562241Y-9347996D01*
X562241Y-9347996D02*
X571765Y-9357519D01*
X571765Y-9357519D02*
X581289Y-9347996D01*
X581289Y-9347996D02*
X571765Y-9338472D01*
X571765Y-9338472D02*
X571765Y-9357519D01*
X695575Y-9538472D02*
X676527Y-9528948D01*
X676527Y-9528948D02*
X667003Y-9509900D01*
X667003Y-9509900D02*
X667003Y-9338472D01*
X800337Y-9538472D02*
X781289Y-9528948D01*
X781289Y-9528948D02*
X771765Y-9509900D01*
X771765Y-9509900D02*
X771765Y-9338472D01*
X1028908Y-9538472D02*
X1028908Y-9338472D01*
X1028908Y-9338472D02*
X1095575Y-9481329D01*
X1095575Y-9481329D02*
X1162241Y-9338472D01*
X1162241Y-9338472D02*
X1162241Y-9538472D01*
X1343194Y-9538472D02*
X1343194Y-9433710D01*
X1343194Y-9433710D02*
X1333670Y-9414662D01*
X1333670Y-9414662D02*
X1314622Y-9405138D01*
X1314622Y-9405138D02*
X1276527Y-9405138D01*
X1276527Y-9405138D02*
X1257480Y-9414662D01*
X1343194Y-9528948D02*
X1324146Y-9538472D01*
X1324146Y-9538472D02*
X1276527Y-9538472D01*
X1276527Y-9538472D02*
X1257480Y-9528948D01*
X1257480Y-9528948D02*
X1247956Y-9509900D01*
X1247956Y-9509900D02*
X1247956Y-9490853D01*
X1247956Y-9490853D02*
X1257480Y-9471805D01*
X1257480Y-9471805D02*
X1276527Y-9462281D01*
X1276527Y-9462281D02*
X1324146Y-9462281D01*
X1324146Y-9462281D02*
X1343194Y-9452758D01*
X1438432Y-9405138D02*
X1438432Y-9605138D01*
X1438432Y-9414662D02*
X1457479Y-9405138D01*
X1457479Y-9405138D02*
X1495575Y-9405138D01*
X1495575Y-9405138D02*
X1514622Y-9414662D01*
X1514622Y-9414662D02*
X1524146Y-9424186D01*
X1524146Y-9424186D02*
X1533670Y-9443234D01*
X1533670Y-9443234D02*
X1533670Y-9500377D01*
X1533670Y-9500377D02*
X1524146Y-9519424D01*
X1524146Y-9519424D02*
X1514622Y-9528948D01*
X1514622Y-9528948D02*
X1495575Y-9538472D01*
X1495575Y-9538472D02*
X1457479Y-9538472D01*
X1457479Y-9538472D02*
X1438432Y-9528948D01*
X1619384Y-9519424D02*
X1628908Y-9528948D01*
X1628908Y-9528948D02*
X1619384Y-9538472D01*
X1619384Y-9538472D02*
X1609860Y-9528948D01*
X1609860Y-9528948D02*
X1619384Y-9519424D01*
X1619384Y-9519424D02*
X1619384Y-9538472D01*
X1619384Y-9414662D02*
X1628908Y-9424186D01*
X1628908Y-9424186D02*
X1619384Y-9433710D01*
X1619384Y-9433710D02*
X1609860Y-9424186D01*
X1609860Y-9424186D02*
X1619384Y-9414662D01*
X1619384Y-9414662D02*
X1619384Y-9433710D01*
D10*
X-32821Y-9856988D02*
X-12821Y-9876988D01*
X-12821Y-9856988D02*
X-32821Y-9876988D01*
D11*
X286051Y-9758472D02*
X305099Y-9758472D01*
X305099Y-9758472D02*
X324146Y-9767996D01*
X324146Y-9767996D02*
X333670Y-9777519D01*
X333670Y-9777519D02*
X343194Y-9796567D01*
X343194Y-9796567D02*
X352718Y-9834662D01*
X352718Y-9834662D02*
X352718Y-9882281D01*
X352718Y-9882281D02*
X343194Y-9920377D01*
X343194Y-9920377D02*
X333670Y-9939424D01*
X333670Y-9939424D02*
X324146Y-9948948D01*
X324146Y-9948948D02*
X305099Y-9958472D01*
X305099Y-9958472D02*
X286051Y-9958472D01*
X286051Y-9958472D02*
X267003Y-9948948D01*
X267003Y-9948948D02*
X257479Y-9939424D01*
X257479Y-9939424D02*
X247956Y-9920377D01*
X247956Y-9920377D02*
X238432Y-9882281D01*
X238432Y-9882281D02*
X238432Y-9834662D01*
X238432Y-9834662D02*
X247956Y-9796567D01*
X247956Y-9796567D02*
X257479Y-9777519D01*
X257479Y-9777519D02*
X267003Y-9767996D01*
X267003Y-9767996D02*
X286051Y-9758472D01*
X438432Y-9939424D02*
X447956Y-9948948D01*
X447956Y-9948948D02*
X438432Y-9958472D01*
X438432Y-9958472D02*
X428908Y-9948948D01*
X428908Y-9948948D02*
X438432Y-9939424D01*
X438432Y-9939424D02*
X438432Y-9958472D01*
X524146Y-9777519D02*
X533670Y-9767996D01*
X533670Y-9767996D02*
X552718Y-9758472D01*
X552718Y-9758472D02*
X600337Y-9758472D01*
X600337Y-9758472D02*
X619384Y-9767996D01*
X619384Y-9767996D02*
X628908Y-9777519D01*
X628908Y-9777519D02*
X638432Y-9796567D01*
X638432Y-9796567D02*
X638432Y-9815615D01*
X638432Y-9815615D02*
X628908Y-9844186D01*
X628908Y-9844186D02*
X514622Y-9958472D01*
X514622Y-9958472D02*
X638432Y-9958472D01*
X762241Y-9758472D02*
X781289Y-9758472D01*
X781289Y-9758472D02*
X800337Y-9767996D01*
X800337Y-9767996D02*
X809860Y-9777519D01*
X809860Y-9777519D02*
X819384Y-9796567D01*
X819384Y-9796567D02*
X828908Y-9834662D01*
X828908Y-9834662D02*
X828908Y-9882281D01*
X828908Y-9882281D02*
X819384Y-9920377D01*
X819384Y-9920377D02*
X809860Y-9939424D01*
X809860Y-9939424D02*
X800337Y-9948948D01*
X800337Y-9948948D02*
X781289Y-9958472D01*
X781289Y-9958472D02*
X762241Y-9958472D01*
X762241Y-9958472D02*
X743194Y-9948948D01*
X743194Y-9948948D02*
X733670Y-9939424D01*
X733670Y-9939424D02*
X724146Y-9920377D01*
X724146Y-9920377D02*
X714622Y-9882281D01*
X714622Y-9882281D02*
X714622Y-9834662D01*
X714622Y-9834662D02*
X724146Y-9796567D01*
X724146Y-9796567D02*
X733670Y-9777519D01*
X733670Y-9777519D02*
X743194Y-9767996D01*
X743194Y-9767996D02*
X762241Y-9758472D01*
X952718Y-9758472D02*
X971765Y-9758472D01*
X971765Y-9758472D02*
X990813Y-9767996D01*
X990813Y-9767996D02*
X1000337Y-9777519D01*
X1000337Y-9777519D02*
X1009860Y-9796567D01*
X1009860Y-9796567D02*
X1019384Y-9834662D01*
X1019384Y-9834662D02*
X1019384Y-9882281D01*
X1019384Y-9882281D02*
X1009860Y-9920377D01*
X1009860Y-9920377D02*
X1000337Y-9939424D01*
X1000337Y-9939424D02*
X990813Y-9948948D01*
X990813Y-9948948D02*
X971765Y-9958472D01*
X971765Y-9958472D02*
X952718Y-9958472D01*
X952718Y-9958472D02*
X933670Y-9948948D01*
X933670Y-9948948D02*
X924146Y-9939424D01*
X924146Y-9939424D02*
X914622Y-9920377D01*
X914622Y-9920377D02*
X905099Y-9882281D01*
X905099Y-9882281D02*
X905099Y-9834662D01*
X905099Y-9834662D02*
X914622Y-9796567D01*
X914622Y-9796567D02*
X924146Y-9777519D01*
X924146Y-9777519D02*
X933670Y-9767996D01*
X933670Y-9767996D02*
X952718Y-9758472D01*
X1105099Y-9958472D02*
X1105099Y-9825138D01*
X1105099Y-9844186D02*
X1114622Y-9834662D01*
X1114622Y-9834662D02*
X1133670Y-9825138D01*
X1133670Y-9825138D02*
X1162242Y-9825138D01*
X1162242Y-9825138D02*
X1181289Y-9834662D01*
X1181289Y-9834662D02*
X1190813Y-9853710D01*
X1190813Y-9853710D02*
X1190813Y-9958472D01*
X1190813Y-9853710D02*
X1200337Y-9834662D01*
X1200337Y-9834662D02*
X1219384Y-9825138D01*
X1219384Y-9825138D02*
X1247956Y-9825138D01*
X1247956Y-9825138D02*
X1267003Y-9834662D01*
X1267003Y-9834662D02*
X1276527Y-9853710D01*
X1276527Y-9853710D02*
X1276527Y-9958472D01*
X1371765Y-9958472D02*
X1371765Y-9825138D01*
X1371765Y-9844186D02*
X1381289Y-9834662D01*
X1381289Y-9834662D02*
X1400337Y-9825138D01*
X1400337Y-9825138D02*
X1428908Y-9825138D01*
X1428908Y-9825138D02*
X1447956Y-9834662D01*
X1447956Y-9834662D02*
X1457480Y-9853710D01*
X1457480Y-9853710D02*
X1457480Y-9958472D01*
X1457480Y-9853710D02*
X1467003Y-9834662D01*
X1467003Y-9834662D02*
X1486051Y-9825138D01*
X1486051Y-9825138D02*
X1514622Y-9825138D01*
X1514622Y-9825138D02*
X1533670Y-9834662D01*
X1533670Y-9834662D02*
X1543194Y-9853710D01*
X1543194Y-9853710D02*
X1543194Y-9958472D01*
X1933670Y-9748948D02*
X1762242Y-10006091D01*
X2190813Y-9758472D02*
X2209861Y-9758472D01*
X2209861Y-9758472D02*
X2228908Y-9767996D01*
X2228908Y-9767996D02*
X2238432Y-9777519D01*
X2238432Y-9777519D02*
X2247956Y-9796567D01*
X2247956Y-9796567D02*
X2257480Y-9834662D01*
X2257480Y-9834662D02*
X2257480Y-9882281D01*
X2257480Y-9882281D02*
X2247956Y-9920377D01*
X2247956Y-9920377D02*
X2238432Y-9939424D01*
X2238432Y-9939424D02*
X2228908Y-9948948D01*
X2228908Y-9948948D02*
X2209861Y-9958472D01*
X2209861Y-9958472D02*
X2190813Y-9958472D01*
X2190813Y-9958472D02*
X2171765Y-9948948D01*
X2171765Y-9948948D02*
X2162242Y-9939424D01*
X2162242Y-9939424D02*
X2152718Y-9920377D01*
X2152718Y-9920377D02*
X2143194Y-9882281D01*
X2143194Y-9882281D02*
X2143194Y-9834662D01*
X2143194Y-9834662D02*
X2152718Y-9796567D01*
X2152718Y-9796567D02*
X2162242Y-9777519D01*
X2162242Y-9777519D02*
X2171765Y-9767996D01*
X2171765Y-9767996D02*
X2190813Y-9758472D01*
X2343194Y-9939424D02*
X2352718Y-9948948D01*
X2352718Y-9948948D02*
X2343194Y-9958472D01*
X2343194Y-9958472D02*
X2333670Y-9948948D01*
X2333670Y-9948948D02*
X2343194Y-9939424D01*
X2343194Y-9939424D02*
X2343194Y-9958472D01*
X2476527Y-9758472D02*
X2495575Y-9758472D01*
X2495575Y-9758472D02*
X2514623Y-9767996D01*
X2514623Y-9767996D02*
X2524146Y-9777519D01*
X2524146Y-9777519D02*
X2533670Y-9796567D01*
X2533670Y-9796567D02*
X2543194Y-9834662D01*
X2543194Y-9834662D02*
X2543194Y-9882281D01*
X2543194Y-9882281D02*
X2533670Y-9920377D01*
X2533670Y-9920377D02*
X2524146Y-9939424D01*
X2524146Y-9939424D02*
X2514623Y-9948948D01*
X2514623Y-9948948D02*
X2495575Y-9958472D01*
X2495575Y-9958472D02*
X2476527Y-9958472D01*
X2476527Y-9958472D02*
X2457480Y-9948948D01*
X2457480Y-9948948D02*
X2447956Y-9939424D01*
X2447956Y-9939424D02*
X2438432Y-9920377D01*
X2438432Y-9920377D02*
X2428908Y-9882281D01*
X2428908Y-9882281D02*
X2428908Y-9834662D01*
X2428908Y-9834662D02*
X2438432Y-9796567D01*
X2438432Y-9796567D02*
X2447956Y-9777519D01*
X2447956Y-9777519D02*
X2457480Y-9767996D01*
X2457480Y-9767996D02*
X2476527Y-9758472D01*
X2667004Y-9758472D02*
X2686051Y-9758472D01*
X2686051Y-9758472D02*
X2705099Y-9767996D01*
X2705099Y-9767996D02*
X2714623Y-9777519D01*
X2714623Y-9777519D02*
X2724146Y-9796567D01*
X2724146Y-9796567D02*
X2733670Y-9834662D01*
X2733670Y-9834662D02*
X2733670Y-9882281D01*
X2733670Y-9882281D02*
X2724146Y-9920377D01*
X2724146Y-9920377D02*
X2714623Y-9939424D01*
X2714623Y-9939424D02*
X2705099Y-9948948D01*
X2705099Y-9948948D02*
X2686051Y-9958472D01*
X2686051Y-9958472D02*
X2667004Y-9958472D01*
X2667004Y-9958472D02*
X2647956Y-9948948D01*
X2647956Y-9948948D02*
X2638432Y-9939424D01*
X2638432Y-9939424D02*
X2628908Y-9920377D01*
X2628908Y-9920377D02*
X2619385Y-9882281D01*
X2619385Y-9882281D02*
X2619385Y-9834662D01*
X2619385Y-9834662D02*
X2628908Y-9796567D01*
X2628908Y-9796567D02*
X2638432Y-9777519D01*
X2638432Y-9777519D02*
X2647956Y-9767996D01*
X2647956Y-9767996D02*
X2667004Y-9758472D01*
X2800337Y-9758472D02*
X2933670Y-9758472D01*
X2933670Y-9758472D02*
X2847956Y-9958472D01*
X3019384Y-9958472D02*
X3057480Y-9958472D01*
X3057480Y-9958472D02*
X3076527Y-9948948D01*
X3076527Y-9948948D02*
X3086051Y-9939424D01*
X3086051Y-9939424D02*
X3105099Y-9910853D01*
X3105099Y-9910853D02*
X3114623Y-9872758D01*
X3114623Y-9872758D02*
X3114623Y-9796567D01*
X3114623Y-9796567D02*
X3105099Y-9777519D01*
X3105099Y-9777519D02*
X3095575Y-9767996D01*
X3095575Y-9767996D02*
X3076527Y-9758472D01*
X3076527Y-9758472D02*
X3038432Y-9758472D01*
X3038432Y-9758472D02*
X3019384Y-9767996D01*
X3019384Y-9767996D02*
X3009861Y-9777519D01*
X3009861Y-9777519D02*
X3000337Y-9796567D01*
X3000337Y-9796567D02*
X3000337Y-9844186D01*
X3000337Y-9844186D02*
X3009861Y-9863234D01*
X3009861Y-9863234D02*
X3019384Y-9872758D01*
X3019384Y-9872758D02*
X3038432Y-9882281D01*
X3038432Y-9882281D02*
X3076527Y-9882281D01*
X3076527Y-9882281D02*
X3095575Y-9872758D01*
X3095575Y-9872758D02*
X3105099Y-9863234D01*
X3105099Y-9863234D02*
X3114623Y-9844186D01*
X3190813Y-9758472D02*
X3190813Y-9796567D01*
X3267004Y-9758472D02*
X3267004Y-9796567D01*
X3562242Y-10034662D02*
X3552718Y-10025138D01*
X3552718Y-10025138D02*
X3533670Y-9996567D01*
X3533670Y-9996567D02*
X3524146Y-9977519D01*
X3524146Y-9977519D02*
X3514623Y-9948948D01*
X3514623Y-9948948D02*
X3505099Y-9901329D01*
X3505099Y-9901329D02*
X3505099Y-9863234D01*
X3505099Y-9863234D02*
X3514623Y-9815615D01*
X3514623Y-9815615D02*
X3524146Y-9787043D01*
X3524146Y-9787043D02*
X3533670Y-9767996D01*
X3533670Y-9767996D02*
X3552718Y-9739424D01*
X3552718Y-9739424D02*
X3562242Y-9729900D01*
X3743194Y-9958472D02*
X3628908Y-9958472D01*
X3686051Y-9958472D02*
X3686051Y-9758472D01*
X3686051Y-9758472D02*
X3667004Y-9787043D01*
X3667004Y-9787043D02*
X3647956Y-9806091D01*
X3647956Y-9806091D02*
X3628908Y-9815615D01*
X3819385Y-9777519D02*
X3828908Y-9767996D01*
X3828908Y-9767996D02*
X3847956Y-9758472D01*
X3847956Y-9758472D02*
X3895575Y-9758472D01*
X3895575Y-9758472D02*
X3914623Y-9767996D01*
X3914623Y-9767996D02*
X3924146Y-9777519D01*
X3924146Y-9777519D02*
X3933670Y-9796567D01*
X3933670Y-9796567D02*
X3933670Y-9815615D01*
X3933670Y-9815615D02*
X3924146Y-9844186D01*
X3924146Y-9844186D02*
X3809861Y-9958472D01*
X3809861Y-9958472D02*
X3933670Y-9958472D01*
X4171766Y-9958472D02*
X4171766Y-9758472D01*
X4257480Y-9958472D02*
X4257480Y-9853710D01*
X4257480Y-9853710D02*
X4247956Y-9834662D01*
X4247956Y-9834662D02*
X4228909Y-9825138D01*
X4228909Y-9825138D02*
X4200337Y-9825138D01*
X4200337Y-9825138D02*
X4181289Y-9834662D01*
X4181289Y-9834662D02*
X4171766Y-9844186D01*
X4381289Y-9958472D02*
X4362242Y-9948948D01*
X4362242Y-9948948D02*
X4352718Y-9939424D01*
X4352718Y-9939424D02*
X4343194Y-9920377D01*
X4343194Y-9920377D02*
X4343194Y-9863234D01*
X4343194Y-9863234D02*
X4352718Y-9844186D01*
X4352718Y-9844186D02*
X4362242Y-9834662D01*
X4362242Y-9834662D02*
X4381289Y-9825138D01*
X4381289Y-9825138D02*
X4409861Y-9825138D01*
X4409861Y-9825138D02*
X4428909Y-9834662D01*
X4428909Y-9834662D02*
X4438432Y-9844186D01*
X4438432Y-9844186D02*
X4447956Y-9863234D01*
X4447956Y-9863234D02*
X4447956Y-9920377D01*
X4447956Y-9920377D02*
X4438432Y-9939424D01*
X4438432Y-9939424D02*
X4428909Y-9948948D01*
X4428909Y-9948948D02*
X4409861Y-9958472D01*
X4409861Y-9958472D02*
X4381289Y-9958472D01*
X4562242Y-9958472D02*
X4543194Y-9948948D01*
X4543194Y-9948948D02*
X4533670Y-9929900D01*
X4533670Y-9929900D02*
X4533670Y-9758472D01*
X4714623Y-9948948D02*
X4695575Y-9958472D01*
X4695575Y-9958472D02*
X4657480Y-9958472D01*
X4657480Y-9958472D02*
X4638432Y-9948948D01*
X4638432Y-9948948D02*
X4628909Y-9929900D01*
X4628909Y-9929900D02*
X4628909Y-9853710D01*
X4628909Y-9853710D02*
X4638432Y-9834662D01*
X4638432Y-9834662D02*
X4657480Y-9825138D01*
X4657480Y-9825138D02*
X4695575Y-9825138D01*
X4695575Y-9825138D02*
X4714623Y-9834662D01*
X4714623Y-9834662D02*
X4724147Y-9853710D01*
X4724147Y-9853710D02*
X4724147Y-9872758D01*
X4724147Y-9872758D02*
X4628909Y-9891805D01*
X4800337Y-9948948D02*
X4819385Y-9958472D01*
X4819385Y-9958472D02*
X4857480Y-9958472D01*
X4857480Y-9958472D02*
X4876528Y-9948948D01*
X4876528Y-9948948D02*
X4886051Y-9929900D01*
X4886051Y-9929900D02*
X4886051Y-9920377D01*
X4886051Y-9920377D02*
X4876528Y-9901329D01*
X4876528Y-9901329D02*
X4857480Y-9891805D01*
X4857480Y-9891805D02*
X4828909Y-9891805D01*
X4828909Y-9891805D02*
X4809861Y-9882281D01*
X4809861Y-9882281D02*
X4800337Y-9863234D01*
X4800337Y-9863234D02*
X4800337Y-9853710D01*
X4800337Y-9853710D02*
X4809861Y-9834662D01*
X4809861Y-9834662D02*
X4828909Y-9825138D01*
X4828909Y-9825138D02*
X4857480Y-9825138D01*
X4857480Y-9825138D02*
X4876528Y-9834662D01*
X4952718Y-10034662D02*
X4962242Y-10025138D01*
X4962242Y-10025138D02*
X4981290Y-9996567D01*
X4981290Y-9996567D02*
X4990813Y-9977519D01*
X4990813Y-9977519D02*
X5000337Y-9948948D01*
X5000337Y-9948948D02*
X5009861Y-9901329D01*
X5009861Y-9901329D02*
X5009861Y-9863234D01*
X5009861Y-9863234D02*
X5000337Y-9815615D01*
X5000337Y-9815615D02*
X4990813Y-9787043D01*
X4990813Y-9787043D02*
X4981290Y-9767996D01*
X4981290Y-9767996D02*
X4962242Y-9739424D01*
X4962242Y-9739424D02*
X4952718Y-9729900D01*
D10*
X-12821Y-10130988D02*
G75*
G02*
X-52821Y-10130988I-20000J0D01*
G01*
X-52821Y-10130988D02*
G75*
G02*
X-12821Y-10130988I20000J0D01*
G01*
D11*
X286051Y-10022472D02*
X305099Y-10022472D01*
X305099Y-10022472D02*
X324146Y-10031996D01*
X324146Y-10031996D02*
X333670Y-10041519D01*
X333670Y-10041519D02*
X343194Y-10060567D01*
X343194Y-10060567D02*
X352718Y-10098662D01*
X352718Y-10098662D02*
X352718Y-10146281D01*
X352718Y-10146281D02*
X343194Y-10184377D01*
X343194Y-10184377D02*
X333670Y-10203424D01*
X333670Y-10203424D02*
X324146Y-10212948D01*
X324146Y-10212948D02*
X305099Y-10222472D01*
X305099Y-10222472D02*
X286051Y-10222472D01*
X286051Y-10222472D02*
X267003Y-10212948D01*
X267003Y-10212948D02*
X257479Y-10203424D01*
X257479Y-10203424D02*
X247956Y-10184377D01*
X247956Y-10184377D02*
X238432Y-10146281D01*
X238432Y-10146281D02*
X238432Y-10098662D01*
X238432Y-10098662D02*
X247956Y-10060567D01*
X247956Y-10060567D02*
X257479Y-10041519D01*
X257479Y-10041519D02*
X267003Y-10031996D01*
X267003Y-10031996D02*
X286051Y-10022472D01*
X438432Y-10203424D02*
X447956Y-10212948D01*
X447956Y-10212948D02*
X438432Y-10222472D01*
X438432Y-10222472D02*
X428908Y-10212948D01*
X428908Y-10212948D02*
X438432Y-10203424D01*
X438432Y-10203424D02*
X438432Y-10222472D01*
X619384Y-10089138D02*
X619384Y-10222472D01*
X571765Y-10012948D02*
X524146Y-10155805D01*
X524146Y-10155805D02*
X647956Y-10155805D01*
X762241Y-10022472D02*
X781289Y-10022472D01*
X781289Y-10022472D02*
X800337Y-10031996D01*
X800337Y-10031996D02*
X809860Y-10041519D01*
X809860Y-10041519D02*
X819384Y-10060567D01*
X819384Y-10060567D02*
X828908Y-10098662D01*
X828908Y-10098662D02*
X828908Y-10146281D01*
X828908Y-10146281D02*
X819384Y-10184377D01*
X819384Y-10184377D02*
X809860Y-10203424D01*
X809860Y-10203424D02*
X800337Y-10212948D01*
X800337Y-10212948D02*
X781289Y-10222472D01*
X781289Y-10222472D02*
X762241Y-10222472D01*
X762241Y-10222472D02*
X743194Y-10212948D01*
X743194Y-10212948D02*
X733670Y-10203424D01*
X733670Y-10203424D02*
X724146Y-10184377D01*
X724146Y-10184377D02*
X714622Y-10146281D01*
X714622Y-10146281D02*
X714622Y-10098662D01*
X714622Y-10098662D02*
X724146Y-10060567D01*
X724146Y-10060567D02*
X733670Y-10041519D01*
X733670Y-10041519D02*
X743194Y-10031996D01*
X743194Y-10031996D02*
X762241Y-10022472D01*
X952718Y-10022472D02*
X971765Y-10022472D01*
X971765Y-10022472D02*
X990813Y-10031996D01*
X990813Y-10031996D02*
X1000337Y-10041519D01*
X1000337Y-10041519D02*
X1009860Y-10060567D01*
X1009860Y-10060567D02*
X1019384Y-10098662D01*
X1019384Y-10098662D02*
X1019384Y-10146281D01*
X1019384Y-10146281D02*
X1009860Y-10184377D01*
X1009860Y-10184377D02*
X1000337Y-10203424D01*
X1000337Y-10203424D02*
X990813Y-10212948D01*
X990813Y-10212948D02*
X971765Y-10222472D01*
X971765Y-10222472D02*
X952718Y-10222472D01*
X952718Y-10222472D02*
X933670Y-10212948D01*
X933670Y-10212948D02*
X924146Y-10203424D01*
X924146Y-10203424D02*
X914622Y-10184377D01*
X914622Y-10184377D02*
X905099Y-10146281D01*
X905099Y-10146281D02*
X905099Y-10098662D01*
X905099Y-10098662D02*
X914622Y-10060567D01*
X914622Y-10060567D02*
X924146Y-10041519D01*
X924146Y-10041519D02*
X933670Y-10031996D01*
X933670Y-10031996D02*
X952718Y-10022472D01*
X1105099Y-10222472D02*
X1105099Y-10089138D01*
X1105099Y-10108186D02*
X1114622Y-10098662D01*
X1114622Y-10098662D02*
X1133670Y-10089138D01*
X1133670Y-10089138D02*
X1162242Y-10089138D01*
X1162242Y-10089138D02*
X1181289Y-10098662D01*
X1181289Y-10098662D02*
X1190813Y-10117710D01*
X1190813Y-10117710D02*
X1190813Y-10222472D01*
X1190813Y-10117710D02*
X1200337Y-10098662D01*
X1200337Y-10098662D02*
X1219384Y-10089138D01*
X1219384Y-10089138D02*
X1247956Y-10089138D01*
X1247956Y-10089138D02*
X1267003Y-10098662D01*
X1267003Y-10098662D02*
X1276527Y-10117710D01*
X1276527Y-10117710D02*
X1276527Y-10222472D01*
X1371765Y-10222472D02*
X1371765Y-10089138D01*
X1371765Y-10108186D02*
X1381289Y-10098662D01*
X1381289Y-10098662D02*
X1400337Y-10089138D01*
X1400337Y-10089138D02*
X1428908Y-10089138D01*
X1428908Y-10089138D02*
X1447956Y-10098662D01*
X1447956Y-10098662D02*
X1457480Y-10117710D01*
X1457480Y-10117710D02*
X1457480Y-10222472D01*
X1457480Y-10117710D02*
X1467003Y-10098662D01*
X1467003Y-10098662D02*
X1486051Y-10089138D01*
X1486051Y-10089138D02*
X1514622Y-10089138D01*
X1514622Y-10089138D02*
X1533670Y-10098662D01*
X1533670Y-10098662D02*
X1543194Y-10117710D01*
X1543194Y-10117710D02*
X1543194Y-10222472D01*
X1933670Y-10012948D02*
X1762242Y-10270091D01*
X2190813Y-10022472D02*
X2209861Y-10022472D01*
X2209861Y-10022472D02*
X2228908Y-10031996D01*
X2228908Y-10031996D02*
X2238432Y-10041519D01*
X2238432Y-10041519D02*
X2247956Y-10060567D01*
X2247956Y-10060567D02*
X2257480Y-10098662D01*
X2257480Y-10098662D02*
X2257480Y-10146281D01*
X2257480Y-10146281D02*
X2247956Y-10184377D01*
X2247956Y-10184377D02*
X2238432Y-10203424D01*
X2238432Y-10203424D02*
X2228908Y-10212948D01*
X2228908Y-10212948D02*
X2209861Y-10222472D01*
X2209861Y-10222472D02*
X2190813Y-10222472D01*
X2190813Y-10222472D02*
X2171765Y-10212948D01*
X2171765Y-10212948D02*
X2162242Y-10203424D01*
X2162242Y-10203424D02*
X2152718Y-10184377D01*
X2152718Y-10184377D02*
X2143194Y-10146281D01*
X2143194Y-10146281D02*
X2143194Y-10098662D01*
X2143194Y-10098662D02*
X2152718Y-10060567D01*
X2152718Y-10060567D02*
X2162242Y-10041519D01*
X2162242Y-10041519D02*
X2171765Y-10031996D01*
X2171765Y-10031996D02*
X2190813Y-10022472D01*
X2343194Y-10203424D02*
X2352718Y-10212948D01*
X2352718Y-10212948D02*
X2343194Y-10222472D01*
X2343194Y-10222472D02*
X2333670Y-10212948D01*
X2333670Y-10212948D02*
X2343194Y-10203424D01*
X2343194Y-10203424D02*
X2343194Y-10222472D01*
X2476527Y-10022472D02*
X2495575Y-10022472D01*
X2495575Y-10022472D02*
X2514623Y-10031996D01*
X2514623Y-10031996D02*
X2524146Y-10041519D01*
X2524146Y-10041519D02*
X2533670Y-10060567D01*
X2533670Y-10060567D02*
X2543194Y-10098662D01*
X2543194Y-10098662D02*
X2543194Y-10146281D01*
X2543194Y-10146281D02*
X2533670Y-10184377D01*
X2533670Y-10184377D02*
X2524146Y-10203424D01*
X2524146Y-10203424D02*
X2514623Y-10212948D01*
X2514623Y-10212948D02*
X2495575Y-10222472D01*
X2495575Y-10222472D02*
X2476527Y-10222472D01*
X2476527Y-10222472D02*
X2457480Y-10212948D01*
X2457480Y-10212948D02*
X2447956Y-10203424D01*
X2447956Y-10203424D02*
X2438432Y-10184377D01*
X2438432Y-10184377D02*
X2428908Y-10146281D01*
X2428908Y-10146281D02*
X2428908Y-10098662D01*
X2428908Y-10098662D02*
X2438432Y-10060567D01*
X2438432Y-10060567D02*
X2447956Y-10041519D01*
X2447956Y-10041519D02*
X2457480Y-10031996D01*
X2457480Y-10031996D02*
X2476527Y-10022472D01*
X2733670Y-10222472D02*
X2619385Y-10222472D01*
X2676527Y-10222472D02*
X2676527Y-10022472D01*
X2676527Y-10022472D02*
X2657480Y-10051043D01*
X2657480Y-10051043D02*
X2638432Y-10070091D01*
X2638432Y-10070091D02*
X2619385Y-10079615D01*
X2914623Y-10022472D02*
X2819384Y-10022472D01*
X2819384Y-10022472D02*
X2809861Y-10117710D01*
X2809861Y-10117710D02*
X2819384Y-10108186D01*
X2819384Y-10108186D02*
X2838432Y-10098662D01*
X2838432Y-10098662D02*
X2886051Y-10098662D01*
X2886051Y-10098662D02*
X2905099Y-10108186D01*
X2905099Y-10108186D02*
X2914623Y-10117710D01*
X2914623Y-10117710D02*
X2924146Y-10136758D01*
X2924146Y-10136758D02*
X2924146Y-10184377D01*
X2924146Y-10184377D02*
X2914623Y-10203424D01*
X2914623Y-10203424D02*
X2905099Y-10212948D01*
X2905099Y-10212948D02*
X2886051Y-10222472D01*
X2886051Y-10222472D02*
X2838432Y-10222472D01*
X2838432Y-10222472D02*
X2819384Y-10212948D01*
X2819384Y-10212948D02*
X2809861Y-10203424D01*
X2990813Y-10022472D02*
X3124146Y-10022472D01*
X3124146Y-10022472D02*
X3038432Y-10222472D01*
X3190813Y-10022472D02*
X3190813Y-10060567D01*
X3267004Y-10022472D02*
X3267004Y-10060567D01*
X3562242Y-10298662D02*
X3552718Y-10289138D01*
X3552718Y-10289138D02*
X3533670Y-10260567D01*
X3533670Y-10260567D02*
X3524146Y-10241519D01*
X3524146Y-10241519D02*
X3514623Y-10212948D01*
X3514623Y-10212948D02*
X3505099Y-10165329D01*
X3505099Y-10165329D02*
X3505099Y-10127234D01*
X3505099Y-10127234D02*
X3514623Y-10079615D01*
X3514623Y-10079615D02*
X3524146Y-10051043D01*
X3524146Y-10051043D02*
X3533670Y-10031996D01*
X3533670Y-10031996D02*
X3552718Y-10003424D01*
X3552718Y-10003424D02*
X3562242Y-9993900D01*
X3619385Y-10022472D02*
X3743194Y-10022472D01*
X3743194Y-10022472D02*
X3676527Y-10098662D01*
X3676527Y-10098662D02*
X3705099Y-10098662D01*
X3705099Y-10098662D02*
X3724146Y-10108186D01*
X3724146Y-10108186D02*
X3733670Y-10117710D01*
X3733670Y-10117710D02*
X3743194Y-10136758D01*
X3743194Y-10136758D02*
X3743194Y-10184377D01*
X3743194Y-10184377D02*
X3733670Y-10203424D01*
X3733670Y-10203424D02*
X3724146Y-10212948D01*
X3724146Y-10212948D02*
X3705099Y-10222472D01*
X3705099Y-10222472D02*
X3647956Y-10222472D01*
X3647956Y-10222472D02*
X3628908Y-10212948D01*
X3628908Y-10212948D02*
X3619385Y-10203424D01*
X3914623Y-10022472D02*
X3876527Y-10022472D01*
X3876527Y-10022472D02*
X3857480Y-10031996D01*
X3857480Y-10031996D02*
X3847956Y-10041519D01*
X3847956Y-10041519D02*
X3828908Y-10070091D01*
X3828908Y-10070091D02*
X3819385Y-10108186D01*
X3819385Y-10108186D02*
X3819385Y-10184377D01*
X3819385Y-10184377D02*
X3828908Y-10203424D01*
X3828908Y-10203424D02*
X3838432Y-10212948D01*
X3838432Y-10212948D02*
X3857480Y-10222472D01*
X3857480Y-10222472D02*
X3895575Y-10222472D01*
X3895575Y-10222472D02*
X3914623Y-10212948D01*
X3914623Y-10212948D02*
X3924146Y-10203424D01*
X3924146Y-10203424D02*
X3933670Y-10184377D01*
X3933670Y-10184377D02*
X3933670Y-10136758D01*
X3933670Y-10136758D02*
X3924146Y-10117710D01*
X3924146Y-10117710D02*
X3914623Y-10108186D01*
X3914623Y-10108186D02*
X3895575Y-10098662D01*
X3895575Y-10098662D02*
X3857480Y-10098662D01*
X3857480Y-10098662D02*
X3838432Y-10108186D01*
X3838432Y-10108186D02*
X3828908Y-10117710D01*
X3828908Y-10117710D02*
X3819385Y-10136758D01*
X4114623Y-10022472D02*
X4019385Y-10022472D01*
X4019385Y-10022472D02*
X4009861Y-10117710D01*
X4009861Y-10117710D02*
X4019385Y-10108186D01*
X4019385Y-10108186D02*
X4038432Y-10098662D01*
X4038432Y-10098662D02*
X4086051Y-10098662D01*
X4086051Y-10098662D02*
X4105099Y-10108186D01*
X4105099Y-10108186D02*
X4114623Y-10117710D01*
X4114623Y-10117710D02*
X4124146Y-10136758D01*
X4124146Y-10136758D02*
X4124146Y-10184377D01*
X4124146Y-10184377D02*
X4114623Y-10203424D01*
X4114623Y-10203424D02*
X4105099Y-10212948D01*
X4105099Y-10212948D02*
X4086051Y-10222472D01*
X4086051Y-10222472D02*
X4038432Y-10222472D01*
X4038432Y-10222472D02*
X4019385Y-10212948D01*
X4019385Y-10212948D02*
X4009861Y-10203424D01*
X4362242Y-10222472D02*
X4362242Y-10022472D01*
X4447956Y-10222472D02*
X4447956Y-10117710D01*
X4447956Y-10117710D02*
X4438432Y-10098662D01*
X4438432Y-10098662D02*
X4419385Y-10089138D01*
X4419385Y-10089138D02*
X4390813Y-10089138D01*
X4390813Y-10089138D02*
X4371766Y-10098662D01*
X4371766Y-10098662D02*
X4362242Y-10108186D01*
X4571766Y-10222472D02*
X4552718Y-10212948D01*
X4552718Y-10212948D02*
X4543194Y-10203424D01*
X4543194Y-10203424D02*
X4533670Y-10184377D01*
X4533670Y-10184377D02*
X4533670Y-10127234D01*
X4533670Y-10127234D02*
X4543194Y-10108186D01*
X4543194Y-10108186D02*
X4552718Y-10098662D01*
X4552718Y-10098662D02*
X4571766Y-10089138D01*
X4571766Y-10089138D02*
X4600337Y-10089138D01*
X4600337Y-10089138D02*
X4619385Y-10098662D01*
X4619385Y-10098662D02*
X4628909Y-10108186D01*
X4628909Y-10108186D02*
X4638432Y-10127234D01*
X4638432Y-10127234D02*
X4638432Y-10184377D01*
X4638432Y-10184377D02*
X4628909Y-10203424D01*
X4628909Y-10203424D02*
X4619385Y-10212948D01*
X4619385Y-10212948D02*
X4600337Y-10222472D01*
X4600337Y-10222472D02*
X4571766Y-10222472D01*
X4752718Y-10222472D02*
X4733670Y-10212948D01*
X4733670Y-10212948D02*
X4724147Y-10193900D01*
X4724147Y-10193900D02*
X4724147Y-10022472D01*
X4905099Y-10212948D02*
X4886051Y-10222472D01*
X4886051Y-10222472D02*
X4847956Y-10222472D01*
X4847956Y-10222472D02*
X4828909Y-10212948D01*
X4828909Y-10212948D02*
X4819385Y-10193900D01*
X4819385Y-10193900D02*
X4819385Y-10117710D01*
X4819385Y-10117710D02*
X4828909Y-10098662D01*
X4828909Y-10098662D02*
X4847956Y-10089138D01*
X4847956Y-10089138D02*
X4886051Y-10089138D01*
X4886051Y-10089138D02*
X4905099Y-10098662D01*
X4905099Y-10098662D02*
X4914623Y-10117710D01*
X4914623Y-10117710D02*
X4914623Y-10136758D01*
X4914623Y-10136758D02*
X4819385Y-10155805D01*
X4990813Y-10212948D02*
X5009861Y-10222472D01*
X5009861Y-10222472D02*
X5047956Y-10222472D01*
X5047956Y-10222472D02*
X5067004Y-10212948D01*
X5067004Y-10212948D02*
X5076528Y-10193900D01*
X5076528Y-10193900D02*
X5076528Y-10184377D01*
X5076528Y-10184377D02*
X5067004Y-10165329D01*
X5067004Y-10165329D02*
X5047956Y-10155805D01*
X5047956Y-10155805D02*
X5019385Y-10155805D01*
X5019385Y-10155805D02*
X5000337Y-10146281D01*
X5000337Y-10146281D02*
X4990813Y-10127234D01*
X4990813Y-10127234D02*
X4990813Y-10117710D01*
X4990813Y-10117710D02*
X5000337Y-10098662D01*
X5000337Y-10098662D02*
X5019385Y-10089138D01*
X5019385Y-10089138D02*
X5047956Y-10089138D01*
X5047956Y-10089138D02*
X5067004Y-10098662D01*
X5143194Y-10298662D02*
X5152718Y-10289138D01*
X5152718Y-10289138D02*
X5171766Y-10260567D01*
X5171766Y-10260567D02*
X5181290Y-10241519D01*
X5181290Y-10241519D02*
X5190813Y-10212948D01*
X5190813Y-10212948D02*
X5200337Y-10165329D01*
X5200337Y-10165329D02*
X5200337Y-10127234D01*
X5200337Y-10127234D02*
X5190813Y-10079615D01*
X5190813Y-10079615D02*
X5181290Y-10051043D01*
X5181290Y-10051043D02*
X5171766Y-10031996D01*
X5171766Y-10031996D02*
X5152718Y-10003424D01*
X5152718Y-10003424D02*
X5143194Y-9993900D01*
D10*
X-42821Y-10364988D02*
X-42821Y-10424988D01*
X-72821Y-10394988D02*
X-12821Y-10394988D01*
D11*
X286051Y-10286472D02*
X305099Y-10286472D01*
X305099Y-10286472D02*
X324146Y-10295996D01*
X324146Y-10295996D02*
X333670Y-10305519D01*
X333670Y-10305519D02*
X343194Y-10324567D01*
X343194Y-10324567D02*
X352718Y-10362662D01*
X352718Y-10362662D02*
X352718Y-10410281D01*
X352718Y-10410281D02*
X343194Y-10448377D01*
X343194Y-10448377D02*
X333670Y-10467424D01*
X333670Y-10467424D02*
X324146Y-10476948D01*
X324146Y-10476948D02*
X305099Y-10486472D01*
X305099Y-10486472D02*
X286051Y-10486472D01*
X286051Y-10486472D02*
X267003Y-10476948D01*
X267003Y-10476948D02*
X257479Y-10467424D01*
X257479Y-10467424D02*
X247956Y-10448377D01*
X247956Y-10448377D02*
X238432Y-10410281D01*
X238432Y-10410281D02*
X238432Y-10362662D01*
X238432Y-10362662D02*
X247956Y-10324567D01*
X247956Y-10324567D02*
X257479Y-10305519D01*
X257479Y-10305519D02*
X267003Y-10295996D01*
X267003Y-10295996D02*
X286051Y-10286472D01*
X438432Y-10467424D02*
X447956Y-10476948D01*
X447956Y-10476948D02*
X438432Y-10486472D01*
X438432Y-10486472D02*
X428908Y-10476948D01*
X428908Y-10476948D02*
X438432Y-10467424D01*
X438432Y-10467424D02*
X438432Y-10486472D01*
X619384Y-10286472D02*
X581289Y-10286472D01*
X581289Y-10286472D02*
X562241Y-10295996D01*
X562241Y-10295996D02*
X552718Y-10305519D01*
X552718Y-10305519D02*
X533670Y-10334091D01*
X533670Y-10334091D02*
X524146Y-10372186D01*
X524146Y-10372186D02*
X524146Y-10448377D01*
X524146Y-10448377D02*
X533670Y-10467424D01*
X533670Y-10467424D02*
X543194Y-10476948D01*
X543194Y-10476948D02*
X562241Y-10486472D01*
X562241Y-10486472D02*
X600337Y-10486472D01*
X600337Y-10486472D02*
X619384Y-10476948D01*
X619384Y-10476948D02*
X628908Y-10467424D01*
X628908Y-10467424D02*
X638432Y-10448377D01*
X638432Y-10448377D02*
X638432Y-10400758D01*
X638432Y-10400758D02*
X628908Y-10381710D01*
X628908Y-10381710D02*
X619384Y-10372186D01*
X619384Y-10372186D02*
X600337Y-10362662D01*
X600337Y-10362662D02*
X562241Y-10362662D01*
X562241Y-10362662D02*
X543194Y-10372186D01*
X543194Y-10372186D02*
X533670Y-10381710D01*
X533670Y-10381710D02*
X524146Y-10400758D01*
X762241Y-10286472D02*
X781289Y-10286472D01*
X781289Y-10286472D02*
X800337Y-10295996D01*
X800337Y-10295996D02*
X809860Y-10305519D01*
X809860Y-10305519D02*
X819384Y-10324567D01*
X819384Y-10324567D02*
X828908Y-10362662D01*
X828908Y-10362662D02*
X828908Y-10410281D01*
X828908Y-10410281D02*
X819384Y-10448377D01*
X819384Y-10448377D02*
X809860Y-10467424D01*
X809860Y-10467424D02*
X800337Y-10476948D01*
X800337Y-10476948D02*
X781289Y-10486472D01*
X781289Y-10486472D02*
X762241Y-10486472D01*
X762241Y-10486472D02*
X743194Y-10476948D01*
X743194Y-10476948D02*
X733670Y-10467424D01*
X733670Y-10467424D02*
X724146Y-10448377D01*
X724146Y-10448377D02*
X714622Y-10410281D01*
X714622Y-10410281D02*
X714622Y-10362662D01*
X714622Y-10362662D02*
X724146Y-10324567D01*
X724146Y-10324567D02*
X733670Y-10305519D01*
X733670Y-10305519D02*
X743194Y-10295996D01*
X743194Y-10295996D02*
X762241Y-10286472D01*
X952718Y-10286472D02*
X971765Y-10286472D01*
X971765Y-10286472D02*
X990813Y-10295996D01*
X990813Y-10295996D02*
X1000337Y-10305519D01*
X1000337Y-10305519D02*
X1009860Y-10324567D01*
X1009860Y-10324567D02*
X1019384Y-10362662D01*
X1019384Y-10362662D02*
X1019384Y-10410281D01*
X1019384Y-10410281D02*
X1009860Y-10448377D01*
X1009860Y-10448377D02*
X1000337Y-10467424D01*
X1000337Y-10467424D02*
X990813Y-10476948D01*
X990813Y-10476948D02*
X971765Y-10486472D01*
X971765Y-10486472D02*
X952718Y-10486472D01*
X952718Y-10486472D02*
X933670Y-10476948D01*
X933670Y-10476948D02*
X924146Y-10467424D01*
X924146Y-10467424D02*
X914622Y-10448377D01*
X914622Y-10448377D02*
X905099Y-10410281D01*
X905099Y-10410281D02*
X905099Y-10362662D01*
X905099Y-10362662D02*
X914622Y-10324567D01*
X914622Y-10324567D02*
X924146Y-10305519D01*
X924146Y-10305519D02*
X933670Y-10295996D01*
X933670Y-10295996D02*
X952718Y-10286472D01*
X1105099Y-10486472D02*
X1105099Y-10353138D01*
X1105099Y-10372186D02*
X1114622Y-10362662D01*
X1114622Y-10362662D02*
X1133670Y-10353138D01*
X1133670Y-10353138D02*
X1162242Y-10353138D01*
X1162242Y-10353138D02*
X1181289Y-10362662D01*
X1181289Y-10362662D02*
X1190813Y-10381710D01*
X1190813Y-10381710D02*
X1190813Y-10486472D01*
X1190813Y-10381710D02*
X1200337Y-10362662D01*
X1200337Y-10362662D02*
X1219384Y-10353138D01*
X1219384Y-10353138D02*
X1247956Y-10353138D01*
X1247956Y-10353138D02*
X1267003Y-10362662D01*
X1267003Y-10362662D02*
X1276527Y-10381710D01*
X1276527Y-10381710D02*
X1276527Y-10486472D01*
X1371765Y-10486472D02*
X1371765Y-10353138D01*
X1371765Y-10372186D02*
X1381289Y-10362662D01*
X1381289Y-10362662D02*
X1400337Y-10353138D01*
X1400337Y-10353138D02*
X1428908Y-10353138D01*
X1428908Y-10353138D02*
X1447956Y-10362662D01*
X1447956Y-10362662D02*
X1457480Y-10381710D01*
X1457480Y-10381710D02*
X1457480Y-10486472D01*
X1457480Y-10381710D02*
X1467003Y-10362662D01*
X1467003Y-10362662D02*
X1486051Y-10353138D01*
X1486051Y-10353138D02*
X1514622Y-10353138D01*
X1514622Y-10353138D02*
X1533670Y-10362662D01*
X1533670Y-10362662D02*
X1543194Y-10381710D01*
X1543194Y-10381710D02*
X1543194Y-10486472D01*
X1933670Y-10276948D02*
X1762242Y-10534091D01*
X2190813Y-10286472D02*
X2209861Y-10286472D01*
X2209861Y-10286472D02*
X2228908Y-10295996D01*
X2228908Y-10295996D02*
X2238432Y-10305519D01*
X2238432Y-10305519D02*
X2247956Y-10324567D01*
X2247956Y-10324567D02*
X2257480Y-10362662D01*
X2257480Y-10362662D02*
X2257480Y-10410281D01*
X2257480Y-10410281D02*
X2247956Y-10448377D01*
X2247956Y-10448377D02*
X2238432Y-10467424D01*
X2238432Y-10467424D02*
X2228908Y-10476948D01*
X2228908Y-10476948D02*
X2209861Y-10486472D01*
X2209861Y-10486472D02*
X2190813Y-10486472D01*
X2190813Y-10486472D02*
X2171765Y-10476948D01*
X2171765Y-10476948D02*
X2162242Y-10467424D01*
X2162242Y-10467424D02*
X2152718Y-10448377D01*
X2152718Y-10448377D02*
X2143194Y-10410281D01*
X2143194Y-10410281D02*
X2143194Y-10362662D01*
X2143194Y-10362662D02*
X2152718Y-10324567D01*
X2152718Y-10324567D02*
X2162242Y-10305519D01*
X2162242Y-10305519D02*
X2171765Y-10295996D01*
X2171765Y-10295996D02*
X2190813Y-10286472D01*
X2343194Y-10467424D02*
X2352718Y-10476948D01*
X2352718Y-10476948D02*
X2343194Y-10486472D01*
X2343194Y-10486472D02*
X2333670Y-10476948D01*
X2333670Y-10476948D02*
X2343194Y-10467424D01*
X2343194Y-10467424D02*
X2343194Y-10486472D01*
X2476527Y-10286472D02*
X2495575Y-10286472D01*
X2495575Y-10286472D02*
X2514623Y-10295996D01*
X2514623Y-10295996D02*
X2524146Y-10305519D01*
X2524146Y-10305519D02*
X2533670Y-10324567D01*
X2533670Y-10324567D02*
X2543194Y-10362662D01*
X2543194Y-10362662D02*
X2543194Y-10410281D01*
X2543194Y-10410281D02*
X2533670Y-10448377D01*
X2533670Y-10448377D02*
X2524146Y-10467424D01*
X2524146Y-10467424D02*
X2514623Y-10476948D01*
X2514623Y-10476948D02*
X2495575Y-10486472D01*
X2495575Y-10486472D02*
X2476527Y-10486472D01*
X2476527Y-10486472D02*
X2457480Y-10476948D01*
X2457480Y-10476948D02*
X2447956Y-10467424D01*
X2447956Y-10467424D02*
X2438432Y-10448377D01*
X2438432Y-10448377D02*
X2428908Y-10410281D01*
X2428908Y-10410281D02*
X2428908Y-10362662D01*
X2428908Y-10362662D02*
X2438432Y-10324567D01*
X2438432Y-10324567D02*
X2447956Y-10305519D01*
X2447956Y-10305519D02*
X2457480Y-10295996D01*
X2457480Y-10295996D02*
X2476527Y-10286472D01*
X2619385Y-10305519D02*
X2628908Y-10295996D01*
X2628908Y-10295996D02*
X2647956Y-10286472D01*
X2647956Y-10286472D02*
X2695575Y-10286472D01*
X2695575Y-10286472D02*
X2714623Y-10295996D01*
X2714623Y-10295996D02*
X2724146Y-10305519D01*
X2724146Y-10305519D02*
X2733670Y-10324567D01*
X2733670Y-10324567D02*
X2733670Y-10343615D01*
X2733670Y-10343615D02*
X2724146Y-10372186D01*
X2724146Y-10372186D02*
X2609861Y-10486472D01*
X2609861Y-10486472D02*
X2733670Y-10486472D01*
X2800337Y-10286472D02*
X2924146Y-10286472D01*
X2924146Y-10286472D02*
X2857480Y-10362662D01*
X2857480Y-10362662D02*
X2886051Y-10362662D01*
X2886051Y-10362662D02*
X2905099Y-10372186D01*
X2905099Y-10372186D02*
X2914623Y-10381710D01*
X2914623Y-10381710D02*
X2924146Y-10400758D01*
X2924146Y-10400758D02*
X2924146Y-10448377D01*
X2924146Y-10448377D02*
X2914623Y-10467424D01*
X2914623Y-10467424D02*
X2905099Y-10476948D01*
X2905099Y-10476948D02*
X2886051Y-10486472D01*
X2886051Y-10486472D02*
X2828908Y-10486472D01*
X2828908Y-10486472D02*
X2809861Y-10476948D01*
X2809861Y-10476948D02*
X2800337Y-10467424D01*
X3095575Y-10286472D02*
X3057480Y-10286472D01*
X3057480Y-10286472D02*
X3038432Y-10295996D01*
X3038432Y-10295996D02*
X3028908Y-10305519D01*
X3028908Y-10305519D02*
X3009861Y-10334091D01*
X3009861Y-10334091D02*
X3000337Y-10372186D01*
X3000337Y-10372186D02*
X3000337Y-10448377D01*
X3000337Y-10448377D02*
X3009861Y-10467424D01*
X3009861Y-10467424D02*
X3019384Y-10476948D01*
X3019384Y-10476948D02*
X3038432Y-10486472D01*
X3038432Y-10486472D02*
X3076527Y-10486472D01*
X3076527Y-10486472D02*
X3095575Y-10476948D01*
X3095575Y-10476948D02*
X3105099Y-10467424D01*
X3105099Y-10467424D02*
X3114623Y-10448377D01*
X3114623Y-10448377D02*
X3114623Y-10400758D01*
X3114623Y-10400758D02*
X3105099Y-10381710D01*
X3105099Y-10381710D02*
X3095575Y-10372186D01*
X3095575Y-10372186D02*
X3076527Y-10362662D01*
X3076527Y-10362662D02*
X3038432Y-10362662D01*
X3038432Y-10362662D02*
X3019384Y-10372186D01*
X3019384Y-10372186D02*
X3009861Y-10381710D01*
X3009861Y-10381710D02*
X3000337Y-10400758D01*
X3190813Y-10286472D02*
X3190813Y-10324567D01*
X3267004Y-10286472D02*
X3267004Y-10324567D01*
X3562242Y-10562662D02*
X3552718Y-10553138D01*
X3552718Y-10553138D02*
X3533670Y-10524567D01*
X3533670Y-10524567D02*
X3524146Y-10505519D01*
X3524146Y-10505519D02*
X3514623Y-10476948D01*
X3514623Y-10476948D02*
X3505099Y-10429329D01*
X3505099Y-10429329D02*
X3505099Y-10391234D01*
X3505099Y-10391234D02*
X3514623Y-10343615D01*
X3514623Y-10343615D02*
X3524146Y-10315043D01*
X3524146Y-10315043D02*
X3533670Y-10295996D01*
X3533670Y-10295996D02*
X3552718Y-10267424D01*
X3552718Y-10267424D02*
X3562242Y-10257900D01*
X3676527Y-10286472D02*
X3695575Y-10286472D01*
X3695575Y-10286472D02*
X3714623Y-10295996D01*
X3714623Y-10295996D02*
X3724146Y-10305519D01*
X3724146Y-10305519D02*
X3733670Y-10324567D01*
X3733670Y-10324567D02*
X3743194Y-10362662D01*
X3743194Y-10362662D02*
X3743194Y-10410281D01*
X3743194Y-10410281D02*
X3733670Y-10448377D01*
X3733670Y-10448377D02*
X3724146Y-10467424D01*
X3724146Y-10467424D02*
X3714623Y-10476948D01*
X3714623Y-10476948D02*
X3695575Y-10486472D01*
X3695575Y-10486472D02*
X3676527Y-10486472D01*
X3676527Y-10486472D02*
X3657480Y-10476948D01*
X3657480Y-10476948D02*
X3647956Y-10467424D01*
X3647956Y-10467424D02*
X3638432Y-10448377D01*
X3638432Y-10448377D02*
X3628908Y-10410281D01*
X3628908Y-10410281D02*
X3628908Y-10362662D01*
X3628908Y-10362662D02*
X3638432Y-10324567D01*
X3638432Y-10324567D02*
X3647956Y-10305519D01*
X3647956Y-10305519D02*
X3657480Y-10295996D01*
X3657480Y-10295996D02*
X3676527Y-10286472D01*
X3981289Y-10486472D02*
X3981289Y-10286472D01*
X4067004Y-10486472D02*
X4067004Y-10381710D01*
X4067004Y-10381710D02*
X4057480Y-10362662D01*
X4057480Y-10362662D02*
X4038432Y-10353138D01*
X4038432Y-10353138D02*
X4009861Y-10353138D01*
X4009861Y-10353138D02*
X3990813Y-10362662D01*
X3990813Y-10362662D02*
X3981289Y-10372186D01*
X4190813Y-10486472D02*
X4171766Y-10476948D01*
X4171766Y-10476948D02*
X4162242Y-10467424D01*
X4162242Y-10467424D02*
X4152718Y-10448377D01*
X4152718Y-10448377D02*
X4152718Y-10391234D01*
X4152718Y-10391234D02*
X4162242Y-10372186D01*
X4162242Y-10372186D02*
X4171766Y-10362662D01*
X4171766Y-10362662D02*
X4190813Y-10353138D01*
X4190813Y-10353138D02*
X4219385Y-10353138D01*
X4219385Y-10353138D02*
X4238432Y-10362662D01*
X4238432Y-10362662D02*
X4247956Y-10372186D01*
X4247956Y-10372186D02*
X4257480Y-10391234D01*
X4257480Y-10391234D02*
X4257480Y-10448377D01*
X4257480Y-10448377D02*
X4247956Y-10467424D01*
X4247956Y-10467424D02*
X4238432Y-10476948D01*
X4238432Y-10476948D02*
X4219385Y-10486472D01*
X4219385Y-10486472D02*
X4190813Y-10486472D01*
X4371766Y-10486472D02*
X4352718Y-10476948D01*
X4352718Y-10476948D02*
X4343194Y-10457900D01*
X4343194Y-10457900D02*
X4343194Y-10286472D01*
X4524147Y-10476948D02*
X4505099Y-10486472D01*
X4505099Y-10486472D02*
X4467004Y-10486472D01*
X4467004Y-10486472D02*
X4447956Y-10476948D01*
X4447956Y-10476948D02*
X4438432Y-10457900D01*
X4438432Y-10457900D02*
X4438432Y-10381710D01*
X4438432Y-10381710D02*
X4447956Y-10362662D01*
X4447956Y-10362662D02*
X4467004Y-10353138D01*
X4467004Y-10353138D02*
X4505099Y-10353138D01*
X4505099Y-10353138D02*
X4524147Y-10362662D01*
X4524147Y-10362662D02*
X4533670Y-10381710D01*
X4533670Y-10381710D02*
X4533670Y-10400758D01*
X4533670Y-10400758D02*
X4438432Y-10419805D01*
X4609861Y-10476948D02*
X4628909Y-10486472D01*
X4628909Y-10486472D02*
X4667004Y-10486472D01*
X4667004Y-10486472D02*
X4686051Y-10476948D01*
X4686051Y-10476948D02*
X4695575Y-10457900D01*
X4695575Y-10457900D02*
X4695575Y-10448377D01*
X4695575Y-10448377D02*
X4686051Y-10429329D01*
X4686051Y-10429329D02*
X4667004Y-10419805D01*
X4667004Y-10419805D02*
X4638432Y-10419805D01*
X4638432Y-10419805D02*
X4619385Y-10410281D01*
X4619385Y-10410281D02*
X4609861Y-10391234D01*
X4609861Y-10391234D02*
X4609861Y-10381710D01*
X4609861Y-10381710D02*
X4619385Y-10362662D01*
X4619385Y-10362662D02*
X4638432Y-10353138D01*
X4638432Y-10353138D02*
X4667004Y-10353138D01*
X4667004Y-10353138D02*
X4686051Y-10362662D01*
X4933671Y-10410281D02*
X5086052Y-10410281D01*
X5009861Y-10486472D02*
X5009861Y-10334091D01*
X5419385Y-10353138D02*
X5419385Y-10486472D01*
X5371766Y-10276948D02*
X5324147Y-10419805D01*
X5324147Y-10419805D02*
X5447956Y-10419805D01*
X5667004Y-10476948D02*
X5686051Y-10486472D01*
X5686051Y-10486472D02*
X5724147Y-10486472D01*
X5724147Y-10486472D02*
X5743194Y-10476948D01*
X5743194Y-10476948D02*
X5752718Y-10457900D01*
X5752718Y-10457900D02*
X5752718Y-10448377D01*
X5752718Y-10448377D02*
X5743194Y-10429329D01*
X5743194Y-10429329D02*
X5724147Y-10419805D01*
X5724147Y-10419805D02*
X5695575Y-10419805D01*
X5695575Y-10419805D02*
X5676528Y-10410281D01*
X5676528Y-10410281D02*
X5667004Y-10391234D01*
X5667004Y-10391234D02*
X5667004Y-10381710D01*
X5667004Y-10381710D02*
X5676528Y-10362662D01*
X5676528Y-10362662D02*
X5695575Y-10353138D01*
X5695575Y-10353138D02*
X5724147Y-10353138D01*
X5724147Y-10353138D02*
X5743194Y-10362662D01*
X5867004Y-10486472D02*
X5847956Y-10476948D01*
X5847956Y-10476948D02*
X5838432Y-10457900D01*
X5838432Y-10457900D02*
X5838432Y-10286472D01*
X5971766Y-10486472D02*
X5952718Y-10476948D01*
X5952718Y-10476948D02*
X5943194Y-10467424D01*
X5943194Y-10467424D02*
X5933671Y-10448377D01*
X5933671Y-10448377D02*
X5933671Y-10391234D01*
X5933671Y-10391234D02*
X5943194Y-10372186D01*
X5943194Y-10372186D02*
X5952718Y-10362662D01*
X5952718Y-10362662D02*
X5971766Y-10353138D01*
X5971766Y-10353138D02*
X6000337Y-10353138D01*
X6000337Y-10353138D02*
X6019385Y-10362662D01*
X6019385Y-10362662D02*
X6028909Y-10372186D01*
X6028909Y-10372186D02*
X6038432Y-10391234D01*
X6038432Y-10391234D02*
X6038432Y-10448377D01*
X6038432Y-10448377D02*
X6028909Y-10467424D01*
X6028909Y-10467424D02*
X6019385Y-10476948D01*
X6019385Y-10476948D02*
X6000337Y-10486472D01*
X6000337Y-10486472D02*
X5971766Y-10486472D01*
X6095575Y-10353138D02*
X6171766Y-10353138D01*
X6124147Y-10286472D02*
X6124147Y-10457900D01*
X6124147Y-10457900D02*
X6133671Y-10476948D01*
X6133671Y-10476948D02*
X6152718Y-10486472D01*
X6152718Y-10486472D02*
X6171766Y-10486472D01*
X6228909Y-10476948D02*
X6247956Y-10486472D01*
X6247956Y-10486472D02*
X6286051Y-10486472D01*
X6286051Y-10486472D02*
X6305099Y-10476948D01*
X6305099Y-10476948D02*
X6314623Y-10457900D01*
X6314623Y-10457900D02*
X6314623Y-10448377D01*
X6314623Y-10448377D02*
X6305099Y-10429329D01*
X6305099Y-10429329D02*
X6286051Y-10419805D01*
X6286051Y-10419805D02*
X6257480Y-10419805D01*
X6257480Y-10419805D02*
X6238432Y-10410281D01*
X6238432Y-10410281D02*
X6228909Y-10391234D01*
X6228909Y-10391234D02*
X6228909Y-10381710D01*
X6228909Y-10381710D02*
X6238432Y-10362662D01*
X6238432Y-10362662D02*
X6257480Y-10353138D01*
X6257480Y-10353138D02*
X6286051Y-10353138D01*
X6286051Y-10353138D02*
X6305099Y-10362662D01*
X6381290Y-10562662D02*
X6390813Y-10553138D01*
X6390813Y-10553138D02*
X6409861Y-10524567D01*
X6409861Y-10524567D02*
X6419385Y-10505519D01*
X6419385Y-10505519D02*
X6428909Y-10476948D01*
X6428909Y-10476948D02*
X6438432Y-10429329D01*
X6438432Y-10429329D02*
X6438432Y-10391234D01*
X6438432Y-10391234D02*
X6428909Y-10343615D01*
X6428909Y-10343615D02*
X6419385Y-10315043D01*
X6419385Y-10315043D02*
X6409861Y-10295996D01*
X6409861Y-10295996D02*
X6390813Y-10267424D01*
X6390813Y-10267424D02*
X6381290Y-10257900D01*
D10*
X-27465Y-10694344D02*
X-27465Y-10623632D01*
X-98177Y-10623632D01*
X-98177Y-10694344D01*
X-27465Y-10694344D01*
D11*
X352718Y-10750472D02*
X238432Y-10750472D01*
X295575Y-10750472D02*
X295575Y-10550472D01*
X295575Y-10550472D02*
X276527Y-10579043D01*
X276527Y-10579043D02*
X257479Y-10598091D01*
X257479Y-10598091D02*
X238432Y-10607615D01*
X438432Y-10731424D02*
X447956Y-10740948D01*
X447956Y-10740948D02*
X438432Y-10750472D01*
X438432Y-10750472D02*
X428908Y-10740948D01*
X428908Y-10740948D02*
X438432Y-10731424D01*
X438432Y-10731424D02*
X438432Y-10750472D01*
X571765Y-10550472D02*
X590813Y-10550472D01*
X590813Y-10550472D02*
X609861Y-10559996D01*
X609861Y-10559996D02*
X619384Y-10569519D01*
X619384Y-10569519D02*
X628908Y-10588567D01*
X628908Y-10588567D02*
X638432Y-10626662D01*
X638432Y-10626662D02*
X638432Y-10674281D01*
X638432Y-10674281D02*
X628908Y-10712377D01*
X628908Y-10712377D02*
X619384Y-10731424D01*
X619384Y-10731424D02*
X609861Y-10740948D01*
X609861Y-10740948D02*
X590813Y-10750472D01*
X590813Y-10750472D02*
X571765Y-10750472D01*
X571765Y-10750472D02*
X552718Y-10740948D01*
X552718Y-10740948D02*
X543194Y-10731424D01*
X543194Y-10731424D02*
X533670Y-10712377D01*
X533670Y-10712377D02*
X524146Y-10674281D01*
X524146Y-10674281D02*
X524146Y-10626662D01*
X524146Y-10626662D02*
X533670Y-10588567D01*
X533670Y-10588567D02*
X543194Y-10569519D01*
X543194Y-10569519D02*
X552718Y-10559996D01*
X552718Y-10559996D02*
X571765Y-10550472D01*
X762241Y-10550472D02*
X781289Y-10550472D01*
X781289Y-10550472D02*
X800337Y-10559996D01*
X800337Y-10559996D02*
X809860Y-10569519D01*
X809860Y-10569519D02*
X819384Y-10588567D01*
X819384Y-10588567D02*
X828908Y-10626662D01*
X828908Y-10626662D02*
X828908Y-10674281D01*
X828908Y-10674281D02*
X819384Y-10712377D01*
X819384Y-10712377D02*
X809860Y-10731424D01*
X809860Y-10731424D02*
X800337Y-10740948D01*
X800337Y-10740948D02*
X781289Y-10750472D01*
X781289Y-10750472D02*
X762241Y-10750472D01*
X762241Y-10750472D02*
X743194Y-10740948D01*
X743194Y-10740948D02*
X733670Y-10731424D01*
X733670Y-10731424D02*
X724146Y-10712377D01*
X724146Y-10712377D02*
X714622Y-10674281D01*
X714622Y-10674281D02*
X714622Y-10626662D01*
X714622Y-10626662D02*
X724146Y-10588567D01*
X724146Y-10588567D02*
X733670Y-10569519D01*
X733670Y-10569519D02*
X743194Y-10559996D01*
X743194Y-10559996D02*
X762241Y-10550472D01*
X952718Y-10550472D02*
X971765Y-10550472D01*
X971765Y-10550472D02*
X990813Y-10559996D01*
X990813Y-10559996D02*
X1000337Y-10569519D01*
X1000337Y-10569519D02*
X1009860Y-10588567D01*
X1009860Y-10588567D02*
X1019384Y-10626662D01*
X1019384Y-10626662D02*
X1019384Y-10674281D01*
X1019384Y-10674281D02*
X1009860Y-10712377D01*
X1009860Y-10712377D02*
X1000337Y-10731424D01*
X1000337Y-10731424D02*
X990813Y-10740948D01*
X990813Y-10740948D02*
X971765Y-10750472D01*
X971765Y-10750472D02*
X952718Y-10750472D01*
X952718Y-10750472D02*
X933670Y-10740948D01*
X933670Y-10740948D02*
X924146Y-10731424D01*
X924146Y-10731424D02*
X914622Y-10712377D01*
X914622Y-10712377D02*
X905099Y-10674281D01*
X905099Y-10674281D02*
X905099Y-10626662D01*
X905099Y-10626662D02*
X914622Y-10588567D01*
X914622Y-10588567D02*
X924146Y-10569519D01*
X924146Y-10569519D02*
X933670Y-10559996D01*
X933670Y-10559996D02*
X952718Y-10550472D01*
X1105099Y-10750472D02*
X1105099Y-10617138D01*
X1105099Y-10636186D02*
X1114622Y-10626662D01*
X1114622Y-10626662D02*
X1133670Y-10617138D01*
X1133670Y-10617138D02*
X1162242Y-10617138D01*
X1162242Y-10617138D02*
X1181289Y-10626662D01*
X1181289Y-10626662D02*
X1190813Y-10645710D01*
X1190813Y-10645710D02*
X1190813Y-10750472D01*
X1190813Y-10645710D02*
X1200337Y-10626662D01*
X1200337Y-10626662D02*
X1219384Y-10617138D01*
X1219384Y-10617138D02*
X1247956Y-10617138D01*
X1247956Y-10617138D02*
X1267003Y-10626662D01*
X1267003Y-10626662D02*
X1276527Y-10645710D01*
X1276527Y-10645710D02*
X1276527Y-10750472D01*
X1371765Y-10750472D02*
X1371765Y-10617138D01*
X1371765Y-10636186D02*
X1381289Y-10626662D01*
X1381289Y-10626662D02*
X1400337Y-10617138D01*
X1400337Y-10617138D02*
X1428908Y-10617138D01*
X1428908Y-10617138D02*
X1447956Y-10626662D01*
X1447956Y-10626662D02*
X1457480Y-10645710D01*
X1457480Y-10645710D02*
X1457480Y-10750472D01*
X1457480Y-10645710D02*
X1467003Y-10626662D01*
X1467003Y-10626662D02*
X1486051Y-10617138D01*
X1486051Y-10617138D02*
X1514622Y-10617138D01*
X1514622Y-10617138D02*
X1533670Y-10626662D01*
X1533670Y-10626662D02*
X1543194Y-10645710D01*
X1543194Y-10645710D02*
X1543194Y-10750472D01*
X1933670Y-10540948D02*
X1762242Y-10798091D01*
X2190813Y-10550472D02*
X2209861Y-10550472D01*
X2209861Y-10550472D02*
X2228908Y-10559996D01*
X2228908Y-10559996D02*
X2238432Y-10569519D01*
X2238432Y-10569519D02*
X2247956Y-10588567D01*
X2247956Y-10588567D02*
X2257480Y-10626662D01*
X2257480Y-10626662D02*
X2257480Y-10674281D01*
X2257480Y-10674281D02*
X2247956Y-10712377D01*
X2247956Y-10712377D02*
X2238432Y-10731424D01*
X2238432Y-10731424D02*
X2228908Y-10740948D01*
X2228908Y-10740948D02*
X2209861Y-10750472D01*
X2209861Y-10750472D02*
X2190813Y-10750472D01*
X2190813Y-10750472D02*
X2171765Y-10740948D01*
X2171765Y-10740948D02*
X2162242Y-10731424D01*
X2162242Y-10731424D02*
X2152718Y-10712377D01*
X2152718Y-10712377D02*
X2143194Y-10674281D01*
X2143194Y-10674281D02*
X2143194Y-10626662D01*
X2143194Y-10626662D02*
X2152718Y-10588567D01*
X2152718Y-10588567D02*
X2162242Y-10569519D01*
X2162242Y-10569519D02*
X2171765Y-10559996D01*
X2171765Y-10559996D02*
X2190813Y-10550472D01*
X2343194Y-10731424D02*
X2352718Y-10740948D01*
X2352718Y-10740948D02*
X2343194Y-10750472D01*
X2343194Y-10750472D02*
X2333670Y-10740948D01*
X2333670Y-10740948D02*
X2343194Y-10731424D01*
X2343194Y-10731424D02*
X2343194Y-10750472D01*
X2476527Y-10550472D02*
X2495575Y-10550472D01*
X2495575Y-10550472D02*
X2514623Y-10559996D01*
X2514623Y-10559996D02*
X2524146Y-10569519D01*
X2524146Y-10569519D02*
X2533670Y-10588567D01*
X2533670Y-10588567D02*
X2543194Y-10626662D01*
X2543194Y-10626662D02*
X2543194Y-10674281D01*
X2543194Y-10674281D02*
X2533670Y-10712377D01*
X2533670Y-10712377D02*
X2524146Y-10731424D01*
X2524146Y-10731424D02*
X2514623Y-10740948D01*
X2514623Y-10740948D02*
X2495575Y-10750472D01*
X2495575Y-10750472D02*
X2476527Y-10750472D01*
X2476527Y-10750472D02*
X2457480Y-10740948D01*
X2457480Y-10740948D02*
X2447956Y-10731424D01*
X2447956Y-10731424D02*
X2438432Y-10712377D01*
X2438432Y-10712377D02*
X2428908Y-10674281D01*
X2428908Y-10674281D02*
X2428908Y-10626662D01*
X2428908Y-10626662D02*
X2438432Y-10588567D01*
X2438432Y-10588567D02*
X2447956Y-10569519D01*
X2447956Y-10569519D02*
X2457480Y-10559996D01*
X2457480Y-10559996D02*
X2476527Y-10550472D01*
X2609861Y-10550472D02*
X2733670Y-10550472D01*
X2733670Y-10550472D02*
X2667004Y-10626662D01*
X2667004Y-10626662D02*
X2695575Y-10626662D01*
X2695575Y-10626662D02*
X2714623Y-10636186D01*
X2714623Y-10636186D02*
X2724146Y-10645710D01*
X2724146Y-10645710D02*
X2733670Y-10664758D01*
X2733670Y-10664758D02*
X2733670Y-10712377D01*
X2733670Y-10712377D02*
X2724146Y-10731424D01*
X2724146Y-10731424D02*
X2714623Y-10740948D01*
X2714623Y-10740948D02*
X2695575Y-10750472D01*
X2695575Y-10750472D02*
X2638432Y-10750472D01*
X2638432Y-10750472D02*
X2619385Y-10740948D01*
X2619385Y-10740948D02*
X2609861Y-10731424D01*
X2828908Y-10750472D02*
X2867003Y-10750472D01*
X2867003Y-10750472D02*
X2886051Y-10740948D01*
X2886051Y-10740948D02*
X2895575Y-10731424D01*
X2895575Y-10731424D02*
X2914623Y-10702853D01*
X2914623Y-10702853D02*
X2924146Y-10664758D01*
X2924146Y-10664758D02*
X2924146Y-10588567D01*
X2924146Y-10588567D02*
X2914623Y-10569519D01*
X2914623Y-10569519D02*
X2905099Y-10559996D01*
X2905099Y-10559996D02*
X2886051Y-10550472D01*
X2886051Y-10550472D02*
X2847956Y-10550472D01*
X2847956Y-10550472D02*
X2828908Y-10559996D01*
X2828908Y-10559996D02*
X2819384Y-10569519D01*
X2819384Y-10569519D02*
X2809861Y-10588567D01*
X2809861Y-10588567D02*
X2809861Y-10636186D01*
X2809861Y-10636186D02*
X2819384Y-10655234D01*
X2819384Y-10655234D02*
X2828908Y-10664758D01*
X2828908Y-10664758D02*
X2847956Y-10674281D01*
X2847956Y-10674281D02*
X2886051Y-10674281D01*
X2886051Y-10674281D02*
X2905099Y-10664758D01*
X2905099Y-10664758D02*
X2914623Y-10655234D01*
X2914623Y-10655234D02*
X2924146Y-10636186D01*
X3095575Y-10617138D02*
X3095575Y-10750472D01*
X3047956Y-10540948D02*
X3000337Y-10683805D01*
X3000337Y-10683805D02*
X3124146Y-10683805D01*
X3190813Y-10550472D02*
X3190813Y-10588567D01*
X3267004Y-10550472D02*
X3267004Y-10588567D01*
X3562242Y-10826662D02*
X3552718Y-10817138D01*
X3552718Y-10817138D02*
X3533670Y-10788567D01*
X3533670Y-10788567D02*
X3524146Y-10769519D01*
X3524146Y-10769519D02*
X3514623Y-10740948D01*
X3514623Y-10740948D02*
X3505099Y-10693329D01*
X3505099Y-10693329D02*
X3505099Y-10655234D01*
X3505099Y-10655234D02*
X3514623Y-10607615D01*
X3514623Y-10607615D02*
X3524146Y-10579043D01*
X3524146Y-10579043D02*
X3533670Y-10559996D01*
X3533670Y-10559996D02*
X3552718Y-10531424D01*
X3552718Y-10531424D02*
X3562242Y-10521900D01*
X3628908Y-10569519D02*
X3638432Y-10559996D01*
X3638432Y-10559996D02*
X3657480Y-10550472D01*
X3657480Y-10550472D02*
X3705099Y-10550472D01*
X3705099Y-10550472D02*
X3724146Y-10559996D01*
X3724146Y-10559996D02*
X3733670Y-10569519D01*
X3733670Y-10569519D02*
X3743194Y-10588567D01*
X3743194Y-10588567D02*
X3743194Y-10607615D01*
X3743194Y-10607615D02*
X3733670Y-10636186D01*
X3733670Y-10636186D02*
X3619385Y-10750472D01*
X3619385Y-10750472D02*
X3743194Y-10750472D01*
X3933670Y-10750472D02*
X3819385Y-10750472D01*
X3876527Y-10750472D02*
X3876527Y-10550472D01*
X3876527Y-10550472D02*
X3857480Y-10579043D01*
X3857480Y-10579043D02*
X3838432Y-10598091D01*
X3838432Y-10598091D02*
X3819385Y-10607615D01*
X4171766Y-10750472D02*
X4171766Y-10550472D01*
X4257480Y-10750472D02*
X4257480Y-10645710D01*
X4257480Y-10645710D02*
X4247956Y-10626662D01*
X4247956Y-10626662D02*
X4228909Y-10617138D01*
X4228909Y-10617138D02*
X4200337Y-10617138D01*
X4200337Y-10617138D02*
X4181289Y-10626662D01*
X4181289Y-10626662D02*
X4171766Y-10636186D01*
X4381289Y-10750472D02*
X4362242Y-10740948D01*
X4362242Y-10740948D02*
X4352718Y-10731424D01*
X4352718Y-10731424D02*
X4343194Y-10712377D01*
X4343194Y-10712377D02*
X4343194Y-10655234D01*
X4343194Y-10655234D02*
X4352718Y-10636186D01*
X4352718Y-10636186D02*
X4362242Y-10626662D01*
X4362242Y-10626662D02*
X4381289Y-10617138D01*
X4381289Y-10617138D02*
X4409861Y-10617138D01*
X4409861Y-10617138D02*
X4428909Y-10626662D01*
X4428909Y-10626662D02*
X4438432Y-10636186D01*
X4438432Y-10636186D02*
X4447956Y-10655234D01*
X4447956Y-10655234D02*
X4447956Y-10712377D01*
X4447956Y-10712377D02*
X4438432Y-10731424D01*
X4438432Y-10731424D02*
X4428909Y-10740948D01*
X4428909Y-10740948D02*
X4409861Y-10750472D01*
X4409861Y-10750472D02*
X4381289Y-10750472D01*
X4562242Y-10750472D02*
X4543194Y-10740948D01*
X4543194Y-10740948D02*
X4533670Y-10721900D01*
X4533670Y-10721900D02*
X4533670Y-10550472D01*
X4714623Y-10740948D02*
X4695575Y-10750472D01*
X4695575Y-10750472D02*
X4657480Y-10750472D01*
X4657480Y-10750472D02*
X4638432Y-10740948D01*
X4638432Y-10740948D02*
X4628909Y-10721900D01*
X4628909Y-10721900D02*
X4628909Y-10645710D01*
X4628909Y-10645710D02*
X4638432Y-10626662D01*
X4638432Y-10626662D02*
X4657480Y-10617138D01*
X4657480Y-10617138D02*
X4695575Y-10617138D01*
X4695575Y-10617138D02*
X4714623Y-10626662D01*
X4714623Y-10626662D02*
X4724147Y-10645710D01*
X4724147Y-10645710D02*
X4724147Y-10664758D01*
X4724147Y-10664758D02*
X4628909Y-10683805D01*
X4800337Y-10740948D02*
X4819385Y-10750472D01*
X4819385Y-10750472D02*
X4857480Y-10750472D01*
X4857480Y-10750472D02*
X4876528Y-10740948D01*
X4876528Y-10740948D02*
X4886051Y-10721900D01*
X4886051Y-10721900D02*
X4886051Y-10712377D01*
X4886051Y-10712377D02*
X4876528Y-10693329D01*
X4876528Y-10693329D02*
X4857480Y-10683805D01*
X4857480Y-10683805D02*
X4828909Y-10683805D01*
X4828909Y-10683805D02*
X4809861Y-10674281D01*
X4809861Y-10674281D02*
X4800337Y-10655234D01*
X4800337Y-10655234D02*
X4800337Y-10645710D01*
X4800337Y-10645710D02*
X4809861Y-10626662D01*
X4809861Y-10626662D02*
X4828909Y-10617138D01*
X4828909Y-10617138D02*
X4857480Y-10617138D01*
X4857480Y-10617138D02*
X4876528Y-10626662D01*
X4952718Y-10826662D02*
X4962242Y-10817138D01*
X4962242Y-10817138D02*
X4981290Y-10788567D01*
X4981290Y-10788567D02*
X4990813Y-10769519D01*
X4990813Y-10769519D02*
X5000337Y-10740948D01*
X5000337Y-10740948D02*
X5009861Y-10693329D01*
X5009861Y-10693329D02*
X5009861Y-10655234D01*
X5009861Y-10655234D02*
X5000337Y-10607615D01*
X5000337Y-10607615D02*
X4990813Y-10579043D01*
X4990813Y-10579043D02*
X4981290Y-10559996D01*
X4981290Y-10559996D02*
X4962242Y-10531424D01*
X4962242Y-10531424D02*
X4952718Y-10521900D01*
D12*
X-87821Y-10997988D02*
X-12821Y-10922988D01*
X-87821Y-10847988D01*
X-162821Y-10922988D01*
X-87821Y-10997988D01*
D11*
X352718Y-11014472D02*
X238432Y-11014472D01*
X295575Y-11014472D02*
X295575Y-10814472D01*
X295575Y-10814472D02*
X276527Y-10843043D01*
X276527Y-10843043D02*
X257479Y-10862091D01*
X257479Y-10862091D02*
X238432Y-10871615D01*
X438432Y-10995424D02*
X447956Y-11004948D01*
X447956Y-11004948D02*
X438432Y-11014472D01*
X438432Y-11014472D02*
X428908Y-11004948D01*
X428908Y-11004948D02*
X438432Y-10995424D01*
X438432Y-10995424D02*
X438432Y-11014472D01*
X628908Y-10814472D02*
X533670Y-10814472D01*
X533670Y-10814472D02*
X524146Y-10909710D01*
X524146Y-10909710D02*
X533670Y-10900186D01*
X533670Y-10900186D02*
X552718Y-10890662D01*
X552718Y-10890662D02*
X600337Y-10890662D01*
X600337Y-10890662D02*
X619384Y-10900186D01*
X619384Y-10900186D02*
X628908Y-10909710D01*
X628908Y-10909710D02*
X638432Y-10928758D01*
X638432Y-10928758D02*
X638432Y-10976377D01*
X638432Y-10976377D02*
X628908Y-10995424D01*
X628908Y-10995424D02*
X619384Y-11004948D01*
X619384Y-11004948D02*
X600337Y-11014472D01*
X600337Y-11014472D02*
X552718Y-11014472D01*
X552718Y-11014472D02*
X533670Y-11004948D01*
X533670Y-11004948D02*
X524146Y-10995424D01*
X762241Y-10814472D02*
X781289Y-10814472D01*
X781289Y-10814472D02*
X800337Y-10823996D01*
X800337Y-10823996D02*
X809860Y-10833519D01*
X809860Y-10833519D02*
X819384Y-10852567D01*
X819384Y-10852567D02*
X828908Y-10890662D01*
X828908Y-10890662D02*
X828908Y-10938281D01*
X828908Y-10938281D02*
X819384Y-10976377D01*
X819384Y-10976377D02*
X809860Y-10995424D01*
X809860Y-10995424D02*
X800337Y-11004948D01*
X800337Y-11004948D02*
X781289Y-11014472D01*
X781289Y-11014472D02*
X762241Y-11014472D01*
X762241Y-11014472D02*
X743194Y-11004948D01*
X743194Y-11004948D02*
X733670Y-10995424D01*
X733670Y-10995424D02*
X724146Y-10976377D01*
X724146Y-10976377D02*
X714622Y-10938281D01*
X714622Y-10938281D02*
X714622Y-10890662D01*
X714622Y-10890662D02*
X724146Y-10852567D01*
X724146Y-10852567D02*
X733670Y-10833519D01*
X733670Y-10833519D02*
X743194Y-10823996D01*
X743194Y-10823996D02*
X762241Y-10814472D01*
X952718Y-10814472D02*
X971765Y-10814472D01*
X971765Y-10814472D02*
X990813Y-10823996D01*
X990813Y-10823996D02*
X1000337Y-10833519D01*
X1000337Y-10833519D02*
X1009860Y-10852567D01*
X1009860Y-10852567D02*
X1019384Y-10890662D01*
X1019384Y-10890662D02*
X1019384Y-10938281D01*
X1019384Y-10938281D02*
X1009860Y-10976377D01*
X1009860Y-10976377D02*
X1000337Y-10995424D01*
X1000337Y-10995424D02*
X990813Y-11004948D01*
X990813Y-11004948D02*
X971765Y-11014472D01*
X971765Y-11014472D02*
X952718Y-11014472D01*
X952718Y-11014472D02*
X933670Y-11004948D01*
X933670Y-11004948D02*
X924146Y-10995424D01*
X924146Y-10995424D02*
X914622Y-10976377D01*
X914622Y-10976377D02*
X905099Y-10938281D01*
X905099Y-10938281D02*
X905099Y-10890662D01*
X905099Y-10890662D02*
X914622Y-10852567D01*
X914622Y-10852567D02*
X924146Y-10833519D01*
X924146Y-10833519D02*
X933670Y-10823996D01*
X933670Y-10823996D02*
X952718Y-10814472D01*
X1105099Y-11014472D02*
X1105099Y-10881138D01*
X1105099Y-10900186D02*
X1114622Y-10890662D01*
X1114622Y-10890662D02*
X1133670Y-10881138D01*
X1133670Y-10881138D02*
X1162242Y-10881138D01*
X1162242Y-10881138D02*
X1181289Y-10890662D01*
X1181289Y-10890662D02*
X1190813Y-10909710D01*
X1190813Y-10909710D02*
X1190813Y-11014472D01*
X1190813Y-10909710D02*
X1200337Y-10890662D01*
X1200337Y-10890662D02*
X1219384Y-10881138D01*
X1219384Y-10881138D02*
X1247956Y-10881138D01*
X1247956Y-10881138D02*
X1267003Y-10890662D01*
X1267003Y-10890662D02*
X1276527Y-10909710D01*
X1276527Y-10909710D02*
X1276527Y-11014472D01*
X1371765Y-11014472D02*
X1371765Y-10881138D01*
X1371765Y-10900186D02*
X1381289Y-10890662D01*
X1381289Y-10890662D02*
X1400337Y-10881138D01*
X1400337Y-10881138D02*
X1428908Y-10881138D01*
X1428908Y-10881138D02*
X1447956Y-10890662D01*
X1447956Y-10890662D02*
X1457480Y-10909710D01*
X1457480Y-10909710D02*
X1457480Y-11014472D01*
X1457480Y-10909710D02*
X1467003Y-10890662D01*
X1467003Y-10890662D02*
X1486051Y-10881138D01*
X1486051Y-10881138D02*
X1514622Y-10881138D01*
X1514622Y-10881138D02*
X1533670Y-10890662D01*
X1533670Y-10890662D02*
X1543194Y-10909710D01*
X1543194Y-10909710D02*
X1543194Y-11014472D01*
X1933670Y-10804948D02*
X1762242Y-11062091D01*
X2190813Y-10814472D02*
X2209861Y-10814472D01*
X2209861Y-10814472D02*
X2228908Y-10823996D01*
X2228908Y-10823996D02*
X2238432Y-10833519D01*
X2238432Y-10833519D02*
X2247956Y-10852567D01*
X2247956Y-10852567D02*
X2257480Y-10890662D01*
X2257480Y-10890662D02*
X2257480Y-10938281D01*
X2257480Y-10938281D02*
X2247956Y-10976377D01*
X2247956Y-10976377D02*
X2238432Y-10995424D01*
X2238432Y-10995424D02*
X2228908Y-11004948D01*
X2228908Y-11004948D02*
X2209861Y-11014472D01*
X2209861Y-11014472D02*
X2190813Y-11014472D01*
X2190813Y-11014472D02*
X2171765Y-11004948D01*
X2171765Y-11004948D02*
X2162242Y-10995424D01*
X2162242Y-10995424D02*
X2152718Y-10976377D01*
X2152718Y-10976377D02*
X2143194Y-10938281D01*
X2143194Y-10938281D02*
X2143194Y-10890662D01*
X2143194Y-10890662D02*
X2152718Y-10852567D01*
X2152718Y-10852567D02*
X2162242Y-10833519D01*
X2162242Y-10833519D02*
X2171765Y-10823996D01*
X2171765Y-10823996D02*
X2190813Y-10814472D01*
X2343194Y-10995424D02*
X2352718Y-11004948D01*
X2352718Y-11004948D02*
X2343194Y-11014472D01*
X2343194Y-11014472D02*
X2333670Y-11004948D01*
X2333670Y-11004948D02*
X2343194Y-10995424D01*
X2343194Y-10995424D02*
X2343194Y-11014472D01*
X2476527Y-10814472D02*
X2495575Y-10814472D01*
X2495575Y-10814472D02*
X2514623Y-10823996D01*
X2514623Y-10823996D02*
X2524146Y-10833519D01*
X2524146Y-10833519D02*
X2533670Y-10852567D01*
X2533670Y-10852567D02*
X2543194Y-10890662D01*
X2543194Y-10890662D02*
X2543194Y-10938281D01*
X2543194Y-10938281D02*
X2533670Y-10976377D01*
X2533670Y-10976377D02*
X2524146Y-10995424D01*
X2524146Y-10995424D02*
X2514623Y-11004948D01*
X2514623Y-11004948D02*
X2495575Y-11014472D01*
X2495575Y-11014472D02*
X2476527Y-11014472D01*
X2476527Y-11014472D02*
X2457480Y-11004948D01*
X2457480Y-11004948D02*
X2447956Y-10995424D01*
X2447956Y-10995424D02*
X2438432Y-10976377D01*
X2438432Y-10976377D02*
X2428908Y-10938281D01*
X2428908Y-10938281D02*
X2428908Y-10890662D01*
X2428908Y-10890662D02*
X2438432Y-10852567D01*
X2438432Y-10852567D02*
X2447956Y-10833519D01*
X2447956Y-10833519D02*
X2457480Y-10823996D01*
X2457480Y-10823996D02*
X2476527Y-10814472D01*
X2724146Y-10814472D02*
X2628908Y-10814472D01*
X2628908Y-10814472D02*
X2619385Y-10909710D01*
X2619385Y-10909710D02*
X2628908Y-10900186D01*
X2628908Y-10900186D02*
X2647956Y-10890662D01*
X2647956Y-10890662D02*
X2695575Y-10890662D01*
X2695575Y-10890662D02*
X2714623Y-10900186D01*
X2714623Y-10900186D02*
X2724146Y-10909710D01*
X2724146Y-10909710D02*
X2733670Y-10928758D01*
X2733670Y-10928758D02*
X2733670Y-10976377D01*
X2733670Y-10976377D02*
X2724146Y-10995424D01*
X2724146Y-10995424D02*
X2714623Y-11004948D01*
X2714623Y-11004948D02*
X2695575Y-11014472D01*
X2695575Y-11014472D02*
X2647956Y-11014472D01*
X2647956Y-11014472D02*
X2628908Y-11004948D01*
X2628908Y-11004948D02*
X2619385Y-10995424D01*
X2828908Y-11014472D02*
X2867003Y-11014472D01*
X2867003Y-11014472D02*
X2886051Y-11004948D01*
X2886051Y-11004948D02*
X2895575Y-10995424D01*
X2895575Y-10995424D02*
X2914623Y-10966853D01*
X2914623Y-10966853D02*
X2924146Y-10928758D01*
X2924146Y-10928758D02*
X2924146Y-10852567D01*
X2924146Y-10852567D02*
X2914623Y-10833519D01*
X2914623Y-10833519D02*
X2905099Y-10823996D01*
X2905099Y-10823996D02*
X2886051Y-10814472D01*
X2886051Y-10814472D02*
X2847956Y-10814472D01*
X2847956Y-10814472D02*
X2828908Y-10823996D01*
X2828908Y-10823996D02*
X2819384Y-10833519D01*
X2819384Y-10833519D02*
X2809861Y-10852567D01*
X2809861Y-10852567D02*
X2809861Y-10900186D01*
X2809861Y-10900186D02*
X2819384Y-10919234D01*
X2819384Y-10919234D02*
X2828908Y-10928758D01*
X2828908Y-10928758D02*
X2847956Y-10938281D01*
X2847956Y-10938281D02*
X2886051Y-10938281D01*
X2886051Y-10938281D02*
X2905099Y-10928758D01*
X2905099Y-10928758D02*
X2914623Y-10919234D01*
X2914623Y-10919234D02*
X2924146Y-10900186D01*
X3114623Y-11014472D02*
X3000337Y-11014472D01*
X3057480Y-11014472D02*
X3057480Y-10814472D01*
X3057480Y-10814472D02*
X3038432Y-10843043D01*
X3038432Y-10843043D02*
X3019384Y-10862091D01*
X3019384Y-10862091D02*
X3000337Y-10871615D01*
X3190813Y-10814472D02*
X3190813Y-10852567D01*
X3267004Y-10814472D02*
X3267004Y-10852567D01*
X3562242Y-11090662D02*
X3552718Y-11081138D01*
X3552718Y-11081138D02*
X3533670Y-11052567D01*
X3533670Y-11052567D02*
X3524146Y-11033519D01*
X3524146Y-11033519D02*
X3514623Y-11004948D01*
X3514623Y-11004948D02*
X3505099Y-10957329D01*
X3505099Y-10957329D02*
X3505099Y-10919234D01*
X3505099Y-10919234D02*
X3514623Y-10871615D01*
X3514623Y-10871615D02*
X3524146Y-10843043D01*
X3524146Y-10843043D02*
X3533670Y-10823996D01*
X3533670Y-10823996D02*
X3552718Y-10795424D01*
X3552718Y-10795424D02*
X3562242Y-10785900D01*
X3676527Y-10814472D02*
X3695575Y-10814472D01*
X3695575Y-10814472D02*
X3714623Y-10823996D01*
X3714623Y-10823996D02*
X3724146Y-10833519D01*
X3724146Y-10833519D02*
X3733670Y-10852567D01*
X3733670Y-10852567D02*
X3743194Y-10890662D01*
X3743194Y-10890662D02*
X3743194Y-10938281D01*
X3743194Y-10938281D02*
X3733670Y-10976377D01*
X3733670Y-10976377D02*
X3724146Y-10995424D01*
X3724146Y-10995424D02*
X3714623Y-11004948D01*
X3714623Y-11004948D02*
X3695575Y-11014472D01*
X3695575Y-11014472D02*
X3676527Y-11014472D01*
X3676527Y-11014472D02*
X3657480Y-11004948D01*
X3657480Y-11004948D02*
X3647956Y-10995424D01*
X3647956Y-10995424D02*
X3638432Y-10976377D01*
X3638432Y-10976377D02*
X3628908Y-10938281D01*
X3628908Y-10938281D02*
X3628908Y-10890662D01*
X3628908Y-10890662D02*
X3638432Y-10852567D01*
X3638432Y-10852567D02*
X3647956Y-10833519D01*
X3647956Y-10833519D02*
X3657480Y-10823996D01*
X3657480Y-10823996D02*
X3676527Y-10814472D01*
X3981289Y-11014472D02*
X3981289Y-10814472D01*
X4067004Y-11014472D02*
X4067004Y-10909710D01*
X4067004Y-10909710D02*
X4057480Y-10890662D01*
X4057480Y-10890662D02*
X4038432Y-10881138D01*
X4038432Y-10881138D02*
X4009861Y-10881138D01*
X4009861Y-10881138D02*
X3990813Y-10890662D01*
X3990813Y-10890662D02*
X3981289Y-10900186D01*
X4190813Y-11014472D02*
X4171766Y-11004948D01*
X4171766Y-11004948D02*
X4162242Y-10995424D01*
X4162242Y-10995424D02*
X4152718Y-10976377D01*
X4152718Y-10976377D02*
X4152718Y-10919234D01*
X4152718Y-10919234D02*
X4162242Y-10900186D01*
X4162242Y-10900186D02*
X4171766Y-10890662D01*
X4171766Y-10890662D02*
X4190813Y-10881138D01*
X4190813Y-10881138D02*
X4219385Y-10881138D01*
X4219385Y-10881138D02*
X4238432Y-10890662D01*
X4238432Y-10890662D02*
X4247956Y-10900186D01*
X4247956Y-10900186D02*
X4257480Y-10919234D01*
X4257480Y-10919234D02*
X4257480Y-10976377D01*
X4257480Y-10976377D02*
X4247956Y-10995424D01*
X4247956Y-10995424D02*
X4238432Y-11004948D01*
X4238432Y-11004948D02*
X4219385Y-11014472D01*
X4219385Y-11014472D02*
X4190813Y-11014472D01*
X4371766Y-11014472D02*
X4352718Y-11004948D01*
X4352718Y-11004948D02*
X4343194Y-10985900D01*
X4343194Y-10985900D02*
X4343194Y-10814472D01*
X4524147Y-11004948D02*
X4505099Y-11014472D01*
X4505099Y-11014472D02*
X4467004Y-11014472D01*
X4467004Y-11014472D02*
X4447956Y-11004948D01*
X4447956Y-11004948D02*
X4438432Y-10985900D01*
X4438432Y-10985900D02*
X4438432Y-10909710D01*
X4438432Y-10909710D02*
X4447956Y-10890662D01*
X4447956Y-10890662D02*
X4467004Y-10881138D01*
X4467004Y-10881138D02*
X4505099Y-10881138D01*
X4505099Y-10881138D02*
X4524147Y-10890662D01*
X4524147Y-10890662D02*
X4533670Y-10909710D01*
X4533670Y-10909710D02*
X4533670Y-10928758D01*
X4533670Y-10928758D02*
X4438432Y-10947805D01*
X4609861Y-11004948D02*
X4628909Y-11014472D01*
X4628909Y-11014472D02*
X4667004Y-11014472D01*
X4667004Y-11014472D02*
X4686051Y-11004948D01*
X4686051Y-11004948D02*
X4695575Y-10985900D01*
X4695575Y-10985900D02*
X4695575Y-10976377D01*
X4695575Y-10976377D02*
X4686051Y-10957329D01*
X4686051Y-10957329D02*
X4667004Y-10947805D01*
X4667004Y-10947805D02*
X4638432Y-10947805D01*
X4638432Y-10947805D02*
X4619385Y-10938281D01*
X4619385Y-10938281D02*
X4609861Y-10919234D01*
X4609861Y-10919234D02*
X4609861Y-10909710D01*
X4609861Y-10909710D02*
X4619385Y-10890662D01*
X4619385Y-10890662D02*
X4638432Y-10881138D01*
X4638432Y-10881138D02*
X4667004Y-10881138D01*
X4667004Y-10881138D02*
X4686051Y-10890662D01*
X4933671Y-10938281D02*
X5086052Y-10938281D01*
X5009861Y-11014472D02*
X5009861Y-10862091D01*
X5324147Y-10833519D02*
X5333671Y-10823996D01*
X5333671Y-10823996D02*
X5352718Y-10814472D01*
X5352718Y-10814472D02*
X5400337Y-10814472D01*
X5400337Y-10814472D02*
X5419385Y-10823996D01*
X5419385Y-10823996D02*
X5428909Y-10833519D01*
X5428909Y-10833519D02*
X5438432Y-10852567D01*
X5438432Y-10852567D02*
X5438432Y-10871615D01*
X5438432Y-10871615D02*
X5428909Y-10900186D01*
X5428909Y-10900186D02*
X5314623Y-11014472D01*
X5314623Y-11014472D02*
X5438432Y-11014472D01*
X5667004Y-11004948D02*
X5686051Y-11014472D01*
X5686051Y-11014472D02*
X5724147Y-11014472D01*
X5724147Y-11014472D02*
X5743194Y-11004948D01*
X5743194Y-11004948D02*
X5752718Y-10985900D01*
X5752718Y-10985900D02*
X5752718Y-10976377D01*
X5752718Y-10976377D02*
X5743194Y-10957329D01*
X5743194Y-10957329D02*
X5724147Y-10947805D01*
X5724147Y-10947805D02*
X5695575Y-10947805D01*
X5695575Y-10947805D02*
X5676528Y-10938281D01*
X5676528Y-10938281D02*
X5667004Y-10919234D01*
X5667004Y-10919234D02*
X5667004Y-10909710D01*
X5667004Y-10909710D02*
X5676528Y-10890662D01*
X5676528Y-10890662D02*
X5695575Y-10881138D01*
X5695575Y-10881138D02*
X5724147Y-10881138D01*
X5724147Y-10881138D02*
X5743194Y-10890662D01*
X5867004Y-11014472D02*
X5847956Y-11004948D01*
X5847956Y-11004948D02*
X5838432Y-10985900D01*
X5838432Y-10985900D02*
X5838432Y-10814472D01*
X5971766Y-11014472D02*
X5952718Y-11004948D01*
X5952718Y-11004948D02*
X5943194Y-10995424D01*
X5943194Y-10995424D02*
X5933671Y-10976377D01*
X5933671Y-10976377D02*
X5933671Y-10919234D01*
X5933671Y-10919234D02*
X5943194Y-10900186D01*
X5943194Y-10900186D02*
X5952718Y-10890662D01*
X5952718Y-10890662D02*
X5971766Y-10881138D01*
X5971766Y-10881138D02*
X6000337Y-10881138D01*
X6000337Y-10881138D02*
X6019385Y-10890662D01*
X6019385Y-10890662D02*
X6028909Y-10900186D01*
X6028909Y-10900186D02*
X6038432Y-10919234D01*
X6038432Y-10919234D02*
X6038432Y-10976377D01*
X6038432Y-10976377D02*
X6028909Y-10995424D01*
X6028909Y-10995424D02*
X6019385Y-11004948D01*
X6019385Y-11004948D02*
X6000337Y-11014472D01*
X6000337Y-11014472D02*
X5971766Y-11014472D01*
X6095575Y-10881138D02*
X6171766Y-10881138D01*
X6124147Y-10814472D02*
X6124147Y-10985900D01*
X6124147Y-10985900D02*
X6133671Y-11004948D01*
X6133671Y-11004948D02*
X6152718Y-11014472D01*
X6152718Y-11014472D02*
X6171766Y-11014472D01*
X6228909Y-11004948D02*
X6247956Y-11014472D01*
X6247956Y-11014472D02*
X6286051Y-11014472D01*
X6286051Y-11014472D02*
X6305099Y-11004948D01*
X6305099Y-11004948D02*
X6314623Y-10985900D01*
X6314623Y-10985900D02*
X6314623Y-10976377D01*
X6314623Y-10976377D02*
X6305099Y-10957329D01*
X6305099Y-10957329D02*
X6286051Y-10947805D01*
X6286051Y-10947805D02*
X6257480Y-10947805D01*
X6257480Y-10947805D02*
X6238432Y-10938281D01*
X6238432Y-10938281D02*
X6228909Y-10919234D01*
X6228909Y-10919234D02*
X6228909Y-10909710D01*
X6228909Y-10909710D02*
X6238432Y-10890662D01*
X6238432Y-10890662D02*
X6257480Y-10881138D01*
X6257480Y-10881138D02*
X6286051Y-10881138D01*
X6286051Y-10881138D02*
X6305099Y-10890662D01*
X6381290Y-11090662D02*
X6390813Y-11081138D01*
X6390813Y-11081138D02*
X6409861Y-11052567D01*
X6409861Y-11052567D02*
X6419385Y-11033519D01*
X6419385Y-11033519D02*
X6428909Y-11004948D01*
X6428909Y-11004948D02*
X6438432Y-10957329D01*
X6438432Y-10957329D02*
X6438432Y-10919234D01*
X6438432Y-10919234D02*
X6428909Y-10871615D01*
X6428909Y-10871615D02*
X6419385Y-10843043D01*
X6419385Y-10843043D02*
X6409861Y-10823996D01*
X6409861Y-10823996D02*
X6390813Y-10795424D01*
X6390813Y-10795424D02*
X6381290Y-10785900D01*
M02*
