M48
; DRILL file {KiCad 8.0.5-8.0.5-0~ubuntu22.04.1} date 2024-11-26T13:49:19+0000
; FORMAT={-:-/ absolute / inch / decimal}
; #@! TF.CreationDate,2024-11-26T13:49:19+00:00
; #@! TF.GenerationSoftware,Kicad,Pcbnew,8.0.5-8.0.5-0~ubuntu22.04.1
; #@! TF.FileFunction,Plated,1,2,PTH
FMAT,2
INCH
; #@! TA.AperFunction,Plated,PTH,ComponentDrill
T1C0.0079
; #@! TA.AperFunction,Plated,PTH,ViaDrill
T2C0.0157
; #@! TA.AperFunction,Plated,PTH,ComponentDrill
T3C0.0236
; #@! TA.AperFunction,Plated,PTH,ComponentDrill
T4C0.0295
; #@! TA.AperFunction,Plated,PTH,ComponentDrill
T5C0.0315
; #@! TA.AperFunction,Plated,PTH,ComponentDrill
T6C0.0394
; #@! TA.AperFunction,Plated,PTH,ComponentDrill
T7C0.0591
%
G90
G05
T1
X1.9713Y0.7546
X1.9713Y0.6995
X1.9988Y0.7822
X1.9988Y0.7271
X1.9988Y0.672
X2.0264Y0.7546
X2.0264Y0.6995
X2.0539Y0.7822
X2.0539Y0.7271
X2.0539Y0.672
X2.0815Y0.7546
X2.0815Y0.6995
T2
X0.0299Y-0.1661
X0.0299Y-0.4161
X0.0299Y-0.6661
X0.0299Y-0.9161
X0.0299Y-1.1661
X0.0299Y-1.4161
X0.0299Y-1.6661
X0.0299Y-1.9161
X0.0299Y-2.1661
X0.0299Y-2.4161
X0.0299Y-2.6661
X0.0299Y-2.9161
X0.0299Y-3.1661
X0.0299Y-3.4161
X0.0379Y0.4819
X0.0399Y1.1339
X0.0831Y0.4299
X0.1099Y1.0839
X0.1099Y1.0439
X0.1177Y0.6295
X0.1599Y0.8939
X0.1649Y0.0139
X0.1999Y1.2939
X0.1999Y1.1539
X0.2119Y0.5299
X0.2179Y0.1359
X0.2299Y0.9839
X0.2359Y-1.4661
X0.2419Y-0.7081
X0.2479Y1.0419
X0.2539Y0.5299
X0.2699Y0.9839
X0.2849Y0.2898
X0.2919Y0.5299
X0.2979Y1.0419
X0.3109Y0.633
X0.3379Y0.7179
X0.3409Y0.6719
X0.3549Y0.2789
X0.3549Y-3.5161
X0.3589Y0.7569
X0.3774Y0.7265
X0.3774Y0.6865
X0.3813Y1.1675
X0.3819Y0.3248
X0.3949Y0.0989
X0.3999Y1.0439
X0.4099Y0.4539
X0.4199Y0.7379
X0.4459Y0.5799
X0.4499Y1.0439
X0.4649Y0.0989
X0.4999Y1.0439
X0.5299Y0.0989
X0.5449Y0.6739
X0.5813Y1.1675
X0.5999Y1.0439
X0.5999Y0.0989
X0.6492Y0.5272
X0.6549Y0.0689
X0.6639Y0.5939
X0.6729Y0.7009
X0.6799Y-0.9911
X0.6999Y1.0439
X0.6999Y0.0239
X0.7049Y-0.2411
X0.7049Y-1.7411
X0.7049Y-2.4911
X0.708Y0.3677
X0.7549Y-3.2411
X0.7798Y-0.469
X0.7799Y1.1675
X0.8199Y1.0439
X0.8199Y0.4739
X0.9106Y0.3759
X0.9106Y0.3319
X0.9112Y0.4179
X0.9239Y0.5819
X0.9259Y0.4779
X0.9299Y-0.0161
X0.9599Y0.6299
X0.9799Y0.4739
X0.9799Y-3.5161
X0.9813Y1.1675
X0.9899Y0.5989
X1.0599Y0.6739
X1.0649Y0.7239
X1.1019Y0.4659
X1.1279Y0.3759
X1.1799Y0.7249
X1.1813Y1.1675
X1.1899Y0.7979
X1.1919Y0.8699
X1.2061Y0.905
X1.2207Y0.9398
X1.2615Y0.9171
X1.2689Y0.4239
X1.2699Y0.5339
X1.2729Y0.3252
X1.3609Y0.4269
X1.3809Y0.6819
X1.3989Y0.4269
X1.3999Y0.7759
X1.4239Y0.6819
X1.4299Y-2.4911
X1.4429Y0.4251
X1.4459Y0.7759
X1.4499Y0.9019
X1.4549Y-0.9911
X1.4549Y-1.7661
X1.5049Y-0.2411
X1.5049Y-3.2411
X1.5343Y0.4113
X1.5649Y0.6739
X1.6019Y0.4359
X1.6299Y-0.7661
X1.6485Y0.4439
X1.6549Y-0.0411
X1.6549Y-0.5911
X1.6779Y0.8199
X1.684Y0.457
X1.7049Y-3.5161
X1.7399Y0.2859
X1.7979Y0.5779
X1.7979Y0.5339
X1.8028Y0.481
X1.8039Y0.6419
X1.8099Y1.0179
X1.811Y0.683
X1.8388Y0.7424
X1.84Y0.574
X1.8499Y1.0189
X1.8609Y0.8729
X1.8627Y0.7947
X1.8649Y0.6559
X1.877Y0.4239
X1.8939Y0.0139
X1.9379Y0.1979
X1.9399Y0.8959
X1.9499Y1.0439
X1.9559Y0.4239
X1.9719Y0.2739
X1.9819Y0.1979
X1.983Y0.9009
X2.0199Y1.0439
X2.0219Y0.2719
X2.0239Y0.1979
X2.0319Y0.3899
X2.0759Y0.2719
X2.0849Y1.0439
X2.147Y0.197
X2.1499Y1.0439
X2.1707Y-0.1253
X2.1891Y0.2367
X2.2149Y1.0439
X2.2199Y-0.1245
X2.2549Y-1.0161
X2.2549Y-1.7411
X2.2549Y-2.4911
X2.2549Y-3.5161
X2.2599Y-0.1245
X2.2839Y-0.7741
X2.3049Y-0.3661
X2.3049Y-3.2411
X2.3179Y0.5679
X2.3399Y0.6159
X2.3459Y0.3959
X2.3519Y0.6699
X2.3599Y0.7199
X2.3639Y0.9839
X2.3639Y0.9359
X2.3639Y0.7759
X2.3799Y0.1719
X2.4139Y-1.5221
X2.4299Y0.1719
X2.4799Y0.1719
X2.4799Y-3.5161
X2.4899Y1.0299
X2.4919Y0.9159
X2.4969Y0.8769
X2.5399Y0.1719
X2.5539Y0.5719
X2.6419Y0.2159
X2.6599Y0.8139
X2.6599Y0.6739
X2.6919Y0.2159
X2.6999Y0.7739
X2.6999Y0.7139
X2.7181Y0.1757
X2.7399Y0.8139
X2.7399Y0.6739
X2.7581Y0.2157
X2.7599Y0.7739
X2.7599Y0.7139
X2.7981Y0.2557
X2.8059Y0.7449
X2.8059Y0.7449
X2.8059Y0.7449
X2.8059Y0.7449
X2.8059Y0.7449
X2.8059Y0.7449
X2.8059Y0.7449
X2.8059Y0.7449
X2.8059Y0.7449
X2.8059Y0.7449
X2.8059Y0.7449
X2.8059Y0.7449
X2.8059Y0.7449
X2.8059Y0.7449
X2.8059Y0.7449
X2.8059Y0.7449
X2.8059Y0.7449
X2.8059Y0.7449
X2.8381Y0.2957
X2.8679Y0.6219
X2.8831Y0.3407
X2.9129Y0.5769
X2.9181Y0.3757
X2.9379Y0.4239
X2.9399Y0.5339
X2.9399Y0.4739
X2.9999Y1.0339
X2.9999Y0.9739
X2.9999Y0.9139
X3.0049Y0.0839
X3.0049Y-0.1661
X3.0049Y-0.4161
X3.0049Y-0.6661
X3.0049Y-0.9161
X3.0049Y-1.1661
X3.0049Y-1.4161
X3.0049Y-1.6661
X3.0049Y-1.9161
X3.0049Y-2.1661
X3.0049Y-2.4161
X3.0049Y-2.6661
X3.0049Y-2.9161
X3.0049Y-3.1661
X3.0049Y-3.4161
T6
X0.3879Y0.2179
X0.4239Y0.9139
X0.4239Y0.8139
X0.4879Y0.2179
X0.5239Y0.9139
X0.5239Y0.8139
X0.5879Y0.2179
X0.6239Y0.9139
X0.6239Y0.8139
X0.6879Y0.2179
X0.7239Y0.9139
X0.7239Y0.8139
X0.7879Y0.2179
X0.8239Y0.9139
X0.8239Y0.8139
X0.8879Y0.2179
X0.9239Y0.9139
X0.9239Y0.8139
X0.9879Y0.2179
X1.0239Y0.9139
X1.0239Y0.8139
X1.0879Y0.2179
X1.1239Y0.9139
X1.1239Y0.8139
X1.1879Y0.2179
X1.2879Y0.2179
X1.3879Y0.2179
X1.4879Y0.2179
X1.5879Y0.2179
X1.6879Y0.2179
X1.7879Y0.2179
X2.652Y1.0195
X2.652Y0.4487
X2.7504Y0.4487
X2.8488Y1.0195
X2.8488Y0.4487
T3
G00X0.0911Y0.9239
M15
G01X0.0596Y0.9239
M16
G05
G00X0.0911Y0.5838
M15
G01X0.0596Y0.5838
M16
G05
G00X0.2616Y0.9239
M15
G01X0.2183Y0.9239
M16
G05
G00X0.2616Y0.5838
M15
G01X0.2183Y0.5838
M16
G05
T4
G00X0.223Y-2.3711
M15
G01X0.2526Y-2.3711
M16
G05
G00X0.223Y-3.1211
M15
G01X0.2526Y-3.1211
M16
G05
G00X0.2241Y-1.6197
M15
G01X0.2536Y-1.6197
M16
G05
G00X0.2265Y-0.1261
M15
G01X0.256Y-0.1261
M16
G05
G00X0.2265Y-0.8711
M15
G01X0.256Y-0.8711
M16
G05
G00X0.4652Y-2.2711
M15
G01X0.4947Y-2.2711
M16
G05
G00X0.4652Y-3.0211
M15
G01X0.4947Y-3.0211
M16
G05
G00X0.4662Y-1.5197
M15
G01X0.4958Y-1.5197
M16
G05
G00X0.4686Y-0.0261
M15
G01X0.4981Y-0.0261
M16
G05
G00X0.4686Y-0.7711
M15
G01X0.4981Y-0.7711
M16
G05
G00X0.9697Y-2.371
M15
G01X0.9992Y-2.371
M16
G05
G00X0.9702Y-3.1211
M15
G01X0.9997Y-3.1211
M16
G05
G00X0.9715Y-0.1261
M15
G01X1.001Y-0.1261
M16
G05
G00X0.9715Y-0.8711
M15
G01X1.001Y-0.8711
M16
G05
G00X0.9715Y-1.621
M15
G01X1.001Y-1.621
M16
G05
G00X1.2118Y-2.271
M15
G01X1.2413Y-2.271
M16
G05
G00X1.2123Y-3.0211
M15
G01X1.2418Y-3.0211
M16
G05
G00X1.2136Y-0.0261
M15
G01X1.2431Y-0.0261
M16
G05
G00X1.2136Y-0.7711
M15
G01X1.2431Y-0.7711
M16
G05
G00X1.2136Y-1.521
M15
G01X1.2431Y-1.521
M16
G05
G00X1.7215Y-0.1261
M15
G01X1.751Y-0.1261
M16
G05
G00X1.7215Y-0.8711
M15
G01X1.751Y-0.8711
M16
G05
G00X1.723Y-3.1211
M15
G01X1.7526Y-3.1211
M16
G05
G00X1.7247Y-1.621
M15
G01X1.7542Y-1.621
M16
G05
G00X1.7247Y-2.371
M15
G01X1.7542Y-2.371
M16
G05
G00X1.9636Y-0.0261
M15
G01X1.9931Y-0.0261
M16
G05
G00X1.9636Y-0.7711
M15
G01X1.9931Y-0.7711
M16
G05
G00X1.9652Y-3.0211
M15
G01X1.9947Y-3.0211
M16
G05
G00X1.9668Y-1.521
M15
G01X1.9963Y-1.521
M16
G05
G00X1.9668Y-2.271
M15
G01X1.9963Y-2.271
M16
G05
G00X2.473Y-0.1261
M15
G01X2.5026Y-0.1261
M16
G05
G00X2.4747Y-2.371
M15
G01X2.5042Y-2.371
M16
G05
G00X2.4752Y-3.1211
M15
G01X2.5047Y-3.1211
M16
G05
G00X2.4765Y-0.8711
M15
G01X2.506Y-0.8711
M16
G05
G00X2.4765Y-1.6211
M15
G01X2.506Y-1.6211
M16
G05
G00X2.7152Y-0.0261
M15
G01X2.7447Y-0.0261
M16
G05
G00X2.7168Y-2.271
M15
G01X2.7463Y-2.271
M16
G05
G00X2.7173Y-3.0211
M15
G01X2.7468Y-3.0211
M16
G05
G00X2.7186Y-0.7711
M15
G01X2.7481Y-0.7711
M16
G05
G00X2.7186Y-1.5211
M15
G01X2.7481Y-1.5211
M16
G05
T5
G00X0.2083Y-2.6673
M15
G01X0.2083Y-2.6949
M16
G05
G00X0.2083Y-3.4173
M15
G01X0.2083Y-3.4449
M16
G05
G00X0.2093Y-1.916
M15
G01X0.2093Y-1.9435
M16
G05
G00X0.2117Y-0.4223
M15
G01X0.2117Y-0.4499
M16
G05
G00X0.2117Y-1.1673
M15
G01X0.2117Y-1.1949
M16
G05
G00X0.9549Y-2.6673
M15
G01X0.9549Y-2.6948
M16
G05
G00X0.9554Y-3.4173
M15
G01X0.9554Y-3.4449
M16
G05
G00X0.9567Y-0.4223
M15
G01X0.9567Y-0.4499
M16
G05
G00X0.9567Y-1.1673
M15
G01X0.9567Y-1.1949
M16
G05
G00X0.9567Y-1.9173
M15
G01X0.9567Y-1.9448
M16
G05
G00X1.7067Y-0.4223
M15
G01X1.7067Y-0.4499
M16
G05
G00X1.7067Y-1.1673
M15
G01X1.7067Y-1.1949
M16
G05
G00X1.7083Y-3.4173
M15
G01X1.7083Y-3.4449
M16
G05
G00X1.7099Y-1.9173
M15
G01X1.7099Y-1.9448
M16
G05
G00X1.7099Y-2.6673
M15
G01X1.7099Y-2.6948
M16
G05
G00X2.4583Y-0.4223
M15
G01X2.4583Y-0.4499
M16
G05
G00X2.4599Y-2.6673
M15
G01X2.4599Y-2.6948
M16
G05
G00X2.4604Y-3.4173
M15
G01X2.4604Y-3.4449
M16
G05
G00X2.4617Y-1.1673
M15
G01X2.4617Y-1.1949
M16
G05
G00X2.4617Y-1.9173
M15
G01X2.4617Y-1.9449
M16
G05
T6
G00X0.474Y-2.7126
M15
G01X0.4937Y-2.7126
M16
G05
G00X0.474Y-3.4626
M15
G01X0.4937Y-3.4626
M16
G05
G00X0.4751Y-1.9612
M15
G01X0.4948Y-1.9612
M16
G05
G00X0.4775Y-0.4676
M15
G01X0.4971Y-0.4676
M16
G05
G00X0.4775Y-1.2126
M15
G01X0.4971Y-1.2126
M16
G05
G00X1.2207Y-2.7126
M15
G01X1.2404Y-2.7126
M16
G05
G00X1.2212Y-3.4626
M15
G01X1.2408Y-3.4626
M16
G05
G00X1.2225Y-0.4676
M15
G01X1.2421Y-0.4676
M16
G05
G00X1.2225Y-1.2126
M15
G01X1.2421Y-1.2126
M16
G05
G00X1.2225Y-1.9626
M15
G01X1.2421Y-1.9626
M16
G05
G00X1.9725Y-0.4676
M15
G01X1.9921Y-0.4676
M16
G05
G00X1.9725Y-1.2126
M15
G01X1.9921Y-1.2126
M16
G05
G00X1.974Y-3.4626
M15
G01X1.9937Y-3.4626
M16
G05
G00X1.9757Y-1.9626
M15
G01X1.9954Y-1.9626
M16
G05
G00X1.9757Y-2.7126
M15
G01X1.9954Y-2.7126
M16
G05
G00X2.724Y-0.4676
M15
G01X2.7437Y-0.4676
M16
G05
G00X2.7257Y-2.7126
M15
G01X2.7454Y-2.7126
M16
G05
G00X2.7262Y-3.4626
M15
G01X2.7458Y-3.4626
M16
G05
G00X2.7275Y-1.2126
M15
G01X2.7471Y-1.2126
M16
G05
G00X2.7275Y-1.9626
M15
G01X2.7471Y-1.9626
M16
G05
T7
G00X2.5299Y0.7183
M15
G01X2.5299Y0.7695
M16
G05
G00X2.9709Y0.7183
M15
G01X2.9709Y0.7695
M16
G05
M30
