%TF.GenerationSoftware,KiCad,Pcbnew,8.0.8-8.0.8-0~ubuntu22.04.1*%
%TF.CreationDate,2025-02-03T23:53:40+00:00*%
%TF.ProjectId,numcalcium,6e756d63-616c-4636-9975-6d2e6b696361,rev?*%
%TF.SameCoordinates,Original*%
%TF.FileFunction,Profile,NP*%
%FSLAX46Y46*%
G04 Gerber Fmt 4.6, Leading zero omitted, Abs format (unit mm)*
G04 Created by KiCad (PCBNEW 8.0.8-8.0.8-0~ubuntu22.04.1) date 2025-02-03 23:53:40*
%MOMM*%
%LPD*%
G01*
G04 APERTURE LIST*
%TA.AperFunction,Profile*%
%ADD10C,0.100000*%
%TD*%
G04 APERTURE END LIST*
D10*
X75307787Y-114329746D02*
G75*
G02*
X73019473Y-114329746I-1144157J0D01*
G01*
X73019473Y-114329746D02*
G75*
G02*
X75307787Y-114329746I1144157J0D01*
G01*
X39292001Y-28064000D02*
G75*
G02*
X37003687Y-28064000I-1144157J0D01*
G01*
X37003687Y-28064000D02*
G75*
G02*
X39292001Y-28064000I1144157J0D01*
G01*
X-492609Y-113124169D02*
X-512332Y4841277D01*
X3492001Y-114364000D02*
G75*
G02*
X1203687Y-114364000I-1144157J0D01*
G01*
X1203687Y-114364000D02*
G75*
G02*
X3492001Y-114364000I1144157J0D01*
G01*
X73167391Y-116986723D02*
X3369945Y-116986723D01*
X73147668Y8703831D02*
X3350222Y8703831D01*
X3466079Y6222907D02*
G75*
G02*
X1177765Y6222907I-1144157J0D01*
G01*
X1177765Y6222907D02*
G75*
G02*
X3466079Y6222907I1144157J0D01*
G01*
X75569976Y-18764939D02*
G75*
G02*
X73273230Y-18764939I-1148373J0D01*
G01*
X73273230Y-18764939D02*
G75*
G02*
X75569976Y-18764939I1148373J0D01*
G01*
X39292001Y-60114000D02*
G75*
G02*
X37003687Y-60114000I-1144157J0D01*
G01*
X37003687Y-60114000D02*
G75*
G02*
X39292001Y-60114000I1144157J0D01*
G01*
X77029945Y-113124169D02*
G75*
G02*
X73167391Y-116986745I-3862745J169D01*
G01*
X-512332Y4841277D02*
G75*
G02*
X3350222Y8703831I3862554J0D01*
G01*
X73147668Y8703831D02*
G75*
G02*
X77010231Y4841277I-68J-3862631D01*
G01*
X75547587Y6192647D02*
G75*
G02*
X73301067Y6192647I-1123260J0D01*
G01*
X73301067Y6192647D02*
G75*
G02*
X75547587Y6192647I1123260J0D01*
G01*
X39586157Y6291844D02*
G75*
G02*
X37297843Y6291844I-1144157J0D01*
G01*
X37297843Y6291844D02*
G75*
G02*
X39586157Y6291844I1144157J0D01*
G01*
X39236157Y-98214000D02*
G75*
G02*
X36947843Y-98214000I-1144157J0D01*
G01*
X36947843Y-98214000D02*
G75*
G02*
X39236157Y-98214000I1144157J0D01*
G01*
X77010222Y4841277D02*
X77029945Y-113124169D01*
X3438043Y-18761480D02*
G75*
G02*
X1109217Y-18761480I-1164413J0D01*
G01*
X1109217Y-18761480D02*
G75*
G02*
X3438043Y-18761480I1164413J0D01*
G01*
X3369945Y-116986723D02*
G75*
G02*
X-492609Y-113124169I2J3862556D01*
G01*
M02*
