%TF.GenerationSoftware,KiCad,Pcbnew,8.0.9-8.0.9-0~ubuntu22.04.1*%
%TF.CreationDate,2026-01-28T22:17:52+00:00*%
%TF.ProjectId,numcalcium,6e756d63-616c-4636-9975-6d2e6b696361,rev?*%
%TF.SameCoordinates,Original*%
%TF.FileFunction,Soldermask,Top*%
%TF.FilePolarity,Negative*%
%FSLAX46Y46*%
G04 Gerber Fmt 4.6, Leading zero omitted, Abs format (unit mm)*
G04 Created by KiCad (PCBNEW 8.0.9-8.0.9-0~ubuntu22.04.1) date 2026-01-28 22:17:52*
%MOMM*%
%LPD*%
G01*
G04 APERTURE LIST*
G04 Aperture macros list*
%AMRoundRect*
0 Rectangle with rounded corners*
0 $1 Rounding radius*
0 $2 $3 $4 $5 $6 $7 $8 $9 X,Y pos of 4 corners*
0 Add a 4 corners polygon primitive as box body*
4,1,4,$2,$3,$4,$5,$6,$7,$8,$9,$2,$3,0*
0 Add four circle primitives for the rounded corners*
1,1,$1+$1,$2,$3*
1,1,$1+$1,$4,$5*
1,1,$1+$1,$6,$7*
1,1,$1+$1,$8,$9*
0 Add four rect primitives between the rounded corners*
20,1,$1+$1,$2,$3,$4,$5,0*
20,1,$1+$1,$4,$5,$6,$7,0*
20,1,$1+$1,$6,$7,$8,$9,0*
20,1,$1+$1,$8,$9,$2,$3,0*%
G04 Aperture macros list end*
%ADD10R,0.700000X0.700000*%
%ADD11RoundRect,0.150000X0.512500X0.150000X-0.512500X0.150000X-0.512500X-0.150000X0.512500X-0.150000X0*%
%ADD12RoundRect,0.250000X0.375000X0.625000X-0.375000X0.625000X-0.375000X-0.625000X0.375000X-0.625000X0*%
%ADD13RoundRect,0.250000X0.350000X0.450000X-0.350000X0.450000X-0.350000X-0.450000X0.350000X-0.450000X0*%
%ADD14C,1.700000*%
%ADD15C,4.000000*%
%ADD16C,2.200000*%
%ADD17RoundRect,0.100000X0.100000X-0.637500X0.100000X0.637500X-0.100000X0.637500X-0.100000X-0.637500X0*%
%ADD18RoundRect,0.250000X0.412500X0.650000X-0.412500X0.650000X-0.412500X-0.650000X0.412500X-0.650000X0*%
%ADD19RoundRect,0.250000X0.475000X-0.337500X0.475000X0.337500X-0.475000X0.337500X-0.475000X-0.337500X0*%
%ADD20RoundRect,0.250000X-0.350000X-0.450000X0.350000X-0.450000X0.350000X0.450000X-0.350000X0.450000X0*%
%ADD21RoundRect,0.250000X-0.475000X0.337500X-0.475000X-0.337500X0.475000X-0.337500X0.475000X0.337500X0*%
%ADD22RoundRect,0.150000X0.587500X0.150000X-0.587500X0.150000X-0.587500X-0.150000X0.587500X-0.150000X0*%
%ADD23RoundRect,0.250000X0.625000X-0.375000X0.625000X0.375000X-0.625000X0.375000X-0.625000X-0.375000X0*%
%ADD24RoundRect,0.250000X-0.375000X-0.625000X0.375000X-0.625000X0.375000X0.625000X-0.375000X0.625000X0*%
%ADD25RoundRect,0.250000X0.600000X-0.600000X0.600000X0.600000X-0.600000X0.600000X-0.600000X-0.600000X0*%
%ADD26RoundRect,0.250000X0.337500X0.475000X-0.337500X0.475000X-0.337500X-0.475000X0.337500X-0.475000X0*%
%ADD27RoundRect,0.150000X-0.587500X-0.150000X0.587500X-0.150000X0.587500X0.150000X-0.587500X0.150000X0*%
%ADD28C,0.650000*%
%ADD29RoundRect,0.150000X-0.425000X0.150000X-0.425000X-0.150000X0.425000X-0.150000X0.425000X0.150000X0*%
%ADD30RoundRect,0.075000X-0.500000X0.075000X-0.500000X-0.075000X0.500000X-0.075000X0.500000X0.075000X0*%
%ADD31O,2.100000X1.000000*%
%ADD32O,1.800000X1.000000*%
%ADD33R,2.500000X1.900000*%
%ADD34R,1.500000X0.900000*%
%ADD35R,0.900000X1.500000*%
%ADD36C,0.600000*%
%ADD37R,3.900000X3.900000*%
%ADD38RoundRect,0.250000X1.000000X0.650000X-1.000000X0.650000X-1.000000X-0.650000X1.000000X-0.650000X0*%
%ADD39RoundRect,0.250000X1.075000X-0.375000X1.075000X0.375000X-1.075000X0.375000X-1.075000X-0.375000X0*%
%ADD40RoundRect,0.250000X-0.787500X-1.025000X0.787500X-1.025000X0.787500X1.025000X-0.787500X1.025000X0*%
%ADD41RoundRect,0.250000X-0.450000X0.350000X-0.450000X-0.350000X0.450000X-0.350000X0.450000X0.350000X0*%
%ADD42RoundRect,0.250000X-1.025000X0.787500X-1.025000X-0.787500X1.025000X-0.787500X1.025000X0.787500X0*%
%ADD43RoundRect,0.150000X0.675000X0.150000X-0.675000X0.150000X-0.675000X-0.150000X0.675000X-0.150000X0*%
%ADD44R,2.000000X2.000000*%
%ADD45C,2.000000*%
%ADD46R,2.000000X3.200000*%
%ADD47RoundRect,0.250000X-1.075000X0.375000X-1.075000X-0.375000X1.075000X-0.375000X1.075000X0.375000X0*%
%ADD48RoundRect,0.250000X0.450000X-0.350000X0.450000X0.350000X-0.450000X0.350000X-0.450000X-0.350000X0*%
%ADD49R,1.300000X0.300000*%
%ADD50R,2.200000X1.800000*%
G04 APERTURE END LIST*
D10*
%TO.C,D38*%
X29782879Y-36410843D03*
X29782879Y-35310843D03*
X27952879Y-35310843D03*
X27952879Y-36410843D03*
%TD*%
D11*
%TO.C,U1*%
X15538835Y-19114000D03*
X15538835Y-18164000D03*
X15538835Y-17214000D03*
X13263835Y-17214000D03*
X13263835Y-19114000D03*
%TD*%
D12*
%TO.C,D1*%
X11265879Y-115164000D03*
X8465879Y-115164000D03*
%TD*%
D13*
%TO.C,R10*%
X30392000Y-18864000D03*
X28392000Y-18864000D03*
%TD*%
D14*
%TO.C,SW11*%
X42650000Y-69363000D03*
D15*
X47730000Y-69363000D03*
D14*
X52810000Y-69363000D03*
D16*
X50270000Y-64283000D03*
X43920000Y-66823000D03*
%TD*%
D17*
%TO.C,U3*%
X21432879Y-21743343D03*
X22082879Y-21743343D03*
X22732879Y-21743343D03*
X23382879Y-21743343D03*
X24032879Y-21743343D03*
X24682879Y-21743343D03*
X25332879Y-21743343D03*
X25982879Y-21743343D03*
X25982879Y-16018343D03*
X25332879Y-16018343D03*
X24682879Y-16018343D03*
X24032879Y-16018343D03*
X23382879Y-16018343D03*
X22732879Y-16018343D03*
X22082879Y-16018343D03*
X21432879Y-16018343D03*
%TD*%
D18*
%TO.C,C6*%
X37092000Y-2964000D03*
X33967000Y-2964000D03*
%TD*%
D14*
%TO.C,SW13*%
X4595000Y-50314000D03*
D15*
X9675000Y-50314000D03*
D14*
X14755000Y-50314000D03*
D16*
X12215000Y-45234000D03*
X5865000Y-47774000D03*
%TD*%
D13*
%TO.C,R17*%
X2555879Y-14862443D03*
X555879Y-14862443D03*
%TD*%
D19*
%TO.C,C17*%
X38457879Y-75238343D03*
X38457879Y-73163343D03*
%TD*%
D20*
%TO.C,R5*%
X40215879Y-7116843D03*
X42215879Y-7116843D03*
%TD*%
D12*
%TO.C,D4*%
X68565879Y-115164000D03*
X65765879Y-115164000D03*
%TD*%
%TO.C,D20*%
X68315879Y-39364000D03*
X65515879Y-39364000D03*
%TD*%
%TO.C,D5*%
X11165879Y-96164000D03*
X8365879Y-96164000D03*
%TD*%
D10*
%TO.C,D36*%
X68032879Y-55410843D03*
X68032879Y-54310843D03*
X66202879Y-54310843D03*
X66202879Y-55410843D03*
%TD*%
D12*
%TO.C,D9*%
X11265879Y-77164000D03*
X8465879Y-77164000D03*
%TD*%
D18*
%TO.C,C22*%
X4015879Y-22480843D03*
X890879Y-22480843D03*
%TD*%
D12*
%TO.C,D12*%
X68515879Y-77164000D03*
X65715879Y-77164000D03*
%TD*%
D10*
%TO.C,D23*%
X48952879Y-112310843D03*
X48952879Y-111210843D03*
X47122879Y-111210843D03*
X47122879Y-112310843D03*
%TD*%
D12*
%TO.C,D18*%
X30365879Y-39264000D03*
X27565879Y-39264000D03*
%TD*%
D21*
%TO.C,C8*%
X39995479Y957857D03*
X39995479Y-1117143D03*
%TD*%
D22*
%TO.C,Q3*%
X27929500Y-13514000D03*
X27929500Y-11614000D03*
X26054500Y-12564000D03*
%TD*%
D10*
%TO.C,D40*%
X67782879Y-36410843D03*
X67782879Y-35310843D03*
X65952879Y-35310843D03*
X65952879Y-36410843D03*
%TD*%
D23*
%TO.C,D46*%
X70798211Y-19266720D03*
X70798211Y-16466720D03*
%TD*%
D24*
%TO.C,D44*%
X13545335Y-23364000D03*
X16345335Y-23364000D03*
%TD*%
D12*
%TO.C,D10*%
X30265879Y-77164000D03*
X27465879Y-77164000D03*
%TD*%
D10*
%TO.C,D39*%
X49032879Y-36410843D03*
X49032879Y-35310843D03*
X47202879Y-35310843D03*
X47202879Y-36410843D03*
%TD*%
D14*
%TO.C,SW9*%
X4535000Y-69329000D03*
D15*
X9615000Y-69329000D03*
D14*
X14695000Y-69329000D03*
D16*
X12155000Y-64249000D03*
X5805000Y-66789000D03*
%TD*%
D25*
%TO.C,J7*%
X11192000Y-4520843D03*
D14*
X11192000Y-1980843D03*
X13732000Y-4520843D03*
X13732000Y-1980843D03*
X16272000Y-4520843D03*
X16272000Y-1980843D03*
X18812000Y-4520843D03*
X18812000Y-1980843D03*
X21352000Y-4520843D03*
X21352000Y-1980843D03*
X23892000Y-4520843D03*
X23892000Y-1980843D03*
X26432000Y-4520843D03*
X26432000Y-1980843D03*
X28972000Y-4520843D03*
X28972000Y-1980843D03*
%TD*%
%TO.C,SW8*%
X61700000Y-88413000D03*
D15*
X66780000Y-88413000D03*
D14*
X71860000Y-88413000D03*
D16*
X69320000Y-83333000D03*
X62970000Y-85873000D03*
%TD*%
D14*
%TO.C,SW4*%
X61712000Y-107464000D03*
D15*
X66792000Y-107464000D03*
D14*
X71872000Y-107464000D03*
D16*
X69332000Y-102384000D03*
X62982000Y-104924000D03*
%TD*%
D19*
%TO.C,C18*%
X38192000Y-94180843D03*
X38192000Y-92105843D03*
%TD*%
%TO.C,C14*%
X38092000Y-37385843D03*
X38092000Y-35310843D03*
%TD*%
D26*
%TO.C,C7*%
X37529500Y836000D03*
X35454500Y836000D03*
%TD*%
D14*
%TO.C,SW15*%
X42568000Y-50314000D03*
D15*
X47648000Y-50314000D03*
D14*
X52728000Y-50314000D03*
D16*
X50188000Y-45234000D03*
X43838000Y-47774000D03*
%TD*%
D27*
%TO.C,Q1*%
X22004500Y-6264000D03*
X22004500Y-8164000D03*
X23879500Y-7214000D03*
%TD*%
D28*
%TO.C,J6*%
X5587879Y-3190843D03*
X5587879Y-8970843D03*
D29*
X6662879Y-2880843D03*
X6662879Y-3680843D03*
D30*
X6662879Y-4830843D03*
X6662879Y-5830843D03*
X6662879Y-6330843D03*
X6662879Y-7330843D03*
D29*
X6662879Y-8480843D03*
X6662879Y-9280843D03*
X6662879Y-9280843D03*
X6662879Y-8480843D03*
D30*
X6662879Y-7830843D03*
X6662879Y-6830843D03*
X6662879Y-5330843D03*
X6662879Y-4330843D03*
D29*
X6662879Y-3680843D03*
X6662879Y-2880843D03*
D31*
X6087879Y-1760843D03*
D32*
X1907879Y-1760843D03*
D31*
X6087879Y-10400843D03*
D32*
X1907879Y-10400843D03*
%TD*%
D33*
%TO.C,L1*%
X17907879Y-12964000D03*
X17907879Y-8864000D03*
%TD*%
D10*
%TO.C,D25*%
X10782879Y-93310843D03*
X10782879Y-92210843D03*
X8952879Y-92210843D03*
X8952879Y-93310843D03*
%TD*%
D12*
%TO.C,D16*%
X68515879Y-58464000D03*
X65715879Y-58464000D03*
%TD*%
D34*
%TO.C,U4*%
X44217668Y957277D03*
X44217668Y-312723D03*
X44217668Y-1582723D03*
X44217668Y-2852723D03*
X44217668Y-4122723D03*
X44217668Y-5392723D03*
X44217668Y-6662723D03*
X44217668Y-7932723D03*
X44217668Y-9202723D03*
X44217668Y-10472723D03*
X44217668Y-11742723D03*
X44217668Y-13012723D03*
X44217668Y-14282723D03*
X44217668Y-15552723D03*
D35*
X45982668Y-16802723D03*
X47252668Y-16802723D03*
X48522668Y-16802723D03*
X49792668Y-16802723D03*
X51062668Y-16802723D03*
X52332668Y-16802723D03*
X53602668Y-16802723D03*
X54872668Y-16802723D03*
X56142668Y-16802723D03*
X57412668Y-16802723D03*
X58682668Y-16802723D03*
X59952668Y-16802723D03*
D34*
X61717668Y-15552723D03*
X61717668Y-14282723D03*
X61717668Y-13012723D03*
X61717668Y-11742723D03*
X61717668Y-10472723D03*
X61717668Y-9202723D03*
X61717668Y-7932723D03*
X61717668Y-6662723D03*
X61717668Y-5392723D03*
X61717668Y-4122723D03*
X61717668Y-2852723D03*
X61717668Y-1582723D03*
X61717668Y-312723D03*
X61717668Y957277D03*
D36*
X50067668Y-6062723D03*
X50067668Y-7462723D03*
X50767668Y-5362723D03*
X50767668Y-6762723D03*
X50767668Y-8162723D03*
X51467668Y-6062723D03*
D37*
X51467668Y-6762723D03*
D36*
X51467668Y-7462723D03*
X52167668Y-5362723D03*
X52167668Y-6762723D03*
X52167668Y-8162723D03*
X52867668Y-6062723D03*
X52867668Y-7462723D03*
%TD*%
D12*
%TO.C,D6*%
X30215879Y-96228000D03*
X27415879Y-96228000D03*
%TD*%
D14*
%TO.C,SW16*%
X61745000Y-50314000D03*
D15*
X66825000Y-50314000D03*
D14*
X71905000Y-50314000D03*
D16*
X69365000Y-45234000D03*
X63015000Y-47774000D03*
%TD*%
D38*
%TO.C,D43*%
X10745335Y-22064000D03*
X6745335Y-22064000D03*
%TD*%
D10*
%TO.C,D30*%
X29787879Y-74468343D03*
X29787879Y-73368343D03*
X27957879Y-73368343D03*
X27957879Y-74468343D03*
%TD*%
D13*
%TO.C,R16*%
X2555879Y-12887923D03*
X555879Y-12887923D03*
%TD*%
D12*
%TO.C,D11*%
X49265879Y-77164000D03*
X46465879Y-77164000D03*
%TD*%
D13*
%TO.C,R8*%
X19374235Y-20792000D03*
X17374235Y-20792000D03*
%TD*%
D39*
%TO.C,L2*%
X57392000Y-22464000D03*
X57392000Y-19664000D03*
%TD*%
D12*
%TO.C,D13*%
X11365879Y-58464000D03*
X8565879Y-58464000D03*
%TD*%
D18*
%TO.C,C1*%
X4292000Y1088757D03*
X1167000Y1088757D03*
%TD*%
D27*
%TO.C,Q6*%
X28317000Y-15114000D03*
X28317000Y-17014000D03*
X30192000Y-16064000D03*
%TD*%
D14*
%TO.C,SW18*%
X23518000Y-31391000D03*
D15*
X28598000Y-31391000D03*
D14*
X33678000Y-31391000D03*
D16*
X31138000Y-26311000D03*
X24788000Y-28851000D03*
%TD*%
D40*
%TO.C,C3*%
X26467000Y-8264000D03*
X32692000Y-8264000D03*
%TD*%
D10*
%TO.C,D34*%
X29782879Y-55310843D03*
X29782879Y-54210843D03*
X27952879Y-54210843D03*
X27952879Y-55310843D03*
%TD*%
D41*
%TO.C,R12*%
X66124611Y-16467720D03*
X66124611Y-18467720D03*
%TD*%
D13*
%TO.C,R3*%
X15192000Y-15464000D03*
X13192000Y-15464000D03*
%TD*%
D14*
%TO.C,SW19*%
X42568000Y-31391000D03*
D15*
X47648000Y-31391000D03*
D14*
X52728000Y-31391000D03*
D16*
X50188000Y-26311000D03*
X43838000Y-28851000D03*
%TD*%
D10*
%TO.C,D27*%
X49032879Y-93310843D03*
X49032879Y-92210843D03*
X47202879Y-92210843D03*
X47202879Y-93310843D03*
%TD*%
D12*
%TO.C,D8*%
X68415879Y-96164000D03*
X65615879Y-96164000D03*
%TD*%
D14*
%TO.C,SW1*%
X4508000Y-107464000D03*
D15*
X9588000Y-107464000D03*
D14*
X14668000Y-107464000D03*
D16*
X12128000Y-102384000D03*
X5778000Y-104924000D03*
%TD*%
D42*
%TO.C,C2*%
X11292000Y-6939000D03*
X11292000Y-13164000D03*
%TD*%
D23*
%TO.C,D45*%
X68492000Y-19264000D03*
X68492000Y-16464000D03*
%TD*%
D10*
%TO.C,D22*%
X29867879Y-112310843D03*
X29867879Y-111210843D03*
X28037879Y-111210843D03*
X28037879Y-112310843D03*
%TD*%
D19*
%TO.C,C19*%
X38292000Y-113130843D03*
X38292000Y-111055843D03*
%TD*%
D10*
%TO.C,D33*%
X11032879Y-55410843D03*
X11032879Y-54310843D03*
X9202879Y-54310843D03*
X9202879Y-55410843D03*
%TD*%
%TO.C,D37*%
X10782879Y-36310843D03*
X10782879Y-35210843D03*
X8952879Y-35210843D03*
X8952879Y-36310843D03*
%TD*%
D43*
%TO.C,Q5*%
X11230835Y-19374000D03*
X11230835Y-18104000D03*
X11230835Y-16834000D03*
X11230835Y-15564000D03*
X5980835Y-15564000D03*
X5980835Y-16834000D03*
X5980835Y-18104000D03*
X5980835Y-19374000D03*
%TD*%
D26*
%TO.C,C5*%
X30329500Y-20864000D03*
X28254500Y-20864000D03*
%TD*%
D44*
%TO.C,SW21*%
X67071603Y-13716567D03*
D45*
X72071603Y-13716567D03*
X69571603Y-13716567D03*
D46*
X63971603Y-6216567D03*
X75171603Y-6216567D03*
D45*
X72071603Y783433D03*
X67071603Y783433D03*
%TD*%
D10*
%TO.C,D24*%
X68032879Y-112310843D03*
X68032879Y-111210843D03*
X66202879Y-111210843D03*
X66202879Y-112310843D03*
%TD*%
D12*
%TO.C,D2*%
X30265879Y-115414000D03*
X27465879Y-115414000D03*
%TD*%
D14*
%TO.C,SW7*%
X42650000Y-88413000D03*
D15*
X47730000Y-88413000D03*
D14*
X52810000Y-88413000D03*
D16*
X50270000Y-83333000D03*
X43920000Y-85873000D03*
%TD*%
D10*
%TO.C,D21*%
X10702879Y-112310843D03*
X10702879Y-111210843D03*
X8872879Y-111210843D03*
X8872879Y-112310843D03*
%TD*%
D13*
%TO.C,R4*%
X15345335Y-20964000D03*
X13345335Y-20964000D03*
%TD*%
D47*
%TO.C,L3*%
X60592000Y-19664000D03*
X60592000Y-22464000D03*
%TD*%
D26*
%TO.C,C24*%
X30329500Y-22864000D03*
X28254500Y-22864000D03*
%TD*%
D11*
%TO.C,U5*%
X24079500Y-13514000D03*
X24079500Y-11614000D03*
X21804500Y-12564000D03*
%TD*%
%TO.C,U2*%
X19720435Y-17082500D03*
X19720435Y-16132500D03*
X19720435Y-15182500D03*
X17445435Y-15182500D03*
X17445435Y-17082500D03*
%TD*%
D14*
%TO.C,SW10*%
X23518000Y-69363000D03*
D15*
X28598000Y-69363000D03*
D14*
X33678000Y-69363000D03*
D16*
X31138000Y-64283000D03*
X24788000Y-66823000D03*
%TD*%
D10*
%TO.C,D35*%
X48782879Y-55410843D03*
X48782879Y-54310843D03*
X46952879Y-54310843D03*
X46952879Y-55410843D03*
%TD*%
%TO.C,D26*%
X29782879Y-93410843D03*
X29782879Y-92310843D03*
X27952879Y-92310843D03*
X27952879Y-93410843D03*
%TD*%
D14*
%TO.C,SW3*%
X42608000Y-107464000D03*
D15*
X47688000Y-107464000D03*
D14*
X52768000Y-107464000D03*
D16*
X50228000Y-102384000D03*
X43878000Y-104924000D03*
%TD*%
D12*
%TO.C,D19*%
X49565879Y-39514000D03*
X46765879Y-39514000D03*
%TD*%
D10*
%TO.C,D31*%
X49037879Y-74568343D03*
X49037879Y-73468343D03*
X47207879Y-73468343D03*
X47207879Y-74568343D03*
%TD*%
D13*
%TO.C,R9*%
X19323435Y-18809800D03*
X17323435Y-18809800D03*
%TD*%
D10*
%TO.C,D28*%
X68032879Y-93310843D03*
X68032879Y-92210843D03*
X66202879Y-92210843D03*
X66202879Y-93310843D03*
%TD*%
D22*
%TO.C,Q2*%
X31829500Y-13514000D03*
X31829500Y-11614000D03*
X29954500Y-12564000D03*
%TD*%
D48*
%TO.C,R1*%
X19292000Y-27564000D03*
X19292000Y-25564000D03*
%TD*%
D14*
%TO.C,SW12*%
X61745000Y-69364000D03*
D15*
X66825000Y-69364000D03*
D14*
X71905000Y-69364000D03*
D16*
X69365000Y-64284000D03*
X63015000Y-66824000D03*
%TD*%
D14*
%TO.C,SW14*%
X23518000Y-50314000D03*
D15*
X28598000Y-50314000D03*
D14*
X33678000Y-50314000D03*
D16*
X31138000Y-45234000D03*
X24788000Y-47774000D03*
%TD*%
D12*
%TO.C,D14*%
X30015879Y-58464000D03*
X27215879Y-58464000D03*
%TD*%
%TO.C,D17*%
X11265879Y-39114000D03*
X8465879Y-39114000D03*
%TD*%
D26*
%TO.C,C4*%
X42253379Y-3116843D03*
X40178379Y-3116843D03*
%TD*%
D12*
%TO.C,D15*%
X49265879Y-58464000D03*
X46465879Y-58464000D03*
%TD*%
D14*
%TO.C,SW6*%
X23473000Y-88413000D03*
D15*
X28553000Y-88413000D03*
D14*
X33633000Y-88413000D03*
D16*
X31093000Y-83333000D03*
X24743000Y-85873000D03*
%TD*%
D14*
%TO.C,SW2*%
X23485000Y-107464000D03*
D15*
X28565000Y-107464000D03*
D14*
X33645000Y-107464000D03*
D16*
X31105000Y-102384000D03*
X24755000Y-104924000D03*
%TD*%
D14*
%TO.C,SW17*%
X4595000Y-31391000D03*
D15*
X9675000Y-31391000D03*
D14*
X14755000Y-31391000D03*
D16*
X12215000Y-26311000D03*
X5865000Y-28851000D03*
%TD*%
D20*
%TO.C,R7*%
X22042000Y-9914000D03*
X24042000Y-9914000D03*
%TD*%
D12*
%TO.C,D7*%
X49415879Y-96164000D03*
X46615879Y-96164000D03*
%TD*%
%TO.C,D3*%
X49415879Y-115164000D03*
X46615879Y-115164000D03*
%TD*%
D49*
%TO.C,J1*%
X40757879Y-12530843D03*
X40757879Y-13030843D03*
X40757879Y-13530843D03*
X40757879Y-14030843D03*
X40757879Y-14530843D03*
X40757879Y-15030843D03*
X40757879Y-15530843D03*
X40757879Y-16030843D03*
X40757879Y-16530843D03*
X40757879Y-17030843D03*
X40757879Y-17530843D03*
X40757879Y-18030843D03*
X40757879Y-18530843D03*
X40757879Y-19030843D03*
D50*
X37507879Y-10630843D03*
X37507879Y-20930843D03*
%TD*%
D13*
%TO.C,R6*%
X42215879Y-5116843D03*
X40215879Y-5116843D03*
%TD*%
D20*
%TO.C,R11*%
X5092000Y-13064000D03*
X7092000Y-13064000D03*
%TD*%
D14*
%TO.C,SW20*%
X61658000Y-31391000D03*
D15*
X66738000Y-31391000D03*
D14*
X71818000Y-31391000D03*
D16*
X69278000Y-26311000D03*
X62928000Y-28851000D03*
%TD*%
D21*
%TO.C,C21*%
X54792000Y-20364000D03*
X54792000Y-22439000D03*
%TD*%
D10*
%TO.C,D29*%
X10787879Y-74468343D03*
X10787879Y-73368343D03*
X8957879Y-73368343D03*
X8957879Y-74468343D03*
%TD*%
D41*
%TO.C,R14*%
X41976679Y853557D03*
X41976679Y-1146443D03*
%TD*%
D14*
%TO.C,SW5*%
X4508000Y-88414000D03*
D15*
X9588000Y-88414000D03*
D14*
X14668000Y-88414000D03*
D16*
X12128000Y-83334000D03*
X5778000Y-85874000D03*
%TD*%
D21*
%TO.C,C20*%
X63192000Y-20326500D03*
X63192000Y-22401500D03*
%TD*%
D19*
%TO.C,C16*%
X38192000Y-56155843D03*
X38192000Y-54080843D03*
%TD*%
D10*
%TO.C,D32*%
X68037879Y-74568343D03*
X68037879Y-73468343D03*
X66207879Y-73468343D03*
X66207879Y-74568343D03*
%TD*%
M02*
