%TF.GenerationSoftware,KiCad,Pcbnew,8.0.9-8.0.9-0~ubuntu22.04.1*%
%TF.CreationDate,2026-01-28T22:17:52+00:00*%
%TF.ProjectId,numcalcium,6e756d63-616c-4636-9975-6d2e6b696361,rev?*%
%TF.SameCoordinates,Original*%
%TF.FileFunction,Legend,Top*%
%TF.FilePolarity,Positive*%
%FSLAX46Y46*%
G04 Gerber Fmt 4.6, Leading zero omitted, Abs format (unit mm)*
G04 Created by KiCad (PCBNEW 8.0.9-8.0.9-0~ubuntu22.04.1) date 2026-01-28 22:17:52*
%MOMM*%
%LPD*%
G01*
G04 APERTURE LIST*
%ADD10C,0.125000*%
%ADD11C,0.150000*%
%ADD12C,0.120000*%
G04 APERTURE END LIST*
D10*
X37794381Y-33988809D02*
X37508667Y-33988809D01*
X37651524Y-33988809D02*
X37651524Y-33488809D01*
X37651524Y-33488809D02*
X37603905Y-33560238D01*
X37603905Y-33560238D02*
X37556286Y-33607857D01*
X37556286Y-33607857D02*
X37508667Y-33631666D01*
X38222952Y-33655476D02*
X38222952Y-33988809D01*
X38008666Y-33655476D02*
X38008666Y-33917380D01*
X38008666Y-33917380D02*
X38032476Y-33965000D01*
X38032476Y-33965000D02*
X38080095Y-33988809D01*
X38080095Y-33988809D02*
X38151523Y-33988809D01*
X38151523Y-33988809D02*
X38199142Y-33965000D01*
X38199142Y-33965000D02*
X38222952Y-33941190D01*
X38627714Y-33726904D02*
X38461047Y-33726904D01*
X38461047Y-33988809D02*
X38461047Y-33488809D01*
X38461047Y-33488809D02*
X38699142Y-33488809D01*
X59722953Y-23555476D02*
X59722953Y-23888809D01*
X59603905Y-23365000D02*
X59484858Y-23722142D01*
X59484858Y-23722142D02*
X59794381Y-23722142D01*
X59937238Y-23388809D02*
X60270571Y-23388809D01*
X60270571Y-23388809D02*
X60056286Y-23888809D01*
X60556285Y-23388809D02*
X60603904Y-23388809D01*
X60603904Y-23388809D02*
X60651523Y-23412619D01*
X60651523Y-23412619D02*
X60675333Y-23436428D01*
X60675333Y-23436428D02*
X60699142Y-23484047D01*
X60699142Y-23484047D02*
X60722952Y-23579285D01*
X60722952Y-23579285D02*
X60722952Y-23698333D01*
X60722952Y-23698333D02*
X60699142Y-23793571D01*
X60699142Y-23793571D02*
X60675333Y-23841190D01*
X60675333Y-23841190D02*
X60651523Y-23865000D01*
X60651523Y-23865000D02*
X60603904Y-23888809D01*
X60603904Y-23888809D02*
X60556285Y-23888809D01*
X60556285Y-23888809D02*
X60508666Y-23865000D01*
X60508666Y-23865000D02*
X60484857Y-23841190D01*
X60484857Y-23841190D02*
X60461047Y-23793571D01*
X60461047Y-23793571D02*
X60437238Y-23698333D01*
X60437238Y-23698333D02*
X60437238Y-23579285D01*
X60437238Y-23579285D02*
X60461047Y-23484047D01*
X60461047Y-23484047D02*
X60484857Y-23436428D01*
X60484857Y-23436428D02*
X60508666Y-23412619D01*
X60508666Y-23412619D02*
X60556285Y-23388809D01*
X61151523Y-23555476D02*
X61151523Y-23888809D01*
X60937237Y-23555476D02*
X60937237Y-23817380D01*
X60937237Y-23817380D02*
X60961047Y-23865000D01*
X60961047Y-23865000D02*
X61008666Y-23888809D01*
X61008666Y-23888809D02*
X61080094Y-23888809D01*
X61080094Y-23888809D02*
X61127713Y-23865000D01*
X61127713Y-23865000D02*
X61151523Y-23841190D01*
X61389618Y-23888809D02*
X61389618Y-23388809D01*
X61389618Y-23626904D02*
X61675332Y-23626904D01*
X61675332Y-23888809D02*
X61675332Y-23388809D01*
X36194381Y-688809D02*
X35908667Y-688809D01*
X36051524Y-688809D02*
X36051524Y-188809D01*
X36051524Y-188809D02*
X36003905Y-260238D01*
X36003905Y-260238D02*
X35956286Y-307857D01*
X35956286Y-307857D02*
X35908667Y-331666D01*
X36622952Y-355476D02*
X36622952Y-688809D01*
X36408666Y-355476D02*
X36408666Y-617380D01*
X36408666Y-617380D02*
X36432476Y-665000D01*
X36432476Y-665000D02*
X36480095Y-688809D01*
X36480095Y-688809D02*
X36551523Y-688809D01*
X36551523Y-688809D02*
X36599142Y-665000D01*
X36599142Y-665000D02*
X36622952Y-641190D01*
X37027714Y-426904D02*
X36861047Y-426904D01*
X36861047Y-688809D02*
X36861047Y-188809D01*
X36861047Y-188809D02*
X37099142Y-188809D01*
X22116809Y-7394952D02*
X21616809Y-7394952D01*
X21616809Y-7394952D02*
X21616809Y-7204476D01*
X21616809Y-7204476D02*
X21640619Y-7156857D01*
X21640619Y-7156857D02*
X21664428Y-7133047D01*
X21664428Y-7133047D02*
X21712047Y-7109238D01*
X21712047Y-7109238D02*
X21783476Y-7109238D01*
X21783476Y-7109238D02*
X21831095Y-7133047D01*
X21831095Y-7133047D02*
X21854904Y-7156857D01*
X21854904Y-7156857D02*
X21878714Y-7204476D01*
X21878714Y-7204476D02*
X21878714Y-7394952D01*
X37894381Y-52588809D02*
X37608667Y-52588809D01*
X37751524Y-52588809D02*
X37751524Y-52088809D01*
X37751524Y-52088809D02*
X37703905Y-52160238D01*
X37703905Y-52160238D02*
X37656286Y-52207857D01*
X37656286Y-52207857D02*
X37608667Y-52231666D01*
X38322952Y-52255476D02*
X38322952Y-52588809D01*
X38108666Y-52255476D02*
X38108666Y-52517380D01*
X38108666Y-52517380D02*
X38132476Y-52565000D01*
X38132476Y-52565000D02*
X38180095Y-52588809D01*
X38180095Y-52588809D02*
X38251523Y-52588809D01*
X38251523Y-52588809D02*
X38299142Y-52565000D01*
X38299142Y-52565000D02*
X38322952Y-52541190D01*
X38727714Y-52326904D02*
X38561047Y-52326904D01*
X38561047Y-52588809D02*
X38561047Y-52088809D01*
X38561047Y-52088809D02*
X38799142Y-52088809D01*
X38094381Y-109688809D02*
X37808667Y-109688809D01*
X37951524Y-109688809D02*
X37951524Y-109188809D01*
X37951524Y-109188809D02*
X37903905Y-109260238D01*
X37903905Y-109260238D02*
X37856286Y-109307857D01*
X37856286Y-109307857D02*
X37808667Y-109331666D01*
X38522952Y-109355476D02*
X38522952Y-109688809D01*
X38308666Y-109355476D02*
X38308666Y-109617380D01*
X38308666Y-109617380D02*
X38332476Y-109665000D01*
X38332476Y-109665000D02*
X38380095Y-109688809D01*
X38380095Y-109688809D02*
X38451523Y-109688809D01*
X38451523Y-109688809D02*
X38499142Y-109665000D01*
X38499142Y-109665000D02*
X38522952Y-109641190D01*
X38927714Y-109426904D02*
X38761047Y-109426904D01*
X38761047Y-109688809D02*
X38761047Y-109188809D01*
X38761047Y-109188809D02*
X38999142Y-109188809D01*
X62532477Y-23436428D02*
X62556286Y-23412619D01*
X62556286Y-23412619D02*
X62603905Y-23388809D01*
X62603905Y-23388809D02*
X62722953Y-23388809D01*
X62722953Y-23388809D02*
X62770572Y-23412619D01*
X62770572Y-23412619D02*
X62794381Y-23436428D01*
X62794381Y-23436428D02*
X62818191Y-23484047D01*
X62818191Y-23484047D02*
X62818191Y-23531666D01*
X62818191Y-23531666D02*
X62794381Y-23603095D01*
X62794381Y-23603095D02*
X62508667Y-23888809D01*
X62508667Y-23888809D02*
X62818191Y-23888809D01*
X63008667Y-23436428D02*
X63032476Y-23412619D01*
X63032476Y-23412619D02*
X63080095Y-23388809D01*
X63080095Y-23388809D02*
X63199143Y-23388809D01*
X63199143Y-23388809D02*
X63246762Y-23412619D01*
X63246762Y-23412619D02*
X63270571Y-23436428D01*
X63270571Y-23436428D02*
X63294381Y-23484047D01*
X63294381Y-23484047D02*
X63294381Y-23531666D01*
X63294381Y-23531666D02*
X63270571Y-23603095D01*
X63270571Y-23603095D02*
X62984857Y-23888809D01*
X62984857Y-23888809D02*
X63294381Y-23888809D01*
X63603904Y-23388809D02*
X63651523Y-23388809D01*
X63651523Y-23388809D02*
X63699142Y-23412619D01*
X63699142Y-23412619D02*
X63722952Y-23436428D01*
X63722952Y-23436428D02*
X63746761Y-23484047D01*
X63746761Y-23484047D02*
X63770571Y-23579285D01*
X63770571Y-23579285D02*
X63770571Y-23698333D01*
X63770571Y-23698333D02*
X63746761Y-23793571D01*
X63746761Y-23793571D02*
X63722952Y-23841190D01*
X63722952Y-23841190D02*
X63699142Y-23865000D01*
X63699142Y-23865000D02*
X63651523Y-23888809D01*
X63651523Y-23888809D02*
X63603904Y-23888809D01*
X63603904Y-23888809D02*
X63556285Y-23865000D01*
X63556285Y-23865000D02*
X63532476Y-23841190D01*
X63532476Y-23841190D02*
X63508666Y-23793571D01*
X63508666Y-23793571D02*
X63484857Y-23698333D01*
X63484857Y-23698333D02*
X63484857Y-23579285D01*
X63484857Y-23579285D02*
X63508666Y-23484047D01*
X63508666Y-23484047D02*
X63532476Y-23436428D01*
X63532476Y-23436428D02*
X63556285Y-23412619D01*
X63556285Y-23412619D02*
X63603904Y-23388809D01*
X63984856Y-23555476D02*
X63984856Y-23888809D01*
X63984856Y-23603095D02*
X64008666Y-23579285D01*
X64008666Y-23579285D02*
X64056285Y-23555476D01*
X64056285Y-23555476D02*
X64127713Y-23555476D01*
X64127713Y-23555476D02*
X64175332Y-23579285D01*
X64175332Y-23579285D02*
X64199142Y-23626904D01*
X64199142Y-23626904D02*
X64199142Y-23888809D01*
X64603904Y-23626904D02*
X64437237Y-23626904D01*
X64437237Y-23888809D02*
X64437237Y-23388809D01*
X64437237Y-23388809D02*
X64675332Y-23388809D01*
X20283476Y-19109237D02*
X20616809Y-19109237D01*
X20093000Y-19228285D02*
X20450142Y-19347332D01*
X20450142Y-19347332D02*
X20450142Y-19037809D01*
X20116809Y-18894952D02*
X20116809Y-18561619D01*
X20116809Y-18561619D02*
X20616809Y-18775904D01*
X20616809Y-18371143D02*
X20116809Y-18371143D01*
X20426333Y-18323524D02*
X20616809Y-18180667D01*
X20283476Y-18180667D02*
X20473952Y-18371143D01*
X53332477Y-23436428D02*
X53356286Y-23412619D01*
X53356286Y-23412619D02*
X53403905Y-23388809D01*
X53403905Y-23388809D02*
X53522953Y-23388809D01*
X53522953Y-23388809D02*
X53570572Y-23412619D01*
X53570572Y-23412619D02*
X53594381Y-23436428D01*
X53594381Y-23436428D02*
X53618191Y-23484047D01*
X53618191Y-23484047D02*
X53618191Y-23531666D01*
X53618191Y-23531666D02*
X53594381Y-23603095D01*
X53594381Y-23603095D02*
X53308667Y-23888809D01*
X53308667Y-23888809D02*
X53618191Y-23888809D01*
X53808667Y-23436428D02*
X53832476Y-23412619D01*
X53832476Y-23412619D02*
X53880095Y-23388809D01*
X53880095Y-23388809D02*
X53999143Y-23388809D01*
X53999143Y-23388809D02*
X54046762Y-23412619D01*
X54046762Y-23412619D02*
X54070571Y-23436428D01*
X54070571Y-23436428D02*
X54094381Y-23484047D01*
X54094381Y-23484047D02*
X54094381Y-23531666D01*
X54094381Y-23531666D02*
X54070571Y-23603095D01*
X54070571Y-23603095D02*
X53784857Y-23888809D01*
X53784857Y-23888809D02*
X54094381Y-23888809D01*
X54403904Y-23388809D02*
X54451523Y-23388809D01*
X54451523Y-23388809D02*
X54499142Y-23412619D01*
X54499142Y-23412619D02*
X54522952Y-23436428D01*
X54522952Y-23436428D02*
X54546761Y-23484047D01*
X54546761Y-23484047D02*
X54570571Y-23579285D01*
X54570571Y-23579285D02*
X54570571Y-23698333D01*
X54570571Y-23698333D02*
X54546761Y-23793571D01*
X54546761Y-23793571D02*
X54522952Y-23841190D01*
X54522952Y-23841190D02*
X54499142Y-23865000D01*
X54499142Y-23865000D02*
X54451523Y-23888809D01*
X54451523Y-23888809D02*
X54403904Y-23888809D01*
X54403904Y-23888809D02*
X54356285Y-23865000D01*
X54356285Y-23865000D02*
X54332476Y-23841190D01*
X54332476Y-23841190D02*
X54308666Y-23793571D01*
X54308666Y-23793571D02*
X54284857Y-23698333D01*
X54284857Y-23698333D02*
X54284857Y-23579285D01*
X54284857Y-23579285D02*
X54308666Y-23484047D01*
X54308666Y-23484047D02*
X54332476Y-23436428D01*
X54332476Y-23436428D02*
X54356285Y-23412619D01*
X54356285Y-23412619D02*
X54403904Y-23388809D01*
X54784856Y-23555476D02*
X54784856Y-23888809D01*
X54784856Y-23603095D02*
X54808666Y-23579285D01*
X54808666Y-23579285D02*
X54856285Y-23555476D01*
X54856285Y-23555476D02*
X54927713Y-23555476D01*
X54927713Y-23555476D02*
X54975332Y-23579285D01*
X54975332Y-23579285D02*
X54999142Y-23626904D01*
X54999142Y-23626904D02*
X54999142Y-23888809D01*
X55403904Y-23626904D02*
X55237237Y-23626904D01*
X55237237Y-23888809D02*
X55237237Y-23388809D01*
X55237237Y-23388809D02*
X55475332Y-23388809D01*
X31916809Y-20961618D02*
X31916809Y-21247332D01*
X31916809Y-21104475D02*
X31416809Y-21104475D01*
X31416809Y-21104475D02*
X31488238Y-21152094D01*
X31488238Y-21152094D02*
X31535857Y-21199713D01*
X31535857Y-21199713D02*
X31559666Y-21247332D01*
X31583476Y-20533047D02*
X31916809Y-20533047D01*
X31583476Y-20747333D02*
X31845380Y-20747333D01*
X31845380Y-20747333D02*
X31893000Y-20723523D01*
X31893000Y-20723523D02*
X31916809Y-20675904D01*
X31916809Y-20675904D02*
X31916809Y-20604476D01*
X31916809Y-20604476D02*
X31893000Y-20556857D01*
X31893000Y-20556857D02*
X31869190Y-20533047D01*
X31654904Y-20128285D02*
X31654904Y-20294952D01*
X31916809Y-20294952D02*
X31416809Y-20294952D01*
X31416809Y-20294952D02*
X31416809Y-20056857D01*
X34716809Y-8737808D02*
X34716809Y-9023522D01*
X34716809Y-8880665D02*
X34216809Y-8880665D01*
X34216809Y-8880665D02*
X34288238Y-8928284D01*
X34288238Y-8928284D02*
X34335857Y-8975903D01*
X34335857Y-8975903D02*
X34359666Y-9023522D01*
X34216809Y-8428285D02*
X34216809Y-8380666D01*
X34216809Y-8380666D02*
X34240619Y-8333047D01*
X34240619Y-8333047D02*
X34264428Y-8309237D01*
X34264428Y-8309237D02*
X34312047Y-8285428D01*
X34312047Y-8285428D02*
X34407285Y-8261618D01*
X34407285Y-8261618D02*
X34526333Y-8261618D01*
X34526333Y-8261618D02*
X34621571Y-8285428D01*
X34621571Y-8285428D02*
X34669190Y-8309237D01*
X34669190Y-8309237D02*
X34693000Y-8333047D01*
X34693000Y-8333047D02*
X34716809Y-8380666D01*
X34716809Y-8380666D02*
X34716809Y-8428285D01*
X34716809Y-8428285D02*
X34693000Y-8475904D01*
X34693000Y-8475904D02*
X34669190Y-8499713D01*
X34669190Y-8499713D02*
X34621571Y-8523523D01*
X34621571Y-8523523D02*
X34526333Y-8547332D01*
X34526333Y-8547332D02*
X34407285Y-8547332D01*
X34407285Y-8547332D02*
X34312047Y-8523523D01*
X34312047Y-8523523D02*
X34264428Y-8499713D01*
X34264428Y-8499713D02*
X34240619Y-8475904D01*
X34240619Y-8475904D02*
X34216809Y-8428285D01*
X34216809Y-7952095D02*
X34216809Y-7904476D01*
X34216809Y-7904476D02*
X34240619Y-7856857D01*
X34240619Y-7856857D02*
X34264428Y-7833047D01*
X34264428Y-7833047D02*
X34312047Y-7809238D01*
X34312047Y-7809238D02*
X34407285Y-7785428D01*
X34407285Y-7785428D02*
X34526333Y-7785428D01*
X34526333Y-7785428D02*
X34621571Y-7809238D01*
X34621571Y-7809238D02*
X34669190Y-7833047D01*
X34669190Y-7833047D02*
X34693000Y-7856857D01*
X34693000Y-7856857D02*
X34716809Y-7904476D01*
X34716809Y-7904476D02*
X34716809Y-7952095D01*
X34716809Y-7952095D02*
X34693000Y-7999714D01*
X34693000Y-7999714D02*
X34669190Y-8023523D01*
X34669190Y-8023523D02*
X34621571Y-8047333D01*
X34621571Y-8047333D02*
X34526333Y-8071142D01*
X34526333Y-8071142D02*
X34407285Y-8071142D01*
X34407285Y-8071142D02*
X34312047Y-8047333D01*
X34312047Y-8047333D02*
X34264428Y-8023523D01*
X34264428Y-8023523D02*
X34240619Y-7999714D01*
X34240619Y-7999714D02*
X34216809Y-7952095D01*
X34383476Y-7356857D02*
X34716809Y-7356857D01*
X34383476Y-7571143D02*
X34645380Y-7571143D01*
X34645380Y-7571143D02*
X34693000Y-7547333D01*
X34693000Y-7547333D02*
X34716809Y-7499714D01*
X34716809Y-7499714D02*
X34716809Y-7428286D01*
X34716809Y-7428286D02*
X34693000Y-7380667D01*
X34693000Y-7380667D02*
X34669190Y-7356857D01*
X34454904Y-6952095D02*
X34454904Y-7118762D01*
X34716809Y-7118762D02*
X34216809Y-7118762D01*
X34216809Y-7118762D02*
X34216809Y-6880667D01*
X34770572Y-4236428D02*
X34794381Y-4212619D01*
X34794381Y-4212619D02*
X34842000Y-4188809D01*
X34842000Y-4188809D02*
X34961048Y-4188809D01*
X34961048Y-4188809D02*
X35008667Y-4212619D01*
X35008667Y-4212619D02*
X35032476Y-4236428D01*
X35032476Y-4236428D02*
X35056286Y-4284047D01*
X35056286Y-4284047D02*
X35056286Y-4331666D01*
X35056286Y-4331666D02*
X35032476Y-4403095D01*
X35032476Y-4403095D02*
X34746762Y-4688809D01*
X34746762Y-4688809D02*
X35056286Y-4688809D01*
X35246762Y-4236428D02*
X35270571Y-4212619D01*
X35270571Y-4212619D02*
X35318190Y-4188809D01*
X35318190Y-4188809D02*
X35437238Y-4188809D01*
X35437238Y-4188809D02*
X35484857Y-4212619D01*
X35484857Y-4212619D02*
X35508666Y-4236428D01*
X35508666Y-4236428D02*
X35532476Y-4284047D01*
X35532476Y-4284047D02*
X35532476Y-4331666D01*
X35532476Y-4331666D02*
X35508666Y-4403095D01*
X35508666Y-4403095D02*
X35222952Y-4688809D01*
X35222952Y-4688809D02*
X35532476Y-4688809D01*
X35961047Y-4355476D02*
X35961047Y-4688809D01*
X35746761Y-4355476D02*
X35746761Y-4617380D01*
X35746761Y-4617380D02*
X35770571Y-4665000D01*
X35770571Y-4665000D02*
X35818190Y-4688809D01*
X35818190Y-4688809D02*
X35889618Y-4688809D01*
X35889618Y-4688809D02*
X35937237Y-4665000D01*
X35937237Y-4665000D02*
X35961047Y-4641190D01*
X36365809Y-4426904D02*
X36199142Y-4426904D01*
X36199142Y-4688809D02*
X36199142Y-4188809D01*
X36199142Y-4188809D02*
X36437237Y-4188809D01*
X38816809Y-7671142D02*
X38816809Y-7361618D01*
X38816809Y-7361618D02*
X39007285Y-7528285D01*
X39007285Y-7528285D02*
X39007285Y-7456856D01*
X39007285Y-7456856D02*
X39031095Y-7409237D01*
X39031095Y-7409237D02*
X39054904Y-7385428D01*
X39054904Y-7385428D02*
X39102523Y-7361618D01*
X39102523Y-7361618D02*
X39221571Y-7361618D01*
X39221571Y-7361618D02*
X39269190Y-7385428D01*
X39269190Y-7385428D02*
X39293000Y-7409237D01*
X39293000Y-7409237D02*
X39316809Y-7456856D01*
X39316809Y-7456856D02*
X39316809Y-7599713D01*
X39316809Y-7599713D02*
X39293000Y-7647332D01*
X39293000Y-7647332D02*
X39269190Y-7671142D01*
X38816809Y-7194952D02*
X38816809Y-6885428D01*
X38816809Y-6885428D02*
X39007285Y-7052095D01*
X39007285Y-7052095D02*
X39007285Y-6980666D01*
X39007285Y-6980666D02*
X39031095Y-6933047D01*
X39031095Y-6933047D02*
X39054904Y-6909238D01*
X39054904Y-6909238D02*
X39102523Y-6885428D01*
X39102523Y-6885428D02*
X39221571Y-6885428D01*
X39221571Y-6885428D02*
X39269190Y-6909238D01*
X39269190Y-6909238D02*
X39293000Y-6933047D01*
X39293000Y-6933047D02*
X39316809Y-6980666D01*
X39316809Y-6980666D02*
X39316809Y-7123523D01*
X39316809Y-7123523D02*
X39293000Y-7171142D01*
X39293000Y-7171142D02*
X39269190Y-7194952D01*
X39316809Y-6671143D02*
X38816809Y-6671143D01*
X39126333Y-6623524D02*
X39316809Y-6480667D01*
X38983476Y-6480667D02*
X39173952Y-6671143D01*
X41584857Y2411190D02*
X41894381Y2411190D01*
X41894381Y2411190D02*
X41727714Y2220714D01*
X41727714Y2220714D02*
X41799143Y2220714D01*
X41799143Y2220714D02*
X41846762Y2196904D01*
X41846762Y2196904D02*
X41870571Y2173095D01*
X41870571Y2173095D02*
X41894381Y2125476D01*
X41894381Y2125476D02*
X41894381Y2006428D01*
X41894381Y2006428D02*
X41870571Y1958809D01*
X41870571Y1958809D02*
X41846762Y1935000D01*
X41846762Y1935000D02*
X41799143Y1911190D01*
X41799143Y1911190D02*
X41656286Y1911190D01*
X41656286Y1911190D02*
X41608667Y1935000D01*
X41608667Y1935000D02*
X41584857Y1958809D01*
X42061047Y2411190D02*
X42370571Y2411190D01*
X42370571Y2411190D02*
X42203904Y2220714D01*
X42203904Y2220714D02*
X42275333Y2220714D01*
X42275333Y2220714D02*
X42322952Y2196904D01*
X42322952Y2196904D02*
X42346761Y2173095D01*
X42346761Y2173095D02*
X42370571Y2125476D01*
X42370571Y2125476D02*
X42370571Y2006428D01*
X42370571Y2006428D02*
X42346761Y1958809D01*
X42346761Y1958809D02*
X42322952Y1935000D01*
X42322952Y1935000D02*
X42275333Y1911190D01*
X42275333Y1911190D02*
X42132476Y1911190D01*
X42132476Y1911190D02*
X42084857Y1935000D01*
X42084857Y1935000D02*
X42061047Y1958809D01*
X42584856Y1911190D02*
X42584856Y2411190D01*
X42632475Y2101666D02*
X42775332Y1911190D01*
X42775332Y2244523D02*
X42584856Y2054047D01*
X32116809Y-12706857D02*
X31616809Y-12706857D01*
X31616809Y-12706857D02*
X32116809Y-12421143D01*
X32116809Y-12421143D02*
X31616809Y-12421143D01*
X20264428Y-21785427D02*
X20240619Y-21761618D01*
X20240619Y-21761618D02*
X20216809Y-21713999D01*
X20216809Y-21713999D02*
X20216809Y-21594951D01*
X20216809Y-21594951D02*
X20240619Y-21547332D01*
X20240619Y-21547332D02*
X20264428Y-21523523D01*
X20264428Y-21523523D02*
X20312047Y-21499713D01*
X20312047Y-21499713D02*
X20359666Y-21499713D01*
X20359666Y-21499713D02*
X20431095Y-21523523D01*
X20431095Y-21523523D02*
X20716809Y-21809237D01*
X20716809Y-21809237D02*
X20716809Y-21499713D01*
X20264428Y-21309237D02*
X20240619Y-21285428D01*
X20240619Y-21285428D02*
X20216809Y-21237809D01*
X20216809Y-21237809D02*
X20216809Y-21118761D01*
X20216809Y-21118761D02*
X20240619Y-21071142D01*
X20240619Y-21071142D02*
X20264428Y-21047333D01*
X20264428Y-21047333D02*
X20312047Y-21023523D01*
X20312047Y-21023523D02*
X20359666Y-21023523D01*
X20359666Y-21023523D02*
X20431095Y-21047333D01*
X20431095Y-21047333D02*
X20716809Y-21333047D01*
X20716809Y-21333047D02*
X20716809Y-21023523D01*
X20216809Y-20714000D02*
X20216809Y-20666381D01*
X20216809Y-20666381D02*
X20240619Y-20618762D01*
X20240619Y-20618762D02*
X20264428Y-20594952D01*
X20264428Y-20594952D02*
X20312047Y-20571143D01*
X20312047Y-20571143D02*
X20407285Y-20547333D01*
X20407285Y-20547333D02*
X20526333Y-20547333D01*
X20526333Y-20547333D02*
X20621571Y-20571143D01*
X20621571Y-20571143D02*
X20669190Y-20594952D01*
X20669190Y-20594952D02*
X20693000Y-20618762D01*
X20693000Y-20618762D02*
X20716809Y-20666381D01*
X20716809Y-20666381D02*
X20716809Y-20714000D01*
X20716809Y-20714000D02*
X20693000Y-20761619D01*
X20693000Y-20761619D02*
X20669190Y-20785428D01*
X20669190Y-20785428D02*
X20621571Y-20809238D01*
X20621571Y-20809238D02*
X20526333Y-20833047D01*
X20526333Y-20833047D02*
X20407285Y-20833047D01*
X20407285Y-20833047D02*
X20312047Y-20809238D01*
X20312047Y-20809238D02*
X20264428Y-20785428D01*
X20264428Y-20785428D02*
X20240619Y-20761619D01*
X20240619Y-20761619D02*
X20216809Y-20714000D01*
X20716809Y-20333048D02*
X20216809Y-20333048D01*
X20526333Y-20285429D02*
X20716809Y-20142572D01*
X20383476Y-20142572D02*
X20573952Y-20333048D01*
X68820572Y-21688809D02*
X68534858Y-21688809D01*
X68677715Y-21688809D02*
X68677715Y-21188809D01*
X68677715Y-21188809D02*
X68630096Y-21260238D01*
X68630096Y-21260238D02*
X68582477Y-21307857D01*
X68582477Y-21307857D02*
X68534858Y-21331666D01*
X69034857Y-21688809D02*
X69034857Y-21188809D01*
X69034857Y-21188809D02*
X69320571Y-21688809D01*
X69320571Y-21688809D02*
X69320571Y-21188809D01*
X69772953Y-21355476D02*
X69772953Y-21688809D01*
X69653905Y-21165000D02*
X69534858Y-21522142D01*
X69534858Y-21522142D02*
X69844381Y-21522142D01*
X70296762Y-21688809D02*
X70011048Y-21688809D01*
X70153905Y-21688809D02*
X70153905Y-21188809D01*
X70153905Y-21188809D02*
X70106286Y-21260238D01*
X70106286Y-21260238D02*
X70058667Y-21307857D01*
X70058667Y-21307857D02*
X70011048Y-21331666D01*
X70725333Y-21355476D02*
X70725333Y-21688809D01*
X70606285Y-21165000D02*
X70487238Y-21522142D01*
X70487238Y-21522142D02*
X70796761Y-21522142D01*
X71058666Y-21403095D02*
X71011047Y-21379285D01*
X71011047Y-21379285D02*
X70987237Y-21355476D01*
X70987237Y-21355476D02*
X70963428Y-21307857D01*
X70963428Y-21307857D02*
X70963428Y-21284047D01*
X70963428Y-21284047D02*
X70987237Y-21236428D01*
X70987237Y-21236428D02*
X71011047Y-21212619D01*
X71011047Y-21212619D02*
X71058666Y-21188809D01*
X71058666Y-21188809D02*
X71153904Y-21188809D01*
X71153904Y-21188809D02*
X71201523Y-21212619D01*
X71201523Y-21212619D02*
X71225332Y-21236428D01*
X71225332Y-21236428D02*
X71249142Y-21284047D01*
X71249142Y-21284047D02*
X71249142Y-21307857D01*
X71249142Y-21307857D02*
X71225332Y-21355476D01*
X71225332Y-21355476D02*
X71201523Y-21379285D01*
X71201523Y-21379285D02*
X71153904Y-21403095D01*
X71153904Y-21403095D02*
X71058666Y-21403095D01*
X71058666Y-21403095D02*
X71011047Y-21426904D01*
X71011047Y-21426904D02*
X70987237Y-21450714D01*
X70987237Y-21450714D02*
X70963428Y-21498333D01*
X70963428Y-21498333D02*
X70963428Y-21593571D01*
X70963428Y-21593571D02*
X70987237Y-21641190D01*
X70987237Y-21641190D02*
X71011047Y-21665000D01*
X71011047Y-21665000D02*
X71058666Y-21688809D01*
X71058666Y-21688809D02*
X71153904Y-21688809D01*
X71153904Y-21688809D02*
X71201523Y-21665000D01*
X71201523Y-21665000D02*
X71225332Y-21641190D01*
X71225332Y-21641190D02*
X71249142Y-21593571D01*
X71249142Y-21593571D02*
X71249142Y-21498333D01*
X71249142Y-21498333D02*
X71225332Y-21450714D01*
X71225332Y-21450714D02*
X71201523Y-21426904D01*
X71201523Y-21426904D02*
X71153904Y-21403095D01*
X39316809Y-3361618D02*
X39316809Y-3647332D01*
X39316809Y-3504475D02*
X38816809Y-3504475D01*
X38816809Y-3504475D02*
X38888238Y-3552094D01*
X38888238Y-3552094D02*
X38935857Y-3599713D01*
X38935857Y-3599713D02*
X38959666Y-3647332D01*
X38983476Y-2933047D02*
X39316809Y-2933047D01*
X38983476Y-3147333D02*
X39245380Y-3147333D01*
X39245380Y-3147333D02*
X39293000Y-3123523D01*
X39293000Y-3123523D02*
X39316809Y-3075904D01*
X39316809Y-3075904D02*
X39316809Y-3004476D01*
X39316809Y-3004476D02*
X39293000Y-2956857D01*
X39293000Y-2956857D02*
X39269190Y-2933047D01*
X39054904Y-2528285D02*
X39054904Y-2694952D01*
X39316809Y-2694952D02*
X38816809Y-2694952D01*
X38816809Y-2694952D02*
X38816809Y-2456857D01*
X28316809Y-12594952D02*
X27816809Y-12594952D01*
X27816809Y-12594952D02*
X27816809Y-12404476D01*
X27816809Y-12404476D02*
X27840619Y-12356857D01*
X27840619Y-12356857D02*
X27864428Y-12333047D01*
X27864428Y-12333047D02*
X27912047Y-12309238D01*
X27912047Y-12309238D02*
X27983476Y-12309238D01*
X27983476Y-12309238D02*
X28031095Y-12333047D01*
X28031095Y-12333047D02*
X28054904Y-12356857D01*
X28054904Y-12356857D02*
X28078714Y-12404476D01*
X28078714Y-12404476D02*
X28078714Y-12594952D01*
X56622953Y-23555476D02*
X56622953Y-23888809D01*
X56503905Y-23365000D02*
X56384858Y-23722142D01*
X56384858Y-23722142D02*
X56694381Y-23722142D01*
X56837238Y-23388809D02*
X57170571Y-23388809D01*
X57170571Y-23388809D02*
X56956286Y-23888809D01*
X57456285Y-23388809D02*
X57503904Y-23388809D01*
X57503904Y-23388809D02*
X57551523Y-23412619D01*
X57551523Y-23412619D02*
X57575333Y-23436428D01*
X57575333Y-23436428D02*
X57599142Y-23484047D01*
X57599142Y-23484047D02*
X57622952Y-23579285D01*
X57622952Y-23579285D02*
X57622952Y-23698333D01*
X57622952Y-23698333D02*
X57599142Y-23793571D01*
X57599142Y-23793571D02*
X57575333Y-23841190D01*
X57575333Y-23841190D02*
X57551523Y-23865000D01*
X57551523Y-23865000D02*
X57503904Y-23888809D01*
X57503904Y-23888809D02*
X57456285Y-23888809D01*
X57456285Y-23888809D02*
X57408666Y-23865000D01*
X57408666Y-23865000D02*
X57384857Y-23841190D01*
X57384857Y-23841190D02*
X57361047Y-23793571D01*
X57361047Y-23793571D02*
X57337238Y-23698333D01*
X57337238Y-23698333D02*
X57337238Y-23579285D01*
X57337238Y-23579285D02*
X57361047Y-23484047D01*
X57361047Y-23484047D02*
X57384857Y-23436428D01*
X57384857Y-23436428D02*
X57408666Y-23412619D01*
X57408666Y-23412619D02*
X57456285Y-23388809D01*
X58051523Y-23555476D02*
X58051523Y-23888809D01*
X57837237Y-23555476D02*
X57837237Y-23817380D01*
X57837237Y-23817380D02*
X57861047Y-23865000D01*
X57861047Y-23865000D02*
X57908666Y-23888809D01*
X57908666Y-23888809D02*
X57980094Y-23888809D01*
X57980094Y-23888809D02*
X58027713Y-23865000D01*
X58027713Y-23865000D02*
X58051523Y-23841190D01*
X58289618Y-23888809D02*
X58289618Y-23388809D01*
X58289618Y-23626904D02*
X58575332Y-23626904D01*
X58575332Y-23888809D02*
X58575332Y-23388809D01*
X5677716Y-24462514D02*
X5749144Y-24486323D01*
X5749144Y-24486323D02*
X5868192Y-24486323D01*
X5868192Y-24486323D02*
X5915811Y-24462514D01*
X5915811Y-24462514D02*
X5939620Y-24438704D01*
X5939620Y-24438704D02*
X5963430Y-24391085D01*
X5963430Y-24391085D02*
X5963430Y-24343466D01*
X5963430Y-24343466D02*
X5939620Y-24295847D01*
X5939620Y-24295847D02*
X5915811Y-24272037D01*
X5915811Y-24272037D02*
X5868192Y-24248228D01*
X5868192Y-24248228D02*
X5772954Y-24224418D01*
X5772954Y-24224418D02*
X5725335Y-24200609D01*
X5725335Y-24200609D02*
X5701525Y-24176799D01*
X5701525Y-24176799D02*
X5677716Y-24129180D01*
X5677716Y-24129180D02*
X5677716Y-24081561D01*
X5677716Y-24081561D02*
X5701525Y-24033942D01*
X5701525Y-24033942D02*
X5725335Y-24010133D01*
X5725335Y-24010133D02*
X5772954Y-23986323D01*
X5772954Y-23986323D02*
X5892001Y-23986323D01*
X5892001Y-23986323D02*
X5963430Y-24010133D01*
X6153906Y-24462514D02*
X6225334Y-24486323D01*
X6225334Y-24486323D02*
X6344382Y-24486323D01*
X6344382Y-24486323D02*
X6392001Y-24462514D01*
X6392001Y-24462514D02*
X6415810Y-24438704D01*
X6415810Y-24438704D02*
X6439620Y-24391085D01*
X6439620Y-24391085D02*
X6439620Y-24343466D01*
X6439620Y-24343466D02*
X6415810Y-24295847D01*
X6415810Y-24295847D02*
X6392001Y-24272037D01*
X6392001Y-24272037D02*
X6344382Y-24248228D01*
X6344382Y-24248228D02*
X6249144Y-24224418D01*
X6249144Y-24224418D02*
X6201525Y-24200609D01*
X6201525Y-24200609D02*
X6177715Y-24176799D01*
X6177715Y-24176799D02*
X6153906Y-24129180D01*
X6153906Y-24129180D02*
X6153906Y-24081561D01*
X6153906Y-24081561D02*
X6177715Y-24033942D01*
X6177715Y-24033942D02*
X6201525Y-24010133D01*
X6201525Y-24010133D02*
X6249144Y-23986323D01*
X6249144Y-23986323D02*
X6368191Y-23986323D01*
X6368191Y-23986323D02*
X6439620Y-24010133D01*
X6606286Y-23986323D02*
X6915810Y-23986323D01*
X6915810Y-23986323D02*
X6749143Y-24176799D01*
X6749143Y-24176799D02*
X6820572Y-24176799D01*
X6820572Y-24176799D02*
X6868191Y-24200609D01*
X6868191Y-24200609D02*
X6892000Y-24224418D01*
X6892000Y-24224418D02*
X6915810Y-24272037D01*
X6915810Y-24272037D02*
X6915810Y-24391085D01*
X6915810Y-24391085D02*
X6892000Y-24438704D01*
X6892000Y-24438704D02*
X6868191Y-24462514D01*
X6868191Y-24462514D02*
X6820572Y-24486323D01*
X6820572Y-24486323D02*
X6677715Y-24486323D01*
X6677715Y-24486323D02*
X6630096Y-24462514D01*
X6630096Y-24462514D02*
X6606286Y-24438704D01*
X7344381Y-24152990D02*
X7344381Y-24486323D01*
X7225333Y-23962514D02*
X7106286Y-24319656D01*
X7106286Y-24319656D02*
X7415809Y-24319656D01*
X7987237Y-24295847D02*
X8368190Y-24295847D01*
X8582476Y-24462514D02*
X8653904Y-24486323D01*
X8653904Y-24486323D02*
X8772952Y-24486323D01*
X8772952Y-24486323D02*
X8820571Y-24462514D01*
X8820571Y-24462514D02*
X8844380Y-24438704D01*
X8844380Y-24438704D02*
X8868190Y-24391085D01*
X8868190Y-24391085D02*
X8868190Y-24343466D01*
X8868190Y-24343466D02*
X8844380Y-24295847D01*
X8844380Y-24295847D02*
X8820571Y-24272037D01*
X8820571Y-24272037D02*
X8772952Y-24248228D01*
X8772952Y-24248228D02*
X8677714Y-24224418D01*
X8677714Y-24224418D02*
X8630095Y-24200609D01*
X8630095Y-24200609D02*
X8606285Y-24176799D01*
X8606285Y-24176799D02*
X8582476Y-24129180D01*
X8582476Y-24129180D02*
X8582476Y-24081561D01*
X8582476Y-24081561D02*
X8606285Y-24033942D01*
X8606285Y-24033942D02*
X8630095Y-24010133D01*
X8630095Y-24010133D02*
X8677714Y-23986323D01*
X8677714Y-23986323D02*
X8796761Y-23986323D01*
X8796761Y-23986323D02*
X8868190Y-24010133D01*
X9368189Y-24438704D02*
X9344380Y-24462514D01*
X9344380Y-24462514D02*
X9272951Y-24486323D01*
X9272951Y-24486323D02*
X9225332Y-24486323D01*
X9225332Y-24486323D02*
X9153904Y-24462514D01*
X9153904Y-24462514D02*
X9106285Y-24414894D01*
X9106285Y-24414894D02*
X9082475Y-24367275D01*
X9082475Y-24367275D02*
X9058666Y-24272037D01*
X9058666Y-24272037D02*
X9058666Y-24200609D01*
X9058666Y-24200609D02*
X9082475Y-24105371D01*
X9082475Y-24105371D02*
X9106285Y-24057752D01*
X9106285Y-24057752D02*
X9153904Y-24010133D01*
X9153904Y-24010133D02*
X9225332Y-23986323D01*
X9225332Y-23986323D02*
X9272951Y-23986323D01*
X9272951Y-23986323D02*
X9344380Y-24010133D01*
X9344380Y-24010133D02*
X9368189Y-24033942D01*
X9582475Y-24486323D02*
X9582475Y-23986323D01*
X9582475Y-24224418D02*
X9868189Y-24224418D01*
X9868189Y-24486323D02*
X9868189Y-23986323D01*
X10201523Y-23986323D02*
X10296761Y-23986323D01*
X10296761Y-23986323D02*
X10344380Y-24010133D01*
X10344380Y-24010133D02*
X10391999Y-24057752D01*
X10391999Y-24057752D02*
X10415809Y-24152990D01*
X10415809Y-24152990D02*
X10415809Y-24319656D01*
X10415809Y-24319656D02*
X10391999Y-24414894D01*
X10391999Y-24414894D02*
X10344380Y-24462514D01*
X10344380Y-24462514D02*
X10296761Y-24486323D01*
X10296761Y-24486323D02*
X10201523Y-24486323D01*
X10201523Y-24486323D02*
X10153904Y-24462514D01*
X10153904Y-24462514D02*
X10106285Y-24414894D01*
X10106285Y-24414894D02*
X10082476Y-24319656D01*
X10082476Y-24319656D02*
X10082476Y-24152990D01*
X10082476Y-24152990D02*
X10106285Y-24057752D01*
X10106285Y-24057752D02*
X10153904Y-24010133D01*
X10153904Y-24010133D02*
X10201523Y-23986323D01*
X10558667Y-23986323D02*
X10844381Y-23986323D01*
X10701524Y-24486323D02*
X10701524Y-23986323D01*
X10939619Y-23986323D02*
X11225333Y-23986323D01*
X11082476Y-24486323D02*
X11082476Y-23986323D01*
X11391999Y-24486323D02*
X11391999Y-23986323D01*
X11677713Y-24486323D02*
X11463428Y-24200609D01*
X11677713Y-23986323D02*
X11391999Y-24272037D01*
X11987237Y-24248228D02*
X11987237Y-24486323D01*
X11820571Y-23986323D02*
X11987237Y-24248228D01*
X11987237Y-24248228D02*
X12153904Y-23986323D01*
X39218191Y1911190D02*
X38932477Y1911190D01*
X39075334Y1911190D02*
X39075334Y2411190D01*
X39075334Y2411190D02*
X39027715Y2339761D01*
X39027715Y2339761D02*
X38980096Y2292142D01*
X38980096Y2292142D02*
X38932477Y2268333D01*
X39527714Y2411190D02*
X39575333Y2411190D01*
X39575333Y2411190D02*
X39622952Y2387380D01*
X39622952Y2387380D02*
X39646762Y2363571D01*
X39646762Y2363571D02*
X39670571Y2315952D01*
X39670571Y2315952D02*
X39694381Y2220714D01*
X39694381Y2220714D02*
X39694381Y2101666D01*
X39694381Y2101666D02*
X39670571Y2006428D01*
X39670571Y2006428D02*
X39646762Y1958809D01*
X39646762Y1958809D02*
X39622952Y1935000D01*
X39622952Y1935000D02*
X39575333Y1911190D01*
X39575333Y1911190D02*
X39527714Y1911190D01*
X39527714Y1911190D02*
X39480095Y1935000D01*
X39480095Y1935000D02*
X39456286Y1958809D01*
X39456286Y1958809D02*
X39432476Y2006428D01*
X39432476Y2006428D02*
X39408667Y2101666D01*
X39408667Y2101666D02*
X39408667Y2220714D01*
X39408667Y2220714D02*
X39432476Y2315952D01*
X39432476Y2315952D02*
X39456286Y2363571D01*
X39456286Y2363571D02*
X39480095Y2387380D01*
X39480095Y2387380D02*
X39527714Y2411190D01*
X40003904Y2411190D02*
X40051523Y2411190D01*
X40051523Y2411190D02*
X40099142Y2387380D01*
X40099142Y2387380D02*
X40122952Y2363571D01*
X40122952Y2363571D02*
X40146761Y2315952D01*
X40146761Y2315952D02*
X40170571Y2220714D01*
X40170571Y2220714D02*
X40170571Y2101666D01*
X40170571Y2101666D02*
X40146761Y2006428D01*
X40146761Y2006428D02*
X40122952Y1958809D01*
X40122952Y1958809D02*
X40099142Y1935000D01*
X40099142Y1935000D02*
X40051523Y1911190D01*
X40051523Y1911190D02*
X40003904Y1911190D01*
X40003904Y1911190D02*
X39956285Y1935000D01*
X39956285Y1935000D02*
X39932476Y1958809D01*
X39932476Y1958809D02*
X39908666Y2006428D01*
X39908666Y2006428D02*
X39884857Y2101666D01*
X39884857Y2101666D02*
X39884857Y2220714D01*
X39884857Y2220714D02*
X39908666Y2315952D01*
X39908666Y2315952D02*
X39932476Y2363571D01*
X39932476Y2363571D02*
X39956285Y2387380D01*
X39956285Y2387380D02*
X40003904Y2411190D01*
X40384856Y2244523D02*
X40384856Y1911190D01*
X40384856Y2196904D02*
X40408666Y2220714D01*
X40408666Y2220714D02*
X40456285Y2244523D01*
X40456285Y2244523D02*
X40527713Y2244523D01*
X40527713Y2244523D02*
X40575332Y2220714D01*
X40575332Y2220714D02*
X40599142Y2173095D01*
X40599142Y2173095D02*
X40599142Y1911190D01*
X41003904Y2173095D02*
X40837237Y2173095D01*
X40837237Y1911190D02*
X40837237Y2411190D01*
X40837237Y2411190D02*
X41075332Y2411190D01*
X16516809Y-21261618D02*
X16516809Y-21547332D01*
X16516809Y-21404475D02*
X16016809Y-21404475D01*
X16016809Y-21404475D02*
X16088238Y-21452094D01*
X16088238Y-21452094D02*
X16135857Y-21499713D01*
X16135857Y-21499713D02*
X16159666Y-21547332D01*
X16516809Y-21047333D02*
X16016809Y-21047333D01*
X16326333Y-20999714D02*
X16516809Y-20856857D01*
X16183476Y-20856857D02*
X16373952Y-21047333D01*
X16016809Y-20404476D02*
X16016809Y-20642571D01*
X16016809Y-20642571D02*
X16254904Y-20666380D01*
X16254904Y-20666380D02*
X16231095Y-20642571D01*
X16231095Y-20642571D02*
X16207285Y-20594952D01*
X16207285Y-20594952D02*
X16207285Y-20475904D01*
X16207285Y-20475904D02*
X16231095Y-20428285D01*
X16231095Y-20428285D02*
X16254904Y-20404476D01*
X16254904Y-20404476D02*
X16302523Y-20380666D01*
X16302523Y-20380666D02*
X16421571Y-20380666D01*
X16421571Y-20380666D02*
X16469190Y-20404476D01*
X16469190Y-20404476D02*
X16493000Y-20428285D01*
X16493000Y-20428285D02*
X16516809Y-20475904D01*
X16516809Y-20475904D02*
X16516809Y-20594952D01*
X16516809Y-20594952D02*
X16493000Y-20642571D01*
X16493000Y-20642571D02*
X16469190Y-20666380D01*
X22716809Y-13933046D02*
X23216809Y-13599713D01*
X22716809Y-13599713D02*
X23216809Y-13933046D01*
X23169190Y-13123523D02*
X23193000Y-13147332D01*
X23193000Y-13147332D02*
X23216809Y-13218761D01*
X23216809Y-13218761D02*
X23216809Y-13266380D01*
X23216809Y-13266380D02*
X23193000Y-13337808D01*
X23193000Y-13337808D02*
X23145380Y-13385427D01*
X23145380Y-13385427D02*
X23097761Y-13409237D01*
X23097761Y-13409237D02*
X23002523Y-13433046D01*
X23002523Y-13433046D02*
X22931095Y-13433046D01*
X22931095Y-13433046D02*
X22835857Y-13409237D01*
X22835857Y-13409237D02*
X22788238Y-13385427D01*
X22788238Y-13385427D02*
X22740619Y-13337808D01*
X22740619Y-13337808D02*
X22716809Y-13266380D01*
X22716809Y-13266380D02*
X22716809Y-13218761D01*
X22716809Y-13218761D02*
X22740619Y-13147332D01*
X22740619Y-13147332D02*
X22764428Y-13123523D01*
X22716809Y-12694951D02*
X22716809Y-12790189D01*
X22716809Y-12790189D02*
X22740619Y-12837808D01*
X22740619Y-12837808D02*
X22764428Y-12861618D01*
X22764428Y-12861618D02*
X22835857Y-12909237D01*
X22835857Y-12909237D02*
X22931095Y-12933046D01*
X22931095Y-12933046D02*
X23121571Y-12933046D01*
X23121571Y-12933046D02*
X23169190Y-12909237D01*
X23169190Y-12909237D02*
X23193000Y-12885427D01*
X23193000Y-12885427D02*
X23216809Y-12837808D01*
X23216809Y-12837808D02*
X23216809Y-12742570D01*
X23216809Y-12742570D02*
X23193000Y-12694951D01*
X23193000Y-12694951D02*
X23169190Y-12671142D01*
X23169190Y-12671142D02*
X23121571Y-12647332D01*
X23121571Y-12647332D02*
X23002523Y-12647332D01*
X23002523Y-12647332D02*
X22954904Y-12671142D01*
X22954904Y-12671142D02*
X22931095Y-12694951D01*
X22931095Y-12694951D02*
X22907285Y-12742570D01*
X22907285Y-12742570D02*
X22907285Y-12837808D01*
X22907285Y-12837808D02*
X22931095Y-12885427D01*
X22931095Y-12885427D02*
X22954904Y-12909237D01*
X22954904Y-12909237D02*
X23002523Y-12933046D01*
X22764428Y-12456856D02*
X22740619Y-12433047D01*
X22740619Y-12433047D02*
X22716809Y-12385428D01*
X22716809Y-12385428D02*
X22716809Y-12266380D01*
X22716809Y-12266380D02*
X22740619Y-12218761D01*
X22740619Y-12218761D02*
X22764428Y-12194952D01*
X22764428Y-12194952D02*
X22812047Y-12171142D01*
X22812047Y-12171142D02*
X22859666Y-12171142D01*
X22859666Y-12171142D02*
X22931095Y-12194952D01*
X22931095Y-12194952D02*
X23216809Y-12480666D01*
X23216809Y-12480666D02*
X23216809Y-12171142D01*
X22716809Y-11861619D02*
X22716809Y-11814000D01*
X22716809Y-11814000D02*
X22740619Y-11766381D01*
X22740619Y-11766381D02*
X22764428Y-11742571D01*
X22764428Y-11742571D02*
X22812047Y-11718762D01*
X22812047Y-11718762D02*
X22907285Y-11694952D01*
X22907285Y-11694952D02*
X23026333Y-11694952D01*
X23026333Y-11694952D02*
X23121571Y-11718762D01*
X23121571Y-11718762D02*
X23169190Y-11742571D01*
X23169190Y-11742571D02*
X23193000Y-11766381D01*
X23193000Y-11766381D02*
X23216809Y-11814000D01*
X23216809Y-11814000D02*
X23216809Y-11861619D01*
X23216809Y-11861619D02*
X23193000Y-11909238D01*
X23193000Y-11909238D02*
X23169190Y-11933047D01*
X23169190Y-11933047D02*
X23121571Y-11956857D01*
X23121571Y-11956857D02*
X23026333Y-11980666D01*
X23026333Y-11980666D02*
X22907285Y-11980666D01*
X22907285Y-11980666D02*
X22812047Y-11956857D01*
X22812047Y-11956857D02*
X22764428Y-11933047D01*
X22764428Y-11933047D02*
X22740619Y-11909238D01*
X22740619Y-11909238D02*
X22716809Y-11861619D01*
X22716809Y-11266381D02*
X22716809Y-11361619D01*
X22716809Y-11361619D02*
X22740619Y-11409238D01*
X22740619Y-11409238D02*
X22764428Y-11433048D01*
X22764428Y-11433048D02*
X22835857Y-11480667D01*
X22835857Y-11480667D02*
X22931095Y-11504476D01*
X22931095Y-11504476D02*
X23121571Y-11504476D01*
X23121571Y-11504476D02*
X23169190Y-11480667D01*
X23169190Y-11480667D02*
X23193000Y-11456857D01*
X23193000Y-11456857D02*
X23216809Y-11409238D01*
X23216809Y-11409238D02*
X23216809Y-11314000D01*
X23216809Y-11314000D02*
X23193000Y-11266381D01*
X23193000Y-11266381D02*
X23169190Y-11242572D01*
X23169190Y-11242572D02*
X23121571Y-11218762D01*
X23121571Y-11218762D02*
X23002523Y-11218762D01*
X23002523Y-11218762D02*
X22954904Y-11242572D01*
X22954904Y-11242572D02*
X22931095Y-11266381D01*
X22931095Y-11266381D02*
X22907285Y-11314000D01*
X22907285Y-11314000D02*
X22907285Y-11409238D01*
X22907285Y-11409238D02*
X22931095Y-11456857D01*
X22931095Y-11456857D02*
X22954904Y-11480667D01*
X22954904Y-11480667D02*
X23002523Y-11504476D01*
X38816809Y-5671142D02*
X38816809Y-5361618D01*
X38816809Y-5361618D02*
X39007285Y-5528285D01*
X39007285Y-5528285D02*
X39007285Y-5456856D01*
X39007285Y-5456856D02*
X39031095Y-5409237D01*
X39031095Y-5409237D02*
X39054904Y-5385428D01*
X39054904Y-5385428D02*
X39102523Y-5361618D01*
X39102523Y-5361618D02*
X39221571Y-5361618D01*
X39221571Y-5361618D02*
X39269190Y-5385428D01*
X39269190Y-5385428D02*
X39293000Y-5409237D01*
X39293000Y-5409237D02*
X39316809Y-5456856D01*
X39316809Y-5456856D02*
X39316809Y-5599713D01*
X39316809Y-5599713D02*
X39293000Y-5647332D01*
X39293000Y-5647332D02*
X39269190Y-5671142D01*
X38816809Y-5194952D02*
X38816809Y-4885428D01*
X38816809Y-4885428D02*
X39007285Y-5052095D01*
X39007285Y-5052095D02*
X39007285Y-4980666D01*
X39007285Y-4980666D02*
X39031095Y-4933047D01*
X39031095Y-4933047D02*
X39054904Y-4909238D01*
X39054904Y-4909238D02*
X39102523Y-4885428D01*
X39102523Y-4885428D02*
X39221571Y-4885428D01*
X39221571Y-4885428D02*
X39269190Y-4909238D01*
X39269190Y-4909238D02*
X39293000Y-4933047D01*
X39293000Y-4933047D02*
X39316809Y-4980666D01*
X39316809Y-4980666D02*
X39316809Y-5123523D01*
X39316809Y-5123523D02*
X39293000Y-5171142D01*
X39293000Y-5171142D02*
X39269190Y-5194952D01*
X39316809Y-4671143D02*
X38816809Y-4671143D01*
X39126333Y-4623524D02*
X39316809Y-4480667D01*
X38983476Y-4480667D02*
X39173952Y-4671143D01*
X1670572Y-23836428D02*
X1694381Y-23812619D01*
X1694381Y-23812619D02*
X1742000Y-23788809D01*
X1742000Y-23788809D02*
X1861048Y-23788809D01*
X1861048Y-23788809D02*
X1908667Y-23812619D01*
X1908667Y-23812619D02*
X1932476Y-23836428D01*
X1932476Y-23836428D02*
X1956286Y-23884047D01*
X1956286Y-23884047D02*
X1956286Y-23931666D01*
X1956286Y-23931666D02*
X1932476Y-24003095D01*
X1932476Y-24003095D02*
X1646762Y-24288809D01*
X1646762Y-24288809D02*
X1956286Y-24288809D01*
X2146762Y-23836428D02*
X2170571Y-23812619D01*
X2170571Y-23812619D02*
X2218190Y-23788809D01*
X2218190Y-23788809D02*
X2337238Y-23788809D01*
X2337238Y-23788809D02*
X2384857Y-23812619D01*
X2384857Y-23812619D02*
X2408666Y-23836428D01*
X2408666Y-23836428D02*
X2432476Y-23884047D01*
X2432476Y-23884047D02*
X2432476Y-23931666D01*
X2432476Y-23931666D02*
X2408666Y-24003095D01*
X2408666Y-24003095D02*
X2122952Y-24288809D01*
X2122952Y-24288809D02*
X2432476Y-24288809D01*
X2861047Y-23955476D02*
X2861047Y-24288809D01*
X2646761Y-23955476D02*
X2646761Y-24217380D01*
X2646761Y-24217380D02*
X2670571Y-24265000D01*
X2670571Y-24265000D02*
X2718190Y-24288809D01*
X2718190Y-24288809D02*
X2789618Y-24288809D01*
X2789618Y-24288809D02*
X2837237Y-24265000D01*
X2837237Y-24265000D02*
X2861047Y-24241190D01*
X3265809Y-24026904D02*
X3099142Y-24026904D01*
X3099142Y-24288809D02*
X3099142Y-23788809D01*
X3099142Y-23788809D02*
X3337237Y-23788809D01*
X16416809Y-15606856D02*
X16416809Y-15892570D01*
X16416809Y-15749713D02*
X15916809Y-15749713D01*
X15916809Y-15749713D02*
X15988238Y-15797332D01*
X15988238Y-15797332D02*
X16035857Y-15844951D01*
X16035857Y-15844951D02*
X16059666Y-15892570D01*
X16416809Y-15392571D02*
X15916809Y-15392571D01*
X15916809Y-15392571D02*
X16273952Y-15225904D01*
X16273952Y-15225904D02*
X15916809Y-15059238D01*
X15916809Y-15059238D02*
X16416809Y-15059238D01*
X37894381Y-90688809D02*
X37608667Y-90688809D01*
X37751524Y-90688809D02*
X37751524Y-90188809D01*
X37751524Y-90188809D02*
X37703905Y-90260238D01*
X37703905Y-90260238D02*
X37656286Y-90307857D01*
X37656286Y-90307857D02*
X37608667Y-90331666D01*
X38322952Y-90355476D02*
X38322952Y-90688809D01*
X38108666Y-90355476D02*
X38108666Y-90617380D01*
X38108666Y-90617380D02*
X38132476Y-90665000D01*
X38132476Y-90665000D02*
X38180095Y-90688809D01*
X38180095Y-90688809D02*
X38251523Y-90688809D01*
X38251523Y-90688809D02*
X38299142Y-90665000D01*
X38299142Y-90665000D02*
X38322952Y-90641190D01*
X38727714Y-90426904D02*
X38561047Y-90426904D01*
X38561047Y-90688809D02*
X38561047Y-90188809D01*
X38561047Y-90188809D02*
X38799142Y-90188809D01*
X8716809Y-7337808D02*
X8716809Y-7623522D01*
X8716809Y-7480665D02*
X8216809Y-7480665D01*
X8216809Y-7480665D02*
X8288238Y-7528284D01*
X8288238Y-7528284D02*
X8335857Y-7575903D01*
X8335857Y-7575903D02*
X8359666Y-7623522D01*
X8216809Y-7028285D02*
X8216809Y-6980666D01*
X8216809Y-6980666D02*
X8240619Y-6933047D01*
X8240619Y-6933047D02*
X8264428Y-6909237D01*
X8264428Y-6909237D02*
X8312047Y-6885428D01*
X8312047Y-6885428D02*
X8407285Y-6861618D01*
X8407285Y-6861618D02*
X8526333Y-6861618D01*
X8526333Y-6861618D02*
X8621571Y-6885428D01*
X8621571Y-6885428D02*
X8669190Y-6909237D01*
X8669190Y-6909237D02*
X8693000Y-6933047D01*
X8693000Y-6933047D02*
X8716809Y-6980666D01*
X8716809Y-6980666D02*
X8716809Y-7028285D01*
X8716809Y-7028285D02*
X8693000Y-7075904D01*
X8693000Y-7075904D02*
X8669190Y-7099713D01*
X8669190Y-7099713D02*
X8621571Y-7123523D01*
X8621571Y-7123523D02*
X8526333Y-7147332D01*
X8526333Y-7147332D02*
X8407285Y-7147332D01*
X8407285Y-7147332D02*
X8312047Y-7123523D01*
X8312047Y-7123523D02*
X8264428Y-7099713D01*
X8264428Y-7099713D02*
X8240619Y-7075904D01*
X8240619Y-7075904D02*
X8216809Y-7028285D01*
X8216809Y-6552095D02*
X8216809Y-6504476D01*
X8216809Y-6504476D02*
X8240619Y-6456857D01*
X8240619Y-6456857D02*
X8264428Y-6433047D01*
X8264428Y-6433047D02*
X8312047Y-6409238D01*
X8312047Y-6409238D02*
X8407285Y-6385428D01*
X8407285Y-6385428D02*
X8526333Y-6385428D01*
X8526333Y-6385428D02*
X8621571Y-6409238D01*
X8621571Y-6409238D02*
X8669190Y-6433047D01*
X8669190Y-6433047D02*
X8693000Y-6456857D01*
X8693000Y-6456857D02*
X8716809Y-6504476D01*
X8716809Y-6504476D02*
X8716809Y-6552095D01*
X8716809Y-6552095D02*
X8693000Y-6599714D01*
X8693000Y-6599714D02*
X8669190Y-6623523D01*
X8669190Y-6623523D02*
X8621571Y-6647333D01*
X8621571Y-6647333D02*
X8526333Y-6671142D01*
X8526333Y-6671142D02*
X8407285Y-6671142D01*
X8407285Y-6671142D02*
X8312047Y-6647333D01*
X8312047Y-6647333D02*
X8264428Y-6623523D01*
X8264428Y-6623523D02*
X8240619Y-6599714D01*
X8240619Y-6599714D02*
X8216809Y-6552095D01*
X8383476Y-5956857D02*
X8716809Y-5956857D01*
X8383476Y-6171143D02*
X8645380Y-6171143D01*
X8645380Y-6171143D02*
X8693000Y-6147333D01*
X8693000Y-6147333D02*
X8716809Y-6099714D01*
X8716809Y-6099714D02*
X8716809Y-6028286D01*
X8716809Y-6028286D02*
X8693000Y-5980667D01*
X8693000Y-5980667D02*
X8669190Y-5956857D01*
X8454904Y-5552095D02*
X8454904Y-5718762D01*
X8716809Y-5718762D02*
X8216809Y-5718762D01*
X8216809Y-5718762D02*
X8216809Y-5480667D01*
X28067190Y-15921142D02*
X28567190Y-15921142D01*
X28567190Y-15921142D02*
X28067190Y-16206856D01*
X28067190Y-16206856D02*
X28567190Y-16206856D01*
X20416809Y-26971142D02*
X20416809Y-26661618D01*
X20416809Y-26661618D02*
X20607285Y-26828285D01*
X20607285Y-26828285D02*
X20607285Y-26756856D01*
X20607285Y-26756856D02*
X20631095Y-26709237D01*
X20631095Y-26709237D02*
X20654904Y-26685428D01*
X20654904Y-26685428D02*
X20702523Y-26661618D01*
X20702523Y-26661618D02*
X20821571Y-26661618D01*
X20821571Y-26661618D02*
X20869190Y-26685428D01*
X20869190Y-26685428D02*
X20893000Y-26709237D01*
X20893000Y-26709237D02*
X20916809Y-26756856D01*
X20916809Y-26756856D02*
X20916809Y-26899713D01*
X20916809Y-26899713D02*
X20893000Y-26947332D01*
X20893000Y-26947332D02*
X20869190Y-26971142D01*
X20416809Y-26494952D02*
X20416809Y-26185428D01*
X20416809Y-26185428D02*
X20607285Y-26352095D01*
X20607285Y-26352095D02*
X20607285Y-26280666D01*
X20607285Y-26280666D02*
X20631095Y-26233047D01*
X20631095Y-26233047D02*
X20654904Y-26209238D01*
X20654904Y-26209238D02*
X20702523Y-26185428D01*
X20702523Y-26185428D02*
X20821571Y-26185428D01*
X20821571Y-26185428D02*
X20869190Y-26209238D01*
X20869190Y-26209238D02*
X20893000Y-26233047D01*
X20893000Y-26233047D02*
X20916809Y-26280666D01*
X20916809Y-26280666D02*
X20916809Y-26423523D01*
X20916809Y-26423523D02*
X20893000Y-26471142D01*
X20893000Y-26471142D02*
X20869190Y-26494952D01*
X20916809Y-25971143D02*
X20416809Y-25971143D01*
X20726333Y-25923524D02*
X20916809Y-25780667D01*
X20583476Y-25780667D02*
X20773952Y-25971143D01*
X24716809Y-8506856D02*
X24716809Y-8792570D01*
X24716809Y-8649713D02*
X24216809Y-8649713D01*
X24216809Y-8649713D02*
X24288238Y-8697332D01*
X24288238Y-8697332D02*
X24335857Y-8744951D01*
X24335857Y-8744951D02*
X24359666Y-8792570D01*
X24716809Y-8292571D02*
X24216809Y-8292571D01*
X24216809Y-8292571D02*
X24573952Y-8125904D01*
X24573952Y-8125904D02*
X24216809Y-7959238D01*
X24216809Y-7959238D02*
X24716809Y-7959238D01*
X8083476Y-13694951D02*
X8416809Y-13694951D01*
X7893000Y-13813999D02*
X8250142Y-13933046D01*
X8250142Y-13933046D02*
X8250142Y-13623523D01*
X7916809Y-13480666D02*
X7916809Y-13147333D01*
X7916809Y-13147333D02*
X8416809Y-13361618D01*
X7916809Y-12861619D02*
X7916809Y-12814000D01*
X7916809Y-12814000D02*
X7940619Y-12766381D01*
X7940619Y-12766381D02*
X7964428Y-12742571D01*
X7964428Y-12742571D02*
X8012047Y-12718762D01*
X8012047Y-12718762D02*
X8107285Y-12694952D01*
X8107285Y-12694952D02*
X8226333Y-12694952D01*
X8226333Y-12694952D02*
X8321571Y-12718762D01*
X8321571Y-12718762D02*
X8369190Y-12742571D01*
X8369190Y-12742571D02*
X8393000Y-12766381D01*
X8393000Y-12766381D02*
X8416809Y-12814000D01*
X8416809Y-12814000D02*
X8416809Y-12861619D01*
X8416809Y-12861619D02*
X8393000Y-12909238D01*
X8393000Y-12909238D02*
X8369190Y-12933047D01*
X8369190Y-12933047D02*
X8321571Y-12956857D01*
X8321571Y-12956857D02*
X8226333Y-12980666D01*
X8226333Y-12980666D02*
X8107285Y-12980666D01*
X8107285Y-12980666D02*
X8012047Y-12956857D01*
X8012047Y-12956857D02*
X7964428Y-12933047D01*
X7964428Y-12933047D02*
X7940619Y-12909238D01*
X7940619Y-12909238D02*
X7916809Y-12861619D01*
X8416809Y-12480667D02*
X7916809Y-12480667D01*
X8416809Y-12194953D02*
X8131095Y-12409238D01*
X7916809Y-12194953D02*
X8202523Y-12480667D01*
X3316809Y-15185428D02*
X3316809Y-15423523D01*
X3316809Y-15423523D02*
X3554904Y-15447332D01*
X3554904Y-15447332D02*
X3531095Y-15423523D01*
X3531095Y-15423523D02*
X3507285Y-15375904D01*
X3507285Y-15375904D02*
X3507285Y-15256856D01*
X3507285Y-15256856D02*
X3531095Y-15209237D01*
X3531095Y-15209237D02*
X3554904Y-15185428D01*
X3554904Y-15185428D02*
X3602523Y-15161618D01*
X3602523Y-15161618D02*
X3721571Y-15161618D01*
X3721571Y-15161618D02*
X3769190Y-15185428D01*
X3769190Y-15185428D02*
X3793000Y-15209237D01*
X3793000Y-15209237D02*
X3816809Y-15256856D01*
X3816809Y-15256856D02*
X3816809Y-15375904D01*
X3816809Y-15375904D02*
X3793000Y-15423523D01*
X3793000Y-15423523D02*
X3769190Y-15447332D01*
X3816809Y-14947333D02*
X3316809Y-14947333D01*
X3626333Y-14899714D02*
X3816809Y-14756857D01*
X3483476Y-14756857D02*
X3673952Y-14947333D01*
X3816809Y-14280666D02*
X3816809Y-14566380D01*
X3816809Y-14423523D02*
X3316809Y-14423523D01*
X3316809Y-14423523D02*
X3388238Y-14471142D01*
X3388238Y-14471142D02*
X3435857Y-14518761D01*
X3435857Y-14518761D02*
X3459666Y-14566380D01*
X14120572Y-25388809D02*
X13834858Y-25388809D01*
X13977715Y-25388809D02*
X13977715Y-24888809D01*
X13977715Y-24888809D02*
X13930096Y-24960238D01*
X13930096Y-24960238D02*
X13882477Y-25007857D01*
X13882477Y-25007857D02*
X13834858Y-25031666D01*
X14334857Y-25388809D02*
X14334857Y-24888809D01*
X14334857Y-24888809D02*
X14620571Y-25388809D01*
X14620571Y-25388809D02*
X14620571Y-24888809D01*
X15072953Y-25055476D02*
X15072953Y-25388809D01*
X14953905Y-24865000D02*
X14834858Y-25222142D01*
X14834858Y-25222142D02*
X15144381Y-25222142D01*
X15596762Y-25388809D02*
X15311048Y-25388809D01*
X15453905Y-25388809D02*
X15453905Y-24888809D01*
X15453905Y-24888809D02*
X15406286Y-24960238D01*
X15406286Y-24960238D02*
X15358667Y-25007857D01*
X15358667Y-25007857D02*
X15311048Y-25031666D01*
X16025333Y-25055476D02*
X16025333Y-25388809D01*
X15906285Y-24865000D02*
X15787238Y-25222142D01*
X15787238Y-25222142D02*
X16096761Y-25222142D01*
X16358666Y-25103095D02*
X16311047Y-25079285D01*
X16311047Y-25079285D02*
X16287237Y-25055476D01*
X16287237Y-25055476D02*
X16263428Y-25007857D01*
X16263428Y-25007857D02*
X16263428Y-24984047D01*
X16263428Y-24984047D02*
X16287237Y-24936428D01*
X16287237Y-24936428D02*
X16311047Y-24912619D01*
X16311047Y-24912619D02*
X16358666Y-24888809D01*
X16358666Y-24888809D02*
X16453904Y-24888809D01*
X16453904Y-24888809D02*
X16501523Y-24912619D01*
X16501523Y-24912619D02*
X16525332Y-24936428D01*
X16525332Y-24936428D02*
X16549142Y-24984047D01*
X16549142Y-24984047D02*
X16549142Y-25007857D01*
X16549142Y-25007857D02*
X16525332Y-25055476D01*
X16525332Y-25055476D02*
X16501523Y-25079285D01*
X16501523Y-25079285D02*
X16453904Y-25103095D01*
X16453904Y-25103095D02*
X16358666Y-25103095D01*
X16358666Y-25103095D02*
X16311047Y-25126904D01*
X16311047Y-25126904D02*
X16287237Y-25150714D01*
X16287237Y-25150714D02*
X16263428Y-25198333D01*
X16263428Y-25198333D02*
X16263428Y-25293571D01*
X16263428Y-25293571D02*
X16287237Y-25341190D01*
X16287237Y-25341190D02*
X16311047Y-25365000D01*
X16311047Y-25365000D02*
X16358666Y-25388809D01*
X16358666Y-25388809D02*
X16453904Y-25388809D01*
X16453904Y-25388809D02*
X16501523Y-25365000D01*
X16501523Y-25365000D02*
X16525332Y-25341190D01*
X16525332Y-25341190D02*
X16549142Y-25293571D01*
X16549142Y-25293571D02*
X16549142Y-25198333D01*
X16549142Y-25198333D02*
X16525332Y-25150714D01*
X16525332Y-25150714D02*
X16501523Y-25126904D01*
X16501523Y-25126904D02*
X16453904Y-25103095D01*
X65808667Y-20255476D02*
X65808667Y-20588809D01*
X65689619Y-20065000D02*
X65570572Y-20422142D01*
X65570572Y-20422142D02*
X65880095Y-20422142D01*
X66022952Y-20088809D02*
X66356285Y-20088809D01*
X66356285Y-20088809D02*
X66142000Y-20588809D01*
X66641999Y-20088809D02*
X66689618Y-20088809D01*
X66689618Y-20088809D02*
X66737237Y-20112619D01*
X66737237Y-20112619D02*
X66761047Y-20136428D01*
X66761047Y-20136428D02*
X66784856Y-20184047D01*
X66784856Y-20184047D02*
X66808666Y-20279285D01*
X66808666Y-20279285D02*
X66808666Y-20398333D01*
X66808666Y-20398333D02*
X66784856Y-20493571D01*
X66784856Y-20493571D02*
X66761047Y-20541190D01*
X66761047Y-20541190D02*
X66737237Y-20565000D01*
X66737237Y-20565000D02*
X66689618Y-20588809D01*
X66689618Y-20588809D02*
X66641999Y-20588809D01*
X66641999Y-20588809D02*
X66594380Y-20565000D01*
X66594380Y-20565000D02*
X66570571Y-20541190D01*
X66570571Y-20541190D02*
X66546761Y-20493571D01*
X66546761Y-20493571D02*
X66522952Y-20398333D01*
X66522952Y-20398333D02*
X66522952Y-20279285D01*
X66522952Y-20279285D02*
X66546761Y-20184047D01*
X66546761Y-20184047D02*
X66570571Y-20136428D01*
X66570571Y-20136428D02*
X66594380Y-20112619D01*
X66594380Y-20112619D02*
X66641999Y-20088809D01*
X67022951Y-20588809D02*
X67022951Y-20088809D01*
X67070570Y-20398333D02*
X67213427Y-20588809D01*
X67213427Y-20255476D02*
X67022951Y-20445952D01*
X31916809Y-18806856D02*
X31916809Y-19092570D01*
X31916809Y-18949713D02*
X31416809Y-18949713D01*
X31416809Y-18949713D02*
X31488238Y-18997332D01*
X31488238Y-18997332D02*
X31535857Y-19044951D01*
X31535857Y-19044951D02*
X31559666Y-19092570D01*
X31916809Y-18592571D02*
X31416809Y-18592571D01*
X31416809Y-18592571D02*
X31773952Y-18425904D01*
X31773952Y-18425904D02*
X31416809Y-18259238D01*
X31416809Y-18259238D02*
X31916809Y-18259238D01*
X17022953Y-6336428D02*
X17046762Y-6312619D01*
X17046762Y-6312619D02*
X17094381Y-6288809D01*
X17094381Y-6288809D02*
X17213429Y-6288809D01*
X17213429Y-6288809D02*
X17261048Y-6312619D01*
X17261048Y-6312619D02*
X17284857Y-6336428D01*
X17284857Y-6336428D02*
X17308667Y-6384047D01*
X17308667Y-6384047D02*
X17308667Y-6431666D01*
X17308667Y-6431666D02*
X17284857Y-6503095D01*
X17284857Y-6503095D02*
X16999143Y-6788809D01*
X16999143Y-6788809D02*
X17308667Y-6788809D01*
X17737238Y-6455476D02*
X17737238Y-6788809D01*
X17522952Y-6455476D02*
X17522952Y-6717380D01*
X17522952Y-6717380D02*
X17546762Y-6765000D01*
X17546762Y-6765000D02*
X17594381Y-6788809D01*
X17594381Y-6788809D02*
X17665809Y-6788809D01*
X17665809Y-6788809D02*
X17713428Y-6765000D01*
X17713428Y-6765000D02*
X17737238Y-6741190D01*
X17951524Y-6336428D02*
X17975333Y-6312619D01*
X17975333Y-6312619D02*
X18022952Y-6288809D01*
X18022952Y-6288809D02*
X18142000Y-6288809D01*
X18142000Y-6288809D02*
X18189619Y-6312619D01*
X18189619Y-6312619D02*
X18213428Y-6336428D01*
X18213428Y-6336428D02*
X18237238Y-6384047D01*
X18237238Y-6384047D02*
X18237238Y-6431666D01*
X18237238Y-6431666D02*
X18213428Y-6503095D01*
X18213428Y-6503095D02*
X17927714Y-6788809D01*
X17927714Y-6788809D02*
X18237238Y-6788809D01*
X18451523Y-6788809D02*
X18451523Y-6288809D01*
X18451523Y-6526904D02*
X18737237Y-6526904D01*
X18737237Y-6788809D02*
X18737237Y-6288809D01*
X38194381Y-71688809D02*
X37908667Y-71688809D01*
X38051524Y-71688809D02*
X38051524Y-71188809D01*
X38051524Y-71188809D02*
X38003905Y-71260238D01*
X38003905Y-71260238D02*
X37956286Y-71307857D01*
X37956286Y-71307857D02*
X37908667Y-71331666D01*
X38622952Y-71355476D02*
X38622952Y-71688809D01*
X38408666Y-71355476D02*
X38408666Y-71617380D01*
X38408666Y-71617380D02*
X38432476Y-71665000D01*
X38432476Y-71665000D02*
X38480095Y-71688809D01*
X38480095Y-71688809D02*
X38551523Y-71688809D01*
X38551523Y-71688809D02*
X38599142Y-71665000D01*
X38599142Y-71665000D02*
X38622952Y-71641190D01*
X39027714Y-71426904D02*
X38861047Y-71426904D01*
X38861047Y-71688809D02*
X38861047Y-71188809D01*
X38861047Y-71188809D02*
X39099142Y-71188809D01*
X1970572Y3163571D02*
X1994381Y3187380D01*
X1994381Y3187380D02*
X2042000Y3211190D01*
X2042000Y3211190D02*
X2161048Y3211190D01*
X2161048Y3211190D02*
X2208667Y3187380D01*
X2208667Y3187380D02*
X2232476Y3163571D01*
X2232476Y3163571D02*
X2256286Y3115952D01*
X2256286Y3115952D02*
X2256286Y3068333D01*
X2256286Y3068333D02*
X2232476Y2996904D01*
X2232476Y2996904D02*
X1946762Y2711190D01*
X1946762Y2711190D02*
X2256286Y2711190D01*
X2446762Y3163571D02*
X2470571Y3187380D01*
X2470571Y3187380D02*
X2518190Y3211190D01*
X2518190Y3211190D02*
X2637238Y3211190D01*
X2637238Y3211190D02*
X2684857Y3187380D01*
X2684857Y3187380D02*
X2708666Y3163571D01*
X2708666Y3163571D02*
X2732476Y3115952D01*
X2732476Y3115952D02*
X2732476Y3068333D01*
X2732476Y3068333D02*
X2708666Y2996904D01*
X2708666Y2996904D02*
X2422952Y2711190D01*
X2422952Y2711190D02*
X2732476Y2711190D01*
X3161047Y3044523D02*
X3161047Y2711190D01*
X2946761Y3044523D02*
X2946761Y2782619D01*
X2946761Y2782619D02*
X2970571Y2735000D01*
X2970571Y2735000D02*
X3018190Y2711190D01*
X3018190Y2711190D02*
X3089618Y2711190D01*
X3089618Y2711190D02*
X3137237Y2735000D01*
X3137237Y2735000D02*
X3161047Y2758809D01*
X3565809Y2973095D02*
X3399142Y2973095D01*
X3399142Y2711190D02*
X3399142Y3211190D01*
X3399142Y3211190D02*
X3637237Y3211190D01*
X28184857Y-34388809D02*
X28184857Y-33888809D01*
X28184857Y-33888809D02*
X28303905Y-33888809D01*
X28303905Y-33888809D02*
X28375333Y-33912619D01*
X28375333Y-33912619D02*
X28422952Y-33960238D01*
X28422952Y-33960238D02*
X28446762Y-34007857D01*
X28446762Y-34007857D02*
X28470571Y-34103095D01*
X28470571Y-34103095D02*
X28470571Y-34174523D01*
X28470571Y-34174523D02*
X28446762Y-34269761D01*
X28446762Y-34269761D02*
X28422952Y-34317380D01*
X28422952Y-34317380D02*
X28375333Y-34365000D01*
X28375333Y-34365000D02*
X28303905Y-34388809D01*
X28303905Y-34388809D02*
X28184857Y-34388809D01*
X28637238Y-33888809D02*
X28946762Y-33888809D01*
X28946762Y-33888809D02*
X28780095Y-34079285D01*
X28780095Y-34079285D02*
X28851524Y-34079285D01*
X28851524Y-34079285D02*
X28899143Y-34103095D01*
X28899143Y-34103095D02*
X28922952Y-34126904D01*
X28922952Y-34126904D02*
X28946762Y-34174523D01*
X28946762Y-34174523D02*
X28946762Y-34293571D01*
X28946762Y-34293571D02*
X28922952Y-34341190D01*
X28922952Y-34341190D02*
X28899143Y-34365000D01*
X28899143Y-34365000D02*
X28851524Y-34388809D01*
X28851524Y-34388809D02*
X28708667Y-34388809D01*
X28708667Y-34388809D02*
X28661048Y-34365000D01*
X28661048Y-34365000D02*
X28637238Y-34341190D01*
X29232476Y-34103095D02*
X29184857Y-34079285D01*
X29184857Y-34079285D02*
X29161047Y-34055476D01*
X29161047Y-34055476D02*
X29137238Y-34007857D01*
X29137238Y-34007857D02*
X29137238Y-33984047D01*
X29137238Y-33984047D02*
X29161047Y-33936428D01*
X29161047Y-33936428D02*
X29184857Y-33912619D01*
X29184857Y-33912619D02*
X29232476Y-33888809D01*
X29232476Y-33888809D02*
X29327714Y-33888809D01*
X29327714Y-33888809D02*
X29375333Y-33912619D01*
X29375333Y-33912619D02*
X29399142Y-33936428D01*
X29399142Y-33936428D02*
X29422952Y-33984047D01*
X29422952Y-33984047D02*
X29422952Y-34007857D01*
X29422952Y-34007857D02*
X29399142Y-34055476D01*
X29399142Y-34055476D02*
X29375333Y-34079285D01*
X29375333Y-34079285D02*
X29327714Y-34103095D01*
X29327714Y-34103095D02*
X29232476Y-34103095D01*
X29232476Y-34103095D02*
X29184857Y-34126904D01*
X29184857Y-34126904D02*
X29161047Y-34150714D01*
X29161047Y-34150714D02*
X29137238Y-34198333D01*
X29137238Y-34198333D02*
X29137238Y-34293571D01*
X29137238Y-34293571D02*
X29161047Y-34341190D01*
X29161047Y-34341190D02*
X29184857Y-34365000D01*
X29184857Y-34365000D02*
X29232476Y-34388809D01*
X29232476Y-34388809D02*
X29327714Y-34388809D01*
X29327714Y-34388809D02*
X29375333Y-34365000D01*
X29375333Y-34365000D02*
X29399142Y-34341190D01*
X29399142Y-34341190D02*
X29422952Y-34293571D01*
X29422952Y-34293571D02*
X29422952Y-34198333D01*
X29422952Y-34198333D02*
X29399142Y-34150714D01*
X29399142Y-34150714D02*
X29375333Y-34126904D01*
X29375333Y-34126904D02*
X29327714Y-34103095D01*
X14626144Y-19385251D02*
X14626144Y-19623346D01*
X14626144Y-19623346D02*
X14126144Y-19623346D01*
X14126144Y-19290012D02*
X14126144Y-19004298D01*
X14626144Y-19147155D02*
X14126144Y-19147155D01*
X14578525Y-18551918D02*
X14602335Y-18575727D01*
X14602335Y-18575727D02*
X14626144Y-18647156D01*
X14626144Y-18647156D02*
X14626144Y-18694775D01*
X14626144Y-18694775D02*
X14602335Y-18766203D01*
X14602335Y-18766203D02*
X14554715Y-18813822D01*
X14554715Y-18813822D02*
X14507096Y-18837632D01*
X14507096Y-18837632D02*
X14411858Y-18861441D01*
X14411858Y-18861441D02*
X14340430Y-18861441D01*
X14340430Y-18861441D02*
X14245192Y-18837632D01*
X14245192Y-18837632D02*
X14197573Y-18813822D01*
X14197573Y-18813822D02*
X14149954Y-18766203D01*
X14149954Y-18766203D02*
X14126144Y-18694775D01*
X14126144Y-18694775D02*
X14126144Y-18647156D01*
X14126144Y-18647156D02*
X14149954Y-18575727D01*
X14149954Y-18575727D02*
X14173763Y-18551918D01*
X14292811Y-18123346D02*
X14626144Y-18123346D01*
X14102335Y-18242394D02*
X14459477Y-18361441D01*
X14459477Y-18361441D02*
X14459477Y-18051918D01*
X14126144Y-17766204D02*
X14126144Y-17718585D01*
X14126144Y-17718585D02*
X14149954Y-17670966D01*
X14149954Y-17670966D02*
X14173763Y-17647156D01*
X14173763Y-17647156D02*
X14221382Y-17623347D01*
X14221382Y-17623347D02*
X14316620Y-17599537D01*
X14316620Y-17599537D02*
X14435668Y-17599537D01*
X14435668Y-17599537D02*
X14530906Y-17623347D01*
X14530906Y-17623347D02*
X14578525Y-17647156D01*
X14578525Y-17647156D02*
X14602335Y-17670966D01*
X14602335Y-17670966D02*
X14626144Y-17718585D01*
X14626144Y-17718585D02*
X14626144Y-17766204D01*
X14626144Y-17766204D02*
X14602335Y-17813823D01*
X14602335Y-17813823D02*
X14578525Y-17837632D01*
X14578525Y-17837632D02*
X14530906Y-17861442D01*
X14530906Y-17861442D02*
X14435668Y-17885251D01*
X14435668Y-17885251D02*
X14316620Y-17885251D01*
X14316620Y-17885251D02*
X14221382Y-17861442D01*
X14221382Y-17861442D02*
X14173763Y-17837632D01*
X14173763Y-17837632D02*
X14149954Y-17813823D01*
X14149954Y-17813823D02*
X14126144Y-17766204D01*
X14126144Y-17147157D02*
X14126144Y-17385252D01*
X14126144Y-17385252D02*
X14364239Y-17409061D01*
X14364239Y-17409061D02*
X14340430Y-17385252D01*
X14340430Y-17385252D02*
X14316620Y-17337633D01*
X14316620Y-17337633D02*
X14316620Y-17218585D01*
X14316620Y-17218585D02*
X14340430Y-17170966D01*
X14340430Y-17170966D02*
X14364239Y-17147157D01*
X14364239Y-17147157D02*
X14411858Y-17123347D01*
X14411858Y-17123347D02*
X14530906Y-17123347D01*
X14530906Y-17123347D02*
X14578525Y-17147157D01*
X14578525Y-17147157D02*
X14602335Y-17170966D01*
X14602335Y-17170966D02*
X14626144Y-17218585D01*
X14626144Y-17218585D02*
X14626144Y-17337633D01*
X14626144Y-17337633D02*
X14602335Y-17385252D01*
X14602335Y-17385252D02*
X14578525Y-17409061D01*
X14292811Y-16694776D02*
X14626144Y-16694776D01*
X14102335Y-16813824D02*
X14459477Y-16932871D01*
X14459477Y-16932871D02*
X14459477Y-16623348D01*
D11*
X40624476Y-76870200D02*
X40767333Y-76917819D01*
X40767333Y-76917819D02*
X41005428Y-76917819D01*
X41005428Y-76917819D02*
X41100666Y-76870200D01*
X41100666Y-76870200D02*
X41148285Y-76822580D01*
X41148285Y-76822580D02*
X41195904Y-76727342D01*
X41195904Y-76727342D02*
X41195904Y-76632104D01*
X41195904Y-76632104D02*
X41148285Y-76536866D01*
X41148285Y-76536866D02*
X41100666Y-76489247D01*
X41100666Y-76489247D02*
X41005428Y-76441628D01*
X41005428Y-76441628D02*
X40814952Y-76394009D01*
X40814952Y-76394009D02*
X40719714Y-76346390D01*
X40719714Y-76346390D02*
X40672095Y-76298771D01*
X40672095Y-76298771D02*
X40624476Y-76203533D01*
X40624476Y-76203533D02*
X40624476Y-76108295D01*
X40624476Y-76108295D02*
X40672095Y-76013057D01*
X40672095Y-76013057D02*
X40719714Y-75965438D01*
X40719714Y-75965438D02*
X40814952Y-75917819D01*
X40814952Y-75917819D02*
X41053047Y-75917819D01*
X41053047Y-75917819D02*
X41195904Y-75965438D01*
X41529238Y-75917819D02*
X41767333Y-76917819D01*
X41767333Y-76917819D02*
X41957809Y-76203533D01*
X41957809Y-76203533D02*
X42148285Y-76917819D01*
X42148285Y-76917819D02*
X42386381Y-75917819D01*
X43291142Y-76917819D02*
X42719714Y-76917819D01*
X43005428Y-76917819D02*
X43005428Y-75917819D01*
X43005428Y-75917819D02*
X42910190Y-76060676D01*
X42910190Y-76060676D02*
X42814952Y-76155914D01*
X42814952Y-76155914D02*
X42719714Y-76203533D01*
X44243523Y-76917819D02*
X43672095Y-76917819D01*
X43957809Y-76917819D02*
X43957809Y-75917819D01*
X43957809Y-75917819D02*
X43862571Y-76060676D01*
X43862571Y-76060676D02*
X43767333Y-76155914D01*
X43767333Y-76155914D02*
X43672095Y-76203533D01*
D10*
X22061048Y-18688809D02*
X22394381Y-18688809D01*
X22394381Y-18688809D02*
X22180096Y-19188809D01*
X22799143Y-18855476D02*
X22799143Y-19188809D01*
X22680095Y-18665000D02*
X22561048Y-19022142D01*
X22561048Y-19022142D02*
X22870571Y-19022142D01*
X23061047Y-19188809D02*
X23061047Y-18688809D01*
X23061047Y-18926904D02*
X23346761Y-18926904D01*
X23346761Y-19188809D02*
X23346761Y-18688809D01*
X23870571Y-19141190D02*
X23846762Y-19165000D01*
X23846762Y-19165000D02*
X23775333Y-19188809D01*
X23775333Y-19188809D02*
X23727714Y-19188809D01*
X23727714Y-19188809D02*
X23656286Y-19165000D01*
X23656286Y-19165000D02*
X23608667Y-19117380D01*
X23608667Y-19117380D02*
X23584857Y-19069761D01*
X23584857Y-19069761D02*
X23561048Y-18974523D01*
X23561048Y-18974523D02*
X23561048Y-18903095D01*
X23561048Y-18903095D02*
X23584857Y-18807857D01*
X23584857Y-18807857D02*
X23608667Y-18760238D01*
X23608667Y-18760238D02*
X23656286Y-18712619D01*
X23656286Y-18712619D02*
X23727714Y-18688809D01*
X23727714Y-18688809D02*
X23775333Y-18688809D01*
X23775333Y-18688809D02*
X23846762Y-18712619D01*
X23846762Y-18712619D02*
X23870571Y-18736428D01*
X24322952Y-18688809D02*
X24084857Y-18688809D01*
X24084857Y-18688809D02*
X24061048Y-18926904D01*
X24061048Y-18926904D02*
X24084857Y-18903095D01*
X24084857Y-18903095D02*
X24132476Y-18879285D01*
X24132476Y-18879285D02*
X24251524Y-18879285D01*
X24251524Y-18879285D02*
X24299143Y-18903095D01*
X24299143Y-18903095D02*
X24322952Y-18926904D01*
X24322952Y-18926904D02*
X24346762Y-18974523D01*
X24346762Y-18974523D02*
X24346762Y-19093571D01*
X24346762Y-19093571D02*
X24322952Y-19141190D01*
X24322952Y-19141190D02*
X24299143Y-19165000D01*
X24299143Y-19165000D02*
X24251524Y-19188809D01*
X24251524Y-19188809D02*
X24132476Y-19188809D01*
X24132476Y-19188809D02*
X24084857Y-19165000D01*
X24084857Y-19165000D02*
X24061048Y-19141190D01*
X24584857Y-19188809D02*
X24680095Y-19188809D01*
X24680095Y-19188809D02*
X24727714Y-19165000D01*
X24727714Y-19165000D02*
X24751523Y-19141190D01*
X24751523Y-19141190D02*
X24799142Y-19069761D01*
X24799142Y-19069761D02*
X24822952Y-18974523D01*
X24822952Y-18974523D02*
X24822952Y-18784047D01*
X24822952Y-18784047D02*
X24799142Y-18736428D01*
X24799142Y-18736428D02*
X24775333Y-18712619D01*
X24775333Y-18712619D02*
X24727714Y-18688809D01*
X24727714Y-18688809D02*
X24632476Y-18688809D01*
X24632476Y-18688809D02*
X24584857Y-18712619D01*
X24584857Y-18712619D02*
X24561047Y-18736428D01*
X24561047Y-18736428D02*
X24537238Y-18784047D01*
X24537238Y-18784047D02*
X24537238Y-18903095D01*
X24537238Y-18903095D02*
X24561047Y-18950714D01*
X24561047Y-18950714D02*
X24584857Y-18974523D01*
X24584857Y-18974523D02*
X24632476Y-18998333D01*
X24632476Y-18998333D02*
X24727714Y-18998333D01*
X24727714Y-18998333D02*
X24775333Y-18974523D01*
X24775333Y-18974523D02*
X24799142Y-18950714D01*
X24799142Y-18950714D02*
X24822952Y-18903095D01*
X25275332Y-18688809D02*
X25037237Y-18688809D01*
X25037237Y-18688809D02*
X25013428Y-18926904D01*
X25013428Y-18926904D02*
X25037237Y-18903095D01*
X25037237Y-18903095D02*
X25084856Y-18879285D01*
X25084856Y-18879285D02*
X25203904Y-18879285D01*
X25203904Y-18879285D02*
X25251523Y-18903095D01*
X25251523Y-18903095D02*
X25275332Y-18926904D01*
X25275332Y-18926904D02*
X25299142Y-18974523D01*
X25299142Y-18974523D02*
X25299142Y-19093571D01*
X25299142Y-19093571D02*
X25275332Y-19141190D01*
X25275332Y-19141190D02*
X25251523Y-19165000D01*
X25251523Y-19165000D02*
X25203904Y-19188809D01*
X25203904Y-19188809D02*
X25084856Y-19188809D01*
X25084856Y-19188809D02*
X25037237Y-19165000D01*
X25037237Y-19165000D02*
X25013428Y-19141190D01*
D11*
X2569476Y-57821200D02*
X2712333Y-57868819D01*
X2712333Y-57868819D02*
X2950428Y-57868819D01*
X2950428Y-57868819D02*
X3045666Y-57821200D01*
X3045666Y-57821200D02*
X3093285Y-57773580D01*
X3093285Y-57773580D02*
X3140904Y-57678342D01*
X3140904Y-57678342D02*
X3140904Y-57583104D01*
X3140904Y-57583104D02*
X3093285Y-57487866D01*
X3093285Y-57487866D02*
X3045666Y-57440247D01*
X3045666Y-57440247D02*
X2950428Y-57392628D01*
X2950428Y-57392628D02*
X2759952Y-57345009D01*
X2759952Y-57345009D02*
X2664714Y-57297390D01*
X2664714Y-57297390D02*
X2617095Y-57249771D01*
X2617095Y-57249771D02*
X2569476Y-57154533D01*
X2569476Y-57154533D02*
X2569476Y-57059295D01*
X2569476Y-57059295D02*
X2617095Y-56964057D01*
X2617095Y-56964057D02*
X2664714Y-56916438D01*
X2664714Y-56916438D02*
X2759952Y-56868819D01*
X2759952Y-56868819D02*
X2998047Y-56868819D01*
X2998047Y-56868819D02*
X3140904Y-56916438D01*
X3474238Y-56868819D02*
X3712333Y-57868819D01*
X3712333Y-57868819D02*
X3902809Y-57154533D01*
X3902809Y-57154533D02*
X4093285Y-57868819D01*
X4093285Y-57868819D02*
X4331381Y-56868819D01*
X5236142Y-57868819D02*
X4664714Y-57868819D01*
X4950428Y-57868819D02*
X4950428Y-56868819D01*
X4950428Y-56868819D02*
X4855190Y-57011676D01*
X4855190Y-57011676D02*
X4759952Y-57106914D01*
X4759952Y-57106914D02*
X4664714Y-57154533D01*
X5569476Y-56868819D02*
X6188523Y-56868819D01*
X6188523Y-56868819D02*
X5855190Y-57249771D01*
X5855190Y-57249771D02*
X5998047Y-57249771D01*
X5998047Y-57249771D02*
X6093285Y-57297390D01*
X6093285Y-57297390D02*
X6140904Y-57345009D01*
X6140904Y-57345009D02*
X6188523Y-57440247D01*
X6188523Y-57440247D02*
X6188523Y-57678342D01*
X6188523Y-57678342D02*
X6140904Y-57773580D01*
X6140904Y-57773580D02*
X6093285Y-57821200D01*
X6093285Y-57821200D02*
X5998047Y-57868819D01*
X5998047Y-57868819D02*
X5712333Y-57868819D01*
X5712333Y-57868819D02*
X5617095Y-57821200D01*
X5617095Y-57821200D02*
X5569476Y-57773580D01*
D10*
X66484857Y-53388809D02*
X66484857Y-52888809D01*
X66484857Y-52888809D02*
X66603905Y-52888809D01*
X66603905Y-52888809D02*
X66675333Y-52912619D01*
X66675333Y-52912619D02*
X66722952Y-52960238D01*
X66722952Y-52960238D02*
X66746762Y-53007857D01*
X66746762Y-53007857D02*
X66770571Y-53103095D01*
X66770571Y-53103095D02*
X66770571Y-53174523D01*
X66770571Y-53174523D02*
X66746762Y-53269761D01*
X66746762Y-53269761D02*
X66722952Y-53317380D01*
X66722952Y-53317380D02*
X66675333Y-53365000D01*
X66675333Y-53365000D02*
X66603905Y-53388809D01*
X66603905Y-53388809D02*
X66484857Y-53388809D01*
X66937238Y-52888809D02*
X67246762Y-52888809D01*
X67246762Y-52888809D02*
X67080095Y-53079285D01*
X67080095Y-53079285D02*
X67151524Y-53079285D01*
X67151524Y-53079285D02*
X67199143Y-53103095D01*
X67199143Y-53103095D02*
X67222952Y-53126904D01*
X67222952Y-53126904D02*
X67246762Y-53174523D01*
X67246762Y-53174523D02*
X67246762Y-53293571D01*
X67246762Y-53293571D02*
X67222952Y-53341190D01*
X67222952Y-53341190D02*
X67199143Y-53365000D01*
X67199143Y-53365000D02*
X67151524Y-53388809D01*
X67151524Y-53388809D02*
X67008667Y-53388809D01*
X67008667Y-53388809D02*
X66961048Y-53365000D01*
X66961048Y-53365000D02*
X66937238Y-53341190D01*
X67675333Y-52888809D02*
X67580095Y-52888809D01*
X67580095Y-52888809D02*
X67532476Y-52912619D01*
X67532476Y-52912619D02*
X67508666Y-52936428D01*
X67508666Y-52936428D02*
X67461047Y-53007857D01*
X67461047Y-53007857D02*
X67437238Y-53103095D01*
X67437238Y-53103095D02*
X67437238Y-53293571D01*
X67437238Y-53293571D02*
X67461047Y-53341190D01*
X67461047Y-53341190D02*
X67484857Y-53365000D01*
X67484857Y-53365000D02*
X67532476Y-53388809D01*
X67532476Y-53388809D02*
X67627714Y-53388809D01*
X67627714Y-53388809D02*
X67675333Y-53365000D01*
X67675333Y-53365000D02*
X67699142Y-53341190D01*
X67699142Y-53341190D02*
X67722952Y-53293571D01*
X67722952Y-53293571D02*
X67722952Y-53174523D01*
X67722952Y-53174523D02*
X67699142Y-53126904D01*
X67699142Y-53126904D02*
X67675333Y-53103095D01*
X67675333Y-53103095D02*
X67627714Y-53079285D01*
X67627714Y-53079285D02*
X67532476Y-53079285D01*
X67532476Y-53079285D02*
X67484857Y-53103095D01*
X67484857Y-53103095D02*
X67461047Y-53126904D01*
X67461047Y-53126904D02*
X67437238Y-53174523D01*
X47384857Y-110288809D02*
X47384857Y-109788809D01*
X47384857Y-109788809D02*
X47503905Y-109788809D01*
X47503905Y-109788809D02*
X47575333Y-109812619D01*
X47575333Y-109812619D02*
X47622952Y-109860238D01*
X47622952Y-109860238D02*
X47646762Y-109907857D01*
X47646762Y-109907857D02*
X47670571Y-110003095D01*
X47670571Y-110003095D02*
X47670571Y-110074523D01*
X47670571Y-110074523D02*
X47646762Y-110169761D01*
X47646762Y-110169761D02*
X47622952Y-110217380D01*
X47622952Y-110217380D02*
X47575333Y-110265000D01*
X47575333Y-110265000D02*
X47503905Y-110288809D01*
X47503905Y-110288809D02*
X47384857Y-110288809D01*
X47861048Y-109836428D02*
X47884857Y-109812619D01*
X47884857Y-109812619D02*
X47932476Y-109788809D01*
X47932476Y-109788809D02*
X48051524Y-109788809D01*
X48051524Y-109788809D02*
X48099143Y-109812619D01*
X48099143Y-109812619D02*
X48122952Y-109836428D01*
X48122952Y-109836428D02*
X48146762Y-109884047D01*
X48146762Y-109884047D02*
X48146762Y-109931666D01*
X48146762Y-109931666D02*
X48122952Y-110003095D01*
X48122952Y-110003095D02*
X47837238Y-110288809D01*
X47837238Y-110288809D02*
X48146762Y-110288809D01*
X48313428Y-109788809D02*
X48622952Y-109788809D01*
X48622952Y-109788809D02*
X48456285Y-109979285D01*
X48456285Y-109979285D02*
X48527714Y-109979285D01*
X48527714Y-109979285D02*
X48575333Y-110003095D01*
X48575333Y-110003095D02*
X48599142Y-110026904D01*
X48599142Y-110026904D02*
X48622952Y-110074523D01*
X48622952Y-110074523D02*
X48622952Y-110193571D01*
X48622952Y-110193571D02*
X48599142Y-110241190D01*
X48599142Y-110241190D02*
X48575333Y-110265000D01*
X48575333Y-110265000D02*
X48527714Y-110288809D01*
X48527714Y-110288809D02*
X48384857Y-110288809D01*
X48384857Y-110288809D02*
X48337238Y-110265000D01*
X48337238Y-110265000D02*
X48313428Y-110241190D01*
X66184857Y-34488809D02*
X66184857Y-33988809D01*
X66184857Y-33988809D02*
X66303905Y-33988809D01*
X66303905Y-33988809D02*
X66375333Y-34012619D01*
X66375333Y-34012619D02*
X66422952Y-34060238D01*
X66422952Y-34060238D02*
X66446762Y-34107857D01*
X66446762Y-34107857D02*
X66470571Y-34203095D01*
X66470571Y-34203095D02*
X66470571Y-34274523D01*
X66470571Y-34274523D02*
X66446762Y-34369761D01*
X66446762Y-34369761D02*
X66422952Y-34417380D01*
X66422952Y-34417380D02*
X66375333Y-34465000D01*
X66375333Y-34465000D02*
X66303905Y-34488809D01*
X66303905Y-34488809D02*
X66184857Y-34488809D01*
X66899143Y-34155476D02*
X66899143Y-34488809D01*
X66780095Y-33965000D02*
X66661048Y-34322142D01*
X66661048Y-34322142D02*
X66970571Y-34322142D01*
X67256285Y-33988809D02*
X67303904Y-33988809D01*
X67303904Y-33988809D02*
X67351523Y-34012619D01*
X67351523Y-34012619D02*
X67375333Y-34036428D01*
X67375333Y-34036428D02*
X67399142Y-34084047D01*
X67399142Y-34084047D02*
X67422952Y-34179285D01*
X67422952Y-34179285D02*
X67422952Y-34298333D01*
X67422952Y-34298333D02*
X67399142Y-34393571D01*
X67399142Y-34393571D02*
X67375333Y-34441190D01*
X67375333Y-34441190D02*
X67351523Y-34465000D01*
X67351523Y-34465000D02*
X67303904Y-34488809D01*
X67303904Y-34488809D02*
X67256285Y-34488809D01*
X67256285Y-34488809D02*
X67208666Y-34465000D01*
X67208666Y-34465000D02*
X67184857Y-34441190D01*
X67184857Y-34441190D02*
X67161047Y-34393571D01*
X67161047Y-34393571D02*
X67137238Y-34298333D01*
X67137238Y-34298333D02*
X67137238Y-34179285D01*
X67137238Y-34179285D02*
X67161047Y-34084047D01*
X67161047Y-34084047D02*
X67184857Y-34036428D01*
X67184857Y-34036428D02*
X67208666Y-34012619D01*
X67208666Y-34012619D02*
X67256285Y-33988809D01*
X47484857Y-34488809D02*
X47484857Y-33988809D01*
X47484857Y-33988809D02*
X47603905Y-33988809D01*
X47603905Y-33988809D02*
X47675333Y-34012619D01*
X47675333Y-34012619D02*
X47722952Y-34060238D01*
X47722952Y-34060238D02*
X47746762Y-34107857D01*
X47746762Y-34107857D02*
X47770571Y-34203095D01*
X47770571Y-34203095D02*
X47770571Y-34274523D01*
X47770571Y-34274523D02*
X47746762Y-34369761D01*
X47746762Y-34369761D02*
X47722952Y-34417380D01*
X47722952Y-34417380D02*
X47675333Y-34465000D01*
X47675333Y-34465000D02*
X47603905Y-34488809D01*
X47603905Y-34488809D02*
X47484857Y-34488809D01*
X47937238Y-33988809D02*
X48246762Y-33988809D01*
X48246762Y-33988809D02*
X48080095Y-34179285D01*
X48080095Y-34179285D02*
X48151524Y-34179285D01*
X48151524Y-34179285D02*
X48199143Y-34203095D01*
X48199143Y-34203095D02*
X48222952Y-34226904D01*
X48222952Y-34226904D02*
X48246762Y-34274523D01*
X48246762Y-34274523D02*
X48246762Y-34393571D01*
X48246762Y-34393571D02*
X48222952Y-34441190D01*
X48222952Y-34441190D02*
X48199143Y-34465000D01*
X48199143Y-34465000D02*
X48151524Y-34488809D01*
X48151524Y-34488809D02*
X48008667Y-34488809D01*
X48008667Y-34488809D02*
X47961048Y-34465000D01*
X47961048Y-34465000D02*
X47937238Y-34441190D01*
X48484857Y-34488809D02*
X48580095Y-34488809D01*
X48580095Y-34488809D02*
X48627714Y-34465000D01*
X48627714Y-34465000D02*
X48651523Y-34441190D01*
X48651523Y-34441190D02*
X48699142Y-34369761D01*
X48699142Y-34369761D02*
X48722952Y-34274523D01*
X48722952Y-34274523D02*
X48722952Y-34084047D01*
X48722952Y-34084047D02*
X48699142Y-34036428D01*
X48699142Y-34036428D02*
X48675333Y-34012619D01*
X48675333Y-34012619D02*
X48627714Y-33988809D01*
X48627714Y-33988809D02*
X48532476Y-33988809D01*
X48532476Y-33988809D02*
X48484857Y-34012619D01*
X48484857Y-34012619D02*
X48461047Y-34036428D01*
X48461047Y-34036428D02*
X48437238Y-34084047D01*
X48437238Y-34084047D02*
X48437238Y-34203095D01*
X48437238Y-34203095D02*
X48461047Y-34250714D01*
X48461047Y-34250714D02*
X48484857Y-34274523D01*
X48484857Y-34274523D02*
X48532476Y-34298333D01*
X48532476Y-34298333D02*
X48627714Y-34298333D01*
X48627714Y-34298333D02*
X48675333Y-34274523D01*
X48675333Y-34274523D02*
X48699142Y-34250714D01*
X48699142Y-34250714D02*
X48722952Y-34203095D01*
D11*
X2985667Y-76836200D02*
X3128524Y-76883819D01*
X3128524Y-76883819D02*
X3366619Y-76883819D01*
X3366619Y-76883819D02*
X3461857Y-76836200D01*
X3461857Y-76836200D02*
X3509476Y-76788580D01*
X3509476Y-76788580D02*
X3557095Y-76693342D01*
X3557095Y-76693342D02*
X3557095Y-76598104D01*
X3557095Y-76598104D02*
X3509476Y-76502866D01*
X3509476Y-76502866D02*
X3461857Y-76455247D01*
X3461857Y-76455247D02*
X3366619Y-76407628D01*
X3366619Y-76407628D02*
X3176143Y-76360009D01*
X3176143Y-76360009D02*
X3080905Y-76312390D01*
X3080905Y-76312390D02*
X3033286Y-76264771D01*
X3033286Y-76264771D02*
X2985667Y-76169533D01*
X2985667Y-76169533D02*
X2985667Y-76074295D01*
X2985667Y-76074295D02*
X3033286Y-75979057D01*
X3033286Y-75979057D02*
X3080905Y-75931438D01*
X3080905Y-75931438D02*
X3176143Y-75883819D01*
X3176143Y-75883819D02*
X3414238Y-75883819D01*
X3414238Y-75883819D02*
X3557095Y-75931438D01*
X3890429Y-75883819D02*
X4128524Y-76883819D01*
X4128524Y-76883819D02*
X4319000Y-76169533D01*
X4319000Y-76169533D02*
X4509476Y-76883819D01*
X4509476Y-76883819D02*
X4747572Y-75883819D01*
X5176143Y-76883819D02*
X5366619Y-76883819D01*
X5366619Y-76883819D02*
X5461857Y-76836200D01*
X5461857Y-76836200D02*
X5509476Y-76788580D01*
X5509476Y-76788580D02*
X5604714Y-76645723D01*
X5604714Y-76645723D02*
X5652333Y-76455247D01*
X5652333Y-76455247D02*
X5652333Y-76074295D01*
X5652333Y-76074295D02*
X5604714Y-75979057D01*
X5604714Y-75979057D02*
X5557095Y-75931438D01*
X5557095Y-75931438D02*
X5461857Y-75883819D01*
X5461857Y-75883819D02*
X5271381Y-75883819D01*
X5271381Y-75883819D02*
X5176143Y-75931438D01*
X5176143Y-75931438D02*
X5128524Y-75979057D01*
X5128524Y-75979057D02*
X5080905Y-76074295D01*
X5080905Y-76074295D02*
X5080905Y-76312390D01*
X5080905Y-76312390D02*
X5128524Y-76407628D01*
X5128524Y-76407628D02*
X5176143Y-76455247D01*
X5176143Y-76455247D02*
X5271381Y-76502866D01*
X5271381Y-76502866D02*
X5461857Y-76502866D01*
X5461857Y-76502866D02*
X5557095Y-76455247D01*
X5557095Y-76455247D02*
X5604714Y-76407628D01*
X5604714Y-76407628D02*
X5652333Y-76312390D01*
X60150667Y-95920200D02*
X60293524Y-95967819D01*
X60293524Y-95967819D02*
X60531619Y-95967819D01*
X60531619Y-95967819D02*
X60626857Y-95920200D01*
X60626857Y-95920200D02*
X60674476Y-95872580D01*
X60674476Y-95872580D02*
X60722095Y-95777342D01*
X60722095Y-95777342D02*
X60722095Y-95682104D01*
X60722095Y-95682104D02*
X60674476Y-95586866D01*
X60674476Y-95586866D02*
X60626857Y-95539247D01*
X60626857Y-95539247D02*
X60531619Y-95491628D01*
X60531619Y-95491628D02*
X60341143Y-95444009D01*
X60341143Y-95444009D02*
X60245905Y-95396390D01*
X60245905Y-95396390D02*
X60198286Y-95348771D01*
X60198286Y-95348771D02*
X60150667Y-95253533D01*
X60150667Y-95253533D02*
X60150667Y-95158295D01*
X60150667Y-95158295D02*
X60198286Y-95063057D01*
X60198286Y-95063057D02*
X60245905Y-95015438D01*
X60245905Y-95015438D02*
X60341143Y-94967819D01*
X60341143Y-94967819D02*
X60579238Y-94967819D01*
X60579238Y-94967819D02*
X60722095Y-95015438D01*
X61055429Y-94967819D02*
X61293524Y-95967819D01*
X61293524Y-95967819D02*
X61484000Y-95253533D01*
X61484000Y-95253533D02*
X61674476Y-95967819D01*
X61674476Y-95967819D02*
X61912572Y-94967819D01*
X62436381Y-95396390D02*
X62341143Y-95348771D01*
X62341143Y-95348771D02*
X62293524Y-95301152D01*
X62293524Y-95301152D02*
X62245905Y-95205914D01*
X62245905Y-95205914D02*
X62245905Y-95158295D01*
X62245905Y-95158295D02*
X62293524Y-95063057D01*
X62293524Y-95063057D02*
X62341143Y-95015438D01*
X62341143Y-95015438D02*
X62436381Y-94967819D01*
X62436381Y-94967819D02*
X62626857Y-94967819D01*
X62626857Y-94967819D02*
X62722095Y-95015438D01*
X62722095Y-95015438D02*
X62769714Y-95063057D01*
X62769714Y-95063057D02*
X62817333Y-95158295D01*
X62817333Y-95158295D02*
X62817333Y-95205914D01*
X62817333Y-95205914D02*
X62769714Y-95301152D01*
X62769714Y-95301152D02*
X62722095Y-95348771D01*
X62722095Y-95348771D02*
X62626857Y-95396390D01*
X62626857Y-95396390D02*
X62436381Y-95396390D01*
X62436381Y-95396390D02*
X62341143Y-95444009D01*
X62341143Y-95444009D02*
X62293524Y-95491628D01*
X62293524Y-95491628D02*
X62245905Y-95586866D01*
X62245905Y-95586866D02*
X62245905Y-95777342D01*
X62245905Y-95777342D02*
X62293524Y-95872580D01*
X62293524Y-95872580D02*
X62341143Y-95920200D01*
X62341143Y-95920200D02*
X62436381Y-95967819D01*
X62436381Y-95967819D02*
X62626857Y-95967819D01*
X62626857Y-95967819D02*
X62722095Y-95920200D01*
X62722095Y-95920200D02*
X62769714Y-95872580D01*
X62769714Y-95872580D02*
X62817333Y-95777342D01*
X62817333Y-95777342D02*
X62817333Y-95586866D01*
X62817333Y-95586866D02*
X62769714Y-95491628D01*
X62769714Y-95491628D02*
X62722095Y-95444009D01*
X62722095Y-95444009D02*
X62626857Y-95396390D01*
X60162667Y-114971200D02*
X60305524Y-115018819D01*
X60305524Y-115018819D02*
X60543619Y-115018819D01*
X60543619Y-115018819D02*
X60638857Y-114971200D01*
X60638857Y-114971200D02*
X60686476Y-114923580D01*
X60686476Y-114923580D02*
X60734095Y-114828342D01*
X60734095Y-114828342D02*
X60734095Y-114733104D01*
X60734095Y-114733104D02*
X60686476Y-114637866D01*
X60686476Y-114637866D02*
X60638857Y-114590247D01*
X60638857Y-114590247D02*
X60543619Y-114542628D01*
X60543619Y-114542628D02*
X60353143Y-114495009D01*
X60353143Y-114495009D02*
X60257905Y-114447390D01*
X60257905Y-114447390D02*
X60210286Y-114399771D01*
X60210286Y-114399771D02*
X60162667Y-114304533D01*
X60162667Y-114304533D02*
X60162667Y-114209295D01*
X60162667Y-114209295D02*
X60210286Y-114114057D01*
X60210286Y-114114057D02*
X60257905Y-114066438D01*
X60257905Y-114066438D02*
X60353143Y-114018819D01*
X60353143Y-114018819D02*
X60591238Y-114018819D01*
X60591238Y-114018819D02*
X60734095Y-114066438D01*
X61067429Y-114018819D02*
X61305524Y-115018819D01*
X61305524Y-115018819D02*
X61496000Y-114304533D01*
X61496000Y-114304533D02*
X61686476Y-115018819D01*
X61686476Y-115018819D02*
X61924572Y-114018819D01*
X62734095Y-114352152D02*
X62734095Y-115018819D01*
X62496000Y-113971200D02*
X62257905Y-114685485D01*
X62257905Y-114685485D02*
X62876952Y-114685485D01*
X40542476Y-57821200D02*
X40685333Y-57868819D01*
X40685333Y-57868819D02*
X40923428Y-57868819D01*
X40923428Y-57868819D02*
X41018666Y-57821200D01*
X41018666Y-57821200D02*
X41066285Y-57773580D01*
X41066285Y-57773580D02*
X41113904Y-57678342D01*
X41113904Y-57678342D02*
X41113904Y-57583104D01*
X41113904Y-57583104D02*
X41066285Y-57487866D01*
X41066285Y-57487866D02*
X41018666Y-57440247D01*
X41018666Y-57440247D02*
X40923428Y-57392628D01*
X40923428Y-57392628D02*
X40732952Y-57345009D01*
X40732952Y-57345009D02*
X40637714Y-57297390D01*
X40637714Y-57297390D02*
X40590095Y-57249771D01*
X40590095Y-57249771D02*
X40542476Y-57154533D01*
X40542476Y-57154533D02*
X40542476Y-57059295D01*
X40542476Y-57059295D02*
X40590095Y-56964057D01*
X40590095Y-56964057D02*
X40637714Y-56916438D01*
X40637714Y-56916438D02*
X40732952Y-56868819D01*
X40732952Y-56868819D02*
X40971047Y-56868819D01*
X40971047Y-56868819D02*
X41113904Y-56916438D01*
X41447238Y-56868819D02*
X41685333Y-57868819D01*
X41685333Y-57868819D02*
X41875809Y-57154533D01*
X41875809Y-57154533D02*
X42066285Y-57868819D01*
X42066285Y-57868819D02*
X42304381Y-56868819D01*
X43209142Y-57868819D02*
X42637714Y-57868819D01*
X42923428Y-57868819D02*
X42923428Y-56868819D01*
X42923428Y-56868819D02*
X42828190Y-57011676D01*
X42828190Y-57011676D02*
X42732952Y-57106914D01*
X42732952Y-57106914D02*
X42637714Y-57154533D01*
X44113904Y-56868819D02*
X43637714Y-56868819D01*
X43637714Y-56868819D02*
X43590095Y-57345009D01*
X43590095Y-57345009D02*
X43637714Y-57297390D01*
X43637714Y-57297390D02*
X43732952Y-57249771D01*
X43732952Y-57249771D02*
X43971047Y-57249771D01*
X43971047Y-57249771D02*
X44066285Y-57297390D01*
X44066285Y-57297390D02*
X44113904Y-57345009D01*
X44113904Y-57345009D02*
X44161523Y-57440247D01*
X44161523Y-57440247D02*
X44161523Y-57678342D01*
X44161523Y-57678342D02*
X44113904Y-57773580D01*
X44113904Y-57773580D02*
X44066285Y-57821200D01*
X44066285Y-57821200D02*
X43971047Y-57868819D01*
X43971047Y-57868819D02*
X43732952Y-57868819D01*
X43732952Y-57868819D02*
X43637714Y-57821200D01*
X43637714Y-57821200D02*
X43590095Y-57773580D01*
D10*
X9284857Y-91288809D02*
X9284857Y-90788809D01*
X9284857Y-90788809D02*
X9403905Y-90788809D01*
X9403905Y-90788809D02*
X9475333Y-90812619D01*
X9475333Y-90812619D02*
X9522952Y-90860238D01*
X9522952Y-90860238D02*
X9546762Y-90907857D01*
X9546762Y-90907857D02*
X9570571Y-91003095D01*
X9570571Y-91003095D02*
X9570571Y-91074523D01*
X9570571Y-91074523D02*
X9546762Y-91169761D01*
X9546762Y-91169761D02*
X9522952Y-91217380D01*
X9522952Y-91217380D02*
X9475333Y-91265000D01*
X9475333Y-91265000D02*
X9403905Y-91288809D01*
X9403905Y-91288809D02*
X9284857Y-91288809D01*
X9761048Y-90836428D02*
X9784857Y-90812619D01*
X9784857Y-90812619D02*
X9832476Y-90788809D01*
X9832476Y-90788809D02*
X9951524Y-90788809D01*
X9951524Y-90788809D02*
X9999143Y-90812619D01*
X9999143Y-90812619D02*
X10022952Y-90836428D01*
X10022952Y-90836428D02*
X10046762Y-90884047D01*
X10046762Y-90884047D02*
X10046762Y-90931666D01*
X10046762Y-90931666D02*
X10022952Y-91003095D01*
X10022952Y-91003095D02*
X9737238Y-91288809D01*
X9737238Y-91288809D02*
X10046762Y-91288809D01*
X10499142Y-90788809D02*
X10261047Y-90788809D01*
X10261047Y-90788809D02*
X10237238Y-91026904D01*
X10237238Y-91026904D02*
X10261047Y-91003095D01*
X10261047Y-91003095D02*
X10308666Y-90979285D01*
X10308666Y-90979285D02*
X10427714Y-90979285D01*
X10427714Y-90979285D02*
X10475333Y-91003095D01*
X10475333Y-91003095D02*
X10499142Y-91026904D01*
X10499142Y-91026904D02*
X10522952Y-91074523D01*
X10522952Y-91074523D02*
X10522952Y-91193571D01*
X10522952Y-91193571D02*
X10499142Y-91241190D01*
X10499142Y-91241190D02*
X10475333Y-91265000D01*
X10475333Y-91265000D02*
X10427714Y-91288809D01*
X10427714Y-91288809D02*
X10308666Y-91288809D01*
X10308666Y-91288809D02*
X10261047Y-91265000D01*
X10261047Y-91265000D02*
X10237238Y-91241190D01*
X43926926Y-17588809D02*
X43926926Y-17993571D01*
X43926926Y-17993571D02*
X43950736Y-18041190D01*
X43950736Y-18041190D02*
X43974545Y-18065000D01*
X43974545Y-18065000D02*
X44022164Y-18088809D01*
X44022164Y-18088809D02*
X44117402Y-18088809D01*
X44117402Y-18088809D02*
X44165021Y-18065000D01*
X44165021Y-18065000D02*
X44188831Y-18041190D01*
X44188831Y-18041190D02*
X44212640Y-17993571D01*
X44212640Y-17993571D02*
X44212640Y-17588809D01*
X44665022Y-17755476D02*
X44665022Y-18088809D01*
X44545974Y-17565000D02*
X44426927Y-17922142D01*
X44426927Y-17922142D02*
X44736450Y-17922142D01*
D11*
X59719476Y-57821200D02*
X59862333Y-57868819D01*
X59862333Y-57868819D02*
X60100428Y-57868819D01*
X60100428Y-57868819D02*
X60195666Y-57821200D01*
X60195666Y-57821200D02*
X60243285Y-57773580D01*
X60243285Y-57773580D02*
X60290904Y-57678342D01*
X60290904Y-57678342D02*
X60290904Y-57583104D01*
X60290904Y-57583104D02*
X60243285Y-57487866D01*
X60243285Y-57487866D02*
X60195666Y-57440247D01*
X60195666Y-57440247D02*
X60100428Y-57392628D01*
X60100428Y-57392628D02*
X59909952Y-57345009D01*
X59909952Y-57345009D02*
X59814714Y-57297390D01*
X59814714Y-57297390D02*
X59767095Y-57249771D01*
X59767095Y-57249771D02*
X59719476Y-57154533D01*
X59719476Y-57154533D02*
X59719476Y-57059295D01*
X59719476Y-57059295D02*
X59767095Y-56964057D01*
X59767095Y-56964057D02*
X59814714Y-56916438D01*
X59814714Y-56916438D02*
X59909952Y-56868819D01*
X59909952Y-56868819D02*
X60148047Y-56868819D01*
X60148047Y-56868819D02*
X60290904Y-56916438D01*
X60624238Y-56868819D02*
X60862333Y-57868819D01*
X60862333Y-57868819D02*
X61052809Y-57154533D01*
X61052809Y-57154533D02*
X61243285Y-57868819D01*
X61243285Y-57868819D02*
X61481381Y-56868819D01*
X62386142Y-57868819D02*
X61814714Y-57868819D01*
X62100428Y-57868819D02*
X62100428Y-56868819D01*
X62100428Y-56868819D02*
X62005190Y-57011676D01*
X62005190Y-57011676D02*
X61909952Y-57106914D01*
X61909952Y-57106914D02*
X61814714Y-57154533D01*
X63243285Y-56868819D02*
X63052809Y-56868819D01*
X63052809Y-56868819D02*
X62957571Y-56916438D01*
X62957571Y-56916438D02*
X62909952Y-56964057D01*
X62909952Y-56964057D02*
X62814714Y-57106914D01*
X62814714Y-57106914D02*
X62767095Y-57297390D01*
X62767095Y-57297390D02*
X62767095Y-57678342D01*
X62767095Y-57678342D02*
X62814714Y-57773580D01*
X62814714Y-57773580D02*
X62862333Y-57821200D01*
X62862333Y-57821200D02*
X62957571Y-57868819D01*
X62957571Y-57868819D02*
X63148047Y-57868819D01*
X63148047Y-57868819D02*
X63243285Y-57821200D01*
X63243285Y-57821200D02*
X63290904Y-57773580D01*
X63290904Y-57773580D02*
X63338523Y-57678342D01*
X63338523Y-57678342D02*
X63338523Y-57440247D01*
X63338523Y-57440247D02*
X63290904Y-57345009D01*
X63290904Y-57345009D02*
X63243285Y-57297390D01*
X63243285Y-57297390D02*
X63148047Y-57249771D01*
X63148047Y-57249771D02*
X62957571Y-57249771D01*
X62957571Y-57249771D02*
X62862333Y-57297390D01*
X62862333Y-57297390D02*
X62814714Y-57345009D01*
X62814714Y-57345009D02*
X62767095Y-57440247D01*
D10*
X28184857Y-72488809D02*
X28184857Y-71988809D01*
X28184857Y-71988809D02*
X28303905Y-71988809D01*
X28303905Y-71988809D02*
X28375333Y-72012619D01*
X28375333Y-72012619D02*
X28422952Y-72060238D01*
X28422952Y-72060238D02*
X28446762Y-72107857D01*
X28446762Y-72107857D02*
X28470571Y-72203095D01*
X28470571Y-72203095D02*
X28470571Y-72274523D01*
X28470571Y-72274523D02*
X28446762Y-72369761D01*
X28446762Y-72369761D02*
X28422952Y-72417380D01*
X28422952Y-72417380D02*
X28375333Y-72465000D01*
X28375333Y-72465000D02*
X28303905Y-72488809D01*
X28303905Y-72488809D02*
X28184857Y-72488809D01*
X28637238Y-71988809D02*
X28946762Y-71988809D01*
X28946762Y-71988809D02*
X28780095Y-72179285D01*
X28780095Y-72179285D02*
X28851524Y-72179285D01*
X28851524Y-72179285D02*
X28899143Y-72203095D01*
X28899143Y-72203095D02*
X28922952Y-72226904D01*
X28922952Y-72226904D02*
X28946762Y-72274523D01*
X28946762Y-72274523D02*
X28946762Y-72393571D01*
X28946762Y-72393571D02*
X28922952Y-72441190D01*
X28922952Y-72441190D02*
X28899143Y-72465000D01*
X28899143Y-72465000D02*
X28851524Y-72488809D01*
X28851524Y-72488809D02*
X28708667Y-72488809D01*
X28708667Y-72488809D02*
X28661048Y-72465000D01*
X28661048Y-72465000D02*
X28637238Y-72441190D01*
X29256285Y-71988809D02*
X29303904Y-71988809D01*
X29303904Y-71988809D02*
X29351523Y-72012619D01*
X29351523Y-72012619D02*
X29375333Y-72036428D01*
X29375333Y-72036428D02*
X29399142Y-72084047D01*
X29399142Y-72084047D02*
X29422952Y-72179285D01*
X29422952Y-72179285D02*
X29422952Y-72298333D01*
X29422952Y-72298333D02*
X29399142Y-72393571D01*
X29399142Y-72393571D02*
X29375333Y-72441190D01*
X29375333Y-72441190D02*
X29351523Y-72465000D01*
X29351523Y-72465000D02*
X29303904Y-72488809D01*
X29303904Y-72488809D02*
X29256285Y-72488809D01*
X29256285Y-72488809D02*
X29208666Y-72465000D01*
X29208666Y-72465000D02*
X29184857Y-72441190D01*
X29184857Y-72441190D02*
X29161047Y-72393571D01*
X29161047Y-72393571D02*
X29137238Y-72298333D01*
X29137238Y-72298333D02*
X29137238Y-72179285D01*
X29137238Y-72179285D02*
X29161047Y-72084047D01*
X29161047Y-72084047D02*
X29184857Y-72036428D01*
X29184857Y-72036428D02*
X29208666Y-72012619D01*
X29208666Y-72012619D02*
X29256285Y-71988809D01*
X3316809Y-13185428D02*
X3316809Y-13423523D01*
X3316809Y-13423523D02*
X3554904Y-13447332D01*
X3554904Y-13447332D02*
X3531095Y-13423523D01*
X3531095Y-13423523D02*
X3507285Y-13375904D01*
X3507285Y-13375904D02*
X3507285Y-13256856D01*
X3507285Y-13256856D02*
X3531095Y-13209237D01*
X3531095Y-13209237D02*
X3554904Y-13185428D01*
X3554904Y-13185428D02*
X3602523Y-13161618D01*
X3602523Y-13161618D02*
X3721571Y-13161618D01*
X3721571Y-13161618D02*
X3769190Y-13185428D01*
X3769190Y-13185428D02*
X3793000Y-13209237D01*
X3793000Y-13209237D02*
X3816809Y-13256856D01*
X3816809Y-13256856D02*
X3816809Y-13375904D01*
X3816809Y-13375904D02*
X3793000Y-13423523D01*
X3793000Y-13423523D02*
X3769190Y-13447332D01*
X3816809Y-12947333D02*
X3316809Y-12947333D01*
X3626333Y-12899714D02*
X3816809Y-12756857D01*
X3483476Y-12756857D02*
X3673952Y-12947333D01*
X3816809Y-12280666D02*
X3816809Y-12566380D01*
X3816809Y-12423523D02*
X3316809Y-12423523D01*
X3316809Y-12423523D02*
X3388238Y-12471142D01*
X3388238Y-12471142D02*
X3435857Y-12518761D01*
X3435857Y-12518761D02*
X3459666Y-12566380D01*
D11*
X21492476Y-38898200D02*
X21635333Y-38945819D01*
X21635333Y-38945819D02*
X21873428Y-38945819D01*
X21873428Y-38945819D02*
X21968666Y-38898200D01*
X21968666Y-38898200D02*
X22016285Y-38850580D01*
X22016285Y-38850580D02*
X22063904Y-38755342D01*
X22063904Y-38755342D02*
X22063904Y-38660104D01*
X22063904Y-38660104D02*
X22016285Y-38564866D01*
X22016285Y-38564866D02*
X21968666Y-38517247D01*
X21968666Y-38517247D02*
X21873428Y-38469628D01*
X21873428Y-38469628D02*
X21682952Y-38422009D01*
X21682952Y-38422009D02*
X21587714Y-38374390D01*
X21587714Y-38374390D02*
X21540095Y-38326771D01*
X21540095Y-38326771D02*
X21492476Y-38231533D01*
X21492476Y-38231533D02*
X21492476Y-38136295D01*
X21492476Y-38136295D02*
X21540095Y-38041057D01*
X21540095Y-38041057D02*
X21587714Y-37993438D01*
X21587714Y-37993438D02*
X21682952Y-37945819D01*
X21682952Y-37945819D02*
X21921047Y-37945819D01*
X21921047Y-37945819D02*
X22063904Y-37993438D01*
X22397238Y-37945819D02*
X22635333Y-38945819D01*
X22635333Y-38945819D02*
X22825809Y-38231533D01*
X22825809Y-38231533D02*
X23016285Y-38945819D01*
X23016285Y-38945819D02*
X23254381Y-37945819D01*
X24159142Y-38945819D02*
X23587714Y-38945819D01*
X23873428Y-38945819D02*
X23873428Y-37945819D01*
X23873428Y-37945819D02*
X23778190Y-38088676D01*
X23778190Y-38088676D02*
X23682952Y-38183914D01*
X23682952Y-38183914D02*
X23587714Y-38231533D01*
X24730571Y-38374390D02*
X24635333Y-38326771D01*
X24635333Y-38326771D02*
X24587714Y-38279152D01*
X24587714Y-38279152D02*
X24540095Y-38183914D01*
X24540095Y-38183914D02*
X24540095Y-38136295D01*
X24540095Y-38136295D02*
X24587714Y-38041057D01*
X24587714Y-38041057D02*
X24635333Y-37993438D01*
X24635333Y-37993438D02*
X24730571Y-37945819D01*
X24730571Y-37945819D02*
X24921047Y-37945819D01*
X24921047Y-37945819D02*
X25016285Y-37993438D01*
X25016285Y-37993438D02*
X25063904Y-38041057D01*
X25063904Y-38041057D02*
X25111523Y-38136295D01*
X25111523Y-38136295D02*
X25111523Y-38183914D01*
X25111523Y-38183914D02*
X25063904Y-38279152D01*
X25063904Y-38279152D02*
X25016285Y-38326771D01*
X25016285Y-38326771D02*
X24921047Y-38374390D01*
X24921047Y-38374390D02*
X24730571Y-38374390D01*
X24730571Y-38374390D02*
X24635333Y-38422009D01*
X24635333Y-38422009D02*
X24587714Y-38469628D01*
X24587714Y-38469628D02*
X24540095Y-38564866D01*
X24540095Y-38564866D02*
X24540095Y-38755342D01*
X24540095Y-38755342D02*
X24587714Y-38850580D01*
X24587714Y-38850580D02*
X24635333Y-38898200D01*
X24635333Y-38898200D02*
X24730571Y-38945819D01*
X24730571Y-38945819D02*
X24921047Y-38945819D01*
X24921047Y-38945819D02*
X25016285Y-38898200D01*
X25016285Y-38898200D02*
X25063904Y-38850580D01*
X25063904Y-38850580D02*
X25111523Y-38755342D01*
X25111523Y-38755342D02*
X25111523Y-38564866D01*
X25111523Y-38564866D02*
X25063904Y-38469628D01*
X25063904Y-38469628D02*
X25016285Y-38422009D01*
X25016285Y-38422009D02*
X24921047Y-38374390D01*
D10*
X28184857Y-53388809D02*
X28184857Y-52888809D01*
X28184857Y-52888809D02*
X28303905Y-52888809D01*
X28303905Y-52888809D02*
X28375333Y-52912619D01*
X28375333Y-52912619D02*
X28422952Y-52960238D01*
X28422952Y-52960238D02*
X28446762Y-53007857D01*
X28446762Y-53007857D02*
X28470571Y-53103095D01*
X28470571Y-53103095D02*
X28470571Y-53174523D01*
X28470571Y-53174523D02*
X28446762Y-53269761D01*
X28446762Y-53269761D02*
X28422952Y-53317380D01*
X28422952Y-53317380D02*
X28375333Y-53365000D01*
X28375333Y-53365000D02*
X28303905Y-53388809D01*
X28303905Y-53388809D02*
X28184857Y-53388809D01*
X28637238Y-52888809D02*
X28946762Y-52888809D01*
X28946762Y-52888809D02*
X28780095Y-53079285D01*
X28780095Y-53079285D02*
X28851524Y-53079285D01*
X28851524Y-53079285D02*
X28899143Y-53103095D01*
X28899143Y-53103095D02*
X28922952Y-53126904D01*
X28922952Y-53126904D02*
X28946762Y-53174523D01*
X28946762Y-53174523D02*
X28946762Y-53293571D01*
X28946762Y-53293571D02*
X28922952Y-53341190D01*
X28922952Y-53341190D02*
X28899143Y-53365000D01*
X28899143Y-53365000D02*
X28851524Y-53388809D01*
X28851524Y-53388809D02*
X28708667Y-53388809D01*
X28708667Y-53388809D02*
X28661048Y-53365000D01*
X28661048Y-53365000D02*
X28637238Y-53341190D01*
X29375333Y-53055476D02*
X29375333Y-53388809D01*
X29256285Y-52865000D02*
X29137238Y-53222142D01*
X29137238Y-53222142D02*
X29446761Y-53222142D01*
D11*
X40542476Y-38898200D02*
X40685333Y-38945819D01*
X40685333Y-38945819D02*
X40923428Y-38945819D01*
X40923428Y-38945819D02*
X41018666Y-38898200D01*
X41018666Y-38898200D02*
X41066285Y-38850580D01*
X41066285Y-38850580D02*
X41113904Y-38755342D01*
X41113904Y-38755342D02*
X41113904Y-38660104D01*
X41113904Y-38660104D02*
X41066285Y-38564866D01*
X41066285Y-38564866D02*
X41018666Y-38517247D01*
X41018666Y-38517247D02*
X40923428Y-38469628D01*
X40923428Y-38469628D02*
X40732952Y-38422009D01*
X40732952Y-38422009D02*
X40637714Y-38374390D01*
X40637714Y-38374390D02*
X40590095Y-38326771D01*
X40590095Y-38326771D02*
X40542476Y-38231533D01*
X40542476Y-38231533D02*
X40542476Y-38136295D01*
X40542476Y-38136295D02*
X40590095Y-38041057D01*
X40590095Y-38041057D02*
X40637714Y-37993438D01*
X40637714Y-37993438D02*
X40732952Y-37945819D01*
X40732952Y-37945819D02*
X40971047Y-37945819D01*
X40971047Y-37945819D02*
X41113904Y-37993438D01*
X41447238Y-37945819D02*
X41685333Y-38945819D01*
X41685333Y-38945819D02*
X41875809Y-38231533D01*
X41875809Y-38231533D02*
X42066285Y-38945819D01*
X42066285Y-38945819D02*
X42304381Y-37945819D01*
X43209142Y-38945819D02*
X42637714Y-38945819D01*
X42923428Y-38945819D02*
X42923428Y-37945819D01*
X42923428Y-37945819D02*
X42828190Y-38088676D01*
X42828190Y-38088676D02*
X42732952Y-38183914D01*
X42732952Y-38183914D02*
X42637714Y-38231533D01*
X43685333Y-38945819D02*
X43875809Y-38945819D01*
X43875809Y-38945819D02*
X43971047Y-38898200D01*
X43971047Y-38898200D02*
X44018666Y-38850580D01*
X44018666Y-38850580D02*
X44113904Y-38707723D01*
X44113904Y-38707723D02*
X44161523Y-38517247D01*
X44161523Y-38517247D02*
X44161523Y-38136295D01*
X44161523Y-38136295D02*
X44113904Y-38041057D01*
X44113904Y-38041057D02*
X44066285Y-37993438D01*
X44066285Y-37993438D02*
X43971047Y-37945819D01*
X43971047Y-37945819D02*
X43780571Y-37945819D01*
X43780571Y-37945819D02*
X43685333Y-37993438D01*
X43685333Y-37993438D02*
X43637714Y-38041057D01*
X43637714Y-38041057D02*
X43590095Y-38136295D01*
X43590095Y-38136295D02*
X43590095Y-38374390D01*
X43590095Y-38374390D02*
X43637714Y-38469628D01*
X43637714Y-38469628D02*
X43685333Y-38517247D01*
X43685333Y-38517247D02*
X43780571Y-38564866D01*
X43780571Y-38564866D02*
X43971047Y-38564866D01*
X43971047Y-38564866D02*
X44066285Y-38517247D01*
X44066285Y-38517247D02*
X44113904Y-38469628D01*
X44113904Y-38469628D02*
X44161523Y-38374390D01*
D10*
X47484857Y-91388809D02*
X47484857Y-90888809D01*
X47484857Y-90888809D02*
X47603905Y-90888809D01*
X47603905Y-90888809D02*
X47675333Y-90912619D01*
X47675333Y-90912619D02*
X47722952Y-90960238D01*
X47722952Y-90960238D02*
X47746762Y-91007857D01*
X47746762Y-91007857D02*
X47770571Y-91103095D01*
X47770571Y-91103095D02*
X47770571Y-91174523D01*
X47770571Y-91174523D02*
X47746762Y-91269761D01*
X47746762Y-91269761D02*
X47722952Y-91317380D01*
X47722952Y-91317380D02*
X47675333Y-91365000D01*
X47675333Y-91365000D02*
X47603905Y-91388809D01*
X47603905Y-91388809D02*
X47484857Y-91388809D01*
X47961048Y-90936428D02*
X47984857Y-90912619D01*
X47984857Y-90912619D02*
X48032476Y-90888809D01*
X48032476Y-90888809D02*
X48151524Y-90888809D01*
X48151524Y-90888809D02*
X48199143Y-90912619D01*
X48199143Y-90912619D02*
X48222952Y-90936428D01*
X48222952Y-90936428D02*
X48246762Y-90984047D01*
X48246762Y-90984047D02*
X48246762Y-91031666D01*
X48246762Y-91031666D02*
X48222952Y-91103095D01*
X48222952Y-91103095D02*
X47937238Y-91388809D01*
X47937238Y-91388809D02*
X48246762Y-91388809D01*
X48413428Y-90888809D02*
X48746761Y-90888809D01*
X48746761Y-90888809D02*
X48532476Y-91388809D01*
D11*
X3858667Y-115071200D02*
X4001524Y-115118819D01*
X4001524Y-115118819D02*
X4239619Y-115118819D01*
X4239619Y-115118819D02*
X4334857Y-115071200D01*
X4334857Y-115071200D02*
X4382476Y-115023580D01*
X4382476Y-115023580D02*
X4430095Y-114928342D01*
X4430095Y-114928342D02*
X4430095Y-114833104D01*
X4430095Y-114833104D02*
X4382476Y-114737866D01*
X4382476Y-114737866D02*
X4334857Y-114690247D01*
X4334857Y-114690247D02*
X4239619Y-114642628D01*
X4239619Y-114642628D02*
X4049143Y-114595009D01*
X4049143Y-114595009D02*
X3953905Y-114547390D01*
X3953905Y-114547390D02*
X3906286Y-114499771D01*
X3906286Y-114499771D02*
X3858667Y-114404533D01*
X3858667Y-114404533D02*
X3858667Y-114309295D01*
X3858667Y-114309295D02*
X3906286Y-114214057D01*
X3906286Y-114214057D02*
X3953905Y-114166438D01*
X3953905Y-114166438D02*
X4049143Y-114118819D01*
X4049143Y-114118819D02*
X4287238Y-114118819D01*
X4287238Y-114118819D02*
X4430095Y-114166438D01*
X4763429Y-114118819D02*
X5001524Y-115118819D01*
X5001524Y-115118819D02*
X5192000Y-114404533D01*
X5192000Y-114404533D02*
X5382476Y-115118819D01*
X5382476Y-115118819D02*
X5620572Y-114118819D01*
X6525333Y-115118819D02*
X5953905Y-115118819D01*
X6239619Y-115118819D02*
X6239619Y-114118819D01*
X6239619Y-114118819D02*
X6144381Y-114261676D01*
X6144381Y-114261676D02*
X6049143Y-114356914D01*
X6049143Y-114356914D02*
X5953905Y-114404533D01*
D10*
X28345736Y-110288809D02*
X28345736Y-109788809D01*
X28345736Y-109788809D02*
X28464784Y-109788809D01*
X28464784Y-109788809D02*
X28536212Y-109812619D01*
X28536212Y-109812619D02*
X28583831Y-109860238D01*
X28583831Y-109860238D02*
X28607641Y-109907857D01*
X28607641Y-109907857D02*
X28631450Y-110003095D01*
X28631450Y-110003095D02*
X28631450Y-110074523D01*
X28631450Y-110074523D02*
X28607641Y-110169761D01*
X28607641Y-110169761D02*
X28583831Y-110217380D01*
X28583831Y-110217380D02*
X28536212Y-110265000D01*
X28536212Y-110265000D02*
X28464784Y-110288809D01*
X28464784Y-110288809D02*
X28345736Y-110288809D01*
X28821927Y-109836428D02*
X28845736Y-109812619D01*
X28845736Y-109812619D02*
X28893355Y-109788809D01*
X28893355Y-109788809D02*
X29012403Y-109788809D01*
X29012403Y-109788809D02*
X29060022Y-109812619D01*
X29060022Y-109812619D02*
X29083831Y-109836428D01*
X29083831Y-109836428D02*
X29107641Y-109884047D01*
X29107641Y-109884047D02*
X29107641Y-109931666D01*
X29107641Y-109931666D02*
X29083831Y-110003095D01*
X29083831Y-110003095D02*
X28798117Y-110288809D01*
X28798117Y-110288809D02*
X29107641Y-110288809D01*
X29298117Y-109836428D02*
X29321926Y-109812619D01*
X29321926Y-109812619D02*
X29369545Y-109788809D01*
X29369545Y-109788809D02*
X29488593Y-109788809D01*
X29488593Y-109788809D02*
X29536212Y-109812619D01*
X29536212Y-109812619D02*
X29560021Y-109836428D01*
X29560021Y-109836428D02*
X29583831Y-109884047D01*
X29583831Y-109884047D02*
X29583831Y-109931666D01*
X29583831Y-109931666D02*
X29560021Y-110003095D01*
X29560021Y-110003095D02*
X29274307Y-110288809D01*
X29274307Y-110288809D02*
X29583831Y-110288809D01*
X9384857Y-53388809D02*
X9384857Y-52888809D01*
X9384857Y-52888809D02*
X9503905Y-52888809D01*
X9503905Y-52888809D02*
X9575333Y-52912619D01*
X9575333Y-52912619D02*
X9622952Y-52960238D01*
X9622952Y-52960238D02*
X9646762Y-53007857D01*
X9646762Y-53007857D02*
X9670571Y-53103095D01*
X9670571Y-53103095D02*
X9670571Y-53174523D01*
X9670571Y-53174523D02*
X9646762Y-53269761D01*
X9646762Y-53269761D02*
X9622952Y-53317380D01*
X9622952Y-53317380D02*
X9575333Y-53365000D01*
X9575333Y-53365000D02*
X9503905Y-53388809D01*
X9503905Y-53388809D02*
X9384857Y-53388809D01*
X9837238Y-52888809D02*
X10146762Y-52888809D01*
X10146762Y-52888809D02*
X9980095Y-53079285D01*
X9980095Y-53079285D02*
X10051524Y-53079285D01*
X10051524Y-53079285D02*
X10099143Y-53103095D01*
X10099143Y-53103095D02*
X10122952Y-53126904D01*
X10122952Y-53126904D02*
X10146762Y-53174523D01*
X10146762Y-53174523D02*
X10146762Y-53293571D01*
X10146762Y-53293571D02*
X10122952Y-53341190D01*
X10122952Y-53341190D02*
X10099143Y-53365000D01*
X10099143Y-53365000D02*
X10051524Y-53388809D01*
X10051524Y-53388809D02*
X9908667Y-53388809D01*
X9908667Y-53388809D02*
X9861048Y-53365000D01*
X9861048Y-53365000D02*
X9837238Y-53341190D01*
X10313428Y-52888809D02*
X10622952Y-52888809D01*
X10622952Y-52888809D02*
X10456285Y-53079285D01*
X10456285Y-53079285D02*
X10527714Y-53079285D01*
X10527714Y-53079285D02*
X10575333Y-53103095D01*
X10575333Y-53103095D02*
X10599142Y-53126904D01*
X10599142Y-53126904D02*
X10622952Y-53174523D01*
X10622952Y-53174523D02*
X10622952Y-53293571D01*
X10622952Y-53293571D02*
X10599142Y-53341190D01*
X10599142Y-53341190D02*
X10575333Y-53365000D01*
X10575333Y-53365000D02*
X10527714Y-53388809D01*
X10527714Y-53388809D02*
X10384857Y-53388809D01*
X10384857Y-53388809D02*
X10337238Y-53365000D01*
X10337238Y-53365000D02*
X10313428Y-53341190D01*
X9284857Y-34388809D02*
X9284857Y-33888809D01*
X9284857Y-33888809D02*
X9403905Y-33888809D01*
X9403905Y-33888809D02*
X9475333Y-33912619D01*
X9475333Y-33912619D02*
X9522952Y-33960238D01*
X9522952Y-33960238D02*
X9546762Y-34007857D01*
X9546762Y-34007857D02*
X9570571Y-34103095D01*
X9570571Y-34103095D02*
X9570571Y-34174523D01*
X9570571Y-34174523D02*
X9546762Y-34269761D01*
X9546762Y-34269761D02*
X9522952Y-34317380D01*
X9522952Y-34317380D02*
X9475333Y-34365000D01*
X9475333Y-34365000D02*
X9403905Y-34388809D01*
X9403905Y-34388809D02*
X9284857Y-34388809D01*
X9737238Y-33888809D02*
X10046762Y-33888809D01*
X10046762Y-33888809D02*
X9880095Y-34079285D01*
X9880095Y-34079285D02*
X9951524Y-34079285D01*
X9951524Y-34079285D02*
X9999143Y-34103095D01*
X9999143Y-34103095D02*
X10022952Y-34126904D01*
X10022952Y-34126904D02*
X10046762Y-34174523D01*
X10046762Y-34174523D02*
X10046762Y-34293571D01*
X10046762Y-34293571D02*
X10022952Y-34341190D01*
X10022952Y-34341190D02*
X9999143Y-34365000D01*
X9999143Y-34365000D02*
X9951524Y-34388809D01*
X9951524Y-34388809D02*
X9808667Y-34388809D01*
X9808667Y-34388809D02*
X9761048Y-34365000D01*
X9761048Y-34365000D02*
X9737238Y-34341190D01*
X10213428Y-33888809D02*
X10546761Y-33888809D01*
X10546761Y-33888809D02*
X10332476Y-34388809D01*
X8711408Y-18994774D02*
X8711408Y-18756679D01*
X8854265Y-19042393D02*
X8354265Y-18875727D01*
X8354265Y-18875727D02*
X8854265Y-18709060D01*
X8354265Y-18447156D02*
X8354265Y-18351918D01*
X8354265Y-18351918D02*
X8378075Y-18304299D01*
X8378075Y-18304299D02*
X8425694Y-18256680D01*
X8425694Y-18256680D02*
X8520932Y-18232870D01*
X8520932Y-18232870D02*
X8687598Y-18232870D01*
X8687598Y-18232870D02*
X8782836Y-18256680D01*
X8782836Y-18256680D02*
X8830456Y-18304299D01*
X8830456Y-18304299D02*
X8854265Y-18351918D01*
X8854265Y-18351918D02*
X8854265Y-18447156D01*
X8854265Y-18447156D02*
X8830456Y-18494775D01*
X8830456Y-18494775D02*
X8782836Y-18542394D01*
X8782836Y-18542394D02*
X8687598Y-18566203D01*
X8687598Y-18566203D02*
X8520932Y-18566203D01*
X8520932Y-18566203D02*
X8425694Y-18542394D01*
X8425694Y-18542394D02*
X8378075Y-18494775D01*
X8378075Y-18494775D02*
X8354265Y-18447156D01*
X8520932Y-17804298D02*
X8854265Y-17804298D01*
X8330456Y-17923346D02*
X8687598Y-18042393D01*
X8687598Y-18042393D02*
X8687598Y-17732870D01*
X8854265Y-17518584D02*
X8854265Y-17423346D01*
X8854265Y-17423346D02*
X8830456Y-17375727D01*
X8830456Y-17375727D02*
X8806646Y-17351918D01*
X8806646Y-17351918D02*
X8735217Y-17304299D01*
X8735217Y-17304299D02*
X8639979Y-17280489D01*
X8639979Y-17280489D02*
X8449503Y-17280489D01*
X8449503Y-17280489D02*
X8401884Y-17304299D01*
X8401884Y-17304299D02*
X8378075Y-17328108D01*
X8378075Y-17328108D02*
X8354265Y-17375727D01*
X8354265Y-17375727D02*
X8354265Y-17470965D01*
X8354265Y-17470965D02*
X8378075Y-17518584D01*
X8378075Y-17518584D02*
X8401884Y-17542394D01*
X8401884Y-17542394D02*
X8449503Y-17566203D01*
X8449503Y-17566203D02*
X8568551Y-17566203D01*
X8568551Y-17566203D02*
X8616170Y-17542394D01*
X8616170Y-17542394D02*
X8639979Y-17518584D01*
X8639979Y-17518584D02*
X8663789Y-17470965D01*
X8663789Y-17470965D02*
X8663789Y-17375727D01*
X8663789Y-17375727D02*
X8639979Y-17328108D01*
X8639979Y-17328108D02*
X8616170Y-17304299D01*
X8616170Y-17304299D02*
X8568551Y-17280489D01*
X8354265Y-16828109D02*
X8354265Y-17066204D01*
X8354265Y-17066204D02*
X8592360Y-17090013D01*
X8592360Y-17090013D02*
X8568551Y-17066204D01*
X8568551Y-17066204D02*
X8544741Y-17018585D01*
X8544741Y-17018585D02*
X8544741Y-16899537D01*
X8544741Y-16899537D02*
X8568551Y-16851918D01*
X8568551Y-16851918D02*
X8592360Y-16828109D01*
X8592360Y-16828109D02*
X8639979Y-16804299D01*
X8639979Y-16804299D02*
X8759027Y-16804299D01*
X8759027Y-16804299D02*
X8806646Y-16828109D01*
X8806646Y-16828109D02*
X8830456Y-16851918D01*
X8830456Y-16851918D02*
X8854265Y-16899537D01*
X8854265Y-16899537D02*
X8854265Y-17018585D01*
X8854265Y-17018585D02*
X8830456Y-17066204D01*
X8830456Y-17066204D02*
X8806646Y-17090013D01*
X8354265Y-16637633D02*
X8354265Y-16328109D01*
X8354265Y-16328109D02*
X8544741Y-16494776D01*
X8544741Y-16494776D02*
X8544741Y-16423347D01*
X8544741Y-16423347D02*
X8568551Y-16375728D01*
X8568551Y-16375728D02*
X8592360Y-16351919D01*
X8592360Y-16351919D02*
X8639979Y-16328109D01*
X8639979Y-16328109D02*
X8759027Y-16328109D01*
X8759027Y-16328109D02*
X8806646Y-16351919D01*
X8806646Y-16351919D02*
X8830456Y-16375728D01*
X8830456Y-16375728D02*
X8854265Y-16423347D01*
X8854265Y-16423347D02*
X8854265Y-16566204D01*
X8854265Y-16566204D02*
X8830456Y-16613823D01*
X8830456Y-16613823D02*
X8806646Y-16637633D01*
X8711408Y-16137633D02*
X8711408Y-15899538D01*
X8854265Y-16185252D02*
X8354265Y-16018586D01*
X8354265Y-16018586D02*
X8854265Y-15851919D01*
X66484857Y-110388809D02*
X66484857Y-109888809D01*
X66484857Y-109888809D02*
X66603905Y-109888809D01*
X66603905Y-109888809D02*
X66675333Y-109912619D01*
X66675333Y-109912619D02*
X66722952Y-109960238D01*
X66722952Y-109960238D02*
X66746762Y-110007857D01*
X66746762Y-110007857D02*
X66770571Y-110103095D01*
X66770571Y-110103095D02*
X66770571Y-110174523D01*
X66770571Y-110174523D02*
X66746762Y-110269761D01*
X66746762Y-110269761D02*
X66722952Y-110317380D01*
X66722952Y-110317380D02*
X66675333Y-110365000D01*
X66675333Y-110365000D02*
X66603905Y-110388809D01*
X66603905Y-110388809D02*
X66484857Y-110388809D01*
X66961048Y-109936428D02*
X66984857Y-109912619D01*
X66984857Y-109912619D02*
X67032476Y-109888809D01*
X67032476Y-109888809D02*
X67151524Y-109888809D01*
X67151524Y-109888809D02*
X67199143Y-109912619D01*
X67199143Y-109912619D02*
X67222952Y-109936428D01*
X67222952Y-109936428D02*
X67246762Y-109984047D01*
X67246762Y-109984047D02*
X67246762Y-110031666D01*
X67246762Y-110031666D02*
X67222952Y-110103095D01*
X67222952Y-110103095D02*
X66937238Y-110388809D01*
X66937238Y-110388809D02*
X67246762Y-110388809D01*
X67675333Y-110055476D02*
X67675333Y-110388809D01*
X67556285Y-109865000D02*
X67437238Y-110222142D01*
X67437238Y-110222142D02*
X67746761Y-110222142D01*
D11*
X41100667Y-95920200D02*
X41243524Y-95967819D01*
X41243524Y-95967819D02*
X41481619Y-95967819D01*
X41481619Y-95967819D02*
X41576857Y-95920200D01*
X41576857Y-95920200D02*
X41624476Y-95872580D01*
X41624476Y-95872580D02*
X41672095Y-95777342D01*
X41672095Y-95777342D02*
X41672095Y-95682104D01*
X41672095Y-95682104D02*
X41624476Y-95586866D01*
X41624476Y-95586866D02*
X41576857Y-95539247D01*
X41576857Y-95539247D02*
X41481619Y-95491628D01*
X41481619Y-95491628D02*
X41291143Y-95444009D01*
X41291143Y-95444009D02*
X41195905Y-95396390D01*
X41195905Y-95396390D02*
X41148286Y-95348771D01*
X41148286Y-95348771D02*
X41100667Y-95253533D01*
X41100667Y-95253533D02*
X41100667Y-95158295D01*
X41100667Y-95158295D02*
X41148286Y-95063057D01*
X41148286Y-95063057D02*
X41195905Y-95015438D01*
X41195905Y-95015438D02*
X41291143Y-94967819D01*
X41291143Y-94967819D02*
X41529238Y-94967819D01*
X41529238Y-94967819D02*
X41672095Y-95015438D01*
X42005429Y-94967819D02*
X42243524Y-95967819D01*
X42243524Y-95967819D02*
X42434000Y-95253533D01*
X42434000Y-95253533D02*
X42624476Y-95967819D01*
X42624476Y-95967819D02*
X42862572Y-94967819D01*
X43148286Y-94967819D02*
X43814952Y-94967819D01*
X43814952Y-94967819D02*
X43386381Y-95967819D01*
D10*
X9184857Y-110288809D02*
X9184857Y-109788809D01*
X9184857Y-109788809D02*
X9303905Y-109788809D01*
X9303905Y-109788809D02*
X9375333Y-109812619D01*
X9375333Y-109812619D02*
X9422952Y-109860238D01*
X9422952Y-109860238D02*
X9446762Y-109907857D01*
X9446762Y-109907857D02*
X9470571Y-110003095D01*
X9470571Y-110003095D02*
X9470571Y-110074523D01*
X9470571Y-110074523D02*
X9446762Y-110169761D01*
X9446762Y-110169761D02*
X9422952Y-110217380D01*
X9422952Y-110217380D02*
X9375333Y-110265000D01*
X9375333Y-110265000D02*
X9303905Y-110288809D01*
X9303905Y-110288809D02*
X9184857Y-110288809D01*
X9661048Y-109836428D02*
X9684857Y-109812619D01*
X9684857Y-109812619D02*
X9732476Y-109788809D01*
X9732476Y-109788809D02*
X9851524Y-109788809D01*
X9851524Y-109788809D02*
X9899143Y-109812619D01*
X9899143Y-109812619D02*
X9922952Y-109836428D01*
X9922952Y-109836428D02*
X9946762Y-109884047D01*
X9946762Y-109884047D02*
X9946762Y-109931666D01*
X9946762Y-109931666D02*
X9922952Y-110003095D01*
X9922952Y-110003095D02*
X9637238Y-110288809D01*
X9637238Y-110288809D02*
X9946762Y-110288809D01*
X10422952Y-110288809D02*
X10137238Y-110288809D01*
X10280095Y-110288809D02*
X10280095Y-109788809D01*
X10280095Y-109788809D02*
X10232476Y-109860238D01*
X10232476Y-109860238D02*
X10184857Y-109907857D01*
X10184857Y-109907857D02*
X10137238Y-109931666D01*
X31583476Y-23571141D02*
X31916809Y-23571141D01*
X31393000Y-23690189D02*
X31750142Y-23809236D01*
X31750142Y-23809236D02*
X31750142Y-23499713D01*
X31416809Y-23356856D02*
X31416809Y-23023523D01*
X31416809Y-23023523D02*
X31916809Y-23237808D01*
X31416809Y-22737809D02*
X31416809Y-22690190D01*
X31416809Y-22690190D02*
X31440619Y-22642571D01*
X31440619Y-22642571D02*
X31464428Y-22618761D01*
X31464428Y-22618761D02*
X31512047Y-22594952D01*
X31512047Y-22594952D02*
X31607285Y-22571142D01*
X31607285Y-22571142D02*
X31726333Y-22571142D01*
X31726333Y-22571142D02*
X31821571Y-22594952D01*
X31821571Y-22594952D02*
X31869190Y-22618761D01*
X31869190Y-22618761D02*
X31893000Y-22642571D01*
X31893000Y-22642571D02*
X31916809Y-22690190D01*
X31916809Y-22690190D02*
X31916809Y-22737809D01*
X31916809Y-22737809D02*
X31893000Y-22785428D01*
X31893000Y-22785428D02*
X31869190Y-22809237D01*
X31869190Y-22809237D02*
X31821571Y-22833047D01*
X31821571Y-22833047D02*
X31726333Y-22856856D01*
X31726333Y-22856856D02*
X31607285Y-22856856D01*
X31607285Y-22856856D02*
X31512047Y-22833047D01*
X31512047Y-22833047D02*
X31464428Y-22809237D01*
X31464428Y-22809237D02*
X31440619Y-22785428D01*
X31440619Y-22785428D02*
X31416809Y-22737809D01*
X31583476Y-22356857D02*
X31916809Y-22356857D01*
X31631095Y-22356857D02*
X31607285Y-22333047D01*
X31607285Y-22333047D02*
X31583476Y-22285428D01*
X31583476Y-22285428D02*
X31583476Y-22214000D01*
X31583476Y-22214000D02*
X31607285Y-22166381D01*
X31607285Y-22166381D02*
X31654904Y-22142571D01*
X31654904Y-22142571D02*
X31916809Y-22142571D01*
X18830456Y-17666202D02*
X18854265Y-17594774D01*
X18854265Y-17594774D02*
X18854265Y-17475726D01*
X18854265Y-17475726D02*
X18830456Y-17428107D01*
X18830456Y-17428107D02*
X18806646Y-17404298D01*
X18806646Y-17404298D02*
X18759027Y-17380488D01*
X18759027Y-17380488D02*
X18711408Y-17380488D01*
X18711408Y-17380488D02*
X18663789Y-17404298D01*
X18663789Y-17404298D02*
X18639979Y-17428107D01*
X18639979Y-17428107D02*
X18616170Y-17475726D01*
X18616170Y-17475726D02*
X18592360Y-17570964D01*
X18592360Y-17570964D02*
X18568551Y-17618583D01*
X18568551Y-17618583D02*
X18544741Y-17642393D01*
X18544741Y-17642393D02*
X18497122Y-17666202D01*
X18497122Y-17666202D02*
X18449503Y-17666202D01*
X18449503Y-17666202D02*
X18401884Y-17642393D01*
X18401884Y-17642393D02*
X18378075Y-17618583D01*
X18378075Y-17618583D02*
X18354265Y-17570964D01*
X18354265Y-17570964D02*
X18354265Y-17451917D01*
X18354265Y-17451917D02*
X18378075Y-17380488D01*
X18354265Y-17237631D02*
X18354265Y-16951917D01*
X18854265Y-17094774D02*
X18354265Y-17094774D01*
X18854265Y-16785251D02*
X18354265Y-16785251D01*
X18354265Y-16594775D02*
X18354265Y-16285251D01*
X18354265Y-16285251D02*
X18544741Y-16451918D01*
X18544741Y-16451918D02*
X18544741Y-16380489D01*
X18544741Y-16380489D02*
X18568551Y-16332870D01*
X18568551Y-16332870D02*
X18592360Y-16309061D01*
X18592360Y-16309061D02*
X18639979Y-16285251D01*
X18639979Y-16285251D02*
X18759027Y-16285251D01*
X18759027Y-16285251D02*
X18806646Y-16309061D01*
X18806646Y-16309061D02*
X18830456Y-16332870D01*
X18830456Y-16332870D02*
X18854265Y-16380489D01*
X18854265Y-16380489D02*
X18854265Y-16523346D01*
X18854265Y-16523346D02*
X18830456Y-16570965D01*
X18830456Y-16570965D02*
X18806646Y-16594775D01*
X18520932Y-15856680D02*
X18854265Y-15856680D01*
X18330456Y-15975728D02*
X18687598Y-16094775D01*
X18687598Y-16094775D02*
X18687598Y-15785252D01*
X18854265Y-15332871D02*
X18854265Y-15618585D01*
X18854265Y-15475728D02*
X18354265Y-15475728D01*
X18354265Y-15475728D02*
X18425694Y-15523347D01*
X18425694Y-15523347D02*
X18473313Y-15570966D01*
X18473313Y-15570966D02*
X18497122Y-15618585D01*
X18854265Y-14856681D02*
X18854265Y-15142395D01*
X18854265Y-14999538D02*
X18354265Y-14999538D01*
X18354265Y-14999538D02*
X18425694Y-15047157D01*
X18425694Y-15047157D02*
X18473313Y-15094776D01*
X18473313Y-15094776D02*
X18497122Y-15142395D01*
X18711408Y-14666205D02*
X18711408Y-14428110D01*
X18854265Y-14713824D02*
X18354265Y-14547158D01*
X18354265Y-14547158D02*
X18854265Y-14380491D01*
D11*
X21492476Y-76870200D02*
X21635333Y-76917819D01*
X21635333Y-76917819D02*
X21873428Y-76917819D01*
X21873428Y-76917819D02*
X21968666Y-76870200D01*
X21968666Y-76870200D02*
X22016285Y-76822580D01*
X22016285Y-76822580D02*
X22063904Y-76727342D01*
X22063904Y-76727342D02*
X22063904Y-76632104D01*
X22063904Y-76632104D02*
X22016285Y-76536866D01*
X22016285Y-76536866D02*
X21968666Y-76489247D01*
X21968666Y-76489247D02*
X21873428Y-76441628D01*
X21873428Y-76441628D02*
X21682952Y-76394009D01*
X21682952Y-76394009D02*
X21587714Y-76346390D01*
X21587714Y-76346390D02*
X21540095Y-76298771D01*
X21540095Y-76298771D02*
X21492476Y-76203533D01*
X21492476Y-76203533D02*
X21492476Y-76108295D01*
X21492476Y-76108295D02*
X21540095Y-76013057D01*
X21540095Y-76013057D02*
X21587714Y-75965438D01*
X21587714Y-75965438D02*
X21682952Y-75917819D01*
X21682952Y-75917819D02*
X21921047Y-75917819D01*
X21921047Y-75917819D02*
X22063904Y-75965438D01*
X22397238Y-75917819D02*
X22635333Y-76917819D01*
X22635333Y-76917819D02*
X22825809Y-76203533D01*
X22825809Y-76203533D02*
X23016285Y-76917819D01*
X23016285Y-76917819D02*
X23254381Y-75917819D01*
X24159142Y-76917819D02*
X23587714Y-76917819D01*
X23873428Y-76917819D02*
X23873428Y-75917819D01*
X23873428Y-75917819D02*
X23778190Y-76060676D01*
X23778190Y-76060676D02*
X23682952Y-76155914D01*
X23682952Y-76155914D02*
X23587714Y-76203533D01*
X24778190Y-75917819D02*
X24873428Y-75917819D01*
X24873428Y-75917819D02*
X24968666Y-75965438D01*
X24968666Y-75965438D02*
X25016285Y-76013057D01*
X25016285Y-76013057D02*
X25063904Y-76108295D01*
X25063904Y-76108295D02*
X25111523Y-76298771D01*
X25111523Y-76298771D02*
X25111523Y-76536866D01*
X25111523Y-76536866D02*
X25063904Y-76727342D01*
X25063904Y-76727342D02*
X25016285Y-76822580D01*
X25016285Y-76822580D02*
X24968666Y-76870200D01*
X24968666Y-76870200D02*
X24873428Y-76917819D01*
X24873428Y-76917819D02*
X24778190Y-76917819D01*
X24778190Y-76917819D02*
X24682952Y-76870200D01*
X24682952Y-76870200D02*
X24635333Y-76822580D01*
X24635333Y-76822580D02*
X24587714Y-76727342D01*
X24587714Y-76727342D02*
X24540095Y-76536866D01*
X24540095Y-76536866D02*
X24540095Y-76298771D01*
X24540095Y-76298771D02*
X24587714Y-76108295D01*
X24587714Y-76108295D02*
X24635333Y-76013057D01*
X24635333Y-76013057D02*
X24682952Y-75965438D01*
X24682952Y-75965438D02*
X24778190Y-75917819D01*
D10*
X47260736Y-53488809D02*
X47260736Y-52988809D01*
X47260736Y-52988809D02*
X47379784Y-52988809D01*
X47379784Y-52988809D02*
X47451212Y-53012619D01*
X47451212Y-53012619D02*
X47498831Y-53060238D01*
X47498831Y-53060238D02*
X47522641Y-53107857D01*
X47522641Y-53107857D02*
X47546450Y-53203095D01*
X47546450Y-53203095D02*
X47546450Y-53274523D01*
X47546450Y-53274523D02*
X47522641Y-53369761D01*
X47522641Y-53369761D02*
X47498831Y-53417380D01*
X47498831Y-53417380D02*
X47451212Y-53465000D01*
X47451212Y-53465000D02*
X47379784Y-53488809D01*
X47379784Y-53488809D02*
X47260736Y-53488809D01*
X47713117Y-52988809D02*
X48022641Y-52988809D01*
X48022641Y-52988809D02*
X47855974Y-53179285D01*
X47855974Y-53179285D02*
X47927403Y-53179285D01*
X47927403Y-53179285D02*
X47975022Y-53203095D01*
X47975022Y-53203095D02*
X47998831Y-53226904D01*
X47998831Y-53226904D02*
X48022641Y-53274523D01*
X48022641Y-53274523D02*
X48022641Y-53393571D01*
X48022641Y-53393571D02*
X47998831Y-53441190D01*
X47998831Y-53441190D02*
X47975022Y-53465000D01*
X47975022Y-53465000D02*
X47927403Y-53488809D01*
X47927403Y-53488809D02*
X47784546Y-53488809D01*
X47784546Y-53488809D02*
X47736927Y-53465000D01*
X47736927Y-53465000D02*
X47713117Y-53441190D01*
X48475021Y-52988809D02*
X48236926Y-52988809D01*
X48236926Y-52988809D02*
X48213117Y-53226904D01*
X48213117Y-53226904D02*
X48236926Y-53203095D01*
X48236926Y-53203095D02*
X48284545Y-53179285D01*
X48284545Y-53179285D02*
X48403593Y-53179285D01*
X48403593Y-53179285D02*
X48451212Y-53203095D01*
X48451212Y-53203095D02*
X48475021Y-53226904D01*
X48475021Y-53226904D02*
X48498831Y-53274523D01*
X48498831Y-53274523D02*
X48498831Y-53393571D01*
X48498831Y-53393571D02*
X48475021Y-53441190D01*
X48475021Y-53441190D02*
X48451212Y-53465000D01*
X48451212Y-53465000D02*
X48403593Y-53488809D01*
X48403593Y-53488809D02*
X48284545Y-53488809D01*
X48284545Y-53488809D02*
X48236926Y-53465000D01*
X48236926Y-53465000D02*
X48213117Y-53441190D01*
X28284857Y-91388809D02*
X28284857Y-90888809D01*
X28284857Y-90888809D02*
X28403905Y-90888809D01*
X28403905Y-90888809D02*
X28475333Y-90912619D01*
X28475333Y-90912619D02*
X28522952Y-90960238D01*
X28522952Y-90960238D02*
X28546762Y-91007857D01*
X28546762Y-91007857D02*
X28570571Y-91103095D01*
X28570571Y-91103095D02*
X28570571Y-91174523D01*
X28570571Y-91174523D02*
X28546762Y-91269761D01*
X28546762Y-91269761D02*
X28522952Y-91317380D01*
X28522952Y-91317380D02*
X28475333Y-91365000D01*
X28475333Y-91365000D02*
X28403905Y-91388809D01*
X28403905Y-91388809D02*
X28284857Y-91388809D01*
X28761048Y-90936428D02*
X28784857Y-90912619D01*
X28784857Y-90912619D02*
X28832476Y-90888809D01*
X28832476Y-90888809D02*
X28951524Y-90888809D01*
X28951524Y-90888809D02*
X28999143Y-90912619D01*
X28999143Y-90912619D02*
X29022952Y-90936428D01*
X29022952Y-90936428D02*
X29046762Y-90984047D01*
X29046762Y-90984047D02*
X29046762Y-91031666D01*
X29046762Y-91031666D02*
X29022952Y-91103095D01*
X29022952Y-91103095D02*
X28737238Y-91388809D01*
X28737238Y-91388809D02*
X29046762Y-91388809D01*
X29475333Y-90888809D02*
X29380095Y-90888809D01*
X29380095Y-90888809D02*
X29332476Y-90912619D01*
X29332476Y-90912619D02*
X29308666Y-90936428D01*
X29308666Y-90936428D02*
X29261047Y-91007857D01*
X29261047Y-91007857D02*
X29237238Y-91103095D01*
X29237238Y-91103095D02*
X29237238Y-91293571D01*
X29237238Y-91293571D02*
X29261047Y-91341190D01*
X29261047Y-91341190D02*
X29284857Y-91365000D01*
X29284857Y-91365000D02*
X29332476Y-91388809D01*
X29332476Y-91388809D02*
X29427714Y-91388809D01*
X29427714Y-91388809D02*
X29475333Y-91365000D01*
X29475333Y-91365000D02*
X29499142Y-91341190D01*
X29499142Y-91341190D02*
X29522952Y-91293571D01*
X29522952Y-91293571D02*
X29522952Y-91174523D01*
X29522952Y-91174523D02*
X29499142Y-91126904D01*
X29499142Y-91126904D02*
X29475333Y-91103095D01*
X29475333Y-91103095D02*
X29427714Y-91079285D01*
X29427714Y-91079285D02*
X29332476Y-91079285D01*
X29332476Y-91079285D02*
X29284857Y-91103095D01*
X29284857Y-91103095D02*
X29261047Y-91126904D01*
X29261047Y-91126904D02*
X29237238Y-91174523D01*
D11*
X41058667Y-114971200D02*
X41201524Y-115018819D01*
X41201524Y-115018819D02*
X41439619Y-115018819D01*
X41439619Y-115018819D02*
X41534857Y-114971200D01*
X41534857Y-114971200D02*
X41582476Y-114923580D01*
X41582476Y-114923580D02*
X41630095Y-114828342D01*
X41630095Y-114828342D02*
X41630095Y-114733104D01*
X41630095Y-114733104D02*
X41582476Y-114637866D01*
X41582476Y-114637866D02*
X41534857Y-114590247D01*
X41534857Y-114590247D02*
X41439619Y-114542628D01*
X41439619Y-114542628D02*
X41249143Y-114495009D01*
X41249143Y-114495009D02*
X41153905Y-114447390D01*
X41153905Y-114447390D02*
X41106286Y-114399771D01*
X41106286Y-114399771D02*
X41058667Y-114304533D01*
X41058667Y-114304533D02*
X41058667Y-114209295D01*
X41058667Y-114209295D02*
X41106286Y-114114057D01*
X41106286Y-114114057D02*
X41153905Y-114066438D01*
X41153905Y-114066438D02*
X41249143Y-114018819D01*
X41249143Y-114018819D02*
X41487238Y-114018819D01*
X41487238Y-114018819D02*
X41630095Y-114066438D01*
X41963429Y-114018819D02*
X42201524Y-115018819D01*
X42201524Y-115018819D02*
X42392000Y-114304533D01*
X42392000Y-114304533D02*
X42582476Y-115018819D01*
X42582476Y-115018819D02*
X42820572Y-114018819D01*
X43106286Y-114018819D02*
X43725333Y-114018819D01*
X43725333Y-114018819D02*
X43392000Y-114399771D01*
X43392000Y-114399771D02*
X43534857Y-114399771D01*
X43534857Y-114399771D02*
X43630095Y-114447390D01*
X43630095Y-114447390D02*
X43677714Y-114495009D01*
X43677714Y-114495009D02*
X43725333Y-114590247D01*
X43725333Y-114590247D02*
X43725333Y-114828342D01*
X43725333Y-114828342D02*
X43677714Y-114923580D01*
X43677714Y-114923580D02*
X43630095Y-114971200D01*
X43630095Y-114971200D02*
X43534857Y-115018819D01*
X43534857Y-115018819D02*
X43249143Y-115018819D01*
X43249143Y-115018819D02*
X43153905Y-114971200D01*
X43153905Y-114971200D02*
X43106286Y-114923580D01*
D10*
X47484857Y-72588809D02*
X47484857Y-72088809D01*
X47484857Y-72088809D02*
X47603905Y-72088809D01*
X47603905Y-72088809D02*
X47675333Y-72112619D01*
X47675333Y-72112619D02*
X47722952Y-72160238D01*
X47722952Y-72160238D02*
X47746762Y-72207857D01*
X47746762Y-72207857D02*
X47770571Y-72303095D01*
X47770571Y-72303095D02*
X47770571Y-72374523D01*
X47770571Y-72374523D02*
X47746762Y-72469761D01*
X47746762Y-72469761D02*
X47722952Y-72517380D01*
X47722952Y-72517380D02*
X47675333Y-72565000D01*
X47675333Y-72565000D02*
X47603905Y-72588809D01*
X47603905Y-72588809D02*
X47484857Y-72588809D01*
X47937238Y-72088809D02*
X48246762Y-72088809D01*
X48246762Y-72088809D02*
X48080095Y-72279285D01*
X48080095Y-72279285D02*
X48151524Y-72279285D01*
X48151524Y-72279285D02*
X48199143Y-72303095D01*
X48199143Y-72303095D02*
X48222952Y-72326904D01*
X48222952Y-72326904D02*
X48246762Y-72374523D01*
X48246762Y-72374523D02*
X48246762Y-72493571D01*
X48246762Y-72493571D02*
X48222952Y-72541190D01*
X48222952Y-72541190D02*
X48199143Y-72565000D01*
X48199143Y-72565000D02*
X48151524Y-72588809D01*
X48151524Y-72588809D02*
X48008667Y-72588809D01*
X48008667Y-72588809D02*
X47961048Y-72565000D01*
X47961048Y-72565000D02*
X47937238Y-72541190D01*
X48722952Y-72588809D02*
X48437238Y-72588809D01*
X48580095Y-72588809D02*
X48580095Y-72088809D01*
X48580095Y-72088809D02*
X48532476Y-72160238D01*
X48532476Y-72160238D02*
X48484857Y-72207857D01*
X48484857Y-72207857D02*
X48437238Y-72231666D01*
X66384857Y-91288809D02*
X66384857Y-90788809D01*
X66384857Y-90788809D02*
X66503905Y-90788809D01*
X66503905Y-90788809D02*
X66575333Y-90812619D01*
X66575333Y-90812619D02*
X66622952Y-90860238D01*
X66622952Y-90860238D02*
X66646762Y-90907857D01*
X66646762Y-90907857D02*
X66670571Y-91003095D01*
X66670571Y-91003095D02*
X66670571Y-91074523D01*
X66670571Y-91074523D02*
X66646762Y-91169761D01*
X66646762Y-91169761D02*
X66622952Y-91217380D01*
X66622952Y-91217380D02*
X66575333Y-91265000D01*
X66575333Y-91265000D02*
X66503905Y-91288809D01*
X66503905Y-91288809D02*
X66384857Y-91288809D01*
X66861048Y-90836428D02*
X66884857Y-90812619D01*
X66884857Y-90812619D02*
X66932476Y-90788809D01*
X66932476Y-90788809D02*
X67051524Y-90788809D01*
X67051524Y-90788809D02*
X67099143Y-90812619D01*
X67099143Y-90812619D02*
X67122952Y-90836428D01*
X67122952Y-90836428D02*
X67146762Y-90884047D01*
X67146762Y-90884047D02*
X67146762Y-90931666D01*
X67146762Y-90931666D02*
X67122952Y-91003095D01*
X67122952Y-91003095D02*
X66837238Y-91288809D01*
X66837238Y-91288809D02*
X67146762Y-91288809D01*
X67432476Y-91003095D02*
X67384857Y-90979285D01*
X67384857Y-90979285D02*
X67361047Y-90955476D01*
X67361047Y-90955476D02*
X67337238Y-90907857D01*
X67337238Y-90907857D02*
X67337238Y-90884047D01*
X67337238Y-90884047D02*
X67361047Y-90836428D01*
X67361047Y-90836428D02*
X67384857Y-90812619D01*
X67384857Y-90812619D02*
X67432476Y-90788809D01*
X67432476Y-90788809D02*
X67527714Y-90788809D01*
X67527714Y-90788809D02*
X67575333Y-90812619D01*
X67575333Y-90812619D02*
X67599142Y-90836428D01*
X67599142Y-90836428D02*
X67622952Y-90884047D01*
X67622952Y-90884047D02*
X67622952Y-90907857D01*
X67622952Y-90907857D02*
X67599142Y-90955476D01*
X67599142Y-90955476D02*
X67575333Y-90979285D01*
X67575333Y-90979285D02*
X67527714Y-91003095D01*
X67527714Y-91003095D02*
X67432476Y-91003095D01*
X67432476Y-91003095D02*
X67384857Y-91026904D01*
X67384857Y-91026904D02*
X67361047Y-91050714D01*
X67361047Y-91050714D02*
X67337238Y-91098333D01*
X67337238Y-91098333D02*
X67337238Y-91193571D01*
X67337238Y-91193571D02*
X67361047Y-91241190D01*
X67361047Y-91241190D02*
X67384857Y-91265000D01*
X67384857Y-91265000D02*
X67432476Y-91288809D01*
X67432476Y-91288809D02*
X67527714Y-91288809D01*
X67527714Y-91288809D02*
X67575333Y-91265000D01*
X67575333Y-91265000D02*
X67599142Y-91241190D01*
X67599142Y-91241190D02*
X67622952Y-91193571D01*
X67622952Y-91193571D02*
X67622952Y-91098333D01*
X67622952Y-91098333D02*
X67599142Y-91050714D01*
X67599142Y-91050714D02*
X67575333Y-91026904D01*
X67575333Y-91026904D02*
X67527714Y-91003095D01*
D11*
X59719476Y-76871200D02*
X59862333Y-76918819D01*
X59862333Y-76918819D02*
X60100428Y-76918819D01*
X60100428Y-76918819D02*
X60195666Y-76871200D01*
X60195666Y-76871200D02*
X60243285Y-76823580D01*
X60243285Y-76823580D02*
X60290904Y-76728342D01*
X60290904Y-76728342D02*
X60290904Y-76633104D01*
X60290904Y-76633104D02*
X60243285Y-76537866D01*
X60243285Y-76537866D02*
X60195666Y-76490247D01*
X60195666Y-76490247D02*
X60100428Y-76442628D01*
X60100428Y-76442628D02*
X59909952Y-76395009D01*
X59909952Y-76395009D02*
X59814714Y-76347390D01*
X59814714Y-76347390D02*
X59767095Y-76299771D01*
X59767095Y-76299771D02*
X59719476Y-76204533D01*
X59719476Y-76204533D02*
X59719476Y-76109295D01*
X59719476Y-76109295D02*
X59767095Y-76014057D01*
X59767095Y-76014057D02*
X59814714Y-75966438D01*
X59814714Y-75966438D02*
X59909952Y-75918819D01*
X59909952Y-75918819D02*
X60148047Y-75918819D01*
X60148047Y-75918819D02*
X60290904Y-75966438D01*
X60624238Y-75918819D02*
X60862333Y-76918819D01*
X60862333Y-76918819D02*
X61052809Y-76204533D01*
X61052809Y-76204533D02*
X61243285Y-76918819D01*
X61243285Y-76918819D02*
X61481381Y-75918819D01*
X62386142Y-76918819D02*
X61814714Y-76918819D01*
X62100428Y-76918819D02*
X62100428Y-75918819D01*
X62100428Y-75918819D02*
X62005190Y-76061676D01*
X62005190Y-76061676D02*
X61909952Y-76156914D01*
X61909952Y-76156914D02*
X61814714Y-76204533D01*
X62767095Y-76014057D02*
X62814714Y-75966438D01*
X62814714Y-75966438D02*
X62909952Y-75918819D01*
X62909952Y-75918819D02*
X63148047Y-75918819D01*
X63148047Y-75918819D02*
X63243285Y-75966438D01*
X63243285Y-75966438D02*
X63290904Y-76014057D01*
X63290904Y-76014057D02*
X63338523Y-76109295D01*
X63338523Y-76109295D02*
X63338523Y-76204533D01*
X63338523Y-76204533D02*
X63290904Y-76347390D01*
X63290904Y-76347390D02*
X62719476Y-76918819D01*
X62719476Y-76918819D02*
X63338523Y-76918819D01*
X21492476Y-57821200D02*
X21635333Y-57868819D01*
X21635333Y-57868819D02*
X21873428Y-57868819D01*
X21873428Y-57868819D02*
X21968666Y-57821200D01*
X21968666Y-57821200D02*
X22016285Y-57773580D01*
X22016285Y-57773580D02*
X22063904Y-57678342D01*
X22063904Y-57678342D02*
X22063904Y-57583104D01*
X22063904Y-57583104D02*
X22016285Y-57487866D01*
X22016285Y-57487866D02*
X21968666Y-57440247D01*
X21968666Y-57440247D02*
X21873428Y-57392628D01*
X21873428Y-57392628D02*
X21682952Y-57345009D01*
X21682952Y-57345009D02*
X21587714Y-57297390D01*
X21587714Y-57297390D02*
X21540095Y-57249771D01*
X21540095Y-57249771D02*
X21492476Y-57154533D01*
X21492476Y-57154533D02*
X21492476Y-57059295D01*
X21492476Y-57059295D02*
X21540095Y-56964057D01*
X21540095Y-56964057D02*
X21587714Y-56916438D01*
X21587714Y-56916438D02*
X21682952Y-56868819D01*
X21682952Y-56868819D02*
X21921047Y-56868819D01*
X21921047Y-56868819D02*
X22063904Y-56916438D01*
X22397238Y-56868819D02*
X22635333Y-57868819D01*
X22635333Y-57868819D02*
X22825809Y-57154533D01*
X22825809Y-57154533D02*
X23016285Y-57868819D01*
X23016285Y-57868819D02*
X23254381Y-56868819D01*
X24159142Y-57868819D02*
X23587714Y-57868819D01*
X23873428Y-57868819D02*
X23873428Y-56868819D01*
X23873428Y-56868819D02*
X23778190Y-57011676D01*
X23778190Y-57011676D02*
X23682952Y-57106914D01*
X23682952Y-57106914D02*
X23587714Y-57154533D01*
X25016285Y-57202152D02*
X25016285Y-57868819D01*
X24778190Y-56821200D02*
X24540095Y-57535485D01*
X24540095Y-57535485D02*
X25159142Y-57535485D01*
X21923667Y-95920200D02*
X22066524Y-95967819D01*
X22066524Y-95967819D02*
X22304619Y-95967819D01*
X22304619Y-95967819D02*
X22399857Y-95920200D01*
X22399857Y-95920200D02*
X22447476Y-95872580D01*
X22447476Y-95872580D02*
X22495095Y-95777342D01*
X22495095Y-95777342D02*
X22495095Y-95682104D01*
X22495095Y-95682104D02*
X22447476Y-95586866D01*
X22447476Y-95586866D02*
X22399857Y-95539247D01*
X22399857Y-95539247D02*
X22304619Y-95491628D01*
X22304619Y-95491628D02*
X22114143Y-95444009D01*
X22114143Y-95444009D02*
X22018905Y-95396390D01*
X22018905Y-95396390D02*
X21971286Y-95348771D01*
X21971286Y-95348771D02*
X21923667Y-95253533D01*
X21923667Y-95253533D02*
X21923667Y-95158295D01*
X21923667Y-95158295D02*
X21971286Y-95063057D01*
X21971286Y-95063057D02*
X22018905Y-95015438D01*
X22018905Y-95015438D02*
X22114143Y-94967819D01*
X22114143Y-94967819D02*
X22352238Y-94967819D01*
X22352238Y-94967819D02*
X22495095Y-95015438D01*
X22828429Y-94967819D02*
X23066524Y-95967819D01*
X23066524Y-95967819D02*
X23257000Y-95253533D01*
X23257000Y-95253533D02*
X23447476Y-95967819D01*
X23447476Y-95967819D02*
X23685572Y-94967819D01*
X24495095Y-94967819D02*
X24304619Y-94967819D01*
X24304619Y-94967819D02*
X24209381Y-95015438D01*
X24209381Y-95015438D02*
X24161762Y-95063057D01*
X24161762Y-95063057D02*
X24066524Y-95205914D01*
X24066524Y-95205914D02*
X24018905Y-95396390D01*
X24018905Y-95396390D02*
X24018905Y-95777342D01*
X24018905Y-95777342D02*
X24066524Y-95872580D01*
X24066524Y-95872580D02*
X24114143Y-95920200D01*
X24114143Y-95920200D02*
X24209381Y-95967819D01*
X24209381Y-95967819D02*
X24399857Y-95967819D01*
X24399857Y-95967819D02*
X24495095Y-95920200D01*
X24495095Y-95920200D02*
X24542714Y-95872580D01*
X24542714Y-95872580D02*
X24590333Y-95777342D01*
X24590333Y-95777342D02*
X24590333Y-95539247D01*
X24590333Y-95539247D02*
X24542714Y-95444009D01*
X24542714Y-95444009D02*
X24495095Y-95396390D01*
X24495095Y-95396390D02*
X24399857Y-95348771D01*
X24399857Y-95348771D02*
X24209381Y-95348771D01*
X24209381Y-95348771D02*
X24114143Y-95396390D01*
X24114143Y-95396390D02*
X24066524Y-95444009D01*
X24066524Y-95444009D02*
X24018905Y-95539247D01*
X21935667Y-114971200D02*
X22078524Y-115018819D01*
X22078524Y-115018819D02*
X22316619Y-115018819D01*
X22316619Y-115018819D02*
X22411857Y-114971200D01*
X22411857Y-114971200D02*
X22459476Y-114923580D01*
X22459476Y-114923580D02*
X22507095Y-114828342D01*
X22507095Y-114828342D02*
X22507095Y-114733104D01*
X22507095Y-114733104D02*
X22459476Y-114637866D01*
X22459476Y-114637866D02*
X22411857Y-114590247D01*
X22411857Y-114590247D02*
X22316619Y-114542628D01*
X22316619Y-114542628D02*
X22126143Y-114495009D01*
X22126143Y-114495009D02*
X22030905Y-114447390D01*
X22030905Y-114447390D02*
X21983286Y-114399771D01*
X21983286Y-114399771D02*
X21935667Y-114304533D01*
X21935667Y-114304533D02*
X21935667Y-114209295D01*
X21935667Y-114209295D02*
X21983286Y-114114057D01*
X21983286Y-114114057D02*
X22030905Y-114066438D01*
X22030905Y-114066438D02*
X22126143Y-114018819D01*
X22126143Y-114018819D02*
X22364238Y-114018819D01*
X22364238Y-114018819D02*
X22507095Y-114066438D01*
X22840429Y-114018819D02*
X23078524Y-115018819D01*
X23078524Y-115018819D02*
X23269000Y-114304533D01*
X23269000Y-114304533D02*
X23459476Y-115018819D01*
X23459476Y-115018819D02*
X23697572Y-114018819D01*
X24030905Y-114114057D02*
X24078524Y-114066438D01*
X24078524Y-114066438D02*
X24173762Y-114018819D01*
X24173762Y-114018819D02*
X24411857Y-114018819D01*
X24411857Y-114018819D02*
X24507095Y-114066438D01*
X24507095Y-114066438D02*
X24554714Y-114114057D01*
X24554714Y-114114057D02*
X24602333Y-114209295D01*
X24602333Y-114209295D02*
X24602333Y-114304533D01*
X24602333Y-114304533D02*
X24554714Y-114447390D01*
X24554714Y-114447390D02*
X23983286Y-115018819D01*
X23983286Y-115018819D02*
X24602333Y-115018819D01*
X2569476Y-38898200D02*
X2712333Y-38945819D01*
X2712333Y-38945819D02*
X2950428Y-38945819D01*
X2950428Y-38945819D02*
X3045666Y-38898200D01*
X3045666Y-38898200D02*
X3093285Y-38850580D01*
X3093285Y-38850580D02*
X3140904Y-38755342D01*
X3140904Y-38755342D02*
X3140904Y-38660104D01*
X3140904Y-38660104D02*
X3093285Y-38564866D01*
X3093285Y-38564866D02*
X3045666Y-38517247D01*
X3045666Y-38517247D02*
X2950428Y-38469628D01*
X2950428Y-38469628D02*
X2759952Y-38422009D01*
X2759952Y-38422009D02*
X2664714Y-38374390D01*
X2664714Y-38374390D02*
X2617095Y-38326771D01*
X2617095Y-38326771D02*
X2569476Y-38231533D01*
X2569476Y-38231533D02*
X2569476Y-38136295D01*
X2569476Y-38136295D02*
X2617095Y-38041057D01*
X2617095Y-38041057D02*
X2664714Y-37993438D01*
X2664714Y-37993438D02*
X2759952Y-37945819D01*
X2759952Y-37945819D02*
X2998047Y-37945819D01*
X2998047Y-37945819D02*
X3140904Y-37993438D01*
X3474238Y-37945819D02*
X3712333Y-38945819D01*
X3712333Y-38945819D02*
X3902809Y-38231533D01*
X3902809Y-38231533D02*
X4093285Y-38945819D01*
X4093285Y-38945819D02*
X4331381Y-37945819D01*
X5236142Y-38945819D02*
X4664714Y-38945819D01*
X4950428Y-38945819D02*
X4950428Y-37945819D01*
X4950428Y-37945819D02*
X4855190Y-38088676D01*
X4855190Y-38088676D02*
X4759952Y-38183914D01*
X4759952Y-38183914D02*
X4664714Y-38231533D01*
X5569476Y-37945819D02*
X6236142Y-37945819D01*
X6236142Y-37945819D02*
X5807571Y-38945819D01*
X39358666Y-21218819D02*
X39358666Y-21933104D01*
X39358666Y-21933104D02*
X39311047Y-22075961D01*
X39311047Y-22075961D02*
X39215809Y-22171200D01*
X39215809Y-22171200D02*
X39072952Y-22218819D01*
X39072952Y-22218819D02*
X38977714Y-22218819D01*
X40358666Y-22218819D02*
X39787238Y-22218819D01*
X40072952Y-22218819D02*
X40072952Y-21218819D01*
X40072952Y-21218819D02*
X39977714Y-21361676D01*
X39977714Y-21361676D02*
X39882476Y-21456914D01*
X39882476Y-21456914D02*
X39787238Y-21504533D01*
X5449142Y-11868819D02*
X5115809Y-11392628D01*
X4877714Y-11868819D02*
X4877714Y-10868819D01*
X4877714Y-10868819D02*
X5258666Y-10868819D01*
X5258666Y-10868819D02*
X5353904Y-10916438D01*
X5353904Y-10916438D02*
X5401523Y-10964057D01*
X5401523Y-10964057D02*
X5449142Y-11059295D01*
X5449142Y-11059295D02*
X5449142Y-11202152D01*
X5449142Y-11202152D02*
X5401523Y-11297390D01*
X5401523Y-11297390D02*
X5353904Y-11345009D01*
X5353904Y-11345009D02*
X5258666Y-11392628D01*
X5258666Y-11392628D02*
X4877714Y-11392628D01*
X6401523Y-11868819D02*
X5830095Y-11868819D01*
X6115809Y-11868819D02*
X6115809Y-10868819D01*
X6115809Y-10868819D02*
X6020571Y-11011676D01*
X6020571Y-11011676D02*
X5925333Y-11106914D01*
X5925333Y-11106914D02*
X5830095Y-11154533D01*
X7353904Y-11868819D02*
X6782476Y-11868819D01*
X7068190Y-11868819D02*
X7068190Y-10868819D01*
X7068190Y-10868819D02*
X6972952Y-11011676D01*
X6972952Y-11011676D02*
X6877714Y-11106914D01*
X6877714Y-11106914D02*
X6782476Y-11154533D01*
X59632476Y-38898200D02*
X59775333Y-38945819D01*
X59775333Y-38945819D02*
X60013428Y-38945819D01*
X60013428Y-38945819D02*
X60108666Y-38898200D01*
X60108666Y-38898200D02*
X60156285Y-38850580D01*
X60156285Y-38850580D02*
X60203904Y-38755342D01*
X60203904Y-38755342D02*
X60203904Y-38660104D01*
X60203904Y-38660104D02*
X60156285Y-38564866D01*
X60156285Y-38564866D02*
X60108666Y-38517247D01*
X60108666Y-38517247D02*
X60013428Y-38469628D01*
X60013428Y-38469628D02*
X59822952Y-38422009D01*
X59822952Y-38422009D02*
X59727714Y-38374390D01*
X59727714Y-38374390D02*
X59680095Y-38326771D01*
X59680095Y-38326771D02*
X59632476Y-38231533D01*
X59632476Y-38231533D02*
X59632476Y-38136295D01*
X59632476Y-38136295D02*
X59680095Y-38041057D01*
X59680095Y-38041057D02*
X59727714Y-37993438D01*
X59727714Y-37993438D02*
X59822952Y-37945819D01*
X59822952Y-37945819D02*
X60061047Y-37945819D01*
X60061047Y-37945819D02*
X60203904Y-37993438D01*
X60537238Y-37945819D02*
X60775333Y-38945819D01*
X60775333Y-38945819D02*
X60965809Y-38231533D01*
X60965809Y-38231533D02*
X61156285Y-38945819D01*
X61156285Y-38945819D02*
X61394381Y-37945819D01*
X61727714Y-38041057D02*
X61775333Y-37993438D01*
X61775333Y-37993438D02*
X61870571Y-37945819D01*
X61870571Y-37945819D02*
X62108666Y-37945819D01*
X62108666Y-37945819D02*
X62203904Y-37993438D01*
X62203904Y-37993438D02*
X62251523Y-38041057D01*
X62251523Y-38041057D02*
X62299142Y-38136295D01*
X62299142Y-38136295D02*
X62299142Y-38231533D01*
X62299142Y-38231533D02*
X62251523Y-38374390D01*
X62251523Y-38374390D02*
X61680095Y-38945819D01*
X61680095Y-38945819D02*
X62299142Y-38945819D01*
X62918190Y-37945819D02*
X63013428Y-37945819D01*
X63013428Y-37945819D02*
X63108666Y-37993438D01*
X63108666Y-37993438D02*
X63156285Y-38041057D01*
X63156285Y-38041057D02*
X63203904Y-38136295D01*
X63203904Y-38136295D02*
X63251523Y-38326771D01*
X63251523Y-38326771D02*
X63251523Y-38564866D01*
X63251523Y-38564866D02*
X63203904Y-38755342D01*
X63203904Y-38755342D02*
X63156285Y-38850580D01*
X63156285Y-38850580D02*
X63108666Y-38898200D01*
X63108666Y-38898200D02*
X63013428Y-38945819D01*
X63013428Y-38945819D02*
X62918190Y-38945819D01*
X62918190Y-38945819D02*
X62822952Y-38898200D01*
X62822952Y-38898200D02*
X62775333Y-38850580D01*
X62775333Y-38850580D02*
X62727714Y-38755342D01*
X62727714Y-38755342D02*
X62680095Y-38564866D01*
X62680095Y-38564866D02*
X62680095Y-38326771D01*
X62680095Y-38326771D02*
X62727714Y-38136295D01*
X62727714Y-38136295D02*
X62775333Y-38041057D01*
X62775333Y-38041057D02*
X62822952Y-37993438D01*
X62822952Y-37993438D02*
X62918190Y-37945819D01*
D10*
X9184857Y-72488809D02*
X9184857Y-71988809D01*
X9184857Y-71988809D02*
X9303905Y-71988809D01*
X9303905Y-71988809D02*
X9375333Y-72012619D01*
X9375333Y-72012619D02*
X9422952Y-72060238D01*
X9422952Y-72060238D02*
X9446762Y-72107857D01*
X9446762Y-72107857D02*
X9470571Y-72203095D01*
X9470571Y-72203095D02*
X9470571Y-72274523D01*
X9470571Y-72274523D02*
X9446762Y-72369761D01*
X9446762Y-72369761D02*
X9422952Y-72417380D01*
X9422952Y-72417380D02*
X9375333Y-72465000D01*
X9375333Y-72465000D02*
X9303905Y-72488809D01*
X9303905Y-72488809D02*
X9184857Y-72488809D01*
X9661048Y-72036428D02*
X9684857Y-72012619D01*
X9684857Y-72012619D02*
X9732476Y-71988809D01*
X9732476Y-71988809D02*
X9851524Y-71988809D01*
X9851524Y-71988809D02*
X9899143Y-72012619D01*
X9899143Y-72012619D02*
X9922952Y-72036428D01*
X9922952Y-72036428D02*
X9946762Y-72084047D01*
X9946762Y-72084047D02*
X9946762Y-72131666D01*
X9946762Y-72131666D02*
X9922952Y-72203095D01*
X9922952Y-72203095D02*
X9637238Y-72488809D01*
X9637238Y-72488809D02*
X9946762Y-72488809D01*
X10184857Y-72488809D02*
X10280095Y-72488809D01*
X10280095Y-72488809D02*
X10327714Y-72465000D01*
X10327714Y-72465000D02*
X10351523Y-72441190D01*
X10351523Y-72441190D02*
X10399142Y-72369761D01*
X10399142Y-72369761D02*
X10422952Y-72274523D01*
X10422952Y-72274523D02*
X10422952Y-72084047D01*
X10422952Y-72084047D02*
X10399142Y-72036428D01*
X10399142Y-72036428D02*
X10375333Y-72012619D01*
X10375333Y-72012619D02*
X10327714Y-71988809D01*
X10327714Y-71988809D02*
X10232476Y-71988809D01*
X10232476Y-71988809D02*
X10184857Y-72012619D01*
X10184857Y-72012619D02*
X10161047Y-72036428D01*
X10161047Y-72036428D02*
X10137238Y-72084047D01*
X10137238Y-72084047D02*
X10137238Y-72203095D01*
X10137238Y-72203095D02*
X10161047Y-72250714D01*
X10161047Y-72250714D02*
X10184857Y-72274523D01*
X10184857Y-72274523D02*
X10232476Y-72298333D01*
X10232476Y-72298333D02*
X10327714Y-72298333D01*
X10327714Y-72298333D02*
X10375333Y-72274523D01*
X10375333Y-72274523D02*
X10399142Y-72250714D01*
X10399142Y-72250714D02*
X10422952Y-72203095D01*
D11*
X2958667Y-95921200D02*
X3101524Y-95968819D01*
X3101524Y-95968819D02*
X3339619Y-95968819D01*
X3339619Y-95968819D02*
X3434857Y-95921200D01*
X3434857Y-95921200D02*
X3482476Y-95873580D01*
X3482476Y-95873580D02*
X3530095Y-95778342D01*
X3530095Y-95778342D02*
X3530095Y-95683104D01*
X3530095Y-95683104D02*
X3482476Y-95587866D01*
X3482476Y-95587866D02*
X3434857Y-95540247D01*
X3434857Y-95540247D02*
X3339619Y-95492628D01*
X3339619Y-95492628D02*
X3149143Y-95445009D01*
X3149143Y-95445009D02*
X3053905Y-95397390D01*
X3053905Y-95397390D02*
X3006286Y-95349771D01*
X3006286Y-95349771D02*
X2958667Y-95254533D01*
X2958667Y-95254533D02*
X2958667Y-95159295D01*
X2958667Y-95159295D02*
X3006286Y-95064057D01*
X3006286Y-95064057D02*
X3053905Y-95016438D01*
X3053905Y-95016438D02*
X3149143Y-94968819D01*
X3149143Y-94968819D02*
X3387238Y-94968819D01*
X3387238Y-94968819D02*
X3530095Y-95016438D01*
X3863429Y-94968819D02*
X4101524Y-95968819D01*
X4101524Y-95968819D02*
X4292000Y-95254533D01*
X4292000Y-95254533D02*
X4482476Y-95968819D01*
X4482476Y-95968819D02*
X4720572Y-94968819D01*
X5577714Y-94968819D02*
X5101524Y-94968819D01*
X5101524Y-94968819D02*
X5053905Y-95445009D01*
X5053905Y-95445009D02*
X5101524Y-95397390D01*
X5101524Y-95397390D02*
X5196762Y-95349771D01*
X5196762Y-95349771D02*
X5434857Y-95349771D01*
X5434857Y-95349771D02*
X5530095Y-95397390D01*
X5530095Y-95397390D02*
X5577714Y-95445009D01*
X5577714Y-95445009D02*
X5625333Y-95540247D01*
X5625333Y-95540247D02*
X5625333Y-95778342D01*
X5625333Y-95778342D02*
X5577714Y-95873580D01*
X5577714Y-95873580D02*
X5530095Y-95921200D01*
X5530095Y-95921200D02*
X5434857Y-95968819D01*
X5434857Y-95968819D02*
X5196762Y-95968819D01*
X5196762Y-95968819D02*
X5101524Y-95921200D01*
X5101524Y-95921200D02*
X5053905Y-95873580D01*
D10*
X66484857Y-72588809D02*
X66484857Y-72088809D01*
X66484857Y-72088809D02*
X66603905Y-72088809D01*
X66603905Y-72088809D02*
X66675333Y-72112619D01*
X66675333Y-72112619D02*
X66722952Y-72160238D01*
X66722952Y-72160238D02*
X66746762Y-72207857D01*
X66746762Y-72207857D02*
X66770571Y-72303095D01*
X66770571Y-72303095D02*
X66770571Y-72374523D01*
X66770571Y-72374523D02*
X66746762Y-72469761D01*
X66746762Y-72469761D02*
X66722952Y-72517380D01*
X66722952Y-72517380D02*
X66675333Y-72565000D01*
X66675333Y-72565000D02*
X66603905Y-72588809D01*
X66603905Y-72588809D02*
X66484857Y-72588809D01*
X66937238Y-72088809D02*
X67246762Y-72088809D01*
X67246762Y-72088809D02*
X67080095Y-72279285D01*
X67080095Y-72279285D02*
X67151524Y-72279285D01*
X67151524Y-72279285D02*
X67199143Y-72303095D01*
X67199143Y-72303095D02*
X67222952Y-72326904D01*
X67222952Y-72326904D02*
X67246762Y-72374523D01*
X67246762Y-72374523D02*
X67246762Y-72493571D01*
X67246762Y-72493571D02*
X67222952Y-72541190D01*
X67222952Y-72541190D02*
X67199143Y-72565000D01*
X67199143Y-72565000D02*
X67151524Y-72588809D01*
X67151524Y-72588809D02*
X67008667Y-72588809D01*
X67008667Y-72588809D02*
X66961048Y-72565000D01*
X66961048Y-72565000D02*
X66937238Y-72541190D01*
X67437238Y-72136428D02*
X67461047Y-72112619D01*
X67461047Y-72112619D02*
X67508666Y-72088809D01*
X67508666Y-72088809D02*
X67627714Y-72088809D01*
X67627714Y-72088809D02*
X67675333Y-72112619D01*
X67675333Y-72112619D02*
X67699142Y-72136428D01*
X67699142Y-72136428D02*
X67722952Y-72184047D01*
X67722952Y-72184047D02*
X67722952Y-72231666D01*
X67722952Y-72231666D02*
X67699142Y-72303095D01*
X67699142Y-72303095D02*
X67413428Y-72588809D01*
X67413428Y-72588809D02*
X67722952Y-72588809D01*
D12*
%TO.C,D38*%
X27267879Y-37010843D02*
X27267879Y-34710843D01*
X30167879Y-37010843D02*
X27267879Y-37010843D01*
X30167879Y-37010843D02*
X30467879Y-36710843D01*
X30467879Y-34710843D02*
X27267879Y-34710843D01*
X30467879Y-34710843D02*
X30467879Y-36710843D01*
%TO.C,U1*%
X14401335Y-16604000D02*
X13601335Y-16604000D01*
X14401335Y-16604000D02*
X15201335Y-16604000D01*
X14401335Y-19724000D02*
X13601335Y-19724000D01*
X14401335Y-19724000D02*
X15201335Y-19724000D01*
X15941335Y-20004000D02*
X15461335Y-20004000D01*
X15701335Y-19674000D01*
X15941335Y-20004000D01*
G36*
X15941335Y-20004000D02*
G01*
X15461335Y-20004000D01*
X15701335Y-19674000D01*
X15941335Y-20004000D01*
G37*
%TO.C,D1*%
X8265879Y-116299000D02*
X12150879Y-116299000D01*
X12150879Y-114029000D02*
X8265879Y-114029000D01*
X12150879Y-116299000D02*
X12150879Y-114029000D01*
%TO.C,R10*%
X29619064Y-18129000D02*
X29164936Y-18129000D01*
X29619064Y-19599000D02*
X29164936Y-19599000D01*
%TO.C,U3*%
X20972879Y-18880843D02*
X20972879Y-16680843D01*
X20972879Y-18880843D02*
X20972879Y-21080843D01*
X26442879Y-18880843D02*
X26442879Y-16680843D01*
X26442879Y-18880843D02*
X26442879Y-21080843D01*
X21672879Y-23070843D02*
X21192879Y-23070843D01*
X21432879Y-22740843D01*
X21672879Y-23070843D01*
G36*
X21672879Y-23070843D02*
G01*
X21192879Y-23070843D01*
X21432879Y-22740843D01*
X21672879Y-23070843D01*
G37*
%TO.C,C6*%
X36240752Y-2054000D02*
X34818248Y-2054000D01*
X36240752Y-3874000D02*
X34818248Y-3874000D01*
%TO.C,R17*%
X1782943Y-14127443D02*
X1328815Y-14127443D01*
X1782943Y-15597443D02*
X1328815Y-15597443D01*
%TO.C,C17*%
X37722879Y-74462095D02*
X37722879Y-73939591D01*
X39192879Y-74462095D02*
X39192879Y-73939591D01*
%TO.C,R5*%
X40988815Y-6381843D02*
X41442943Y-6381843D01*
X40988815Y-7851843D02*
X41442943Y-7851843D01*
%TO.C,D4*%
X65565879Y-116299000D02*
X69450879Y-116299000D01*
X69450879Y-114029000D02*
X65565879Y-114029000D01*
X69450879Y-116299000D02*
X69450879Y-114029000D01*
%TO.C,D20*%
X65315879Y-40499000D02*
X69200879Y-40499000D01*
X69200879Y-38229000D02*
X65315879Y-38229000D01*
X69200879Y-40499000D02*
X69200879Y-38229000D01*
%TO.C,D5*%
X8165879Y-97299000D02*
X12050879Y-97299000D01*
X12050879Y-95029000D02*
X8165879Y-95029000D01*
X12050879Y-97299000D02*
X12050879Y-95029000D01*
%TO.C,D36*%
X65517879Y-56010843D02*
X65517879Y-53710843D01*
X68417879Y-56010843D02*
X65517879Y-56010843D01*
X68417879Y-56010843D02*
X68717879Y-55710843D01*
X68717879Y-53710843D02*
X65517879Y-53710843D01*
X68717879Y-53710843D02*
X68717879Y-55710843D01*
%TO.C,D9*%
X8265879Y-78299000D02*
X12150879Y-78299000D01*
X12150879Y-76029000D02*
X8265879Y-76029000D01*
X12150879Y-78299000D02*
X12150879Y-76029000D01*
%TO.C,C22*%
X3164631Y-21570843D02*
X1742127Y-21570843D01*
X3164631Y-23390843D02*
X1742127Y-23390843D01*
%TO.C,D12*%
X65515879Y-78299000D02*
X69400879Y-78299000D01*
X69400879Y-76029000D02*
X65515879Y-76029000D01*
X69400879Y-78299000D02*
X69400879Y-76029000D01*
%TO.C,D23*%
X46437879Y-112910843D02*
X46437879Y-110610843D01*
X49337879Y-112910843D02*
X46437879Y-112910843D01*
X49337879Y-112910843D02*
X49637879Y-112610843D01*
X49637879Y-110610843D02*
X46437879Y-110610843D01*
X49637879Y-110610843D02*
X49637879Y-112610843D01*
%TO.C,D18*%
X27365879Y-40399000D02*
X31250879Y-40399000D01*
X31250879Y-38129000D02*
X27365879Y-38129000D01*
X31250879Y-40399000D02*
X31250879Y-38129000D01*
%TO.C,C8*%
X39260479Y181609D02*
X39260479Y-340895D01*
X40730479Y181609D02*
X40730479Y-340895D01*
%TO.C,Q3*%
X26992000Y-11004000D02*
X26342000Y-11004000D01*
X26992000Y-11004000D02*
X27642000Y-11004000D01*
X26992000Y-14124000D02*
X26342000Y-14124000D01*
X26992000Y-14124000D02*
X27642000Y-14124000D01*
X28394500Y-14404000D02*
X27914500Y-14404000D01*
X28154500Y-14074000D01*
X28394500Y-14404000D01*
G36*
X28394500Y-14404000D02*
G01*
X27914500Y-14404000D01*
X28154500Y-14074000D01*
X28394500Y-14404000D01*
G37*
%TO.C,D40*%
X65267879Y-37010843D02*
X65267879Y-34710843D01*
X68167879Y-37010843D02*
X65267879Y-37010843D01*
X68167879Y-37010843D02*
X68467879Y-36710843D01*
X68467879Y-34710843D02*
X65267879Y-34710843D01*
X68467879Y-34710843D02*
X68467879Y-36710843D01*
%TO.C,D46*%
X69663211Y-16266720D02*
X69663211Y-20151720D01*
X69663211Y-20151720D02*
X71933211Y-20151720D01*
X71933211Y-20151720D02*
X71933211Y-16266720D01*
%TO.C,D44*%
X12660335Y-22229000D02*
X12660335Y-24499000D01*
X12660335Y-24499000D02*
X16545335Y-24499000D01*
X16545335Y-22229000D02*
X12660335Y-22229000D01*
%TO.C,D10*%
X27265879Y-78299000D02*
X31150879Y-78299000D01*
X31150879Y-76029000D02*
X27265879Y-76029000D01*
X31150879Y-78299000D02*
X31150879Y-76029000D01*
%TO.C,D39*%
X46517879Y-37010843D02*
X46517879Y-34710843D01*
X49417879Y-37010843D02*
X46517879Y-37010843D01*
X49417879Y-37010843D02*
X49717879Y-36710843D01*
X49717879Y-34710843D02*
X46517879Y-34710843D01*
X49717879Y-34710843D02*
X49717879Y-36710843D01*
%TO.C,J7*%
X5982000Y8869157D02*
X34182000Y8869157D01*
X5982000Y-250843D02*
X5982000Y8869157D01*
X8942000Y-4020843D02*
X8942000Y-5020843D01*
X8942000Y-5020843D02*
X9942000Y-4520843D01*
X9942000Y-4520843D02*
X8942000Y-4020843D01*
X18032000Y-250843D02*
X18032000Y8869157D01*
X22132000Y-250843D02*
X22132000Y8869157D01*
X34182000Y8869157D02*
X34182000Y-250843D01*
X34182000Y-250843D02*
X5982000Y-250843D01*
%TO.C,C18*%
X37457000Y-93404595D02*
X37457000Y-92882091D01*
X38927000Y-93404595D02*
X38927000Y-92882091D01*
%TO.C,C14*%
X37357000Y-36609595D02*
X37357000Y-36087091D01*
X38827000Y-36609595D02*
X38827000Y-36087091D01*
%TO.C,C7*%
X36753252Y1571000D02*
X36230748Y1571000D01*
X36753252Y101000D02*
X36230748Y101000D01*
%TO.C,Q1*%
X22942000Y-5654000D02*
X22292000Y-5654000D01*
X22942000Y-5654000D02*
X23592000Y-5654000D01*
X22942000Y-8774000D02*
X22292000Y-8774000D01*
X22942000Y-8774000D02*
X23592000Y-8774000D01*
X21779500Y-5704000D02*
X21539500Y-5374000D01*
X22019500Y-5374000D01*
X21779500Y-5704000D01*
G36*
X21779500Y-5704000D02*
G01*
X21539500Y-5374000D01*
X22019500Y-5374000D01*
X21779500Y-5704000D01*
G37*
%TO.C,J6*%
X3082879Y-1410843D02*
X4782879Y-1410843D01*
X3082879Y-10750843D02*
X4782879Y-10750843D01*
%TO.C,L1*%
X14947879Y-7804000D02*
X16397879Y-7804000D01*
X14947879Y-14024000D02*
X14947879Y-7804000D01*
X14947879Y-14024000D02*
X16397879Y-14024000D01*
X20867879Y-7804000D02*
X19417879Y-7804000D01*
X20867879Y-14024000D02*
X19417879Y-14024000D01*
X20867879Y-14024000D02*
X20867879Y-7804000D01*
%TO.C,D25*%
X8267879Y-93910843D02*
X8267879Y-91610843D01*
X11167879Y-93910843D02*
X8267879Y-93910843D01*
X11167879Y-93910843D02*
X11467879Y-93610843D01*
X11467879Y-91610843D02*
X8267879Y-91610843D01*
X11467879Y-91610843D02*
X11467879Y-93610843D01*
%TO.C,D16*%
X65515879Y-59599000D02*
X69400879Y-59599000D01*
X69400879Y-57329000D02*
X65515879Y-57329000D01*
X69400879Y-59599000D02*
X69400879Y-57329000D01*
%TO.C,U4*%
X43767668Y8597277D02*
X43767668Y2397277D01*
X43767668Y8597277D02*
X62167668Y8597277D01*
X43767668Y-16252723D02*
X43767668Y-17252723D01*
X43767668Y-17252723D02*
X45267668Y-17252723D01*
X62167668Y8597277D02*
X62167668Y2397277D01*
X62167668Y-17252723D02*
X60667668Y-17252723D01*
X62167668Y-17252723D02*
X62167668Y-16252723D01*
X43767668Y1722277D02*
X43267668Y1722277D01*
X43767668Y2222277D01*
X43767668Y1722277D01*
G36*
X43767668Y1722277D02*
G01*
X43267668Y1722277D01*
X43767668Y2222277D01*
X43767668Y1722277D01*
G37*
%TO.C,D6*%
X27215879Y-97363000D02*
X31100879Y-97363000D01*
X31100879Y-95093000D02*
X27215879Y-95093000D01*
X31100879Y-97363000D02*
X31100879Y-95093000D01*
%TO.C,D43*%
X12255335Y-20414000D02*
X6745335Y-20414000D01*
X12255335Y-23714000D02*
X6745335Y-23714000D01*
X12255335Y-23714000D02*
X12255335Y-20414000D01*
%TO.C,D30*%
X27272879Y-75068343D02*
X27272879Y-72768343D01*
X30172879Y-75068343D02*
X27272879Y-75068343D01*
X30172879Y-75068343D02*
X30472879Y-74768343D01*
X30472879Y-72768343D02*
X27272879Y-72768343D01*
X30472879Y-72768343D02*
X30472879Y-74768343D01*
%TO.C,R16*%
X1782943Y-12152923D02*
X1328815Y-12152923D01*
X1782943Y-13622923D02*
X1328815Y-13622923D01*
%TO.C,D11*%
X46265879Y-78299000D02*
X50150879Y-78299000D01*
X50150879Y-76029000D02*
X46265879Y-76029000D01*
X50150879Y-78299000D02*
X50150879Y-76029000D01*
%TO.C,R8*%
X18601299Y-20057000D02*
X18147171Y-20057000D01*
X18601299Y-21527000D02*
X18147171Y-21527000D01*
%TO.C,L2*%
X56032000Y-21666064D02*
X56032000Y-20461936D01*
X58752000Y-21666064D02*
X58752000Y-20461936D01*
%TO.C,D13*%
X8365879Y-59599000D02*
X12250879Y-59599000D01*
X12250879Y-57329000D02*
X8365879Y-57329000D01*
X12250879Y-59599000D02*
X12250879Y-57329000D01*
%TO.C,C1*%
X3440752Y1998757D02*
X2018248Y1998757D01*
X3440752Y178757D02*
X2018248Y178757D01*
%TO.C,Q6*%
X29254500Y-14504000D02*
X28604500Y-14504000D01*
X29254500Y-14504000D02*
X29904500Y-14504000D01*
X29254500Y-17624000D02*
X28604500Y-17624000D01*
X29254500Y-17624000D02*
X29904500Y-17624000D01*
X28092000Y-14554000D02*
X27852000Y-14224000D01*
X28332000Y-14224000D01*
X28092000Y-14554000D01*
G36*
X28092000Y-14554000D02*
G01*
X27852000Y-14224000D01*
X28332000Y-14224000D01*
X28092000Y-14554000D01*
G37*
%TO.C,C3*%
X25169500Y-6004000D02*
X25169500Y-10524000D01*
X25169500Y-10524000D02*
X33229500Y-10524000D01*
X33229500Y-6004000D02*
X25169500Y-6004000D01*
%TO.C,D34*%
X27267879Y-55910843D02*
X27267879Y-53610843D01*
X30167879Y-55910843D02*
X27267879Y-55910843D01*
X30167879Y-55910843D02*
X30467879Y-55610843D01*
X30467879Y-53610843D02*
X27267879Y-53610843D01*
X30467879Y-53610843D02*
X30467879Y-55610843D01*
%TO.C,R12*%
X65389611Y-17240656D02*
X65389611Y-17694784D01*
X66859611Y-17240656D02*
X66859611Y-17694784D01*
%TO.C,R3*%
X14419064Y-14729000D02*
X13964936Y-14729000D01*
X14419064Y-16199000D02*
X13964936Y-16199000D01*
%TO.C,D27*%
X46517879Y-93910843D02*
X46517879Y-91610843D01*
X49417879Y-93910843D02*
X46517879Y-93910843D01*
X49417879Y-93910843D02*
X49717879Y-93610843D01*
X49717879Y-91610843D02*
X46517879Y-91610843D01*
X49717879Y-91610843D02*
X49717879Y-93610843D01*
%TO.C,D8*%
X65415879Y-97299000D02*
X69300879Y-97299000D01*
X69300879Y-95029000D02*
X65415879Y-95029000D01*
X69300879Y-97299000D02*
X69300879Y-95029000D01*
%TO.C,C2*%
X9032000Y-5641500D02*
X9032000Y-13701500D01*
X13552000Y-5641500D02*
X9032000Y-5641500D01*
X13552000Y-13701500D02*
X13552000Y-5641500D01*
%TO.C,D45*%
X67357000Y-16264000D02*
X67357000Y-20149000D01*
X67357000Y-20149000D02*
X69627000Y-20149000D01*
X69627000Y-20149000D02*
X69627000Y-16264000D01*
%TO.C,D22*%
X27352879Y-112910843D02*
X27352879Y-110610843D01*
X30252879Y-112910843D02*
X27352879Y-112910843D01*
X30252879Y-112910843D02*
X30552879Y-112610843D01*
X30552879Y-110610843D02*
X27352879Y-110610843D01*
X30552879Y-110610843D02*
X30552879Y-112610843D01*
%TO.C,C19*%
X37557000Y-112354595D02*
X37557000Y-111832091D01*
X39027000Y-112354595D02*
X39027000Y-111832091D01*
%TO.C,D33*%
X8517879Y-56010843D02*
X8517879Y-53710843D01*
X11417879Y-56010843D02*
X8517879Y-56010843D01*
X11417879Y-56010843D02*
X11717879Y-55710843D01*
X11717879Y-53710843D02*
X8517879Y-53710843D01*
X11717879Y-53710843D02*
X11717879Y-55710843D01*
%TO.C,D37*%
X8267879Y-36910843D02*
X8267879Y-34610843D01*
X11167879Y-36910843D02*
X8267879Y-36910843D01*
X11167879Y-36910843D02*
X11467879Y-36610843D01*
X11467879Y-34610843D02*
X8267879Y-34610843D01*
X11467879Y-34610843D02*
X11467879Y-36610843D01*
%TO.C,Q5*%
X8605835Y-14909000D02*
X6655835Y-14909000D01*
X8605835Y-14909000D02*
X10555835Y-14909000D01*
X8605835Y-20029000D02*
X6655835Y-20029000D01*
X8605835Y-20029000D02*
X10555835Y-20029000D01*
X11545835Y-20264000D02*
X11065835Y-20264000D01*
X11305835Y-19934000D01*
X11545835Y-20264000D01*
G36*
X11545835Y-20264000D02*
G01*
X11065835Y-20264000D01*
X11305835Y-19934000D01*
X11545835Y-20264000D01*
G37*
%TO.C,C5*%
X29553252Y-20129000D02*
X29030748Y-20129000D01*
X29553252Y-21599000D02*
X29030748Y-21599000D01*
%TO.C,SW21*%
X63671603Y-116567D02*
X66071603Y-116567D01*
X63671603Y-4216567D02*
X63671603Y-116567D01*
X63671603Y-8216567D02*
X63671603Y-12316567D01*
X63671603Y-12316567D02*
X75471603Y-12316567D01*
X65471603Y-13416567D02*
X65771603Y-13716567D01*
X65471603Y-14016567D02*
X65471603Y-13416567D01*
X65771603Y-13716567D02*
X65471603Y-14016567D01*
X68271603Y-116567D02*
X70871603Y-116567D01*
X69071603Y-6216567D02*
X70071603Y-6216567D01*
X69571603Y-6716567D02*
X69571603Y-5716567D01*
X73071603Y-116567D02*
X75471603Y-116567D01*
X75471603Y-116567D02*
X75471603Y-4216567D01*
X75471603Y-8216567D02*
X75471603Y-12316567D01*
X72571603Y-6216567D02*
G75*
G02*
X66571603Y-6216567I-3000000J0D01*
G01*
X66571603Y-6216567D02*
G75*
G02*
X72571603Y-6216567I3000000J0D01*
G01*
%TO.C,D24*%
X65517879Y-112910843D02*
X65517879Y-110610843D01*
X68417879Y-112910843D02*
X65517879Y-112910843D01*
X68417879Y-112910843D02*
X68717879Y-112610843D01*
X68717879Y-110610843D02*
X65517879Y-110610843D01*
X68717879Y-110610843D02*
X68717879Y-112610843D01*
%TO.C,D2*%
X27265879Y-116549000D02*
X31150879Y-116549000D01*
X31150879Y-114279000D02*
X27265879Y-114279000D01*
X31150879Y-116549000D02*
X31150879Y-114279000D01*
%TO.C,D21*%
X8187879Y-112910843D02*
X8187879Y-110610843D01*
X11087879Y-112910843D02*
X8187879Y-112910843D01*
X11087879Y-112910843D02*
X11387879Y-112610843D01*
X11387879Y-110610843D02*
X8187879Y-110610843D01*
X11387879Y-110610843D02*
X11387879Y-112610843D01*
%TO.C,R4*%
X14572399Y-20229000D02*
X14118271Y-20229000D01*
X14572399Y-21699000D02*
X14118271Y-21699000D01*
%TO.C,L3*%
X59232000Y-20461936D02*
X59232000Y-21666064D01*
X61952000Y-20461936D02*
X61952000Y-21666064D01*
%TO.C,C24*%
X29553252Y-22129000D02*
X29030748Y-22129000D01*
X29553252Y-23599000D02*
X29030748Y-23599000D01*
%TO.C,U5*%
X22942000Y-11004000D02*
X22142000Y-11004000D01*
X22942000Y-11004000D02*
X23742000Y-11004000D01*
X22942000Y-14124000D02*
X22142000Y-14124000D01*
X22942000Y-14124000D02*
X23742000Y-14124000D01*
X24482000Y-14404000D02*
X24002000Y-14404000D01*
X24242000Y-14074000D01*
X24482000Y-14404000D01*
G36*
X24482000Y-14404000D02*
G01*
X24002000Y-14404000D01*
X24242000Y-14074000D01*
X24482000Y-14404000D01*
G37*
%TO.C,U2*%
X18582935Y-14572500D02*
X17782935Y-14572500D01*
X18582935Y-14572500D02*
X19382935Y-14572500D01*
X18582935Y-17692500D02*
X17782935Y-17692500D01*
X18582935Y-17692500D02*
X19382935Y-17692500D01*
X20122935Y-17972500D02*
X19642935Y-17972500D01*
X19882935Y-17642500D01*
X20122935Y-17972500D01*
G36*
X20122935Y-17972500D02*
G01*
X19642935Y-17972500D01*
X19882935Y-17642500D01*
X20122935Y-17972500D01*
G37*
%TO.C,D35*%
X46267879Y-56010843D02*
X46267879Y-53710843D01*
X49167879Y-56010843D02*
X46267879Y-56010843D01*
X49167879Y-56010843D02*
X49467879Y-55710843D01*
X49467879Y-53710843D02*
X46267879Y-53710843D01*
X49467879Y-53710843D02*
X49467879Y-55710843D01*
%TO.C,D26*%
X27267879Y-94010843D02*
X27267879Y-91710843D01*
X30167879Y-94010843D02*
X27267879Y-94010843D01*
X30167879Y-94010843D02*
X30467879Y-93710843D01*
X30467879Y-91710843D02*
X27267879Y-91710843D01*
X30467879Y-91710843D02*
X30467879Y-93710843D01*
%TO.C,D19*%
X46565879Y-40649000D02*
X50450879Y-40649000D01*
X50450879Y-38379000D02*
X46565879Y-38379000D01*
X50450879Y-40649000D02*
X50450879Y-38379000D01*
%TO.C,D31*%
X46522879Y-75168343D02*
X46522879Y-72868343D01*
X49422879Y-75168343D02*
X46522879Y-75168343D01*
X49422879Y-75168343D02*
X49722879Y-74868343D01*
X49722879Y-72868343D02*
X46522879Y-72868343D01*
X49722879Y-72868343D02*
X49722879Y-74868343D01*
%TO.C,R9*%
X18550499Y-18074800D02*
X18096371Y-18074800D01*
X18550499Y-19544800D02*
X18096371Y-19544800D01*
%TO.C,D28*%
X65517879Y-93910843D02*
X65517879Y-91610843D01*
X68417879Y-93910843D02*
X65517879Y-93910843D01*
X68417879Y-93910843D02*
X68717879Y-93610843D01*
X68717879Y-91610843D02*
X65517879Y-91610843D01*
X68717879Y-91610843D02*
X68717879Y-93610843D01*
%TO.C,Q2*%
X30892000Y-11004000D02*
X30242000Y-11004000D01*
X30892000Y-11004000D02*
X31542000Y-11004000D01*
X30892000Y-14124000D02*
X30242000Y-14124000D01*
X30892000Y-14124000D02*
X31542000Y-14124000D01*
X32294500Y-14404000D02*
X31814500Y-14404000D01*
X32054500Y-14074000D01*
X32294500Y-14404000D01*
G36*
X32294500Y-14404000D02*
G01*
X31814500Y-14404000D01*
X32054500Y-14074000D01*
X32294500Y-14404000D01*
G37*
%TO.C,R1*%
X18557000Y-26791064D02*
X18557000Y-26336936D01*
X20027000Y-26791064D02*
X20027000Y-26336936D01*
%TO.C,D14*%
X27015879Y-59599000D02*
X30900879Y-59599000D01*
X30900879Y-57329000D02*
X27015879Y-57329000D01*
X30900879Y-59599000D02*
X30900879Y-57329000D01*
%TO.C,D17*%
X8265879Y-40249000D02*
X12150879Y-40249000D01*
X12150879Y-37979000D02*
X8265879Y-37979000D01*
X12150879Y-40249000D02*
X12150879Y-37979000D01*
%TO.C,C4*%
X41477131Y-2381843D02*
X40954627Y-2381843D01*
X41477131Y-3851843D02*
X40954627Y-3851843D01*
%TO.C,D15*%
X46265879Y-59599000D02*
X50150879Y-59599000D01*
X50150879Y-57329000D02*
X46265879Y-57329000D01*
X50150879Y-59599000D02*
X50150879Y-57329000D01*
%TO.C,R7*%
X22814936Y-9179000D02*
X23269064Y-9179000D01*
X22814936Y-10649000D02*
X23269064Y-10649000D01*
%TO.C,D7*%
X46415879Y-97299000D02*
X50300879Y-97299000D01*
X50300879Y-95029000D02*
X46415879Y-95029000D01*
X50300879Y-97299000D02*
X50300879Y-95029000D01*
%TO.C,D3*%
X46415879Y-116299000D02*
X50300879Y-116299000D01*
X50300879Y-114029000D02*
X46415879Y-114029000D01*
X50300879Y-116299000D02*
X50300879Y-114029000D01*
%TO.C,J1*%
X34407879Y-10630843D02*
X34407879Y-20930843D01*
X34407879Y-20930843D02*
X36147879Y-20930843D01*
X36147879Y-10630843D02*
X34407879Y-10630843D01*
X40207879Y-10630843D02*
X38867879Y-10630843D01*
X40207879Y-12120843D02*
X40207879Y-10630843D01*
X40207879Y-12120843D02*
X41407879Y-12120843D01*
X40207879Y-19440843D02*
X40207879Y-20930843D01*
X40207879Y-20930843D02*
X38867879Y-20930843D01*
%TO.C,R6*%
X41442943Y-4381843D02*
X40988815Y-4381843D01*
X41442943Y-5851843D02*
X40988815Y-5851843D01*
%TO.C,R11*%
X5864936Y-12329000D02*
X6319064Y-12329000D01*
X5864936Y-13799000D02*
X6319064Y-13799000D01*
%TO.C,C21*%
X54057000Y-21140248D02*
X54057000Y-21662752D01*
X55527000Y-21140248D02*
X55527000Y-21662752D01*
%TO.C,D29*%
X8272879Y-75068343D02*
X8272879Y-72768343D01*
X11172879Y-75068343D02*
X8272879Y-75068343D01*
X11172879Y-75068343D02*
X11472879Y-74768343D01*
X11472879Y-72768343D02*
X8272879Y-72768343D01*
X11472879Y-72768343D02*
X11472879Y-74768343D01*
%TO.C,R14*%
X41241679Y80621D02*
X41241679Y-373507D01*
X42711679Y80621D02*
X42711679Y-373507D01*
%TO.C,C20*%
X62457000Y-21102748D02*
X62457000Y-21625252D01*
X63927000Y-21102748D02*
X63927000Y-21625252D01*
%TO.C,C16*%
X37457000Y-55379595D02*
X37457000Y-54857091D01*
X38927000Y-55379595D02*
X38927000Y-54857091D01*
%TO.C,D32*%
X65522879Y-75168343D02*
X65522879Y-72868343D01*
X68422879Y-75168343D02*
X65522879Y-75168343D01*
X68422879Y-75168343D02*
X68722879Y-74868343D01*
X68722879Y-72868343D02*
X65522879Y-72868343D01*
X68722879Y-72868343D02*
X68722879Y-74868343D01*
%TD*%
M02*
