%TF.GenerationSoftware,KiCad,Pcbnew,8.0.9-8.0.9-0~ubuntu22.04.1*%
%TF.CreationDate,2026-01-28T22:17:52+00:00*%
%TF.ProjectId,numcalcium,6e756d63-616c-4636-9975-6d2e6b696361,rev?*%
%TF.SameCoordinates,Original*%
%TF.FileFunction,Legend,Bot*%
%TF.FilePolarity,Positive*%
%FSLAX46Y46*%
G04 Gerber Fmt 4.6, Leading zero omitted, Abs format (unit mm)*
G04 Created by KiCad (PCBNEW 8.0.9-8.0.9-0~ubuntu22.04.1) date 2026-01-28 22:17:52*
%MOMM*%
%LPD*%
G01*
G04 APERTURE LIST*
%ADD10C,0.150000*%
%ADD11C,0.125000*%
%ADD12C,0.250000*%
%ADD13C,0.375000*%
%ADD14C,0.100000*%
%ADD15C,1.000000*%
%ADD16C,0.120000*%
G04 APERTURE END LIST*
D10*
X28392000Y-19364000D02*
X41492000Y-19364000D01*
X41492000Y-22064000D01*
X28392000Y-22064000D01*
X28392000Y-19364000D01*
D11*
X63367190Y-20590190D02*
X63605285Y-20756856D01*
X63367190Y-20875904D02*
X63867190Y-20875904D01*
X63867190Y-20875904D02*
X63867190Y-20685428D01*
X63867190Y-20685428D02*
X63843380Y-20637809D01*
X63843380Y-20637809D02*
X63819571Y-20613999D01*
X63819571Y-20613999D02*
X63771952Y-20590190D01*
X63771952Y-20590190D02*
X63700523Y-20590190D01*
X63700523Y-20590190D02*
X63652904Y-20613999D01*
X63652904Y-20613999D02*
X63629095Y-20637809D01*
X63629095Y-20637809D02*
X63605285Y-20685428D01*
X63605285Y-20685428D02*
X63605285Y-20875904D01*
X63629095Y-20375904D02*
X63629095Y-20209237D01*
X63367190Y-20137809D02*
X63367190Y-20375904D01*
X63367190Y-20375904D02*
X63867190Y-20375904D01*
X63867190Y-20375904D02*
X63867190Y-20137809D01*
X63391000Y-19947332D02*
X63367190Y-19875904D01*
X63367190Y-19875904D02*
X63367190Y-19756856D01*
X63367190Y-19756856D02*
X63391000Y-19709237D01*
X63391000Y-19709237D02*
X63414809Y-19685428D01*
X63414809Y-19685428D02*
X63462428Y-19661618D01*
X63462428Y-19661618D02*
X63510047Y-19661618D01*
X63510047Y-19661618D02*
X63557666Y-19685428D01*
X63557666Y-19685428D02*
X63581476Y-19709237D01*
X63581476Y-19709237D02*
X63605285Y-19756856D01*
X63605285Y-19756856D02*
X63629095Y-19852094D01*
X63629095Y-19852094D02*
X63652904Y-19899713D01*
X63652904Y-19899713D02*
X63676714Y-19923523D01*
X63676714Y-19923523D02*
X63724333Y-19947332D01*
X63724333Y-19947332D02*
X63771952Y-19947332D01*
X63771952Y-19947332D02*
X63819571Y-19923523D01*
X63819571Y-19923523D02*
X63843380Y-19899713D01*
X63843380Y-19899713D02*
X63867190Y-19852094D01*
X63867190Y-19852094D02*
X63867190Y-19733047D01*
X63867190Y-19733047D02*
X63843380Y-19661618D01*
X63629095Y-19447333D02*
X63629095Y-19280666D01*
X63367190Y-19209238D02*
X63367190Y-19447333D01*
X63367190Y-19447333D02*
X63867190Y-19447333D01*
X63867190Y-19447333D02*
X63867190Y-19209238D01*
X63867190Y-19066380D02*
X63867190Y-18780666D01*
X63367190Y-18923523D02*
X63867190Y-18923523D01*
D12*
G36*
X46994536Y4599487D02*
G01*
X49498709Y7141957D01*
X49372875Y7110694D01*
X49364278Y4705000D01*
X49801180Y4705000D01*
X49801180Y8042334D01*
X49780859Y8042334D01*
X47303259Y5493611D01*
X47404083Y5515495D01*
X47413461Y7943855D01*
X46981249Y7943855D01*
X46981249Y4599487D01*
X46994536Y4599487D01*
G37*
G36*
X45566595Y4633094D02*
G01*
X45731405Y4651381D01*
X45886341Y4713040D01*
X45985520Y4787847D01*
X46086380Y4916770D01*
X46143936Y5071413D01*
X46158249Y5188796D01*
X46158249Y6559682D01*
X45739323Y6559682D01*
X45739323Y5336514D01*
X45703663Y5177602D01*
X45651005Y5091099D01*
X45515939Y5007995D01*
X45400900Y4991838D01*
X45245079Y5017646D01*
X45121877Y5083283D01*
X45004178Y5200023D01*
X44924138Y5334169D01*
X44870844Y5492919D01*
X44850541Y5657820D01*
X44849889Y5695258D01*
X44849889Y6559682D01*
X44430963Y6559682D01*
X44430963Y4705000D01*
X44809247Y4705000D01*
X44845199Y5159877D01*
X44824878Y5079375D01*
X44904755Y4943335D01*
X44989791Y4848810D01*
X45116249Y4753428D01*
X45246148Y4690150D01*
X45400119Y4647358D01*
X45555824Y4633150D01*
X45566595Y4633094D01*
G37*
G36*
X43336755Y6559682D02*
G01*
X43300803Y6143101D01*
X43321124Y6179054D01*
X43239760Y6314403D01*
X43127194Y6437410D01*
X43026469Y6512787D01*
X42875161Y6586610D01*
X42722944Y6624349D01*
X42588786Y6633932D01*
X42425571Y6617858D01*
X42313671Y6583129D01*
X42178421Y6504117D01*
X42112806Y6440882D01*
X42032743Y6303358D01*
X42010419Y6217351D01*
X42035429Y6200938D01*
X41942153Y6341292D01*
X41826455Y6456367D01*
X41736867Y6519040D01*
X41591237Y6589052D01*
X41439233Y6626751D01*
X41334355Y6633932D01*
X41175688Y6618819D01*
X41026192Y6567286D01*
X40902924Y6479180D01*
X40804739Y6350256D01*
X40750517Y6195614D01*
X40738793Y6078230D01*
X40738793Y4705000D01*
X41155374Y4705000D01*
X41155374Y5925823D01*
X41184377Y6086290D01*
X41224934Y6164986D01*
X41359570Y6256500D01*
X41450810Y6270498D01*
X41614001Y6242926D01*
X41740775Y6172801D01*
X41853713Y6061231D01*
X41939295Y5920352D01*
X41991376Y5769215D01*
X42014263Y5607431D01*
X42015108Y5585055D01*
X42015108Y4705000D01*
X42434034Y4705000D01*
X42434034Y5925823D01*
X42465236Y6086290D01*
X42508284Y6164986D01*
X42638963Y6254152D01*
X42738849Y6270498D01*
X42901820Y6242926D01*
X43028032Y6172801D01*
X43139602Y6060645D01*
X43224208Y5918007D01*
X43274698Y5765359D01*
X43294275Y5603438D01*
X43294550Y5581147D01*
X43294550Y4705000D01*
X43713475Y4705000D01*
X43713475Y6559682D01*
X43336755Y6559682D01*
G37*
G36*
X37533545Y4947288D02*
G01*
X37670565Y4866856D01*
X37752387Y4826144D01*
X37903817Y4764204D01*
X38055233Y4718662D01*
X38078304Y4712815D01*
X38234869Y4683346D01*
X38403560Y4669871D01*
X38485506Y4669047D01*
X38646731Y4677083D01*
X38822195Y4700921D01*
X38988280Y4740390D01*
X39144986Y4795491D01*
X39163915Y4803478D01*
X39308800Y4874309D01*
X39442547Y4957058D01*
X39579700Y5064398D01*
X39676630Y5158314D01*
X39787604Y5290247D01*
X39883122Y5432813D01*
X39963184Y5586012D01*
X40000984Y5675718D01*
X40050565Y5824364D01*
X40085981Y5977993D01*
X40107230Y6136605D01*
X40114313Y6300198D01*
X40106986Y6478007D01*
X40085004Y6648782D01*
X40048367Y6812522D01*
X39997076Y6969228D01*
X39931961Y7117728D01*
X39854634Y7256067D01*
X39765094Y7384246D01*
X39663343Y7502264D01*
X39535505Y7621722D01*
X39395549Y7725105D01*
X39243476Y7812414D01*
X39153755Y7853974D01*
X39003350Y7909026D01*
X38846009Y7948349D01*
X38681731Y7971943D01*
X38510517Y7979808D01*
X38350860Y7973563D01*
X38183614Y7951978D01*
X38027055Y7914976D01*
X37982170Y7900868D01*
X37826763Y7843995D01*
X37675345Y7774789D01*
X37574187Y7717979D01*
X37748479Y7309996D01*
X37887045Y7393539D01*
X38038994Y7466244D01*
X38074397Y7481161D01*
X38223617Y7529741D01*
X38384048Y7555900D01*
X38497230Y7560882D01*
X38655752Y7549707D01*
X38808917Y7516183D01*
X38943510Y7466311D01*
X39083217Y7392965D01*
X39211103Y7301887D01*
X39317104Y7203702D01*
X39419668Y7080988D01*
X39505977Y6944975D01*
X39570335Y6809787D01*
X39622398Y6650601D01*
X39652850Y6482550D01*
X39661780Y6322083D01*
X39653689Y6161875D01*
X39626100Y5993580D01*
X39578933Y5833597D01*
X39513386Y5685234D01*
X39430662Y5550724D01*
X39340551Y5440464D01*
X39214632Y5325938D01*
X39083951Y5239108D01*
X38966176Y5180980D01*
X38809980Y5128027D01*
X38641223Y5097055D01*
X38476909Y5087972D01*
X38312778Y5096838D01*
X38149105Y5126734D01*
X38036881Y5163004D01*
X37892133Y5227449D01*
X37752045Y5310465D01*
X37719561Y5334169D01*
X37533545Y4947288D01*
G37*
G36*
X36275383Y6623664D02*
G01*
X36439723Y6583322D01*
X36594090Y6514351D01*
X36733217Y6419226D01*
X36851842Y6299350D01*
X36941891Y6168893D01*
X36972300Y6111277D01*
X37030582Y5955480D01*
X37061370Y5800906D01*
X37071633Y5632732D01*
X37070541Y5574672D01*
X37054158Y5410715D01*
X37012896Y5246523D01*
X36947362Y5101259D01*
X36861068Y4975764D01*
X36746222Y4861522D01*
X36610503Y4772215D01*
X36458084Y4708583D01*
X36294214Y4671364D01*
X36135304Y4660450D01*
X36000408Y4669426D01*
X35844557Y4707344D01*
X35751171Y4745922D01*
X35615555Y4825362D01*
X35574303Y4856709D01*
X35456895Y4966828D01*
X35423287Y5014008D01*
X35423287Y4705000D01*
X35004362Y4705000D01*
X35004362Y5845321D01*
X35423287Y5845321D01*
X35423287Y5480324D01*
X35457202Y5368152D01*
X35537397Y5227875D01*
X35611547Y5149379D01*
X35744515Y5062962D01*
X35867717Y5021448D01*
X36023538Y5005125D01*
X36185325Y5026618D01*
X36334606Y5091099D01*
X36463175Y5192704D01*
X36562826Y5324009D01*
X36573143Y5342510D01*
X36629299Y5489834D01*
X36648018Y5652271D01*
X36647695Y5675923D01*
X36624637Y5841439D01*
X36565171Y5986004D01*
X36468060Y6113988D01*
X36342422Y6210317D01*
X36196071Y6270694D01*
X36036825Y6290819D01*
X35919027Y6281403D01*
X35761710Y6233764D01*
X35665661Y6180313D01*
X35547558Y6076667D01*
X35484065Y5990601D01*
X35423287Y5845321D01*
X35004362Y5845321D01*
X35004362Y6559682D01*
X35389679Y6559682D01*
X35421361Y6265741D01*
X35441159Y6296791D01*
X35544650Y6415264D01*
X35676518Y6518258D01*
X35783748Y6574930D01*
X35947110Y6621642D01*
X36117327Y6635495D01*
X36275383Y6623664D01*
G37*
G36*
X34287655Y8174420D02*
G01*
X33868730Y8174420D01*
X33868730Y4705000D01*
X34287655Y4705000D01*
X34287655Y8174420D01*
G37*
G36*
X31642017Y4877728D02*
G01*
X31779184Y4787456D01*
X31929782Y4721991D01*
X31940579Y4718286D01*
X32093149Y4678750D01*
X32258276Y4660958D01*
X32291508Y4660450D01*
X32455897Y4669970D01*
X32625066Y4702882D01*
X32780038Y4759302D01*
X32823762Y4780812D01*
X32957118Y4865992D01*
X33081242Y4981553D01*
X33181724Y5120017D01*
X33249730Y5264273D01*
X33292549Y5423489D01*
X33309551Y5579574D01*
X33310684Y5634295D01*
X33299865Y5794735D01*
X33262465Y5958500D01*
X33198351Y6106999D01*
X33173908Y6148572D01*
X33079951Y6275655D01*
X32957027Y6393054D01*
X32813601Y6486995D01*
X32670353Y6550056D01*
X32505727Y6592446D01*
X32349656Y6606460D01*
X32333713Y6606577D01*
X32172769Y6597784D01*
X32013545Y6568414D01*
X31934327Y6544050D01*
X31789579Y6480663D01*
X31654746Y6393492D01*
X31630293Y6373667D01*
X31838974Y6100896D01*
X31971918Y6184317D01*
X32035150Y6213443D01*
X32192687Y6257102D01*
X32297760Y6264246D01*
X32454662Y6243534D01*
X32597104Y6181399D01*
X32725107Y6076609D01*
X32812038Y5956304D01*
X32871829Y5804678D01*
X32891681Y5645493D01*
X32891759Y5634295D01*
X32871438Y5469187D01*
X32810475Y5317756D01*
X32713168Y5188210D01*
X32585381Y5088754D01*
X32431605Y5026032D01*
X32269340Y5005207D01*
X32257900Y5005125D01*
X32096008Y5023698D01*
X32037495Y5041078D01*
X31892304Y5113473D01*
X31856951Y5139556D01*
X31642017Y4877728D01*
G37*
G36*
X31108200Y6559682D02*
G01*
X30689274Y6559682D01*
X30689274Y4705000D01*
X31108200Y4705000D01*
X31108200Y6559682D01*
G37*
G36*
X31137118Y7213080D02*
G01*
X31076082Y7362594D01*
X31057397Y7379556D01*
X30914522Y7444369D01*
X30886232Y7445990D01*
X30736462Y7395127D01*
X30717411Y7379556D01*
X30643552Y7237566D01*
X30642380Y7213080D01*
X30699826Y7061857D01*
X30717411Y7045041D01*
X30863078Y6981184D01*
X30886232Y6980170D01*
X31037284Y7030436D01*
X31057397Y7045823D01*
X31135172Y7182413D01*
X31137118Y7213080D01*
G37*
G36*
X29378570Y4633094D02*
G01*
X29543380Y4651381D01*
X29698316Y4713040D01*
X29797495Y4787847D01*
X29898355Y4916770D01*
X29955911Y5071413D01*
X29970224Y5188796D01*
X29970224Y6559682D01*
X29551298Y6559682D01*
X29551298Y5336514D01*
X29515638Y5177602D01*
X29462980Y5091099D01*
X29327914Y5007995D01*
X29212875Y4991838D01*
X29057054Y5017646D01*
X28933852Y5083283D01*
X28816152Y5200023D01*
X28736113Y5334169D01*
X28682819Y5492919D01*
X28662516Y5657820D01*
X28661863Y5695258D01*
X28661863Y6559682D01*
X28242938Y6559682D01*
X28242938Y4705000D01*
X28621221Y4705000D01*
X28657174Y5159877D01*
X28636853Y5079375D01*
X28716730Y4943335D01*
X28801766Y4848810D01*
X28928224Y4753428D01*
X29058123Y4690150D01*
X29212094Y4647358D01*
X29367799Y4633150D01*
X29378570Y4633094D01*
G37*
G36*
X27148730Y6559682D02*
G01*
X27112778Y6143101D01*
X27133099Y6179054D01*
X27051734Y6314403D01*
X26939169Y6437410D01*
X26838444Y6512787D01*
X26687136Y6586610D01*
X26534919Y6624349D01*
X26400761Y6633932D01*
X26237546Y6617858D01*
X26125646Y6583129D01*
X25990396Y6504117D01*
X25924780Y6440882D01*
X25844718Y6303358D01*
X25822394Y6217351D01*
X25847404Y6200938D01*
X25754128Y6341292D01*
X25638430Y6456367D01*
X25548842Y6519040D01*
X25403212Y6589052D01*
X25251207Y6626751D01*
X25146330Y6633932D01*
X24987663Y6618819D01*
X24838167Y6567286D01*
X24714899Y6479180D01*
X24616713Y6350256D01*
X24562491Y6195614D01*
X24550768Y6078230D01*
X24550768Y4705000D01*
X24967348Y4705000D01*
X24967348Y5925823D01*
X24996352Y6086290D01*
X25036909Y6164986D01*
X25171545Y6256500D01*
X25262785Y6270498D01*
X25425976Y6242926D01*
X25552750Y6172801D01*
X25665688Y6061231D01*
X25751270Y5920352D01*
X25803351Y5769215D01*
X25826238Y5607431D01*
X25827083Y5585055D01*
X25827083Y4705000D01*
X26246009Y4705000D01*
X26246009Y5925823D01*
X26277211Y6086290D01*
X26320258Y6164986D01*
X26450938Y6254152D01*
X26550824Y6270498D01*
X26713795Y6242926D01*
X26840007Y6172801D01*
X26951577Y6060645D01*
X27036183Y5918007D01*
X27086673Y5765359D01*
X27106250Y5603438D01*
X27106525Y5581147D01*
X27106525Y4705000D01*
X27525450Y4705000D01*
X27525450Y6559682D01*
X27148730Y6559682D01*
G37*
D13*
G36*
X71459561Y5441715D02*
G01*
X71459561Y7050420D01*
X71457729Y7050420D01*
X70598605Y5832259D01*
X70729031Y5861568D01*
X69872105Y7050420D01*
X69868075Y7050420D01*
X69868075Y5441715D01*
X70172523Y5441715D01*
X70172523Y6363487D01*
X70153472Y6205950D01*
X70676274Y5462597D01*
X70680671Y5462597D01*
X71218127Y6205950D01*
X71165737Y6351031D01*
X71165737Y5441715D01*
X71459561Y5441715D01*
G37*
G36*
X68175815Y7000320D02*
G01*
X68253782Y6988504D01*
X68329139Y6968812D01*
X68401885Y6941243D01*
X68471151Y6906782D01*
X68536066Y6866414D01*
X68596630Y6820137D01*
X68652844Y6767953D01*
X68703929Y6710777D01*
X68749107Y6649526D01*
X68788376Y6584199D01*
X68821738Y6514795D01*
X68848345Y6442324D01*
X68867351Y6367792D01*
X68878754Y6291199D01*
X68882555Y6212545D01*
X68878754Y6131968D01*
X68867351Y6054001D01*
X68848345Y5978644D01*
X68821738Y5905898D01*
X68788376Y5836632D01*
X68749107Y5771717D01*
X68703929Y5711153D01*
X68652844Y5654939D01*
X68596630Y5603831D01*
X68536066Y5558585D01*
X68471151Y5519201D01*
X68401885Y5485678D01*
X68329139Y5459071D01*
X68253782Y5440066D01*
X68175815Y5428663D01*
X68095238Y5424862D01*
X68015622Y5428663D01*
X67938342Y5440066D01*
X67863398Y5459071D01*
X67790789Y5485678D01*
X67721386Y5519201D01*
X67656059Y5558585D01*
X67594807Y5603831D01*
X67537631Y5654939D01*
X67485516Y5711153D01*
X67439446Y5771717D01*
X67399421Y5836632D01*
X67365440Y5905898D01*
X67338352Y5978644D01*
X67319004Y6054001D01*
X67307394Y6131968D01*
X67303525Y6212545D01*
X67618598Y6212545D01*
X67620316Y6168154D01*
X67631255Y6095073D01*
X67654502Y6020204D01*
X67668794Y5987540D01*
X67706389Y5921718D01*
X67753054Y5862667D01*
X67777457Y5838182D01*
X67835633Y5792466D01*
X67901065Y5756788D01*
X67933415Y5743964D01*
X68006777Y5725280D01*
X68084613Y5719052D01*
X68128899Y5720858D01*
X68201311Y5732355D01*
X68274756Y5756788D01*
X68306720Y5772008D01*
X68370938Y5812319D01*
X68428263Y5862667D01*
X68451975Y5889080D01*
X68496370Y5951256D01*
X68531211Y6020204D01*
X68545487Y6059962D01*
X68562696Y6137240D01*
X68567848Y6212545D01*
X68566147Y6257685D01*
X68555319Y6331805D01*
X68532310Y6407451D01*
X68517816Y6440600D01*
X68479342Y6507031D01*
X68431194Y6566086D01*
X68406005Y6590696D01*
X68346392Y6636593D01*
X68279885Y6672332D01*
X68241517Y6687036D01*
X68166542Y6704761D01*
X68093040Y6710068D01*
X68055774Y6708741D01*
X67978565Y6696764D01*
X67906194Y6672332D01*
X67874681Y6657099D01*
X67811705Y6616672D01*
X67755985Y6566086D01*
X67732908Y6539747D01*
X67689536Y6477287D01*
X67655234Y6407451D01*
X67639206Y6361472D01*
X67623750Y6289069D01*
X67618598Y6212545D01*
X67303525Y6212545D01*
X67307394Y6291199D01*
X67319004Y6367792D01*
X67338352Y6442324D01*
X67365440Y6514795D01*
X67399421Y6584199D01*
X67439446Y6649526D01*
X67485516Y6710777D01*
X67537631Y6767953D01*
X67594807Y6820137D01*
X67656059Y6866414D01*
X67721386Y6906782D01*
X67790789Y6941243D01*
X67863398Y6968812D01*
X67938342Y6988504D01*
X68015622Y7000320D01*
X68095238Y7004258D01*
X68175815Y7000320D01*
G37*
G36*
X66422419Y6987405D02*
G01*
X65380845Y6987405D01*
X65380845Y6693215D01*
X65756735Y6693215D01*
X65756735Y5441715D01*
X66061183Y5441715D01*
X66061183Y6693215D01*
X66422419Y6693215D01*
X66422419Y6987405D01*
G37*
G36*
X64406316Y6987405D02*
G01*
X64101867Y6987405D01*
X64101867Y5441715D01*
X64406316Y5441715D01*
X64406316Y6987405D01*
G37*
G36*
X62788451Y6987405D02*
G01*
X62337091Y5874391D01*
X62513312Y5909928D01*
X62104083Y6987405D01*
X61742848Y6987405D01*
X62448465Y5370273D01*
X63154083Y6987405D01*
X62788451Y6987405D01*
G37*
G36*
X60963591Y5593023D02*
G01*
X60945130Y5665924D01*
X60916330Y5701833D01*
X60853533Y5739929D01*
X60812283Y5746163D01*
X60739621Y5723262D01*
X60712631Y5701833D01*
X60672017Y5638721D01*
X60665370Y5593023D01*
X60682032Y5520742D01*
X60712631Y5482747D01*
X60776870Y5446563D01*
X60812283Y5441715D01*
X60885862Y5461109D01*
X60916330Y5482747D01*
X60956945Y5545058D01*
X60963591Y5593023D01*
G37*
G36*
X59753490Y5441715D02*
G01*
X59449041Y5441715D01*
X59449041Y5931177D01*
X59230688Y5931177D01*
X59202736Y5931593D01*
X59123904Y5937823D01*
X59045150Y5953515D01*
X58975698Y5978438D01*
X58926308Y6003969D01*
X58862097Y6049393D01*
X58809735Y6103368D01*
X58784260Y6138190D01*
X58745507Y6207324D01*
X58719610Y6276292D01*
X58709898Y6312112D01*
X58695750Y6389455D01*
X58691549Y6458009D01*
X58995482Y6458009D01*
X59007206Y6388766D01*
X59010280Y6378834D01*
X59044941Y6312196D01*
X59057428Y6296764D01*
X59117481Y6251380D01*
X59158797Y6235724D01*
X59232886Y6227199D01*
X59449041Y6227199D01*
X59449041Y6693215D01*
X59230688Y6693215D01*
X59175373Y6689351D01*
X59103560Y6665738D01*
X59084040Y6653263D01*
X59033218Y6598693D01*
X59029028Y6591215D01*
X59002809Y6519925D01*
X58995482Y6458009D01*
X58691549Y6458009D01*
X58691033Y6466435D01*
X58693468Y6524816D01*
X58704287Y6597929D01*
X58726804Y6673721D01*
X58760276Y6742674D01*
X58783462Y6777802D01*
X58832995Y6834587D01*
X58892556Y6883083D01*
X58962143Y6923292D01*
X58978904Y6931055D01*
X59050528Y6957102D01*
X59129480Y6975134D01*
X59204573Y6984337D01*
X59285276Y6987405D01*
X59753490Y6987405D01*
X59753490Y5441715D01*
G37*
G36*
X57869645Y6976781D02*
G01*
X57512440Y6976781D01*
X57182712Y6006648D01*
X57231072Y6027531D01*
X56943476Y6743773D01*
X56802792Y6325751D01*
X57247925Y5370273D01*
X57869645Y6976781D01*
G37*
G36*
X57094418Y6976781D02*
G01*
X56792167Y6976781D01*
X56412248Y6038156D01*
X56466836Y6046582D01*
X56183270Y6976781D01*
X55855740Y6976781D01*
X56451815Y5374670D01*
X57094418Y6976781D01*
G37*
D11*
X16284855Y-19326904D02*
X16213427Y-19350714D01*
X16213427Y-19350714D02*
X16189617Y-19374523D01*
X16189617Y-19374523D02*
X16165808Y-19422142D01*
X16165808Y-19422142D02*
X16165808Y-19493571D01*
X16165808Y-19493571D02*
X16189617Y-19541190D01*
X16189617Y-19541190D02*
X16213427Y-19565000D01*
X16213427Y-19565000D02*
X16261046Y-19588809D01*
X16261046Y-19588809D02*
X16451522Y-19588809D01*
X16451522Y-19588809D02*
X16451522Y-19088809D01*
X16451522Y-19088809D02*
X16284855Y-19088809D01*
X16284855Y-19088809D02*
X16237236Y-19112619D01*
X16237236Y-19112619D02*
X16213427Y-19136428D01*
X16213427Y-19136428D02*
X16189617Y-19184047D01*
X16189617Y-19184047D02*
X16189617Y-19231666D01*
X16189617Y-19231666D02*
X16213427Y-19279285D01*
X16213427Y-19279285D02*
X16237236Y-19303095D01*
X16237236Y-19303095D02*
X16284855Y-19326904D01*
X16284855Y-19326904D02*
X16451522Y-19326904D01*
X15737236Y-19588809D02*
X15737236Y-19326904D01*
X15737236Y-19326904D02*
X15761046Y-19279285D01*
X15761046Y-19279285D02*
X15808665Y-19255476D01*
X15808665Y-19255476D02*
X15903903Y-19255476D01*
X15903903Y-19255476D02*
X15951522Y-19279285D01*
X15737236Y-19565000D02*
X15784855Y-19588809D01*
X15784855Y-19588809D02*
X15903903Y-19588809D01*
X15903903Y-19588809D02*
X15951522Y-19565000D01*
X15951522Y-19565000D02*
X15975331Y-19517380D01*
X15975331Y-19517380D02*
X15975331Y-19469761D01*
X15975331Y-19469761D02*
X15951522Y-19422142D01*
X15951522Y-19422142D02*
X15903903Y-19398333D01*
X15903903Y-19398333D02*
X15784855Y-19398333D01*
X15784855Y-19398333D02*
X15737236Y-19374523D01*
X15570569Y-19255476D02*
X15380093Y-19255476D01*
X15499141Y-19088809D02*
X15499141Y-19517380D01*
X15499141Y-19517380D02*
X15475331Y-19565000D01*
X15475331Y-19565000D02*
X15427712Y-19588809D01*
X15427712Y-19588809D02*
X15380093Y-19588809D01*
X15284855Y-19255476D02*
X15094379Y-19255476D01*
X15213427Y-19088809D02*
X15213427Y-19517380D01*
X15213427Y-19517380D02*
X15189617Y-19565000D01*
X15189617Y-19565000D02*
X15141998Y-19588809D01*
X15141998Y-19588809D02*
X15094379Y-19588809D01*
X14737237Y-19565000D02*
X14784856Y-19588809D01*
X14784856Y-19588809D02*
X14880094Y-19588809D01*
X14880094Y-19588809D02*
X14927713Y-19565000D01*
X14927713Y-19565000D02*
X14951522Y-19517380D01*
X14951522Y-19517380D02*
X14951522Y-19326904D01*
X14951522Y-19326904D02*
X14927713Y-19279285D01*
X14927713Y-19279285D02*
X14880094Y-19255476D01*
X14880094Y-19255476D02*
X14784856Y-19255476D01*
X14784856Y-19255476D02*
X14737237Y-19279285D01*
X14737237Y-19279285D02*
X14713427Y-19326904D01*
X14713427Y-19326904D02*
X14713427Y-19374523D01*
X14713427Y-19374523D02*
X14951522Y-19422142D01*
X14499142Y-19588809D02*
X14499142Y-19255476D01*
X14499142Y-19350714D02*
X14475332Y-19303095D01*
X14475332Y-19303095D02*
X14451523Y-19279285D01*
X14451523Y-19279285D02*
X14403904Y-19255476D01*
X14403904Y-19255476D02*
X14356285Y-19255476D01*
X14237237Y-19255476D02*
X14118189Y-19588809D01*
X13999142Y-19255476D02*
X14118189Y-19588809D01*
X14118189Y-19588809D02*
X14165808Y-19707857D01*
X14165808Y-19707857D02*
X14189618Y-19731666D01*
X14189618Y-19731666D02*
X14237237Y-19755476D01*
X13142000Y-19588809D02*
X13308666Y-19350714D01*
X13427714Y-19588809D02*
X13427714Y-19088809D01*
X13427714Y-19088809D02*
X13237238Y-19088809D01*
X13237238Y-19088809D02*
X13189619Y-19112619D01*
X13189619Y-19112619D02*
X13165809Y-19136428D01*
X13165809Y-19136428D02*
X13142000Y-19184047D01*
X13142000Y-19184047D02*
X13142000Y-19255476D01*
X13142000Y-19255476D02*
X13165809Y-19303095D01*
X13165809Y-19303095D02*
X13189619Y-19326904D01*
X13189619Y-19326904D02*
X13237238Y-19350714D01*
X13237238Y-19350714D02*
X13427714Y-19350714D01*
X12737238Y-19565000D02*
X12784857Y-19588809D01*
X12784857Y-19588809D02*
X12880095Y-19588809D01*
X12880095Y-19588809D02*
X12927714Y-19565000D01*
X12927714Y-19565000D02*
X12951523Y-19517380D01*
X12951523Y-19517380D02*
X12951523Y-19326904D01*
X12951523Y-19326904D02*
X12927714Y-19279285D01*
X12927714Y-19279285D02*
X12880095Y-19255476D01*
X12880095Y-19255476D02*
X12784857Y-19255476D01*
X12784857Y-19255476D02*
X12737238Y-19279285D01*
X12737238Y-19279285D02*
X12713428Y-19326904D01*
X12713428Y-19326904D02*
X12713428Y-19374523D01*
X12713428Y-19374523D02*
X12951523Y-19422142D01*
X12546762Y-19255476D02*
X12427714Y-19588809D01*
X12427714Y-19588809D02*
X12308667Y-19255476D01*
X11927715Y-19565000D02*
X11975334Y-19588809D01*
X11975334Y-19588809D02*
X12070572Y-19588809D01*
X12070572Y-19588809D02*
X12118191Y-19565000D01*
X12118191Y-19565000D02*
X12142000Y-19517380D01*
X12142000Y-19517380D02*
X12142000Y-19326904D01*
X12142000Y-19326904D02*
X12118191Y-19279285D01*
X12118191Y-19279285D02*
X12070572Y-19255476D01*
X12070572Y-19255476D02*
X11975334Y-19255476D01*
X11975334Y-19255476D02*
X11927715Y-19279285D01*
X11927715Y-19279285D02*
X11903905Y-19326904D01*
X11903905Y-19326904D02*
X11903905Y-19374523D01*
X11903905Y-19374523D02*
X12142000Y-19422142D01*
X11689620Y-19588809D02*
X11689620Y-19255476D01*
X11689620Y-19350714D02*
X11665810Y-19303095D01*
X11665810Y-19303095D02*
X11642001Y-19279285D01*
X11642001Y-19279285D02*
X11594382Y-19255476D01*
X11594382Y-19255476D02*
X11546763Y-19255476D01*
X11403905Y-19565000D02*
X11356286Y-19588809D01*
X11356286Y-19588809D02*
X11261048Y-19588809D01*
X11261048Y-19588809D02*
X11213429Y-19565000D01*
X11213429Y-19565000D02*
X11189620Y-19517380D01*
X11189620Y-19517380D02*
X11189620Y-19493571D01*
X11189620Y-19493571D02*
X11213429Y-19445952D01*
X11213429Y-19445952D02*
X11261048Y-19422142D01*
X11261048Y-19422142D02*
X11332477Y-19422142D01*
X11332477Y-19422142D02*
X11380096Y-19398333D01*
X11380096Y-19398333D02*
X11403905Y-19350714D01*
X11403905Y-19350714D02*
X11403905Y-19326904D01*
X11403905Y-19326904D02*
X11380096Y-19279285D01*
X11380096Y-19279285D02*
X11332477Y-19255476D01*
X11332477Y-19255476D02*
X11261048Y-19255476D01*
X11261048Y-19255476D02*
X11213429Y-19279285D01*
X10784858Y-19565000D02*
X10832477Y-19588809D01*
X10832477Y-19588809D02*
X10927715Y-19588809D01*
X10927715Y-19588809D02*
X10975334Y-19565000D01*
X10975334Y-19565000D02*
X10999143Y-19517380D01*
X10999143Y-19517380D02*
X10999143Y-19326904D01*
X10999143Y-19326904D02*
X10975334Y-19279285D01*
X10975334Y-19279285D02*
X10927715Y-19255476D01*
X10927715Y-19255476D02*
X10832477Y-19255476D01*
X10832477Y-19255476D02*
X10784858Y-19279285D01*
X10784858Y-19279285D02*
X10761048Y-19326904D01*
X10761048Y-19326904D02*
X10761048Y-19374523D01*
X10761048Y-19374523D02*
X10999143Y-19422142D01*
X10332477Y-19588809D02*
X10332477Y-19088809D01*
X10332477Y-19565000D02*
X10380096Y-19588809D01*
X10380096Y-19588809D02*
X10475334Y-19588809D01*
X10475334Y-19588809D02*
X10522953Y-19565000D01*
X10522953Y-19565000D02*
X10546763Y-19541190D01*
X10546763Y-19541190D02*
X10570572Y-19493571D01*
X10570572Y-19493571D02*
X10570572Y-19350714D01*
X10570572Y-19350714D02*
X10546763Y-19303095D01*
X10546763Y-19303095D02*
X10522953Y-19279285D01*
X10522953Y-19279285D02*
X10475334Y-19255476D01*
X10475334Y-19255476D02*
X10380096Y-19255476D01*
X10380096Y-19255476D02*
X10332477Y-19279285D01*
D13*
G36*
X14867331Y5466000D02*
G01*
X14562882Y5466000D01*
X14562882Y5955462D01*
X14344529Y5955462D01*
X14316577Y5955878D01*
X14237745Y5962108D01*
X14158991Y5977800D01*
X14089540Y6002723D01*
X14040149Y6028254D01*
X13975938Y6073678D01*
X13923577Y6127653D01*
X13898101Y6162475D01*
X13859348Y6231609D01*
X13833451Y6300577D01*
X13823739Y6336397D01*
X13809591Y6413740D01*
X13805391Y6482294D01*
X14109323Y6482294D01*
X14121047Y6413051D01*
X14124121Y6403119D01*
X14158782Y6336481D01*
X14171270Y6321049D01*
X14231323Y6275665D01*
X14272638Y6260009D01*
X14346727Y6251484D01*
X14562882Y6251484D01*
X14562882Y6717500D01*
X14344529Y6717500D01*
X14289214Y6713636D01*
X14217401Y6690023D01*
X14197881Y6677548D01*
X14147059Y6622978D01*
X14142870Y6615500D01*
X14116651Y6544210D01*
X14109323Y6482294D01*
X13805391Y6482294D01*
X13804875Y6490720D01*
X13807309Y6549101D01*
X13818128Y6622214D01*
X13840646Y6698006D01*
X13874117Y6766959D01*
X13897303Y6802087D01*
X13946836Y6858872D01*
X14006397Y6907368D01*
X14075984Y6947577D01*
X14092745Y6955340D01*
X14164370Y6981387D01*
X14243321Y6999419D01*
X14318414Y7008622D01*
X14399117Y7011690D01*
X14867331Y7011690D01*
X14867331Y5466000D01*
G37*
G36*
X12450060Y5947036D02*
G01*
X13019023Y7011690D01*
X12643133Y7011690D01*
X12244163Y6209353D01*
X12334288Y6203124D01*
X11941546Y7011690D01*
X11565656Y7011690D01*
X12145611Y5947036D01*
X12145611Y5466000D01*
X12450060Y5466000D01*
X12450060Y5947036D01*
G37*
G36*
X9956951Y7043198D02*
G01*
X9984909Y6967174D01*
X10012867Y6891188D01*
X10040825Y6815241D01*
X10068783Y6739333D01*
X10096742Y6663463D01*
X10124700Y6587632D01*
X10152658Y6511840D01*
X10180616Y6436086D01*
X10208574Y6360371D01*
X10236532Y6284695D01*
X10255171Y6234265D01*
X10283129Y6158683D01*
X10311088Y6083063D01*
X10339046Y6007404D01*
X10367004Y5931706D01*
X10394962Y5855969D01*
X10422920Y5780194D01*
X10450878Y5704380D01*
X10478837Y5628528D01*
X10506795Y5552637D01*
X10534753Y5476707D01*
X10553392Y5426066D01*
X10818273Y5426066D01*
X10790315Y5502021D01*
X10762357Y5577938D01*
X10734399Y5653816D01*
X10706440Y5729656D01*
X10678482Y5805457D01*
X10650524Y5881219D01*
X10622566Y5956943D01*
X10594608Y6032628D01*
X10566649Y6108274D01*
X10538691Y6183882D01*
X10520053Y6234265D01*
X10492094Y6309916D01*
X10464136Y6385605D01*
X10436178Y6461333D01*
X10408220Y6537100D01*
X10380262Y6612905D01*
X10352303Y6688749D01*
X10324345Y6764631D01*
X10296387Y6840552D01*
X10268429Y6916512D01*
X10240471Y6992511D01*
X10221832Y7043198D01*
X9956951Y7043198D01*
G37*
G36*
X9263423Y5466000D02*
G01*
X8566232Y7072507D01*
X8549379Y7072507D01*
X7852188Y5466000D01*
X8204997Y5466000D01*
X8650129Y6595867D01*
X8429944Y6747175D01*
X8963371Y5466000D01*
X9263423Y5466000D01*
G37*
G36*
X8786783Y6024705D02*
G01*
X8322600Y6024705D01*
X8215621Y5768250D01*
X8881305Y5768250D01*
X8786783Y6024705D01*
G37*
G36*
X7041057Y6858184D02*
G01*
X6623402Y6858184D01*
X6623402Y5466000D01*
X6930049Y5466000D01*
X6930049Y6564360D01*
X7041057Y6564360D01*
X7041057Y6858184D01*
G37*
G36*
X46519390Y-21037838D02*
G01*
X46506982Y-21114218D01*
X46475426Y-21178521D01*
X46427931Y-21235902D01*
X46367878Y-21282334D01*
X46358922Y-21287698D01*
X46287937Y-21317939D01*
X46210995Y-21329665D01*
X46200286Y-21329830D01*
X46126994Y-21322877D01*
X46055908Y-21299836D01*
X46032491Y-21287698D01*
X45970217Y-21242725D01*
X45921466Y-21186805D01*
X45915988Y-21178521D01*
X45883564Y-21109828D01*
X45872757Y-21037838D01*
X45872757Y-20063309D01*
X45572338Y-20063309D01*
X45572338Y-21044066D01*
X45577604Y-21126658D01*
X45593404Y-21204442D01*
X45619736Y-21277417D01*
X45656602Y-21345584D01*
X45702237Y-21407637D01*
X45755245Y-21462637D01*
X45815627Y-21510585D01*
X45883381Y-21551480D01*
X45956631Y-21584018D01*
X46033865Y-21607259D01*
X46115084Y-21621204D01*
X46189418Y-21625780D01*
X46200286Y-21625852D01*
X46274165Y-21622293D01*
X46355034Y-21609511D01*
X46432102Y-21587432D01*
X46505369Y-21556056D01*
X46514260Y-21551480D01*
X46581534Y-21510585D01*
X46641572Y-21462637D01*
X46694374Y-21407637D01*
X46739941Y-21345584D01*
X46776646Y-21277417D01*
X46802864Y-21204442D01*
X46818595Y-21126658D01*
X46823838Y-21044066D01*
X46823838Y-20063309D01*
X46519390Y-20063309D01*
X46519390Y-21037838D01*
G37*
G36*
X44986888Y-20691257D02*
G01*
X44963807Y-20855022D01*
X44968203Y-20840367D01*
X44922320Y-20775796D01*
X44868267Y-20725744D01*
X44831549Y-20700782D01*
X44759765Y-20668188D01*
X44684187Y-20651524D01*
X44615394Y-20647293D01*
X44538136Y-20654771D01*
X44462987Y-20680269D01*
X44398140Y-20723863D01*
X44348238Y-20781873D01*
X44318422Y-20850620D01*
X44308748Y-20922433D01*
X44308748Y-21609000D01*
X44602572Y-21609000D01*
X44602572Y-21031609D01*
X44618928Y-20959085D01*
X44635178Y-20933790D01*
X44703871Y-20899443D01*
X44737027Y-20897154D01*
X44811137Y-20912782D01*
X44854997Y-20941484D01*
X44904276Y-21000912D01*
X44932666Y-21060919D01*
X44952125Y-21136825D01*
X44959353Y-21210945D01*
X44959777Y-21235308D01*
X44959777Y-21609000D01*
X45253601Y-21609000D01*
X45253601Y-20691257D01*
X44986888Y-20691257D01*
G37*
G36*
X44006497Y-20691257D02*
G01*
X43712673Y-20691257D01*
X43712673Y-21609000D01*
X44006497Y-21609000D01*
X44006497Y-20691257D01*
G37*
G36*
X44013092Y-20370688D02*
G01*
X43993056Y-20298331D01*
X43961801Y-20263710D01*
X43894367Y-20227503D01*
X43851159Y-20221578D01*
X43778167Y-20239723D01*
X43743081Y-20263710D01*
X43700577Y-20325076D01*
X43693622Y-20370688D01*
X43712942Y-20442759D01*
X43743081Y-20476934D01*
X43808483Y-20511882D01*
X43851159Y-20517600D01*
X43925420Y-20500087D01*
X43961801Y-20476934D01*
X44005879Y-20416198D01*
X44013092Y-20370688D01*
G37*
G36*
X43323960Y-20288256D02*
G01*
X43030136Y-20288256D01*
X43030136Y-20687227D01*
X42807387Y-20687227D01*
X42807387Y-20915838D01*
X43030136Y-20915838D01*
X43030136Y-21609000D01*
X43323960Y-21609000D01*
X43323960Y-20915838D01*
X43466842Y-20915838D01*
X43466842Y-20687227D01*
X43323960Y-20687227D01*
X43323960Y-20288256D01*
G37*
G36*
X42703339Y-20859418D02*
G01*
X42684878Y-20786203D01*
X42656078Y-20750242D01*
X42593281Y-20712145D01*
X42552031Y-20705912D01*
X42479370Y-20728813D01*
X42452380Y-20750242D01*
X42411765Y-20813497D01*
X42405119Y-20859418D01*
X42421780Y-20931699D01*
X42452380Y-20969694D01*
X42516619Y-21005555D01*
X42552031Y-21010360D01*
X42625610Y-20991139D01*
X42656078Y-20969694D01*
X42696693Y-20907383D01*
X42703339Y-20859418D01*
G37*
G36*
X42703339Y-21457691D02*
G01*
X42684878Y-21384790D01*
X42656078Y-21348881D01*
X42593281Y-21310785D01*
X42552031Y-21304551D01*
X42479370Y-21327452D01*
X42452380Y-21348881D01*
X42411765Y-21411993D01*
X42405119Y-21457691D01*
X42421780Y-21529972D01*
X42452380Y-21567967D01*
X42516619Y-21604151D01*
X42552031Y-21609000D01*
X42625610Y-21589605D01*
X42656078Y-21567967D01*
X42696693Y-21505656D01*
X42703339Y-21457691D01*
G37*
D14*
X38484714Y692390D02*
X38341857Y644771D01*
X38341857Y644771D02*
X38294238Y597152D01*
X38294238Y597152D02*
X38246619Y501914D01*
X38246619Y501914D02*
X38246619Y359057D01*
X38246619Y359057D02*
X38294238Y263819D01*
X38294238Y263819D02*
X38341857Y216200D01*
X38341857Y216200D02*
X38437095Y168580D01*
X38437095Y168580D02*
X38818047Y168580D01*
X38818047Y168580D02*
X38818047Y1168580D01*
X38818047Y1168580D02*
X38484714Y1168580D01*
X38484714Y1168580D02*
X38389476Y1120961D01*
X38389476Y1120961D02*
X38341857Y1073342D01*
X38341857Y1073342D02*
X38294238Y978104D01*
X38294238Y978104D02*
X38294238Y882866D01*
X38294238Y882866D02*
X38341857Y787628D01*
X38341857Y787628D02*
X38389476Y740009D01*
X38389476Y740009D02*
X38484714Y692390D01*
X38484714Y692390D02*
X38818047Y692390D01*
X37960904Y1168580D02*
X37389476Y1168580D01*
X37675190Y168580D02*
X37675190Y1168580D01*
X36532333Y168580D02*
X37103761Y168580D01*
X36818047Y168580D02*
X36818047Y1168580D01*
X36818047Y1168580D02*
X36913285Y1025723D01*
X36913285Y1025723D02*
X37008523Y930485D01*
X37008523Y930485D02*
X37103761Y882866D01*
D15*
X61705534Y-6192000D02*
X57134106Y-6192000D01*
X17105534Y-6192000D02*
X12534106Y-6192000D01*
X14819820Y-8477714D02*
X14819820Y-3906285D01*
D16*
%TO.C,D47*%
X6057879Y-20515843D02*
X9942879Y-20515843D01*
X9942879Y-18245843D02*
X6057879Y-18245843D01*
X9942879Y-20515843D02*
X9942879Y-18245843D01*
%TO.C,SW22*%
X65407879Y-17280843D02*
X65407879Y-17230843D01*
X65407879Y-18930843D02*
X65407879Y-20430843D01*
X65407879Y-22080843D02*
X65407879Y-22130843D01*
X70307879Y-17230843D02*
X65407879Y-17230843D01*
X70307879Y-17280843D02*
X70307879Y-17230843D01*
X70307879Y-18930843D02*
X70307879Y-20430843D01*
X70307879Y-22080843D02*
X70307879Y-22130843D01*
X70307879Y-22130843D02*
X65407879Y-22130843D01*
%TO.C,BT1*%
D14*
X73542000Y-2564000D02*
X3542000Y-2564000D01*
X3542000Y-9564000D01*
X73542000Y-9564000D01*
X73542000Y-2564000D01*
X76942000Y4436000D02*
X-558000Y4436000D01*
X-558000Y-16664000D01*
X76942000Y-16664000D01*
X76942000Y4436000D01*
%TD*%
M02*
