M48
; DRILL file {KiCad 8.0.8-8.0.8-0~ubuntu22.04.1} date 2025-02-03T23:53:32+0000
; FORMAT={-:-/ absolute / inch / decimal}
; #@! TF.CreationDate,2025-02-03T23:53:32+00:00
; #@! TF.GenerationSoftware,Kicad,Pcbnew,8.0.8-8.0.8-0~ubuntu22.04.1
; #@! TF.FileFunction,Plated,1,2,PTH
FMAT,2
INCH
; #@! TA.AperFunction,Plated,PTH,ComponentDrill
T1C0.0079
; #@! TA.AperFunction,Plated,PTH,ViaDrill
T2C0.0157
; #@! TA.AperFunction,Plated,PTH,ComponentDrill
T3C0.0236
; #@! TA.AperFunction,Plated,PTH,ComponentDrill
T4C0.0394
; #@! TA.AperFunction,Plated,PTH,ComponentDrill
T5C0.0591
%
G90
G05
T1
X1.9712Y-0.2387
X1.9712Y-0.2938
X1.9987Y-0.2111
X1.9987Y-0.2662
X1.9987Y-0.3214
X2.0263Y-0.2387
X2.0263Y-0.2938
X2.0538Y-0.2111
X2.0538Y-0.2662
X2.0538Y-0.3214
X2.0814Y-0.2387
X2.0814Y-0.2938
T2
X0.0298Y-1.1594
X0.0298Y-1.4094
X0.0298Y-1.6594
X0.0298Y-1.9094
X0.0298Y-2.1594
X0.0298Y-2.4094
X0.0298Y-2.6594
X0.0298Y-2.9094
X0.0298Y-3.1594
X0.0298Y-3.4094
X0.0298Y-3.6594
X0.0298Y-3.9094
X0.0298Y-4.1594
X0.0298Y-4.4094
X0.0397Y-0.6548
X0.0621Y-0.3517
X0.0791Y-0.8516
X0.0987Y0.0834
X0.0987Y0.0441
X0.0987Y0.0047
X0.1006Y-0.3518
X0.1266Y-0.1271
X0.1381Y-0.6567
X0.1502Y-0.4835
X0.1502Y-0.5307
X0.1521Y-0.2761
X0.1606Y-0.3118
X0.1606Y-0.3531
X0.1606Y-0.3971
X0.1606Y-0.4411
X0.1696Y-0.1261
X0.1873Y-1.4225
X0.1972Y-1.5996
X0.2162Y-3.1482
X0.2162Y-3.8962
X0.2267Y0.113
X0.2365Y-0.015
X0.2381Y-0.5441
X0.2641Y-3.7433
X0.272Y-4.4756
X0.2753Y-2.4002
X0.2838Y-1.5111
X0.2877Y-2.267
X0.2877Y-3.0071
X0.3005Y-0.7305
X0.3011Y-0.6876
X0.3251Y0.113
X0.3343Y0.0093
X0.3501Y-0.6029
X0.3737Y-2.4986
X0.3737Y-3.286
X0.3737Y-4.0734
X0.3835Y-0.6344
X0.394Y-0.9992
X0.3954Y-0.3647
X0.4039Y-1.6587
X0.417Y-0.4284
X0.4235Y0.113
X0.4328Y-0.3647
X0.4643Y-0.4284
X0.4702Y-0.3647
X0.4862Y-0.556
X0.4924Y-3.0268
X0.4924Y-3.7552
X0.4924Y-4.3784
X0.4957Y-4.5065
X0.5001Y-1.3863
X0.5023Y-3.637
X0.5115Y-0.4284
X0.5121Y-1.5111
X0.5121Y-2.141
X0.5121Y-2.2788
X0.5121Y-2.8989
X0.522Y0.113
X0.5239Y-0.6882
X0.5312Y-3.1482
X0.5515Y-4.513
X0.5633Y-0.6882
X0.5791Y-0.6174
X0.581Y-3.7552
X0.6178Y-0.2939
X0.6178Y-0.3293
X0.6198Y-0.2565
X0.6204Y0.113
X0.6302Y-1.0288
X0.6893Y-0.6016
X0.6893Y-0.8536
X0.7188Y0.113
X0.7582Y-1.265
X0.7674Y-3.0301
X0.768Y-0.9303
X0.7836Y-2.2937
X0.8139Y-0.6108
X0.8182Y0.11
X0.8418Y-0.9156
X0.8461Y-3.1482
X0.852Y-0.5242
X0.8634Y-0.7552
X0.8658Y-2.4002
X0.8855Y-3.8962
X0.8907Y-0.6962
X0.8964Y-0.9868
X0.9147Y0.11
X0.9353Y-3.7552
X0.9353Y-4.3784
X0.9353Y-4.513
X0.9367Y-1.0144
X0.9462Y-0.6931
X0.9649Y-2.141
X0.9649Y-2.8989
X0.9885Y-0.6882
X0.9997Y-0.5301
X1.0151Y0.11
X1.02Y-4.4914
X1.0239Y-2.2709
X1.0279Y-3.7473
X1.0318Y-1.5189
X1.0351Y-0.9238
X1.0397Y-3.0071
X1.0436Y-3.637
X1.0535Y-4.4146
X1.0745Y-0.3064
X1.1027Y0.11
X1.1322Y-1.6587
X1.1385Y-1.3902
X1.1591Y-0.8135
X1.1611Y-0.8962
X1.1617Y-0.8536
X1.1887Y-0.3844
X1.1906Y-0.3243
X1.1932Y-0.1794
X1.216Y-0.5678
X1.228Y-0.3243
X1.228Y-0.3844
X1.2357Y-4.3804
X1.2398Y0.1038
X1.2405Y-2.2788
X1.2405Y-3.0071
X1.2483Y-3.7591
X1.2483Y-4.5189
X1.2602Y-1.5307
X1.2646Y-0.3231
X1.2674Y-0.3844
X1.295Y0.0605
X1.2995Y-4.513
X1.3028Y-0.9153
X1.3107Y-1.0222
X1.3204Y-0.7072
X1.3239Y-0.6646
X1.3343Y-0.412
X1.335Y-0.3237
X1.3389Y-2.1343
X1.3389Y-3.6343
X1.3474Y-0.7466
X1.3549Y-0.5622
X1.3586Y-3.7552
X1.3894Y-0.4946
X1.4249Y-0.3225
X1.4682Y-0.3225
X1.4804Y-0.6037
X1.488Y-0.5667
X1.4977Y-0.6599
X1.5062Y-1.2355
X1.5131Y-0.6254
X1.5148Y-0.54
X1.5161Y-3.0268
X1.5312Y-0.3254
X1.5394Y-0.0049
X1.5474Y-1.6323
X1.5509Y-0.4395
X1.5515Y-0.6331
X1.5784Y-0.3293
X1.5942Y-3.1482
X1.6178Y-2.2663
X1.6532Y-2.4002
X1.6589Y-0.7617
X1.6623Y-0.4382
X1.6729Y-3.8962
X1.6769Y-0.8165
X1.6808Y-3.7584
X1.7031Y-2.1311
X1.7129Y-3.637
X1.7148Y-0.8163
X1.7509Y-0.9112
X1.7528Y-0.8063
X1.7759Y-4.4835
X1.7838Y-1.5268
X1.7838Y-2.2748
X1.7838Y-3.0071
X1.7838Y-3.7433
X1.7995Y-0.1089
X1.8028Y-0.3024
X1.8086Y0.0389
X1.8091Y-0.0285
X1.8113Y-4.3752
X1.8186Y-0.2607
X1.8279Y-0.0612
X1.8315Y-0.9283
X1.834Y-0.1245
X1.8349Y-0.3225
X1.8478Y-0.2161
X1.8567Y-0.1785
X1.8709Y-0.1324
X1.8808Y-0.5524
X1.8855Y-0.9126
X1.8897Y-0.5133
X1.8934Y0.0006
X1.8942Y-1.3961
X1.8999Y-1.6489
X1.9052Y-0.0893
X1.9083Y-0.1269
X1.9131Y-0.5721
X1.9148Y-0.4851
X1.9255Y-0.8933
X1.9367Y-0.8529
X1.9543Y-0.593
X1.9839Y-0.8687
X1.9885Y-0.6091
X1.9885Y-2.141
X1.9885Y-2.2788
X1.9885Y-3.0268
X1.9983Y-4.3851
X2.0042Y-4.5032
X2.0082Y-1.5307
X2.0082Y-3.6272
X2.0082Y-3.7748
X2.0509Y-0.8096
X2.0574Y-2.8989
X2.0824Y-0.845
X2.165Y-0.7663
X2.2481Y-3.0181
X2.2641Y-2.2689
X2.2641Y-4.5032
X2.2838Y-1.2552
X2.2984Y-0.3008
X2.3125Y-1.7602
X2.3364Y-0.2972
X2.3422Y-2.4002
X2.3566Y0.0389
X2.3816Y-3.1482
X2.4314Y-3.765
X2.4603Y-3.8962
X2.4708Y-3.637
X2.4747Y-0.7553
X2.4806Y-2.8989
X2.5003Y-0.6252
X2.5026Y0.0389
X2.5318Y-1.5189
X2.5318Y-3.7473
X2.5318Y-4.4914
X2.5357Y-2.2709
X2.5397Y-3.0032
X2.5495Y-2.141
X2.5495Y-4.3752
X2.6283Y-1.6489
X2.634Y-1.3961
X2.642Y-3.7118
X2.6735Y-0.829
X2.7129Y-0.2394
X2.7129Y-0.2394
X2.7129Y-0.2394
X2.7129Y-0.2394
X2.7129Y-0.2394
X2.7129Y-0.2394
X2.7129Y-0.2394
X2.7129Y-0.2394
X2.7129Y-0.2394
X2.7129Y-0.2394
X2.7129Y-0.2394
X2.7129Y-0.2394
X2.7129Y-0.2394
X2.7129Y-0.2394
X2.7129Y-0.2394
X2.7129Y-0.2394
X2.7129Y-0.452
X2.7186Y-0.856
X2.7365Y-1.5209
X2.7426Y-0.0248
X2.7523Y-0.2
X2.7523Y-0.2
X2.7523Y-0.2
X2.7523Y-0.2
X2.7523Y-0.2
X2.7523Y-0.2
X2.7523Y-0.2
X2.7523Y-0.2
X2.7523Y-0.2
X2.7523Y-0.2
X2.7523Y-0.2
X2.7523Y-0.2
X2.7523Y-0.2
X2.7523Y-0.2
X2.7523Y-0.2
X2.7523Y-0.2
X2.7523Y-0.2709
X2.7523Y-0.2709
X2.7523Y-0.2709
X2.7523Y-0.2709
X2.7523Y-0.2709
X2.7523Y-0.2709
X2.7523Y-0.2709
X2.7523Y-0.2709
X2.7523Y-0.2709
X2.7523Y-0.2709
X2.7523Y-0.2709
X2.7523Y-0.2709
X2.7523Y-0.2709
X2.7523Y-0.2709
X2.7523Y-0.2709
X2.7523Y-0.2709
X2.7562Y-2.2788
X2.7562Y-3.0071
X2.7562Y-3.7552
X2.7562Y-4.5032
X2.7838Y-0.2394
X2.7838Y-0.2394
X2.7838Y-0.2394
X2.7838Y-0.2394
X2.7838Y-0.2394
X2.7838Y-0.2394
X2.7838Y-0.2394
X2.7838Y-0.2394
X2.7838Y-0.2394
X2.7838Y-0.2394
X2.7838Y-0.2394
X2.7838Y-0.2394
X2.7838Y-0.2394
X2.7838Y-0.2394
X2.7838Y-0.2394
X2.7838Y-0.2394
X2.8146Y-0.9107
X2.8153Y-0.2
X2.8153Y-0.2
X2.8153Y-0.2
X2.8153Y-0.2
X2.8153Y-0.2
X2.8153Y-0.2
X2.8153Y-0.2
X2.8153Y-0.2
X2.8153Y-0.2
X2.8153Y-0.2
X2.8153Y-0.2
X2.8153Y-0.2
X2.8153Y-0.2
X2.8153Y-0.2
X2.8153Y-0.2
X2.8153Y-0.2
X2.8153Y-0.2709
X2.8153Y-0.2709
X2.8153Y-0.2709
X2.8153Y-0.2709
X2.8153Y-0.2709
X2.8153Y-0.2709
X2.8153Y-0.2709
X2.8153Y-0.2709
X2.8153Y-0.2709
X2.8153Y-0.2709
X2.8153Y-0.2709
X2.8153Y-0.2709
X2.8153Y-0.2709
X2.8153Y-0.2709
X2.8153Y-0.2709
X2.8153Y-0.2709
X2.831Y-0.83
X2.8546Y-0.2394
X2.8546Y-0.2394
X2.8546Y-0.2394
X2.8546Y-0.2394
X2.8546Y-0.2394
X2.8546Y-0.2394
X2.8546Y-0.2394
X2.8546Y-0.2394
X2.8546Y-0.2394
X2.8546Y-0.2394
X2.8546Y-0.2394
X2.8546Y-0.2394
X2.8546Y-0.2394
X2.8546Y-0.2394
X2.8546Y-0.2394
X2.8546Y-0.2394
X2.8743Y-3.9618
X2.8842Y-3.2827
X2.9721Y-0.9435
X2.9728Y-0.4441
X2.9767Y-0.5977
X3.0048Y-1.1594
X3.0048Y-1.4094
X3.0048Y-1.6594
X3.0048Y-1.9094
X3.0048Y-2.1594
X3.0048Y-2.4094
X3.0048Y-2.6594
X3.0048Y-2.9094
X3.0048Y-3.1594
X3.0048Y-3.4094
X3.0048Y-3.6594
X3.0048Y-3.9094
X3.0048Y-4.1594
X3.0048Y-4.4094
T4
X0.4406Y-0.078
X0.4406Y-0.178
X0.5406Y-0.078
X0.5406Y-0.178
X0.6406Y-0.078
X0.6406Y-0.178
X0.7406Y-0.078
X0.7406Y-0.178
X0.8406Y-0.078
X0.8406Y-0.178
X0.9406Y-0.078
X0.9406Y-0.178
X1.0406Y-0.078
X1.0406Y-0.178
X1.1406Y-0.078
X1.1406Y-0.178
X2.6406Y0.0308
X2.6406Y-0.54
X2.739Y-0.54
X2.8375Y0.0308
X2.8375Y-0.54
T5
X0.2275Y-3.3809
X0.2275Y-4.1309
X0.2285Y-2.6295
X0.2309Y-1.1359
X0.2309Y-1.8809
X0.4775Y-3.2809
X0.4775Y-4.0309
X0.4785Y-2.5295
X0.4809Y-1.0359
X0.4809Y-1.7809
X0.9741Y-3.3808
X0.9746Y-4.1309
X0.9759Y-1.1359
X0.9759Y-1.8809
X0.9759Y-2.6308
X1.2241Y-3.2808
X1.2246Y-4.0309
X1.2259Y-1.0359
X1.2259Y-1.7809
X1.2259Y-2.5308
X1.7259Y-1.1359
X1.7259Y-1.8809
X1.7275Y-4.1309
X1.7291Y-2.6308
X1.7291Y-3.3808
X1.9759Y-1.0359
X1.9759Y-1.7809
X1.9775Y-4.0309
X1.9791Y-2.5308
X1.9791Y-3.2808
X2.4775Y-1.1359
X2.4791Y-3.3808
X2.4796Y-4.1309
X2.4809Y-1.8809
X2.4809Y-2.6309
X2.7275Y-1.0359
X2.7291Y-3.2808
X2.7296Y-4.0309
X2.7309Y-1.7809
X2.7309Y-2.5309
T3
G00X0.0909Y-0.0693
M15
G01X0.0594Y-0.0693
M16
G05
G00X0.0909Y-0.4095
M15
G01X0.0594Y-0.4095
M16
G05
G00X0.2613Y-0.0693
M15
G01X0.218Y-0.0693
M16
G05
G00X0.2613Y-0.4095
M15
G01X0.218Y-0.4095
M16
G05
T5
G00X2.5186Y-0.2703
M15
G01X2.5186Y-0.2192
M16
G05
G00X2.9595Y-0.2703
M15
G01X2.9595Y-0.2192
M16
G05
M30
