%TF.GenerationSoftware,KiCad,Pcbnew,8.0.5-8.0.5-0~ubuntu22.04.1*%
%TF.CreationDate,2024-11-26T13:48:24+00:00*%
%TF.ProjectId,numcalcium,6e756d63-616c-4636-9975-6d2e6b696361,rev?*%
%TF.SameCoordinates,Original*%
%TF.FileFunction,Drillmap*%
%TF.FilePolarity,Positive*%
%FSLAX45Y45*%
G04 Gerber Fmt 4.5, Leading zero omitted, Abs format (unit mm)*
G04 Created by KiCad (PCBNEW 8.0.5-8.0.5-0~ubuntu22.04.1) date 2024-11-26 13:48:24*
%MOMM*%
%LPD*%
G01*
G04 APERTURE LIST*
%ADD10C,0.100000*%
%ADD11C,0.150000*%
%ADD12C,0.200000*%
%ADD13C,0.125000*%
G04 APERTURE END LIST*
D10*
X352045Y3149424D02*
G75*
G02*
X123214Y3149424I-114416J0D01*
G01*
X123214Y3149424D02*
G75*
G02*
X352045Y3149424I114416J0D01*
G01*
X348832Y651814D02*
G75*
G02*
X115950Y651814I-116441J0D01*
G01*
X115950Y651814D02*
G75*
G02*
X348832Y651814I116441J0D01*
G01*
X7704760Y792480D02*
G75*
G02*
X7318505Y406224I-386270J14D01*
G01*
X7318505Y3403424D02*
X338760Y3403424D01*
X338760Y406224D02*
G75*
G02*
X-47495Y792480I-1J386255D01*
G01*
D11*
X5699538Y2621280D02*
X5839238Y2621280D01*
X5839238Y787400D01*
X5699538Y787400D01*
X5699538Y2621280D01*
D10*
X7318505Y3403424D02*
G75*
G02*
X7704754Y3017169I5J-386244D01*
G01*
X7409528Y1889760D02*
G75*
G02*
X6621172Y1889760I-394178J0D01*
G01*
X6621172Y1889760D02*
G75*
G02*
X7409528Y1889760I394178J0D01*
G01*
X7704760Y3017169D02*
X7704760Y792480D01*
X7559805Y3149424D02*
G75*
G02*
X7335153Y3149424I-112326J0D01*
G01*
X7335153Y3149424D02*
G75*
G02*
X7559805Y3149424I112326J0D01*
G01*
X7318505Y406224D02*
X338760Y406224D01*
X-47495Y3017169D02*
G75*
G02*
X338760Y3403424I386255J0D01*
G01*
X-47495Y3017169D02*
X-47495Y792480D01*
X7562970Y647524D02*
G75*
G02*
X7333295Y647524I-114837J0D01*
G01*
X7333295Y647524D02*
G75*
G02*
X7562970Y647524I114837J0D01*
G01*
D12*
D13*
X3872900Y2699020D02*
X3997900Y2574020D01*
X3997900Y2699020D02*
X3872900Y2574020D01*
X4670900Y2699020D02*
X4795900Y2574020D01*
X4795900Y2699020D02*
X4670900Y2574020D01*
D11*
X487520Y1247020D02*
G75*
G02*
X337520Y1247020I-75000J0D01*
G01*
X337520Y1247020D02*
G75*
G02*
X487520Y1247020I75000J0D01*
G01*
X1187520Y1247020D02*
G75*
G02*
X1037520Y1247020I-75000J0D01*
G01*
X1037520Y1247020D02*
G75*
G02*
X1187520Y1247020I75000J0D01*
G01*
D12*
X208281Y89740D02*
X208281Y289740D01*
X208281Y289740D02*
X255900Y289740D01*
X255900Y289740D02*
X284472Y280217D01*
X284472Y280217D02*
X303520Y261169D01*
X303520Y261169D02*
X313043Y242121D01*
X313043Y242121D02*
X322567Y204026D01*
X322567Y204026D02*
X322567Y175455D01*
X322567Y175455D02*
X313043Y137360D01*
X313043Y137360D02*
X303520Y118312D01*
X303520Y118312D02*
X284472Y99264D01*
X284472Y99264D02*
X255900Y89740D01*
X255900Y89740D02*
X208281Y89740D01*
X408281Y89740D02*
X408281Y223074D01*
X408281Y184978D02*
X417805Y204026D01*
X417805Y204026D02*
X427329Y213550D01*
X427329Y213550D02*
X446377Y223074D01*
X446377Y223074D02*
X465424Y223074D01*
X532091Y89740D02*
X532091Y223074D01*
X532091Y289740D02*
X522567Y280217D01*
X522567Y280217D02*
X532091Y270693D01*
X532091Y270693D02*
X541615Y280217D01*
X541615Y280217D02*
X532091Y289740D01*
X532091Y289740D02*
X532091Y270693D01*
X655901Y89740D02*
X636853Y99264D01*
X636853Y99264D02*
X627329Y118312D01*
X627329Y118312D02*
X627329Y289740D01*
X760662Y89740D02*
X741615Y99264D01*
X741615Y99264D02*
X732091Y118312D01*
X732091Y118312D02*
X732091Y289740D01*
X989234Y89740D02*
X989234Y289740D01*
X989234Y289740D02*
X1055901Y146883D01*
X1055901Y146883D02*
X1122567Y289740D01*
X1122567Y289740D02*
X1122567Y89740D01*
X1303520Y89740D02*
X1303520Y194502D01*
X1303520Y194502D02*
X1293996Y213550D01*
X1293996Y213550D02*
X1274948Y223074D01*
X1274948Y223074D02*
X1236853Y223074D01*
X1236853Y223074D02*
X1217805Y213550D01*
X1303520Y99264D02*
X1284472Y89740D01*
X1284472Y89740D02*
X1236853Y89740D01*
X1236853Y89740D02*
X1217805Y99264D01*
X1217805Y99264D02*
X1208282Y118312D01*
X1208282Y118312D02*
X1208282Y137360D01*
X1208282Y137360D02*
X1217805Y156407D01*
X1217805Y156407D02*
X1236853Y165931D01*
X1236853Y165931D02*
X1284472Y165931D01*
X1284472Y165931D02*
X1303520Y175455D01*
X1398758Y223074D02*
X1398758Y23074D01*
X1398758Y213550D02*
X1417805Y223074D01*
X1417805Y223074D02*
X1455901Y223074D01*
X1455901Y223074D02*
X1474948Y213550D01*
X1474948Y213550D02*
X1484472Y204026D01*
X1484472Y204026D02*
X1493996Y184978D01*
X1493996Y184978D02*
X1493996Y127836D01*
X1493996Y127836D02*
X1484472Y108788D01*
X1484472Y108788D02*
X1474948Y99264D01*
X1474948Y99264D02*
X1455901Y89740D01*
X1455901Y89740D02*
X1417805Y89740D01*
X1417805Y89740D02*
X1398758Y99264D01*
X1579710Y108788D02*
X1589234Y99264D01*
X1589234Y99264D02*
X1579710Y89740D01*
X1579710Y89740D02*
X1570186Y99264D01*
X1570186Y99264D02*
X1579710Y108788D01*
X1579710Y108788D02*
X1579710Y89740D01*
X1579710Y213550D02*
X1589234Y204026D01*
X1589234Y204026D02*
X1579710Y194502D01*
X1579710Y194502D02*
X1570186Y204026D01*
X1570186Y204026D02*
X1579710Y213550D01*
X1579710Y213550D02*
X1579710Y194502D01*
D13*
X-177495Y-176276D02*
X-52495Y-301276D01*
X-52495Y-176276D02*
X-177495Y-301276D01*
D12*
X313043Y-330260D02*
X198758Y-330260D01*
X255900Y-330260D02*
X255900Y-130259D01*
X255900Y-130259D02*
X236853Y-158831D01*
X236853Y-158831D02*
X217805Y-177878D01*
X217805Y-177878D02*
X198758Y-187402D01*
X398758Y-311212D02*
X408281Y-320736D01*
X408281Y-320736D02*
X398758Y-330260D01*
X398758Y-330260D02*
X389234Y-320736D01*
X389234Y-320736D02*
X398758Y-311212D01*
X398758Y-311212D02*
X398758Y-330260D01*
X484472Y-149307D02*
X493996Y-139783D01*
X493996Y-139783D02*
X513043Y-130259D01*
X513043Y-130259D02*
X560663Y-130259D01*
X560663Y-130259D02*
X579710Y-139783D01*
X579710Y-139783D02*
X589234Y-149307D01*
X589234Y-149307D02*
X598758Y-168355D01*
X598758Y-168355D02*
X598758Y-187402D01*
X598758Y-187402D02*
X589234Y-215974D01*
X589234Y-215974D02*
X474948Y-330260D01*
X474948Y-330260D02*
X598758Y-330260D01*
X779710Y-130259D02*
X684472Y-130259D01*
X684472Y-130259D02*
X674948Y-225498D01*
X674948Y-225498D02*
X684472Y-215974D01*
X684472Y-215974D02*
X703520Y-206450D01*
X703520Y-206450D02*
X751139Y-206450D01*
X751139Y-206450D02*
X770186Y-215974D01*
X770186Y-215974D02*
X779710Y-225498D01*
X779710Y-225498D02*
X789234Y-244545D01*
X789234Y-244545D02*
X789234Y-292164D01*
X789234Y-292164D02*
X779710Y-311212D01*
X779710Y-311212D02*
X770186Y-320736D01*
X770186Y-320736D02*
X751139Y-330260D01*
X751139Y-330260D02*
X703520Y-330260D01*
X703520Y-330260D02*
X684472Y-320736D01*
X684472Y-320736D02*
X674948Y-311212D01*
X913043Y-130259D02*
X932091Y-130259D01*
X932091Y-130259D02*
X951139Y-139783D01*
X951139Y-139783D02*
X960662Y-149307D01*
X960662Y-149307D02*
X970186Y-168355D01*
X970186Y-168355D02*
X979710Y-206450D01*
X979710Y-206450D02*
X979710Y-254069D01*
X979710Y-254069D02*
X970186Y-292164D01*
X970186Y-292164D02*
X960662Y-311212D01*
X960662Y-311212D02*
X951139Y-320736D01*
X951139Y-320736D02*
X932091Y-330260D01*
X932091Y-330260D02*
X913043Y-330260D01*
X913043Y-330260D02*
X893996Y-320736D01*
X893996Y-320736D02*
X884472Y-311212D01*
X884472Y-311212D02*
X874948Y-292164D01*
X874948Y-292164D02*
X865424Y-254069D01*
X865424Y-254069D02*
X865424Y-206450D01*
X865424Y-206450D02*
X874948Y-168355D01*
X874948Y-168355D02*
X884472Y-149307D01*
X884472Y-149307D02*
X893996Y-139783D01*
X893996Y-139783D02*
X913043Y-130259D01*
X1065424Y-330260D02*
X1065424Y-196926D01*
X1065424Y-215974D02*
X1074948Y-206450D01*
X1074948Y-206450D02*
X1093996Y-196926D01*
X1093996Y-196926D02*
X1122567Y-196926D01*
X1122567Y-196926D02*
X1141615Y-206450D01*
X1141615Y-206450D02*
X1151139Y-225498D01*
X1151139Y-225498D02*
X1151139Y-330260D01*
X1151139Y-225498D02*
X1160663Y-206450D01*
X1160663Y-206450D02*
X1179710Y-196926D01*
X1179710Y-196926D02*
X1208282Y-196926D01*
X1208282Y-196926D02*
X1227329Y-206450D01*
X1227329Y-206450D02*
X1236853Y-225498D01*
X1236853Y-225498D02*
X1236853Y-330260D01*
X1332091Y-330260D02*
X1332091Y-196926D01*
X1332091Y-215974D02*
X1341615Y-206450D01*
X1341615Y-206450D02*
X1360663Y-196926D01*
X1360663Y-196926D02*
X1389234Y-196926D01*
X1389234Y-196926D02*
X1408282Y-206450D01*
X1408282Y-206450D02*
X1417805Y-225498D01*
X1417805Y-225498D02*
X1417805Y-330260D01*
X1417805Y-225498D02*
X1427329Y-206450D01*
X1427329Y-206450D02*
X1446377Y-196926D01*
X1446377Y-196926D02*
X1474948Y-196926D01*
X1474948Y-196926D02*
X1493996Y-206450D01*
X1493996Y-206450D02*
X1503520Y-225498D01*
X1503520Y-225498D02*
X1503520Y-330260D01*
X1893996Y-120736D02*
X1722567Y-377878D01*
X2151139Y-130259D02*
X2170187Y-130259D01*
X2170187Y-130259D02*
X2189234Y-139783D01*
X2189234Y-139783D02*
X2198758Y-149307D01*
X2198758Y-149307D02*
X2208282Y-168355D01*
X2208282Y-168355D02*
X2217806Y-206450D01*
X2217806Y-206450D02*
X2217806Y-254069D01*
X2217806Y-254069D02*
X2208282Y-292164D01*
X2208282Y-292164D02*
X2198758Y-311212D01*
X2198758Y-311212D02*
X2189234Y-320736D01*
X2189234Y-320736D02*
X2170187Y-330260D01*
X2170187Y-330260D02*
X2151139Y-330260D01*
X2151139Y-330260D02*
X2132091Y-320736D01*
X2132091Y-320736D02*
X2122567Y-311212D01*
X2122567Y-311212D02*
X2113044Y-292164D01*
X2113044Y-292164D02*
X2103520Y-254069D01*
X2103520Y-254069D02*
X2103520Y-206450D01*
X2103520Y-206450D02*
X2113044Y-168355D01*
X2113044Y-168355D02*
X2122567Y-149307D01*
X2122567Y-149307D02*
X2132091Y-139783D01*
X2132091Y-139783D02*
X2151139Y-130259D01*
X2303520Y-311212D02*
X2313044Y-320736D01*
X2313044Y-320736D02*
X2303520Y-330260D01*
X2303520Y-330260D02*
X2293996Y-320736D01*
X2293996Y-320736D02*
X2303520Y-311212D01*
X2303520Y-311212D02*
X2303520Y-330260D01*
X2436853Y-130259D02*
X2455901Y-130259D01*
X2455901Y-130259D02*
X2474948Y-139783D01*
X2474948Y-139783D02*
X2484472Y-149307D01*
X2484472Y-149307D02*
X2493996Y-168355D01*
X2493996Y-168355D02*
X2503520Y-206450D01*
X2503520Y-206450D02*
X2503520Y-254069D01*
X2503520Y-254069D02*
X2493996Y-292164D01*
X2493996Y-292164D02*
X2484472Y-311212D01*
X2484472Y-311212D02*
X2474948Y-320736D01*
X2474948Y-320736D02*
X2455901Y-330260D01*
X2455901Y-330260D02*
X2436853Y-330260D01*
X2436853Y-330260D02*
X2417806Y-320736D01*
X2417806Y-320736D02*
X2408282Y-311212D01*
X2408282Y-311212D02*
X2398758Y-292164D01*
X2398758Y-292164D02*
X2389234Y-254069D01*
X2389234Y-254069D02*
X2389234Y-206450D01*
X2389234Y-206450D02*
X2398758Y-168355D01*
X2398758Y-168355D02*
X2408282Y-149307D01*
X2408282Y-149307D02*
X2417806Y-139783D01*
X2417806Y-139783D02*
X2436853Y-130259D01*
X2674948Y-196926D02*
X2674948Y-330260D01*
X2627329Y-120736D02*
X2579710Y-263593D01*
X2579710Y-263593D02*
X2703520Y-263593D01*
X2789234Y-330260D02*
X2827329Y-330260D01*
X2827329Y-330260D02*
X2846377Y-320736D01*
X2846377Y-320736D02*
X2855901Y-311212D01*
X2855901Y-311212D02*
X2874948Y-282640D01*
X2874948Y-282640D02*
X2884472Y-244545D01*
X2884472Y-244545D02*
X2884472Y-168355D01*
X2884472Y-168355D02*
X2874948Y-149307D01*
X2874948Y-149307D02*
X2865425Y-139783D01*
X2865425Y-139783D02*
X2846377Y-130259D01*
X2846377Y-130259D02*
X2808282Y-130259D01*
X2808282Y-130259D02*
X2789234Y-139783D01*
X2789234Y-139783D02*
X2779710Y-149307D01*
X2779710Y-149307D02*
X2770187Y-168355D01*
X2770187Y-168355D02*
X2770187Y-215974D01*
X2770187Y-215974D02*
X2779710Y-235021D01*
X2779710Y-235021D02*
X2789234Y-244545D01*
X2789234Y-244545D02*
X2808282Y-254069D01*
X2808282Y-254069D02*
X2846377Y-254069D01*
X2846377Y-254069D02*
X2865425Y-244545D01*
X2865425Y-244545D02*
X2874948Y-235021D01*
X2874948Y-235021D02*
X2884472Y-215974D01*
X2960663Y-149307D02*
X2970186Y-139783D01*
X2970186Y-139783D02*
X2989234Y-130259D01*
X2989234Y-130259D02*
X3036853Y-130259D01*
X3036853Y-130259D02*
X3055901Y-139783D01*
X3055901Y-139783D02*
X3065425Y-149307D01*
X3065425Y-149307D02*
X3074948Y-168355D01*
X3074948Y-168355D02*
X3074948Y-187402D01*
X3074948Y-187402D02*
X3065425Y-215974D01*
X3065425Y-215974D02*
X2951139Y-330260D01*
X2951139Y-330260D02*
X3074948Y-330260D01*
X3151139Y-130259D02*
X3151139Y-168355D01*
X3227329Y-130259D02*
X3227329Y-168355D01*
X3522568Y-406450D02*
X3513044Y-396926D01*
X3513044Y-396926D02*
X3493996Y-368355D01*
X3493996Y-368355D02*
X3484472Y-349307D01*
X3484472Y-349307D02*
X3474948Y-320736D01*
X3474948Y-320736D02*
X3465425Y-273117D01*
X3465425Y-273117D02*
X3465425Y-235021D01*
X3465425Y-235021D02*
X3474948Y-187402D01*
X3474948Y-187402D02*
X3484472Y-158831D01*
X3484472Y-158831D02*
X3493996Y-139783D01*
X3493996Y-139783D02*
X3513044Y-111212D01*
X3513044Y-111212D02*
X3522568Y-101688D01*
X3589234Y-149307D02*
X3598758Y-139783D01*
X3598758Y-139783D02*
X3617806Y-130259D01*
X3617806Y-130259D02*
X3665425Y-130259D01*
X3665425Y-130259D02*
X3684472Y-139783D01*
X3684472Y-139783D02*
X3693996Y-149307D01*
X3693996Y-149307D02*
X3703520Y-168355D01*
X3703520Y-168355D02*
X3703520Y-187402D01*
X3703520Y-187402D02*
X3693996Y-215974D01*
X3693996Y-215974D02*
X3579710Y-330260D01*
X3579710Y-330260D02*
X3703520Y-330260D01*
X3941615Y-330260D02*
X3941615Y-130259D01*
X4027329Y-330260D02*
X4027329Y-225498D01*
X4027329Y-225498D02*
X4017806Y-206450D01*
X4017806Y-206450D02*
X3998758Y-196926D01*
X3998758Y-196926D02*
X3970187Y-196926D01*
X3970187Y-196926D02*
X3951139Y-206450D01*
X3951139Y-206450D02*
X3941615Y-215974D01*
X4151139Y-330260D02*
X4132091Y-320736D01*
X4132091Y-320736D02*
X4122568Y-311212D01*
X4122568Y-311212D02*
X4113044Y-292164D01*
X4113044Y-292164D02*
X4113044Y-235021D01*
X4113044Y-235021D02*
X4122568Y-215974D01*
X4122568Y-215974D02*
X4132091Y-206450D01*
X4132091Y-206450D02*
X4151139Y-196926D01*
X4151139Y-196926D02*
X4179710Y-196926D01*
X4179710Y-196926D02*
X4198758Y-206450D01*
X4198758Y-206450D02*
X4208282Y-215974D01*
X4208282Y-215974D02*
X4217806Y-235021D01*
X4217806Y-235021D02*
X4217806Y-292164D01*
X4217806Y-292164D02*
X4208282Y-311212D01*
X4208282Y-311212D02*
X4198758Y-320736D01*
X4198758Y-320736D02*
X4179710Y-330260D01*
X4179710Y-330260D02*
X4151139Y-330260D01*
X4332091Y-330260D02*
X4313044Y-320736D01*
X4313044Y-320736D02*
X4303520Y-301688D01*
X4303520Y-301688D02*
X4303520Y-130259D01*
X4484472Y-320736D02*
X4465425Y-330260D01*
X4465425Y-330260D02*
X4427330Y-330260D01*
X4427330Y-330260D02*
X4408282Y-320736D01*
X4408282Y-320736D02*
X4398758Y-301688D01*
X4398758Y-301688D02*
X4398758Y-225498D01*
X4398758Y-225498D02*
X4408282Y-206450D01*
X4408282Y-206450D02*
X4427330Y-196926D01*
X4427330Y-196926D02*
X4465425Y-196926D01*
X4465425Y-196926D02*
X4484472Y-206450D01*
X4484472Y-206450D02*
X4493996Y-225498D01*
X4493996Y-225498D02*
X4493996Y-244545D01*
X4493996Y-244545D02*
X4398758Y-263593D01*
X4570187Y-320736D02*
X4589234Y-330260D01*
X4589234Y-330260D02*
X4627330Y-330260D01*
X4627330Y-330260D02*
X4646377Y-320736D01*
X4646377Y-320736D02*
X4655901Y-301688D01*
X4655901Y-301688D02*
X4655901Y-292164D01*
X4655901Y-292164D02*
X4646377Y-273117D01*
X4646377Y-273117D02*
X4627330Y-263593D01*
X4627330Y-263593D02*
X4598758Y-263593D01*
X4598758Y-263593D02*
X4579711Y-254069D01*
X4579711Y-254069D02*
X4570187Y-235021D01*
X4570187Y-235021D02*
X4570187Y-225498D01*
X4570187Y-225498D02*
X4579711Y-206450D01*
X4579711Y-206450D02*
X4598758Y-196926D01*
X4598758Y-196926D02*
X4627330Y-196926D01*
X4627330Y-196926D02*
X4646377Y-206450D01*
X4722568Y-406450D02*
X4732092Y-396926D01*
X4732092Y-396926D02*
X4751139Y-368355D01*
X4751139Y-368355D02*
X4760663Y-349307D01*
X4760663Y-349307D02*
X4770187Y-320736D01*
X4770187Y-320736D02*
X4779711Y-273117D01*
X4779711Y-273117D02*
X4779711Y-235021D01*
X4779711Y-235021D02*
X4770187Y-187402D01*
X4770187Y-187402D02*
X4760663Y-158831D01*
X4760663Y-158831D02*
X4751139Y-139783D01*
X4751139Y-139783D02*
X4732092Y-111212D01*
X4732092Y-111212D02*
X4722568Y-101688D01*
X5084473Y-406450D02*
X5074949Y-396926D01*
X5074949Y-396926D02*
X5055901Y-368355D01*
X5055901Y-368355D02*
X5046377Y-349307D01*
X5046377Y-349307D02*
X5036853Y-320736D01*
X5036853Y-320736D02*
X5027330Y-273117D01*
X5027330Y-273117D02*
X5027330Y-235021D01*
X5027330Y-235021D02*
X5036853Y-187402D01*
X5036853Y-187402D02*
X5046377Y-158831D01*
X5046377Y-158831D02*
X5055901Y-139783D01*
X5055901Y-139783D02*
X5074949Y-111212D01*
X5074949Y-111212D02*
X5084473Y-101688D01*
X5160663Y-196926D02*
X5160663Y-330260D01*
X5160663Y-215974D02*
X5170187Y-206450D01*
X5170187Y-206450D02*
X5189234Y-196926D01*
X5189234Y-196926D02*
X5217806Y-196926D01*
X5217806Y-196926D02*
X5236853Y-206450D01*
X5236853Y-206450D02*
X5246377Y-225498D01*
X5246377Y-225498D02*
X5246377Y-330260D01*
X5370187Y-330260D02*
X5351139Y-320736D01*
X5351139Y-320736D02*
X5341615Y-311212D01*
X5341615Y-311212D02*
X5332092Y-292164D01*
X5332092Y-292164D02*
X5332092Y-235021D01*
X5332092Y-235021D02*
X5341615Y-215974D01*
X5341615Y-215974D02*
X5351139Y-206450D01*
X5351139Y-206450D02*
X5370187Y-196926D01*
X5370187Y-196926D02*
X5398758Y-196926D01*
X5398758Y-196926D02*
X5417806Y-206450D01*
X5417806Y-206450D02*
X5427330Y-215974D01*
X5427330Y-215974D02*
X5436853Y-235021D01*
X5436853Y-235021D02*
X5436853Y-292164D01*
X5436853Y-292164D02*
X5427330Y-311212D01*
X5427330Y-311212D02*
X5417806Y-320736D01*
X5417806Y-320736D02*
X5398758Y-330260D01*
X5398758Y-330260D02*
X5370187Y-330260D01*
X5493996Y-196926D02*
X5570187Y-196926D01*
X5522568Y-130259D02*
X5522568Y-301688D01*
X5522568Y-301688D02*
X5532092Y-320736D01*
X5532092Y-320736D02*
X5551139Y-330260D01*
X5551139Y-330260D02*
X5570187Y-330260D01*
X5789234Y-196926D02*
X5789234Y-396926D01*
X5789234Y-206450D02*
X5808282Y-196926D01*
X5808282Y-196926D02*
X5846377Y-196926D01*
X5846377Y-196926D02*
X5865425Y-206450D01*
X5865425Y-206450D02*
X5874949Y-215974D01*
X5874949Y-215974D02*
X5884472Y-235021D01*
X5884472Y-235021D02*
X5884472Y-292164D01*
X5884472Y-292164D02*
X5874949Y-311212D01*
X5874949Y-311212D02*
X5865425Y-320736D01*
X5865425Y-320736D02*
X5846377Y-330260D01*
X5846377Y-330260D02*
X5808282Y-330260D01*
X5808282Y-330260D02*
X5789234Y-320736D01*
X5998758Y-330260D02*
X5979711Y-320736D01*
X5979711Y-320736D02*
X5970187Y-301688D01*
X5970187Y-301688D02*
X5970187Y-130259D01*
X6160663Y-330260D02*
X6160663Y-225498D01*
X6160663Y-225498D02*
X6151139Y-206450D01*
X6151139Y-206450D02*
X6132092Y-196926D01*
X6132092Y-196926D02*
X6093996Y-196926D01*
X6093996Y-196926D02*
X6074949Y-206450D01*
X6160663Y-320736D02*
X6141615Y-330260D01*
X6141615Y-330260D02*
X6093996Y-330260D01*
X6093996Y-330260D02*
X6074949Y-320736D01*
X6074949Y-320736D02*
X6065425Y-301688D01*
X6065425Y-301688D02*
X6065425Y-282640D01*
X6065425Y-282640D02*
X6074949Y-263593D01*
X6074949Y-263593D02*
X6093996Y-254069D01*
X6093996Y-254069D02*
X6141615Y-254069D01*
X6141615Y-254069D02*
X6160663Y-244545D01*
X6227330Y-196926D02*
X6303520Y-196926D01*
X6255901Y-130259D02*
X6255901Y-301688D01*
X6255901Y-301688D02*
X6265425Y-320736D01*
X6265425Y-320736D02*
X6284472Y-330260D01*
X6284472Y-330260D02*
X6303520Y-330260D01*
X6446377Y-320736D02*
X6427330Y-330260D01*
X6427330Y-330260D02*
X6389234Y-330260D01*
X6389234Y-330260D02*
X6370187Y-320736D01*
X6370187Y-320736D02*
X6360663Y-301688D01*
X6360663Y-301688D02*
X6360663Y-225498D01*
X6360663Y-225498D02*
X6370187Y-206450D01*
X6370187Y-206450D02*
X6389234Y-196926D01*
X6389234Y-196926D02*
X6427330Y-196926D01*
X6427330Y-196926D02*
X6446377Y-206450D01*
X6446377Y-206450D02*
X6455901Y-225498D01*
X6455901Y-225498D02*
X6455901Y-244545D01*
X6455901Y-244545D02*
X6360663Y-263593D01*
X6627330Y-330260D02*
X6627330Y-130259D01*
X6627330Y-320736D02*
X6608282Y-330260D01*
X6608282Y-330260D02*
X6570187Y-330260D01*
X6570187Y-330260D02*
X6551139Y-320736D01*
X6551139Y-320736D02*
X6541615Y-311212D01*
X6541615Y-311212D02*
X6532092Y-292164D01*
X6532092Y-292164D02*
X6532092Y-235021D01*
X6532092Y-235021D02*
X6541615Y-215974D01*
X6541615Y-215974D02*
X6551139Y-206450D01*
X6551139Y-206450D02*
X6570187Y-196926D01*
X6570187Y-196926D02*
X6608282Y-196926D01*
X6608282Y-196926D02*
X6627330Y-206450D01*
X6703520Y-406450D02*
X6713044Y-396926D01*
X6713044Y-396926D02*
X6732092Y-368355D01*
X6732092Y-368355D02*
X6741615Y-349307D01*
X6741615Y-349307D02*
X6751139Y-320736D01*
X6751139Y-320736D02*
X6760663Y-273117D01*
X6760663Y-273117D02*
X6760663Y-235021D01*
X6760663Y-235021D02*
X6751139Y-187402D01*
X6751139Y-187402D02*
X6741615Y-158831D01*
X6741615Y-158831D02*
X6732092Y-139783D01*
X6732092Y-139783D02*
X6713044Y-111212D01*
X6713044Y-111212D02*
X6703520Y-101688D01*
D11*
X-52495Y-502776D02*
G75*
G02*
X-202495Y-502776I-75000J0D01*
G01*
X-202495Y-502776D02*
G75*
G02*
X-52495Y-502776I75000J0D01*
G01*
D12*
X313043Y-594260D02*
X198758Y-594260D01*
X255900Y-594260D02*
X255900Y-394259D01*
X255900Y-394259D02*
X236853Y-422831D01*
X236853Y-422831D02*
X217805Y-441878D01*
X217805Y-441878D02*
X198758Y-451402D01*
X398758Y-575212D02*
X408281Y-584736D01*
X408281Y-584736D02*
X398758Y-594260D01*
X398758Y-594260D02*
X389234Y-584736D01*
X389234Y-584736D02*
X398758Y-575212D01*
X398758Y-575212D02*
X398758Y-594260D01*
X589234Y-394259D02*
X493996Y-394259D01*
X493996Y-394259D02*
X484472Y-489498D01*
X484472Y-489498D02*
X493996Y-479974D01*
X493996Y-479974D02*
X513043Y-470450D01*
X513043Y-470450D02*
X560663Y-470450D01*
X560663Y-470450D02*
X579710Y-479974D01*
X579710Y-479974D02*
X589234Y-489498D01*
X589234Y-489498D02*
X598758Y-508545D01*
X598758Y-508545D02*
X598758Y-556164D01*
X598758Y-556164D02*
X589234Y-575212D01*
X589234Y-575212D02*
X579710Y-584736D01*
X579710Y-584736D02*
X560663Y-594260D01*
X560663Y-594260D02*
X513043Y-594260D01*
X513043Y-594260D02*
X493996Y-584736D01*
X493996Y-584736D02*
X484472Y-575212D01*
X722567Y-394259D02*
X741615Y-394259D01*
X741615Y-394259D02*
X760662Y-403783D01*
X760662Y-403783D02*
X770186Y-413307D01*
X770186Y-413307D02*
X779710Y-432355D01*
X779710Y-432355D02*
X789234Y-470450D01*
X789234Y-470450D02*
X789234Y-518069D01*
X789234Y-518069D02*
X779710Y-556164D01*
X779710Y-556164D02*
X770186Y-575212D01*
X770186Y-575212D02*
X760662Y-584736D01*
X760662Y-584736D02*
X741615Y-594260D01*
X741615Y-594260D02*
X722567Y-594260D01*
X722567Y-594260D02*
X703520Y-584736D01*
X703520Y-584736D02*
X693996Y-575212D01*
X693996Y-575212D02*
X684472Y-556164D01*
X684472Y-556164D02*
X674948Y-518069D01*
X674948Y-518069D02*
X674948Y-470450D01*
X674948Y-470450D02*
X684472Y-432355D01*
X684472Y-432355D02*
X693996Y-413307D01*
X693996Y-413307D02*
X703520Y-403783D01*
X703520Y-403783D02*
X722567Y-394259D01*
X913043Y-394259D02*
X932091Y-394259D01*
X932091Y-394259D02*
X951139Y-403783D01*
X951139Y-403783D02*
X960662Y-413307D01*
X960662Y-413307D02*
X970186Y-432355D01*
X970186Y-432355D02*
X979710Y-470450D01*
X979710Y-470450D02*
X979710Y-518069D01*
X979710Y-518069D02*
X970186Y-556164D01*
X970186Y-556164D02*
X960662Y-575212D01*
X960662Y-575212D02*
X951139Y-584736D01*
X951139Y-584736D02*
X932091Y-594260D01*
X932091Y-594260D02*
X913043Y-594260D01*
X913043Y-594260D02*
X893996Y-584736D01*
X893996Y-584736D02*
X884472Y-575212D01*
X884472Y-575212D02*
X874948Y-556164D01*
X874948Y-556164D02*
X865424Y-518069D01*
X865424Y-518069D02*
X865424Y-470450D01*
X865424Y-470450D02*
X874948Y-432355D01*
X874948Y-432355D02*
X884472Y-413307D01*
X884472Y-413307D02*
X893996Y-403783D01*
X893996Y-403783D02*
X913043Y-394259D01*
X1065424Y-594260D02*
X1065424Y-460926D01*
X1065424Y-479974D02*
X1074948Y-470450D01*
X1074948Y-470450D02*
X1093996Y-460926D01*
X1093996Y-460926D02*
X1122567Y-460926D01*
X1122567Y-460926D02*
X1141615Y-470450D01*
X1141615Y-470450D02*
X1151139Y-489498D01*
X1151139Y-489498D02*
X1151139Y-594260D01*
X1151139Y-489498D02*
X1160663Y-470450D01*
X1160663Y-470450D02*
X1179710Y-460926D01*
X1179710Y-460926D02*
X1208282Y-460926D01*
X1208282Y-460926D02*
X1227329Y-470450D01*
X1227329Y-470450D02*
X1236853Y-489498D01*
X1236853Y-489498D02*
X1236853Y-594260D01*
X1332091Y-594260D02*
X1332091Y-460926D01*
X1332091Y-479974D02*
X1341615Y-470450D01*
X1341615Y-470450D02*
X1360663Y-460926D01*
X1360663Y-460926D02*
X1389234Y-460926D01*
X1389234Y-460926D02*
X1408282Y-470450D01*
X1408282Y-470450D02*
X1417805Y-489498D01*
X1417805Y-489498D02*
X1417805Y-594260D01*
X1417805Y-489498D02*
X1427329Y-470450D01*
X1427329Y-470450D02*
X1446377Y-460926D01*
X1446377Y-460926D02*
X1474948Y-460926D01*
X1474948Y-460926D02*
X1493996Y-470450D01*
X1493996Y-470450D02*
X1503520Y-489498D01*
X1503520Y-489498D02*
X1503520Y-594260D01*
X1893996Y-384736D02*
X1722567Y-641879D01*
X2151139Y-394259D02*
X2170187Y-394259D01*
X2170187Y-394259D02*
X2189234Y-403783D01*
X2189234Y-403783D02*
X2198758Y-413307D01*
X2198758Y-413307D02*
X2208282Y-432355D01*
X2208282Y-432355D02*
X2217806Y-470450D01*
X2217806Y-470450D02*
X2217806Y-518069D01*
X2217806Y-518069D02*
X2208282Y-556164D01*
X2208282Y-556164D02*
X2198758Y-575212D01*
X2198758Y-575212D02*
X2189234Y-584736D01*
X2189234Y-584736D02*
X2170187Y-594260D01*
X2170187Y-594260D02*
X2151139Y-594260D01*
X2151139Y-594260D02*
X2132091Y-584736D01*
X2132091Y-584736D02*
X2122567Y-575212D01*
X2122567Y-575212D02*
X2113044Y-556164D01*
X2113044Y-556164D02*
X2103520Y-518069D01*
X2103520Y-518069D02*
X2103520Y-470450D01*
X2103520Y-470450D02*
X2113044Y-432355D01*
X2113044Y-432355D02*
X2122567Y-413307D01*
X2122567Y-413307D02*
X2132091Y-403783D01*
X2132091Y-403783D02*
X2151139Y-394259D01*
X2303520Y-575212D02*
X2313044Y-584736D01*
X2313044Y-584736D02*
X2303520Y-594260D01*
X2303520Y-594260D02*
X2293996Y-584736D01*
X2293996Y-584736D02*
X2303520Y-575212D01*
X2303520Y-575212D02*
X2303520Y-594260D01*
X2436853Y-394259D02*
X2455901Y-394259D01*
X2455901Y-394259D02*
X2474948Y-403783D01*
X2474948Y-403783D02*
X2484472Y-413307D01*
X2484472Y-413307D02*
X2493996Y-432355D01*
X2493996Y-432355D02*
X2503520Y-470450D01*
X2503520Y-470450D02*
X2503520Y-518069D01*
X2503520Y-518069D02*
X2493996Y-556164D01*
X2493996Y-556164D02*
X2484472Y-575212D01*
X2484472Y-575212D02*
X2474948Y-584736D01*
X2474948Y-584736D02*
X2455901Y-594260D01*
X2455901Y-594260D02*
X2436853Y-594260D01*
X2436853Y-594260D02*
X2417806Y-584736D01*
X2417806Y-584736D02*
X2408282Y-575212D01*
X2408282Y-575212D02*
X2398758Y-556164D01*
X2398758Y-556164D02*
X2389234Y-518069D01*
X2389234Y-518069D02*
X2389234Y-470450D01*
X2389234Y-470450D02*
X2398758Y-432355D01*
X2398758Y-432355D02*
X2408282Y-413307D01*
X2408282Y-413307D02*
X2417806Y-403783D01*
X2417806Y-403783D02*
X2436853Y-394259D01*
X2684472Y-394259D02*
X2589234Y-394259D01*
X2589234Y-394259D02*
X2579710Y-489498D01*
X2579710Y-489498D02*
X2589234Y-479974D01*
X2589234Y-479974D02*
X2608282Y-470450D01*
X2608282Y-470450D02*
X2655901Y-470450D01*
X2655901Y-470450D02*
X2674948Y-479974D01*
X2674948Y-479974D02*
X2684472Y-489498D01*
X2684472Y-489498D02*
X2693996Y-508545D01*
X2693996Y-508545D02*
X2693996Y-556164D01*
X2693996Y-556164D02*
X2684472Y-575212D01*
X2684472Y-575212D02*
X2674948Y-584736D01*
X2674948Y-584736D02*
X2655901Y-594260D01*
X2655901Y-594260D02*
X2608282Y-594260D01*
X2608282Y-594260D02*
X2589234Y-584736D01*
X2589234Y-584736D02*
X2579710Y-575212D01*
X2789234Y-594260D02*
X2827329Y-594260D01*
X2827329Y-594260D02*
X2846377Y-584736D01*
X2846377Y-584736D02*
X2855901Y-575212D01*
X2855901Y-575212D02*
X2874948Y-546640D01*
X2874948Y-546640D02*
X2884472Y-508545D01*
X2884472Y-508545D02*
X2884472Y-432355D01*
X2884472Y-432355D02*
X2874948Y-413307D01*
X2874948Y-413307D02*
X2865425Y-403783D01*
X2865425Y-403783D02*
X2846377Y-394259D01*
X2846377Y-394259D02*
X2808282Y-394259D01*
X2808282Y-394259D02*
X2789234Y-403783D01*
X2789234Y-403783D02*
X2779710Y-413307D01*
X2779710Y-413307D02*
X2770187Y-432355D01*
X2770187Y-432355D02*
X2770187Y-479974D01*
X2770187Y-479974D02*
X2779710Y-499021D01*
X2779710Y-499021D02*
X2789234Y-508545D01*
X2789234Y-508545D02*
X2808282Y-518069D01*
X2808282Y-518069D02*
X2846377Y-518069D01*
X2846377Y-518069D02*
X2865425Y-508545D01*
X2865425Y-508545D02*
X2874948Y-499021D01*
X2874948Y-499021D02*
X2884472Y-479974D01*
X3074948Y-594260D02*
X2960663Y-594260D01*
X3017805Y-594260D02*
X3017805Y-394259D01*
X3017805Y-394259D02*
X2998758Y-422831D01*
X2998758Y-422831D02*
X2979710Y-441878D01*
X2979710Y-441878D02*
X2960663Y-451402D01*
X3151139Y-394259D02*
X3151139Y-432355D01*
X3227329Y-394259D02*
X3227329Y-432355D01*
X3522568Y-670450D02*
X3513044Y-660926D01*
X3513044Y-660926D02*
X3493996Y-632355D01*
X3493996Y-632355D02*
X3484472Y-613307D01*
X3484472Y-613307D02*
X3474948Y-584736D01*
X3474948Y-584736D02*
X3465425Y-537117D01*
X3465425Y-537117D02*
X3465425Y-499021D01*
X3465425Y-499021D02*
X3474948Y-451402D01*
X3474948Y-451402D02*
X3484472Y-422831D01*
X3484472Y-422831D02*
X3493996Y-403783D01*
X3493996Y-403783D02*
X3513044Y-375212D01*
X3513044Y-375212D02*
X3522568Y-365688D01*
X3589234Y-413307D02*
X3598758Y-403783D01*
X3598758Y-403783D02*
X3617806Y-394259D01*
X3617806Y-394259D02*
X3665425Y-394259D01*
X3665425Y-394259D02*
X3684472Y-403783D01*
X3684472Y-403783D02*
X3693996Y-413307D01*
X3693996Y-413307D02*
X3703520Y-432355D01*
X3703520Y-432355D02*
X3703520Y-451402D01*
X3703520Y-451402D02*
X3693996Y-479974D01*
X3693996Y-479974D02*
X3579710Y-594260D01*
X3579710Y-594260D02*
X3703520Y-594260D01*
X3941615Y-594260D02*
X3941615Y-394259D01*
X4027329Y-594260D02*
X4027329Y-489498D01*
X4027329Y-489498D02*
X4017806Y-470450D01*
X4017806Y-470450D02*
X3998758Y-460926D01*
X3998758Y-460926D02*
X3970187Y-460926D01*
X3970187Y-460926D02*
X3951139Y-470450D01*
X3951139Y-470450D02*
X3941615Y-479974D01*
X4151139Y-594260D02*
X4132091Y-584736D01*
X4132091Y-584736D02*
X4122568Y-575212D01*
X4122568Y-575212D02*
X4113044Y-556164D01*
X4113044Y-556164D02*
X4113044Y-499021D01*
X4113044Y-499021D02*
X4122568Y-479974D01*
X4122568Y-479974D02*
X4132091Y-470450D01*
X4132091Y-470450D02*
X4151139Y-460926D01*
X4151139Y-460926D02*
X4179710Y-460926D01*
X4179710Y-460926D02*
X4198758Y-470450D01*
X4198758Y-470450D02*
X4208282Y-479974D01*
X4208282Y-479974D02*
X4217806Y-499021D01*
X4217806Y-499021D02*
X4217806Y-556164D01*
X4217806Y-556164D02*
X4208282Y-575212D01*
X4208282Y-575212D02*
X4198758Y-584736D01*
X4198758Y-584736D02*
X4179710Y-594260D01*
X4179710Y-594260D02*
X4151139Y-594260D01*
X4332091Y-594260D02*
X4313044Y-584736D01*
X4313044Y-584736D02*
X4303520Y-565688D01*
X4303520Y-565688D02*
X4303520Y-394259D01*
X4484472Y-584736D02*
X4465425Y-594260D01*
X4465425Y-594260D02*
X4427330Y-594260D01*
X4427330Y-594260D02*
X4408282Y-584736D01*
X4408282Y-584736D02*
X4398758Y-565688D01*
X4398758Y-565688D02*
X4398758Y-489498D01*
X4398758Y-489498D02*
X4408282Y-470450D01*
X4408282Y-470450D02*
X4427330Y-460926D01*
X4427330Y-460926D02*
X4465425Y-460926D01*
X4465425Y-460926D02*
X4484472Y-470450D01*
X4484472Y-470450D02*
X4493996Y-489498D01*
X4493996Y-489498D02*
X4493996Y-508545D01*
X4493996Y-508545D02*
X4398758Y-527593D01*
X4570187Y-584736D02*
X4589234Y-594260D01*
X4589234Y-594260D02*
X4627330Y-594260D01*
X4627330Y-594260D02*
X4646377Y-584736D01*
X4646377Y-584736D02*
X4655901Y-565688D01*
X4655901Y-565688D02*
X4655901Y-556164D01*
X4655901Y-556164D02*
X4646377Y-537117D01*
X4646377Y-537117D02*
X4627330Y-527593D01*
X4627330Y-527593D02*
X4598758Y-527593D01*
X4598758Y-527593D02*
X4579711Y-518069D01*
X4579711Y-518069D02*
X4570187Y-499021D01*
X4570187Y-499021D02*
X4570187Y-489498D01*
X4570187Y-489498D02*
X4579711Y-470450D01*
X4579711Y-470450D02*
X4598758Y-460926D01*
X4598758Y-460926D02*
X4627330Y-460926D01*
X4627330Y-460926D02*
X4646377Y-470450D01*
X4722568Y-670450D02*
X4732092Y-660926D01*
X4732092Y-660926D02*
X4751139Y-632355D01*
X4751139Y-632355D02*
X4760663Y-613307D01*
X4760663Y-613307D02*
X4770187Y-584736D01*
X4770187Y-584736D02*
X4779711Y-537117D01*
X4779711Y-537117D02*
X4779711Y-499021D01*
X4779711Y-499021D02*
X4770187Y-451402D01*
X4770187Y-451402D02*
X4760663Y-422831D01*
X4760663Y-422831D02*
X4751139Y-403783D01*
X4751139Y-403783D02*
X4732092Y-375212D01*
X4732092Y-375212D02*
X4722568Y-365688D01*
X5084473Y-670450D02*
X5074949Y-660926D01*
X5074949Y-660926D02*
X5055901Y-632355D01*
X5055901Y-632355D02*
X5046377Y-613307D01*
X5046377Y-613307D02*
X5036853Y-584736D01*
X5036853Y-584736D02*
X5027330Y-537117D01*
X5027330Y-537117D02*
X5027330Y-499021D01*
X5027330Y-499021D02*
X5036853Y-451402D01*
X5036853Y-451402D02*
X5046377Y-422831D01*
X5046377Y-422831D02*
X5055901Y-403783D01*
X5055901Y-403783D02*
X5074949Y-375212D01*
X5074949Y-375212D02*
X5084473Y-365688D01*
X5160663Y-460926D02*
X5160663Y-594260D01*
X5160663Y-479974D02*
X5170187Y-470450D01*
X5170187Y-470450D02*
X5189234Y-460926D01*
X5189234Y-460926D02*
X5217806Y-460926D01*
X5217806Y-460926D02*
X5236853Y-470450D01*
X5236853Y-470450D02*
X5246377Y-489498D01*
X5246377Y-489498D02*
X5246377Y-594260D01*
X5370187Y-594260D02*
X5351139Y-584736D01*
X5351139Y-584736D02*
X5341615Y-575212D01*
X5341615Y-575212D02*
X5332092Y-556164D01*
X5332092Y-556164D02*
X5332092Y-499021D01*
X5332092Y-499021D02*
X5341615Y-479974D01*
X5341615Y-479974D02*
X5351139Y-470450D01*
X5351139Y-470450D02*
X5370187Y-460926D01*
X5370187Y-460926D02*
X5398758Y-460926D01*
X5398758Y-460926D02*
X5417806Y-470450D01*
X5417806Y-470450D02*
X5427330Y-479974D01*
X5427330Y-479974D02*
X5436853Y-499021D01*
X5436853Y-499021D02*
X5436853Y-556164D01*
X5436853Y-556164D02*
X5427330Y-575212D01*
X5427330Y-575212D02*
X5417806Y-584736D01*
X5417806Y-584736D02*
X5398758Y-594260D01*
X5398758Y-594260D02*
X5370187Y-594260D01*
X5493996Y-460926D02*
X5570187Y-460926D01*
X5522568Y-394259D02*
X5522568Y-565688D01*
X5522568Y-565688D02*
X5532092Y-584736D01*
X5532092Y-584736D02*
X5551139Y-594260D01*
X5551139Y-594260D02*
X5570187Y-594260D01*
X5789234Y-460926D02*
X5789234Y-660926D01*
X5789234Y-470450D02*
X5808282Y-460926D01*
X5808282Y-460926D02*
X5846377Y-460926D01*
X5846377Y-460926D02*
X5865425Y-470450D01*
X5865425Y-470450D02*
X5874949Y-479974D01*
X5874949Y-479974D02*
X5884472Y-499021D01*
X5884472Y-499021D02*
X5884472Y-556164D01*
X5884472Y-556164D02*
X5874949Y-575212D01*
X5874949Y-575212D02*
X5865425Y-584736D01*
X5865425Y-584736D02*
X5846377Y-594260D01*
X5846377Y-594260D02*
X5808282Y-594260D01*
X5808282Y-594260D02*
X5789234Y-584736D01*
X5998758Y-594260D02*
X5979711Y-584736D01*
X5979711Y-584736D02*
X5970187Y-565688D01*
X5970187Y-565688D02*
X5970187Y-394259D01*
X6160663Y-594260D02*
X6160663Y-489498D01*
X6160663Y-489498D02*
X6151139Y-470450D01*
X6151139Y-470450D02*
X6132092Y-460926D01*
X6132092Y-460926D02*
X6093996Y-460926D01*
X6093996Y-460926D02*
X6074949Y-470450D01*
X6160663Y-584736D02*
X6141615Y-594260D01*
X6141615Y-594260D02*
X6093996Y-594260D01*
X6093996Y-594260D02*
X6074949Y-584736D01*
X6074949Y-584736D02*
X6065425Y-565688D01*
X6065425Y-565688D02*
X6065425Y-546640D01*
X6065425Y-546640D02*
X6074949Y-527593D01*
X6074949Y-527593D02*
X6093996Y-518069D01*
X6093996Y-518069D02*
X6141615Y-518069D01*
X6141615Y-518069D02*
X6160663Y-508545D01*
X6227330Y-460926D02*
X6303520Y-460926D01*
X6255901Y-394259D02*
X6255901Y-565688D01*
X6255901Y-565688D02*
X6265425Y-584736D01*
X6265425Y-584736D02*
X6284472Y-594260D01*
X6284472Y-594260D02*
X6303520Y-594260D01*
X6446377Y-584736D02*
X6427330Y-594260D01*
X6427330Y-594260D02*
X6389234Y-594260D01*
X6389234Y-594260D02*
X6370187Y-584736D01*
X6370187Y-584736D02*
X6360663Y-565688D01*
X6360663Y-565688D02*
X6360663Y-489498D01*
X6360663Y-489498D02*
X6370187Y-470450D01*
X6370187Y-470450D02*
X6389234Y-460926D01*
X6389234Y-460926D02*
X6427330Y-460926D01*
X6427330Y-460926D02*
X6446377Y-470450D01*
X6446377Y-470450D02*
X6455901Y-489498D01*
X6455901Y-489498D02*
X6455901Y-508545D01*
X6455901Y-508545D02*
X6360663Y-527593D01*
X6627330Y-594260D02*
X6627330Y-394259D01*
X6627330Y-584736D02*
X6608282Y-594260D01*
X6608282Y-594260D02*
X6570187Y-594260D01*
X6570187Y-594260D02*
X6551139Y-584736D01*
X6551139Y-584736D02*
X6541615Y-575212D01*
X6541615Y-575212D02*
X6532092Y-556164D01*
X6532092Y-556164D02*
X6532092Y-499021D01*
X6532092Y-499021D02*
X6541615Y-479974D01*
X6541615Y-479974D02*
X6551139Y-470450D01*
X6551139Y-470450D02*
X6570187Y-460926D01*
X6570187Y-460926D02*
X6608282Y-460926D01*
X6608282Y-460926D02*
X6627330Y-470450D01*
X6703520Y-670450D02*
X6713044Y-660926D01*
X6713044Y-660926D02*
X6732092Y-632355D01*
X6732092Y-632355D02*
X6741615Y-613307D01*
X6741615Y-613307D02*
X6751139Y-584736D01*
X6751139Y-584736D02*
X6760663Y-537117D01*
X6760663Y-537117D02*
X6760663Y-499021D01*
X6760663Y-499021D02*
X6751139Y-451402D01*
X6751139Y-451402D02*
X6741615Y-422831D01*
X6741615Y-422831D02*
X6732092Y-403783D01*
X6732092Y-403783D02*
X6713044Y-375212D01*
X6713044Y-375212D02*
X6703520Y-365688D01*
M02*
